<svg id="fcd3d25d-d108-49f1-8b05-f961042549e8" data-name="Layer 1" xmlns="http://www.w3.org/2000/svg" xmlns:xlink="http://www.w3.org/1999/xlink" width="1070.95" height="699.99" viewBox="0 0 1070.95 699.99"><defs><linearGradient id="fef4cf94-7324-40d6-9308-a34b9052882e" x1="330.01" y1="508.56" x2="330.01" y2="378.95" gradientUnits="userSpaceOnUse"><stop offset="0" stop-color="gray" stop-opacity="0.25"/><stop offset="0.54" stop-color="gray" stop-opacity="0.12"/><stop offset="1" stop-color="gray" stop-opacity="0.1"/></linearGradient><linearGradient id="a80d1734-be81-4131-80dc-9f99dd32826f" x1="331.18" y1="435.61" x2="331.18" y2="275.03" xlink:href="#fef4cf94-7324-40d6-9308-a34b9052882e"/><linearGradient id="b8ac3475-35f8-4092-9872-a57a3345fb2f" x1="330.79" y1="364.98" x2="330.79" y2="214.89" xlink:href="#fef4cf94-7324-40d6-9308-a34b9052882e"/><linearGradient id="b3ae9166-1975-42d6-a5da-6dde3bd06bc3" x1="330.01" y1="294.36" x2="330.01" y2="160.36" xlink:href="#fef4cf94-7324-40d6-9308-a34b9052882e"/><linearGradient id="f1580149-b967-4fa8-90a0-ba830bea3bda" x1="330.01" y1="229.17" x2="330.01" y2="112" xlink:href="#fef4cf94-7324-40d6-9308-a34b9052882e"/><linearGradient id="f1e2654b-94bc-49c8-8a28-ae0704d4f4ce" x1="330.79" y1="166.31" x2="330.79" y2="61.54" xlink:href="#fef4cf94-7324-40d6-9308-a34b9052882e"/><linearGradient id="b40fb3f0-bb3e-4f8e-91ff-2be9e35f52da" x1="810.81" y1="508.56" x2="810.81" y2="378.95" xlink:href="#fef4cf94-7324-40d6-9308-a34b9052882e"/><linearGradient id="ae12fb98-ae95-4872-bedc-39e3eedb1f32" x1="811.97" y1="435.61" x2="811.97" y2="275.03" xlink:href="#fef4cf94-7324-40d6-9308-a34b9052882e"/><linearGradient id="b166d3c9-df9a-4de5-83d8-d414abef440c" x1="811.58" y1="364.98" x2="811.58" y2="214.89" xlink:href="#fef4cf94-7324-40d6-9308-a34b9052882e"/><linearGradient id="b061e48c-ab00-4bab-b633-0d8883e28d60" x1="810.81" y1="294.36" x2="810.81" y2="160.36" xlink:href="#fef4cf94-7324-40d6-9308-a34b9052882e"/><linearGradient id="bde1892e-1553-41ae-8f68-fb058a039dbb" x1="810.81" y1="229.17" x2="810.81" y2="112" xlink:href="#fef4cf94-7324-40d6-9308-a34b9052882e"/><linearGradient id="e817b007-cd08-4a5f-be21-14d70a041dbe" x1="811.58" y1="166.31" x2="811.58" y2="61.54" xlink:href="#fef4cf94-7324-40d6-9308-a34b9052882e"/><linearGradient id="bf46f249-a477-4314-86a9-b11a03aac9c2" x1="716.62" y1="473.23" x2="722.45" y2="473.23" xlink:href="#fef4cf94-7324-40d6-9308-a34b9052882e"/><linearGradient id="f02dae63-2716-4499-8829-0f3c1d22b336" x1="666.57" y1="452.78" x2="666.57" y2="323.18" xlink:href="#fef4cf94-7324-40d6-9308-a34b9052882e"/><linearGradient id="e216d1b7-8c41-4554-bf7f-ae8aca50e93b" x1="667.73" y1="379.83" x2="667.73" y2="219.26" xlink:href="#fef4cf94-7324-40d6-9308-a34b9052882e"/><linearGradient id="a388f240-4233-41bd-9b88-3ec7cb607a84" x1="667.34" y1="309.21" x2="667.34" y2="159.12" xlink:href="#fef4cf94-7324-40d6-9308-a34b9052882e"/><linearGradient id="fc313e3a-7159-49bd-86c9-84978a1d2dad" x1="666.57" y1="238.59" x2="666.57" y2="104.59" xlink:href="#fef4cf94-7324-40d6-9308-a34b9052882e"/><linearGradient id="bfdad6fd-fd4e-4e25-9952-234966a88e72" x1="666.57" y1="173.4" x2="666.57" y2="56.23" xlink:href="#fef4cf94-7324-40d6-9308-a34b9052882e"/><linearGradient id="e50b897c-ade0-4be7-b4e5-332052d62a93" x1="667.34" y1="110.54" x2="667.34" y2="5.77" xlink:href="#fef4cf94-7324-40d6-9308-a34b9052882e"/><linearGradient id="ea8c5887-e056-4379-931b-a9e63f445b24" x1="572.39" y1="417.45" x2="578.22" y2="417.45" xlink:href="#fef4cf94-7324-40d6-9308-a34b9052882e"/><linearGradient id="bc307777-59a7-4dbe-9da6-0a37c2cc1360" x1="512.71" y1="447.02" x2="512.71" y2="317.41" xlink:href="#fef4cf94-7324-40d6-9308-a34b9052882e"/><linearGradient id="ff52c3c1-4047-41a7-9a70-beaf9c3b2e8c" x1="513.88" y1="374.06" x2="513.88" y2="213.49" xlink:href="#fef4cf94-7324-40d6-9308-a34b9052882e"/><linearGradient id="b429f6f9-2c89-4f7e-8a23-e7d9cd85b6a2" x1="513.49" y1="303.44" x2="513.49" y2="153.35" xlink:href="#fef4cf94-7324-40d6-9308-a34b9052882e"/><linearGradient id="af056679-c2b8-4a85-bc92-a08c56455e81" x1="512.71" y1="232.82" x2="512.71" y2="98.82" xlink:href="#fef4cf94-7324-40d6-9308-a34b9052882e"/><linearGradient id="e93608fa-b1e0-410c-9134-74c663a6a4e3" x1="512.71" y1="167.63" x2="512.71" y2="50.46" xlink:href="#fef4cf94-7324-40d6-9308-a34b9052882e"/><linearGradient id="abca7e8f-91c5-4ada-a301-13a2907305ff" x1="513.49" y1="104.77" x2="513.49" y2="0" xlink:href="#fef4cf94-7324-40d6-9308-a34b9052882e"/><linearGradient id="eb8337b1-7107-46a4-95e9-0a9d4032ba74" x1="418.53" y1="411.68" x2="424.36" y2="411.68" xlink:href="#fef4cf94-7324-40d6-9308-a34b9052882e"/><linearGradient id="e0d89c2b-d4d6-4255-9ab5-75b3a32cb9fc" x1="433.73" y1="558.36" x2="718.73" y2="558.36" xlink:href="#fef4cf94-7324-40d6-9308-a34b9052882e"/><linearGradient id="f124af43-bbe2-4ae3-b9f8-0896fa906c7a" x1="213.13" y1="601.39" x2="213.13" y2="589.5" xlink:href="#fef4cf94-7324-40d6-9308-a34b9052882e"/><linearGradient id="a08b132f-3dc1-48d2-ab19-d366b6b14edb" x1="277.65" y1="693.91" x2="277.65" y2="675.81" xlink:href="#fef4cf94-7324-40d6-9308-a34b9052882e"/><linearGradient id="ed9eb46f-d04a-4205-93b8-cf6d4f63ac42" x1="247.54" y1="609.81" x2="247.54" y2="600.99" xlink:href="#fef4cf94-7324-40d6-9308-a34b9052882e"/><linearGradient id="bc62cbaa-e7b4-430f-9d47-b78a0c86e4f4" x1="312.07" y1="704.43" x2="312.07" y2="691.01" xlink:href="#fef4cf94-7324-40d6-9308-a34b9052882e"/><linearGradient id="eda7e9cb-0716-47d4-907d-a44c8661e6a3" x1="213.44" y1="637.18" x2="213.44" y2="630.72" xlink:href="#fef4cf94-7324-40d6-9308-a34b9052882e"/><linearGradient id="b241385e-d047-4061-b94d-72bc05b89ad9" x1="277.97" y1="733.9" x2="277.97" y2="724.07" xlink:href="#fef4cf94-7324-40d6-9308-a34b9052882e"/></defs><title>Camping</title><g opacity="0.5"><path d="M334.87,255.45c-12,16.85-21.23,65.92-23.8,80.71l-21.48-.43c1.11-12.71,26.1-64.39,33-78.57C326.5,256.55,330.62,256,334.87,255.45Z" transform="translate(-64.52 -100.01)" fill="#714880"/><rect x="593.58" y="244.57" width="9.52" height="13.41" transform="matrix(1, -0.02, 0.02, 1, -69.16, -88.66)" fill="#dce0ed"/><path d="M603,244.48l.08,4.36a6.77,6.77,0,0,1-2.06.32l-7.45.08-.09-4.58Z" transform="translate(-64.52 -100.01)" opacity="0.1"/><path d="M588.79,210.59l9-.17A10.79,10.79,0,0,1,607.89,217c2.75,6.43,5.17,16.68-.49,27.06a7.4,7.4,0,0,1-6.44,3.87L589.5,248Z" transform="translate(-64.52 -100.01)" fill="#dce0ed"/><ellipse cx="589.14" cy="229.3" rx="9.62" ry="18.72" transform="translate(-68.75 -88.84) rotate(-1.08)" fill="#f0f0f4"/><rect x="509.04" y="246.32" width="9.52" height="11.74" transform="translate(-69.19 -90.26) rotate(-1.08)" fill="#dce0ed"/><path d="M518.45,246.24l.07,3.73a7.09,7.09,0,0,1-2.06.31l-7.45.08-.08-3.94Z" transform="translate(-64.52 -100.01)" opacity="0.1"/><path d="M504.27,212.34l9-.17a10.8,10.8,0,0,1,10.12,6.54c2.75,6.43,5.17,16.69-.48,27.07a7.45,7.45,0,0,1-6.45,3.87l-11.46.12Z" transform="translate(-64.52 -100.01)" fill="#dce0ed"/><ellipse cx="504.62" cy="231.06" rx="9.62" ry="18.72" transform="translate(-68.8 -90.44) rotate(-1.08)" fill="#f0f0f4"/><path d="M506.8,219.14s-3.54.63-1.6,5.28a32.47,32.47,0,0,1,2.26,7.06s3.58,1.78,3.33-4.32S506.8,219.14,506.8,219.14Z" transform="translate(-64.52 -100.01)" fill="#dce0ed"/><ellipse cx="151.28" cy="493.34" rx="56.15" ry="61.54" transform="translate(-73.81 -97.06) rotate(-1.08)" fill="#636780"/><path d="M171.22,435.25c-29.34,2.54-52.1,29.71-51.49,62.41.5,26.35,16,48.55,37.46,56.91,29.34-2.53,52.11-29.71,51.49-62.4C208.18,465.81,192.64,443.62,171.22,435.25Z" transform="translate(-64.52 -100.01)" opacity="0.1"/><ellipse cx="588.1" cy="350.57" rx="45.57" ry="59.42" transform="translate(-71.04 -88.84) rotate(-1.08)" fill="#636780"/><path d="M574.29,293.89c-18.76,7.59-32.13,30.63-31.62,57.62.55,28.84,16.76,52.58,37.76,57.58,18.76-7.6,32.13-30.64,31.62-57.62C611.5,322.63,595.29,298.89,574.29,293.89Z" transform="translate(-64.52 -100.01)" opacity="0.1"/><path d="M416.7,341.12l.44-21.59s-4.4-9.22-8.65-10-14-1.11-14-1.11-7,31.12-1.77,40.33S416.7,341.12,416.7,341.12Z" transform="translate(-64.52 -100.01)" fill="#714880"/><path d="M416.7,341.12l.44-21.59s-4.4-9.22-8.65-10-14-1.11-14-1.11-7,31.12-1.77,40.33S416.7,341.12,416.7,341.12Z" transform="translate(-64.52 -100.01)" opacity="0.1"/><path d="M338.64,340.26s-3.19-29.85,13.24-30.7c2.11-.11,4.23-.2,6.33-.44,11.37-1.32,42.39-4.3,38.8,2.86,0,0-6.91,26.15-1.71,32.61Z" transform="translate(-64.52 -100.01)" fill="#714880"/><path d="M572.59,391.31l22,.22s3-40.66,4.25-43.86,1.55-18.43-2.61-20.57-18-4.58-18-4.58l-9.72,23.34-.39,20.95Z" transform="translate(-64.52 -100.01)" fill="#714880"/><path d="M572.59,391.31l22,.22s3-40.66,4.25-43.86,1.55-18.43-2.61-20.57-18-4.58-18-4.58l-9.72,23.34-.39,20.95Z" transform="translate(-64.52 -100.01)" opacity="0.1"/><path d="M518,324.93l-.18-4.52a2.61,2.61,0,0,1,2.66-2.72c10.94.26,50.73,1.41,57.76,4.83,0,0-6.55,56.76,2.11,70.08l-2,45.4-97.5-5.45Z" transform="translate(-64.52 -100.01)" fill="#714880"/><path d="M509.07,253.58c2.7-.32,5.91-.67,9.5-1l.1,5.41-9.52.18Z" transform="translate(-64.52 -100.01)" opacity="0.1"/><path d="M603.21,257.2v.68l-9.52.18-.07-4.11A40.25,40.25,0,0,1,603.21,257.2Z" transform="translate(-64.52 -100.01)" opacity="0.1"/><polygon points="588.96 291.21 574.59 291.69 543.86 238.26 538.73 229.34 542.1 206.43 545.13 211.91 588.96 291.21" fill="#dce0ed"/><polygon points="457.68 227.27 451.93 236.26 433.78 212.67 425.47 201.86 430.21 195.22 434.02 199.66 457.68 227.27" fill="#dce0ed"/><path d="M498.54,299.67c0,.46.07.93.11,1.4l-.35,11.61L490,301.87l4.74-6.64Z" transform="translate(-64.52 -100.01)" opacity="0.1"/><polygon points="545.13 211.91 543.86 238.26 538.73 229.34 542.1 206.43 545.13 211.91" opacity="0.1"/><path d="M482,316.83s-8.1-52.9,17.59-61.32a5.87,5.87,0,0,1,1-.22c5.94-.83,61.26-8.27,90.2-1.22,0,0,19.72,2.59,19.7,13.16l-6.22,129.36-14.17.26,3-85.51S599.24,274,588,271.68s-62.29-5.59-80.17-.18c0,0-13.16-2.71-10.44,29.6l-.52,17.35Z" transform="translate(-64.52 -100.01)" fill="#dce0ed"/><path d="M525.46,331.77a8.2,8.2,0,0,0-3.47-7.24c-4-2.93-16.36-9.21-16.36-9.21l-3.95.4-11.34,29.72,2,62.62,21.9,26.08Z" transform="translate(-64.52 -100.01)" fill="#714880"/><path d="M525.46,331.77a8.2,8.2,0,0,0-3.47-7.24c-4-2.93-16.36-9.21-16.36-9.21l-3.95.4-11.34,29.72,2,62.62,21.9,26.08Z" transform="translate(-64.52 -100.01)" opacity="0.1"/><path d="M441.28,399l-.8-64.28s-2.37-24.92,12.53-25.62c0,0,35.16-.41,50.52,4.26a3.41,3.41,0,0,1,2,4.89c-2.94,5.35-7.8,19.46-9.6,55.45l.73,38.53Z" transform="translate(-64.52 -100.01)" fill="#714880"/><polygon points="451.69 338.69 387.7 338.41 387.63 338.41 356.18 338.28 359.04 296.18 376.49 296.49 432.23 307.81 449.7 334.13 451.69 338.69" fill="#714880"/><polygon points="451.69 338.69 387.7 338.41 387.63 338.41 356.18 338.28 359.04 296.18 376.49 296.49 432.23 307.81 449.7 334.13 451.69 338.69" opacity="0.1"/><polygon points="451.69 338.69 387.7 338.41 386.11 310.27 432.23 307.81 449.7 334.13 451.69 338.69" fill="#714880"/><path d="M452.16,438.42l-31.45-.14,2.85-42.09s10.13,15.52,27.08,14.08Z" transform="translate(-64.52 -100.01)" fill="#fff" opacity="0.1"/><path d="M678.42,468.16c-1,12.07-9.64,10.33-9.64,10.33l-1.6-.11-15.88-1.14.28-18.73a69.12,69.12,0,0,1,16.1.66C673.64,460.29,678.88,462.79,678.42,468.16Z" transform="translate(-64.52 -100.01)" fill="#dce0ed"/><path d="M678.42,468.16c-1,12.07-9.64,10.33-9.64,10.33l-1.6-.11a16.22,16.22,0,0,1-2.7-9c-.08-4.19,1.19-7.93,3.2-10.2C673.64,460.29,678.88,462.79,678.42,468.16Z" transform="translate(-64.52 -100.01)" opacity="0.1"/><path d="M430.38,314.84c-14.48.28-25.92,16.35-25.55,35.91s12.41,35.2,26.89,34.92,25.92-16.35,25.55-35.91S444.86,314.57,430.38,314.84Zm-2.5,63.5c-11,.21-20.2-11.12-20.47-25.31s8.46-25.86,19.5-26.07,20.19,11.13,20.46,25.32S438.91,378.13,427.88,378.34Z" transform="translate(-64.52 -100.01)" fill="#636780"/><polygon points="368 261.12 380.49 272.94 384.73 262.07 366.77 252.04 368 261.12" fill="#636780"/><polygon points="383.82 141.49 394.53 142.59 398.57 147.22 393.08 174.36 381.14 218.13 373.34 248.18 367.79 266.44 364.49 290.53 361.05 307.12 350 318.59 326.6 292 322.67 283.06 313.32 264.84 336.38 253.52 361.86 250.78 373.29 219.78 382.37 183.94 383.82 141.49" fill="#714880"/><polyline points="170.27 274.37 158.53 391.77 334.1 381.05 312.71 323.92 278.47 302.57 355.88 302.38 355.69 270.23 324.27 264.06 261.17 260.17 213.77 258.95 168.8 274.61" fill="#714880"/><polyline points="170.27 274.37 158.53 391.77 334.1 381.05 312.71 323.92 278.47 302.57 355.88 302.38 355.69 270.23 324.27 264.06 261.17 260.17 213.77 258.95 168.8 274.61" opacity="0.1"/><path d="M477.05,486.58c.55,29.11-8.62,55.79-35.51,53.39-33.86-.08-37-22.9-37.5-52s15.38-51.08,35.54-51.46S476.5,457.47,477.05,486.58Z" transform="translate(-64.52 -100.01)" fill="#636780"/><path d="M477.26,486.63c-.42-22.54-10.56-40.42-24.48-47.18-17.63,3.7-30.85,24.32-30.35,50.87.45,23.86,2.61,43.48,22,49.84C469.25,540.58,477.79,514.74,477.26,486.63Z" transform="translate(-64.52 -100.01)" opacity="0.1"/><polygon points="446.15 340.24 436.05 352.25 454.57 348.71 468.21 335.69 480.13 310.69 497.38 299.66 540.27 304.67 579.9 305.42 594.27 292.17 577.92 290.26 561.4 290.19 519.91 290.04 470.53 289.66 460.91 316.87 453.57 335.59 446.15 340.24" fill="#714880"/><path d="M653.58,485.76c-.82,1.28-28.44,6-28.44,6l-76.27,15.4-131.49,4.38L401.7,498.76l-8.08,1.6-.32.06L285.38,521.69l-1.77-.22L254,517.82,99.45,498.76l1.31-22.41.77-13.22,1.59-27.47,1.35-7.22,13.7-1.51,6.41-.71,99.87-11.07,13.06-1.45,7.32-.81,71.28-11.07,104.29.57-.18-32.15L459.05,242.6c9.12,1.3,9,7.44,9,7.44L435.23,370.16l1,73.38c73.14,6,75.19-10,86.84-4.81l13.12-44.87,122.64-1.69C663.77,398,653.58,485.76,653.58,485.76Z" transform="translate(-64.52 -100.01)" fill="#714880"/><polygon points="283.54 324.89 324.02 407.68 337.21 411.66 340.13 398.07 324.66 352.04 309.14 325.47 283.54 324.89" fill="#714880"/><polygon points="283.54 324.89 324.02 407.68 337.21 411.66 340.13 398.07 324.66 352.04 309.14 325.47 283.54 324.89" opacity="0.15"/><ellipse cx="324.48" cy="517.36" rx="70.47" ry="79.94" transform="matrix(1, -0.02, 0.02, 1, -74.24, -93.79)" fill="#636780"/><path d="M348.2,441.94c-36.83,3.27-65.38,38.55-64.57,81,.64,34.23,20.17,63.07,47.06,74,36.82-3.27,65.37-38.55,64.57-81C394.61,481.67,375.08,452.83,348.2,441.94Z" transform="translate(-64.52 -100.01)" opacity="0.1"/><path d="M133,381.17l-3.18,16.5-9.73,50.57-46-3.57s-2.9-8.4,4.23-11.71c0,0,1.81-28.67,10.12-37.84a8.67,8.67,0,0,1,3.29-2.39Z" transform="translate(-64.52 -100.01)" fill="#714880"/><path d="M129.8,397.67l-9.73,50.57-46-3.57s-2.9-8.4,4.23-11.71c0,0,1.81-28.67,10.12-37.84Z" transform="translate(-64.52 -100.01)" fill="#fff" opacity="0.1"/><path d="M236.45,383.65c6.11,9.82-6.54,101.65-6.54,101.65l-113-16.48,2.5-80.21c2-14.42,10.48-16.27,10.48-16.27,39.37-20.84,130.63-26.79,130.63-26.79,83.36,1.59,159.74,24.69,159.74,24.69C325.22,357.44,236.45,383.65,236.45,383.65Z" transform="translate(-64.52 -100.01)" fill="#714880"/><path d="M229.91,485.3l-113-16.48,2.5-80.21c2-14.42,10.48-16.27,10.48-16.27S212,363,236.45,383.65C242.56,393.47,229.91,485.3,229.91,485.3Z" transform="translate(-64.52 -100.01)" opacity="0.1"/><path d="M217.9,480.24l-94.53-14.1,2.07-68.43c1.71-12.31,8.75-13.88,8.75-13.88s68.65-8,89.15,9.69C228.44,401.9,217.9,480.24,217.9,480.24Z" transform="translate(-64.52 -100.01)" fill="#714880"/><ellipse cx="209.09" cy="424.14" rx="12.9" ry="23.47" transform="translate(-72.5 -95.98) rotate(-1.08)" opacity="0.1"/><ellipse cx="209.07" cy="423.51" rx="12.9" ry="23.47" transform="matrix(1, -0.02, 0.02, 1, -72.48, -95.98)" fill="#dce0ed"/><path d="M210.44,406.14s-5.27.94-2.39,7.87,3.37,10.51,3.37,10.51,5.34,2.65,5-6.44S210.44,406.14,210.44,406.14Z" transform="translate(-64.52 -100.01)" fill="#f0f0f4"/><ellipse cx="139.77" cy="416.15" rx="12.05" ry="21.93" transform="translate(-72.36 -97.29) rotate(-1.08)" opacity="0.1"/><ellipse cx="139.76" cy="415.51" rx="12.05" ry="21.93" transform="translate(-72.34 -97.29) rotate(-1.08)" fill="#dce0ed"/><path d="M141.12,398.14s-5.27.95-2.39,7.87,3.38,10.51,3.38,10.51,5.33,2.65,4.95-6.43S141.12,398.14,141.12,398.14Z" transform="translate(-64.52 -100.01)" fill="#f0f0f4"/><path d="M193.91,404.55c-.68,8.68-3.7,73-3.7,73L183,476.52l-4-.58-5.33-.79-.64-.09L152,472l2.85-68.26a8.56,8.56,0,0,1,6.12-7.84,8.36,8.36,0,0,1,2.36-.34c.21,0,.43,0,.64,0,1.45.09,3,.22,4.64.36l2.09.21c2,.2,4.09.45,6.14.75,1,.16,2.06.32,3.08.5,1.71.31,3.37.65,4.9,1.05,1,.27,2,.56,2.93.88C191.59,400.59,194.09,402.3,193.91,404.55Z" transform="translate(-64.52 -100.01)" opacity="0.1"/><path d="M163.36,395.52l-2.65,76.7-2.33-.16,2.62-76.2A8.36,8.36,0,0,1,163.36,395.52Z" transform="translate(-64.52 -100.01)" fill="#714880"/><path d="M170.73,396.11l-2.38,77.45-3.59.07,3.88-77.73Z" transform="translate(-64.52 -100.01)" fill="#714880"/><path d="M180,397.36l-4.59,77.76-2.33,0v-.1l3.83-78.2C177.91,397,178.93,397.18,180,397.36Z" transform="translate(-64.52 -100.01)" fill="#714880"/><path d="M187.78,399.29,183,476.52v.15l-4-.35,0-.38,5.84-77.53C185.89,398.68,186.87,399,187.78,399.29Z" transform="translate(-64.52 -100.01)" fill="#714880"/><path d="M102.91,460.63s-8.53-40,9.19-42.38,76.16.79,74.73,17.31S184,477.18,184,477.18l-12.11-2.47s8.33-37.91-5.81-39.07-48.79-4.47-48.79-4.47-9.38-1.41-3.36,31.63Z" transform="translate(-64.52 -100.01)" opacity="0.1"/><path d="M103,464.43s-8.57-42.51,9.15-44.91,76.16.79,74.72,17.31S184,478.45,184,478.45L171.89,476s8.32-37.91-5.82-39.07-48.78-4.48-48.78-4.48S108,433.56,114,466.6Z" transform="translate(-64.52 -100.01)" fill="#dce0ed"/><path d="M417.38,511.58l-15.64.08c-12.37-50.1-31.78-81-31.78-81-6.41-3.27-75.75-1.54-75.75-1.54-7.17,1.41-8.64,24.28-8.64,24.28s6.23,5.17.38,8.67c-2.62,1.55-11.31,2-21.35,1.68-12.47-.41-27-2-34.54-4.23-13.61-4-3-12-3-12s1.86-2.57,2.86-16.55a56.46,56.46,0,0,1,7.29-23.18c.56-1,.92-1.51.92-1.51a7.52,7.52,0,0,1,2.44-1.6c17.79-7.82,105.78-2.35,105.78-2.35l32.76,9.75c.9.35,2.34,2.61,4.12,6.25C394,440.17,417.38,511.58,417.38,511.58Z" transform="translate(-64.52 -100.01)" fill="#714880"/><path d="M417.38,511.58l-15.64.08c-12.37-50.1-31.78-81-31.78-81-6.41-3.27-75.75-1.54-75.75-1.54-7.17,1.41-8.64,24.28-8.64,24.28s6.23,5.17.38,8.67c-2.62,1.55-11.31,2-21.35,1.68-12.47-.41-27-2-34.54-4.23-13.61-4-3-12-3-12s1.86-2.57,2.86-16.55a56.46,56.46,0,0,1,7.29-23.18c.56-1,.92-1.51.92-1.51a7.52,7.52,0,0,1,2.44-1.6c17.79-7.82,105.78-2.35,105.78-2.35l32.76,9.75c.9.35,2.34,2.61,4.12,6.25C394,440.17,417.38,511.58,417.38,511.58Z" transform="translate(-64.52 -100.01)" opacity="0.1"/><path d="M383.25,418.3c-30.28-11.11-113-3.35-113-3.35-8.94-7.36-25.5-7.54-33-7.19.56-1,.92-1.51.92-1.51a7.52,7.52,0,0,1,2.44-1.6c17.79-7.82,105.78-2.35,105.78-2.35l32.76,9.75C380,412.4,381.47,414.66,383.25,418.3Z" transform="translate(-64.52 -100.01)" fill="#714880"/><path d="M275.17,418c-1.77,6.59-9.1,33-9.1,33a110.16,110.16,0,0,0-1.47,12.73c-12.47-.41-27-2-34.54-4.23-13.61-4-3-12-3-12s1.86-2.57,2.86-16.55a56.22,56.22,0,0,1,8.21-24.69,7.52,7.52,0,0,1,2.44-1.6C252.4,407.2,276.52,413,275.17,418Z" transform="translate(-64.52 -100.01)" fill="#714880"/><path d="M275.17,418c-1.77,6.59-9.1,33-9.1,33a110.16,110.16,0,0,0-1.47,12.73c-12.47-.41-27-2-34.54-4.23-13.61-4-3-12-3-12s1.86-2.57,2.86-16.55a56.22,56.22,0,0,1,8.21-24.69,7.52,7.52,0,0,1,2.44-1.6C252.4,407.2,276.52,413,275.17,418Z" transform="translate(-64.52 -100.01)" fill="#fff" opacity="0.1"/><path d="M291.38,251.16c-8.38,1.43-11.7,18.94-11.7,18.94l-21.4,76.71,161.94,23.43L459.05,242.6C420.83,226.19,291.38,251.16,291.38,251.16Zm131.41,79s-.81,7.32-7,8.07l-104.73-2.12-21.48-.43-7.21-.15h-.51s-7.91,1.58-6.76-5.1c0,0,7.52-63.6,22.81-68.65,0,0,1.6-.36,4.39-.94,4.38-.92,11.7-2.36,20.32-3.72,3.87-.61,8-1.2,12.24-1.71C346.48,254,359,253.17,369.32,254c0,0,76.93-8.59,71.71,8.64C441,262.61,426,324.92,422.79,330.21Z" transform="translate(-64.52 -100.01)" fill="#714880"/><path d="M282.38,335.58h-.51s-7.91,1.58-6.76-5.1c0,0,7.52-63.6,22.81-68.65,0,0,1.6-.36,4.39-.94C296.93,271.88,279.71,309.53,282.38,335.58Z" transform="translate(-64.52 -100.01)" fill="#714880"/><path d="M282.38,335.58h-.51s-7.91,1.58-6.76-5.1c0,0,7.52-63.6,22.81-68.65,0,0,1.6-.36,4.39-.94C296.93,271.88,279.71,309.53,282.38,335.58Z" transform="translate(-64.52 -100.01)" opacity="0.1"/><path d="M299.54,491.76a10.2,10.2,0,0,1-9.45,5.54l-3.24-.08-30.51-.74-11-.26-10.17-.66L100.76,476.35l.77-13.22L117,465l6.4.8,94.87,11.74,12.49,1.55,6,.75,25.59-.67,27.69-.72a10.31,10.31,0,0,1,4.1.71,9.94,9.94,0,0,1,5.47,5A8.37,8.37,0,0,1,299.54,491.76Z" transform="translate(-64.52 -100.01)" opacity="0.1"/><path d="M299.57,493a10.21,10.21,0,0,1-9.46,5.54l-44.74-1.08-10.16-.66L91.85,476.34l-11.26-1.61-6.14-.88c-12.1-2.31-8.73-14.43-8.73-14.43.74-5.51,21.36-11,28.13-10.89,4.55.05,5.32,7.05,5.33,11.64,0,2.25-.17,3.91-.17,3.91l6.7.83,131.11,16.24,53.28-1.39a10.24,10.24,0,0,1,9.56,5.7A8.38,8.38,0,0,1,299.57,493Z" transform="translate(-64.52 -100.01)" fill="#dce0ed"/><path d="M84.27,456.32s5.84,6.87,14.74,7.76C99,464.08,95.27,456.33,84.27,456.32Z" transform="translate(-64.52 -100.01)" opacity="0.1"/><path d="M83.16,476S64.33,476,64.52,486.1s12.07,11.61,12.07,11.61l168.7,29.18,47.8-.06s16.45-13.63-1-19.23l-48.19,2.18L83.09,483.42S87.21,477.63,83.16,476Z" transform="translate(-64.52 -100.01)" opacity="0.1"/><path d="M293.12,528.1l-47.8.06-150-25.94-11-1.9L76.62,499s-11.88-1.47-12.07-11.61c-.14-7.29,9.53-9.31,15-9.87,2.15-.22,3.65-.21,3.65-.21,4,1.61-.08,7.4-.08,7.4l5.86,1,155,25.4,48.18-2.18C309.57,514.46,293.12,528.1,293.12,528.1Z" transform="translate(-64.52 -100.01)" fill="#dce0ed"/><path d="M97.17,467.5l9.85-4.63,5.07-.3.39,42.72-15.71-2.88-6.63-4.11-3.51-17.7s1.13-7.42,1.75-8.07S97.17,467.5,97.17,467.5Z" transform="translate(-64.52 -100.01)" fill="#dce0ed"/><path d="M97.17,467.5l9.85-4.63,5.07-.3.39,42.72-15.71-2.88-6.63-4.11-3.51-17.7s1.13-7.42,1.75-8.07S97.17,467.5,97.17,467.5Z" transform="translate(-64.52 -100.01)" opacity="0.1"/><path d="M95.31,502.22c.13.14.19.22.19.22l-11-1.92a1.37,1.37,0,0,1-.13-.2c-6-9.24-6.61-16.81-4.8-22.82,2.15-.22,3.65-.21,3.65-.21,4,1.61-.08,7.4-.08,7.4l5.86,1C88.73,494,94.22,500.92,95.31,502.22Z" transform="translate(-64.52 -100.01)" opacity="0.1"/><path d="M110.83,462.59c-1.85.75-3.55,1.53-5.12,2.32-7,3.56-11.37,7.49-13.86,11.43l-11.26-1.61c4.68-10.21,16.22-15.05,16.22-15.05l2.37.49Z" transform="translate(-64.52 -100.01)" opacity="0.1"/><path d="M98.08,459.66S67.44,472.51,85.74,500.5l11,1.91s-22.25-24.54,15.32-39.84Z" transform="translate(-64.52 -100.01)" fill="#dce0ed"/><polygon points="107.39 372 118.81 371.37 117.77 417.28 99.31 414.25 91.41 410.59 87.65 401.57 84.94 392.52 90.92 384.16 97.81 379.38 107.39 372" fill="#dce0ed"/><polygon points="107.39 372 118.81 371.37 117.77 417.28 99.31 414.25 91.41 410.59 87.65 401.57 84.94 392.52 90.92 384.16 97.81 379.38 107.39 372" opacity="0.1"/><ellipse cx="171.1" cy="495.72" rx="5.5" ry="9.3" transform="translate(-73.85 -96.69) rotate(-1.08)" fill="#dce0ed"/><path d="M131.68,522.43c-1.74-8.06-8-9.69-8-9.69s-12-3.26-12,9.9c0,0,.31,8.09,5.75,10.52l.48,9s.64,8.39-4.13,7.69-4.28-8.17-4.28-8.17-2.69-7.88-8.8-3.64c0,0-1.34,4.47,1.87,6.63,1.88,1.26,2,3.9,1.77,5.88a8.6,8.6,0,0,0,2.11,6.85,8,8,0,0,0,7.68,2.6,11.89,11.89,0,0,0,6.53-3.93A17.26,17.26,0,0,0,125,544.47V532.86S133.42,530.48,131.68,522.43Zm-9.6,8.35a6.74,6.74,0,1,1,6.61-6.87A6.75,6.75,0,0,1,122.08,530.78Z" transform="translate(-64.52 -100.01)" fill="#dce0ed"/><path d="M118.91,509.34a3,3,0,0,0-1.42,4.19c1.29,2.31,2.84,5.3,2.71,6.1-.21,1.35,2.78.18,3.17-.14s5.87-.11,6.12-3.84a6.45,6.45,0,0,0-3-5.66l1.11-8.19-7.54-.49.22,7.45Z" transform="translate(-64.52 -100.01)" fill="#636780"/><path d="M118.91,509.34a3,3,0,0,0-1.42,4.19c1.29,2.31,2.84,5.3,2.71,6.1-.21,1.35,2.78.18,3.17-.14s5.87-.11,6.12-3.84a6.45,6.45,0,0,0-3-5.66l1.11-8.19-7.54-.49.22,7.45Z" transform="translate(-64.52 -100.01)" opacity="0.1"/><path d="M121,509.14s2.7,8.68,1.6,9S121,509.14,121,509.14Z" transform="translate(-64.52 -100.01)" opacity="0.1"/><path d="M123.77,507s2.71,8.67,1.6,9S123.77,507,123.77,507Z" transform="translate(-64.52 -100.01)" opacity="0.1"/><path d="M153.67,480.18l-3.73,26.3s-5.25-.61-8.15-1.18a6,6,0,0,1-1.83-.53c-.15-.15-.46-.13-.87,0h0c-1.41.32-3.9,1.53-4.4.56a.87.87,0,0,0-.15-.21h0c-.51-.53-1.47-.11-2.39,0a2,2,0,0,1-1.49-.17c-.79-.5-2.35.37-3.64.67-.81.19-1.52.17-1.86-.56a1.7,1.7,0,0,0-1.28-.88h0c-1.23-.28-2.93,0-3.91-.23-.39-.07-.66-.21-.76-.47-.2-.57-1.29-.82-2.46-1-1.42-.25-3-.42-3.08-1,0-.19-.17-.27-.38-.27a12.5,12.5,0,0,0-2.31.61h0c-.63.17-1.16.19-1.32-.27s-.9-.42-1.73-.21c-.67.18-1.41.46-2,.6s-.87.15-.94-.09c-.23-.84-2.94,1.12-3.6-.57s-9.55-12.72,1.38-27.52c0,0,3,.16,5.36.53a8.2,8.2,0,0,1,2.24.59h0c.81.44,2.54.31,4.09.39a5.41,5.41,0,0,1,2.28.5,1.41,1.41,0,0,1,.64.66c.37.8,1.19.95,2.08.88,1.19-.09,2.52-.57,3-.34l0,0c.89.36,4.2-.07,4.78.47l0,.05c.25.36,1.54,0,2.86-.25h0a3.21,3.21,0,0,1,2.63.37,2.89,2.89,0,0,0,2.08.57,11.7,11.7,0,0,1,2.69.05,1.1,1.1,0,0,1,.54.33c.55.66,1.84.54,3,.58a3,3,0,0,1,1.68.39,1.55,1.55,0,0,0,.62.24,17.87,17.87,0,0,0,5.09-.35Z" transform="translate(-64.52 -100.01)" fill="#636780"/><path d="M107.93,501.32c-.67.18-1.41.46-2,.6-8.84-13.16-1.8-23.41,2.2-27.65a8.2,8.2,0,0,1,2.24.59C102,485,106.2,497.33,107.93,501.32Z" transform="translate(-64.52 -100.01)" opacity="0.1"/><path d="M113.29,501.19a12.5,12.5,0,0,0-2.31.61h0c-7.6-12.86-.22-22.72,3.53-26.54a5.41,5.41,0,0,1,2.28.5C108.73,484.91,111.38,496.05,113.29,501.19Z" transform="translate(-64.52 -100.01)" opacity="0.1"/><path d="M120,503.94c-.39-.07-.66-.21-.76-.47-.2-.57-1.29-.82-2.46-1-6.67-11.65-1.08-20.8,2.76-25.15,1.19-.09,2.52-.57,3-.34l0,0C113.66,487.35,118.3,500.18,120,503.94Z" transform="translate(-64.52 -100.01)" opacity="0.1"/><path d="M127,505.61c-.81.19-1.52.17-1.86-.56a1.7,1.7,0,0,0-1.28-.88h0c-7.77-13-.29-22.91,3.47-26.72l0,.05c.25.36,1.54,0,2.86-.25C119.78,488.24,125.54,502.46,127,505.61Z" transform="translate(-64.52 -100.01)" opacity="0.1"/><path d="M134.54,505.07c-.51-.53-1.47-.11-2.39,0-8.08-12.87-1.07-22.83,2.82-26.92a11.7,11.7,0,0,1,2.69.05C128.7,488.26,132.71,500.73,134.54,505.07Z" transform="translate(-64.52 -100.01)" opacity="0.1"/><path d="M141.79,505.3a6,6,0,0,1-1.83-.53c-.15-.15-.46-.13-.87,0h0c-7.17-11.75-1.8-21,2.1-25.58a3,3,0,0,1,1.68.39,1.55,1.55,0,0,0,.62.24C136.08,489.73,140.12,501.45,141.79,505.3Z" transform="translate(-64.52 -100.01)" opacity="0.1"/><ellipse cx="347.12" cy="520.74" rx="34.47" ry="50.75" transform="translate(-74.29 -93.36) rotate(-1.08)" fill="#636780"/><ellipse cx="345.98" cy="521.5" rx="25.06" ry="41.13" transform="translate(-74.31 -93.38) rotate(-1.08)" opacity="0.1"/><ellipse cx="345.95" cy="520.23" rx="25.06" ry="41.13" transform="matrix(1, -0.02, 0.02, 1, -74.29, -93.38)" fill="#f0f0f4"/><ellipse cx="349.98" cy="492.55" rx="2.96" ry="5.08" transform="translate(-73.76 -93.31) rotate(-1.08)" fill="#636780"/><ellipse cx="362.66" cy="536.73" rx="2.96" ry="5.08" transform="translate(-74.59 -93.06) rotate(-1.08)" fill="#636780"/><ellipse cx="330.33" cy="516.19" rx="2.96" ry="5.08" transform="translate(-74.21 -93.68) rotate(-1.08)" fill="#636780"/><ellipse cx="339.56" cy="545.63" rx="2.96" ry="5.08" transform="translate(-74.77 -93.5) rotate(-1.08)" fill="#636780"/><path d="M597.6,422.09s26,65.5,24.79,69.65c0,0,10.59,6.15,13.09,4.51s-.26-30.77-.26-30.77L630,439.88l-5.68-15.12Z" transform="translate(-64.52 -100.01)" fill="#714880"/><path d="M597.6,422.09s26,65.5,24.79,69.65c0,0,10.59,6.15,13.09,4.51s-.26-30.77-.26-30.77L630,439.88l-5.68-15.12Z" transform="translate(-64.52 -100.01)" opacity="0.15"/><ellipse cx="366.37" cy="509.16" rx="2.96" ry="5.08" transform="translate(-74.07 -93) rotate(-1.08)" fill="#636780"/><ellipse cx="350.53" cy="521.73" rx="8.67" ry="12.05" transform="translate(-74.31 -93.3) rotate(-1.08)" fill="#636780"/><path d="M626.85,509.74c.72,38.19-11.3,73.19-46.58,70-44.42-.12-48.48-30-49.2-68.24s20.19-67,46.64-67.51S626.13,471.56,626.85,509.74Z" transform="translate(-64.52 -100.01)" fill="#636780"/><path d="M627.13,509.8c-.56-29.56-13.86-53-32.11-61.88-23.13,4.85-40.47,31.89-39.82,66.73.59,31.29,3.43,57,28.88,65.38C616.63,580.59,627.83,546.68,627.13,509.8Z" transform="translate(-64.52 -100.01)" opacity="0.1"/><path d="M645.26,493.21s-6.24,5.51-9.8,1.77c0,0-9.86-68.34-20.65-68.45l-37.11.38s-4.41,2-6.15,10.27l-22.71,68.75-131.48,4.39-10.44-20.85,108.79-1.74v-.05c.55-2.12,17.5-67.37,29.56-75.67h0a5.08,5.08,0,0,1,1.33-.68s45.24-6.89,60.22-3c0,0,15.61,3.19,19.51,7.88l0,0c.52.53,6.53,7,8.71,26.13Z" transform="translate(-64.52 -100.01)" opacity="0.1"/><path d="M645.28,494.48s-6.24,5.51-9.8,1.77c0,0-9.85-68.34-20.64-68.45l-37.12.38s-4.4,2-6.15,10.27l-22.7,68.75-131.49,4.38L407,490.73,515.74,489V489c.55-2.12,17.49-67.37,29.56-75.67l0,0a5.48,5.48,0,0,1,1.32-.67s45.24-6.89,60.23-3c0,0,15.6,3.2,19.5,7.89l0,0c.52.53,6.53,7,8.71,26.13Z" transform="translate(-64.52 -100.01)" fill="#714880"/><path d="M645.28,494.48s-6.24,5.51-9.8,1.77c0,0-9.85-68.34-20.64-68.45l-37.12.38s-4.4,2-6.15,10.27l-22.7,68.75-131.49,4.38L407,490.73,515.74,489V489c.55-2.12,17.49-67.37,29.56-75.67l0,0a5.48,5.48,0,0,1,1.32-.67s45.24-6.89,60.23-3c0,0,15.6,3.2,19.5,7.89l0,0c.52.53,6.53,7,8.71,26.13Z" transform="translate(-64.52 -100.01)" opacity="0.1"/><path d="M563.31,421.15c-3,6.09-28.93,80.82-28.93,80.82l-18.64-13V489c.55-2.12,17.51-67.44,29.58-75.69C553.29,414.47,565.39,417,563.31,421.15Z" transform="translate(-64.52 -100.01)" fill="#714880"/><path d="M527.15,387.89l-14,49.12-77.75-.75.77,7.28s61.07,7.73,86.84-4.81l13.12-44.88,122.64-1.68-23.47-5.05Z" transform="translate(-64.52 -100.01)" fill="#714880"/><path d="M527.15,387.89l-14,49.12-77.75-.75.77,7.28s61.07,7.73,86.84-4.81l13.12-44.88,122.64-1.68-23.47-5.05Z" transform="translate(-64.52 -100.01)" fill="#fff" opacity="0.1"/><path d="M164.3,471.73s-41.26,21.72-10,40.8l8.28,1.75s-30.64-21.21,19.5-42.88Z" transform="translate(-64.52 -100.01)" opacity="0.1"/><path d="M165.57,471.71s-41.26,21.72-10,40.8l8.28,1.75s-30.64-21.21,19.5-42.89Z" transform="translate(-64.52 -100.01)" fill="#dce0ed"/><ellipse cx="597.46" cy="515.69" rx="23.16" ry="39.65" transform="matrix(1, -0.02, 0.02, 1, -74.15, -88.63)" fill="#636780"/><ellipse cx="596.7" cy="516.56" rx="16.83" ry="32.13" transform="translate(-74.17 -88.65) rotate(-1.08)" opacity="0.1"/><ellipse cx="596.67" cy="515.29" rx="16.83" ry="32.13" transform="translate(-74.15 -88.65) rotate(-1.08)" fill="#f0f0f4"/><ellipse cx="599.32" cy="493.68" rx="1.99" ry="3.97" transform="translate(-73.74 -88.6) rotate(-1.08)" fill="#636780"/><ellipse cx="607.93" cy="528.22" rx="1.99" ry="3.97" transform="translate(-74.39 -88.43) rotate(-1.08)" fill="#636780"/><ellipse cx="586.17" cy="512.1" rx="1.99" ry="3.97" transform="translate(-74.09 -88.85) rotate(-1.08)" fill="#636780"/><ellipse cx="592.43" cy="535.12" rx="1.99" ry="3.97" transform="translate(-74.52 -88.73) rotate(-1.08)" fill="#636780"/><ellipse cx="610.36" cy="506.69" rx="1.99" ry="3.97" transform="translate(-73.98 -88.39) rotate(-1.08)" fill="#636780"/><ellipse cx="599.75" cy="516.47" rx="5.82" ry="9.42" transform="matrix(1, -0.02, 0.02, 1, -74.17, -88.59)" fill="#636780"/><path d="M258,345.7s70.45,1.21,162.27,24.54Z" transform="translate(-64.52 -100.01)" opacity="0.1"/><path d="M591.55,216.1s-3.81.68-1.73,5.69a34.5,34.5,0,0,1,2.44,7.6s3.86,1.92,3.58-4.65S591.55,216.1,591.55,216.1Z" transform="translate(-64.52 -100.01)" fill="#dce0ed"/></g><rect x="308.28" y="378.95" width="43.46" height="129.6" fill="url(#fef4cf94-7324-40d6-9308-a34b9052882e)"/><rect x="311.39" y="378.95" width="37.25" height="127.28" fill="#795548"/><polygon points="331.18 275.03 156.17 435.61 506.18 435.61 331.18 275.03" fill="url(#a80d1734-be81-4131-80dc-9f99dd32826f)"/><polygon points="331.18 279.25 163.16 431.31 499.2 431.31 331.18 279.25" fill="#4c4981"/><polygon points="330.79 214.9 178.68 364.98 482.9 364.98 330.79 214.9" fill="url(#b8ac3475-35f8-4092-9872-a57a3345fb2f)"/><polygon points="330.79 218.98 184.89 362.94 476.69 362.94 330.79 218.98" fill="#4c4981"/><polygon points="330.01 160.36 212.83 294.36 447.2 294.36 330.01 160.36" fill="url(#b3ae9166-1975-42d6-a5da-6dde3bd06bc3)"/><polygon points="330.01 166.48 218.26 291.3 441.77 291.3 330.01 166.48" fill="#4c4981"/><polygon points="330.01 112 242.32 229.17 417.71 229.17 330.01 112" fill="url(#f1580149-b967-4fa8-90a0-ba830bea3bda)"/><polygon points="330.01 115.46 246.2 227.44 413.83 227.44 330.01 115.46" fill="#4c4981"/><polygon points="330.79 61.54 270.3 166.31 391.28 166.31 330.79 61.54" fill="url(#f1e2654b-94bc-49c8-8a28-ae0704d4f4ce)"/><polygon points="330.79 64.65 272.99 164.76 388.59 164.76 330.79 64.65" fill="#4c4981"/><rect x="789.08" y="378.95" width="43.46" height="129.6" fill="url(#b40fb3f0-bb3e-4f8e-91ff-2be9e35f52da)"/><rect x="792.18" y="378.95" width="37.25" height="127.28" fill="#795548"/><polygon points="811.97 275.03 636.97 435.61 986.97 435.61 811.97 275.03" fill="url(#ae12fb98-ae95-4872-bedc-39e3eedb1f32)"/><polygon points="811.97 279.25 643.95 431.31 979.99 431.31 811.97 279.25" fill="#4c4981"/><polygon points="811.58 214.9 659.47 364.98 963.69 364.98 811.58 214.9" fill="url(#b166d3c9-df9a-4de5-83d8-d414abef440c)"/><polygon points="811.58 218.98 665.68 362.94 957.48 362.94 811.58 218.98" fill="#4c4981"/><polygon points="810.81 160.36 693.62 294.36 927.99 294.36 810.81 160.36" fill="url(#b061e48c-ab00-4bab-b633-0d8883e28d60)"/><polygon points="810.81 166.48 699.05 291.3 922.56 291.3 810.81 166.48" fill="#4c4981"/><polygon points="810.81 112 723.11 229.17 898.5 229.17 810.81 112" fill="url(#bde1892e-1553-41ae-8f68-fb058a039dbb)"/><polygon points="810.81 115.46 726.99 227.44 894.62 227.44 810.81 115.46" fill="#4c4981"/><polygon points="811.58 61.54 751.09 166.31 872.07 166.31 811.58 61.54" fill="url(#e817b007-cd08-4a5f-be21-14d70a041dbe)"/><polygon points="811.58 64.65 753.78 164.76 869.38 164.76 811.58 64.65" fill="#4c4981"/><path d="M722.32,472.66c-.47-2.25-2.13-3.84-3.67-3.55s-2.37,2.43-1.89,4.68,2.13,3.84,3.67,3.55S722.79,475,722.32,472.66Z" transform="translate(-64.52 -100.01)" fill="url(#bf46f249-a477-4314-86a9-b11a03aac9c2)"/><path d="M723.5,470.89c-.47-2.25-2.13-3.85-3.67-3.55s-2.36,2.42-1.89,4.67,2.13,3.85,3.67,3.55S724,473.2,723.5,470.89Z" transform="translate(-64.52 -100.01)" fill="#fff"/><rect x="644.84" y="323.18" width="43.46" height="129.6" fill="url(#f02dae63-2716-4499-8829-0f3c1d22b336)"/><rect x="647.94" y="323.18" width="37.25" height="127.28" fill="#795548"/><polygon points="667.73 219.26 492.73 379.83 842.74 379.83 667.73 219.26" fill="url(#e216d1b7-8c41-4554-bf7f-ae8aca50e93b)"/><polygon points="667.73 223.48 499.71 375.54 835.75 375.54 667.73 223.48" fill="#4c4981"/><polygon points="667.34 159.12 515.24 309.21 819.45 309.21 667.34 159.12" fill="url(#a388f240-4233-41bd-9b88-3ec7cb607a84)"/><polygon points="667.34 163.21 521.44 307.17 813.25 307.17 667.34 163.21" fill="#4c4981"/><polygon points="666.57 104.59 549.38 238.59 783.75 238.59 666.57 104.59" fill="url(#fc313e3a-7159-49bd-86c9-84978a1d2dad)"/><polygon points="666.57 110.71 554.81 235.53 778.32 235.53 666.57 110.71" fill="#4c4981"/><polygon points="666.57 56.23 578.87 173.4 754.26 173.4 666.57 56.23" fill="url(#bfdad6fd-fd4e-4e25-9952-234966a88e72)"/><polygon points="666.57 59.69 582.75 171.67 750.38 171.67 666.57 59.69" fill="#4c4981"/><polygon points="667.34 5.77 606.86 110.54 727.83 110.54 667.34 5.77" fill="url(#e50b897c-ade0-4be7-b4e5-332052d62a93)"/><polygon points="667.34 8.87 609.54 108.99 725.14 108.99 667.34 8.87" fill="#4c4981"/><path d="M578.08,416.89c-.47-2.25-2.13-3.84-3.67-3.55s-2.36,2.43-1.89,4.68,2.13,3.84,3.67,3.55S578.56,419.2,578.08,416.89Z" transform="translate(-64.52 -100.01)" fill="url(#ea8c5887-e056-4379-931b-a9e63f445b24)"/><path d="M579.27,415.12c-.48-2.25-2.13-3.85-3.67-3.55s-2.37,2.42-1.9,4.67,2.13,3.85,3.67,3.55S579.74,417.42,579.27,415.12Z" transform="translate(-64.52 -100.01)" fill="#fff"/><rect x="490.98" y="317.41" width="43.46" height="129.6" fill="url(#bc307777-59a7-4dbe-9da6-0a37c2cc1360)"/><rect x="494.09" y="317.41" width="37.25" height="127.28" fill="#795548"/><polygon points="513.88 213.49 338.88 374.06 688.88 374.06 513.88 213.49" fill="url(#ff52c3c1-4047-41a7-9a70-beaf9c3b2e8c)"/><polygon points="513.88 217.71 345.86 369.77 681.9 369.77 513.88 217.71" fill="#4c4981"/><polygon points="513.49 153.35 361.38 303.44 665.6 303.44 513.49 153.35" fill="url(#b429f6f9-2c89-4f7e-8a23-e7d9cd85b6a2)"/><polygon points="513.49 157.44 367.59 301.4 659.39 301.4 513.49 157.44" fill="#4c4981"/><polygon points="512.72 98.82 395.53 232.82 629.9 232.82 512.72 98.82" fill="url(#af056679-c2b8-4a85-bc92-a08c56455e81)"/><polygon points="512.72 104.94 400.96 229.76 624.47 229.76 512.72 104.94" fill="#4c4981"/><polygon points="512.72 50.46 425.02 167.63 600.41 167.63 512.72 50.46" fill="url(#e93608fa-b1e0-410c-9134-74c663a6a4e3)"/><polygon points="512.72 53.91 428.9 165.9 596.53 165.9 512.72 53.91" fill="#4c4981"/><polygon points="513.49 0 453 104.77 573.98 104.77 513.49 0" fill="url(#abca7e8f-91c5-4ada-a301-13a2907305ff)"/><polygon points="513.49 3.1 455.69 103.22 571.29 103.22 513.49 3.1" fill="#4c4981"/><path d="M424.23,411.12c-.47-2.25-2.13-3.84-3.67-3.55s-2.37,2.43-1.89,4.68,2.13,3.84,3.67,3.55S424.7,413.43,424.23,411.12Z" transform="translate(-64.52 -100.01)" fill="url(#eb8337b1-7107-46a4-95e9-0a9d4032ba74)"/><rect x="927.31" y="668.39" width="13.54" height="10.59" transform="translate(1803.63 1247.37) rotate(-180)" fill="#71412d"/><rect x="930.25" y="678.98" width="6.47" height="16.48" transform="translate(1802.45 1274.44) rotate(-180)" fill="#71412d"/><line x1="770.28" y1="435.85" x2="865.73" y2="578.98" fill="none" stroke="#71412d" stroke-miterlimit="10" stroke-width="1.84"/><rect x="276.32" y="568.38" width="13.54" height="10.59" fill="#71412d"/><rect x="280.44" y="578.98" width="6.47" height="16.48" fill="#71412d"/><line x1="382.35" y1="435.85" x2="286.91" y2="578.98" fill="none" stroke="#71412d" stroke-miterlimit="10" stroke-width="1.84"/><polygon points="575.98 96.07 712.5 332.53 849.02 568.98 575.98 568.98 302.95 568.98 439.47 332.53 575.98 96.07" fill="#714880"/><path d="M501.79,634.35H639.51l.88-218.94S505.32,455.5,501.79,634.35Z" transform="translate(-64.52 -100.01)" fill="#fff" opacity="0.2"/><path d="M640.62,415.41l.89,218.94H779.23C775.7,455.5,640.62,415.41,640.62,415.41Z" transform="translate(-64.52 -100.01)" fill="#fff" opacity="0.2"/><rect x="438.28" y="539.46" width="276.32" height="39.43" fill="#714880"/><rect x="433.73" y="534.36" width="285" height="48" fill="url(#e0d89c2b-d4d6-4255-9ab5-75b3a32cb9fc)"/><rect x="438.28" y="539.46" width="276.32" height="39.43" opacity="0.2"/><rect x="208.73" y="589.5" width="8.79" height="11.9" fill="url(#f124af43-bbe2-4ae3-b9f8-0896fa906c7a)"/><path d="M277.65,675.81c-10.57,0-19.14,7.57-19.14,18.1h38.28C296.79,683.38,288.22,675.81,277.65,675.81Z" transform="translate(-64.52 -100.01)" fill="url(#a08b132f-3dc1-48d2-ab19-d366b6b14edb)"/><rect x="244.28" y="600.99" width="6.52" height="8.82" fill="url(#ed9eb46f-d04a-4205-93b8-cf6d4f63ac42)"/><path d="M312.07,691c-7.84,0-14.2,5-14.2,13.42h28.39C326.26,696,319.9,691,312.07,691Z" transform="translate(-64.52 -100.01)" fill="url(#bc62cbaa-e7b4-430f-9d47-b78a0c86e4f4)"/><rect x="211.06" y="630.72" width="4.78" height="6.46" fill="url(#eda7e9cb-0716-47d4-907d-a44c8661e6a3)"/><path d="M278,724.07c-5.74,0-10.4,3.52-10.4,9.83h20.8C288.37,727.59,283.71,724.07,278,724.07Z" transform="translate(-64.52 -100.01)" fill="url(#b241385e-d047-4061-b94d-72bc05b89ad9)"/><rect x="210.38" y="590.97" width="8.03" height="10.87" fill="#d5b7ac"/><path d="M278.92,678.46c-9.65,0-17.48,6.92-17.48,16.54h35C296.41,685.38,288.58,678.46,278.92,678.46Z" transform="translate(-64.52 -100.01)" fill="#ff6e40"/><rect x="242.86" y="601.47" width="5.96" height="8.06" fill="#d5b7ac"/><path d="M310.36,692.35c-7.16,0-13,4.57-13,12.26h25.93C323.33,696.92,317.53,692.35,310.36,692.35Z" transform="translate(-64.52 -100.01)" fill="#ff6e40"/><rect x="212.51" y="628.62" width="4.36" height="5.9" fill="#d5b7ac"/><path d="M279.21,722.55c-5.24,0-9.49,3.22-9.49,9h19C288.71,725.77,284.46,722.55,279.21,722.55Z" transform="translate(-64.52 -100.01)" fill="#ff6e40"/><ellipse cx="913.96" cy="680.54" rx="156.99" ry="19.44" fill="#714880" opacity="0.1"/><path d="M924.27,729.44a5.81,5.81,0,0,1-4.33-2.62c-4.33-6.55-15.82-25.24-7.75-27.82a31.76,31.76,0,0,1,3.9-1,39.77,39.77,0,0,1,38.56,15.07,37,37,0,0,1,3.17,4.82,5,5,0,0,1-3,7.15C947.7,727.14,934.55,730.33,924.27,729.44Z" transform="translate(-64.52 -100.01)" fill="#714880"/><polygon points="851.77 628.4 895.79 620.44 961.71 620.44 952.29 634.96 860.74 634.96 851.77 628.4" fill="#33323d"/><path d="M949.74,261.33c5-2.51,11.39,0,17.27.59,7.62.74,15.17-2,22.84-1.78a28.61,28.61,0,0,1,18.74,7.73,22.89,22.89,0,0,1,6.89,15.71,18.28,18.28,0,0,1-2.41,10.1c-3.65,6.1-12,10.23-20.64,10.91a38.65,38.65,0,0,1-24.12-6.33c-5.69-3.85-9.65-8.95-14.45-13.46-3.42-3.21-12.42-7.26-12.49-11.43C941.32,270.5,946.63,262.91,949.74,261.33Z" transform="translate(-64.52 -100.01)" fill="#4c4981"/><path d="M949.74,261.33c5-2.51,11.39,0,17.27.59,7.62.74,15.17-2,22.84-1.78a28.61,28.61,0,0,1,18.74,7.73,22.89,22.89,0,0,1,6.89,15.71,18.28,18.28,0,0,1-2.41,10.1c-3.65,6.1-12,10.23-20.64,10.91a38.65,38.65,0,0,1-24.12-6.33c-5.69-3.85-9.65-8.95-14.45-13.46-3.42-3.21-12.42-7.26-12.49-11.43C941.32,270.5,946.63,262.91,949.74,261.33Z" transform="translate(-64.52 -100.01)" opacity="0.1"/><path d="M968.06,690.61l-.67,14a185.49,185.49,0,0,1,19.87-.37c.53-2.11,0-4.32-.45-6.46a49.13,49.13,0,0,1-.8-12.52c.08-1.15-12.3-2.33-13.55-2.39-1.52-.06-3.1-.26-3.83,1.32C967.82,685.93,968.16,688.71,968.06,690.61Z" transform="translate(-64.52 -100.01)" fill="#4c4981"/><path d="M951.76,695.12l-.67,14a188,188,0,0,1,19.86-.38c.54-2.1,0-4.31-.44-6.45a48.27,48.27,0,0,1-.8-12.52c.07-1.15-12.31-2.33-13.56-2.39-1.52-.06-3.1-.26-3.83,1.32C951.51,690.44,951.85,693.22,951.76,695.12Z" transform="translate(-64.52 -100.01)" fill="#4c4981"/><path d="M982.62,690.13a7.33,7.33,0,0,0-2.54,1.58l-5,4.18c-1.68,1.41-3.89,2.91-5.9,2a13.26,13.26,0,0,1-2.34-1.84,2.3,2.3,0,0,0-2.74-.31,2.82,2.82,0,0,0-.77,1.74,133.32,133.32,0,0,0-2.17,26.91,15.93,15.93,0,0,0,4.86,1.08.81.81,0,0,0,.54-.1c.3-.23.14-.69.1-1.07-.14-1.29,1.66-2,2.83-1.49a5.64,5.64,0,0,1,2.3,3,3,3,0,0,0,.86,1.29,3.06,3.06,0,0,0,1.18.44,44.12,44.12,0,0,0,6.89.62q16,.57,32,0a10.33,10.33,0,0,0,3.28-.46,6.25,6.25,0,0,0,3.81-4.84,8.61,8.61,0,0,0-1.51-6.13,10.71,10.71,0,0,0-3.51-3.22,21,21,0,0,0-3.32-1.4l-5-1.8c-3.65-1.3-7.43-2.69-10.15-5.44a25.86,25.86,0,0,1-3.83-5.53C990.62,696.14,987.67,688.65,982.62,690.13Z" transform="translate(-64.52 -100.01)" fill="#4c4981"/><path d="M982.62,690.13a7.33,7.33,0,0,0-2.54,1.58l-5,4.18c-1.68,1.41-3.89,2.91-5.9,2a13.26,13.26,0,0,1-2.34-1.84,2.3,2.3,0,0,0-2.74-.31,2.82,2.82,0,0,0-.77,1.74,133.32,133.32,0,0,0-2.17,26.91,15.93,15.93,0,0,0,4.86,1.08.81.81,0,0,0,.54-.1c.3-.23.14-.69.1-1.07-.14-1.29,1.66-2,2.83-1.49a5.64,5.64,0,0,1,2.3,3,3,3,0,0,0,.86,1.29,3.06,3.06,0,0,0,1.18.44,44.12,44.12,0,0,0,6.89.62q16,.57,32,0a10.33,10.33,0,0,0,3.28-.46,6.25,6.25,0,0,0,3.81-4.84,8.61,8.61,0,0,0-1.51-6.13,10.71,10.71,0,0,0-3.51-3.22,21,21,0,0,0-3.32-1.4l-5-1.8c-3.65-1.3-7.43-2.69-10.15-5.44a25.86,25.86,0,0,1-3.83-5.53C990.62,696.14,987.67,688.65,982.62,690.13Z" transform="translate(-64.52 -100.01)" opacity="0.1"/><path d="M1030.38,464q0,4.27-.18,8.57a429.76,429.76,0,0,1-4.74,52.28c-.6,3.88-1.25,7.76-2.2,11.57-1.37,5.45-3.39,10.77-4,16.36-.83,8,1.32,16.25-.49,24.1-.93,4-2.87,7.72-4,11.68a64.83,64.83,0,0,0-1.57,7.19q-1.51,8.4-3,16.77l-.3,1.71a68.75,68.75,0,0,1-6.56,18.9,59.74,59.74,0,0,0-4,11.58L994,664.58c-2.41,8.95-4.83,18.3-3,27.39a63.56,63.56,0,0,1-10.83-1.58,61.13,61.13,0,0,1-13.13-4.81c-.94-15.44-.25-30.91.43-46.36.44-9.78.88-19.6,2.53-29.26,1.78-10.53,4.23-20.58,6.38-31.05,3.21-15.66,6.44-31.47,6.13-47.46-.39-20.71.15-41.8,9.19-60.43a13.87,13.87,0,0,1,4.18-5.66,14.38,14.38,0,0,1,6-2,113.4,113.4,0,0,1,21.77-1.56A15.22,15.22,0,0,1,1030.38,464Z" transform="translate(-64.52 -100.01)" fill="#33323d"/><path d="M1030.38,464c0,2.85-21.64.67-21.73,3.52-26.58-3.07-14.13,3.1-15.31,3.93-2.51,1.77,9.59-1.79,7.07,0-2.19,1.55-5.59,7.57-7.85,9-5.27,3.45,12.3,14.07,8.38,19-3.54,4.46-4.37,10.54-3.9,16.2s2.12,11.17,3,16.8a63,63,0,0,1-3.31,31.68c-2.29,6.05-5.48,11.69-8.39,17.46-3.18,6.35-9.07,12.66-8.36,19.74,1.61,15.94-1.18,32-1.92,48-.29,6.12-.28,12.36,1.42,18.26.64,2.24,1.52,4.43,2,6.71,1.19,5.31.25,10.81-1.32,16.08a61.13,61.13,0,0,1-13.13-4.81c-.94-15.44-.25-30.91.43-46.36.44-9.78.88-19.6,2.53-29.26,1.78-10.53,4.23-20.58,6.38-31.05,3.21-15.66,6.44-31.47,6.13-47.46-.39-20.71.15-41.8,9.19-60.43a13.87,13.87,0,0,1,4.18-5.66,14.38,14.38,0,0,1,6-2,113.4,113.4,0,0,1,21.77-1.56A15.22,15.22,0,0,1,1030.38,464Z" transform="translate(-64.52 -100.01)" opacity="0.1"/><path d="M1032,449.77c0,5.08,2.83,16.31-1.06,19.57-2.58,2.19-5.78,3.52-8.56,5.47-2.52,1.77-4.67,4-7.19,5.83-2.18,1.55-4.62,2.71-6.88,4.18-5.27,3.45-7.58,9.72-11.5,14.64-3.54,4.46-4.37,10.54-3.9,16.2s2.12,11.17,3,16.8a62.85,62.85,0,0,1-3.3,31.68c-2.29,6.05-5.49,11.69-8.39,17.46-3.19,6.35-9.07,12.66-8.36,19.74,1.6,15.94-1.18,32-1.93,48-.29,6.12-.27,12.36,1.43,18.26.64,2.24,1.52,4.43,2,6.71,1.4,6.27-.16,12.82-2.21,18.91-7.06-1.24-14.2-2.47-21.34-1.94-6.27.47-12.5,2.28-18.75,1.54-.74-16.85.79-33.71,2.32-50.5.3-3.43.62-6.86.92-10.3,1.21-13.15,2.4-26.31,3.1-39.51.18-3.33-1-6.86,0-10.07q2.91-10.07,5.84-20.14a66.24,66.24,0,0,0,2.37-10.16c.88-7.15-.58-14.36-2-21.41q-3-14.47-6-29c-.67-3.22-1.33-6.44-2.25-9.61a64.39,64.39,0,0,1-1.68-6.38,79.66,79.66,0,0,1-.56-9.14c-.3-5.27-1.53-10.43-1.92-15.69a32,32,0,0,1,.23-7.57,19.07,19.07,0,0,1,2.84-7.64,233.25,233.25,0,0,1,45.55-13,64.07,64.07,0,0,1,11-1.28,73.83,73.83,0,0,1,12.54,1.39c5.78,1,11.66,2,17,4.6a25.08,25.08,0,0,1,6.89,4.8c2.69,2.69,1.06-3.52,1.87.18C1033.26,443.68,1032,448.48,1032,449.77Z" transform="translate(-64.52 -100.01)" fill="#33323d"/><path d="M966.31,694.64a7.52,7.52,0,0,0-2.54,1.58l-5,4.18c-1.69,1.41-3.9,2.91-5.91,2a13.56,13.56,0,0,1-2.33-1.84,2.32,2.32,0,0,0-2.75-.31A2.81,2.81,0,0,0,947,702a132.61,132.61,0,0,0-2.18,26.91,15.93,15.93,0,0,0,4.87,1.08.83.83,0,0,0,.54-.1c.29-.23.13-.7.09-1.07-.13-1.29,1.66-2.05,2.83-1.49a5.59,5.59,0,0,1,2.3,3,3,3,0,0,0,.86,1.29,2.89,2.89,0,0,0,1.19.43,42.83,42.83,0,0,0,6.88.63q16,.57,32,0a10.33,10.33,0,0,0,3.28-.46,6.24,6.24,0,0,0,3.82-4.84,8.57,8.57,0,0,0-1.52-6.13,10.52,10.52,0,0,0-3.51-3.22,20.54,20.54,0,0,0-3.31-1.4l-5-1.8c-3.65-1.3-7.43-2.69-10.15-5.44a26.23,26.23,0,0,1-3.83-5.53C974.31,700.65,971.36,693.16,966.31,694.64Z" transform="translate(-64.52 -100.01)" fill="#4c4981"/><path d="M1015.45,287.51a9.91,9.91,0,0,1-2.09,4.28c-2.16,3-4.55,6.17-8.06,7.36a16.14,16.14,0,0,1-6,.54A78.93,78.93,0,0,1,952,280.85c6.27-4.14,9.62-11.68,10.44-19.14a62.82,62.82,0,0,0-1-17.34c-.29-1.69-.59-3.37-.9-5-.55-3.06-2-5.42,1.5-6.28,2.71-.67,6.39-.2,9.16,0,6.09.34,12.31,1.66,17.26,5.39a11.5,11.5,0,0,1,3.32,3.63c2.13,4,.4,8.71-.09,13.3a17.3,17.3,0,0,0-.07,3.13c.38,5.09,3.8,9.48,7.73,12.73s8.48,5.75,12.31,9.1C1013.77,282.17,1015.82,284.7,1015.45,287.51Z" transform="translate(-64.52 -100.01)" fill="#fbbebe"/><path d="M991.66,255.34a29,29,0,0,1-6.63.76,29.56,29.56,0,0,1-23.62-11.73c-.29-1.69-.59-3.37-.9-5-.55-3.06-2-5.42,1.5-6.28,2.71-.67,6.39-.2,9.16,0,6.09.34,12.31,1.66,17.26,5.39a11.5,11.5,0,0,1,3.32,3.63C993.88,246,992.15,250.75,991.66,255.34Z" transform="translate(-64.52 -100.01)" opacity="0.1"/><circle cx="920.51" cy="125.09" r="29.63" fill="#fbbebe"/><path d="M1033.79,444.93c-.18.4-1.59,7.21-1.81,7.6-9.86-1.95-16-2.15-26-2a41.74,41.74,0,0,0-7.57.63c-2.1.42-4.15,1.11-6.27,1.44-11.42,1.76-22.23-7.17-33.76-6.29-3.85.29-7.53,1.67-11.14,3-4,1.52-8,2.68-11.91,4a19.07,19.07,0,0,1,2.84-7.64,233.25,233.25,0,0,1,45.55-13,64.07,64.07,0,0,1,11-1.28,73.83,73.83,0,0,1,12.54,1.39c5.78,1,11.66,2,17,4.6a25.08,25.08,0,0,1,6.89,4.8C1033.79,444.93,1033,441.23,1033.79,444.93Z" transform="translate(-64.52 -100.01)" opacity="0.1"/><path d="M975.14,285.59c-.61-3-2.66-5.39-4.68-7.65q-5.72-6.4-11.82-12.47a16.93,16.93,0,0,0-4.6-3.59,6,6,0,0,0-5.63.05c-1.54,1-2.32,2.76-3.55,4.1-2.66,2.91-7.29,3.6-9.53,6.85a18.13,18.13,0,0,1-1.71,2.59,7.7,7.7,0,0,1-3.35,1.65l-14.12,4.23c-1.66.49-3.5,1.13-4.3,2.67a9,9,0,0,0-.62,2.57c-1.12,6.39-6.76,10.83-11.71,15-1.71,1.45-3.45,3.05-4.18,5.17s-.35,4.37.09,6.53c1.14,5.49,2.79,11,6,15.62,2.13,3.11,4.91,5.79,6.66,9.14a31.5,31.5,0,0,1,2.76,10.1c1,6.56,1.51,13.18,2.08,19.8.49,5.82-.21,12.37,1.47,18,2.07,6.85,9.42,10.75,12.68,17.12a32.1,32.1,0,0,1,2.51,8.42l3.18,15.89a35,35,0,0,1,.93,7.33c-.09,5.83-3.07,11.51-2.13,17.26,5.28-2,10.39-3.37,15.67-5.36,3.62-1.37,7.3-2.75,11.16-3,11.51-.87,22.33,8.05,33.75,6.29,2.12-.32,4.16-1,6.27-1.43a41.68,41.68,0,0,1,7.57-.65,142.79,142.79,0,0,1,30,2.72c2-3.36,2.32-7.47,1.83-11.34a91.63,91.63,0,0,0-2.71-11.37,84.15,84.15,0,0,1-2.18-30.48,66.83,66.83,0,0,0,.68-7.73c0-9.66-5.85-18.71-5.31-28.35s11.37-14.81,15.84-23.21a9.9,9.9,0,0,0,1.49-5.58c-.21-2-1.47-3.8-2.28-5.68-2-4.61-1.26-9.92-2.41-14.8-.4-1.71-1-3.36-1.41-5.07-1-4.75-.09-9.79-1.3-14.49-1-3.64-3.12-6.83-5.44-9.78-3.92-5-8.5-9.67-14.22-12.43s-12.76-3.35-18.35-.32a6.8,6.8,0,0,0-2.26,1.78,8.91,8.91,0,0,0-1.24,2.92,89.92,89.92,0,0,1-8.22,19.13,8.86,8.86,0,0,1-7.25-2.17C979.14,289.86,975.68,288.15,975.14,285.59Z" transform="translate(-64.52 -100.01)" fill="#714880"/><path d="M970.77,234a9.6,9.6,0,0,0,.72-4.2,6.62,6.62,0,0,1,1.12-4.06c1.15-1.4,3.24-1.79,4.35-3.22,1.26-1.63.84-3.94,1.22-6a7.52,7.52,0,0,1,7-5.94c2.48-.08,4.81,1.1,7.25,1.58,3.17.63,6.44.06,9.62-.5,2.37-.42,5-.95,6.48-2.81a9.79,9.79,0,0,0,1.72-4.24c.53-2.39.93-5.05-.3-7.16s-3.84-3.14-5.2-5.19c-1.19-1.79-1.29-4.15-2.5-5.93-1.89-2.78-5.8-3.27-9.13-2.85s-6.71,1.48-10,.77c-3.61-.78-7.2-3.63-10.61-2.2-2.5,1.06-3.55,3.95-5.09,6.2a13.58,13.58,0,0,1-5.27,4.53c-3.26,1.56-7.08,1.78-10.21,3.6a11.41,11.41,0,0,0-5.41,7.76,3.39,3.39,0,0,0,0,1.79,7.64,7.64,0,0,0,.8,1.26c1.3,2.07.46,4.81-.8,6.9s-2.94,4-3.34,6.44.55,4.84,1.78,7a50.07,50.07,0,0,1,3.69,6.32c1.06,2.6,1.27,5.49,2.34,8.09a13.12,13.12,0,0,0,9.79,7.78,3,3,0,0,0,2.39-.36,3.06,3.06,0,0,0,.89-1.7,20.09,20.09,0,0,0,.56-3.37c.18-2.24,0-4.83,1-6.9C966.91,234.76,969.43,236.51,970.77,234Z" transform="translate(-64.52 -100.01)" fill="#33323d"/><path d="M1009.9,197.46c-1.24-2.12-3.84-3.14-5.2-5.19-1.19-1.79-1.29-4.15-2.5-5.93a6.56,6.56,0,0,0-3.74-2.53,0,0,0,0,1,0,0c1.21,1.78,1.31,4.14,2.5,5.93,1.37,2.05,4,3.06,5.2,5.19s.83,4.77.3,7.16a10,10,0,0,1-1.71,4.24c-1.54,1.85-4.12,2.39-6.49,2.81-3.18.56-6.45,1.12-9.62.5-2.44-.49-4.77-1.66-7.25-1.59a7.53,7.53,0,0,0-6.95,6c-.38,2,0,4.34-1.22,6-1.11,1.43-3.19,1.81-4.35,3.21a6.67,6.67,0,0,0-1.12,4.07,9.6,9.6,0,0,1-.72,4.2c-1.34,2.53-3.86.77-5.14,3.36-1,2.07-.82,4.67-1,6.9a19.41,19.41,0,0,1-.57,3.38,2.4,2.4,0,0,1-3.28,2.06,12.93,12.93,0,0,1-3-.92,13.1,13.1,0,0,0,6.76,3.43,3,3,0,0,0,2.39-.36,3.06,3.06,0,0,0,.89-1.7,20.09,20.09,0,0,0,.56-3.37c.18-2.24,0-4.83,1-6.9,1.28-2.59,3.8-.84,5.14-3.37a9.6,9.6,0,0,0,.72-4.2,6.62,6.62,0,0,1,1.12-4.06c1.15-1.4,3.24-1.79,4.35-3.22,1.26-1.63.84-3.94,1.22-6a7.52,7.52,0,0,1,7-5.94c2.48-.08,4.81,1.1,7.25,1.58,3.17.63,6.44.06,9.62-.5,2.37-.42,5-.95,6.48-2.81a9.79,9.79,0,0,0,1.72-4.24C1010.73,202.23,1011.13,199.57,1009.9,197.46Z" transform="translate(-64.52 -100.01)" opacity="0.1"/><path d="M945.93,751.41c0,10.09-7.06,18.27-15.76,18.27s-15.76-8.18-15.76-18.27v-.14c.07-10,7.11-18.13,15.76-18.13,5.35,0,10.07,3.08,12.91,7.82A20.07,20.07,0,0,1,945.93,751.41Z" transform="translate(-64.52 -100.01)" fill="#33323d"/><path d="M1071.49,758.77c0,19.44-10,35.19-22.44,35.19s-22.42-15.75-22.42-35.19c0-11,3.19-20.79,8.22-27.22,3.87-5,8.8-8,14.2-8a14.74,14.74,0,0,1,2.21.16c4.46.7,8.55,3.42,11.84,7.6a21.56,21.56,0,0,1,1.3,1.79C1068.77,739.55,1071.49,748.67,1071.49,758.77Z" transform="translate(-64.52 -100.01)" fill="#33323d"/><polygon points="993.62 618.49 974.01 620.44 971.49 599.48 971.32 598.11 967.76 568.57 967.6 567.2 949.59 417.77 949.2 414.59 938.46 325.41 938.2 323.28 937.08 313.95 936.33 307.76 952.03 307.76 952.88 314.17 953.02 315.19 953.41 318.06 966.88 418.73 967.24 421.43 986.45 564.93 990.66 596.38 993.62 618.49" fill="#33323d"/><path d="M1049.05,723.59a14.74,14.74,0,0,1,2.21.16c-.17.13-.37.25-.55.38a12.59,12.59,0,0,0-5,11.65l3.18,30.24c0,.16,0,.32,0,.48a4.56,4.56,0,0,1-9,.85c-1.32-6.93-3.79-21.09-4.91-33.88-.06-.68-.1-1.32-.1-1.92C1038.72,726.58,1043.65,723.59,1049.05,723.59Z" transform="translate(-64.52 -100.01)" opacity="0.1"/><path d="M1054.71,733.14l-.69-.2c-.21-.55-.4-1.09-.61-1.59A21.56,21.56,0,0,1,1054.71,733.14Z" transform="translate(-64.52 -100.01)" opacity="0.1"/><path d="M1047.94,715.35s-16-1.05-14.38,16.74c1.13,12.79,3.61,26.94,4.91,33.87a4.56,4.56,0,0,0,5.17,3.66h0a4.56,4.56,0,0,0,3.85-5l-3.19-30.24a12.6,12.6,0,0,1,5-11.66c3.77-2.65,8.8-2.8,13,8.83l2.88.78S1068.87,713.26,1047.94,715.35Z" transform="translate(-64.52 -100.01)" fill="#504f60"/><path d="M1031.4,518.73a12.09,12.09,0,0,1-2.41.24h-5.62a12.91,12.91,0,0,1-12.79-11.48L1002,429.22a12.71,12.71,0,0,1,.73-5.94,12.84,12.84,0,0,1,14.83-8.08Z" transform="translate(-64.52 -100.01)" opacity="0.1"/><path d="M1031.76,521.43a12.13,12.13,0,0,1-2.77.31h-5.62a12.78,12.78,0,0,1-9.26-4l-.38-3.18L1003,425.41a12.82,12.82,0,0,1,14.94-7.35l13.47,100.67Z" transform="translate(-64.52 -100.01)" opacity="0.1"/><path d="M1002,430.6c2.06,18.83,6.44,58.65,8.6,78.29a12.86,12.86,0,0,0,12.79,11.46H1029a12.64,12.64,0,0,0,12.15-8.63,11.07,11.07,0,0,0,.53-3.34c0-6-6.44-60.35-8.44-77.11a12.73,12.73,0,0,0-4.74-8.51,45.31,45.31,0,0,0-8.51-5.33C1011,413.25,1000.9,420.74,1002,430.6Z" transform="translate(-64.52 -100.01)" fill="#714880"/><path d="M1002,430.6c2.06,18.83,6.44,58.65,8.6,78.29a12.86,12.86,0,0,0,12.79,11.46H1029a12.64,12.64,0,0,0,12.15-8.63,11.07,11.07,0,0,0,.53-3.34c0-6-6.44-60.35-8.44-77.11a12.73,12.73,0,0,0-4.74-8.51,45.31,45.31,0,0,0-8.51-5.33C1011,413.25,1000.9,420.74,1002,430.6Z" transform="translate(-64.52 -100.01)" fill="#fff" opacity="0.2"/><path d="M943.08,741l-4.22-.18a19.68,19.68,0,0,0-10.73,2.63l-13.2,7.6c-.17.09-.35.19-.52.26.07-10,7.11-18.13,15.76-18.13C935.52,733.14,940.24,736.22,943.08,741Z" transform="translate(-64.52 -100.01)" opacity="0.1"/><polygon points="990.66 597.76 971.49 599.48 971.32 598.11 967.76 568.57 986.45 566.32 990.66 597.76" opacity="0.1"/><path d="M1035.83,698.12c3.07,45-28.43,44.17-28.43,44.17l-68.54-2.9A19.78,19.78,0,0,0,928.13,742l-13.2,7.61a6.86,6.86,0,0,1-7.7-.57h0a6.88,6.88,0,0,1-1.23-9.51l5.58-7.44a11.66,11.66,0,0,1,10-4.64l71.71,4.09c29,.53,38.84-64.35,38.84-64.35h0l18.85-2.27,4.21,31.45-19.33,1.73Z" transform="translate(-64.52 -100.01)" fill="#504f60"/><polygon points="952.88 314.17 937.08 313.95 936.33 307.76 952.03 307.76 952.88 314.17" opacity="0.1"/><path d="M941.15,402l132.57,3.33a4.13,4.13,0,0,1,4,4.14h0a4.14,4.14,0,0,1-4.2,4.14L941,411.72a4.14,4.14,0,0,1-4.08-4.14V406.1A4.13,4.13,0,0,1,941.15,402Z" transform="translate(-64.52 -100.01)" fill="#33323d"/><path d="M950.3,390.17c4.62.94,9.73.7,13.6,3.4,3.45,2.41,5.12,6.76,5.3,11s-.91,8.35-2,12.42c-.34,1.28-1,2.83-2.34,2.87s-2-1.31-3.07-2c-2.3-1.39-5.56.67-7.87-.69a12.34,12.34,0,0,1-1.82-1.65,6,6,0,0,0-6.74-.8,10.8,10.8,0,0,0-10.92-12.79c-1.79.06-3.72.53-5.3-.34-2.52-1.38-2.32-5.18-.95-7.72,1.91-3.57,3.38-7.07,7.74-7.07C940.9,386.82,945.5,389.2,950.3,390.17Z" transform="translate(-64.52 -100.01)" fill="#fbbebe"/><path d="M1040.6,395.14l-.06,9.72c0,3.66,0,7.5,1.81,10.69.94,1.66,2.56,3.16,4.48,3.12.71,0,1.42-.24,2.14-.21,2.09.08,4,2.28,5.94,1.55.67-.25,1.19-.81,1.88-1,1-.31,2.15.25,3.16-.06s1.61-1.47,2-2.49c2-4.88,4-10.26,2.55-15.32a23.77,23.77,0,0,0-3.41-6.35l-6.48-9.59a3.38,3.38,0,0,0-1.06-1.13,2.87,2.87,0,0,0-1.45-.26c-3.22.05-6.23,1.52-9.11,3S1040.62,392.38,1040.6,395.14Z" transform="translate(-64.52 -100.01)" fill="#fbbebe"/><path d="M1047,341.1a28.14,28.14,0,0,0,1.81,6.22c1.15,2.26,3.16,4.18,3.53,6.69.42,3-1.53,6.46.33,8.84.77,1,2,1.46,2.81,2.43,1.92,2.36.09,5.85.37,8.88.25,2.77,2.31,5.07,2.88,7.8s-.38,6.11,1.36,8.41c-1.77-2.79-5.65-3.34-8.91-2.8a20.19,20.19,0,0,0-13.27,8.59,26.52,26.52,0,0,0-1.24-11.76c-1.17-3.37-3-6.66-2.89-10.22.1-2.12.92-4.19.72-6.3-.31-3.3-3-5.81-5.32-8.14-2.82-2.81-5.57-6.15-5.85-10.12-.26-3.7,1.68-7.19,3.91-10.15a19.43,19.43,0,0,1,6.61-6c1.76-.86,7.06-4.46,8.22-4C1044.47,330.41,1046.4,338.82,1047,341.1Z" transform="translate(-64.52 -100.01)" fill="#714880"/><path d="M900.48,311a11.42,11.42,0,0,0-6.36,5.27A44,44,0,0,0,890.8,324,102.61,102.61,0,0,1,883,340.51c-2.33,4-5,7.84-6.25,12.25-1.13,3.86-1.22,8.06-3.07,11.63-.91,1.74-2.22,3.27-2.91,5.11-.89,2.38-.66,5-.41,7.56l.65,6.77a17.36,17.36,0,0,0,1.47,6.43c1.26,2.39,3.54,4,5.74,5.61l10.17,7.21a26.81,26.81,0,0,0,6.36,3.68c6.63,2.32,13.76-.89,20.73-1.77,4.8-.6,9.66-.09,14.46.43-.39-3.93-.26-8.09,1.64-11.55s7.69-8,11.52-7.06c-3.81-3.21-10.09-1.42-14.3-4.09-1.69-1.07-3.13-2.49-4.79-3.62-5.24-3.54-12.73-4.14-16.11-9.49a2.17,2.17,0,0,1-.39-1c-.06-.79.61-1.42,1.19-2,4.22-4,6.33-9.77,6.85-15.54s-.4-11.55-1.45-17.24c-.85-4.58-1.8-9.21-3.88-13.37S904.87,312.55,900.48,311Z" transform="translate(-64.52 -100.01)" fill="#714880"/><ellipse cx="290.67" cy="623.54" rx="18.68" ry="3.16" fill="#714880" opacity="0.1"/><path d="M342.65,708.87s10.65-.33,13.86-2.61,16.39-5,17.19-1.35,16,18.24,4,18.33-27.95-1.87-31.15-3.82S342.65,708.87,342.65,708.87Z" transform="translate(-64.52 -100.01)" fill="#a8a8a8"/><path d="M377.89,722c-12,.09-27.94-1.88-31.15-3.83-2.44-1.49-3.41-6.82-3.74-9.28h-.35s.67,8.6,3.88,10.55,19.12,3.92,31.15,3.82c3.47,0,4.67-1.26,4.6-3.09C381.8,721.26,380.48,722,377.89,722Z" transform="translate(-64.52 -100.01)" opacity="0.2"/><ellipse cx="399" cy="586.75" rx="14.37" ry="2.43" fill="#714880" opacity="0.1"/><path d="M453.87,675.47s8.19-.26,10.67-2,12.61-3.86,13.22-1,12.32,14,3.06,14.1-21.5-1.44-24-2.94S453.87,675.47,453.87,675.47Z" transform="translate(-64.52 -100.01)" fill="#a8a8a8"/><path d="M481,685.54c-9.26.08-21.51-1.44-24-2.94-1.88-1.15-2.63-5.25-2.88-7.14h-.27s.52,6.61,3,8.11,14.72,3,24,2.94c2.68,0,3.6-1,3.55-2.38C484,685,483,685.53,481,685.54Z" transform="translate(-64.52 -100.01)" opacity="0.2"/><ellipse cx="710.79" cy="620.34" rx="34.31" ry="5.8" fill="#714880" opacity="0.1"/><path d="M752.27,693.4s19.57-.6,25.47-4.8,30.1-9.22,31.57-2.48,29.41,33.5,7.31,33.68-51.34-3.45-57.22-7S752.27,693.4,752.27,693.4Z" transform="translate(-64.52 -100.01)" fill="#a8a8a8"/><path d="M817,717.45c-22.1.18-51.34-3.44-57.23-7-4.48-2.73-6.27-12.53-6.87-17l-.65,0s1.24,15.78,7.13,19.37,35.13,7.2,57.22,7c6.38-.06,8.58-2.32,8.46-5.69C824.2,716.15,821.76,717.41,817,717.45Z" transform="translate(-64.52 -100.01)" opacity="0.2"/></svg>