<svg id="fb9fe00d-fe37-492c-8223-5a450097a96f" data-name="Layer 1" xmlns="http://www.w3.org/2000/svg" width="1117.97" height="735.28" viewBox="0 0 1117.97 735.28"><title>scooter</title><path d="M1068.87,280.28c50.92-1.94,91.26-44.92,90.09-95.86a93.73,93.73,0,0,0-93.7-91.52l-1.56,0a93.86,93.86,0,0,0-90.12,2,93.29,93.29,0,0,0-49.31-12.51c-50.17,1.28-90.75,42.53-91.26,92.72a93.32,93.32,0,0,0,19,57.61,93.31,93.31,0,0,0-13,47.07c-.29,50.5,40.11,92.57,90.58,94.22a93.56,93.56,0,0,0,35.83-5.81c18.44,23.18,39.53,51.88,35.35,62.13-5.23,12.82-2.12,142.94-.64,195.15a23.79,23.79,0,0,0,.24,2.69c-34.56,1.89-59.57,7.37-59.57,13.84,0,8,38.5,14.54,86,14.54s86-6.51,86-14.54c0-3-5.53-5.86-15-8.2a42.26,42.26,0,0,0,7-5.24c1.91-1.77,3.71-3.87,4.26-6.42s-.54-5.61-3-6.54c-2.73-1.05-5.65.85-7.86,2.76s-4.75,4.09-7.65,3.69a11.65,11.65,0,0,0,3.6-10.9,4.56,4.56,0,0,0-1-2.21c-1.52-1.62-4.27-.93-6.08.35-5.78,4.06-7.39,11.91-7.42,19-.58-2.55-.09-5.2-.11-7.81s-.73-5.51-2.93-6.92a8.92,8.92,0,0,0-4.48-1c-2.59-.09-5.48.17-7.26,2.07-2.2,2.35-1.63,6.31.29,8.91s4.83,4.22,7.51,6l.41.27c-8.71-.94-18.48-1.63-29-2a20.88,20.88,0,0,0,.19-2.51c.92-50.57,3.44-172.93,6.75-187.47,4.18-18.38,0-130.29,0-130.29s-.44-12.43.16-28.18A95.61,95.61,0,0,0,1068.87,280.28ZM990.72,354a91.89,91.89,0,0,0,7.42-6.51l2.68,17.71Z" transform="translate(-41.02 -82.36)" fill="#492257" opacity="0.1"/><path d="M925.55,459.24a34.37,34.37,0,0,0-1.32-68.71h-.57a34.43,34.43,0,0,0-33,.73A34.37,34.37,0,0,0,846,441.8a34.38,34.38,0,0,0,41.59,49.69c6.77,8.5,14.5,19,13,22.78-1.92,4.71-.78,52.43-.24,71.57a7.92,7.92,0,0,0,.09,1c-12.68.69-21.85,2.7-21.85,5.07,0,3,14.12,5.34,31.54,5.34s31.54-2.39,31.54-5.34c0-1.11-2-2.15-5.48-3a16.53,16.53,0,0,0,2.57-1.92,4.73,4.73,0,0,0,1.56-2.36,2.08,2.08,0,0,0-1.09-2.4c-1-.38-2.07.31-2.88,1s-1.74,1.51-2.81,1.36a4.24,4.24,0,0,0,1.32-4,1.7,1.7,0,0,0-.36-.81c-.56-.59-1.57-.34-2.23.13-2.12,1.49-2.71,4.37-2.72,7a12.51,12.51,0,0,1,0-2.87,3,3,0,0,0-1.08-2.54,3.28,3.28,0,0,0-1.64-.38,3.36,3.36,0,0,0-2.66.76,2.65,2.65,0,0,0,.1,3.27,10.42,10.42,0,0,0,2.76,2.2l.15.1c-3.2-.34-6.78-.6-10.62-.73,0-.3.06-.61.07-.92.33-18.54,1.26-63.42,2.47-68.75,1.54-6.74,0-47.78,0-47.78s-.16-4.56.06-10.34A34.11,34.11,0,0,0,925.55,459.24Zm-28.66,27.05a34.43,34.43,0,0,0,2.72-2.39l1,6.49Z" transform="translate(-41.02 -82.36)" fill="#492257" opacity="0.1"/><ellipse cx="588.96" cy="715.84" rx="156.99" ry="19.44" fill="#492257" opacity="0.1"/><g opacity="0.5"><path d="M311.36,329.09c-12,16.86-21.23,65.93-23.8,80.72l-21.48-.44c1.11-12.7,26.1-64.38,33.05-78.56C303,330.2,307.12,329.61,311.36,329.09Z" transform="translate(-41.02 -82.36)" fill="#492257"/><rect x="570.07" y="318.22" width="9.52" height="13.41" transform="translate(-47.05 -71.45) rotate(-1.08)" fill="#dce0ed"/><path d="M579.46,318.13l.08,4.36a7.09,7.09,0,0,1-2.06.32l-7.45.08-.09-4.58Z" transform="translate(-41.02 -82.36)" opacity="0.1"/><path d="M565.28,284.24l9-.17a10.77,10.77,0,0,1,10.11,6.54c2.75,6.42,5.18,16.68-.48,27.06a7.42,7.42,0,0,1-6.44,3.87l-11.47.12Z" transform="translate(-41.02 -82.36)" fill="#dce0ed"/><ellipse cx="565.64" cy="302.95" rx="9.62" ry="18.72" transform="matrix(1, -0.02, 0.02, 1, -46.64, -71.62)" fill="#f0f0f4"/><rect x="485.54" y="319.97" width="9.52" height="11.74" transform="matrix(1, -0.02, 0.02, 1, -47.08, -73.04)" fill="#dce0ed"/><path d="M494.94,319.88l.07,3.73a6.77,6.77,0,0,1-2.06.32l-7.45.08-.07-3.95Z" transform="translate(-41.02 -82.36)" opacity="0.1"/><path d="M480.76,286l9-.17a10.79,10.79,0,0,1,10.11,6.54c2.76,6.43,5.18,16.69-.48,27.07a7.43,7.43,0,0,1-6.44,3.87l-11.47.12Z" transform="translate(-41.02 -82.36)" fill="#dce0ed"/><ellipse cx="481.12" cy="304.71" rx="9.62" ry="18.72" transform="translate(-46.68 -73.22) rotate(-1.08)" fill="#f0f0f4"/><path d="M483.29,292.79s-3.54.63-1.6,5.28a32.47,32.47,0,0,1,2.26,7.06s3.59,1.78,3.33-4.32S483.29,292.79,483.29,292.79Z" transform="translate(-41.02 -82.36)" fill="#dce0ed"/><ellipse cx="127.77" cy="566.99" rx="56.15" ry="61.54" transform="translate(-51.7 -79.84) rotate(-1.08)" fill="#636780"/><path d="M147.71,508.9c-29.34,2.53-52.1,29.71-51.48,62.4.49,26.36,16,48.55,37.45,56.92,29.34-2.53,52.11-29.71,51.49-62.4C184.67,539.46,169.13,517.27,147.71,508.9Z" transform="translate(-41.02 -82.36)" opacity="0.1"/><ellipse cx="564.59" cy="424.22" rx="45.57" ry="59.42" transform="translate(-48.93 -71.62) rotate(-1.08)" fill="#636780"/><path d="M550.78,367.53c-18.76,7.6-32.12,30.64-31.61,57.63.54,28.84,16.75,52.57,37.75,57.58,18.76-7.6,32.13-30.64,31.62-57.62C588,396.28,571.79,372.54,550.78,367.53Z" transform="translate(-41.02 -82.36)" opacity="0.1"/><path d="M393.2,414.77l.43-21.59s-4.4-9.22-8.64-10-14-1.11-14-1.11-7,31.12-1.78,40.33S393.2,414.77,393.2,414.77Z" transform="translate(-41.02 -82.36)" fill="#492257"/><path d="M393.2,414.77l.43-21.59s-4.4-9.22-8.64-10-14-1.11-14-1.11-7,31.12-1.78,40.33S393.2,414.77,393.2,414.77Z" transform="translate(-41.02 -82.36)" opacity="0.1"/><path d="M315.13,413.91s-3.18-29.85,13.24-30.7c2.12-.11,4.23-.2,6.33-.44,11.37-1.32,42.39-4.31,38.8,2.86,0,0-6.9,26.15-1.71,32.61Z" transform="translate(-41.02 -82.36)" fill="#492257"/><path d="M549.08,465l22,.22s3-40.67,4.25-43.86,1.55-18.43-2.61-20.57-18-4.58-18-4.58l-9.71,23.34-.4,20.95Z" transform="translate(-41.02 -82.36)" fill="#492257"/><path d="M549.08,465l22,.22s3-40.67,4.25-43.86,1.55-18.43-2.61-20.57-18-4.58-18-4.58l-9.71,23.34-.4,20.95Z" transform="translate(-41.02 -82.36)" opacity="0.1"/><path d="M494.52,398.57l-.18-4.51a2.61,2.61,0,0,1,2.67-2.72c10.93.26,50.72,1.41,57.75,4.83,0,0-6.54,56.75,2.11,70.07l-2,45.41-97.51-5.45Z" transform="translate(-41.02 -82.36)" fill="#492257"/><path d="M485.56,327.23c2.7-.32,5.91-.67,9.5-1l.1,5.41-9.51.18Z" transform="translate(-41.02 -82.36)" opacity="0.1"/><path d="M579.7,330.85v.68l-9.51.18-.08-4.11A40.25,40.25,0,0,1,579.7,330.85Z" transform="translate(-41.02 -82.36)" opacity="0.1"/><polygon points="588.96 382.5 574.59 382.99 543.86 329.56 538.73 320.63 542.1 297.73 545.13 303.2 588.96 382.5" fill="#dce0ed"/><polygon points="457.68 318.57 451.93 327.56 433.78 303.97 425.47 293.16 430.21 286.52 434.02 290.96 457.68 318.57" fill="#dce0ed"/><path d="M475,373.32c0,.46.07.93.11,1.4l-.35,11.61-8.31-10.81,4.75-6.65Z" transform="translate(-41.02 -82.36)" opacity="0.1"/><polygon points="545.13 303.2 543.86 329.56 538.73 320.63 542.1 297.73 545.13 303.2" opacity="0.1"/><path d="M458.52,390.48s-8.1-52.9,17.59-61.32a5.9,5.9,0,0,1,1-.23c5.94-.83,61.27-8.27,90.2-1.21,0,0,19.72,2.59,19.71,13.16L580.8,470.23l-14.17.27,3-85.51s6.06-37.34-5.19-39.66-62.29-5.59-80.17-.18c0,0-13.16-2.71-10.44,29.6l-.52,17.35Z" transform="translate(-41.02 -82.36)" fill="#dce0ed"/><path d="M502,405.41a8.19,8.19,0,0,0-3.47-7.23c-4-2.94-16.35-9.21-16.35-9.21l-4,.4-11.34,29.72,2,62.62,21.91,26.08Z" transform="translate(-41.02 -82.36)" fill="#492257"/><path d="M502,405.41a8.19,8.19,0,0,0-3.47-7.23c-4-2.94-16.35-9.21-16.35-9.21l-4,.4-11.34,29.72,2,62.62,21.91,26.08Z" transform="translate(-41.02 -82.36)" opacity="0.1"/><path d="M417.77,472.68,417,408.39s-2.38-24.91,12.52-25.61c0,0,35.16-.41,50.53,4.26a3.41,3.41,0,0,1,2,4.89c-2.94,5.35-7.8,19.46-9.6,55.45l.73,38.53Z" transform="translate(-41.02 -82.36)" fill="#492257"/><polygon points="451.69 429.99 387.7 429.71 387.63 429.71 356.18 429.57 359.04 387.48 376.49 387.79 432.23 399.11 449.7 425.43 451.69 429.99" fill="#492257"/><polygon points="451.69 429.99 387.7 429.71 387.63 429.71 356.18 429.57 359.04 387.48 376.49 387.79 432.23 399.11 449.7 425.43 451.69 429.99" opacity="0.1"/><polygon points="451.69 429.99 387.7 429.71 386.11 401.56 432.23 399.11 449.7 425.43 451.69 429.99" fill="#492257"/><path d="M428.65,512.07l-31.45-.14,2.85-42.09s10.13,15.51,27.08,14.08Z" transform="translate(-41.02 -82.36)" fill="#fff" opacity="0.1"/><path d="M654.91,541.81c-1,12.07-9.64,10.33-9.64,10.33l-1.6-.11-15.87-1.15.28-18.72a69,69,0,0,1,16.09.66C650.14,533.94,655.37,536.44,654.91,541.81Z" transform="translate(-41.02 -82.36)" fill="#dce0ed"/><path d="M654.91,541.81c-1,12.07-9.64,10.33-9.64,10.33l-1.6-.11a16.22,16.22,0,0,1-2.7-9c-.08-4.19,1.19-7.93,3.2-10.2C650.14,533.94,655.37,536.44,654.91,541.81Z" transform="translate(-41.02 -82.36)" opacity="0.1"/><path d="M406.87,388.49c-14.48.27-25.92,16.35-25.55,35.91s12.41,35.2,26.89,34.92,25.92-16.35,25.55-35.91S421.35,388.22,406.87,388.49Zm-2.5,63.5c-11,.21-20.2-11.12-20.47-25.31s8.46-25.86,19.5-26.07,20.2,11.13,20.47,25.32S415.4,451.78,404.37,452Z" transform="translate(-41.02 -82.36)" fill="#636780"/><polygon points="368 352.41 380.49 364.23 384.73 353.37 366.77 343.34 368 352.41" fill="#636780"/><polygon points="383.82 232.79 394.53 233.89 398.57 238.52 393.08 265.65 381.14 309.43 373.34 339.48 367.79 357.74 364.49 381.83 361.05 398.41 350 409.89 326.6 383.3 322.67 374.36 313.32 356.14 336.38 344.82 361.86 342.08 373.29 311.08 382.37 275.24 383.82 232.79" fill="#492257"/><polyline points="170.27 365.67 158.53 483.06 334.1 472.35 312.71 415.22 278.47 393.87 355.88 393.68 355.69 361.53 324.27 355.36 261.17 351.47 213.77 350.25 168.8 365.9" fill="#492257"/><polyline points="170.27 365.67 158.53 483.06 334.1 472.35 312.71 415.22 278.47 393.87 355.88 393.68 355.69 361.53 324.27 355.36 261.17 351.47 213.77 350.25 168.8 365.9" opacity="0.1"/><path d="M453.54,560.23c.55,29.11-8.62,55.79-35.51,53.39-33.86-.08-36.95-22.9-37.5-52s15.38-51.08,35.55-51.46S453,531.12,453.54,560.23Z" transform="translate(-41.02 -82.36)" fill="#636780"/><path d="M453.75,560.27c-.42-22.53-10.56-40.42-24.47-47.17-17.64,3.7-30.86,24.31-30.36,50.87.45,23.85,2.62,43.48,22,49.84C445.75,614.23,454.28,588.39,453.75,560.27Z" transform="translate(-41.02 -82.36)" opacity="0.1"/><polygon points="446.15 431.54 436.05 443.55 454.57 440.01 468.21 426.99 480.13 401.99 497.38 390.96 540.27 395.97 579.9 396.72 594.27 383.46 577.92 381.55 561.4 381.49 519.91 381.33 470.53 380.95 460.91 408.17 453.57 426.89 446.15 431.54" fill="#492257"/><path d="M630.07,559.41c-.82,1.28-28.44,6-28.44,6l-76.27,15.4-131.48,4.38L378.2,572.41l-8.08,1.6-.33.06L261.87,595.34l-1.76-.22-29.6-3.65L76,572.41,77.25,550,78,536.77l1.6-27.46L81,502.09l13.71-1.51,6.4-.71,99.87-11.07L214,487.35l7.32-.81,71.29-11.07,104.28.57-.18-32.15,38.83-127.64c9.12,1.3,9,7.44,9,7.44L411.73,443.81l1,73.38c73.13,6,75.19-10,86.84-4.81l13.11-44.88,122.64-1.68C640.26,471.65,630.07,559.41,630.07,559.41Z" transform="translate(-41.02 -82.36)" fill="#492257"/><polygon points="283.54 416.19 324.02 498.98 337.21 502.95 340.13 489.37 324.66 443.34 309.14 416.77 283.54 416.19" fill="#492257"/><polygon points="283.54 416.19 324.02 498.98 337.21 502.95 340.13 489.37 324.66 443.34 309.14 416.77 283.54 416.19" opacity="0.15"/><ellipse cx="300.97" cy="591" rx="70.47" ry="79.94" transform="translate(-52.12 -76.57) rotate(-1.08)" fill="#636780"/><path d="M324.69,515.59c-36.82,3.27-65.37,38.54-64.57,81,.64,34.23,20.17,63.07,47.06,73.95,36.82-3.26,65.37-38.54,64.57-81C371.1,555.32,351.58,526.47,324.69,515.59Z" transform="translate(-41.02 -82.36)" opacity="0.1"/><path d="M109.47,454.81l-3.18,16.51-9.72,50.57-46-3.57s-2.91-8.4,4.22-11.71c0,0,1.82-28.67,10.13-37.85a8.61,8.61,0,0,1,3.28-2.38Z" transform="translate(-41.02 -82.36)" fill="#492257"/><path d="M106.29,471.32l-9.72,50.57-46-3.57s-2.91-8.4,4.22-11.71c0,0,1.82-28.67,10.13-37.85Z" transform="translate(-41.02 -82.36)" fill="#fff" opacity="0.1"/><path d="M213,457.3c6.1,9.82-6.54,101.65-6.54,101.65l-113-16.48,2.5-80.21C97.92,447.84,106.34,446,106.34,446,145.71,425.15,237,419.19,237,419.19c83.37,1.6,159.74,24.7,159.74,24.7C301.71,431.09,213,457.3,213,457.3Z" transform="translate(-41.02 -82.36)" fill="#492257"/><path d="M206.41,559l-113-16.48,2.5-80.21C97.92,447.84,106.34,446,106.34,446s82.1-9.38,106.61,11.31C219.05,467.12,206.41,559,206.41,559Z" transform="translate(-41.02 -82.36)" opacity="0.1"/><path d="M194.39,553.89l-94.53-14.1,2.07-68.43c1.71-12.31,8.76-13.88,8.76-13.88s68.64-8,89.14,9.68C204.94,475.55,194.39,553.89,194.39,553.89Z" transform="translate(-41.02 -82.36)" fill="#492257"/><ellipse cx="185.58" cy="497.79" rx="12.9" ry="23.47" transform="translate(-50.38 -78.77) rotate(-1.08)" opacity="0.1"/><ellipse cx="185.57" cy="497.16" rx="12.9" ry="23.47" transform="translate(-50.37 -78.77) rotate(-1.08)" fill="#dce0ed"/><path d="M186.93,479.79s-5.27.94-2.39,7.87,3.37,10.51,3.37,10.51,5.34,2.65,5-6.44S186.93,479.79,186.93,479.79Z" transform="translate(-41.02 -82.36)" fill="#f0f0f4"/><ellipse cx="116.26" cy="489.79" rx="12.05" ry="21.93" transform="translate(-50.24 -80.08) rotate(-1.08)" opacity="0.1"/><ellipse cx="116.25" cy="489.16" rx="12.05" ry="21.93" transform="translate(-50.23 -80.08) rotate(-1.08)" fill="#dce0ed"/><path d="M117.62,471.79s-5.27.95-2.39,7.87,3.37,10.51,3.37,10.51,5.34,2.65,5-6.44S117.62,471.79,117.62,471.79Z" transform="translate(-41.02 -82.36)" fill="#f0f0f4"/><path d="M170.4,478.19c-.68,8.69-3.7,73.05-3.7,73.05l-7.19-1.07-4-.58-5.34-.79-.64-.09-21-3.1,2.84-68.26a8.56,8.56,0,0,1,6.12-7.84,8.88,8.88,0,0,1,2.37-.35l.64,0c1.44.1,3,.23,4.64.37l2.08.21c2,.2,4.1.45,6.14.75,1,.16,2.07.32,3.08.5,1.71.31,3.37.65,4.9,1.05,1,.26,2,.56,2.93.88C168.08,474.23,170.58,476,170.4,478.19Z" transform="translate(-41.02 -82.36)" opacity="0.1"/><path d="M139.86,469.16l-2.66,76.71-2.33-.16,2.62-76.2A8.88,8.88,0,0,1,139.86,469.16Z" transform="translate(-41.02 -82.36)" fill="#492257"/><path d="M147.22,469.76l-2.38,77.45-3.59.07,3.89-77.73Z" transform="translate(-41.02 -82.36)" fill="#492257"/><path d="M156.44,471l-4.59,77.76-2.32,0v-.1l3.83-78.2C154.4,470.67,155.43,470.83,156.44,471Z" transform="translate(-41.02 -82.36)" fill="#492257"/><path d="M164.27,472.94l-4.76,77.23v.15l-4-.35,0-.38,5.83-77.53C162.38,472.32,163.37,472.62,164.27,472.94Z" transform="translate(-41.02 -82.36)" fill="#492257"/><path d="M79.4,534.27s-8.53-40,9.2-42.37,76.15.79,74.72,17.31-2.86,41.62-2.86,41.62l-12.1-2.47s8.32-37.91-5.82-39.07-48.78-4.48-48.78-4.48-9.39-1.4-3.37,31.64Z" transform="translate(-41.02 -82.36)" opacity="0.1"/><path d="M79.47,538.08s-8.57-42.51,9.15-44.91,76.16.78,74.73,17.31-2.87,41.62-2.87,41.62l-12.1-2.47s8.33-37.91-5.81-39.07-48.79-4.48-48.79-4.48-9.34,1.13-3.32,34.17Z" transform="translate(-41.02 -82.36)" fill="#dce0ed"/><path d="M393.88,585.23l-15.65.08c-12.37-50.1-31.78-81-31.78-81-6.41-3.26-75.75-1.53-75.75-1.53-7.17,1.41-8.64,24.28-8.64,24.28s6.24,5.17.38,8.66c-2.62,1.56-11.31,2-21.35,1.69-12.46-.41-27-2-34.54-4.23-13.61-4-3-12-3-12s1.86-2.57,2.86-16.55a56.4,56.4,0,0,1,7.29-23.18c.56-1,.92-1.51.92-1.51a7.47,7.47,0,0,1,2.45-1.6c17.78-7.82,105.77-2.35,105.77-2.35l32.76,9.75c.91.34,2.34,2.61,4.12,6.25C370.45,513.82,393.88,585.23,393.88,585.23Z" transform="translate(-41.02 -82.36)" fill="#492257"/><path d="M393.88,585.23l-15.65.08c-12.37-50.1-31.78-81-31.78-81-6.41-3.26-75.75-1.53-75.75-1.53-7.17,1.41-8.64,24.28-8.64,24.28s6.24,5.17.38,8.66c-2.62,1.56-11.31,2-21.35,1.69-12.46-.41-27-2-34.54-4.23-13.61-4-3-12-3-12s1.86-2.57,2.86-16.55a56.4,56.4,0,0,1,7.29-23.18c.56-1,.92-1.51.92-1.51a7.47,7.47,0,0,1,2.45-1.6c17.78-7.82,105.77-2.35,105.77-2.35l32.76,9.75c.91.34,2.34,2.61,4.12,6.25C370.45,513.82,393.88,585.23,393.88,585.23Z" transform="translate(-41.02 -82.36)" opacity="0.1"/><path d="M359.74,492c-30.28-11.11-113-3.35-113-3.35-8.94-7.36-25.5-7.54-33-7.19.56-1,.92-1.51.92-1.51a7.47,7.47,0,0,1,2.45-1.6c17.78-7.82,105.77-2.35,105.77-2.35l32.76,9.75C356.53,486,358,488.31,359.74,492Z" transform="translate(-41.02 -82.36)" fill="#492257"/><path d="M251.67,491.68c-1.78,6.59-9.11,33-9.11,33a112.61,112.61,0,0,0-1.47,12.73c-12.46-.41-27-2-34.54-4.23-13.61-4-3-12-3-12s1.86-2.57,2.86-16.55a56.22,56.22,0,0,1,8.21-24.69,7.47,7.47,0,0,1,2.45-1.6C228.89,480.85,253,486.69,251.67,491.68Z" transform="translate(-41.02 -82.36)" fill="#492257"/><path d="M251.67,491.68c-1.78,6.59-9.11,33-9.11,33a112.61,112.61,0,0,0-1.47,12.73c-12.46-.41-27-2-34.54-4.23-13.61-4-3-12-3-12s1.86-2.57,2.86-16.55a56.22,56.22,0,0,1,8.21-24.69,7.47,7.47,0,0,1,2.45-1.6C228.89,480.85,253,486.69,251.67,491.68Z" transform="translate(-41.02 -82.36)" fill="#fff" opacity="0.1"/><path d="M267.87,324.81c-8.38,1.42-11.7,18.94-11.7,18.94l-21.39,76.7,161.93,23.44,38.83-127.64C397.32,299.84,267.87,324.81,267.87,324.81Zm131.41,79.05s-.81,7.32-7,8.07l-104.74-2.12-21.48-.44-7.21-.14h-.51s-7.9,1.58-6.76-5.11c0,0,7.52-63.59,22.82-68.64,0,0,1.59-.37,4.38-.94,4.38-.92,11.7-2.36,20.33-3.72,3.86-.61,8-1.2,12.23-1.72,11.61-1.4,24.09-2.27,34.45-1.47,0,0,76.94-8.59,71.71,8.64C417.52,336.26,402.51,398.57,399.28,403.86Z" transform="translate(-41.02 -82.36)" fill="#492257"/><path d="M258.87,409.23h-.51s-7.9,1.58-6.76-5.11c0,0,7.52-63.59,22.82-68.64,0,0,1.59-.37,4.38-.94C273.42,345.53,256.2,383.18,258.87,409.23Z" transform="translate(-41.02 -82.36)" fill="#492257"/><path d="M258.87,409.23h-.51s-7.9,1.58-6.76-5.11c0,0,7.52-63.59,22.82-68.64,0,0,1.59-.37,4.38-.94C273.42,345.53,256.2,383.18,258.87,409.23Z" transform="translate(-41.02 -82.36)" opacity="0.1"/><path d="M276,565.41a10.22,10.22,0,0,1-9.46,5.54l-3.23-.08-30.51-.74-11-.26-10.16-.66L77.25,550,78,536.77l15.46,1.92,6.39.79,94.87,11.75,12.49,1.55,6.05.75,25.59-.67,27.7-.72a10.34,10.34,0,0,1,4.1.71,10,10,0,0,1,5.46,5A8.41,8.41,0,0,1,276,565.41Z" transform="translate(-41.02 -82.36)" opacity="0.1"/><path d="M276.06,566.68a10.22,10.22,0,0,1-9.46,5.54l-44.73-1.09-10.17-.65L68.35,550l-11.27-1.61-6.14-.88c-12.1-2.31-8.73-14.43-8.73-14.43.74-5.51,21.36-11,28.13-10.89,4.55.05,5.32,7.05,5.33,11.64,0,2.24-.17,3.91-.17,3.91l6.7.83L213.31,554.8l53.28-1.4a10.25,10.25,0,0,1,9.56,5.71A8.35,8.35,0,0,1,276.06,566.68Z" transform="translate(-41.02 -82.36)" fill="#dce0ed"/><path d="M60.76,530s5.84,6.87,14.74,7.76C75.5,537.73,71.76,530,60.76,530Z" transform="translate(-41.02 -82.36)" opacity="0.1"/><path d="M59.65,549.66S40.83,549.6,41,559.75s12.06,11.61,12.06,11.61l168.7,29.18,47.81-.06s16.45-13.63-1-19.23l-48.19,2.18L59.58,557.07S63.7,551.28,59.65,549.66Z" transform="translate(-41.02 -82.36)" opacity="0.1"/><path d="M269.61,601.75l-47.8.06-150-25.94-11-1.9-7.72-1.34S41.23,571.16,41,561c-.14-7.28,9.53-9.3,15-9.86,2.15-.22,3.65-.21,3.65-.21,4,1.61-.08,7.4-.08,7.4l5.86,1,155,25.4,48.18-2.18C286.06,588.11,269.61,601.75,269.61,601.75Z" transform="translate(-41.02 -82.36)" fill="#dce0ed"/><path d="M73.66,541.15l9.86-4.63,5.07-.3L89,578.93l-15.71-2.87L66.63,572l-3.51-17.7s1.13-7.42,1.75-8.07S73.66,541.15,73.66,541.15Z" transform="translate(-41.02 -82.36)" fill="#dce0ed"/><path d="M73.66,541.15l9.86-4.63,5.07-.3L89,578.93l-15.71-2.87L66.63,572l-3.51-17.7s1.13-7.42,1.75-8.07S73.66,541.15,73.66,541.15Z" transform="translate(-41.02 -82.36)" opacity="0.1"/><path d="M71.8,575.87l.19.21-11-1.91-.13-.2c-6-9.24-6.61-16.81-4.8-22.82,2.15-.22,3.65-.21,3.65-.21,4,1.61-.08,7.4-.08,7.4l5.86,1C65.22,567.66,70.71,574.57,71.8,575.87Z" transform="translate(-41.02 -82.36)" opacity="0.1"/><path d="M87.32,536.24c-1.85.75-3.55,1.52-5.12,2.32-7,3.56-11.36,7.49-13.85,11.43l-11.27-1.61c4.68-10.21,16.22-15,16.22-15l2.37.49Z" transform="translate(-41.02 -82.36)" opacity="0.1"/><path d="M74.57,533.31s-30.64,12.84-12.34,40.84l11,1.91S51,551.52,88.59,536.22Z" transform="translate(-41.02 -82.36)" fill="#dce0ed"/><polygon points="107.39 463.3 118.81 462.67 117.77 508.58 99.31 505.55 91.41 501.89 87.65 492.87 84.94 483.82 90.92 475.46 97.81 470.68 107.39 463.3" fill="#dce0ed"/><polygon points="107.39 463.3 118.81 462.67 117.77 508.58 99.31 505.55 91.41 501.89 87.65 492.87 84.94 483.82 90.92 475.46 97.81 470.68 107.39 463.3" opacity="0.1"/><ellipse cx="147.59" cy="569.37" rx="5.5" ry="9.3" transform="translate(-51.74 -79.47) rotate(-1.08)" fill="#dce0ed"/><path d="M108.17,596.07c-1.74-8.05-8-9.68-8-9.68s-12-3.27-12,9.9c0,0,.31,8.09,5.75,10.52l.49,9s.63,8.39-4.14,7.69S86,615.37,86,615.37s-2.69-7.88-8.79-3.64c0,0-1.35,4.47,1.87,6.63,1.87,1.26,2,3.9,1.76,5.88A8.6,8.6,0,0,0,83,631.09a8,8,0,0,0,7.68,2.59,11.81,11.81,0,0,0,6.53-3.92,17.26,17.26,0,0,0,4.36-11.64l0-11.61S109.91,604.13,108.17,596.07Zm-9.6,8.35a6.74,6.74,0,1,1,6.62-6.86A6.73,6.73,0,0,1,98.57,604.42Z" transform="translate(-41.02 -82.36)" fill="#dce0ed"/><path d="M95.4,583A3,3,0,0,0,94,587.18c1.29,2.31,2.84,5.3,2.72,6.1-.22,1.35,2.78.18,3.17-.14s5.86-.11,6.11-3.85a6.44,6.44,0,0,0-3-5.65l1.11-8.19L96.51,575l.22,7.45Z" transform="translate(-41.02 -82.36)" fill="#636780"/><path d="M95.4,583A3,3,0,0,0,94,587.18c1.29,2.31,2.84,5.3,2.72,6.1-.22,1.35,2.78.18,3.17-.14s5.86-.11,6.11-3.85a6.44,6.44,0,0,0-3-5.65l1.11-8.19L96.51,575l.22,7.45Z" transform="translate(-41.02 -82.36)" opacity="0.1"/><path d="M97.45,582.79s2.7,8.68,1.6,9S97.45,582.79,97.45,582.79Z" transform="translate(-41.02 -82.36)" opacity="0.1"/><path d="M100.27,580.68s2.7,8.67,1.59,9S100.27,580.68,100.27,580.68Z" transform="translate(-41.02 -82.36)" opacity="0.1"/><path d="M130.17,553.83l-3.74,26.3s-5.25-.62-8.14-1.18a6.1,6.1,0,0,1-1.84-.53c-.14-.15-.45-.13-.87,0h0c-1.4.31-3.89,1.53-4.4.56a.7.7,0,0,0-.14-.21h0c-.51-.53-1.46-.12-2.39,0a2,2,0,0,1-1.48-.17c-.79-.5-2.36.36-3.65.67-.81.19-1.52.17-1.85-.56a1.72,1.72,0,0,0-1.28-.88h0c-1.22-.28-2.93,0-3.91-.23-.39-.07-.66-.21-.75-.48-.21-.56-1.3-.81-2.47-1-1.42-.25-2.95-.42-3.07-1,0-.19-.18-.27-.39-.28a13.2,13.2,0,0,0-2.3.62h0c-.63.17-1.16.19-1.32-.27s-.9-.43-1.73-.21c-.67.18-1.4.46-2,.6s-.88.15-1-.09c-.23-.84-2.94,1.11-3.6-.57s-9.55-12.72,1.38-27.52c0,0,3,.15,5.36.53a8,8,0,0,1,2.24.59s0,0,0,0c.8.44,2.53.3,4.08.39a5.26,5.26,0,0,1,2.28.5,1.48,1.48,0,0,1,.65.66c.37.8,1.18.95,2.07.88,1.2-.09,2.52-.57,3-.34l0,0c.89.36,4.2-.07,4.78.47l0,0c.25.35,1.54,0,2.87-.25h0a3.24,3.24,0,0,1,2.64.37,3,3,0,0,0,2.07.57,11.68,11.68,0,0,1,2.69,0,1.1,1.1,0,0,1,.54.33c.55.65,1.84.54,3,.58a3,3,0,0,1,1.69.39,1.5,1.5,0,0,0,.61.24,18,18,0,0,0,5.1-.35Z" transform="translate(-41.02 -82.36)" fill="#636780"/><path d="M84.42,575c-.67.18-1.4.46-2,.6-8.84-13.16-1.8-23.41,2.19-27.65a8,8,0,0,1,2.24.59C78.45,558.62,82.69,571,84.42,575Z" transform="translate(-41.02 -82.36)" opacity="0.1"/><path d="M89.78,574.83a13.2,13.2,0,0,0-2.3.62h0c-7.6-12.86-.22-22.72,3.53-26.54a5.26,5.26,0,0,1,2.28.5C85.22,558.56,87.88,569.7,89.78,574.83Z" transform="translate(-41.02 -82.36)" opacity="0.1"/><path d="M96.46,577.59c-.39-.07-.66-.21-.75-.48-.21-.56-1.3-.81-2.47-1C86.57,564.44,92.17,555.3,96,551c1.2-.09,2.52-.57,3-.34l0,0C90.15,561,94.79,573.83,96.46,577.59Z" transform="translate(-41.02 -82.36)" opacity="0.1"/><path d="M103.51,579.26c-.81.19-1.52.17-1.85-.56a1.72,1.72,0,0,0-1.28-.88h0c-7.77-13-.29-22.91,3.47-26.72l0,0c.25.35,1.54,0,2.87-.25C96.27,561.89,102,576.11,103.51,579.26Z" transform="translate(-41.02 -82.36)" opacity="0.1"/><path d="M111,578.72c-.51-.53-1.46-.12-2.39,0-8.08-12.87-1.07-22.83,2.82-26.92a11.68,11.68,0,0,1,2.69,0C105.19,561.91,109.2,574.38,111,578.72Z" transform="translate(-41.02 -82.36)" opacity="0.1"/><path d="M118.29,579a6.1,6.1,0,0,1-1.84-.53c-.14-.15-.45-.13-.87,0h0c-7.17-11.75-1.8-21,2.1-25.58a3,3,0,0,1,1.69.39,1.5,1.5,0,0,0,.61.24C112.57,563.38,116.61,575.1,118.29,579Z" transform="translate(-41.02 -82.36)" opacity="0.1"/><ellipse cx="323.62" cy="594.38" rx="34.47" ry="50.75" transform="matrix(1, -0.02, 0.02, 1, -52.18, -76.14)" fill="#636780"/><ellipse cx="322.47" cy="595.15" rx="25.06" ry="41.13" transform="translate(-52.2 -76.16) rotate(-1.08)" opacity="0.1"/><ellipse cx="322.44" cy="593.88" rx="25.06" ry="41.13" transform="translate(-52.17 -76.16) rotate(-1.08)" fill="#f0f0f4"/><ellipse cx="326.47" cy="566.2" rx="2.96" ry="5.08" transform="translate(-51.65 -76.09) rotate(-1.08)" fill="#636780"/><ellipse cx="339.15" cy="610.38" rx="2.96" ry="5.08" transform="translate(-52.48 -75.85) rotate(-1.08)" fill="#636780"/><ellipse cx="306.82" cy="589.84" rx="2.96" ry="5.08" transform="translate(-52.1 -76.46) rotate(-1.08)" fill="#636780"/><ellipse cx="316.05" cy="619.27" rx="2.96" ry="5.08" transform="translate(-52.65 -76.28) rotate(-1.08)" fill="#636780"/><path d="M574.09,495.74s26,65.5,24.79,69.65c0,0,10.59,6.15,13.09,4.51s-.26-30.77-.26-30.77l-5.24-25.6-5.68-15.12Z" transform="translate(-41.02 -82.36)" fill="#492257"/><path d="M574.09,495.74s26,65.5,24.79,69.65c0,0,10.59,6.15,13.09,4.51s-.26-30.77-.26-30.77l-5.24-25.6-5.68-15.12Z" transform="translate(-41.02 -82.36)" opacity="0.15"/><ellipse cx="342.86" cy="582.81" rx="2.96" ry="5.08" transform="translate(-51.96 -75.78) rotate(-1.08)" fill="#636780"/><ellipse cx="327.02" cy="595.38" rx="8.67" ry="12.05" transform="translate(-52.2 -76.08) rotate(-1.08)" fill="#636780"/><path d="M603.35,583.39c.72,38.19-11.31,73.19-46.59,70-44.42-.11-48.47-30-49.19-68.23s20.18-67,46.63-67.51S602.62,545.21,603.35,583.39Z" transform="translate(-41.02 -82.36)" fill="#636780"/><path d="M603.62,583.45c-.55-29.56-13.86-53-32.11-61.88-23.13,4.85-40.47,31.89-39.81,66.73.59,31.29,3.42,57,28.87,65.38C593.12,654.23,604.32,620.33,603.62,583.45Z" transform="translate(-41.02 -82.36)" opacity="0.1"/><path d="M621.75,566.86s-6.24,5.51-9.8,1.77c0,0-9.86-68.34-20.65-68.45l-37.11.38s-4.4,2-6.15,10.27l-22.71,68.75L393.85,584l-10.44-20.86,108.79-1.73,0,0c.55-2.12,17.49-67.37,29.56-75.67,0,0,0,0,0,0a5.48,5.48,0,0,1,1.32-.67s45.24-6.89,60.23-3c0,0,15.6,3.19,19.5,7.88l0,0c.52.53,6.53,7,8.71,26.13Z" transform="translate(-41.02 -82.36)" opacity="0.1"/><path d="M621.78,568.13s-6.24,5.51-9.81,1.77c0,0-9.85-68.34-20.64-68.46l-37.11.39s-4.41,2-6.16,10.27l-22.7,68.75-131.48,4.38-10.44-20.85,108.79-1.73v-.06c.55-2.11,17.5-67.36,29.56-75.66l0,0a5.78,5.78,0,0,1,1.33-.68s45.24-6.88,60.22-3c0,0,15.61,3.2,19.5,7.88l0,0c.52.53,6.53,7,8.71,26.13Z" transform="translate(-41.02 -82.36)" fill="#492257"/><path d="M621.78,568.13s-6.24,5.51-9.81,1.77c0,0-9.85-68.34-20.64-68.46l-37.11.39s-4.41,2-6.16,10.27l-22.7,68.75-131.48,4.38-10.44-20.85,108.79-1.73v-.06c.55-2.11,17.5-67.36,29.56-75.66l0,0a5.78,5.78,0,0,1,1.33-.68s45.24-6.88,60.22-3c0,0,15.61,3.2,19.5,7.88l0,0c.52.53,6.53,7,8.71,26.13Z" transform="translate(-41.02 -82.36)" opacity="0.1"/><path d="M539.81,494.8c-3.06,6.09-28.94,80.82-28.94,80.82l-18.64-13v-.06c.55-2.11,17.51-67.43,29.58-75.68C529.79,488.12,541.88,490.67,539.81,494.8Z" transform="translate(-41.02 -82.36)" fill="#492257"/><path d="M503.64,461.54l-14,49.12-77.75-.75.78,7.28s61.06,7.73,86.84-4.81l13.11-44.88,122.64-1.68-23.46-5.06Z" transform="translate(-41.02 -82.36)" fill="#492257"/><path d="M503.64,461.54l-14,49.12-77.75-.75.78,7.28s61.06,7.73,86.84-4.81l13.11-44.88,122.64-1.68-23.46-5.06Z" transform="translate(-41.02 -82.36)" fill="#fff" opacity="0.1"/><path d="M140.79,545.38s-41.26,21.72-10,40.8l8.29,1.75s-30.65-21.21,19.49-42.88Z" transform="translate(-41.02 -82.36)" opacity="0.1"/><path d="M142.06,545.36s-41.26,21.72-10,40.8l8.29,1.75S109.68,566.7,159.82,545Z" transform="translate(-41.02 -82.36)" fill="#dce0ed"/><ellipse cx="573.95" cy="589.34" rx="23.16" ry="39.65" transform="translate(-52.04 -71.42) rotate(-1.08)" fill="#636780"/><ellipse cx="573.19" cy="590.21" rx="16.83" ry="32.13" transform="matrix(1, -0.02, 0.02, 1, -52.06, -71.43)" opacity="0.1"/><ellipse cx="573.16" cy="588.94" rx="16.83" ry="32.13" transform="translate(-52.03 -71.43) rotate(-1.08)" fill="#f0f0f4"/><ellipse cx="575.81" cy="567.33" rx="1.99" ry="3.97" transform="translate(-51.63 -71.38) rotate(-1.08)" fill="#636780"/><ellipse cx="584.42" cy="601.87" rx="1.99" ry="3.97" transform="translate(-52.28 -71.22) rotate(-1.08)" fill="#636780"/><ellipse cx="562.66" cy="585.75" rx="1.99" ry="3.97" transform="translate(-51.98 -71.63) rotate(-1.08)" fill="#636780"/><ellipse cx="568.92" cy="608.77" rx="1.99" ry="3.97" transform="translate(-52.41 -71.51) rotate(-1.08)" fill="#636780"/><ellipse cx="586.85" cy="580.34" rx="1.99" ry="3.97" transform="translate(-51.87 -71.17) rotate(-1.08)" fill="#636780"/><ellipse cx="576.24" cy="590.12" rx="5.82" ry="9.42" transform="translate(-52.06 -71.37) rotate(-1.08)" fill="#636780"/><path d="M234.44,419.35s70.45,1.21,162.27,24.54Z" transform="translate(-41.02 -82.36)" opacity="0.1"/><path d="M568,289.75s-3.81.68-1.73,5.69a34.5,34.5,0,0,1,2.44,7.6s3.86,1.92,3.59-4.65S568,289.75,568,289.75Z" transform="translate(-41.02 -82.36)" fill="#dce0ed"/></g><path d="M575.76,747.09a5.81,5.81,0,0,1-4.33-2.62c-4.33-6.55-15.82-25.24-7.75-27.82a31.93,31.93,0,0,1,3.91-1,39.78,39.78,0,0,1,38.56,15.07,36.31,36.31,0,0,1,3.16,4.82,5,5,0,0,1-3,7.15C599.19,744.79,586,748,575.76,747.09Z" transform="translate(-41.02 -82.36)" fill="#492257"/><polygon points="526.77 663.7 570.79 655.74 636.71 655.74 627.29 670.26 535.74 670.26 526.77 663.7" fill="#33323d"/><path d="M601.24,279c4.94-2.51,11.38,0,17.26.59,7.62.74,15.17-2,22.84-1.79a28.65,28.65,0,0,1,18.74,7.74,22.9,22.9,0,0,1,6.9,15.71,18.28,18.28,0,0,1-2.41,10.1c-3.66,6.09-12,10.22-20.65,10.91a38.65,38.65,0,0,1-24.12-6.33c-5.68-3.86-9.64-9-14.45-13.46-3.42-3.21-12.42-7.26-12.49-11.43C592.81,288.15,598.12,280.56,601.24,279Z" transform="translate(-41.02 -82.36)" fill="#4c4981"/><path d="M601.24,279c4.94-2.51,11.38,0,17.26.59,7.62.74,15.17-2,22.84-1.79a28.65,28.65,0,0,1,18.74,7.74,22.9,22.9,0,0,1,6.9,15.71,18.28,18.28,0,0,1-2.41,10.1c-3.66,6.09-12,10.22-20.65,10.91a38.65,38.65,0,0,1-24.12-6.33c-5.68-3.86-9.64-9-14.45-13.46-3.42-3.21-12.42-7.26-12.49-11.43C592.81,288.15,598.12,280.56,601.24,279Z" transform="translate(-41.02 -82.36)" opacity="0.1"/><path d="M619.56,708.26l-.68,14a188.19,188.19,0,0,1,19.87-.38c.54-2.1,0-4.31-.44-6.45a48.71,48.71,0,0,1-.81-12.52c.08-1.15-12.3-2.33-13.55-2.39-1.52-.06-3.1-.27-3.83,1.32C619.31,703.58,619.65,706.36,619.56,708.26Z" transform="translate(-41.02 -82.36)" fill="#4c4981"/><path d="M603.25,712.77l-.67,14a188,188,0,0,1,19.86-.38c.54-2.1,0-4.31-.44-6.45a49.16,49.16,0,0,1-.8-12.52c.07-1.16-12.3-2.33-13.55-2.39-1.53-.06-3.1-.27-3.83,1.32C603,708.09,603.34,710.87,603.25,712.77Z" transform="translate(-41.02 -82.36)" fill="#4c4981"/><path d="M634.11,707.78a7.42,7.42,0,0,0-2.54,1.58l-5,4.18c-1.68,1.41-3.89,2.9-5.9,2a13.63,13.63,0,0,1-2.34-1.84,2.3,2.3,0,0,0-2.74-.31,2.82,2.82,0,0,0-.77,1.73,133.48,133.48,0,0,0-2.17,26.92,15.93,15.93,0,0,0,4.87,1.08.84.84,0,0,0,.54-.1c.29-.24.13-.7.09-1.07-.14-1.29,1.66-2.05,2.83-1.49a5.59,5.59,0,0,1,2.3,3,3,3,0,0,0,.86,1.29,2.89,2.89,0,0,0,1.19.43,42.83,42.83,0,0,0,6.88.63q16,.55,32,0a10.62,10.62,0,0,0,3.28-.46,6.24,6.24,0,0,0,3.82-4.84,8.62,8.62,0,0,0-1.52-6.13,10.52,10.52,0,0,0-3.51-3.22,20.54,20.54,0,0,0-3.31-1.4l-5-1.8c-3.65-1.3-7.43-2.69-10.15-5.44A25.86,25.86,0,0,1,644,717C642.11,713.79,639.16,706.3,634.11,707.78Z" transform="translate(-41.02 -82.36)" fill="#4c4981"/><path d="M634.11,707.78a7.42,7.42,0,0,0-2.54,1.58l-5,4.18c-1.68,1.41-3.89,2.9-5.9,2a13.63,13.63,0,0,1-2.34-1.84,2.3,2.3,0,0,0-2.74-.31,2.82,2.82,0,0,0-.77,1.73,133.48,133.48,0,0,0-2.17,26.92,15.93,15.93,0,0,0,4.87,1.08.84.84,0,0,0,.54-.1c.29-.24.13-.7.09-1.07-.14-1.29,1.66-2.05,2.83-1.49a5.59,5.59,0,0,1,2.3,3,3,3,0,0,0,.86,1.29,2.89,2.89,0,0,0,1.19.43,42.83,42.83,0,0,0,6.88.63q16,.55,32,0a10.62,10.62,0,0,0,3.28-.46,6.24,6.24,0,0,0,3.82-4.84,8.62,8.62,0,0,0-1.52-6.13,10.52,10.52,0,0,0-3.51-3.22,20.54,20.54,0,0,0-3.31-1.4l-5-1.8c-3.65-1.3-7.43-2.69-10.15-5.44A25.86,25.86,0,0,1,644,717C642.11,713.79,639.16,706.3,634.11,707.78Z" transform="translate(-41.02 -82.36)" opacity="0.1"/><path d="M681.88,481.64q0,4.28-.18,8.57A431.62,431.62,0,0,1,677,542.48c-.6,3.89-1.25,7.77-2.2,11.58-1.37,5.45-3.39,10.76-4,16.36-.83,8,1.31,16.25-.5,24.09-.93,4-2.87,7.73-4,11.69a62.67,62.67,0,0,0-1.58,7.19q-1.51,8.4-3,16.77c-.11.57-.21,1.14-.31,1.71a68.86,68.86,0,0,1-6.56,18.9,59.74,59.74,0,0,0-4,11.58q-2.67,9.93-5.34,19.88c-2.41,8.95-4.83,18.3-3,27.39A63.56,63.56,0,0,1,631.67,708a61.16,61.16,0,0,1-13.13-4.82c-.94-15.43-.25-30.9.43-46.35.44-9.79.88-19.6,2.53-29.26,1.79-10.53,4.24-20.58,6.38-31.05,3.21-15.67,6.44-31.47,6.13-47.46-.38-20.71.16-41.8,9.19-60.43a13.81,13.81,0,0,1,4.18-5.66,14.38,14.38,0,0,1,6-2,113.4,113.4,0,0,1,21.77-1.56A15.22,15.22,0,0,1,681.88,481.64Z" transform="translate(-41.02 -82.36)" fill="#33323d"/><path d="M681.88,481.64c0,2.85-21.64.67-21.74,3.52-26.58-3.08-14.13,3.1-15.3,3.93-2.52,1.77,9.58-1.79,7.06,0-2.19,1.55-5.59,7.57-7.85,9-5.27,3.45,12.3,14.07,8.39,19-3.55,4.46-4.38,10.54-3.91,16.2s2.12,11.17,3,16.8a62.85,62.85,0,0,1-3.31,31.68c-2.28,6.05-5.48,11.69-8.39,17.46-3.18,6.35-9.06,12.66-8.36,19.74,1.61,15.94-1.17,32-1.92,48-.29,6.12-.28,12.36,1.42,18.25.64,2.25,1.53,4.43,2,6.72,1.19,5.31.25,10.81-1.32,16.08a61.16,61.16,0,0,1-13.13-4.82c-.94-15.43-.25-30.9.43-46.35.44-9.79.88-19.6,2.53-29.26,1.79-10.53,4.24-20.58,6.38-31.05,3.21-15.67,6.44-31.47,6.13-47.46-.38-20.71.16-41.8,9.19-60.43a13.81,13.81,0,0,1,4.18-5.66,14.38,14.38,0,0,1,6-2,113.4,113.4,0,0,1,21.77-1.56A15.22,15.22,0,0,1,681.88,481.64Z" transform="translate(-41.02 -82.36)" opacity="0.1"/><path d="M683.47,467.41c0,5.08,2.84,16.32-1.05,19.58-2.59,2.19-5.79,3.52-8.57,5.47-2.52,1.77-4.67,4-7.18,5.83-2.19,1.55-4.63,2.71-6.88,4.18-5.28,3.45-7.59,9.72-11.51,14.64-3.54,4.46-4.37,10.54-3.9,16.2s2.12,11.17,3,16.8a63,63,0,0,1-3.31,31.68c-2.29,6.05-5.48,11.69-8.39,17.46-3.18,6.35-9.07,12.66-8.36,19.74,1.61,15.94-1.18,32-1.92,48-.29,6.12-.28,12.36,1.42,18.25.64,2.25,1.52,4.43,2,6.72,1.39,6.27-.17,12.82-2.22,18.91-7.06-1.24-14.2-2.47-21.34-1.94-6.27.47-12.5,2.28-18.74,1.53-.75-16.84.79-33.7,2.31-50.49.3-3.43.62-6.86.93-10.3,1.2-13.15,2.39-26.31,3.1-39.51.18-3.33-1-6.86-.06-10.07Q595.73,590,598.66,580A66.24,66.24,0,0,0,601,569.79c.88-7.15-.58-14.36-2-21.41q-3-14.48-6-29c-.66-3.21-1.33-6.43-2.24-9.6a61.8,61.8,0,0,1-1.69-6.38,82,82,0,0,1-.56-9.14c-.3-5.27-1.53-10.43-1.92-15.69a32.06,32.06,0,0,1,.24-7.58,19.16,19.16,0,0,1,2.83-7.64,233.82,233.82,0,0,1,45.56-13,64,64,0,0,1,11-1.28,73.6,73.6,0,0,1,12.54,1.39c5.78,1,11.67,2,17,4.6a25.13,25.13,0,0,1,6.9,4.8c2.68,2.69,1-3.52,1.86.18C684.76,461.32,683.45,466.13,683.47,467.41Z" transform="translate(-41.02 -82.36)" fill="#33323d"/><path d="M617.81,712.28a7.51,7.51,0,0,0-2.54,1.59l-5,4.18c-1.69,1.41-3.9,2.9-5.9,2a13.26,13.26,0,0,1-2.34-1.84,2.29,2.29,0,0,0-2.74-.31,2.82,2.82,0,0,0-.77,1.73,132,132,0,0,0-2.17,26.92,15.93,15.93,0,0,0,4.86,1.08.83.83,0,0,0,.54-.1c.3-.24.14-.7.1-1.07-.14-1.29,1.66-2.06,2.82-1.49a5.59,5.59,0,0,1,2.3,3,3.12,3.12,0,0,0,.86,1.29,2.89,2.89,0,0,0,1.19.43,42.85,42.85,0,0,0,6.89.63c10.66.37,21.35.38,32,0a10.73,10.73,0,0,0,3.29-.46,6.24,6.24,0,0,0,3.81-4.85,8.56,8.56,0,0,0-1.52-6.12,10.58,10.58,0,0,0-3.5-3.22,21,21,0,0,0-3.32-1.4l-5-1.8c-3.64-1.31-7.42-2.69-10.15-5.45a25.91,25.91,0,0,1-3.83-5.52C625.8,718.3,622.85,710.81,617.81,712.28Z" transform="translate(-41.02 -82.36)" fill="#4c4981"/><path d="M666.94,305.16a10,10,0,0,1-2.09,4.28c-2.16,3-4.55,6.17-8.05,7.36a16.22,16.22,0,0,1-6,.54,78.88,78.88,0,0,1-47.32-18.84c6.27-4.14,9.61-11.68,10.43-19.14a62.82,62.82,0,0,0-1-17.34c-.29-1.69-.59-3.37-.89-5-.56-3.06-2-5.43,1.49-6.28,2.71-.67,6.39-.2,9.16,0,6.09.34,12.31,1.66,17.26,5.39a11.65,11.65,0,0,1,3.33,3.63c2.13,4,.4,8.71-.1,13.3a18.26,18.26,0,0,0-.07,3.13c.39,5.09,3.81,9.48,7.74,12.73s8.47,5.75,12.3,9.1C665.27,299.82,667.32,302.35,666.94,305.16Z" transform="translate(-41.02 -82.36)" fill="#fbbebe"/><path d="M643.15,273a29,29,0,0,1-6.63.76A29.57,29.57,0,0,1,612.9,262c-.29-1.69-.59-3.37-.89-5-.56-3.06-2-5.43,1.49-6.28,2.71-.67,6.39-.2,9.16,0,6.09.34,12.31,1.66,17.26,5.39a11.65,11.65,0,0,1,3.33,3.63C645.38,263.69,643.65,268.4,643.15,273Z" transform="translate(-41.02 -82.36)" opacity="0.1"/><circle cx="595.51" cy="160.38" r="29.63" fill="#fbbebe"/><path d="M685.28,462.58c-.18.4-1.59,7.21-1.81,7.6-9.86-2-16-2.15-26-2a40.86,40.86,0,0,0-7.57.63c-2.1.42-4.15,1.11-6.27,1.44-11.42,1.76-22.23-7.17-33.76-6.29-3.85.29-7.53,1.67-11.14,3-4,1.52-8,2.68-11.9,4a19.16,19.16,0,0,1,2.83-7.64,233.82,233.82,0,0,1,45.56-13,64,64,0,0,1,11-1.28,73.6,73.6,0,0,1,12.54,1.39c5.78,1,11.67,2,17,4.6a25.13,25.13,0,0,1,6.9,4.8C685.28,462.58,684.47,458.88,685.28,462.58Z" transform="translate(-41.02 -82.36)" opacity="0.1"/><path d="M626.64,303.24c-.62-3-2.67-5.39-4.69-7.65q-5.72-6.4-11.82-12.47a16.93,16.93,0,0,0-4.6-3.59,6,6,0,0,0-5.63.05c-1.54,1-2.32,2.76-3.55,4.1-2.66,2.91-7.29,3.6-9.53,6.85a18.13,18.13,0,0,1-1.71,2.59,7.6,7.6,0,0,1-3.35,1.65L567.64,299c-1.66.49-3.5,1.13-4.29,2.67a8.64,8.64,0,0,0-.63,2.57c-1.12,6.39-6.75,10.83-11.7,15-1.72,1.45-3.46,3.05-4.19,5.17s-.35,4.37.1,6.53c1.13,5.49,2.78,11,6,15.61,2.12,3.12,4.9,5.8,6.65,9.14a31.31,31.31,0,0,1,2.76,10.1c1,6.57,1.52,13.19,2.08,19.81.49,5.82-.21,12.36,1.48,18,2.06,6.85,9.41,10.75,12.67,17.12a32,32,0,0,1,2.51,8.42L584.21,445a35,35,0,0,1,.93,7.33c-.08,5.83-3.07,11.51-2.13,17.26,5.29-2,10.39-3.37,15.67-5.36,3.62-1.37,7.3-2.76,11.16-3.05,11.52-.86,22.33,8.06,33.75,6.3,2.12-.32,4.17-1,6.27-1.43a41.68,41.68,0,0,1,7.57-.65,143.39,143.39,0,0,1,30,2.71c2-3.35,2.33-7.46,1.84-11.33s-1.74-7.59-2.72-11.37A84.15,84.15,0,0,1,684.33,415a66.85,66.85,0,0,0,.69-7.73c0-9.66-5.86-18.71-5.32-28.36.53-9.49,11.37-14.8,15.85-23.2a10.08,10.08,0,0,0,1.49-5.58c-.22-2-1.48-3.8-2.29-5.68-2-4.61-1.26-9.92-2.4-14.8-.41-1.71-1-3.36-1.42-5.08-1-4.74-.09-9.78-1.3-14.48-.94-3.64-3.12-6.83-5.44-9.78-3.92-5-8.5-9.67-14.22-12.43s-12.76-3.35-18.35-.33a7,7,0,0,0-2.26,1.79,8.91,8.91,0,0,0-1.24,2.92,90.62,90.62,0,0,1-8.21,19.13,8.88,8.88,0,0,1-7.26-2.17C630.63,307.5,627.17,305.8,626.64,303.24Z" transform="translate(-41.02 -82.36)" fill="#4c4981"/><path d="M622.26,251.63a9.6,9.6,0,0,0,.72-4.2,6.62,6.62,0,0,1,1.12-4.06c1.16-1.41,3.24-1.79,4.35-3.22,1.27-1.63.84-3.94,1.22-6a7.53,7.53,0,0,1,7-6c2.48-.07,4.81,1.11,7.25,1.59,3.17.63,6.44.06,9.62-.5,2.37-.42,5-.95,6.48-2.81a9.79,9.79,0,0,0,1.72-4.24c.53-2.39.93-5.05-.3-7.16s-3.83-3.14-5.2-5.19c-1.19-1.79-1.29-4.15-2.5-5.93-1.88-2.78-5.8-3.27-9.13-2.85s-6.71,1.48-10,.77c-3.62-.78-7.2-3.63-10.61-2.2-2.51,1.06-3.56,3.95-5.1,6.2a13.48,13.48,0,0,1-5.27,4.52c-3.26,1.57-7.08,1.79-10.21,3.61A11.44,11.44,0,0,0,598,221.8a3.29,3.29,0,0,0,.06,1.79,8.3,8.3,0,0,0,.79,1.26c1.3,2.06.46,4.81-.8,6.89s-2.94,4-3.34,6.45.55,4.84,1.78,6.95a50,50,0,0,1,3.69,6.31c1.07,2.61,1.27,5.5,2.34,8.1a13.12,13.12,0,0,0,9.79,7.78,3,3,0,0,0,2.39-.36,3.06,3.06,0,0,0,.89-1.7,19.3,19.3,0,0,0,.57-3.37c.17-2.24,0-4.83,1-6.9C618.4,252.41,620.92,254.16,622.26,251.63Z" transform="translate(-41.02 -82.36)" fill="#33323d"/><path d="M661.39,215.11c-1.24-2.12-3.83-3.14-5.2-5.19-1.19-1.79-1.29-4.15-2.5-5.93a6.48,6.48,0,0,0-3.74-2.53l0,0c1.21,1.78,1.3,4.14,2.5,5.93,1.36,2.05,3.95,3.06,5.19,5.19s.83,4.77.3,7.16a9.83,9.83,0,0,1-1.71,4.24c-1.54,1.85-4.12,2.39-6.49,2.81-3.18.56-6.45,1.12-9.62.5-2.43-.49-4.76-1.66-7.25-1.59a7.51,7.51,0,0,0-6.94,5.95c-.38,2,0,4.34-1.22,6-1.12,1.43-3.2,1.81-4.35,3.21a6.68,6.68,0,0,0-1.13,4.07,9.53,9.53,0,0,1-.71,4.19c-1.35,2.54-3.87.78-5.14,3.37-1,2.07-.83,4.66-1,6.9a19.41,19.41,0,0,1-.57,3.38,3.11,3.11,0,0,1-.88,1.7,3,3,0,0,1-2.39.36,12.65,12.65,0,0,1-3-.92,13,13,0,0,0,6.75,3.43,3,3,0,0,0,2.39-.36,3.06,3.06,0,0,0,.89-1.7,19.3,19.3,0,0,0,.57-3.37c.17-2.24,0-4.83,1-6.9,1.28-2.59,3.8-.84,5.14-3.37a9.6,9.6,0,0,0,.72-4.2,6.62,6.62,0,0,1,1.12-4.06c1.16-1.41,3.24-1.79,4.35-3.22,1.27-1.63.84-3.94,1.22-6a7.51,7.51,0,0,1,7-5.94c2.48-.08,4.81,1.1,7.25,1.58,3.17.63,6.44.06,9.62-.5,2.37-.42,5-.95,6.48-2.81a9.79,9.79,0,0,0,1.72-4.24C662.22,219.88,662.62,217.22,661.39,215.11Z" transform="translate(-41.02 -82.36)" opacity="0.1"/><path d="M597.42,769.06c0,10.09-7.06,18.27-15.76,18.27s-15.75-8.18-15.75-18.27v-.14c.07-10,7.1-18.13,15.75-18.13,5.35,0,10.07,3.08,12.91,7.82A20.07,20.07,0,0,1,597.42,769.06Z" transform="translate(-41.02 -82.36)" fill="#33323d"/><path d="M723,776.42c0,19.43-10.05,35.19-22.44,35.19s-22.42-15.76-22.42-35.19c0-11,3.2-20.79,8.22-27.23,3.88-5,8.8-8,14.2-8a15,15,0,0,1,2.22.16c4.45.69,8.54,3.42,11.83,7.6a21.56,21.56,0,0,1,1.3,1.79C720.27,757.2,723,766.32,723,776.42Z" transform="translate(-41.02 -82.36)" fill="#33323d"/><polygon points="668.62 653.78 649.01 655.74 646.49 634.78 646.32 633.41 642.76 603.87 642.6 602.5 624.59 453.07 624.2 449.89 613.46 360.7 613.2 358.57 612.08 349.25 611.33 343.06 627.03 343.06 627.88 349.47 628.02 350.49 628.41 353.36 641.88 454.02 642.24 456.72 661.45 600.23 665.66 631.68 668.62 653.78" fill="#33323d"/><path d="M700.54,741.24a15,15,0,0,1,2.22.16l-.56.38a12.59,12.59,0,0,0-5,11.65l3.18,30.24a3.83,3.83,0,0,1,0,.47,4.56,4.56,0,0,1-9,.86c-1.31-6.93-3.79-21.09-4.91-33.88-.06-.68-.1-1.32-.1-1.93C690.22,744.23,695.14,741.24,700.54,741.24Z" transform="translate(-41.02 -82.36)" opacity="0.1"/><path d="M706.2,750.79l-.69-.2c-.21-.55-.4-1.09-.61-1.59A21.56,21.56,0,0,1,706.2,750.79Z" transform="translate(-41.02 -82.36)" opacity="0.1"/><path d="M699.43,733s-15.95-1-14.38,16.74c1.13,12.79,3.61,26.94,4.91,33.87a4.56,4.56,0,0,0,5.17,3.66h0a4.56,4.56,0,0,0,3.85-5l-3.18-30.24a12.58,12.58,0,0,1,5-11.66c3.77-2.65,8.8-2.81,13,8.82l2.88.79S720.36,730.9,699.43,733Z" transform="translate(-41.02 -82.36)" fill="#504f60"/><path d="M682.89,536.38a12.77,12.77,0,0,1-2.4.24h-5.62a12.91,12.91,0,0,1-12.79-11.48l-8.6-78.27a12.9,12.9,0,0,1,15.56-14Z" transform="translate(-41.02 -82.36)" opacity="0.1"/><path d="M683.25,539.08a12.1,12.1,0,0,1-2.76.31h-5.62a12.76,12.76,0,0,1-9.26-4l-.39-3.19-10.74-89.18a12.82,12.82,0,0,1,14.95-7.35l13.46,100.67Z" transform="translate(-41.02 -82.36)" opacity="0.1"/><path d="M653.48,448.25c2.07,18.83,6.44,58.64,8.6,78.29A12.86,12.86,0,0,0,674.87,538h5.61a12.63,12.63,0,0,0,12.15-8.63,11.07,11.07,0,0,0,.53-3.34c0-6-6.44-60.35-8.44-77.11a12.69,12.69,0,0,0-4.74-8.51,45.31,45.31,0,0,0-8.51-5.33C662.48,430.9,652.4,438.39,653.48,448.25Z" transform="translate(-41.02 -82.36)" fill="#492257"/><path d="M594.57,758.61l-4.22-.18a19.61,19.61,0,0,0-10.73,2.63l-13.2,7.6c-.17.09-.35.19-.51.26.07-10,7.1-18.13,15.75-18.13C587,750.79,591.73,753.87,594.57,758.61Z" transform="translate(-41.02 -82.36)" opacity="0.1"/><polygon points="665.66 633.06 646.49 634.78 646.32 633.41 642.76 603.87 661.45 601.62 665.66 633.06" opacity="0.1"/><path d="M687.32,715.77c3.08,45-28.43,44.17-28.43,44.17L590.36,757a19.8,19.8,0,0,0-10.74,2.63l-13.2,7.61a6.87,6.87,0,0,1-7.7-.57h0a6.88,6.88,0,0,1-1.23-9.51l5.58-7.44a11.66,11.66,0,0,1,10-4.64l71.71,4.09c29,.52,38.84-64.35,38.84-64.35h0l18.86-2.27,4.2,31.45-19.33,1.73Z" transform="translate(-41.02 -82.36)" fill="#504f60"/><polygon points="627.88 349.47 612.08 349.25 611.33 343.06 627.03 343.06 627.88 349.47" opacity="0.1"/><path d="M592.64,419.61l132.58,3.32a4.15,4.15,0,0,1,4,4.15h0a4.14,4.14,0,0,1-4.2,4.14l-132.57-1.85a4.14,4.14,0,0,1-4.08-4.14v-1.48A4.14,4.14,0,0,1,592.64,419.61Z" transform="translate(-41.02 -82.36)" fill="#33323d"/><path d="M601.79,407.82c4.62.94,9.73.69,13.6,3.4,3.45,2.41,5.12,6.76,5.31,11s-.92,8.35-2,12.42c-.34,1.28-1,2.83-2.34,2.87s-2-1.32-3.07-2c-2.3-1.4-5.55.67-7.87-.69a12.86,12.86,0,0,1-1.82-1.65,6,6,0,0,0-6.73-.8,10.8,10.8,0,0,0-10.92-12.79c-1.8.06-3.73.53-5.3-.34-2.53-1.38-2.32-5.18-1-7.72,1.92-3.57,3.38-7.07,7.74-7.07C592.39,404.47,597,406.85,601.79,407.82Z" transform="translate(-41.02 -82.36)" fill="#fbbebe"/><path d="M692.09,412.79l-.06,9.72c0,3.66,0,7.5,1.81,10.69.94,1.66,2.56,3.16,4.48,3.12.72,0,1.42-.24,2.14-.21,2.09.08,4,2.28,5.95,1.55.66-.25,1.19-.81,1.87-1,1-.3,2.15.26,3.16-.05s1.61-1.47,2-2.49c2-4.88,4-10.26,2.55-15.32a23.62,23.62,0,0,0-3.41-6.35l-6.48-9.59a3.28,3.28,0,0,0-1.06-1.13,2.87,2.87,0,0,0-1.45-.26c-3.22,0-6.23,1.52-9.11,3S692.11,410,692.09,412.79Z" transform="translate(-41.02 -82.36)" fill="#fbbebe"/><path d="M698.44,358.75a27.4,27.4,0,0,0,1.82,6.21c1.14,2.27,3.16,4.18,3.52,6.7.43,3-1.53,6.46.34,8.83.76,1,2,1.47,2.8,2.43,1.92,2.37.09,5.86.37,8.89.25,2.77,2.32,5.07,2.89,7.8s-.39,6.11,1.35,8.41c-1.77-2.79-5.65-3.34-8.91-2.8a20.19,20.19,0,0,0-13.27,8.59,26.23,26.23,0,0,0-1.24-11.76c-1.17-3.38-3.05-6.66-2.89-10.23.1-2.11.92-4.18.72-6.29-.31-3.3-3-5.81-5.32-8.14-2.82-2.81-5.57-6.15-5.85-10.13-.26-3.69,1.69-7.18,3.92-10.14a19.15,19.15,0,0,1,6.61-6c1.75-.86,7.05-4.46,8.21-4C696,348.06,697.89,356.47,698.44,358.75Z" transform="translate(-41.02 -82.36)" fill="#4c4981"/><path d="M552,328.65a11.4,11.4,0,0,0-6.35,5.27,44,44,0,0,0-3.33,7.76,102.56,102.56,0,0,1-7.8,16.48c-2.34,4-5,7.84-6.26,12.25-1.13,3.86-1.21,8.06-3.07,11.62-.91,1.74-2.21,3.28-2.9,5.12-.9,2.38-.67,5-.42,7.56l.65,6.76a17.37,17.37,0,0,0,1.48,6.44c1.25,2.39,3.53,4,5.73,5.61l10.17,7.21a26.49,26.49,0,0,0,6.37,3.67c6.62,2.33,13.76-.88,20.72-1.76,4.8-.6,9.66-.09,14.47.43-.4-3.93-.27-8.09,1.63-11.55s7.69-8,11.52-7.06c-3.8-3.21-10.09-1.42-14.3-4.09-1.69-1.07-3.13-2.49-4.79-3.62-5.23-3.54-12.73-4.14-16.1-9.49a2.12,2.12,0,0,1-.4-1c-.06-.79.61-1.42,1.19-2,4.22-4,6.33-9.77,6.85-15.54s-.4-11.55-1.45-17.25c-.85-4.57-1.8-9.2-3.88-13.36S556.36,330.2,552,328.65Z" transform="translate(-41.02 -82.36)" fill="#4c4981"/><ellipse cx="53.67" cy="604.83" rx="18.68" ry="3.16" fill="#492257" opacity="0.1"/><path d="M82.14,672.52s10.65-.33,13.86-2.61,16.39-5,17.19-1.35,16,18.23,4,18.33S89.22,685,86,683.07,82.14,672.52,82.14,672.52Z" transform="translate(-41.02 -82.36)" fill="#a8a8a8"/><path d="M117.39,685.62c-12,.09-27.95-1.88-31.16-3.83-2.44-1.49-3.41-6.82-3.73-9.28h-.36s.68,8.59,3.88,10.55,19.12,3.92,31.15,3.82c3.47,0,4.67-1.26,4.61-3.09C121.29,684.9,120,685.59,117.39,685.62Z" transform="translate(-41.02 -82.36)" opacity="0.2"/><ellipse cx="162" cy="568.05" rx="14.37" ry="2.43" fill="#492257" opacity="0.1"/><path d="M193.36,639.11s8.2-.25,10.67-2,12.61-3.86,13.22-1,12.32,14,3.07,14.11-21.51-1.44-24-2.94S193.36,639.11,193.36,639.11Z" transform="translate(-41.02 -82.36)" fill="#a8a8a8"/><path d="M220.48,649.19c-9.25.07-21.5-1.44-24-2.94-1.88-1.15-2.63-5.25-2.88-7.15h-.27s.52,6.62,3,8.12,14.72,3,24,2.94c2.67,0,3.59-1,3.54-2.38C223.49,648.64,222.47,649.17,220.48,649.19Z" transform="translate(-41.02 -82.36)" opacity="0.2"/><ellipse cx="96.79" cy="721.64" rx="34.31" ry="5.8" fill="#492257" opacity="0.1"/><path d="M114.76,777.05s19.57-.6,25.47-4.8,30.11-9.22,31.57-2.48,29.41,33.5,7.31,33.68-51.34-3.45-57.22-7S114.76,777.05,114.76,777.05Z" transform="translate(-41.02 -82.36)" fill="#a8a8a8"/><path d="M179.51,801.1c-22.1.18-51.34-3.44-57.23-7-4.48-2.73-6.27-12.53-6.86-17.05l-.66,0s1.24,15.78,7.13,19.37,35.13,7.2,57.22,7c6.38-.06,8.59-2.33,8.46-5.69C186.69,799.79,184.26,801.06,179.51,801.1Z" transform="translate(-41.02 -82.36)" opacity="0.2"/><g opacity="0.1"><path d="M828.53,340.82c2.2,6.84-3.8,30.65-3.8,30.65s-18.76-15.84-21-22.68a13,13,0,0,1,24.76-8Z" transform="translate(-41.02 -82.36)" fill="#492257"/><path d="M827.92,254.06c-3.66,6.18-25.45,17.5-25.45,17.5s-.6-24.55,3-30.73a13,13,0,0,1,22.4,13.23Z" transform="translate(-41.02 -82.36)" fill="#492257"/><path d="M823.36,562.93c-2.24,3.81-15.66,10.77-15.66,10.77s-.37-15.11,1.88-18.91a8,8,0,0,1,13.78,8.14Z" transform="translate(-41.02 -82.36)" fill="#492257"/><path d="M969.42,525.06c-2.25,3.8-15.66,10.77-15.66,10.77s-.37-15.11,1.88-18.92a8,8,0,1,1,13.78,8.15Z" transform="translate(-41.02 -82.36)" fill="#492257"/><path d="M812.45,464.37c-3.65,6.19-25.44,17.5-25.44,17.5s-.61-24.54,3-30.73a13,13,0,1,1,22.39,13.23Z" transform="translate(-41.02 -82.36)" fill="#492257"/></g></svg>