<svg xmlns="http://www.w3.org/2000/svg" viewBox="0 0 1024 768" version="1.1"><g id="react-group-128" stroke="none" stroke-width="1" fill="#FFFFFF00" fill-rule="evenodd"><g id="react-group-129"><rect x="0" y="0" width="1024" height="768"></rect><path d="M720.3906,432.8731 C745.9016,427.2731 771.5206,415.7311 792.3906,399.8731 C788.0146,416.5471 781.8996,437.4051 768.9786,449.4871 C764.0666,454.0811 757.5106,457.0821 751.5356,460.0011 C742.7476,464.2921 733.7346,468.1301 724.6626,471.7761 C708.6496,478.2121 691.8286,485.3421 674.7666,488.4661 C670.0306,489.3321 667.6186,488.4821 663.6756,485.6401 C657.0536,480.8661 651.0656,475.1311 645.1456,469.5351 C635.6556,460.5641 626.4246,451.3031 617.3906,441.8731 C651.6126,441.7901 686.9006,440.2251 720.3906,432.8731 Z M474.3906,489.8731 C479.1446,492.9741 483.8996,496.0751 488.6546,499.1751 C522.2326,521.0751 555.8116,542.9741 589.3906,564.8731 C573.3906,575.5401 557.3906,586.2061 541.3906,596.8731 C547.0576,602.8731 552.7236,608.8731 558.3906,614.8731 C553.0896,617.8891 547.7876,620.9051 542.4876,623.9211 C532.7676,629.4521 523.0476,634.9811 513.3286,640.5121 C509.8836,642.4721 506.4386,644.4321 502.9936,646.3921 C502.1836,646.8531 501.0366,647.8171 500.1856,647.7411 C498.9076,647.6251 496.5986,645.4171 495.5596,644.7421 C492.2746,642.6051 488.9946,640.4611 485.7186,638.3101 C475.6366,631.6941 465.5916,625.0231 455.5856,618.2921 C431.0556,601.7891 406.5796,585.0881 383.0966,567.1141 C372.2466,558.8111 362.1746,550.2031 353.6986,539.4001 C344.3726,527.5141 336.6706,514.3891 329.8996,500.9081 C324.1976,489.5591 319.1496,477.8761 314.6726,465.9921 C313.1336,461.9081 309.3246,455.3691 309.3936,450.8821 C309.4306,448.4701 311.5266,445.0001 312.3376,442.7681 C314.2616,437.4771 316.1866,432.1851 318.1106,426.8941 C319.0976,424.1781 321.0366,420.8071 321.3746,417.9151 C321.7856,414.4241 320.0916,409.6471 319.5466,406.1981 C319.2826,404.5211 319.3196,399.7951 318.0466,398.8471 C317.2006,398.2161 314.0086,398.5361 312.9906,398.4571 C304.7336,397.8231 296.4776,397.1871 288.2206,396.5521 C266.0786,394.8491 243.9386,393.1461 221.7976,391.4431 C215.7036,390.9741 208.8566,391.3001 202.8746,389.9871 C198.3556,388.9961 195.5306,385.3721 194.1796,381.1351 C190.1246,368.4101 186.2906,355.4841 183.8216,342.3461 C181.4336,329.6481 183.7396,319.7681 188.9466,308.0191 C193.5046,297.7351 198.8876,287.5361 205.0086,278.0831 C206.7746,275.3561 206.7646,275.9401 209.9336,276.5051 C222.9356,278.8221 235.9376,281.1401 248.9396,283.4581 C292.9466,291.3031 336.9536,299.1471 380.9606,306.9921 C396.4766,309.7581 411.9936,312.5241 427.5086,315.2891 C429.7746,315.6941 434.2196,315.5961 436.2166,316.8421 C437.2416,317.4821 438.0066,319.3781 438.6696,320.4061 C441.5426,324.8591 444.4156,329.3121 447.2886,333.7661 C463.4156,358.7621 480.0226,383.4451 496.4826,408.2231 C514.7856,435.7721 533.0876,463.3231 551.3906,490.8731 C525.7236,490.5401 500.0576,490.2061 474.3906,489.8731 Z" id="react-path-130" fill="#714dd2"></path><path d="M443.0249,47.9939 C451.2709,51.6689 455.6229,61.8369 459.9519,69.1899 C465.1479,78.0139 469.8549,87.2549 472.5089,97.1909 C475.2289,107.3719 475.6059,118.5349 474.3999,128.9809 C473.8699,133.5769 472.6259,137.7599 471.3119,142.1569 C469.9069,146.8569 472.0949,149.5449 475.4279,152.8589 C482.3519,159.7429 491.0699,165.0249 496.2089,173.5059 C500.5619,180.6919 505.6239,182.0219 513.8309,182.3299 C534.2139,183.0949 554.1889,182.4639 574.3829,186.3629 C579.5099,187.3529 584.6049,188.5649 589.6489,189.9179 C591.3059,190.3619 593.0389,191.1379 594.7469,191.2939 C597.2089,191.5179 597.6289,190.5389 599.4679,189.5919 C607.5599,185.4269 617.8299,189.4279 625.9179,191.7129 C646.3349,197.4819 665.5989,205.3349 684.1049,215.7399 C704.0879,226.9759 725.3909,235.6979 745.1899,247.2679 C764.3169,258.4449 781.4999,272.5119 799.3399,285.5599 C817.4819,298.8309 834.6899,313.1909 851.4669,328.1429 C867.6829,342.5939 884.4479,356.7779 898.9529,372.9929 C912.1769,387.7759 922.6239,405.2769 929.6319,423.8739 C931.9709,430.0809 930.5309,433.9909 923.2189,431.9429 C922.5719,438.2219 917.8909,440.8459 911.9569,439.5039 C913.7789,444.7719 917.9409,451.9079 915.5599,457.5769 C912.3929,465.1139 903.3219,459.6279 898.8739,456.6909 C899.3569,462.7499 901.9339,472.5859 896.9299,477.4759 C889.1749,485.0529 876.0869,475.3969 870.5939,469.7349 C856.5979,455.3059 847.6469,437.4519 835.2209,421.8859 C819.8199,402.5939 802.4709,384.4049 785.0589,366.9399 C783.6849,365.5609 768.1869,348.9329 765.9659,351.1929 C772.7279,362.3899 778.1319,374.7149 787.5859,384.0169 C792.0739,377.7139 795.3249,380.8199 796.1679,387.1489 C797.1799,394.7569 798.3079,402.7689 796.9049,410.3939 C794.1469,425.4019 784.6729,439.6759 774.7179,450.9149 C764.3039,462.6699 751.3739,471.6209 737.5029,478.8259 C729.6499,482.9049 721.7739,486.7269 713.3269,489.4049 C709.5439,490.6049 705.7549,491.9959 701.8689,492.8289 C698.1329,493.6299 694.0929,493.5739 690.6349,495.3869 C721.6099,510.1749 755.8799,516.4049 786.9279,530.8119 C794.4219,534.2889 809.4709,543.3269 801.8669,553.4859 C795.9849,561.3459 782.6169,561.6239 773.8429,563.1919 C780.2979,569.2849 779.3359,574.9419 770.8509,578.2589 C767.4419,579.5909 763.8889,580.2089 760.2539,580.3039 C757.7859,580.3679 753.5209,579.4899 751.5269,581.4299 C759.2199,584.9549 769.7079,584.7409 776.0309,590.9339 C782.4819,597.2519 774.7769,602.3349 769.0119,604.7719 C761.4289,607.9759 751.0019,611.3559 743.2879,607.4919 C737.1909,604.4379 731.5619,605.0999 724.8199,604.2969 C717.8679,603.4689 710.9959,601.9809 704.2899,599.9799 C678.7549,592.3609 655.2419,578.2609 632.6919,564.3909 C610.1629,550.5339 589.1519,534.7909 569.7219,516.8259 C564.9289,512.3939 560.9369,507.1199 556.0379,502.8289 C550.8819,498.3129 545.4839,497.9079 538.8879,497.9829 C523.8929,498.1529 508.9269,495.4849 493.9399,497.2439 C515.4809,513.4789 538.2439,527.7789 560.9039,542.3609 C569.5259,547.9099 578.5899,555.3089 588.7269,557.7279 C593.1739,558.7899 602.7159,559.4939 604.1929,564.9769 C605.2729,568.9779 601.8509,569.6499 599.8009,571.8209 C596.8319,574.9649 601.0119,576.0159 604.0759,577.3189 C607.9369,578.9599 611.4619,579.4889 615.6679,579.0549 C622.1059,578.3899 627.1569,578.6109 633.1559,581.3689 C642.5829,585.7009 652.7039,588.0329 662.1549,592.2699 C666.0689,594.0249 667.0979,599.2549 668.9869,602.8059 C671.9569,608.3869 675.3889,613.7009 678.7569,619.0459 C685.1059,629.1219 690.5849,639.4859 699.5939,647.5239 C707.4889,654.5679 716.2799,660.8069 724.8549,666.9999 C738.2469,676.6749 755.2829,688.6369 750.9789,707.6139 C746.7229,726.3739 727.2789,724.3569 712.4629,721.0069 C706.2269,719.5969 697.7049,715.6539 691.4179,717.5069 C685.9929,719.1069 682.2569,719.3449 676.6289,718.0679 C670.1029,716.5859 663.5359,715.6219 656.9249,714.5999 C643.0659,712.4569 629.0919,708.9219 615.8489,704.2879 C609.4969,702.0649 604.1919,699.0979 599.1889,694.5559 C597.7029,693.2079 596.6219,691.2949 594.6459,691.3109 C592.9659,691.3249 590.3669,694.3069 589.0669,695.3419 C584.9629,698.6099 580.4239,701.3389 575.7399,697.4519 C572.7499,694.9699 570.0889,689.5699 574.4129,687.0139 C577.7279,685.0539 583.7819,687.2999 586.1589,683.5939 C588.6479,679.7139 583.0839,674.0849 581.3419,670.9309 C576.0839,674.4999 568.3459,681.7189 562.2479,675.7439 C557.3629,670.9589 562.7979,668.0549 567.3029,666.5239 C572.8719,664.6299 579.3159,664.8739 576.4779,657.4269 C574.8649,653.1979 572.2849,649.4079 571.8699,644.7919 C571.5549,641.2829 572.5669,637.9059 572.5919,634.4249 C572.6359,628.2029 565.9459,622.8439 560.1179,621.3699 C556.5589,620.4689 555.5019,623.5099 553.3159,625.8409 C550.1039,629.2669 545.9999,631.8309 541.9089,634.0659 C535.1969,637.7319 528.1519,640.6419 521.1179,643.5999 C516.4569,645.5599 508.2179,648.1279 511.5459,654.0679 C516.4159,662.7639 505.0009,658.6019 500.8859,656.6289 C491.3119,652.0389 481.6439,647.6569 472.1899,642.8159 C452.8009,632.8849 434.9609,620.6219 417.8349,607.1999 C401.0229,594.0229 384.6079,580.0259 369.3329,565.0829 C361.9339,557.8429 354.8609,550.2289 348.5609,542.0059 C341.7939,533.1739 336.0959,523.5969 329.2009,514.8529 C322.0469,505.7779 314.9759,496.9739 310.3669,486.2689 C306.0969,476.3499 301.2499,465.2779 301.1729,454.3809 C301.0879,442.3419 301.1359,431.5289 305.1169,419.9809 C306.7779,415.1629 308.7729,410.1449 311.6679,405.9319 C312.4999,404.7209 316.8679,400.5799 315.9729,398.9289 C316.0229,399.0219 306.0489,400.5459 305.0059,400.6449 C298.3849,401.2779 291.7239,400.1429 285.1279,399.5269 C265.6239,397.7069 245.9359,398.3889 226.5039,395.7109 C219.1779,394.7009 211.2289,395.7619 204.0779,393.9009 C200.6999,393.0229 199.8679,391.0879 197.3859,389.5049 C196.2529,388.7819 195.0409,389.0209 193.9869,388.0169 C192.7529,386.8409 192.4859,385.1439 191.9399,383.6099 C189.0229,375.4199 184.1079,368.1069 181.2199,359.9009 C177.9729,350.6709 178.1199,341.1059 178.3559,331.4579 C173.5329,331.8419 168.4669,331.8739 163.9419,329.9219 C160.2899,341.3989 144.5609,341.1919 134.8919,340.3209 C122.8169,339.2339 108.6589,338.0969 102.5389,325.9779 C95.3469,311.7349 95.8219,294.4439 94.9519,278.8999 C93.9299,260.6449 93.6389,242.1169 94.5359,223.8509 C95.2989,208.3149 98.8389,192.1879 108.8839,179.8579 C117.7469,168.9789 133.0799,162.6119 145.1409,172.7639 C154.2059,180.3959 158.1639,194.1409 158.7569,205.5879 C159.0589,211.4129 158.7869,216.6449 165.9579,215.0299 C168.7149,214.4089 171.2209,213.4049 173.2539,216.2329 C175.0469,218.7239 174.2239,222.3249 171.9539,224.1879 C169.8969,225.8779 165.8949,225.5919 164.4859,228.1039 C163.0899,230.5949 165.2979,234.5849 167.9439,235.0919 C170.9569,235.6689 173.2769,231.7979 176.3109,233.5939 C179.0909,235.2409 177.6389,238.3179 175.7759,240.1199 C173.5719,242.2539 171.4489,242.6989 173.0249,246.0759 C174.2329,248.6669 176.6509,250.3919 177.7359,253.1389 C180.4139,259.9159 181.2979,269.6539 178.3199,276.4699 C183.4879,277.0449 195.9829,283.1579 200.0479,278.2129 C201.5229,276.4189 201.6989,273.7839 203.2929,271.9539 C205.1679,269.7999 207.7889,268.8839 210.5639,268.5369 C216.4969,267.7949 222.5669,269.5999 228.3299,270.7629 C237.8839,272.6929 247.4959,274.3829 257.0919,276.0879 C276.4009,279.5189 295.8889,281.9069 315.1499,285.5929 C334.3699,289.2719 353.3919,293.9239 372.3999,298.5569 C382.3679,300.9859 392.2899,303.7159 402.3319,305.8199 C411.7169,307.7849 421.4969,309.2339 430.2319,313.3909 C428.5049,302.7089 423.6859,292.8929 420.6819,282.5669 C417.5919,271.9459 416.7239,261.3439 418.4679,250.4069 C420.0669,240.3859 422.4349,230.6469 427.5479,221.7909 C429.6149,218.2099 431.8899,214.6429 434.8679,211.7549 C436.9849,209.7009 439.9659,207.9929 441.6399,205.5439 C443.2909,203.1269 442.9399,202.5659 439.9669,201.4529 C438.3139,200.8329 436.8129,200.6459 435.2459,199.7779 C433.8049,198.9799 432.5649,197.5309 430.8709,197.2549 C426.9629,196.6169 421.2499,200.4049 417.6699,201.7529 C412.7829,203.5919 407.7339,205.2479 402.5179,205.8079 C385.3989,207.6459 365.0969,197.7159 353.3609,185.6859 C349.4439,181.6709 340.4549,172.4389 344.1079,166.3159 C346.0359,163.0839 349.4829,163.8519 352.3769,162.3839 C356.9089,160.0849 354.0369,156.2709 351.8659,153.2439 C345.9519,144.9979 341.9859,135.5609 337.7519,126.3859 C333.4419,117.0479 327.5339,108.6999 322.6899,99.6609 C319.2129,93.1749 315.1829,85.9199 313.5849,78.7019 C311.6329,69.8869 317.5989,68.6409 324.8929,67.3779 C347.9629,63.3819 370.6779,58.0129 393.5409,53.0139 C402.6549,51.0219 411.8129,48.9969 420.9859,47.2979 C428.1349,45.9739 436.1599,44.9359 443.0249,47.9939 Z M645.5169,597.9099 C633.6199,598.5219 621.6499,601.1639 621.2689,615.0459 C622.7119,641.3879 639.8429,661.0779 657.9409,678.5499 C662.5069,682.9579 666.9759,687.6309 671.9349,691.6039 C674.8529,693.9409 678.0339,695.0099 681.1909,696.8619 C681.9649,697.3159 683.3019,698.8369 684.0209,699.0679 C685.7269,699.6199 685.8749,698.9999 687.5389,698.8239 C691.1669,698.4419 691.8369,700.9699 694.5949,703.0379 C699.8279,706.9609 709.2199,706.3869 715.3649,707.6139 C721.0399,708.7469 743.6299,716.9299 742.6139,705.1439 C741.6209,693.6279 729.3389,688.0329 720.6839,682.8899 C708.6209,675.7219 696.1859,667.9629 686.0289,658.1939 C676.3729,648.9049 670.0689,636.1949 663.5839,624.6269 C659.5419,617.4179 658.4229,611.3049 657.2559,603.2489 C656.7619,599.8409 656.7119,598.7259 653.3779,598.1509 C650.7999,597.7069 648.1179,597.7759 645.5169,597.9099 Z M604.1249,595.9959 C597.2519,598.2229 592.0609,603.7349 588.6399,609.9689 C586.8889,613.1599 585.8849,616.3779 585.3059,619.9459 C584.5689,624.4869 582.8729,629.3369 584.1419,633.9019 C586.4439,642.1879 592.4849,651.2339 597.2299,658.3429 C602.5649,666.3379 609.4929,675.3119 617.9119,680.2129 C626.0149,684.9309 635.8009,686.1879 643.3159,692.0109 C642.6429,688.8089 639.6399,686.4449 637.2829,684.4479 C633.8469,681.5369 630.8419,678.6469 627.9229,675.1809 C621.4669,667.5169 616.1009,659.2169 612.6619,649.7619 C609.3299,640.5999 607.4219,630.2879 607.8469,620.5209 C608.0489,615.8729 608.8479,610.9349 610.8549,606.6949 C612.1949,603.8609 614.5719,601.4509 615.5989,598.4709 C617.9489,591.6389 607.5529,594.8849 604.1249,595.9959 Z M453.4129,369.5469 C443.8179,370.6369 434.3049,372.4799 424.6399,373.3729 C405.1009,375.1769 384.8199,376.2439 367.1139,385.5769 C341.3509,399.1589 311.6809,429.2989 320.6159,461.0469 C331.1709,498.5499 353.7359,532.4619 381.9879,559.0009 C400.0239,575.9429 419.7769,591.2099 439.5909,605.9999 C458.7559,620.3069 480.9279,629.6909 500.6859,643.0659 C502.0249,623.3569 514.4089,605.2829 529.0529,592.7439 C536.9219,586.0069 545.1809,579.5519 554.0049,574.1109 C558.3399,571.4369 562.8299,569.1779 567.4009,566.9449 C570.8709,565.2509 574.7049,562.7289 578.6709,562.5399 C578.6069,559.6339 571.3179,558.5609 569.3069,557.8769 C562.3669,555.5179 555.7069,551.9029 549.2789,548.4009 C535.2839,540.7769 522.3529,531.4729 509.4029,522.2289 C503.0729,517.7109 496.6429,513.3279 490.3809,508.7139 C484.7419,504.5599 479.7429,499.1559 473.6839,495.6189 C467.4509,491.9809 460.0829,491.2209 453.1289,489.8799 C444.7749,488.2679 436.5549,486.3539 428.1609,484.9399 C414.1439,482.5789 400.9129,474.3239 387.9909,468.6989 C383.6469,466.8069 377.0179,465.1659 373.7019,461.5839 C370.6969,458.3389 371.4819,453.3279 375.3339,451.1039 C381.9589,447.2799 392.9999,452.2669 399.2639,454.7349 C410.8519,459.2999 422.3599,463.3859 434.6569,465.7249 C451.5009,468.9289 467.5079,474.9259 484.3749,478.0649 C502.5639,481.4489 520.7959,485.1529 539.2879,486.4009 C534.7569,477.4219 527.2449,469.9619 521.3939,461.8399 C514.6809,452.5229 507.9779,443.1999 501.3229,433.8409 C489.5939,417.3419 476.5139,400.7629 467.5989,382.5259 C464.5419,376.2739 461.5339,368.6239 453.4129,369.5469 Z M540.5159,609.9529 C537.8459,610.3799 535.8299,613.0499 534.0149,614.8149 C528.3959,620.2769 522.8959,625.6849 518.3209,632.0889 C525.3999,629.0989 531.1729,623.8879 537.9969,620.4629 C540.4559,619.2279 549.1399,616.4759 547.3899,613.0359 C546.4059,611.1039 542.4809,609.6389 540.5159,609.9529 Z M573.0019,587.9539 C566.0709,592.6839 558.8559,596.9129 551.5469,601.0249 C556.6729,602.9729 561.7919,605.6609 565.9989,609.1919 C567.9229,610.8069 571.8779,615.5339 574.6599,614.3459 C577.2459,613.2419 578.6509,606.8439 579.9029,604.5349 C583.1079,598.6229 587.5919,593.0389 592.4129,588.3769 C585.1699,583.5289 580.3159,582.9629 573.0019,587.9539 Z M514.4999,330.4679 C508.9529,332.0119 503.4489,333.6989 497.9059,335.2549 C486.8389,338.3619 475.5289,340.9589 463.9719,340.9589 C462.3989,343.8529 466.9039,348.5729 468.2879,350.7799 C471.9209,356.5749 475.0229,362.7899 478.3169,368.7889 C485.2999,381.5049 492.9189,393.7279 501.1379,405.6779 C509.4419,417.7519 516.9429,430.3979 525.4469,442.3259 C533.6779,453.8719 542.7319,465.0879 551.6479,476.1119 C586.3859,519.0629 634.8019,548.6829 682.3869,575.2919 C695.7249,582.7499 709.6209,589.3209 724.3919,593.3939 C730.4909,595.0759 736.7119,596.4999 742.9159,597.7529 C747.0849,598.5939 754.0219,600.4789 757.8609,597.7819 C745.8079,593.0059 730.0139,591.1639 720.2779,581.9229 C714.2509,576.2019 720.8609,571.9339 727.0059,570.8709 C738.8969,568.8139 751.2209,573.9939 762.8929,570.6329 C759.7729,564.9089 750.8059,565.1819 745.3509,563.7129 C738.4539,561.8539 738.1979,558.3689 744.7649,555.9989 C752.8469,553.0819 762.1639,554.6639 770.5869,554.1269 C774.6979,553.8649 791.9279,553.1779 786.7239,545.2809 C782.6279,539.0679 772.6569,537.3259 766.1309,535.0339 C756.9749,531.8189 748.0809,526.8009 738.7559,524.3099 C729.6349,521.8729 720.3419,520.3759 711.2209,517.8029 C701.7019,515.1179 692.3289,512.1339 683.2829,508.1049 C665.8429,500.3369 649.6739,489.7909 634.9459,477.6849 C619.7699,465.2089 606.4659,450.9119 594.2249,435.5799 C587.7839,427.5139 581.6549,419.2139 575.3899,411.0139 C569.3379,403.0959 562.4949,395.5489 557.6499,386.8079 C552.2929,377.1399 545.3499,368.3149 539.8019,358.6809 C536.7959,353.4599 533.5609,348.3389 530.7579,343.0059 C528.7659,339.2139 527.4089,333.6539 524.7149,330.3589 C522.1819,327.2619 517.7539,329.5629 514.4999,330.4679 Z M258.2773,452.9838 C260.1363,454.6828 259.8273,455.3828 259.4693,457.5408 C258.7363,461.9628 257.9273,466.3028 257.5873,470.7898 C256.4213,486.1358 258.5853,502.0508 260.9763,517.2078 C263.3633,532.3308 269.1013,546.3028 277.9443,558.8108 C286.5123,570.9298 296.8543,580.5848 310.4793,586.5318 C312.8183,587.5528 322.0813,591.2988 321.4823,594.7548 C321.0323,597.3538 316.2233,595.8838 314.4943,595.5128 C290.0033,590.2648 269.2473,568.1178 256.8703,547.5018 C251.7463,538.9678 248.4503,530.2908 245.6203,520.8578 C245.2063,519.4798 239.2753,499.9628 241.2783,499.7178 C239.5493,486.2028 239.0323,469.7708 245.4193,457.2618 C247.8053,452.5898 253.3963,448.5268 258.2773,452.9838 Z M215.5478,455.8911 C213.3128,466.0791 214.0518,476.4741 214.5448,486.7941 C214.6348,488.6731 215.7088,494.4681 212.5998,494.3571 C210.4028,494.2791 208.6518,488.6691 208.1128,487.2301 C204.8478,478.4981 203.6878,468.6631 205.3188,459.4591 C205.8338,456.5451 206.6118,453.0101 209.8158,451.9981 C212.6028,451.1181 215.7948,452.6901 215.5478,455.8911 Z M787.8679,408.8549 C786.4909,409.5199 785.8839,410.7859 785.4729,412.1759 C774.6989,421.3599 762.0239,430.2489 749.4259,436.7299 C738.1719,442.5179 725.1399,444.9579 712.8569,447.5759 C684.7659,453.5639 656.7949,455.9829 628.7779,448.2329 C640.2269,458.7969 650.6089,472.8339 665.0419,479.5639 C672.2129,482.9079 680.1499,480.8909 687.3799,478.7729 C696.2509,476.1739 705.1759,473.5189 713.7609,470.0729 C729.9819,463.5629 747.3319,456.3589 760.9719,445.1999 C767.0189,440.2529 771.9479,434.1379 776.2869,427.6769 C778.7719,423.9759 780.8749,420.0179 783.3899,416.3439 C784.8389,414.2259 788.0129,411.6169 787.8679,408.8549 Z M668.1749,220.9929 C667.7629,226.2179 664.6859,230.6069 661.9719,234.8969 C660.1259,237.8139 656.5309,241.3319 658.2359,244.6409 C660.2599,248.5679 666.7129,251.0769 670.0569,253.7629 C675.0079,257.7399 679.6449,262.0849 684.2039,266.4999 C692.3839,274.4229 700.8539,282.1029 708.8589,290.1949 C716.4659,297.8829 723.8469,305.7159 733.4409,310.9579 C754.5049,322.4669 773.0499,338.5479 791.4559,353.8389 C810.2219,369.4279 828.7569,385.8149 845.0409,404.0259 C853.7549,413.7709 860.9969,424.4679 867.2089,435.9499 C870.4029,441.8569 873.8269,447.6339 877.0269,453.5389 C878.4429,456.1509 880.0419,458.6879 881.3299,461.3679 C882.2869,463.3589 882.9099,466.5829 884.6779,468.0579 C888.1779,460.2929 882.7179,450.0219 879.5529,443.0269 C877.3899,438.2459 875.2669,433.4459 873.1319,428.6509 C871.6329,425.2879 868.5189,421.2279 868.3479,417.4749 C867.9319,408.3499 879.6819,414.9149 882.9039,417.8399 C890.8799,425.0799 895.4799,435.9639 901.1249,444.9459 C902.4529,437.7949 888.2159,426.7519 894.1099,420.5189 C898.7849,415.5759 907.4029,427.1559 910.0189,430.2919 C911.8129,421.4499 907.2149,412.7999 902.4089,405.7229 C897.0539,397.8349 890.8639,390.3339 884.5209,383.2299 C869.6939,366.6269 852.7489,351.8489 835.9849,337.2519 C819.3089,322.7299 802.1399,308.7989 785.0429,294.7779 C768.4399,281.1629 751.5879,267.5489 733.0309,256.6489 C722.6259,250.5369 711.7119,245.4239 701.0899,239.7189 C689.9659,233.7449 679.4199,226.7479 668.1749,220.9929 Z M523.1439,200.8519 C522.6589,200.9729 519.8519,201.3099 519.6419,201.5569 C518.7269,202.6349 519.9469,206.1209 521.0259,206.7469 C517.3029,209.5299 513.1209,212.0629 508.3889,212.4959 C511.3659,215.4169 517.0219,220.5269 516.1419,225.2379 C514.9309,231.7189 507.1439,227.1739 503.9899,225.2129 C498.9289,222.0639 493.7569,218.7239 490.0509,213.9759 C487.6979,210.9629 486.8969,207.7679 485.1359,204.5229 C484.1799,202.7599 484.7359,202.4409 482.6179,202.3189 C480.1979,202.1819 476.0579,204.4769 473.8149,205.3889 C470.3509,206.7989 466.9729,208.4259 463.7149,210.2639 C457.7049,213.6569 452.0789,217.7739 447.1499,222.6109 C436.9439,232.6229 430.0319,245.7769 429.1559,260.1799 C436.3989,259.3209 443.4849,256.1979 449.5879,252.3019 C453.9349,249.5279 458.3689,246.2679 459.1359,254.0959 C459.4339,257.1449 458.5809,264.2449 456.7509,266.6039 C455.0419,268.8069 454.3039,267.0209 452.5299,268.3419 C450.4789,269.8719 451.5619,272.0739 451.5619,274.2219 C450.5729,273.3919 449.5849,272.5629 448.5979,271.7329 C446.8099,274.0689 448.8329,272.8179 449.5079,274.2309 C449.9019,275.0549 447.2079,277.4269 446.6699,277.8469 C445.5569,278.7169 444.9419,277.9969 443.6689,279.2469 C442.8509,280.0509 441.9689,281.8549 441.0819,282.8589 C436.4969,288.0469 442.5679,296.1769 444.9689,301.6779 C446.7459,305.7519 448.6849,309.7449 450.5339,313.7839 C451.8879,316.7399 452.6189,320.2489 454.4169,322.9729 C457.9849,328.3799 466.1609,325.4259 471.4979,324.7639 C478.7369,323.8649 485.8459,322.9449 493.0929,322.2639 C497.3409,321.8649 502.1409,319.3929 496.6859,316.1939 C491.2719,313.0199 472.5689,312.4189 472.4479,304.2539 C472.3199,295.5739 484.3799,294.1309 490.4279,294.8769 C499.2749,295.9669 504.9919,298.1999 511.0439,304.8769 C509.6879,292.1439 500.6539,281.6129 498.6379,268.8379 C498.0899,265.3679 496.4069,243.9799 504.7459,253.2199 C509.2119,258.1689 512.7489,265.6589 516.0499,271.3819 C521.0459,280.0459 525.3999,289.0489 529.9869,297.9299 C534.3629,306.4059 540.7739,314.5499 543.8389,323.5669 C545.5639,328.6389 547.9709,339.2989 553.4449,341.8869 C556.9519,343.5459 562.8729,341.3749 566.4949,340.8459 C568.7329,340.5189 570.9159,340.1989 572.8359,338.9069 C573.8299,338.2379 574.8119,336.5039 576.0669,336.3099 C579.6829,335.7509 580.6159,341.2749 580.3699,343.8179 C579.9899,347.7399 578.1889,348.7569 574.5309,349.2129 C580.6969,352.2339 571.1969,361.6839 569.5299,365.4519 C569.4429,365.2589 568.3609,362.6109 567.5569,362.6139 C565.9589,362.6189 572.4529,375.4039 572.9429,376.2929 C576.3489,382.4639 580.6259,388.0119 584.7629,393.6999 C587.1409,396.9689 590.5629,404.7019 595.3999,403.9709 C598.0789,403.5669 603.6449,398.0509 605.7499,401.8329 C607.6489,405.2439 601.7829,408.9029 600.8999,411.6149 C599.4189,416.1639 604.9909,420.9469 608.2739,423.3319 C616.9759,429.6529 628.2589,431.1449 638.5569,433.0529 C636.5889,430.3999 632.3029,428.9549 632.2179,425.1559 C632.1599,422.5729 633.9859,421.1629 632.7519,418.3519 C631.7359,416.0369 629.1889,414.6919 628.4309,412.2109 C627.5949,409.4749 628.9129,406.3669 630.4169,404.1069 C636.7899,394.5259 651.0259,398.5129 659.3739,402.8659 C658.7579,403.1371 658.24622,403.52926 657.840396,404.041868 L657.742201,404.172175 L657.764399,404.156797 C658.835275,403.500849 663.479249,405.556691 664.0579,405.9739 C665.8869,407.2919 668.3539,410.3639 669.6169,412.2669 C673.6829,418.3939 674.2649,425.8619 672.1529,432.8069 C697.6099,432.8069 721.5919,426.0219 744.3739,415.2069 C749.5769,412.7379 754.6879,411.1569 759.6169,408.0489 C764.6809,404.8579 769.4919,401.3149 774.4649,397.9929 C779.1359,394.8719 778.7139,392.9979 775.5849,388.5609 C771.7749,383.1609 768.4189,377.4039 764.1899,372.3109 C763.5409,373.7219 763.2869,376.5449 761.8989,377.4119 C760.3649,378.3699 758.9569,376.4669 757.9229,377.1869 C758.0149,377.1229 754.7469,382.1999 754.2209,380.9359 C755.5829,384.2069 750.1309,382.1169 749.1649,381.5109 C749.3899,384.5769 746.8419,387.2159 745.4109,383.1179 C741.5239,386.6749 732.3069,383.4189 737.2779,377.9339 C739.7319,375.2259 742.4029,373.7869 743.9459,370.2519 C745.6729,366.2959 746.2759,361.8179 746.4929,357.5409 C747.0049,347.4579 741.5489,342.7499 734.7089,336.2119 C730.8899,332.5609 726.9019,329.0959 722.9729,325.5659 C719.5189,322.4639 716.5309,318.6219 712.9069,315.7459 C710.3039,313.6809 708.2269,313.0869 705.7009,314.8799 C704.6599,315.6189 704.3209,316.5579 702.9839,317.2699 C701.2699,318.1829 698.7279,318.7479 696.8159,318.9859 C687.2039,320.1829 676.0789,316.8879 667.2709,313.3379 C664.8589,312.3659 663.7039,310.7839 661.6159,309.5809 C660.2959,308.8199 659.1709,309.2809 657.7699,308.3719 C654.1079,305.9969 654.2919,302.1849 656.9539,299.2169 C663.1909,292.2619 672.1499,298.5179 678.5239,292.9019 C686.4659,285.9039 673.2249,276.2279 667.8759,271.9449 C663.5949,268.5159 659.9169,267.7739 654.6849,266.8739 C653.5889,266.6849 646.3209,264.5869 648.8639,267.6029 C643.2169,267.4569 640.4399,267.4799 635.8939,271.0049 C634.7009,271.9289 633.1149,272.8029 632.7869,274.3799 C632.6139,275.2119 634.3279,275.3789 634.3319,275.3709 C634.1009,275.9299 632.3759,276.9449 632.1269,277.1229 C635.034827,277.467845 634.279859,283.17644 633.52958,283.208452 L633.486201,283.203175 L633.570957,283.276952 C634.840848,284.479233 631.975505,286.331063 631.0039,286.6419 C628.2449,287.5249 625.6269,285.6059 623.7819,283.6889 C619.6519,279.3979 616.6529,272.0979 616.9179,266.1499 C617.2889,257.8019 622.7709,252.9619 627.2929,246.7039 C630.6779,242.0219 625.6489,239.5319 622.1489,236.5939 C617.8649,233.0009 612.0389,228.5829 610.6299,222.8589 C609.3469,217.6449 612.9039,215.8609 617.4619,217.4289 C623.6219,219.5469 628.6069,224.9979 634.0659,228.4089 C638.9109,231.4359 645.0269,237.6169 650.9469,237.9699 C649.8609,234.1049 644.4819,234.5149 642.4009,231.6439 C639.6529,227.8509 643.9219,226.1599 647.1519,226.5949 C649.6589,226.9319 656.8119,232.2399 656.6259,226.1199 C656.5259,222.8409 651.0569,221.7429 648.6759,220.7949 C636.5769,215.9789 624.1839,212.6939 611.3529,210.4629 C607.1939,209.7409 606.1299,210.2469 604.1199,214.0019 C603.4379,215.2769 600.9859,221.1429 599.6419,217.2539 C597.8839,220.4409 597.3719,223.8369 593.5499,225.1189 C588.6859,226.7489 582.4329,224.3359 577.9519,222.4649 C574.1059,220.8589 570.4509,218.6069 567.9829,215.1729 C566.7549,213.4659 565.8599,211.5709 565.2799,209.5509 C564.7879,207.8359 565.0209,205.0249 564.1309,203.4669 C562.6439,200.8619 559.0989,201.4239 556.3619,201.1639 C550.2519,200.5829 544.2189,200.0579 538.0769,199.9859 C532.9739,199.9269 528.1019,199.6169 523.1439,200.8519 Z M655.9829,429.7419 C654.0289,430.4419 657.4999,432.7809 658.6469,432.5049 C658.1769,431.7469 657.3969,429.2359 655.9829,429.7419 Z M657.742201,404.172175 L657.6892,404.212676 C657.621306,404.274051 657.575714,404.352133 657.5559,404.4489 C657.6,404.3773 657.64576,404.30758 657.693177,404.239741 L657.742201,404.172175 Z M696.8281,342.7396 C698.5981,344.2256 697.8841,347.6666 699.0951,349.7806 C702.3361,355.4406 708.1771,361.0236 713.6811,364.4426 C719.6091,368.1236 722.4141,372.9006 723.8661,379.5686 C724.1671,380.9466 725.0731,382.8596 724.6311,384.2866 C724.2171,385.6196 722.7201,386.0626 722.2601,387.2506 C722.0491,387.7936 722.9311,391.9966 722.8241,392.0096 C722.3131,392.0716 720.8211,389.9566 720.8301,389.9676 C720.238754,391.433946 720.444375,393.099996 718.851095,393.884731 L718.657201,393.971175 L718.682124,393.989641 C719.079371,394.297269 720.8911,395.801393 720.4591,396.1316 C719.8561,396.5916 718.3821,396.2766 717.6301,396.5446 C716.4431,396.9686 715.5871,398.0256 714.4451,398.5176 C711.3821,399.8366 707.8501,399.4296 704.6171,398.9646 C697.8071,397.9866 690.1441,395.5506 685.2211,390.5056 C679.2581,384.3946 680.6731,378.0626 680.1351,371.2076 C679.5311,363.5176 685.0781,351.8606 689.5341,345.8986 C691.0541,343.8626 694.1001,340.4526 696.8281,342.7396 Z M206.9749,282.9079 C206.5899,283.8179 206.9739,285.2379 206.7479,286.2369 C206.2919,288.2609 205.1179,290.0329 203.9879,291.7319 C201.8729,294.9119 199.7449,297.8259 198.3019,301.4139 C194.7589,310.2209 191.4729,319.7129 189.7759,329.0509 C186.1359,349.0989 198.2889,365.6339 198.9509,385.1599 C204.5319,379.2839 213.0189,379.0029 220.5809,378.9859 C230.6439,378.9639 240.6139,379.3869 250.6389,380.2679 C269.8169,381.9539 289.4219,382.6379 307.5979,389.6479 C309.5989,390.4199 311.0999,390.7539 313.1089,391.1749 C315.3159,391.6379 314.1469,390.6049 315.7609,391.9109 C316.1949,392.2629 316.3679,393.5319 316.8219,393.9769 C319.1699,396.2739 320.5759,394.7129 322.5649,392.2489 C328.0369,385.4659 333.4969,379.3019 340.5369,374.0309 C355.5339,362.7999 372.3319,357.6139 390.8189,355.9439 C401.4149,354.9869 411.7609,354.4349 422.4029,354.5379 C432.5639,354.6359 443.2919,354.8219 452.9179,358.4579 C450.5239,351.6059 446.4349,345.4659 443.1379,339.0379 C441.5369,335.9169 440.0519,332.6359 438.0159,329.7639 C436.2269,327.2389 433.5259,325.1759 432.2869,322.2929 C432.0659,322.8719 431.8449,323.4509 431.6229,324.0289 C412.0759,318.4299 391.9189,315.4139 371.8779,312.2119 C351.7469,308.9949 331.8659,304.5369 311.7779,301.1079 C301.6919,299.3859 291.5689,298.3509 281.4099,297.1969 C271.6309,296.0869 262.2029,293.9159 252.5609,292.0709 C242.7959,290.2019 233.2919,287.9379 223.6899,285.3639 C219.6639,284.2849 215.8529,282.7959 211.9349,281.4969 C208.8099,280.4619 208.0999,280.2399 206.9749,282.9079 Z M639.2318,318.4516 C639.8158,320.8486 637.9498,323.9406 637.3518,326.2166 C636.6738,328.7976 635.2028,329.8316 634.4358,332.1786 C633.7698,334.2176 634.9708,345.0276 629.7578,341.7996 C629.9178,342.5756 630.7758,343.6396 630.8638,344.3316 C630.9758,345.1926 630.1378,346.5106 630.3808,347.2536 C630.5998,347.9226 632.8898,349.8816 633.4448,350.9986 C635.6338,355.3866 637.1808,360.4376 638.2598,365.2176 C639.3838,370.2006 640.7498,377.1046 636.6228,380.5446 C635.6308,381.3706 634.7668,381.5926 633.7488,382.5856 C633.6298,383.5036 633.2108,384.2626 632.4918,384.8616 C632.0978,384.9726 631.7808,384.8746 631.5438,384.5676 C630.2858,385.2496 630.7048,382.3846 629.2268,385.1686 C628.8698,385.8406 629.5138,388.1456 629.1948,387.9086 C628.6148,387.4816 626.8658,385.6566 626.2988,385.6226 C625.0298,387.3496 625.0588,385.5906 623.7188,385.8366 C623.6658,386.5526 623.2778,386.9466 622.5538,387.0176 C621.9888,386.8886 621.4248,386.7576 620.8608,386.6276 C617.4478,386.6476 612.4068,385.2156 609.1298,384.3106 C602.8748,382.5836 598.4118,378.2796 597.0548,371.7586 C594.2288,358.1746 605.6538,341.1936 613.8218,331.3166 C616.6118,327.9426 636.2068,306.0416 639.2318,318.4516 Z M693.7811,362.2136 C693.6931,363.3546 694.0461,365.0596 692.7641,365.1856 C692.8221,363.8986 692.2811,362.2496 693.7811,362.2136 Z M604.7808,360.2796 C605.3638,363.5686 605.4978,361.6906 604.1748,363.9526 C603.7298,362.6206 603.9318,361.3966 604.7808,360.2796 Z M699.4911,356.0386 C699.9991,356.6706 701.9441,358.3766 700.2691,358.8136 C698.8041,359.1946 699.4291,356.8176 699.4911,356.0386 Z M629.0218,333.2386 C628.3558,336.7776 630.3628,335.9306 633.1238,335.2876 C631.7568,334.6046 630.3888,333.9216 629.0218,333.2386 Z M117.2709,190.4689 C104.0449,201.8179 103.6459,221.6629 104.0629,237.6369 C104.6299,259.3419 105.9469,281.1069 108.0449,302.7159 C108.9929,312.4799 111.7779,317.4519 121.4159,320.7239 C131.8569,324.2679 143.1029,323.5819 153.9329,322.9529 C151.8619,306.8519 147.8089,285.6689 163.9599,274.9529 C165.4379,273.9729 166.7899,273.2489 168.5889,273.1559 C169.7769,273.0949 171.4809,274.1719 172.6089,273.6209 C174.8899,272.5059 173.5849,269.3479 172.8379,267.5609 C170.5669,262.1289 166.2329,257.7819 162.7169,253.1729 C158.3009,247.3869 154.5069,247.5429 147.9129,248.2569 C145.2839,248.5429 134.9419,249.7209 136.9779,244.1079 C138.4569,240.0269 146.5819,241.0489 149.8739,240.1039 C152.3689,239.3869 152.8779,239.0709 152.7709,236.5209 C152.6019,232.5359 150.3169,231.4539 146.7719,231.5629 C142.2119,231.7019 134.3169,234.1259 130.5199,230.5399 C125.0979,225.4179 133.1389,221.8319 137.2159,221.1359 C141.4839,220.4079 147.1919,221.0709 148.1769,215.7879 C149.1149,210.7489 146.4569,204.6509 144.3799,200.2139 C142.3699,195.9219 139.6229,190.4519 135.4289,187.8749 C129.5109,184.2399 122.2099,186.2299 117.2709,190.4689 Z M168.6049,285.2869 C163.2329,286.4919 160.1419,293.4869 159.5179,298.3779 C158.9149,303.1089 159.3259,309.8609 162.7949,313.4969 C167.3479,318.2679 175.2849,317.9469 180.1849,322.4249 C182.3559,311.6489 186.3699,301.2789 191.6429,291.6499 C187.4789,290.5029 183.4209,289.0199 179.3149,287.6889 C176.3109,286.7159 171.8309,284.5629 168.6049,285.2869 Z M513.4369,308.5019 C514.6419,309.5319 515.0229,309.8449 515.3339,311.4619 C512.4739,311.6429 513.3349,310.7239 513.4369,308.5019 Z M541.8034,231.8523 C546.2734,231.9683 548.3634,233.4153 551.9504,235.5573 C554.5064,237.0843 557.6074,235.4413 557.6074,239.3203 C564.9044,233.5853 578.5124,248.3933 583.6274,252.2723 C589.0234,256.3633 594.3364,261.1793 594.9334,268.4803 C595.1104,270.6423 594.6624,272.8583 594.9874,275.0113 C595.2324,276.6333 596.2594,278.2543 596.0844,279.9363 C595.8784,281.8863 594.2294,283.0263 593.8494,284.8593 C593.6994,285.5853 594.2134,287.0433 593.8944,287.6303 C590.6234,293.6273 586.4314,298.5473 579.2544,299.1403 C573.0034,299.6573 566.0974,297.4263 561.5414,293.0643 C557.4994,289.1953 555.0894,283.3973 554.0424,277.9753 C553.8604,277.0373 554.2054,274.8883 553.8964,274.0953 C553.4474,272.9393 552.7714,272.9193 552.2144,271.9843 C550.7374,269.5043 548.6174,264.8303 550.5344,262.1053 C545.8084,263.1723 542.2164,253.0463 540.4524,250.0933 C539.1294,247.8823 535.9414,246.1513 535.0564,244.0003 C533.8424,241.0503 538.2044,239.7843 536.6934,237.7293 C535.8844,236.6293 531.5424,237.3783 531.9684,234.6223 C532.3644,232.0733 540.0964,231.8073 541.8034,231.8523 Z M633.3549,283.1059 C633.397664,283.160391 633.441439,283.192243 633.485479,283.203705 L633.486201,283.203175 L633.470571,283.190172 L633.3549,283.1059 Z M620.8779,261.0259 C621.2879,260.6739 623.4839,258.4509 623.7419,260.1179 C623.9529,261.4839 621.5349,261.0259 620.8779,261.0259 Z M415.9509,87.8579 C411.1849,88.1489 406.9369,93.2939 403.3869,95.9949 C398.0859,100.0269 391.8219,102.9869 385.5749,105.2249 C378.3029,107.8279 370.8279,110.1449 363.3619,112.1199 C355.7889,114.1239 347.9009,114.5339 340.3519,116.6159 C344.0869,123.4519 347.8229,130.2889 351.5589,137.1259 C353.1969,134.8709 352.6369,132.3249 355.3329,130.7039 C357.2039,129.5789 359.9119,129.4249 362.0269,129.0089 C367.9149,127.8499 374.3759,126.8239 380.3529,128.0229 C384.2089,128.7969 388.4999,131.7659 384.8479,135.9119 C382.5429,138.5279 377.5819,137.8559 377.1769,142.0109 C376.7889,145.9919 380.8539,149.4119 379.9129,153.5979 C378.5899,159.4819 372.7109,157.7199 370.0969,153.9159 C367.7659,150.5239 368.6499,144.4919 365.0509,142.0459 C362.9039,140.5869 357.1649,140.0609 354.8529,141.3099 C359.1019,149.1519 367.3599,158.8209 362.5159,168.1959 C361.0269,171.0759 357.7749,172.1739 359.9549,175.0039 C362.4689,178.2679 369.7229,180.9569 373.5849,179.9579 C377.2009,179.0229 381.3439,174.9489 385.4109,176.9649 C389.2509,178.8679 386.5299,182.0989 386.8689,185.0879 C387.8909,194.0909 406.3549,188.9559 411.3679,187.7609 C416.3969,186.5629 421.6439,183.6639 426.8349,183.5449 C431.7309,183.4319 436.2769,185.7919 440.1559,188.5559 C443.0609,190.6259 447.8949,196.6819 451.5799,196.8839 C455.2779,197.0869 460.5189,191.6129 463.7819,189.9559 C469.6359,186.9819 476.0349,186.1219 482.2389,184.1399 C483.2239,183.8259 487.5269,182.9409 487.604699,181.5039 C487.6779,180.1229 482.5919,177.1019 481.7279,176.4419 C473.8349,170.4149 468.0539,162.1059 459.8429,156.4619 C456.1819,153.9449 452.2269,152.1709 447.9499,151.0379 C445.5759,150.4099 439.1119,149.5629 438.9419,146.1779 C450.3309,144.2699 450.6149,130.0609 445.8119,122.0039 C442.7569,116.8799 438.0179,114.4429 432.0319,115.5449 C423.3579,117.1429 421.7719,123.4919 419.7859,131.0259 C412.6979,127.1699 404.9709,117.7269 404.5499,109.4059 C404.0829,100.1549 414.0159,96.1769 415.9509,87.8579 Z M627.5456,150.0301 C639.4956,152.2471 651.1846,155.2021 662.6926,159.1291 C669.7806,161.5481 680.0936,163.6281 686.2236,168.1661 C688.0126,169.4921 690.2666,172.4081 688.6336,174.7381 C687.2266,176.7471 683.7816,176.2061 681.7456,175.8931 C672.4936,174.4701 663.4296,170.5981 654.2766,168.5101 C629.9496,162.9621 604.9926,160.3551 580.1386,158.5791 C573.2846,158.0901 566.4256,157.6671 559.5716,157.1851 C553.8636,156.7851 547.5906,156.9661 542.0016,155.6741 C537.5936,154.6551 536.4956,151.4161 539.7966,147.7691 C543.0146,144.2151 548.4126,144.7691 552.7236,144.1201 C577.8076,142.4821 602.9096,145.4591 627.5456,150.0301 Z M585.9726,121.0012 C594.1046,123.8032 584.6006,125.1392 581.0436,124.8452 C579.8376,124.7462 563.9316,123.1682 563.9316,123.6572 C560.7566,123.6572 552.3576,126.0852 550.0776,122.8752 C547.6286,119.4282 558.1126,118.2182 560.2316,118.0652 C568.3786,117.4782 578.1416,118.3042 585.9726,121.0012 Z" id="react-path-131" fill="#000000"></path></g></g></svg>