<svg xmlns="http://www.w3.org/2000/svg" viewBox="0 0 1024 768" version="1.1"><g stroke="none" stroke-width="1" fill="#FFFFFF00" fill-rule="evenodd"><g transform="translate(-62.000000, -17.000000)"><rect x="0" y="0" width="1024" height="768"></rect><path d="M568.2611,182.8461 C557.6231,187.0691 550.4771,196.9211 548.0101,207.9571 C546.8681,213.0591 547.9511,220.8471 544.6081,224.9601 C540.6061,229.8831 534.3851,225.6221 529.7731,228.7071 C519.2521,235.7461 530.5181,248.4521 538.3581,250.5441 C544.6101,252.2121 550.9701,253.2341 557.2561,254.4521 C563.1591,255.5951 566.0411,260.8121 569.5841,265.5391 C564.6901,264.7241 559.8891,263.4911 554.9681,262.7131 C552.8501,262.3781 549.7781,261.3251 547.5721,261.4611 C544.9111,261.6261 543.2141,263.4791 540.6861,263.9181 C536.3391,264.6731 533.3501,261.8831 531.6381,267.3451 C530.3771,271.3701 532.3821,276.1811 535.9851,278.1671 C532.8011,281.2831 525.4551,282.1211 521.2901,283.4141 C515.2561,285.2861 509.1181,286.5021 503.5221,289.6621 C503.5221,279.8261 503.6441,272.0391 498.8391,263.0411 C496.5071,258.6731 492.0591,246.4041 487.2911,244.5781 C485.8581,244.0291 483.8351,244.3321 482.3401,243.8861 C480.7871,243.4231 479.9281,242.0721 478.1881,242.0261 C475.0221,241.9411 471.6051,245.6381 469.7261,248.0541 C464.9741,254.1641 465.1601,263.9391 465.4531,271.3001 C465.7561,278.9081 466.5251,288.4591 469.6341,295.4971 C470.3561,297.1321 471.0971,298.9701 472.6731,299.9531 C473.8181,300.6661 475.9521,300.1031 476.8331,300.9141 C480.0321,303.8621 475.5901,305.5501 473.1221,307.3551 C466.8171,311.9661 461.3701,316.4341 456.7571,322.6231 C452.8621,327.8481 446.7871,334.1901 445.7911,340.8871 C441.5041,335.0831 438.4901,328.5351 435.2021,322.1491 C433.3351,318.5221 433.2951,319.2571 435.2811,316.5101 C436.8291,314.3691 439.5501,312.1411 441.7601,310.6451 C446.2801,307.5851 450.9531,304.2911 452.2801,298.4681 C453.2831,294.0651 450.8851,285.9291 449.5101,281.4741 C447.7531,275.7811 443.1611,271.4131 437.2721,274.7381 C432.9101,277.2021 430.8111,286.0111 426.5821,287.2441 C421.8101,288.6351 422.4661,277.0661 422.0261,273.8561 C421.2071,267.8671 418.0411,257.7951 420.0201,251.9131 C421.5611,247.3331 428.9911,244.8921 432.8511,242.1061 C438.5841,237.9681 444.2361,232.6981 448.2671,226.8491 C452.4001,220.8501 452.0351,214.7411 451.2951,207.7491 C450.8631,203.6711 450.1921,192.5721 443.3861,194.9261 C439.4691,196.2811 421.9631,220.1131 418.8641,211.6551 C417.9911,209.2701 419.8781,203.2591 420.2101,200.5091 C420.4521,198.5041 420.4131,188.9491 421.7661,187.6171 C422.2861,187.1051 428.4241,186.2781 429.7661,185.4521 C432.9841,183.4691 435.4001,180.8701 437.3361,177.6381 C443.7481,166.9311 436.4581,150.1951 424.4081,147.5081 C416.5531,145.7561 412.3061,148.5111 407.9091,154.8381 C403.6541,160.9621 395.3031,158.3151 388.2001,159.7911 C386.8631,156.1551 391.5651,149.0021 392.8081,145.4981 C394.6391,140.3371 396.6601,134.9781 397.3901,129.5331 C398.8121,118.9071 396.3611,107.4451 392.9891,97.4311 C397.0341,98.0511 402.7831,97.8051 405.5661,100.8301 C408.3561,103.8601 409.5951,110.0811 411.9511,113.7231 C416.4971,120.7491 421.7221,128.4161 427.9791,134.0041 C436.1491,141.3001 439.3801,137.8931 445.6421,131.1181 C451.9891,124.2511 448.6631,114.5591 446.4071,106.0801 C451.5431,105.3101 457.4781,106.7551 462.5261,107.5681 C467.1021,108.3041 475.6851,108.4701 479.5681,111.2341 C482.4731,113.3011 481.4411,115.5541 481.7241,119.6181 C482.1051,125.1141 482.9691,130.6711 484.6411,135.9351 C488.0431,146.6461 495.7271,150.3221 504.9641,143.4311 C508.1731,147.7371 511.6591,153.4321 516.6141,155.8741 C521.4771,158.2731 530.5191,160.2471 535.9631,160.6421 C542.8151,161.1381 548.2891,158.0901 553.9551,154.6281 C556.7281,152.9341 557.5081,151.5441 559.9291,152.8741 C561.7181,153.8581 564.0811,158.5071 565.8981,160.1131 C567.9331,161.9111 570.1721,163.5661 572.3531,165.1811 C573.3701,166.0181 574.4261,166.8021 575.5221,167.5331 C577.9321,168.1091 578.7421,169.5391 577.9521,171.8231 C579.4761,176.2231 579.7691,180.8841 581.0571,185.3301 C582.5781,190.5831 586.1901,193.4451 591.0461,195.3831 C592.7301,195.8621 594.3851,196.4301 596.0081,197.0871 C598.9021,197.1441 599.5591,198.3141 597.9781,200.5971 C597.9771,203.6651 594.8621,208.3311 593.1941,210.7461 C591.5571,206.1971 585.2291,201.1311 580.3201,203.0601 C574.6121,205.3021 574.3911,211.8621 574.7961,216.9921 C571.2301,215.3141 568.1661,212.8911 565.1181,210.4371 C563.6361,209.2441 561.1831,207.8611 560.0941,206.2681 C558.2061,203.5081 558.3721,204.9391 559.6991,201.1961 C561.1671,197.0571 572.0341,186.8731 568.2611,182.8461" fill="#714dd2"></path><path d="M531.2861,17.5991 C536.2111,18.8861 536.6011,20.8951 540.3341,23.1101 C544.1351,25.3661 551.3981,23.5261 556.2441,25.0121 C558.7871,25.7921 560.3541,27.2031 562.5271,28.5671 C563.8441,29.3941 563.6801,29.8341 565.0621,30.4081 C565.7821,30.7061 567.4031,30.3471 568.2531,30.5321 C574.1451,31.8211 574.6731,38.7581 578.4261,40.1181 C581.3141,41.1661 582.6731,39.1361 585.8441,41.3681 C587.6351,42.6291 589.4061,44.9841 590.3531,46.9421 C590.8181,47.9031 591.2691,51.1361 591.6731,51.6171 C592.9501,53.1371 592.4321,52.3111 593.6731,53.1641 C596.2251,54.9181 599.2261,54.9061 602.0271,57.8601 C605.8271,61.8681 610.3541,65.0441 611.2571,70.8311 C611.410271,71.8128168 611.441279,72.7163338 611.403576,73.5848839 L611.3713,73.0721 C611.4383,74.2081 611.5063,75.3421 611.5723,76.4761 C611.515443,75.5120694 611.457865,74.548759 611.401401,73.5867799 C611.318748,75.5306959 610.890499,77.2987695 610.7171,79.3761 C610.5461,81.4211 610.2751,81.4281 610.7051,82.8941 C610.9951,83.8811 612.6921,85.2111 613.1021,86.6671 C616.3201,98.0841 597.8031,110.9441 588.2811,104.5221 C584.3921,112.7451 581.5881,121.3981 577.8501,129.6651 C575.8031,134.1951 565.0281,144.7921 565.8071,148.0131 C566.4481,150.6671 572.5791,152.4521 574.7181,153.7311 C578.5941,156.0511 582.3491,158.8501 586.0681,161.4131 C589.300185,163.640889 592.398628,166.012354 595.546506,168.305102 L595.4387,168.2772 C597.239848,168.693473 598.578244,169.723502 599.603845,171.169051 C601.758498,172.631741 603.970951,174.015936 606.2951,175.2561 C609.8711,177.1651 610.8241,177.5361 612.3541,181.3451 C613.9221,185.2421 611.9661,183.8811 615.3821,186.3711 C622.0201,191.2091 632.1291,193.3131 639.6471,196.6031 C656.3231,203.8981 672.6581,207.7251 690.9931,204.5531 C707.4551,201.7061 722.8371,193.8071 738.2431,187.6401 C753.4961,181.5351 768.6911,174.8551 783.1501,167.1011 C796.8251,159.7661 810.3611,152.0071 822.9791,142.8211 C830.0501,137.6731 837.5231,133.0871 844.3191,127.5851 C850.9961,122.1801 857.2191,116.1831 863.9991,110.9471 C877.2841,100.6871 891.2951,90.8641 905.3201,81.5671 C909.3161,78.9181 913.2391,76.1581 917.1451,73.3781 C919.4981,71.7051 924.2121,66.8331 927.3221,67.4361 C937.0291,69.3141 927.3061,81.8571 925.6671,85.5271 C930.4631,82.9651 934.3731,79.1801 939.3631,76.8191 C941.9151,75.6111 948.9701,71.3381 951.6661,73.1381 C957.9971,77.3631 943.0511,91.2921 940.6451,94.5251 C944.6501,92.2401 958.1371,83.1941 961.4111,90.5981 C964.8391,98.3491 952.3741,107.5371 947.8341,111.8561 C934.4411,124.5961 918.9721,134.6291 905.3461,146.9941 C903.4661,148.6991 897.3071,152.4571 897.7711,155.5301 C898.2041,158.4011 903.8661,161.7171 905.8931,163.6231 C909.8791,167.3691 922.5301,179.5601 914.4741,185.7091 C911.6321,187.8781 903.5271,186.0831 900.1281,185.7241 C895.1481,185.1991 890.2421,184.7931 885.3021,183.9681 C878.0401,182.7541 870.9201,177.0591 863.6491,176.8441 C855.4761,176.6031 846.6751,183.8341 839.6431,187.3231 C831.3831,191.4201 823.4471,195.9571 815.2261,200.1421 C799.5321,208.1311 784.5511,217.0821 768.3561,224.2821 C750.6001,232.1761 731.5571,237.2841 714.0191,245.6721 C696.1721,254.2081 678.9671,256.9201 659.4191,256.3171 C640.3391,255.7291 619.9421,243.0891 604.8401,232.2641 C603.9681,231.6331 603.0951,231.0021 602.2231,230.3711 C600.6041,227.9001 599.1921,227.8361 597.9861,230.1771 C595.5341,230.5781 594.5201,230.9591 591.5981,230.7541 C586.8261,230.4201 584.4411,229.3461 580.0631,227.7271 C570.1411,224.0581 562.6441,221.1961 555.6301,212.6311 C551.0321,224.5881 562.6231,237.2041 568.8291,246.5621 C572.2481,251.7191 576.1381,256.6371 579.0851,262.0881 C581.4781,266.5161 582.3421,273.3951 586.9221,275.3401 C589.6571,276.5021 591.3491,274.5791 593.1931,277.3371 C594.3971,279.1381 593.0791,281.2051 592.8431,282.7271 C592.2411,286.5941 590.3741,281.1441 591.7121,286.8471 C592.1351,288.6481 594.6691,292.0821 595.5121,293.7361 C601.2581,305.0101 605.9431,316.8061 610.8581,328.4681 C615.7481,340.0701 620.5941,351.5601 625.3851,363.1831 C627.4521,368.1991 630.3521,372.8221 632.3231,377.8921 C634.7261,384.0731 636.2031,390.5281 638.4921,396.7571 C642.0451,406.4271 642.7271,419.2171 639.7941,429.2141 C636.9231,439.0031 624.4531,449.0671 614.5141,448.4401 C619.1151,457.6521 624.3351,465.9351 629.1301,474.9831 C633.6231,483.4601 636.7631,492.5141 641.4251,500.6851 C646.7321,509.9861 651.3681,519.9131 656.6911,529.0251 C661.1871,536.7211 664.0081,545.4861 668.2321,553.3061 C677.8611,571.1341 687.1441,589.6711 697.4671,607.3601 C703.4721,617.6501 708.8841,628.2381 714.9771,638.4941 C718.2351,643.9781 721.5651,649.4151 724.8831,654.8631 C726.7991,658.0081 728.9661,664.9181 732.5611,666.4391 C731.5271,667.5191 728.2111,669.9981 728.0921,671.5731 C727.7751,675.7651 732.0141,674.6061 734.3891,674.0271 C740.4191,672.5591 746.2281,671.0201 752.0571,668.9271 C763.2191,664.9211 773.8441,659.2491 785.1321,655.6541 C796.8531,651.9191 807.8971,645.4051 820.0621,642.6291 C825.5961,641.3661 843.8001,633.6031 845.4051,640.1141 C845.7091,641.3451 844.9151,644.3051 844.9281,645.7981 C844.9501,648.4381 845.6411,650.7951 845.2651,653.5401 C844.5431,658.7961 841.6571,664.0471 838.8451,668.4341 C832.1111,678.9361 824.5621,689.2331 815.6861,698.0141 C800.4671,713.0711 786.7121,733.2631 767.9331,744.0121 C764.2071,746.1461 760.6761,749.9261 756.4631,751.0481 C751.7841,752.2931 747.8091,750.7271 743.6261,750.5521 C741.3261,750.4561 741.2001,751.7361 738.4281,750.6921 C736.1501,749.8341 733.2221,747.0621 731.3631,745.5951 C726.6711,741.8921 722.7081,737.2031 718.8351,732.6631 C715.4111,728.6491 711.7831,720.9851 707.1481,718.4211 C704.5731,716.9971 704.7121,719.2821 702.4011,716.1141 C701.1251,714.3641 701.0091,712.5761 699.4321,710.8211 C697.7501,708.9491 696.6881,708.6841 695.5751,706.4241 C694.7971,704.8451 694.7661,703.3071 693.7611,701.6851 C690.4161,696.2911 685.3581,691.6631 681.7721,686.3261 C676.4131,678.3511 669.5291,671.4561 663.8901,663.7091 C657.1411,654.4411 649.6361,645.2091 642.3141,636.4021 C628.2101,619.4341 615.2411,600.7191 601.8851,582.7911 C587.4371,563.3991 573.9441,542.6981 561.8961,521.7041 C555.4391,510.4511 547.6291,499.5611 540.8481,488.4381 C534.2191,477.5651 528.1161,466.1721 520.3631,456.0831 C518.8681,457.2651 521.3941,461.5571 519.5571,463.3161 C517.6371,465.1581 508.6431,465.2311 506.1891,465.6551 C497.8071,467.1041 488.8811,468.7141 480.3621,469.0381 C462.8201,469.7031 445.5221,473.2681 427.8411,474.0361 C423.8891,474.2081 420.7551,473.5831 416.9441,472.7891 C411.2281,471.5961 410.1551,470.9131 408.9841,476.5331 C407.2031,485.0831 405.0971,494.2271 404.3091,502.8911 C403.4951,511.8421 403.3491,520.8021 403.2241,529.7911 C403.1651,534.0751 403.0491,538.3631 403.0691,542.6461 C403.0991,548.8741 404.7931,554.9511 404.4701,561.1691 C404.0581,569.0931 402.6671,575.9841 394.5051,578.2171 C389.9401,579.4651 389.8491,578.8291 386.6231,576.3191 C383.2311,573.6821 378.7531,571.3001 375.8961,568.1751 C365.2771,556.5591 356.8651,540.2871 353.6601,524.7571 C350.0291,507.1581 354.9171,488.1841 356.6981,470.6861 C357.4471,463.3311 357.7351,451.5111 362.9111,445.6691 C368.4411,439.4271 379.7311,439.6351 387.1631,439.5521 C388.860719,439.532772 390.171183,439.360181 391.304477,439.059662 C391.046975,439.037316 390.790786,439.023247 390.5371,439.0299 L391.983435,438.858108 C394.013512,438.189631 395.560726,437.078831 398.0621,435.6991 C401.5751,433.7611 406.6621,432.7801 410.4581,431.3191 C420.7781,427.3461 431.6441,425.3411 442.0971,421.8141 C450.5511,418.9621 458.9491,417.2861 467.5331,415.2081 C473.814784,413.686167 480.367763,413.396585 486.664433,412.323694 C485.94551,412.240315 485.226427,412.155276 484.5231,412.2513 C486.014451,411.278191 487.635806,411.808481 489.213686,411.837377 C490.743635,411.512808 492.253217,411.123439 493.7351,410.6401 C483.8641,392.6981 474.8471,374.4061 463.9061,357.0611 C461.5161,361.4281 457.4611,361.5071 452.7151,360.0151 C450.0591,359.1791 448.9541,356.5551 446.4681,355.6201 C444.9181,355.0371 443.9931,356.8051 442.3691,355.5451 C441.423682,354.812608 440.843628,352.226071 440.291863,350.010537 C431.174584,340.806358 426.857123,330.367255 422.6396,318.2124 C425.7386,323.9704 428.5686,329.9004 431.7756,335.5974 C432.503276,336.890753 433.431071,338.200502 434.42299,339.526814 L434.135878,339.102316 C432.816998,337.145957 431.533671,335.158243 430.4061,333.0381 C420.4511,314.3171 415.1411,295.9521 411.8941,275.0631 C408.9881,256.3581 408.3951,236.6091 409.0341,217.7021 L408.9197,220.1209 C408.958857,219.297581 408.997898,218.473798 409.036902,217.64971 L409.0341,217.7021 C409.078629,216.383998 409.140822,215.076594 409.220734,213.777562 L409.220397,213.776784 C409.716894,205.712069 410.89609,197.96929 412.7711,189.9921 C413.5041,186.8741 415.0351,182.2841 415.1011,179.1861 C415.1411,177.3051 414.5991,168.1051 413.9871,167.5921 C411.6191,165.6041 402.4081,167.1521 399.8071,167.4211 C395.0731,167.9121 390.3671,168.6571 385.6331,169.1541 C384.6821,169.2461 383.7291,169.3371 382.7781,169.4281 C380.9501,168.9601 379.6161,169.4781 378.7771,170.9821 C376.2871,171.4201 379.4341,173.4841 375.9651,171.4641 C371.9361,169.1191 372.0381,160.3931 372.0231,156.4351 C372.0171,154.9381 373.1241,148.6061 372.0931,147.5021 C371.2981,146.6511 365.8461,146.9921 364.4831,146.8801 C359.3041,146.4581 354.0921,145.8311 348.8981,145.6231 C338.6451,145.2111 328.2391,145.4671 317.9871,145.5121 C299.7671,145.5901 282.5101,153.8861 267.2921,163.2521 C260.2641,167.5771 252.5081,170.5891 245.5691,175.0041 C238.7421,179.3491 232.7461,184.6851 226.0381,189.2491 C216.6591,195.6291 206.8291,200.9761 198.1311,208.2791 C193.9661,211.7751 188.4361,215.2711 185.3851,219.8991 C182.3201,224.5461 184.3841,229.8041 184.2561,235.1351 C184.1161,240.9101 184.4811,247.0351 183.4911,252.6951 C183.1481,254.6581 182.8441,258.3981 181.0361,259.6821 C178.2801,261.6391 178.9741,260.2091 176.6111,258.9031 C166.3881,253.2501 164.5721,242.6681 161.6241,232.5771 C144.7281,255.2611 133.4971,281.4601 117.5201,304.9071 C115.0731,308.4991 110.8091,316.1071 105.6721,312.4221 C102.581127,310.20452 102.060664,305.885941 102.417362,301.718671 L102.4212,302.8765 C102.4162,301.7685 102.4132,300.6655 102.4102,299.5635 C102.413438,300.279658 102.416256,300.996236 102.418383,301.711061 C102.65815,298.914538 103.292693,296.187208 103.8101,294.2091 C105.7511,286.7951 107.4491,279.2141 110.9421,272.3461 C112.6931,268.9041 114.7861,265.6441 116.5621,262.2161 C117.4711,260.4651 120.2901,256.9821 120.1661,255.0151 C119.3181,256.0911 118.4721,257.1661 117.6241,258.2431 C113.6361,260.1671 110.5951,266.3961 107.3011,269.4951 C104.3041,272.3141 100.9001,275.1201 97.6641,277.8111 C91.7271,282.7451 86.5701,288.1051 81.5381,294.1141 C78.4841,297.7611 74.6141,301.2291 71.8931,294.5461 C69.8131,289.4381 73.0751,284.8531 75.4601,280.4891 C78.5781,274.7841 81.7131,269.6191 85.8541,264.6121 C89.3621,260.3731 94.2881,255.8531 95.6631,250.5101 C88.6721,255.3591 82.4021,261.0161 74.8431,265.0661 C68.8281,268.2881 59.1131,268.1121 62.8201,258.4501 C65.5121,251.4371 73.8081,242.9151 79.2881,237.8071 C84.9831,232.4971 91.5221,227.5601 97.6381,222.6941 C111.8571,211.3801 127.7121,202.0861 142.7091,191.8121 C156.4031,182.4311 170.4061,173.5761 184.0101,164.3931 C214.5581,143.7711 244.4651,120.7141 279.8611,108.8791 C296.2991,103.3831 313.5881,99.1001 330.6331,96.1481 C339.4281,94.6251 348.8301,92.4491 357.7291,92.0561 C361.0091,91.9111 364.1761,92.5301 367.4201,92.3341 C370.7931,92.1311 374.9621,93.0201 378.2811,92.2511 C381.7741,91.4431 384.8541,87.7111 388.3261,87.9391 C389.4721,88.0151 390.5311,89.2181 391.6881,89.3321 C391.68873,89.3324023 391.688565,89.3320512 391.6884,89.3317 C393.1294,89.1777 394.5404,88.0157 395.8994,89.2427 C395.89771,89.2430596 395.898405,89.2430798 395.8991,89.2431 C400.715561,89.3827152 405.525083,89.4484966 410.318599,89.6889027 L410.1063,89.7796 C411.8333,89.0036 413.5573,89.1316 415.2803,89.7906 C414.201091,89.7880975 413.122274,89.7859864 412.043359,89.7837769 C415.770072,90.0058587 419.486396,90.3520745 423.1881,90.9391 C439.239201,93.4850956 457.969009,94.8230613 473.286422,101.225176 C473.21681,101.148878 473.148778,101.068869 473.0816,100.9867 C474.4466,100.6967 475.4816,101.2307 476.3076,102.2847 C476.16188,102.32748 476.020877,102.358574 475.88425,102.378819 C477.62442,103.194082 479.312712,104.085178 480.9401,105.0601 C483.4131,99.7461 478.7921,101.3481 474.4961,99.3641 C469.7501,97.1731 466.0101,94.4351 462.4621,90.7031 C459.4291,87.5131 456.8331,83.5321 457.8921,78.7791 C458.4401,76.3211 461.1791,75.3441 461.6661,73.5431 C461.8321,72.9301 460.1531,70.8871 460.0841,70.0071 C459.9161,67.9011 459.9111,66.2871 460.3961,64.2141 C462.8611,53.7011 461.7971,40.2081 473.7251,35.6981 C476.3071,34.7231 476.2511,35.8081 478.1691,33.7771 C480.0251,31.8131 480.7161,28.5521 482.8391,26.4331 C486.8971,22.3811 491.9691,19.2231 497.5881,17.9771 C503.4791,16.6701 508.4691,18.6971 514.1331,18.4981 C520.2771,18.2821 524.8631,15.9191 531.2861,17.5991 Z M827.0641,657.9131 C822.8581,661.3411 818.5121,664.7151 814.1531,667.9451 C804.1811,675.3371 794.8921,683.4241 785.4451,691.4731 C776.8971,698.7541 767.7451,705.2761 758.8461,712.1091 C750.3881,718.6021 742.8601,726.2591 734.9461,733.4161 C740.1001,736.4271 745.7061,740.8671 751.9341,739.4361 C756.9891,738.2731 762.9581,733.8761 767.3181,731.0201 C777.4691,724.3731 785.9581,715.2071 794.4381,706.6351 C802.7521,698.2321 810.6941,690.0261 818.5431,681.3081 C827.3671,671.5061 833.6081,662.1641 839.5151,650.4191 C835.0171,647.4341 830.0801,655.4561 827.0641,657.9131 Z M751.6281,681.5791 C745.6981,683.5011 739.5521,684.3431 733.6411,686.1611 C728.4981,687.7431 724.0931,692.7321 720.8521,696.8761 C718.7241,699.5971 717.3291,702.7991 715.4251,705.7301 C714.3481,707.3891 710.2341,711.2911 710.28463,712.9121 C710.3511,715.0051 716.4001,720.2541 717.8241,721.8621 C720.4611,724.8401 723.1731,727.7511 725.9331,730.6151 C729.9881,722.0881 739.6881,714.9301 746.9291,709.0821 C754.4401,703.0131 762.3201,697.0061 770.0991,690.9971 C787.2751,677.7251 803.4451,664.6261 821.9951,653.1431 C820.8791,650.4631 758.5251,679.3421 751.6281,681.5791 Z M722.9201,676.5761 C717.2591,683.6041 708.6621,691.5401 706.8221,700.7531 C710.3901,696.6381 713.5441,692.1151 716.9961,687.8961 C718.4981,686.0621 720.0611,684.4271 721.7481,682.7611 C724.8381,679.7071 725.8191,679.9811 722.9201,676.5761 Z M577.0751,287.3121 C565.757298,288.159345 554.317556,290.152041 543.166981,292.602226 L542.653,292.602 C543.471,292.602 544.277,292.604 545.084,292.606 C544.442052,292.606 543.79948,292.605377 543.161701,292.603637 C540.469547,293.194981 537.792989,293.813544 535.1391,294.4491 C508.993867,300.709756 483.010965,313.17715 464.133711,332.58333 L463.5,333.2403 L463.5,333.2403 C462.62,334.6373 460.571,336.5903 460.979,338.4703 C459.700075,337.666513 459.296286,336.973422 459.423282,336.347999 C459.244189,336.607341 459.08541,336.88855 458.9501,337.1951 C464.3001,340.5571 467.7181,348.2781 471.2511,353.4901 C475.2351,359.3661 479.6961,364.8901 483.5111,370.8911 C491.8021,383.9361 499.7531,397.4091 507.2041,410.9551 C520.0991,434.3991 535.9771,456.6511 550.1601,479.3391 C564.3191,501.9911 577.8291,524.3141 591.9831,546.9351 C607.0511,571.0151 624.3361,593.7031 639.9011,617.1781 C649.1821,631.1751 659.7821,644.3051 669.2901,658.1701 C678.2871,671.2921 687.1571,684.4141 696.3221,697.4181 C701.1561,683.8421 710.5801,672.1841 723.6021,665.3161 C705.8691,640.1471 688.8991,614.6421 673.2881,588.0751 C659.8391,565.1871 647.9781,542.2261 635.4891,519.0591 C623.1861,496.2361 611.0461,473.3911 598.6121,450.5861 C592.4021,439.1961 587.1721,427.2291 581.8441,415.3291 C576.1761,402.6681 573.7941,388.5681 567.6571,376.1451 C564.7891,370.3371 560.9021,363.6331 561.2841,356.9041 C561.6441,350.5581 566.0531,344.0811 569.4431,338.9671 C571.4571,335.9321 575.3151,327.4941 579.4571,327.4531 C586.9321,327.3791 578.0751,342.6451 576.9051,345.6491 C571.5171,359.4871 579.0171,371.4521 584.6571,383.8481 C590.1641,395.9541 594.5431,408.6561 600.4031,420.6191 C602.8631,425.6411 605.3611,430.5431 607.6001,435.6381 C608.3741,437.3971 610.4981,443.1771 612.4651,443.7491 C613.5901,444.0761 619.1701,440.4651 620.0301,439.9161 C624.3971,437.1311 630.3491,432.2901 632.9701,427.7801 C635.5641,423.3161 634.5121,415.6971 633.3221,410.9231 C629.8681,397.0561 622.5951,383.8661 616.8781,370.8581 C610.8771,357.2031 604.5801,343.3731 599.4081,329.3801 C596.6131,321.8201 594.0971,314.1921 591.0411,306.7251 C589.3051,302.4801 587.4881,298.2691 585.5571,294.1091 C583.1041,288.8221 582.9181,286.8741 577.0751,287.3121 Z M376.5441,452.3471 C371.0961,454.9811 369.6521,456.3741 368.5411,462.2841 C367.3871,468.4261 367.8981,474.4871 367.2641,480.6611 L367.25985,480.70282 L367.1808,481.7874 C367.206692,481.429706 367.232699,481.07161 367.258793,480.713207 L367.2641,480.6611 C366.2761,490.2571 365.0581,499.8511 364.4711,509.3351 C363.7021,521.7351 368.2461,533.3091 373.6341,544.1271 C376.0051,548.8891 378.4221,553.5161 382.0191,557.5041 C384.2281,559.9531 386.7881,562.0311 389.3241,564.1221 C392.5331,566.7651 393.0221,568.3971 395.1161,564.8151 C397.6891,560.4111 395.6371,553.2641 394.9071,548.5131 C393.7571,541.0221 393.1601,533.8741 393.2541,526.2651 C393.542715,522.83366 393.747697,519.396908 393.940917,515.959692 C393.938258,515.681085 393.936537,515.403259 393.9349,515.1256 L393.941311,515.952691 C394.413378,507.554347 394.815519,499.15325 396.1961,490.8201 C396.6931,487.8241 397.2931,484.8411 398.0371,481.8971 C398.7151,479.2101 401.4711,474.3351 401.2501,471.6991 C401.0271,469.0401 396.8881,464.0781 396.1071,459.6581 C395.6601,457.1241 395.6551,454.4381 395.5141,451.8771 C395.3081,448.1661 396.1961,447.2671 392.9841,446.2341 C389.1451,444.9991 379.8381,450.7541 376.5441,452.3471 Z M320.2865,423.2896 C318.8275,427.7196 312.8945,432.1296 309.8285,435.4306 C301.4575,444.4456 294.9755,453.6066 288.4055,463.9256 C277.8635,480.4796 268.2555,499.7696 263.8555,519.1436 C252.6315,522.2456 256.5375,499.1526 258.0785,494.6836 C261.8605,483.7166 266.2695,472.9376 272.0075,462.8516 C277.2705,453.6016 284.4575,443.5796 291.8085,435.8716 C294.8465,432.6856 298.4265,428.8006 301.7385,425.8356 C304.6585,423.2206 311.2155,416.8586 314.8735,416.2566 C319.1445,415.5536 321.7685,418.7896 320.2865,423.2896 Z M721.2386,355.6241 C727.7876,367.7721 730.9816,382.7761 733.3406,396.2881 C735.4786,408.5301 737.1726,421.9021 736.8496,434.3321 C737.168601,436.465944 737.296739,438.610023 737.324627,440.75949 L737.2783,442.709 C737.3153,441.125 737.3533,439.541 737.3913,437.96 C738.03612,439.529912 738.114339,441.083499 737.327626,442.615113 C737.293528,445.747641 737.103981,448.888107 737.0366,452.0221 C736.9386,456.5541 737.9016,465.8121 734.8106,469.7101 C730.0976,475.6551 728.6896,464.9961 728.3966,462.0821 C727.6646,454.7901 727.5596,447.4111 726.9826,440.1031 C724.9596,414.4891 721.6496,386.1831 711.7986,362.3231 C710.8636,360.0591 709.3926,355.2091 707.5966,353.6051 C706.3246,352.4701 705.3476,353.7151 703.8826,351.7311 C702.3546,349.6631 700.1906,337.6211 702.8266,335.2871 C708.3516,330.3931 718.9716,351.4191 721.2386,355.6241 Z M272.7,415.2964 C280.54,420.7624 251.764,434.0964 247.906,436.5454 C241.009,440.9234 234.135,445.1704 227.394,449.7994 C220.313,454.6614 213.612,460.4854 206.332,464.9204 C197.208,454.1784 222.899,438.5374 230.353,434.5304 C237.925,430.4594 245.132,425.8254 252.999,422.3734 C256.76,420.7234 268.725,412.5244 272.7,415.2964 Z M495.8231,419.2471 C494.2791,419.4871 491.2951,421.3531 489.8011,421.8781 C475.0911,427.0551 458.1201,429.5071 444.5641,436.8531 C435.4101,436.9431 425.7541,442.4101 416.9771,444.9331 C413.4911,445.9351 406.5101,446.9281 403.5801,448.9221 C400.2971,451.1571 401.8641,460.3841 401.8641,464.4601 C407.5751,459.1081 414.2741,460.2041 421.8311,459.8821 C432.4601,459.4301 443.0201,458.3811 453.5921,457.7731 C464.8041,457.1281 475.7611,455.3881 487.0271,455.4321 C498.1221,455.4761 508.9781,453.1591 519.9021,455.2951 C517.9971,447.8131 511.1431,439.8011 506.9761,433.4011 C504.4101,429.4601 502.5241,424.4421 499.6071,420.7891 C497.3911,418.0131 498.9521,418.7581 495.8231,419.2471 Z M421.2009,459.8682 L417.4219,459.9302 C418.6659,458.9202 419.9299,459.1562 421.2009,459.8682 Z M756.0187,369.0985 C761.4187,384.4945 766.4067,399.5195 766.7387,416.0235 C766.8527,421.7425 767.0127,430.7645 764.5907,436.0325 C760.5607,444.7985 756.9327,437.0425 757.0947,431.0245 C755.7697,415.8945 753.9647,400.6675 750.6977,385.8145 C749.1787,378.9065 745.8237,370.1775 747.0347,363.0175 C748.8187,352.4895 754.8177,365.6745 756.0187,369.0985 Z M757.0947,431.0245 C757.0547,432.5035 757.0147,433.9835 756.9727,435.4575 C757.0117,433.9755 757.0527,432.5005 757.0947,431.0245 Z M790.8492,397.9788 C792.6052,402.5888 795.6142,413.5718 792.7122,418.1048 C788.8392,424.1538 785.9412,417.3748 784.8082,413.0308 C783.0262,406.1918 783.1552,399.0848 780.5762,392.4678 C784.5112,384.0888 788.6282,392.1438 790.8492,397.9788 Z M239.0195,391.545 C239.0195,396.382 231.6405,397.864 227.6525,399.866 C224.7155,401.34 221.2725,405.645 219.3945,402.212 C216.2395,396.441 235.1395,391.545 239.0195,391.545 Z M392.9891,97.4311 C396.3581,107.4381 398.8111,118.9171 397.3901,129.5331 C396.6591,134.9891 394.6361,140.3281 392.8081,145.4981 C391.6801,148.6901 386.9261,156.3261 388.2001,159.7911 C393.4481,158.7011 402.0741,160.5201 406.3231,157.5981 C411.1541,154.2761 410.7151,147.3371 418.3311,146.8731 C430.0181,146.1611 439.4321,156.5371 440.2481,168.1601 C440.6701,174.1761 436.2411,180.5361 431.7411,184.0891 C429.3151,186.0051 427.0121,186.6121 424.3461,187.8131 C422.575795,188.610388 422.055779,188.575529 421.938892,188.534682 L421.93485,188.53182 L421.941464,188.540268 C422.016441,188.641928 422.145829,189.110608 421.3721,190.8801 C420.4111,193.0791 420.6861,196.5641 420.4021,198.9141 C419.9861,202.3591 418.6041,206.6611 419.0581,210.0551 C419.5461,213.7111 419.3871,214.0991 423.3481,212.7961 C427.9001,211.2991 433.7391,205.0031 437.1581,201.6131 C440.5111,198.2881 443.8311,191.1581 448.6491,196.8641 C452.3441,201.2401 452.3361,212.2231 451.7711,217.6491 C450.4601,230.2581 436.0981,240.5351 426.0491,246.5241 C418.9641,250.7461 419.9801,253.5121 420.4261,261.4811 C420.7871,267.9461 421.8031,274.4621 422.6621,280.8751 C423.7011,288.6241 426.1891,288.7431 429.9921,282.9961 C432.9021,278.5981 437.6661,271.3921 443.9191,273.9151 C450.1251,276.4191 449.5921,284.4701 450.9811,289.7341 C452.9261,297.1011 452.3011,302.6451 446.0351,308.0291 C443.1901,310.4741 434.0211,314.4531 433.2411,318.4171 C432.8621,320.3441 437.3091,326.3731 438.3701,328.4331 C440.5861,332.7371 442.9081,336.9841 445.7911,340.8871 C446.7661,334.3311 452.5031,328.7741 456.0911,323.5471 C460.4241,317.2351 465.7221,312.7931 471.9371,308.2151 C474.2141,306.5401 479.9551,304.2891 477.2661,301.3801 C474.9321,298.8531 472.5021,300.7201 470.1891,296.6691 C466.3131,289.8811 465.7581,278.9481 465.4531,271.3001 C465.1821,264.4691 464.9331,254.8861 468.9921,248.9621 C473.9331,241.7501 478.8821,241.4751 486.2881,244.5481 C492.0681,246.9471 495.0991,256.2751 498.1901,261.8421 C503.4181,271.2541 503.5221,279.2491 503.5221,289.6621 C509.1181,286.5021 515.2561,285.2861 521.2901,283.4141 C525.4551,282.1211 532.8011,281.2831 535.9851,278.1671 C532.5681,276.2841 530.7441,272.1921 531.4541,268.3301 C532.6181,262.0011 535.8671,264.7551 540.6861,263.9181 C542.8461,263.5431 544.4091,261.9121 546.5821,261.6001 C548.8071,261.2821 551.1981,262.1681 553.4101,262.5101 C558.8611,263.3531 564.1711,264.6381 569.5841,265.5391 C566.5691,261.5181 563.5271,256.0451 558.6761,254.5291 C552.8301,252.7011 545.7991,252.4061 539.6921,250.8801 C531.8171,248.9131 518.2411,236.4221 529.7731,228.7081 C534.1311,225.7921 539.8591,229.4891 543.9861,225.5801 C547.8981,221.8741 546.7431,214.1711 547.7921,209.1801 C550.2111,197.6781 557.0811,187.2841 568.2611,182.8461 C572.0951,186.9381 561.1801,197.0321 559.6991,201.1961 C558.8171,203.6771 558.1421,203.4031 559.0521,205.4621 C559.6831,206.8941 562.7781,208.5131 564.1171,209.6081 L565.237691,210.524007 C568.230569,212.961878 571.277878,215.3361 574.7961,216.9921 C574.3901,211.8541 574.5861,205.3121 580.3201,203.0601 C585.2461,201.1241 591.5601,206.2081 593.1941,210.7461 C594.8621,208.3311 597.9771,203.6661 597.9781,200.5971 C599.5581,198.3141 598.9021,197.1441 596.0081,197.0871 C594.7851,196.5791 593.5391,196.1391 592.2701,195.7661 C586.8851,193.6511 582.7921,191.2841 581.0571,185.3301 C579.7611,180.8831 579.4741,176.2171 577.9521,171.8231 C578.7421,169.5391 577.9321,168.1091 575.5221,167.5331 C574.7701,166.9921 574.0191,166.4521 573.2671,165.9111 C570.7781,164.0811 568.2141,162.1591 565.8981,160.1131 C564.0751,158.5011 562.3751,155.1591 560.5371,153.9201 C560.1251,153.0591 559.5651,152.3021 558.8591,151.6511 C557.2301,152.6531 555.5961,153.6451 553.9551,154.6281 C548.2731,158.1001 542.8541,161.1831 535.9631,160.6421 C530.5831,160.2191 522.6111,158.3781 517.5941,156.3761 C512.1141,154.1891 508.3451,147.9671 504.9641,143.4311 C495.7261,150.3221 488.0581,146.6271 484.6411,135.9351 C483.1161,131.1651 482.2601,126.1091 481.8271,121.1281 C481.4741,117.0571 482.6871,113.4521 479.5681,111.2341 C475.6741,108.4641 467.1231,108.3061 462.5261,107.5681 C457.4841,106.7581 451.5381,105.3111 446.4071,106.0801 C448.6571,114.5361 452.0101,124.2791 445.6411,131.1181 C439.3491,137.8761 436.1821,141.3281 427.9791,134.0041 C421.7051,128.4011 416.5341,120.7481 411.9511,113.7231 C409.5481,110.0391 408.4791,105.2361 406.0491,101.7451 C403.2521,97.7271 397.6931,98.1521 392.9891,97.4311 Z M385.0601,99.1457177 C382.9791,99.1051 378.0451,100.0311 375.9821,100.4431 C370.3721,101.5651 364.7971,102.4771 358.9201,103.4151 C345.7441,105.5161 332.6331,108.2381 319.5181,110.5911 C307.4851,112.7501 294.1341,115.6981 282.6951,120.2781 C270.1931,125.2831 258.0571,130.1501 246.1531,136.4981 C234.2161,142.8631 223.9661,151.1581 212.5551,158.1811 C191.1641,171.3451 169.5151,184.8831 148.5351,198.8611 C135.1921,207.7501 120.9561,215.4461 108.0161,224.8351 C101.3491,229.6721 94.8591,234.7271 88.5081,239.9701 C83.8341,243.8271 75.3511,249.1421 74.1081,255.5861 C80.3721,255.5861 88.8471,244.6391 93.9541,241.2131 C97.6731,238.7181 101.8361,236.7021 105.7011,234.4301 C107.9191,233.1261 115.0071,226.3351 117.4191,226.3001 C120.8981,226.2491 121.4071,231.2201 120.5401,233.4671 C119.4161,236.3791 116.1031,238.7701 113.9021,240.8561 C106.7271,247.6571 100.7761,256.6071 96.0051,265.2531 C104.7811,262.0251 112.0591,251.4311 118.2991,244.6431 C121.5971,241.0551 138.4491,225.5831 137.2511,240.2401 C136.8081,245.6631 132.8951,249.8081 130.1671,254.2931 C127.2171,259.1441 124.1791,264.0651 121.5841,269.1111 C116.3131,279.3571 112.3301,289.8971 109.1831,301.0031 C114.6411,298.8531 116.0681,292.8401 118.6151,288.1341 C121.2081,283.3431 124.2411,278.7131 127.1531,274.1131 C133.3321,264.3511 138.7001,254.0841 145.2611,244.5571 C147.8521,240.7921 159.4291,220.9001 164.0811,223.7051 C167.2141,225.5931 168.1411,234.4781 169.0811,237.5971 C170.5691,242.5311 172.8611,247.7011 177.8181,249.9361 C178.0451,239.8581 177.6991,229.7931 177.8601,219.7411 C177.9881,211.8301 182.2681,209.5721 187.6681,204.0501 C200.1891,191.2451 216.1991,182.9851 231.0601,173.3271 C237.6741,169.0291 243.7971,163.4361 251.1021,159.8571 C259.3171,155.8331 267.2981,151.1901 275.3201,146.6821 C292.410726,137.079367 311.61703,133.530991 331.067095,135.449937 L331.0988,135.4537 C329.5538,135.3007 328.0098,135.1477 326.4648,134.9947 C327.99946,135.146676 329.53412,135.298652 331.0678,135.450628 C331.077763,135.45099 331.088432,135.452044 331.0991,135.4531 C349.5431,132.8681 370.2241,136.4421 387.2021,143.6081 C390.9211,130.7871 392.3071,117.2941 389.3701,104.1351 C388.5091,100.2751 388.6561,99.2201 385.0601,99.1457177 Z M552.25,291.2207 C551.467,291.2627 550.685,291.3037 549.892,291.3457 C550.671,291.3037 551.46,291.2627 552.25,291.2207 Z M921.8881,78.3331 C916.5251,83.1891 909.5071,87.2171 903.5841,91.2651 C898.1451,94.9821 893.0841,99.2121 887.7121,102.9271 C873.7561,112.5791 861.0051,123.9931 847.4821,134.3531 C822.0841,153.8111 795.6151,171.3701 766.5551,184.9361 C752.8531,191.3321 738.7551,196.9001 724.6781,202.3791 C710.9591,207.7181 698.0281,215.0251 682.8671,215.0791 C675.0931,215.1061 666.8881,215.3161 659.1651,214.1441 C650.8381,212.8791 642.1531,207.8931 634.5631,204.3861 C630.9951,202.7371 627.3531,201.1651 623.9211,199.2471 C620.7661,197.4841 616.5101,192.9731 613.1751,192.3901 C605.6411,191.0731 604.8701,206.5451 602.9221,211.9481 C602.2601,213.7851 600.0181,216.9871 599.9931,218.7911 C599.9441,222.1801 599.4261,220.4491 602.4521,222.6411 C605.7361,225.0201 610.2831,226.9551 613.9301,228.8281 C620.8291,232.3701 628.1901,235.5291 635.2981,238.4731 C642.9121,241.6271 650.2711,243.7081 658.5121,244.6011 C662.069477,244.986592 665.427289,245.089686 668.793141,245.11507 L668.6416,245.1802 C670.1406,244.5232 671.6416,244.0362 673.1686,245.1032 L672.036891,245.12227 C674.501102,245.119802 677.004646,245.110925 679.6271,245.1741 C678.3172,245.1421 677.0092,245.1111 675.7002,245.0791 C677.0252,244.4501 678.3392,244.3181 679.6282,245.1741 C698.8881,243.0531 715.7971,231.9801 733.8841,226.0781 C752.3181,220.0621 771.4571,211.4161 788.9681,202.3461 C805.5901,193.7351 822.2491,184.9541 839.3281,177.0621 C849.1261,172.5341 859.5431,163.1561 870.7501,166.7001 C875.9181,168.3341 880.5341,171.5241 885.8911,172.6321 C892.0551,173.9061 898.0341,174.1241 904.1331,175.9541 C903.7511,173.1191 895.7121,168.8631 893.8511,165.9211 C892.6101,163.9581 892.4341,161.7281 891.4031,159.7911 C890.4611,158.0201 889.0041,157.8701 888.6371,155.7821 C887.2221,147.7411 900.4511,139.3141 905.4551,134.8301 C921.4091,120.5281 940.1621,109.1081 956.0571,94.4121 C946.4811,94.4121 934.9161,106.6481 927.7481,112.2351 C922.9281,115.9931 918.1531,119.7571 913.0731,123.1591 C911.6811,124.0911 905.2241,129.0361 903.4511,128.4821 C898.4781,126.9301 903.2151,118.2531 905.0161,116.3111 C908.5401,112.5081 913.2901,109.4511 917.3381,106.2381 C925.8581,99.4741 933.6411,92.2611 940.8651,83.9591 C933.7371,84.3861 923.9141,96.1701 918.8731,100.8481 C913.3641,105.9601 906.0731,112.8951 898.9121,115.5771 C895.2141,116.9621 893.3791,116.5831 893.1021,112.0971 C892.7871,106.9821 896.7691,104.2881 900.2111,101.2581 C907.0731,95.2161 918.0751,86.7701 921.8881,78.3331 Z M515.1455,209.9781 C516.0985,218.4051 509.8835,228.8331 500.5635,229.1811 C490.5775,229.5521 489.9985,217.8351 490.3555,210.7211 C490.5465,206.9011 490.0795,204.6491 492.7145,202.0091 C493.8075,200.9151 496.4585,200.4461 497.7565,199.3911 C499.4275,198.0321 500.5525,196.0531 502.1945,194.6381 C510.6545,187.3451 516.1535,203.2191 515.1455,209.9781 Z M477.5107,151.7664 C480.7347,153.7714 484.2527,158.9144 485.7957,162.2334 C488.5347,168.1224 490.6887,173.7554 492.0557,180.0874 C490.5517,186.8934 483.9837,204.7524 473.5167,200.5194 C462.6527,196.1264 462.3787,182.3314 462.330471,173.0074 C462.2967,166.2174 466.0417,144.6334 477.5107,151.7664 Z M548.7061,183.1031 C548.8661,189.2961 540.8661,196.0491 535.9561,198.6681 C527.9631,202.9321 526.3491,192.2451 526.8821,186.4641 C527.4771,180.0031 530.0731,176.4271 536.0221,173.6791 C544.8561,169.5981 546.8631,175.6091 548.7061,183.1031 Z M421.925005,188.522438 C421.908165,188.508743 421.901597,188.517964 421.926319,188.529605 L421.93485,188.53182 Z M531.0781,84.2821 C528.1131,85.2221 523.6471,90.9171 521.3811,93.1931 C519.9791,94.6001 517.5751,98.9161 515.5761,99.1651 C512.6031,99.5361 512.8751,98.1321 510.8541,95.7121 C503.2411,86.5911 495.1891,86.6241 490.8171,97.6931 C493.3651,98.9561 496.0621,99.1871 498.8501,99.0901 C499.7961,99.0581 503.4331,97.9711 504.1331,98.4341 C508.0921,101.0571 502.2931,103.3241 501.4971,104.6681 C500.89295,105.687912 500.598384,106.595026 500.36225,107.40775 C500.397586,108.134917 500.431986,108.863571 500.4644,109.5957 C500.4144,108.5657 500.3664,107.5287 500.3184,106.4927 L500.360497,107.413786 C499.786115,109.391965 499.554614,110.810572 496.0381,111.9341 C492.5921,113.0351 489.6991,112.0721 486.2721,110.9941 C486.707189,117.741421 486.688914,129.76513 491.413652,135.305404 L491.6758,135.6006 L491.6758,135.6006 C493.0088,136.2106 494.3418,136.8196 495.6748,137.4296 C495.492572,137.443978 495.312752,137.453124 495.135872,137.455872 C497.42733,137.499805 500.155776,136.475417 501.7831,136.1291 C501.0781,132.7781 497.2481,121.4111 498.9791,118.9821 C502.2551,114.3891 503.6901,121.2341 504.5061,124.3301 C506.426139,131.618174 510.609822,141.191627 517.194376,145.770875 C517.12886,145.668611 517.068307,145.557044 517.0127,145.4361 C518.5817,145.7141 520.2627,145.7831 521.0437,147.5611 C520.574392,147.365639 520.058691,147.257736 519.55007,147.136157 L519.5521,147.1371 C525.8061,150.0631 537.5161,154.9281 543.7791,151.6581 C552.4431,147.1341 559.4311,139.6411 566.7441,133.3611 C561.7041,130.8711 561.0161,127.0091 564.9321,122.9631 C573.2381,131.8661 578.3191,112.7631 580.9891,106.9351 C575.8781,106.4841 571.2951,109.5591 566.0671,108.5121 C561.8091,107.6591 556.6731,106.1601 553.0231,103.7651 C548.1471,100.5641 543.8731,95.9431 539.6841,91.9411 C537.1761,89.5451 533.7711,83.4271 531.0781,84.2821 Z M377.6711,148.0411 C377.9081,149.0141 378.1401,149.9641 378.3701,150.9161 C379.7651,148.2801 379.7651,148.2801 377.6711,148.0411 Z M538.4541,146.4488 C536.3831,146.2208 528.1721,144.7528 533.4571,142.3858 C536.1551,141.1768 538.7091,143.9698 538.4541,146.4488 Z M563.14,116.8578 C564.289,119.5608 559.707,124.4038 558.421,126.7268 C556.406,130.3678 552.894,145.5918 547.209,144.0498 C540.958,144.0338 541.993,138.0798 545.429,135.1808 C546.627,134.1698 547.939,134.1218 549.127,132.8328 C550.159,131.7128 550.799,129.4678 551.486,128.0968 C553.17,124.7398 554.691,120.8488 557.356,118.1428 C559.498,115.9688 561.756,113.6058 563.14,116.8578 Z M532.9238,113.2266 C535.9578,113.5806 533.9788,115.0296 535.5358,116.3206 C536.577675,117.184037 536.738788,117.610756 536.651495,117.806597 L536.63885,117.82882 L536.716123,117.824171 C537.129321,117.800617 537.885581,117.815225 539.2018,117.9386 C542.0888,118.2086 550.9688,115.6196 545.3258,121.3296 C544.0978,122.5726 536.7098,126.0456 535.0648,125.2526 C531.3958,123.4856 532.9528,116.2906 532.9238,113.2266 Z M536.63885,117.82882 C535.90216,117.88707 536.481842,118.076843 536.636617,117.834268 L536.63885,117.82882 Z M294.4072,117.0157 C293.6192,117.0377 292.8302,117.0597 292.0322,117.0807 C292.8172,117.0577 293.6122,117.0367 294.4072,117.0157 Z M416.7372,89.9543 C417.9902,90.1193 419.2422,90.2833 420.4932,90.4483 C419.2402,90.2833 417.9882,90.1193 416.7372,89.9543 Z" fill="#000000"></path></g></g></svg>