<svg xmlns="http://www.w3.org/2000/svg" viewBox="0 0 1024 768" version="1.1"><g id="react-group-151" stroke="none" stroke-width="1" fill="#FFFFFF00" fill-rule="evenodd"><g id="react-group-152"><rect id="react-rect-154" x="0" y="0" width="1024" height="768"></rect><path d="M367.1882,255.4249 C375.7092,277.1989 384.2282,298.9729 392.7492,320.7469 C395.9002,328.7989 394.0892,338.5529 394.3702,347.0929 C394.9392,364.4799 395.7502,381.7669 404.3102,397.2629 C412.3002,411.7309 422.1342,425.3269 432.1882,438.4249 C445.8342,419.0469 466.9862,403.8959 487.3302,392.4579 C501.3462,384.5779 516.6622,377.5749 532.7292,375.3049 C537.7242,374.5989 543.2342,374.1209 548.1882,375.4249 C547.5182,367.7629 547.3942,359.9819 547.9722,352.3129 C548.8782,340.2949 552.0172,332.1349 561.1412,324.1099 C565.7822,320.0289 570.7812,316.3499 575.8742,312.8559 C577.6912,311.6089 583.0442,309.3979 584.1382,307.4549 C585.1002,305.7479 584.2302,300.8309 584.3582,298.8119 C584.8092,291.7379 585.9042,284.6459 587.9772,277.8579 C591.8982,265.0249 598.8462,253.1719 603.1882,240.4249 C596.7222,239.5009 590.2552,238.5779 583.7902,237.6539 C579.4122,237.0279 576.5142,235.1839 573.7072,238.3869 C563.9852,249.4749 555.6912,262.2459 546.8052,274.0129 C540.9462,281.7719 535.2442,289.5689 528.6102,296.7019 C518.0082,308.0999 498.9282,326.5549 483.2852,312.1919 C475.2522,304.8179 474.0322,292.1529 473.8722,281.9289 C473.6552,268.0119 475.7762,254.0919 478.1882,240.4249 C454.5252,238.1709 430.1432,242.0419 406.9382,246.4249 C393.5972,248.9449 380.2922,251.8629 367.1882,255.4249" id="react-path-155" fill="#714dd2"></path><g id="react-group-153" transform="translate(78.999666, 47.000053)" fill="#000000"><path d="M419.775434,125.943647 C402.354434,125.943647 394.796434,148.992647 415.793434,148.775647 C432.173434,148.605647 440.812434,125.943647 419.775434,125.943647 L419.775434,125.943647 Z M413.107434,153.182647 C386.960434,153.182647 396.550434,121.697647 419.874434,121.615401 C448.652434,121.513647 435.936434,153.178647 413.107434,153.182647 L413.107434,153.182647 Z M697.628434,558.342647 C687.022434,560.537647 676.368434,562.816647 666.047434,566.138647 C659.716434,568.176647 652.536434,574.012647 649.111434,565.475647 C647.692434,561.940647 647.118434,558.194647 645.403434,554.763647 C643.429434,550.812647 640.835434,547.189647 638.087434,543.746647 C631.829434,535.909647 625.284434,527.666647 618.167434,520.629647 C604.350434,506.967647 591.393434,491.899647 574.619434,482.007647 C570.309434,479.466647 566.729434,475.393647 562.575434,472.464647 C558.110434,469.317647 553.629434,466.198647 549.050434,463.218647 C539.673434,457.116647 530.116434,451.281647 520.425434,445.692647 C525.303434,439.778647 532.035434,435.795647 538.281434,431.514647 C544.963434,426.933647 551.535434,422.144647 558.129434,417.444647 C561.019434,415.385647 562.423434,414.855647 565.646434,416.624647 C568.612434,418.253647 571.516434,420.296647 574.349434,422.150647 C581.299434,426.697647 587.476434,432.053647 593.009434,438.244647 C604.927434,451.579647 618.872434,462.344647 632.141434,474.242647 C645.605434,486.315647 659.020434,499.004647 670.459434,513.047647 C676.588434,520.571647 682.624434,528.420647 687.938434,536.545647 C690.746434,540.838647 693.128434,545.367647 695.577434,549.867647 C696.529434,551.618647 701.585434,557.523647 697.628434,558.342647 L697.628434,558.342647 Z M514.102434,434.102647 C513.778434,434.879647 513.051434,435.563647 512.213434,434.991647 C511.987434,434.836647 512.629434,431.172647 512.664434,430.732647 C512.918434,427.574647 512.967434,424.402647 512.919434,421.236647 C512.828434,415.264647 512.318434,409.310647 511.933434,403.351647 C511.154434,391.281647 511.025434,379.163647 509.622434,367.139647 C512.617434,368.621647 516.702434,370.773647 518.793434,373.496647 C520.508434,375.731647 520.251434,377.685647 520.280434,380.428647 C520.371434,388.713647 521.666434,396.956647 522.263434,405.212647 C522.504434,408.546647 522.650434,411.874647 523.522434,415.113647 C524.258434,417.851647 525.925434,420.892647 525.195434,423.794647 C523.947434,428.746647 517.615434,431.069647 514.102434,434.102647 L514.102434,434.102647 Z M530.553434,382.310647 C534.183434,384.791647 538.337434,386.231647 539.084434,391.048647 C539.806434,395.714647 538.814434,399.992647 540.423434,404.575647 C541.379434,407.293647 543.423434,410.619647 541.754434,413.275647 C540.011434,416.046647 535.638434,417.459647 533.097434,419.389647 C532.594434,413.344647 533.019434,407.267647 532.578434,401.220647 C532.117434,394.896647 530.553434,388.670647 530.553434,382.310647 L530.553434,382.310647 Z M548.600434,396.216647 C551.762434,398.754647 554.924434,401.291647 558.086434,403.829647 C554.923434,405.551647 551.762434,407.274647 548.600434,408.997647 L548.600434,396.216647 Z M501.716434,444.761647 C499.384434,446.650647 495.384434,444.427647 493.385434,443.053647 C490.271434,440.912647 489.723434,438.994647 490.020434,435.286647 C490.755434,426.107647 489.072434,417.249647 487.560434,408.190647 C484.167434,387.860647 481.408434,367.380647 479.765434,346.831647 C485.669434,349.667647 493.465434,352.847647 497.157434,358.583647 C499.542434,362.287647 498.843434,367.024647 498.729434,371.235647 C498.574434,376.980647 498.093434,382.716647 498.105434,388.465647 C498.129434,399.773647 499.396434,411.075647 499.714434,422.380647 C499.848434,427.122647 499.832434,431.988647 502.100434,436.291647 C502.611434,437.259647 505.251434,440.130647 505.323434,440.924647 C505.457434,442.403647 502.811434,443.859647 501.716434,444.761647 L501.716434,444.761647 Z M472.997434,430.866647 C465.487434,426.959647 464.545434,416.918647 462.772434,409.575647 C460.301434,399.339647 457.927434,388.889647 456.496434,378.451647 C455.088434,368.188647 455.347434,357.786647 453.745434,347.539647 C453.393434,345.290647 451.154434,340.293647 452.096434,338.059647 C453.288434,335.235647 457.741434,335.308647 460.249434,334.879647 C462.545434,334.485647 466.853434,332.033647 468.335434,334.102647 C469.567434,335.822647 468.379434,339.750647 468.088434,341.594647 C466.740434,350.189647 468.088434,358.858647 469.068434,367.456647 C471.575434,389.431647 473.619434,411.410647 477.353434,433.229647 C475.902434,432.440647 474.463434,431.628647 472.997434,430.866647 L472.997434,430.866647 Z M460.186434,453.224647 C459.967434,449.317647 459.750434,445.410647 459.531434,441.504647 C461.813434,442.363647 464.094434,443.222647 466.377434,444.082647 C464.581434,447.291647 462.976434,450.727647 460.186434,453.224647 L460.186434,453.224647 Z M452.213434,462.953647 C450.084434,465.167647 448.198434,468.071647 445.258434,469.292647 L445.258434,437.793647 C447.752434,438.162647 450.555434,437.502647 451.576434,440.237647 C452.356434,442.328647 451.309434,445.573647 451.610434,447.864647 C452.105434,451.641647 455.346434,459.696647 452.213434,462.953647 L452.213434,462.953647 Z M437.577434,416.620647 C435.390434,399.015647 434.750434,381.258647 431.898434,363.730647 C431.253434,359.762647 430.515434,355.913647 429.546434,352.013647 C428.932434,349.548647 427.657434,346.546647 429.245434,344.231647 C431.691434,340.665647 438.553434,340.768647 442.299434,339.883647 C441.848434,367.487647 443.143434,395.637647 452.798434,421.794647 C449.615434,421.427647 438.115434,420.956647 437.577434,416.620647 L437.577434,416.620647 Z M436.346434,477.001647 C432.259434,479.960647 428.559434,484.249647 423.539434,485.629647 C423.226434,473.107647 423.041434,460.577647 422.556434,448.061647 C422.443434,445.149647 422.366434,442.210647 422.069434,439.309647 C421.943434,438.074647 421.114434,435.532647 421.710434,434.292647 C423.236434,431.116647 428.833434,433.282647 431.146434,434.720647 C434.334434,436.701647 433.978434,439.966647 433.928434,443.464647 C433.866434,447.926647 433.936434,452.215647 434.265434,456.680647 C434.556434,460.638647 434.925434,464.471647 435.622434,468.371647 C435.855434,469.678647 437.719434,476.006647 436.346434,477.001647 L436.346434,477.001647 Z M416.728434,490.574647 C411.770434,493.291647 409.939434,488.106647 407.667434,484.691647 C406.108434,482.347647 403.618434,480.122647 402.989434,477.279647 C402.356434,474.419647 403.772434,471.526647 404.012434,468.703647 C404.590434,461.920647 402.391434,454.923647 401.537434,448.238647 C400.567434,440.644647 400.212434,432.941647 400.212434,425.289647 C403.958434,426.990647 410.663434,427.059647 412.010434,431.672647 C412.609434,433.720647 411.808434,436.363647 411.685434,438.453647 C411.477434,441.973647 411.594434,445.526647 411.551434,449.053647 C411.379434,463.031647 411.949434,476.679647 419.718434,488.824647 C418.730434,489.421647 417.733434,490.005647 416.728434,490.574647 L416.728434,490.574647 Z M400.825434,499.076647 C392.436434,502.628647 384.369434,507.156647 375.513434,509.494647 C366.654434,511.832647 357.622434,513.945647 348.642434,515.765647 C329.849434,519.575647 310.543434,521.805647 291.349434,521.192647 C281.954434,520.891647 272.710434,519.655647 263.428434,518.234647 C254.029434,516.795647 245.892434,513.411647 236.997434,510.298647 C219.706434,504.247647 201.983434,500.324647 185.590434,491.875647 C181.634434,489.836647 177.785434,487.605647 173.856434,485.518647 C171.769434,484.410647 169.205434,483.934647 169.091434,481.294647 C168.974434,478.559647 171.927434,473.538647 173.098434,471.087647 C174.912434,467.292647 177.712434,464.276647 180.552434,461.215647 C185.369434,456.026647 189.891434,448.309647 195.734434,444.309647 C198.956434,442.103647 200.280434,443.451647 203.108434,445.417647 C206.831434,448.006647 211.275434,449.849647 215.443434,451.616647 C232.589434,458.886647 252.078434,463.290647 270.523434,465.442647 C288.683434,467.560647 306.637434,469.620647 324.718434,465.300647 C334.952434,462.855647 344.556434,458.743647 354.228434,454.689647 C357.426434,453.349647 361.021434,450.403647 363.944434,452.705647 C367.073434,455.170647 368.937434,460.258647 371.493434,463.377647 C377.613434,470.843647 385.209434,476.652647 391.329434,484.099647 C392.814434,485.908647 405.129434,497.254647 400.825434,499.076647 L400.825434,499.076647 Z M160.399434,463.350647 C157.685434,467.352647 155.241434,471.681647 154.466434,476.520647 C149.253434,472.339647 145.695434,470.923647 149.888434,464.316647 C153.806434,458.140647 157.289434,451.846647 160.858434,445.452647 C162.315434,442.840647 164.478434,439.777647 164.005434,436.610647 C163.466434,433.002647 160.251434,431.382647 157.124434,433.010647 C154.903434,434.166647 153.231434,437.222647 151.766434,439.180647 C149.125434,442.710647 146.826434,446.460647 144.582434,450.250647 C142.916434,453.066647 141.339434,457.626647 139.011434,459.785647 C137.444434,461.238647 135.464434,461.316647 135.048434,458.473647 C134.678434,455.946647 138.429434,451.490647 139.547434,449.480647 C141.370434,446.203647 143.376434,443.004647 144.807434,439.527647 C146.292434,435.924647 147.263434,423.991647 140.107434,429.923647 C137.637434,431.970647 135.558434,435.924647 133.697434,438.516647 C130.836434,442.503647 128.149434,446.616647 125.674434,450.854647 C121.305434,447.934647 117.147434,443.322647 111.875434,442.066647 C106.864434,440.872647 102.364434,445.419647 98.0874339,447.515647 C91.4284339,450.778647 85.1414339,454.736647 78.8004339,458.563647 C73.1414339,461.978647 67.1224339,464.652647 61.5714339,468.265647 C51.9154339,474.551647 40.1554339,482.833647 28.0274339,479.098647 C23.2224339,477.619647 17.9164339,474.574647 15.3054339,470.120647 C11.7774339,464.102647 12.6784339,456.082647 10.4084339,449.566647 C16.8374339,453.123647 23.6134339,449.017647 29.2834339,445.953647 C35.6374339,442.519647 42.2284339,439.584647 48.8964339,436.814647 C62.6794339,431.089647 76.9714339,426.090647 90.5364339,419.915647 C117.043434,407.847647 139.389434,388.388647 165.987434,376.591647 C172.243434,394.731647 182.579434,411.442647 196.274434,424.909647 C183.197434,436.611647 170.299434,448.750647 160.399434,463.350647 L160.399434,463.350647 Z M369.790434,391.084647 C366.241434,389.408647 361.922434,389.057647 364.384434,384.427647 C366.133434,381.140647 369.935434,378.852647 372.337434,376.056647 L375.298434,393.924647 C373.465434,392.973647 371.658434,391.967647 369.790434,391.084647 L369.790434,391.084647 Z M389.881434,400.928647 C389.429434,392.022647 388.314434,382.840647 385.031434,374.498647 C384.068434,372.052647 382.418434,369.170647 383.795434,366.626647 C385.202434,364.026647 389.342434,362.604647 391.897434,361.518647 C393.844434,376.693647 394.782434,392.133647 399.296434,406.841647 C395.967434,405.927647 390.113434,405.481647 389.881434,400.928647 L389.881434,400.928647 Z M392.643434,461.994647 C392.661434,462.263647 392.677434,462.531647 392.694434,462.800647 C389.277434,461.113647 385.456434,458.504647 383.678434,455.000647 C381.814434,451.325647 382.810434,447.100647 382.834434,443.171647 C382.860434,438.635647 382.087434,434.247647 381.248434,429.810647 C380.300434,424.805647 380.891434,420.113647 381.211434,415.080647 C383.955434,416.935647 388.078434,418.243647 389.886434,421.198647 C391.778434,424.290647 390.690434,428.320647 390.316434,431.678647 C389.204434,441.663647 390.030434,452.291647 392.643434,461.994647 L392.643434,461.994647 Z M424.618434,415.818647 C418.022434,414.893647 414.512434,413.558647 413.352434,406.704647 C411.927434,398.288647 410.426434,389.920647 409.274434,381.460647 C408.203434,373.603647 404.520434,365.457647 404.153434,357.621647 C403.894434,352.105647 413.159434,350.141647 417.355434,348.088647 C419.597434,370.680647 420.712434,393.421647 424.618434,415.818647 L424.618434,415.818647 Z M357.248434,379.223647 C356.515434,380.905647 355.905434,382.638647 355.239434,384.347647 C350.582434,377.435647 345.992434,370.670647 340.569434,364.326647 C335.546434,358.448647 331.359434,352.446647 328.785434,345.108647 C325.994434,337.155647 323.436434,328.713647 322.594434,320.300647 C321.745434,311.818647 322.525434,303.117647 322.720434,294.613647 C322.834434,289.672647 325.601434,277.197647 321.726434,273.171647 C320.303434,271.692647 318.054434,272.193647 316.444434,270.824647 C314.238434,268.949647 313.525434,265.106647 312.614434,262.529647 C306.870434,246.292647 301.808434,229.563647 293.349434,214.468647 C304.630434,209.640647 317.396434,207.214647 329.281434,204.261647 C341.761434,201.160647 354.724434,199.245647 367.534434,198.179647 C373.719434,197.665647 379.914434,197.447647 386.120434,197.493647 C391.156434,197.531647 396.194434,196.689647 394.488434,203.104647 C391.909434,212.797647 390.041434,222.727647 390.163434,232.804647 C390.340434,247.518647 394.107434,267.047647 409.100434,273.753647 C432.454434,284.197647 450.874434,259.101647 462.832434,243.191647 C471.190434,232.070647 479.250434,221.073647 486.465434,209.136647 C488.824434,205.234647 490.840434,199.218647 495.335434,197.271647 C500.912434,194.856647 508.957434,196.530647 514.850434,196.530647 C514.403434,203.637647 513.950434,209.588647 510.869434,216.126647 C507.883434,222.461647 505.439434,228.839647 503.430434,235.549647 C501.508434,241.967647 500.636434,247.960647 499.839434,254.515647 C499.130434,260.340647 493.166434,258.282647 488.902434,259.952647 C478.899434,263.870647 473.509434,275.735647 469.552434,284.886647 C467.024434,290.733647 464.413434,296.719647 463.335434,303.039647 C462.045434,310.600647 462.974434,318.294647 463.265434,325.896647 C461.539434,326.263647 459.647434,324.868647 458.020434,324.483647 C455.539434,323.897647 452.831434,323.879647 450.303434,324.044647 C444.733434,324.409647 439.085434,325.404647 433.650434,326.644647 C421.898434,329.326647 410.786434,334.164647 400.143434,339.744647 C382.892434,348.788647 365.296434,360.746647 357.248434,379.223647 L357.248434,379.223647 Z M299.404434,262.900647 C281.763434,268.971647 263.857434,274.631647 245.458434,277.918647 C236.409434,279.534647 227.355434,279.189647 218.213434,278.918647 C214.012434,278.793647 210.363434,278.100647 206.291434,277.236647 C203.192434,276.578647 198.023434,274.973647 195.146434,276.823647 C193.470434,271.303647 184.615434,271.201647 180.075434,270.312647 C176.381434,269.589647 173.129434,267.726647 169.500434,266.851647 C168.138434,266.523647 166.811434,266.579647 165.606434,265.891647 C164.449434,265.231647 163.796434,263.732647 162.592434,263.147647 C160.862434,262.307647 158.761434,262.251647 157.486434,261.055647 C154.530434,258.284647 151.223434,255.817647 148.296434,253.001647 C145.340434,250.160647 143.938434,246.488647 141.922434,242.964647 C139.566434,238.842647 135.907434,234.786647 134.170434,230.399647 C134.933434,230.923647 135.691434,231.453647 136.445434,231.991647 C136.032434,226.831647 134.617434,222.294647 134.976434,216.946647 C135.154434,214.307647 134.886434,212.615647 134.552434,210.119647 C134.297434,208.213647 134.545434,206.644647 134.573434,204.510647 C134.649434,198.811647 136.531434,193.594647 137.426434,188.030647 C137.724434,186.182647 137.881434,184.199647 137.962434,182.370647 C138.035434,180.699647 136.995434,178.475647 137.192434,176.674647 C137.973434,177.071647 138.677434,177.576647 139.303434,178.190647 C137.549434,173.901647 143.180434,168.801647 143.804434,164.706647 C144.743434,158.547647 138.879434,156.985647 133.921434,157.722647 C127.248434,158.714647 121.084434,162.657647 115.111434,165.542647 C106.933434,169.494647 98.7994339,173.464647 90.7854339,177.743647 C81.3844339,182.762647 73.1764339,189.419647 63.9224339,194.542647 C62.7504339,195.191647 58.4354339,197.993647 57.6534339,195.656647 C56.9594339,193.584647 61.7804339,189.833647 62.9514339,188.755647 C68.9654339,183.217647 75.7104339,178.310647 82.4584339,173.705647 C87.1194339,170.523647 92.0034339,167.678647 96.7754339,164.668647 C101.902434,161.434647 109.088434,157.786647 111.100434,151.607647 C112.756434,146.523647 110.833434,141.903647 105.101434,143.363647 C97.6834339,145.253647 90.2544339,150.451647 83.4444339,153.904647 C76.6414339,157.355647 69.7344339,160.616647 62.9734339,164.147647 C61.4654339,164.934647 55.6764339,169.006647 56.6514339,165.753647 C57.4394339,163.122647 61.9904339,159.948647 63.9534339,158.150647 C66.8604339,155.485647 69.9234339,152.994647 73.0774339,150.627647 C79.7434339,145.624647 86.8264339,141.194647 94.0194339,136.997647 C98.4314339,134.423647 103.181434,131.707647 103.415434,125.982647 C103.814434,116.161647 94.8974339,121.373647 89.7524339,123.321647 C82.8694339,125.925647 75.7374339,127.800647 68.8374339,130.361647 C62.5464339,132.695647 56.1934339,135.230647 49.4854339,136.083647 C46.0534339,136.520647 40.9474339,136.651647 41.7734339,131.858647 C42.6604339,126.722647 49.9954339,123.195647 54.0024339,120.904647 C60.8594339,116.983647 67.8864339,115.490647 75.5014339,113.781647 C83.7924339,111.920647 91.9694339,109.917647 100.354434,108.475647 C117.344434,105.552647 133.697434,104.519647 150.861434,106.080647 C158.728434,106.795647 166.723434,106.029647 174.503434,106.749647 C179.676434,107.227647 183.558434,110.447647 186.370434,114.613647 C193.221434,124.767647 196.098434,138.612647 194.997434,150.610647 C193.400434,167.992647 185.816434,182.642647 179.334434,198.469647 C174.403434,210.508647 170.724434,227.236647 183.947434,235.435647 C190.191434,239.307647 197.241434,239.037647 204.234434,238.019647 C213.669434,236.645647 222.963434,234.460647 232.182434,232.062647 C250.400434,227.323647 268.439434,221.999647 286.425434,216.453647 C287.217434,219.587647 304.394434,261.183647 299.404434,262.900647 L299.404434,262.900647 Z M397.234434,235.495647 C397.900434,226.179647 398.232434,216.991647 399.871434,207.776647 C400.405434,204.776647 400.644434,201.444647 403.259434,199.460647 C405.843434,197.499647 409.680434,197.436647 412.621434,196.226647 C420.429434,193.012647 426.811434,185.627647 432.713434,179.808647 C438.807434,173.800647 442.767434,166.955647 445.640434,158.928647 C447.939434,152.508647 451.585434,142.370647 447.329434,136.056647 C444.015434,131.141647 438.614434,129.415647 440.314434,122.335647 C441.768434,116.283647 447.787434,112.876647 453.014434,116.948647 C456.281434,119.492647 459.952434,125.671647 459.952434,117.271647 C473.882434,120.355647 488.277434,115.482647 500.448434,108.871647 C502.827434,107.578647 505.744434,105.526647 508.163434,107.563647 C509.761434,108.909647 510.281434,111.560647 512.032434,113.054647 C513.861434,114.615647 516.732434,115.482647 517.297434,118.094647 C517.733434,120.107647 516.463434,123.243647 515.919434,125.104647 C514.534434,129.846647 512.667434,134.694647 508.874434,138.011647 C507.232434,139.447647 501.596434,144.304647 499.484434,142.249647 C497.044434,139.876647 502.338434,132.181647 495.611434,136.587647 C493.204434,138.164647 492.458434,138.240647 491.432434,141.120647 C490.227434,144.503647 489.678434,148.094647 489.200434,151.636647 C486.585434,150.781647 482.432434,147.998647 479.759434,150.021647 C477.228434,151.938647 478.564434,155.949647 480.647434,157.616647 C482.785434,159.327647 487.142434,159.647647 489.642434,158.547647 C493.639434,156.788647 493.658434,152.292647 494.512434,148.599647 C496.770434,150.236647 498.281434,153.140647 501.526434,152.583647 C491.664434,164.276647 478.678434,172.374647 463.254434,172.400647 C456.280434,172.412647 453.646434,175.093647 452.255434,181.892647 C450.835434,188.837647 450.874434,196.409647 450.865434,203.454647 C450.857434,209.203647 451.066434,215.086647 452.822434,220.610647 C453.985434,224.271647 456.254434,227.838647 457.689434,221.851647 C458.461434,218.637647 457.913434,214.946647 457.881434,211.657647 C457.863434,209.589647 457.167434,205.813647 458.520434,204.111647 C460.023434,202.219647 463.511434,203.262647 465.603434,203.242647 C469.995434,203.200647 474.198434,201.560647 478.593434,201.560647 C472.099434,211.126647 464.743434,220.070647 458.526434,229.829647 C452.170434,239.808647 444.444434,249.181647 435.081434,256.507647 C427.259434,262.627647 416.369434,265.786647 407.489434,259.825647 C399.871434,254.712647 396.604434,244.304647 397.234434,235.495647 L397.234434,235.495647 Z M518.250434,147.809647 C521.086434,151.855647 511.935434,159.820647 508.425434,159.759647 C509.321434,158.318647 516.476434,145.278647 518.250434,147.809647 L518.250434,147.809647 Z M524.483434,203.197647 C525.524434,200.206647 531.408434,200.453647 533.850434,200.373647 C539.175434,200.198647 544.510434,200.185647 549.840434,200.021647 C564.411434,199.575647 578.973434,198.523647 593.558434,198.756647 C608.656434,198.997647 623.768434,197.561647 638.839434,198.086647 C653.158434,198.584647 667.424434,199.916647 681.500434,202.613647 C707.289434,207.555647 734.098434,214.601647 754.711434,231.917647 C773.226434,247.470647 787.022434,269.978647 784.103434,294.855647 C782.302434,310.195647 781.648434,326.307647 775.837434,340.809647 C770.898434,353.134647 760.531434,360.771647 749.824434,367.870647 C749.683434,364.916647 757.552434,345.795647 749.154434,348.719647 C746.445434,349.662647 744.874434,353.391647 743.397434,355.627647 C740.807434,359.549647 738.032434,363.389647 735.223434,367.159647 C730.126434,374.003647 724.274434,380.475647 716.755434,384.705647 C713.843434,386.344647 704.578434,391.166647 702.931434,385.877647 C701.567434,381.496647 710.413434,372.624647 712.496434,369.271647 C714.342434,366.298647 715.820434,363.427647 715.126434,359.888647 C714.858434,358.525647 714.036434,357.272647 713.729434,355.908647 C713.481434,354.804647 713.769434,353.114647 713.270434,352.106647 C709.930434,345.362647 706.370434,357.043647 705.314434,359.151647 C701.660434,366.448647 693.151434,371.198647 686.531434,375.382647 C678.297434,380.586647 670.150434,386.224647 660.590434,388.684647 C666.573434,378.440647 672.688434,368.262647 678.121434,357.709647 C683.179434,347.883647 686.377434,336.514647 692.287434,327.397647 C693.285434,325.857647 693.963434,324.189647 694.754434,322.344647 C695.247434,321.195647 695.988434,317.280647 696.640434,316.594647 C697.010434,316.204647 699.078434,316.056647 699.889434,315.267647 C700.889434,314.297647 701.450434,312.760647 701.958434,311.498647 C702.561434,309.998647 704.872434,304.776647 704.265434,303.078647 C704.138434,302.723647 702.486434,302.877647 702.200434,302.222647 C701.864434,301.454647 702.108434,300.894647 702.073434,300.111647 C701.994434,298.305647 703.137434,296.941647 701.787434,295.214647 C708.613434,295.214647 702.252434,276.858647 701.085434,273.521647 C699.788434,269.812647 697.614434,267.148647 696.613434,263.530647 C695.392434,259.116647 691.998434,255.247647 688.968434,251.914647 C685.937434,248.579647 682.774434,244.602647 679.363434,241.700647 C675.830434,238.694647 671.060434,236.993647 667.046434,234.717647 C665.256434,233.702647 663.341434,232.354647 661.286434,231.942647 C660.619434,232.140647 659.955434,232.347647 659.293434,232.561647 C658.522434,232.157647 657.837434,231.638647 657.239434,231.004647 C653.401434,229.009647 649.641434,228.290647 645.321434,227.768647 C623.972434,225.188647 601.089434,224.723647 579.656434,226.534647 C568.520434,227.474647 557.199434,228.546647 546.231434,230.730647 C534.873434,232.992647 523.698434,235.880647 512.215434,237.544647 C514.808434,225.605647 520.485434,214.673647 524.483434,203.197647 L524.483434,203.197647 Z M586.272434,56.7266473 C588.242434,56.4646473 587.415434,59.1496473 586.779434,59.9576473 C585.951434,59.0066473 585.782434,57.9296473 586.272434,56.7266473 L586.272434,56.7266473 Z M862.875434,624.548647 C861.262434,616.778647 855.729434,608.766647 849.351434,604.121647 C841.481434,598.388647 832.594434,598.323647 823.347434,598.790647 C812.749434,599.326647 802.456434,601.176647 792.019434,602.951647 C781.412434,604.755647 770.974434,606.307647 760.680434,609.535647 C756.556434,610.828647 752.365434,611.917647 748.298434,613.375647 C745.265434,614.463647 741.759434,616.549647 740.241434,612.588647 C737.480434,605.391647 748.098434,602.263647 752.325434,599.227647 C754.627434,597.573647 757.686434,595.183647 754.798434,592.622647 C751.384434,589.596647 745.597434,592.507647 742.116434,593.760647 C738.903434,594.917647 735.643434,595.318647 736.460434,590.185647 C737.003434,586.776647 741.428434,584.566647 743.904434,582.575647 C746.950434,580.126647 757.643434,572.912647 750.783434,569.255647 C743.480434,565.363647 739.380434,575.074647 733.141434,575.574647 C727.649434,576.014647 727.684434,562.507647 726.148434,558.808647 C722.270434,549.465647 712.560434,559.688647 708.198434,554.054647 C706.399434,551.731647 707.020434,547.550647 706.348434,544.827647 C705.242434,540.343647 702.677434,535.943647 700.606434,531.834647 C696.020434,522.743647 690.723434,514.009647 684.796434,505.730647 C678.876434,497.460647 672.317434,490.349647 664.853434,483.472647 C657.367434,476.575647 650.842434,468.738647 643.480434,461.716647 C628.825434,447.739647 611.935434,436.237647 596.918434,422.602647 C593.452434,419.454647 590.148434,416.172647 586.100434,413.757647 C582.384434,411.541647 576.240434,410.346647 573.279434,407.193647 C571.354434,405.144647 571.671434,402.262647 570.736434,399.740647 C569.154434,395.467647 565.352434,392.574647 562.097434,389.587647 C546.963434,375.702647 531.129434,361.907647 513.358434,351.466647 C504.739434,346.401647 496.007434,340.097647 486.760434,336.284647 C483.772434,335.051647 479.732434,334.541647 477.273434,332.284647 C474.696434,329.918647 474.210434,325.783647 473.235434,322.585647 C467.188434,302.749647 479.644434,282.207647 494.766434,269.882647 C497.456434,267.690647 501.333434,265.881647 503.062434,262.812647 C504.956434,259.450647 505.046434,255.137647 507.067434,251.719647 C510.810434,245.388647 520.994434,246.261647 527.424434,244.823647 C566.250434,236.137647 612.328434,232.773647 650.385434,246.630647 C666.377434,252.452647 680.113434,262.252647 686.230434,278.573647 C688.991434,285.939647 690.444434,293.928647 690.214434,301.801647 C689.959434,310.573647 686.748434,318.711647 683.811434,326.881647 C680.280434,336.705647 676.329434,346.384647 671.754434,355.771647 C667.626434,364.244647 662.393434,371.871647 657.835434,380.070647 C655.004434,385.163647 650.514434,394.554647 656.992434,398.769647 C662.158434,402.130647 670.359434,400.165647 675.455434,397.707647 C683.077434,394.030647 688.713434,387.430647 695.384434,382.404647 C695.413434,387.384647 690.984434,391.844647 693.002434,396.882647 C695.006434,401.887647 700.445434,401.238647 704.742434,400.017647 C709.649434,398.622647 714.736434,396.456647 719.226434,394.049647 C724.900434,391.008647 728.981434,386.345647 733.801434,382.209647 C742.269434,374.944647 753.521434,372.510647 762.590434,366.211647 C771.964434,359.700647 778.440434,349.844647 782.392434,339.270647 C786.968434,327.023647 788.839434,313.891647 790.416434,300.977647 C791.975434,288.201647 792.739434,275.608647 788.508434,263.235647 C780.462434,239.703647 764.135434,221.147647 742.191434,209.508647 C695.886434,184.947647 643.580434,185.952647 592.724434,187.300647 C578.786434,187.670647 564.835434,187.857647 550.917434,188.770647 C544.519434,189.190647 538.107434,189.712647 531.752434,190.574647 C529.814434,190.837647 525.476434,192.319647 523.749434,190.731647 C522.417434,189.507647 523.198434,186.931647 521.990434,185.454647 C519.116434,181.942647 512.704434,182.845647 508.876434,183.313647 C504.041434,183.902647 498.346434,184.006647 493.999434,186.362647 C489.820434,188.627647 488.366434,193.372647 483.187434,193.443647 C477.428434,193.521647 471.410434,192.152647 465.608434,191.932647 C461.044434,191.759647 456.993434,190.187647 461.365434,185.188647 C464.698434,181.376647 470.281434,181.399647 474.813434,180.536647 C483.192434,178.941647 502.240434,164.930647 508.516434,174.645647 C510.239434,177.311647 510.116434,178.278647 513.427434,179.444647 C516.488434,180.523647 519.963434,181.047647 523.170434,181.573647 C529.137434,182.551647 536.076434,183.338647 541.914434,181.256647 C550.988434,178.019647 552.864434,167.825647 554.982434,159.576647 C564.673434,164.724647 579.307434,167.115647 588.876434,160.385647 C596.917434,154.729647 599.809434,142.872647 599.462434,133.565647 C599.359434,130.797647 598.992434,127.958647 598.007434,125.353647 C597.094434,122.938647 594.632434,120.427647 594.723434,117.741647 C594.803434,115.402647 597.010434,113.370647 598.023434,111.409647 C599.526434,108.499647 600.248434,105.043647 600.546434,101.799647 C601.635434,89.8906473 592.737434,83.2456473 583.487434,77.7666473 C588.920434,71.2986473 594.995434,64.8436473 594.521434,55.7826473 C594.080434,47.3276473 587.398434,41.4436473 580.507434,37.4776473 C574.344434,33.9306473 568.126434,32.5576473 561.212434,31.6976473 C558.199434,31.3226473 557.047434,31.6316473 557.528434,28.5236473 C557.909434,26.0556473 559.683434,23.8626473 560.230434,21.4196473 C563.417434,7.1846473 549.349434,1.7666473 537.965434,0.526647305 C519.219434,-1.5153527 501.838434,2.3016473 486.611434,13.3636473 C475.484434,-10.0663527 438.380434,1.4936473 428.040434,19.6516473 C426.683434,22.0326473 425.682434,24.6196473 425.214434,27.3256473 C424.902434,29.1366473 425.882434,33.4066473 424.978434,34.7826473 C423.216434,37.4656473 416.194434,34.9256473 413.719434,35.0536473 C409.185434,35.2866473 404.329434,37.6366473 400.667434,40.2006473 C385.194434,51.0366473 385.977434,73.3016473 389.692434,89.6566473 C379.746434,91.0056473 369.694434,99.2326473 369.493434,109.809647 C369.391434,115.117647 371.315434,121.105647 374.420434,125.396647 C377.598434,129.790647 383.396434,132.726647 383.991434,138.568647 C384.616434,144.714647 383.319434,148.319647 388.457434,152.953647 C392.223434,156.351647 397.205434,159.096647 401.963434,160.817647 C413.100434,164.845647 425.773434,163.417647 436.592434,159.072647 C431.093434,167.753647 422.294434,175.491647 413.723434,181.063647 C409.879434,183.563647 405.360434,186.775647 401.028434,188.330647 C396.327434,190.018647 390.507434,187.073647 385.647434,186.666647 C363.812434,184.839647 341.327434,188.812647 320.314434,194.238647 C297.572434,200.110647 275.090434,206.561647 252.518434,213.085647 C241.343434,216.315647 230.186434,219.727647 218.896434,222.536647 C210.419434,224.645647 200.976434,226.500647 192.216434,225.006647 C184.748434,223.731647 181.085434,218.695647 183.491434,211.139647 C186.661434,201.186647 192.846434,191.904647 196.679434,182.128647 C203.769434,164.045647 207.282434,143.270647 201.082434,124.443647 C198.571434,116.819647 194.998434,107.968647 188.162434,103.220647 C184.548434,100.710647 180.025434,99.2306473 176.104434,97.2476473 C171.122434,94.7276473 165.768434,92.9036473 160.379434,91.4686473 C138.728434,85.7036473 115.886434,88.3986473 94.2634339,92.8396473 C74.7324339,96.8516473 44.3904339,102.540647 35.6674339,123.468647 C32.6844339,130.624647 31.6004339,142.721647 39.0164339,147.713647 C45.3994339,152.008647 55.0354339,149.229647 61.2434339,145.986647 C55.1934339,152.945647 47.6804339,159.579647 44.7614339,168.612647 C43.7344339,171.792647 42.9434339,176.181647 45.0184339,179.129647 C48.0344339,183.413647 53.1624339,180.894647 57.2134339,179.889647 C52.4614339,186.018647 45.6184339,195.789647 50.4694339,203.623647 C55.8364339,212.289647 66.6554339,206.480647 73.3344339,202.861647 C83.2444339,197.492647 93.5784339,192.965647 103.507434,187.628647 C108.826434,184.770647 114.042434,181.737647 118.681434,177.847647 C122.522434,174.626647 125.780434,171.207647 131.081434,170.818647 C124.163434,183.877647 117.344434,197.459647 117.470434,212.602647 C117.588434,226.703647 123.124434,243.466647 130.604434,255.408647 C138.431434,267.903647 151.067434,275.595647 164.402434,281.121647 C178.923434,287.139647 193.735434,291.202647 209.508434,291.855647 C240.254434,293.128647 273.399434,285.967647 299.932434,270.247647 C301.917434,269.071647 301.988434,268.660647 303.846434,270.022647 C306.227434,271.766647 308.138434,278.049647 309.627434,280.686647 C313.992434,288.420647 312.702434,294.922647 311.877434,303.400647 C310.413434,318.458647 313.704434,333.672647 318.336434,347.927647 C322.963434,362.172647 330.654434,373.447647 340.284434,384.777647 C344.605434,389.860647 349.098434,393.873647 354.935434,397.134647 C361.282434,400.681647 366.693434,403.771647 369.156434,410.990647 C371.208434,417.008647 370.875434,422.151647 368.022434,427.816647 C367.284434,429.281647 365.868434,433.762647 364.516434,434.783647 C363.228434,435.757647 362.887434,434.886647 361.693434,435.203647 C359.514434,435.781647 358.892434,436.104647 357.131434,437.775647 C352.421434,442.245647 345.450434,443.428647 339.349434,445.252647 C330.956434,447.763647 322.317434,450.200647 313.527434,450.644647 C298.387434,451.410647 281.087434,451.322647 266.511434,446.960647 C251.831434,442.566647 236.617434,440.038647 222.493434,433.900647 C216.071434,431.109647 213.111434,429.681647 211.748434,422.692647 C211.024434,418.984647 209.987434,418.694647 206.880434,417.628647 C203.312434,416.402647 201.883434,414.716647 199.780434,411.472647 C196.017434,405.670647 192.434434,399.779647 188.937434,393.815647 C184.556434,386.346647 179.074434,379.489647 174.952434,371.891647 C172.488434,367.351647 170.617434,359.369647 164.200434,359.191647 C160.391434,359.086647 156.242434,361.856647 152.820434,363.265647 C148.648434,364.983647 144.442434,366.617647 140.279434,368.357647 C124.254434,375.057647 109.944434,385.121647 95.3004339,394.349647 C79.3174339,404.420647 61.0384339,411.540647 44.1164339,420.023647 C36.2204339,423.981647 28.6804339,428.526647 21.4634339,433.620647 C16.7964339,436.912647 7.68543385,440.505647 8.36743385,447.045647 C6.05843385,445.784647 3.16943385,443.583647 0.960433853,446.204647 C-0.863566147,448.367647 0.387433853,452.345647 0.846433853,454.806647 C2.35543385,462.902647 4.15043385,471.151647 9.08443385,477.938647 C16.8994339,488.689647 31.7944339,497.505647 45.3674339,495.569647 C61.9594339,493.203647 75.2664339,481.401647 89.5244339,473.648647 C94.7324339,470.816647 99.9604339,468.179647 104.893434,464.891647 C107.800434,462.954647 112.920434,458.776647 116.739434,459.279647 C122.565434,460.046647 117.694434,466.939647 116.098434,469.626647 C114.409434,472.472647 112.998434,475.471647 111.490434,478.418647 C109.799434,481.719647 106.988434,485.405647 106.019434,488.982647 C105.406434,491.246647 105.705434,494.680647 108.523434,495.246647 C111.389434,495.823647 113.842434,492.112647 115.296434,490.273647 C117.692434,487.241647 119.687434,483.923647 121.744434,480.659647 C123.109434,478.492647 124.794434,474.361647 127.099434,473.006647 C133.070434,469.497647 126.540434,480.749647 125.468434,482.285647 C124.123434,484.214647 122.173434,486.542647 121.848434,488.923647 C121.369434,492.427647 124.223434,495.809647 127.891434,494.970647 C130.717434,494.324647 132.623434,491.380647 134.213434,489.211647 C135.235434,487.818647 138.289434,482.382647 140.269434,482.330647 C141.493434,482.299647 144.583434,486.552647 145.537434,487.474647 C148.311434,490.155647 151.599434,491.984647 155.048434,493.655647 C171.017434,501.392647 185.537434,511.302647 202.195434,517.732647 C218.110434,523.876647 234.705434,528.717647 251.268434,532.709647 C260.004434,534.814647 268.170434,537.110647 277.178434,537.851647 C286.293434,538.600647 295.277434,538.225647 304.403434,538.037647 C323.024434,537.651647 340.572434,533.787647 358.463434,528.857647 C390.234434,520.102647 420.085434,505.733647 444.676434,483.483647 C451.032434,477.733647 456.785434,471.419647 462.225434,464.806647 C464.588434,461.934647 467.063434,459.089647 469.063434,455.950647 C470.400434,453.850647 471.615434,450.254647 473.969434,449.055647 C477.596434,447.207647 485.957434,453.056647 489.228434,454.677647 C492.810434,456.453647 496.476434,458.773647 500.379434,459.700647 C501.846434,460.048647 503.274434,460.078647 504.711434,460.577647 C506.145434,461.076647 507.837434,462.651647 509.473434,462.299647 C515.564434,460.986647 505.579434,449.255647 514.514434,455.197647 C528.786434,464.688647 542.129434,476.036647 555.582434,486.643647 C558.949434,489.298647 562.401434,491.632647 566.001434,493.959647 C569.371434,496.138647 571.954434,499.106647 575.179434,501.464647 C582.240434,506.625647 588.899434,512.135647 595.322434,518.078647 C601.686434,523.966647 607.788434,530.195647 614.512434,535.677647 C621.103434,541.051647 626.239434,547.256647 631.787434,553.660647 C637.200434,559.908647 641.240434,567.092647 645.082434,574.370647 C641.869434,573.250647 639.173434,571.339647 637.407434,575.527647 C636.268434,578.222647 637.241434,581.919647 637.975434,584.601647 C640.331434,593.200647 645.276434,600.918647 648.248434,609.308647 C651.632434,618.866647 656.632434,628.041647 659.449434,637.766647 C661.941434,646.370647 661.354434,655.895647 664.918434,664.233647 C667.844434,671.079647 678.502434,669.494647 684.657434,670.106647 C694.497434,671.084647 704.221434,672.191647 714.115434,672.498647 C734.699434,673.135647 755.549434,674.694647 776.132434,673.900647 C794.853434,673.177647 813.532434,672.028647 832.192434,670.418647 C837.298434,669.977647 848.663434,668.954647 849.838434,662.249647 C850.598434,657.918647 846.747434,658.569647 843.829434,658.839647 C839.673434,659.224647 835.471434,659.162647 831.300434,659.233647 C811.319434,659.575647 791.700434,659.849647 771.757434,658.328647 C751.362434,656.773647 730.981434,656.387647 710.573434,655.629647 C701.375434,655.287647 692.439434,655.124647 683.268434,655.541647 C680.530434,655.665647 677.166434,655.994647 675.634434,653.342647 C674.096434,650.678647 674.310434,644.343647 673.615434,641.344647 C671.193434,630.912647 665.876434,621.671647 662.300434,611.648647 C658.694434,601.536647 655.102434,591.461647 650.497434,581.747647 C665.256434,579.154647 679.994434,576.234647 694.546434,572.649647 C700.469434,571.189647 706.721434,570.213647 712.470434,568.229647 C718.825434,566.037647 718.967434,567.235647 720.178434,573.243647 C721.233434,578.478647 722.435434,582.204647 717.650434,585.690647 C712.681434,589.311647 706.598434,591.480647 702.120434,595.779647 C698.030434,599.705647 698.853434,605.329647 705.421434,604.517647 C711.919434,603.714647 719.368434,598.817647 725.254434,596.087647 C726.076434,599.648647 726.843434,602.185647 724.540434,605.260647 C722.100434,608.516647 718.382434,610.595647 715.629434,613.548647 C713.597434,615.727647 711.464434,618.923647 714.804434,621.035647 C718.239434,623.207647 721.669434,620.369647 724.238434,618.406647 C726.183434,616.919647 729.389434,613.636647 731.977434,615.478647 C734.671434,617.395647 733.245434,622.254647 734.836434,624.870647 C737.524434,629.289647 739.382434,626.019647 742.001434,624.151647 C746.215434,621.144647 754.809434,621.980647 759.829434,621.564647 C765.853434,621.065647 771.730434,619.955647 777.715434,619.216647 C784.846434,618.336647 792.030434,618.293647 799.153434,617.277647 C810.081434,615.717647 822.079434,611.268647 833.045434,614.059647 C850.142434,618.411647 858.431434,636.758647 855.718434,653.294647 C855.184434,656.553647 852.550434,663.744647 855.586434,666.537647 C858.435434,669.159647 860.484434,664.453647 861.519434,662.201647 C866.937434,650.407647 865.427434,636.848647 862.875434,624.548647 L862.875434,624.548647 Z" id="react-path-156"></path><path d="M664.397534,153.622847 C687.886534,151.236847 712.203534,156.534847 734.863534,162.318847 C755.207534,167.510847 774.987534,176.051847 788.743534,192.494847 C790.906534,195.080847 793.318534,200.752847 796.247534,202.415847 C800.738534,204.967847 800.256534,198.695847 799.133534,196.147847 C795.506534,187.921847 787.395534,179.260847 780.809534,173.334847 C765.118534,159.217847 744.182534,152.671847 723.872534,148.632847 C711.532534,146.178847 698.842534,144.801847 686.254534,144.781761 C679.980534,144.772847 673.719534,145.467847 667.597534,146.855847 C665.649534,147.297847 662.818534,147.700847 661.796534,149.723847 C660.649534,151.996847 661.672534,153.898847 664.397534,153.622847" id="react-path-157"></path><path d="M112.678834,296.664147 C119.016834,303.273147 127.512834,307.920147 136.518834,309.580147 C141.215834,310.445147 148.472834,311.750147 152.800834,309.044147 C154.988834,307.677147 156.144834,305.006147 154.738834,302.538147 C153.067834,299.605147 148.690834,299.715147 145.822834,299.311147 C135.223834,297.822147 126.518834,294.924147 118.434834,287.668147 C111.014834,281.009147 105.983834,272.503147 102.411834,263.261147 C100.748834,258.955147 100.019834,254.574147 98.9118339,250.125147 C98.2848339,247.607147 96.6358339,241.723147 93.9168339,246.001147 C89.6628339,252.695147 95.1378339,266.285147 97.5728339,272.758147 C100.943834,281.724147 106.049834,289.749147 112.678834,296.664147" id="react-path-158"></path><path d="M366.992234,54.5464473 C373.025234,48.3384473 376.011234,40.1114473 382.895234,34.4724473 C384.179234,33.4224473 389.108234,31.2144473 389.051234,29.3064473 C388.976234,26.7964473 386.066234,27.2304473 384.555234,27.7204473 C377.120234,30.1304473 363.024234,46.6064473 366.992234,54.5464473" id="react-path-159"></path><path d="M480.895634,144.433147 C483.363634,142.438147 489.333634,137.318147 488.926634,133.741147 C488.545634,130.387147 485.783634,131.232147 483.620634,132.581147 C482.689634,133.162147 480.559634,135.602147 479.165634,134.963147 C477.746634,134.314147 478.827634,134.540147 478.277634,133.329147 C477.512634,131.641147 478.763634,127.028147 475.498634,128.350147 C473.557634,129.136147 472.591634,133.730147 472.457634,135.496147 C472.120634,139.922147 475.177634,149.058147 480.895634,144.433147" id="react-path-160"></path><path d="M461.313534,159.750047 C461.733534,162.325047 465.331534,167.263047 468.380534,164.624047 C470.817534,162.516047 467.953534,160.100047 466.886534,158.067047 C466.195534,156.749047 465.264534,152.054047 463.323534,152.132047 C460.291534,152.253047 461.007534,157.875047 461.313534,159.750047" id="react-path-161"></path><path d="M450.437634,129.357947 C451.195634,126.839947 448.399634,117.087947 444.710634,120.044947 C441.698634,122.460947 445.347634,124.988947 446.732634,126.640947 C447.407634,127.446947 449.584634,132.197947 450.437634,129.357947" id="react-path-162"></path></g></g></g></svg>