<svg xmlns="http://www.w3.org/2000/svg" viewBox="0 0 1024 768" version="1.1"><g stroke="none" stroke-width="1" fill="#FFFFFF00" fill-rule="evenodd"><g transform="translate(-68.000000, -33.000000)"><rect x="0" y="0" width="1024" height="768"></rect><path d="M662,292 C654.364561,306.92835 646.297999,321.459696 638.153279,336.11628 C633.840775,343.874764 619.934526,375.965442 616.343084,377.19152 C612.475572,378.511527 588.784156,364.579685 581.984494,361.850753 C569.901667,357.000291 558.420492,352.40847 545.799391,349.417791 C531.666833,346.068931 517.422083,343.599843 502.762595,344.844707 C496.342373,345.390744 485.71519,346.943091 492.096334,337.923462 C496.747939,331.345971 501.25366,325.289469 507.571775,320.537946 C512.170434,317.078877 518.910848,310.734328 524.29486,308.42369 C529.943597,305.999085 538.274885,306.536356 544.345922,306.679127 C550.908592,306.834422 582.190317,316.594857 583.911033,306.421787 C587.101605,309.3248 588.959725,308.202019 592.615458,309.619711 C596.736351,311.217746 599.305448,314.319887 603.397347,316.193445 C606.052166,317.409505 610.945805,322.216133 613.896863,322.244937 C617.819842,322.283761 618.876223,319.035092 621.693658,316.636787 C628.00547,311.262832 636.409873,307.726115 643.258698,303.057249 C649.289396,298.944438 655.031418,294.657547 662,292 Z M593.276363,174 C592.739966,180.814897 594.578862,187.147234 594.534689,194.159427 C594.515757,197.219407 594.376925,200.27813 595.305839,203.226268 C596.140094,205.869035 595.556999,210.616717 596,213.383894 C588.19384,211.00754 573.691324,207.483239 565.72109,210.687735 C558.101723,213.751486 557.143373,227.918486 556.874543,234.808783 C556.691537,239.504941 558.776545,246.739564 557.196381,251.235913 C556.459308,253.332945 556.453217,254.009882 556.499438,254.198671 L556.50514,254.219 C556.354718,254.141522 555.742773,254.142847 553.58548,255.699589 C551.446201,257.241517 548.89295,258.09228 546.778913,259.795061 C542.934521,262.896511 542.27566,266.411099 540.378706,270.906191 C538.536023,275.271847 533.626895,279.152124 528.146807,278.993784 C532.551576,271.010189 538.668177,263.553747 535.158244,254.17651 C532.510334,247.09897 537.151526,238.793333 540.802815,232.070173 C542.011918,229.843362 555.413017,212.784198 549.474782,211.58157 C545.619032,210.799924 536.768472,228.908403 535.074718,232.070173 C530.351897,228.876986 528.230922,224.941446 531.865803,220.132187 C534.657594,216.438848 538.085489,213.280848 540.802815,209.456815 C545.215157,203.250144 549.515171,195.842102 554.755458,190.32911 C563.958775,180.649017 580.024192,174.059063 593.276363,174 Z M556.50514,254.219 C556.55684,254.254418 556.534711,254.288443 556.51169,254.236238 L556.50514,254.219 Z M716.960103,163.423211 C722.841089,169.057305 730.279918,173.730429 735.963022,179.643029 C740.937787,184.81922 747.636766,193.525658 750,200.440628 C737.873776,202.777817 717.725446,209.936497 712.896887,222.662449 C694.037652,205.349935 686.742102,237.000621 683,250.235913 C671.962754,245.459917 674.163517,229.559524 674.309723,220.276002 C674.423158,212.911911 678.90889,204.195436 668.215731,203.592007 C660.22485,203.142885 652.464621,206.397136 645.257704,209.44439 C636.264812,213.24687 626.831508,218.93533 619.567873,225.468922 L612,219.577368 C624.414854,212.607199 630.885863,199.280363 638.153279,187.07755 C640.471138,183.187252 643.567519,178.861173 645.257704,174.655989 C646.427347,171.747988 647.250382,165.878326 648.5322,163.292739 C650.548826,159.228062 670.246221,158.109021 675.464241,157.061489 C689.239057,154.296505 705.703549,152.639271 716.960103,163.423211 Z" fill="#714dd2"></path><g transform="translate(67.995213, 33.042686)" fill="#000000"><path d="M645.82574,220.711474 C650.9141,220.451246 655.979822,221.587703 661.068181,221.092389 C656.650137,217.244274 652.233351,213.397417 647.815307,209.55056 C645.863469,212.977531 645.721357,216.875931 645.82574,220.711474 L645.82574,220.711474 Z M525.108629,141.613303 C511.938757,141.671131 495.873829,148.286217 486.724591,157.94736 C481.877696,163.067703 477.872154,169.943017 473.77229,175.695703 C471.023117,179.555131 468.338083,183.280046 465.00034,186.671817 C460.133323,191.614903 461.526774,192.745074 467.010029,196.467474 C468.745554,193.215246 477.947612,175.827703 481.804754,176.609646 C487.665296,177.798903 476.346652,196.16576 475.110405,198.45376 C471.449452,205.223474 465.537347,214.679703 468.193456,221.819017 C471.698462,231.243817 466.616391,236.615589 462.203378,244.646217 C466.837734,244.780731 467.294252,242.97296 468.891439,239.020503 C470.942629,233.940389 473.181205,229.696274 477.518761,226.183817 C480.877883,223.464617 486.372456,222.31936 487.950778,219.035703 C489.902615,214.976389 488.677686,206.960846 488.836147,202.445189 C489.076354,195.583703 489.093961,179.362789 496.654815,176.314217 C504.576608,173.119817 518.820493,176.130674 526.564961,178.496617 C525.597845,172.44976 522.5481,168.499817 522.589601,161.780389 C522.634876,154.746674 524.571622,148.471017 525.108629,141.613303 L525.108629,141.613303 Z M423.932527,253.829646 C430.821808,251.648503 437.352666,249.350446 444.440652,247.864503 C451.858137,246.30816 452.353642,244.528046 456.535252,238.166903 C459.704473,233.34576 463.550296,229.586903 462.652351,223.682103 C462.076357,219.894331 460.00253,218.048846 460.626313,213.789646 C461.012405,211.149646 462.244879,208.267017 463.135279,205.756503 C464.2269,202.676503 466.489371,199.182903 461.228717,199.030789 C458.323598,198.94656 458.181486,200.479017 456.215815,203.052389 C452.587561,207.805646 448.412239,212.121417 444.551323,216.679817 C437.845656,224.594789 430.735032,233.017646 423.249635,240.343017 C415.009662,248.403817 407.897781,258.12656 402.57173,268.446446 C401.588266,270.352274 395.606991,281.577303 398.158717,283.77856 C400.501676,285.800046 413.534466,281.08576 415.911381,280.533874 C426.168588,278.152846 437.8117,277.303017 447.502974,272.978446 C452.440418,270.774674 463.3365,268.144731 467.236401,264.73536 C470.86214,261.566103 470.698649,253.888731 468.594639,249.420846 C462.706429,253.08416 420.137008,266.905189 423.932527,253.829646 L423.932527,253.829646 Z M552.093534,190.83296 C558.967723,184.623931 567.093252,179.643131 575.580978,175.95216 C583.173273,172.650903 592.604218,168.971246 601.050442,169.544503 C611.574266,170.257303 607.176344,178.734217 607.138615,185.952731 C607.089568,195.530903 602.891608,209.329303 614.328469,214.298789 C618.062364,201.035931 625.931337,169.673989 644.783168,187.052731 C649.601137,174.300274 666.784096,169.984503 678.883727,167.642446 C676.690425,161.199589 670.028774,155.367703 665.412025,150.531474 C659.635744,144.482103 655.075588,137.391817 649.289245,131.456846 C637.857415,119.736503 617.148069,123.500389 602.675296,126.421989 C597.844751,127.396274 583.839815,128.620731 581.499371,132.168389 C580.03172,134.393531 580.851693,139.829417 579.763845,142.549874 C578.264754,146.298674 575.704225,149.773417 573.649262,153.235589 C566.152547,165.868617 558.526296,178.58336 545.697242,185.81696 L552.093534,190.83296 Z M594.045459,258.890903 C587.258045,261.495703 582.265266,265.850446 576.245005,269.517531 C568.945737,273.964046 560.386327,278.12896 553.835347,283.621417 C551.43831,285.630331 550.091391,289.100046 546.782574,289.325074 C543.905123,289.521189 539.519778,286.178446 536.968052,285.009303 C532.688347,283.044389 528.599801,280.067474 524.298717,278.316274 C520.763527,276.876846 519.199039,277.171017 516.14049,274.372617 C514.425086,284.583131 483.215812,275.038903 476.668605,274.883017 C470.611873,274.739703 462.301473,275.457531 456.664788,277.89136 C451.293462,280.210789 447.094245,285.316046 442.496361,288.79456 C436.194391,293.56416 430.180418,298.387817 425.539774,304.990331 C419.173666,314.043017 428.778164,311.48096 435.183259,310.934103 C449.803174,309.684503 464.024422,313.166789 478.118649,316.527131 C490.7163,319.530446 503.158005,323.133417 515.217391,328.003589 C521.999774,330.742903 529.138066,333.26096 535.516751,336.821189 C538.879645,338.69936 544.333974,343.295474 548.192374,341.970446 C551.731337,340.756046 555.257723,330.61216 557.403235,326.560389 C561.569754,318.695703 565.952584,310.963017 570.254927,303.175017 C578.380456,288.463931 586.429269,273.876046 594.045459,258.890903 L594.045459,258.890903 Z M510.522669,453.593417 C514.705537,451.191017 521.524391,451.838446 526.149944,450.831474 C531.376642,449.69376 536.632266,447.840731 541.616242,445.908503 C546.6631,443.952389 551.432022,441.951017 556.04374,439.50336 C558.152781,438.384503 560.963578,437.281989 562.9129,435.729417 C564.483676,434.477303 565.055896,432.151589 566.504683,431.016389 C570.282595,428.053303 571.393079,429.912617 571.899903,424.196389 C572.449486,417.98736 568.965859,414.471131 564.629561,409.824731 C560.747266,405.666103 555.704181,402.071931 550.825845,399.14656 C548.667757,397.85296 546.362527,396.397189 544.160422,395.162674 C540.828968,393.292046 536.364391,390.183131 534.61629,394.197189 C538.25712,395.126217 539.059486,399.776389 535.773307,401.447131 C533.968612,402.364846 531.237045,401.017189 529.202205,401.992731 C526.060652,403.498789 523.038574,407.701417 520.349768,409.964274 C511.52374,417.395246 503.082547,420.181074 491.529984,420.778217 C467.39109,422.022789 442.112784,419.269646 418.437954,415.691817 C412.344751,414.770331 406.261608,415.768503 400.111812,415.548503 C394.128022,415.334789 387.888934,414.026103 382.007012,413.01536 C370.677049,411.069303 358.734622,409.467703 347.580727,406.603931 C334.091418,403.140503 320.555578,398.660046 307.891273,392.858331 C295.742595,387.291703 282.011822,378.094446 268.366568,377.385417 C274.189381,383.08656 282.914798,385.282789 289.918523,389.037874 C295.643242,392.105303 304.595032,394.075246 308.211968,399.130217 C310.566245,402.42016 311.747157,408.463246 313.525442,412.321417 C315.492371,416.590674 317.307127,420.927817 319.128171,425.261189 C320.956761,429.62096 322.862066,433.983246 324.347323,438.47376 C325.266649,441.259589 325.662801,447.034903 327.834723,448.940731 C331.299486,451.980503 342.896066,453.329417 347.565635,454.34016 C356.283507,456.229646 366.227564,455.978217 375.120245,456.10896 C378.795032,456.163017 382.498744,456.664617 386.010039,456.732503 C390.941195,456.826789 390.470842,455.973189 390.400415,451.692617 C390.360171,449.12176 390.411734,444.446446 393.850086,446.563474 C396.193045,448.006674 394.580768,454.396731 394.146886,456.667131 C413.774673,458.621989 434.253873,459.605074 453.788595,458.95136 C473.000107,458.307703 491.546334,455.829874 510.522669,453.593417 L510.522669,453.593417 Z M599.164001,408.537417 C602.627507,383.66736 606.848103,358.382446 611.571751,333.834217 C616.345703,309.028274 622.085513,284.44736 628.542171,259.734446 C624.277557,258.713646 620.012944,257.69536 615.74833,256.675817 C615.589869,261.882903 613.829191,266.406103 613.078388,271.589303 C612.042103,278.743703 610.06134,285.690674 608.875398,292.821189 C606.622988,306.375703 602.448923,319.63856 598.771622,332.85616 C595.023893,346.331474 593.771296,360.214103 590.327913,373.757303 C587.489449,384.914446 586.039405,397.204274 584.454795,408.674446 C580.610229,436.501303 575.132005,464.382217 570.962971,492.222903 C567.053008,518.32496 566.660629,544.957531 566.885744,571.303474 C567.024083,587.388617 569.477713,603.427246 569.349435,619.53376 C569.317995,623.515131 569.652523,627.483931 569.860032,631.459017 C570.005917,634.263703 568.499279,642.037874 569.777029,644.387474 C570.585683,645.874674 574.060507,647.246217 575.290466,649.311703 C577.236015,652.579017 577.646001,656.48496 580.771205,658.95776 C583.304066,648.74096 582.106805,635.256846 581.553449,624.830103 C581.0177,614.784274 582.057757,604.401531 582.262751,594.201074 C582.662676,574.191131 583.722856,554.474103 584.749079,534.454103 C585.873398,512.49936 589.071544,490.010331 592.19549,468.220274 C595.036469,448.407703 596.931713,428.243131 599.164001,408.537417 L599.164001,408.537417 Z M506.464307,96.6478171 C505.090978,96.5195886 503.717649,96.3926171 502.34432,96.2643886 C502.549313,99.1583314 501.938107,103.84496 503.977978,105.354789 C505.523601,106.498789 508.653835,106.122903 510.5277,106.488731 C516.669951,107.689303 523.78812,108.69376 529.885096,106.506331 C532.254466,105.656503 530.732737,104.325189 533.995022,104.878331 C537.925107,105.545874 536.490154,106.16816 537.624534,108.619589 C538.498584,110.511589 538.948815,113.731131 539.941083,116.002789 C541.269137,119.04256 543.960459,124.482217 542.80973,127.99216 C541.6917,131.404046 537.518893,132.434903 535.745639,136.29936 C534.426388,139.171931 534.738279,143.34816 534.052873,146.512389 C533.138578,150.732617 531.982818,154.936503 531.472222,159.234674 C530.829574,164.649189 531.049659,171.002789 537.7591,171.84256 C543.985612,172.623246 548.437612,170.621874 552.612934,166.08736 C560.587547,157.430674 569.692768,145.209989 574.377429,134.320617 C574.924496,133.048389 576.271415,130.925074 576.084029,129.563589 C575.713029,126.869531 575.550795,129.596274 574.696866,127.725646 C573.881923,125.936731 572.602917,124.31376 571.850856,122.328731 C569.1457,115.19696 567.227818,107.721989 566.143744,100.172846 C565.652012,96.7534171 565.487262,93.3754743 565.571523,89.9221029 C565.599191,88.7429029 566.307235,85.2027886 565.884673,84.3957029 C565.454564,83.5773029 563.210957,83.20016 562.511717,82.3880457 C561.215103,80.8832457 558.987845,76.6341029 557.551635,75.5077029 C555.784669,74.1235886 551.831947,75.2198171 551.113842,72.4666743 C549.965629,68.0603886 577.13792,60.88336 564.443432,55.0037029 C554.965954,50.61376 540.429042,72.8048457 537.115195,55.3431314 C536.540459,52.3184457 537.634595,48.2126171 536.307798,45.4406171 C534.841405,42.37696 530.849696,41.2317029 528.061537,39.7407314 C524.50371,37.8399314 520.909412,35.8863314 517.452195,33.8045029 C515.08031,32.3776457 511.663337,28.5886171 509.139279,28.2416457 C510.132805,33.3846171 508.2275,38.4823314 508.196059,43.6152457 C513.664222,42.1355886 517.427042,42.10416 522.82352,44.73536 C525.39411,45.9874743 535.077839,53.0941029 530.171835,56.5122743 C526.196476,54.1626743 521.944439,52.1248457 517.513818,50.7432457 C515.765717,50.1976457 513.583734,49.4559314 511.724961,49.4182171 C507.410042,49.3314743 508.017476,49.7827886 506.397652,53.0362743 C504.835679,56.1703314 505.171466,64.3442743 501.743174,66.3456457 C498.197923,68.4149029 500.932005,65.5184457 497.904896,66.1872457 C496.178174,66.5694171 494.296764,67.85296 492.715927,68.5783314 C494.881561,70.9291886 499.253073,73.0751314 500.689283,75.6862171 C502.78449,79.4928457 502.057581,87.3663314 502.385822,91.5312457 C505.128707,90.5494171 508.016218,90.5091886 510.796832,89.7800457 C513.410181,89.0936457 517.034662,86.1230171 517.307568,90.4903314 C517.611913,95.3567314 509.919008,96.6478171 506.464307,96.6478171 L506.464307,96.6478171 Z M542.164568,224.773303 C542.378364,220.56816 542.612283,216.364274 543.08012,212.176731 C543.395784,209.364503 546.065727,201.20816 544.556574,198.737874 C542.915371,196.05136 537.41451,195.880389 534.767205,195.235474 C529.692679,193.998446 524.825662,192.985189 519.668134,192.168046 C514.924364,191.417531 510.454757,191.259131 505.674517,191.041646 C500.469198,190.80656 499.178873,189.42496 498.028144,195.161303 C497.12391,199.671931 495.9103,204.369874 495.741778,208.988617 C495.583317,213.323246 496.892507,217.085874 492.596452,220.007474 C502.029913,220.007474 514.315673,211.608503 522.92413,219.118674 C535.237557,229.858446 513.808849,232.952274 508.15833,235.323246 C512.855568,237.606217 519.82911,239.398903 522.040018,244.613531 C524.521317,250.457989 520.92073,252.94336 515.411066,253.411017 C515.929208,255.663817 517.912486,257.127131 518.503571,259.836274 C519.368818,263.807589 516.561795,262.492617 520.143517,265.565074 C524.859618,269.609303 534.5685,272.313417 540.352327,274.889303 C541.706791,275.495246 543.077605,276.063474 544.46351,276.595246 C546.630401,278.523703 548.230103,278.156617 549.263873,275.492731 C552.230615,273.61456 554.871632,269.424503 557.503845,266.986903 C563.359357,261.563589 569.822303,256.804046 576.780754,252.888046 C573.895757,251.69376 570.446086,254.392846 567.678049,253.079131 C565.44073,252.016846 566.28334,250.084617 564.943968,248.637646 C565.480974,246.750674 564.913784,246.060503 563.242398,246.567131 C562.407334,246.656389 561.63012,246.514331 560.910757,246.143474 C559.511018,244.408617 558.882205,243.840389 558.78914,241.161417 C558.691045,238.319017 560.337279,237.315817 560.968608,235.040389 C563.022313,233.641189 562.975781,232.265874 560.829012,230.918217 C559.946157,229.475017 559.464486,227.909874 559.385256,226.221531 C558.976527,219.95216 564.69873,217.425303 569.062696,214.10896 C561.249059,213.250331 561.547117,204.08576 566.953656,200.079246 C572.557642,195.925646 584.423354,197.62656 591.199449,198.563131 C592.609249,198.756731 596.416086,200.57456 597.840978,199.415474 C598.715029,198.705189 598.097534,192.699817 598.137778,191.640046 C598.229584,189.233874 598.814381,186.365074 598.430805,183.971474 C597.628439,178.959246 599.328751,181.483589 595.720618,181.344046 C587.13354,181.010903 576.198473,188.507246 568.643907,192.041074 C560.187622,195.997303 554.753415,196.60576 554.665381,206.413989 C554.58112,215.70176 551.976574,224.955589 550.839679,234.095017 C550.342917,238.086446 549.988266,258.823017 542.68271,251.170789 C539.850534,248.202674 541.66529,243.637989 541.875313,239.977189 C542.162052,234.939817 541.992273,229.824503 542.164568,224.773303 L542.164568,224.773303 Z M69.772154,535.667246 C73.9525065,536.40896 80.7612997,534.009074 85.3214557,533.757646 C93.2960692,533.318903 101.508374,532.559589 109.320754,530.90016 C115.432822,529.601531 122.397561,528.458789 125.693801,522.542674 C128.640422,517.255131 129.681737,510.63376 131.268862,504.863474 C132.111473,501.799817 134.28591,497.357074 134.28591,494.187817 C134.28591,490.066903 133.730039,490.879017 129.432727,488.623703 C123.99349,485.769989 118.701395,481.793646 112.834564,480.174446 C111.060052,479.827474 109.284283,479.488046 107.507256,479.154903 C105.208313,477.821074 103.910442,478.477303 103.609869,481.119817 C101.366262,483.48576 100.050784,487.846789 98.1681167,490.61376 C93.8758353,496.922103 88.7786726,501.221531 82.119537,504.859703 C70.1368658,511.404389 58.9716523,516.455589 46.1375675,520.734903 C39.0646726,523.093303 32.5426184,526.402103 25.6294421,529.001874 C20.0908523,531.08496 12.4469946,531.71856 8.19244211,536.354903 C3.39207939,541.585874 10.7705777,543.487931 14.8716997,547.024274 C18.2320794,549.921989 18.297476,550.587017 22.8941031,549.180274 C26.3186218,548.131817 29.3545336,546.127931 32.6432285,544.76896 C43.9077946,540.116274 57.5417302,537.019931 69.772154,535.667246 L69.772154,535.667246 Z M327.214713,618.638674 C323.016754,617.72976 318.817537,616.822103 314.619578,615.915703 C318.748368,623.623246 327.432283,634.901074 321.199483,643.82176 C318.870357,647.154446 314.995608,648.104846 311.534618,649.795703 C307.345462,651.842331 303.478259,654.463474 299.517991,656.902331 C283.187703,666.95696 266.592056,677.153646 249.385201,685.781417 C254.771618,687.520046 263.054351,688.723131 268.601744,687.208274 C275.062174,685.443246 281.043449,681.392731 287.676174,679.621417 C299.574584,676.445874 312.099293,673.74176 324.187605,672.112503 C334.068781,670.781189 358.802534,673.789531 357.6015,658.928846 C356.460832,644.819931 348.033473,631.359703 345.525764,617.411703 C339.372195,618.778217 333.501591,618.53936 327.214713,618.638674 L327.214713,618.638674 Z M577.453584,392.818103 C582.238856,369.33216 585.097442,345.447703 590.741673,322.130217 C593.5575,310.497874 595.542035,298.705874 598.292466,287.071017 C599.57273,281.65776 600.539845,276.191703 601.786154,270.788503 C603.048812,265.318674 605.765286,260.269989 606.386554,254.61536 C601.813822,255.746789 600.756157,266.220046 599.370252,270.159931 C596.82733,277.388503 594.054262,284.334217 590.786947,291.254789 C585.592947,302.254789 580.082025,312.867589 574.22274,323.531931 C568.045276,334.780846 561.519449,345.59856 553.801391,355.870674 C551.266015,359.246103 547.825147,361.891131 546.190232,365.593417 C543.619642,371.41776 542.53934,378.359703 540.084452,384.420389 C541.81369,385.297874 546.279523,385.516617 548.399883,385.935246 C552.343801,386.713417 555.106808,387.404846 558.894781,389.280503 C565.567751,392.584274 571.174252,396.500274 575.63254,402.444046 C576.753086,399.39296 577.044856,396.047703 577.453584,392.818103 L577.453584,392.818103 Z M391.456822,572.009989 C391.377591,549.391474 391.056896,526.57936 391.427896,504.128046 C391.529764,497.893874 392.037845,491.16816 392.942079,484.98176 C393.509269,481.093417 396.849527,472.827703 394.65371,470.96336 C392.77733,469.369303 382.872259,470.419017 380.441266,470.362446 C375.726422,470.253074 371.026669,470.043131 366.303022,469.688617 C366.303022,478.071246 369.577883,487.590331 371.099612,495.882446 C372.518215,503.617646 373.684035,511.395589 374.854886,519.165989 C377.389005,535.992846 378.109625,553.052274 380.861313,569.924389 C383.35393,585.22256 386.642625,600.456617 388.456123,615.752274 C389.450907,624.148731 391.464368,632.069989 393.028856,640.461417 C393.846313,644.837531 396.825632,662.859931 400.578391,664.632503 C401.371954,658.167017 398.131049,650.36016 397.550025,643.823017 C396.951395,637.073417 396.48733,630.27856 395.393195,623.49376 C394.1079,615.528503 393.458964,607.365874 392.965974,599.30256 C392.665401,594.368274 392.573595,589.449074 392.147259,584.51856 C391.83914,580.940731 390.484676,575.518674 391.456822,572.009989 L391.456822,572.009989 Z M509.331696,269.54896 C509.487642,267.086217 503.11273,267.185531 501.92553,264.354446 C499.517174,258.605531 505.006717,259.64016 508.382188,259.045531 C507.178639,255.848617 484.643218,257.012731 489.893812,248.382446 C493.5359,242.394674 507.347161,251.559246 511.038296,245.869417 C513.464259,242.131931 506.861717,241.61776 504.243337,241.243131 C500.303191,240.678674 491.020645,242.502789 491.326249,237.389989 C491.711083,230.965989 509.756774,226.532046 514.818723,224.645074 C514.257822,220.246331 492.538601,226.49936 489.395791,228.281989 C482.281395,232.318674 476.830839,239.559817 475.787008,247.608046 C474.570883,256.972503 479.319683,264.346903 488.672656,266.64496 C492.572557,267.602903 495.455039,267.70976 499.063171,269.150446 C501.437571,270.097074 509.121673,272.459246 510.749042,270.069417 C510.276174,269.895931 509.804564,269.722446 509.331696,269.54896 L509.331696,269.54896 Z M636.832449,211.304274 C637.19213,207.305303 640.558798,199.777531 636.680276,197.150103 C631.252357,193.47296 629.00372,199.532389 627.773761,203.171817 C626.269639,207.615817 619.947547,218.493874 625.476076,221.26336 C626.761371,221.907017 632.855832,221.15776 633.931103,220.732846 C636.925513,221.513531 637.891371,220.39216 636.832449,217.366217 L636.832449,211.304274 Z M504.37413,534.240389 C504.033313,523.310789 508.92674,510.171131 511.699808,499.46656 C514.843876,487.337646 516.500171,474.96736 519.830368,462.971703 C516.125398,463.417989 512.386473,463.78256 508.72552,464.525531 C503.731483,465.540046 503.642191,465.380389 504.000615,470.279474 C504.536364,477.636274 503.834608,484.84976 503.454805,492.204046 C502.69394,506.92896 504.547683,521.896503 503.315208,536.528389 C504.414374,536.807474 504.76651,536.044389 504.37413,534.240389 L504.37413,534.240389 Z M642.650232,247.799131 C654.649252,249.635817 666.148995,253.439931 677.067713,258.551474 C683.086717,261.368731 689.715669,264.395931 696.441459,265.521074 C703.914279,266.771931 711.838588,266.184846 719.469869,266.667589 C722.159934,266.837303 729.231571,268.144731 731.854981,266.561989 C734.453239,264.994331 734.249503,262.337989 734.371493,259.171246 C734.687157,251.026217 730.999795,243.050903 727.68469,235.743131 C724.841195,229.47376 722.690652,224.68656 718.277639,219.293417 C712.610771,212.36656 707.675842,204.891589 702.368656,197.66176 C698.366886,192.212046 694.323615,186.840274 690.24513,181.396846 C687.327435,177.499703 687.465774,176.158331 683.067852,176.59456 C678.737842,177.024503 674.377649,179.584046 670.299164,180.940503 C664.244947,182.954446 656.914239,184.059474 651.393256,187.279017 C647.82411,189.360846 647.664391,189.744274 647.705893,193.377417 C647.744879,196.761646 648.8365,200.888846 650.860022,203.536389 C655.065527,209.032617 662.036554,211.941646 668.019086,214.683474 C671.480076,216.268731 674.470713,218.51776 677.5519,220.705189 C680.870778,223.063589 687.567642,224.452731 690.108049,227.140503 C697.502896,234.968731 684.041256,233.421189 680.279693,233.184846 C672.162968,232.674446 664.090259,232.752389 655.913168,232.746103 C646.987788,232.739817 638.134093,232.32496 629.334476,232.61536 C624.18072,232.785074 618.267357,230.171474 614.928357,225.814217 C613.312307,223.703474 612.682235,221.708389 610.568164,219.518446 C607.797612,216.650903 605.387998,213.629989 602.017557,211.411131 C596.502862,207.780503 586.48209,205.726331 579.917276,207.081531 C582.267781,207.409646 593.323581,211.173531 588.456564,215.90416 C587.864222,216.479931 580.75234,216.857074 579.206717,217.56736 C576.4173,218.848389 572.900974,220.710217 571.264801,223.415589 C576.028693,222.617303 593.697096,221.693303 584.683683,230.833989 C582.471517,233.077989 576.119242,235.31696 581.524523,237.703017 C582.765801,238.251131 585.250873,237.475474 586.849317,237.969531 C589.224974,238.70496 591.166751,240.672389 593.392751,241.720846 C599.706039,244.699017 608.407561,246.535703 614.996269,245.883246 C624.10652,244.97936 633.600347,246.606103 642.650232,247.799131 L642.650232,247.799131 Z M401.050001,523.224046 C401.360635,536.354903 400.88651,549.563703 401.166961,562.754903 C401.466276,576.842446 403.273486,590.648389 404.134961,604.593874 C404.908401,617.092389 406.596137,629.353303 407.966951,641.792731 C408.755483,648.957189 409.664747,655.808617 410.8771,662.919017 C412.012737,669.573074 412.206412,675.436389 404.25192,677.225303 C389.043435,680.647246 386.680354,658.767931 383.741279,649.549303 C379.353418,635.791131 376.540107,621.347817 374.365669,607.085531 C370.318625,580.52336 364.937239,554.330789 362.837001,527.543589 C361.544161,511.048617 359.669039,494.722103 358.605086,478.242217 C358.39632,475.012617 359.220066,470.036846 356.384117,468.598674 C354.677517,467.735017 349.980279,467.727474 347.827222,467.101417 C341.82834,465.356503 336.294781,462.786903 330.441784,460.120503 C334.595727,481.841417 335.967798,503.454217 339.084198,525.36496 C340.73672,536.991017 343.90091,549.038217 346.642537,560.481989 C349.483517,572.33936 350.114845,585.106903 353.392222,596.70656 C354.835978,601.81936 356.058391,603.902446 353.963184,609.14976 C351.392595,615.59136 353.097937,617.132617 356.321235,623.45856 C362.24969,635.097189 366.77589,648.832731 365.771045,661.953531 C364.951073,672.669417 356.854469,678.278789 346.824893,681.170217 C334.278805,684.78576 321.141632,684.358331 308.520086,688.46416 C297.523395,692.040731 286.350635,694.683246 275.672123,699.405074 C271.366008,701.308389 267.274947,703.567474 262.493449,703.91696 C255.936181,704.393417 251.514364,700.588046 245.320551,699.794789 C241.449574,699.300731 235.781449,701.147474 233.551676,697.089417 C231.783452,693.872389 233.784337,686.852503 236.004049,684.262789 C242.238107,676.985189 254.722571,670.64416 263.129808,666.34976 C272.819825,661.400389 282.195435,655.205189 291.173635,648.817646 C296.615388,644.944389 302.165296,641.228274 307.603276,637.348731 C311.20009,634.780389 312.56713,634.764046 312.199903,630.684617 C311.906876,627.431131 310.440483,624.275703 310.183927,620.944274 C309.987737,618.392274 310.88191,614.91376 309.675845,613.248046 C308.789218,612.019817 305.459022,611.153646 304.149832,610.22336 C299.362045,606.829074 298.274198,602.630217 296.099761,597.467131 C291.161059,585.740503 285.486645,574.343246 280.717723,562.522331 C270.478123,537.141874 264.230232,510.453989 255.741249,484.555589 C247.068652,458.096503 239.314123,430.319931 234.537656,402.86896 C228.146395,404.81376 222.114815,413.42016 217.025198,417.678103 C210.148493,423.433303 203.103266,428.998674 196.359869,434.911017 C185.306584,444.603589 174.114961,454.029646 164.980815,465.636846 C160.580378,471.22736 156.977276,477.244046 152.993113,483.117417 C150.691656,486.510446 148.546144,490.351017 146.053527,493.57936 C145.653601,494.097303 145.642283,495.160846 145.210917,495.602103 C144.261408,496.57136 142.449168,495.280274 141.840476,495.918903 C138.085201,499.846217 138.134249,510.997074 136.963398,516.179017 C135.35112,523.320846 133.540137,531.532503 127.963818,536.454217 C119.35033,544.05616 103.465242,545.234103 92.5641302,545.628846 C78.5742862,546.135474 65.0032319,550.033874 51.7302353,554.221417 C45.538937,556.17376 39.5098726,558.457989 33.295937,560.35376 C29.7217608,561.446217 25.6445336,563.622331 21.8276353,563.203703 C17.2247201,562.699589 13.5901777,558.826331 10.2184794,555.947474 C4.82451668,551.34256 -0.169520606,546.803017 0.00441345481,539.247589 C0.19896414,531.249646 4.53148956,525.212846 11.3566319,521.240274 C24.5516557,513.559131 39.3099099,508.63616 53.532415,503.328503 C58.9829709,501.293189 63.6487675,499.041646 68.8603743,496.302331 C76.2237811,492.430331 84.7001879,489.269874 91.2335608,484.158331 C93.1602455,482.64976 100.239429,478.028503 100.84309,475.64496 C100.92232,475.334446 99.1528387,471.695017 99.145293,471.117989 C99.1276862,469.633303 100.006768,468.025417 100.547547,466.754446 C103.950686,458.753989 109.659056,451.050217 114.023022,443.506103 C122.015242,429.687589 130.037645,415.79616 139.303842,402.799817 C157.7809,376.888846 178.536778,351.518446 200.93889,328.899931 C211.860123,317.873531 221.297357,305.366217 232.372022,294.491931 C236.759883,290.18496 241.391723,286.677531 246.798262,283.881646 C252.824812,280.765189 259.589588,280.154217 266.497734,279.20256 C283.238008,276.898217 297.217791,281.850103 312.934357,286.159589 C327.791964,290.232731 342.66592,293.668503 357.60653,297.91136 C374.014791,302.570331 390.25453,307.039474 406.611229,312.117074 C415.350479,314.829989 424.341256,316.495703 433.122008,319.099246 C437.350151,320.35136 453.334591,328.20096 456.85972,325.62256 C445.754873,320.411703 434.378378,315.662217 422.497574,312.516846 C418.998856,311.591589 416.764052,312.61616 416.893588,308.598331 C416.965273,306.407131 419.427707,303.449074 420.314334,301.645074 C422.437208,297.326789 424.840534,293.10656 426.918134,288.775703 C419.386205,290.914103 399.140923,298.31616 393.465252,290.663931 C387.525479,282.654674 392.484303,266.951703 396.206879,259.109646 C405.924564,238.638331 422.4523,221.555017 438.556215,206.123589 C442.039842,202.787131 449.549134,198.429874 451.405391,194.180731 C451.970066,192.888389 450.741364,190.990103 452.01534,189.311817 C452.772432,188.313646 455.814632,187.631017 457.030757,186.554903 C461.458862,182.635131 464.991537,174.387017 468.051344,169.247817 C471.255778,163.865989 474.14329,158.037874 478.170212,153.209189 C484.756405,145.313074 491.556395,136.943017 502.22233,135.096274 C507.452801,134.191131 513.008998,134.673874 518.0219,132.86736 C524.08492,130.682446 529.84611,127.240389 535.968239,124.977531 C534.449025,121.854789 533.217808,116.889074 530.271188,116.548389 C527.433981,116.219017 523.272493,118.657874 520.0253,118.640274 C515.282788,118.613874 511.234486,117.855817 506.657981,116.951931 C501.592259,115.949989 499.923388,116.132274 498.077191,110.637303 C496.140445,104.880846 496.628405,98.19536 496.644754,92.2163886 C496.6523,89.2947886 497.232066,85.6679314 496.983056,82.8003886 C496.60954,78.4795886 495.769445,78.3136457 492.382656,75.5655314 C488.15074,72.1322743 482.934103,67.58896 488.118042,61.6238171 C490.918778,58.4005029 496.674937,60.9072457 499.156235,57.4438171 C501.682808,53.9162743 501.560818,45.0546743 502.330486,40.9111314 C494.540744,44.7403886 497.396815,30.4253029 497.395557,26.9807314 C497.3943,21.9685029 494.035178,12.9547886 498.870754,8.78484572 C501.118134,6.84884572 502.787005,8.45044572 505.356337,7.33787429 C508.287866,6.06816 510.134062,2.73798857 513.252978,1.44690286 C519.451822,-1.12018285 525.781459,1.97113143 532.14631,1.46073143 C539.446835,0.876160003 546.617825,-0.252754283 553.958595,0.91890286 C557.437191,1.47204572 558.901069,2.79330286 561.843917,4.27421715 C564.673578,5.69856 567.54474,6.08827429 570.618381,7.00473143 C573.35372,7.82061715 575.752015,8.23296 577.599469,10.6165029 C579.060832,12.5022171 578.465974,15.6739886 579.941171,17.2994743 C581.396245,18.9010743 584.274954,18.6685029 586.009222,20.57056 C587.67432,22.3959314 588.670361,25.4130743 589.535608,27.6847314 C590.705201,30.7446171 590.842283,31.8936457 592.901018,34.34256 C594.695652,36.4797029 597.280076,38.1982171 598.77791,40.6358171 C602.306812,46.3822171 602.397361,54.6919314 601.270527,61.15616 C600.888208,63.3574171 597.697608,69.0472457 598.196886,70.9203886 C598.672269,72.7030171 601.664164,72.2341029 603.018629,73.36176 C604.189479,74.3360457 605.219476,78.67696 606.142574,78.9422171 C608.137171,79.5142171 610.59709,75.5755886 612.108757,74.9847314 C614.734683,73.9576457 615.833849,72.90416 617.288923,76.7749029 C618.36671,79.6474743 616.865103,83.5458743 616.074056,86.2877029 C615.067954,89.7775314 613.956212,93.98016 611.290042,96.6189029 C608.156035,99.7215314 605.647069,98.0256457 602.188595,99.6963886 C597.005913,102.200617 598.535188,110.030103 592.157761,112.267817 C586.080907,114.399931 579.3853,107.691817 574.788673,104.608046 C575.740696,112.094331 579.324934,119.307817 577.6045,126.98016 C591.581768,121.504046 605.405605,113.732389 620.637984,112.02016 C628.40509,111.146446 636.251425,110.111817 643.583391,113.336389 C652.165439,117.110331 657.423578,125.435131 663.232557,132.351931 C674.150018,145.352046 685.351703,157.987589 695.830252,171.406331 C705.441039,183.715017 713.54393,197.977303 724.12309,209.502789 C734.849391,221.190446 742.944737,240.153189 741.770113,256.337646 C741.664473,257.798446 740.532608,261.117303 740.709934,262.692503 C740.848273,263.89936 741.944923,265.429303 741.927526,266.402331 C741.868208,269.677189 740.785391,271.562903 737.663961,273.379474 C732.252391,276.531131 724.188486,278.126446 718.072645,278.908389 C709.947117,279.948046 699.995513,280.059931 691.866212,278.949874 C683.481612,277.80336 676.111917,273.110446 668.401405,270.274331 C661.637886,267.785189 654.845442,266.23136 647.738591,264.643589 C643.818568,263.76736 639.478496,261.342331 637.056307,263.689417 C634.831564,265.846674 634.370015,276.91456 633.851873,279.857531 C628.229022,311.756274 621.547249,342.573874 615.628856,374.310446 C608.92193,410.282331 604.335364,446.240389 599.670825,482.51776 C595.431364,515.493874 594.045459,548.84336 593.097208,581.789303 C592.644462,597.504846 592.579066,613.051931 592.674645,628.781303 C592.728723,637.588846 597.131676,666.989646 584.074991,668.114789 C576.402208,668.77856 570.26373,657.777303 568.20751,651.778217 C565.118778,642.764503 563.510273,633.058103 563.017283,623.589303 C562.021242,604.420389 560.714568,585.237646 559.941127,566.061189 C559.103547,545.285646 560.168757,524.126674 561.876615,503.419017 C563.595791,482.573074 567.927059,462.03136 569.255113,441.153989 C565.269693,446.841303 563.994459,447.909874 557.356703,450.386446 C550.410829,452.979931 543.729056,456.04736 536.7203,458.464846 C534.335839,459.287017 530.61452,459.802446 528.660168,461.148846 C525.053293,463.63296 527.422662,460.814446 526.270676,465.649417 C525.040717,470.815017 524.809313,477.016503 524.48233,482.32416 C522.946768,507.234446 516.046168,531.967474 512.863113,556.74576 C512.094703,562.728503 513.191354,588.125303 502.895161,580.121074 C494.965822,573.957303 495.123025,554.596046 493.994934,545.527017 C492.493327,533.438331 493.329649,521.00896 493.56734,508.84736 C493.83773,494.99616 494.070391,480.468617 497.375435,466.944274 C491.462073,465.932274 483.237191,468.689189 477.284842,469.153074 C472.131086,469.554103 466.994937,469.809303 461.870107,470.090903 C449.648486,470.762217 437.059639,471.29776 424.631768,471.057646 C422.369296,471.013646 407.588405,468.944389 405.699449,470.612617 C405.085727,471.154446 404.89834,478.606789 404.783896,479.51696 C404.348757,482.941417 403.75893,486.362103 403.318761,489.767703 C401.915249,500.653303 400.647561,512.342217 401.050001,523.224046 L401.050001,523.224046 Z"></path><path d="M620.55127,626.675669 C629.878302,630.320804 639.777838,631.643564 649.183967,634.964297 C657.593236,637.932963 665.402382,641.923877 673.682336,644.941582 C674.166955,641.100295 674.424331,634.595885 673.005627,630.975897 C670.998099,625.849572 665.712488,625.723834 660.508483,623.898123 C647.843104,619.454554 634.519847,618.517808 621.946119,613.326099 C624.099283,617.470413 623.137578,622.957605 620.55127,626.675669 M781.56154,613.270775 C761.417209,613.861742 742.16553,618.549242 722.312472,621.448753 C712.65148,622.858273 702.981698,624.116907 693.311917,625.43338 C689.590646,625.938846 682.808491,625.342849 680.104166,628.564249 C677.861861,631.23366 680.318855,640.34084 679.323251,644.252539 C683.394804,644.553052 690.623914,640.749487 695.043237,640.119542 C701.924576,639.141302 708.715519,637.770762 715.668421,637.334452 C726.680321,636.64038 737.500131,636.05067 748.493198,634.824728 C759.672078,633.578667 770.489377,631.262579 781.757396,630.416365 C787.235098,630.003945 789.438482,631.031222 789.761143,625.248546 C789.887947,622.987783 790.198053,619.203078 789.564031,616.973749 C790.577211,614.232668 789.678281,612.902363 786.867239,612.980321 C785.081933,612.77914 783.314204,612.875958 781.56154,613.270775 M742.59993,594.814998 C748.047499,594.304503 753.517668,593.571452 758.979048,593.264652 C760.08639,593.201783 765.70345,593.540018 766.621213,592.510226 C767.91939,591.054184 766.473065,585.726678 766.234522,584.078257 C765.424732,578.472871 764.529567,575.213751 758.415333,575.201069 C753.25527,575.188603 747.913162,576.280006 742.773187,576.782957 C719.439912,579.070125 696.224653,580.035791 673.148753,584.37877 C674.553646,590.360112 676.148118,596.531317 674.468273,602.648455 C685.537925,603.219304 697.691065,601.089308 708.509619,598.903987 C719.566717,596.670886 731.299267,595.56188 742.59993,594.814998 M705.669702,538.497091 C697.33325,538.534812 688.522224,542.206352 680.296256,541.3878 C680.173218,542.918028 682.80598,541.648077 683.532908,543.080229 C685.085949,543.084001 685.627065,543.590724 685.15249,544.602912 C685.181366,545.293212 684.828573,545.698088 684.092856,545.815024 C683.73002,545.847715 683.367183,545.877893 683.005602,545.909327 C681.414897,545.960879 681.153755,547.033422 682.224688,549.130726 C681.765179,551.728467 682.454442,555.027824 682.554882,557.635623 C697.338272,555.62382 711.699818,553.531545 726.587415,552.633778 C733.615646,552.210042 740.638855,552.211299 747.658298,551.632906 C755.38207,550.996673 763.812683,552.360927 771.363198,550.914944 C775.399597,550.141657 774.976497,550.195724 774.682712,544.946176 C774.503177,541.757469 774.569718,537.971507 771.973366,535.64536 C767.636904,531.760066 757.762478,534.005741 752.577306,534.142795 C736.96027,534.555214 721.078326,536.006227 705.669702,538.497091 M714.203265,613.458124 C736.535915,611.429975 758.700329,606.987663 781.159783,606.987663 C779.571589,605.400853 776.112715,604.992206 774.136574,604.125873 C771.88297,603.14009 769.756171,601.039013 767.554042,600.176453 C763.134718,598.446302 758.637555,600.850406 754.098959,601.889 C743.149834,604.396209 731.915713,604.481711 720.949011,606.94114 C709.611939,609.482298 698.12672,611.826049 686.579981,613.118632 C681.082192,613.733489 675.182646,614.980807 669.750143,613.528537 C669.309466,613.212935 668.866278,612.897334 668.425601,612.582989 C667.951026,610.561128 666.632762,610.021713 664.470809,610.963488 C661.725053,610.440419 658.228514,611.115631 655.464251,611.184786 C655.352187,612.288763 665.56434,615.751579 667.511605,616.60911 C672.203369,618.67498 675.38478,620.187604 680.395439,619.302411 C691.678525,617.309469 702.777053,614.930512 714.203265,613.458124 M635.642255,548.165061 C636.514821,551.567523 640.179595,550.019692 643.33464,550.39439 C647.569407,550.896083 651.78283,552.357155 655.884515,553.458617 C663.333335,555.460361 670.784666,557.434443 678.202099,559.550608 C677.90957,556.554279 678.572468,549.735525 676.989296,547.07743 C675.328283,544.291083 667.452597,543.07017 663.785311,542.220183 C654.541141,540.081385 644.666715,541.298526 635.275652,541.748667 C635.441377,543.88495 635.564415,546.022491 635.642255,548.165061 M724.439272,569.449936 C733.210123,568.706826 741.991017,568.12969 750.786978,567.820375 C760.84345,567.46831 753.533989,565.861382 753.321811,559.727898 C740.104016,561.836519 726.769461,562.252711 713.593097,564.054532 C702.676614,565.549553 689.672252,569.451193 678.537315,567.355146 C673.285601,566.366848 667.923405,565.985862 662.336476,565.427587 C657.065931,564.900746 652.092936,562.445089 646.886421,561.835262 C641.042116,561.149991 635.071007,564.435517 629.256835,565.303107 C626.792309,565.671518 626.219805,567.342572 625.055966,564.37642 C623.849441,561.299619 627.305804,558.784865 628.666755,556.945323 C630.256205,554.796466 629.595817,558.285687 630.478426,554.929748 C630.725758,553.98923 630.055326,551.626619 629.932288,550.613174 C629.620927,548.051897 628.816158,545.273094 628.690609,542.716847 C628.575104,540.369325 628.555016,536.785801 631.10366,535.41526 C632.659212,534.579105 633.761532,535.79876 635.117461,535.562373 C645.702494,533.721574 658.153185,533.570688 668.887621,535.347362 C680.524755,537.272406 690.541051,532.175 702.011205,530.107873 C715.466287,527.68365 729.06324,527.320268 742.635083,526.295506 C754.239574,525.420372 775.442284,520.878727 779.862863,535.700685 C781.114586,539.900323 782.938812,551.461903 779.570334,555.035368 C775.15101,559.727898 764.917514,558.230362 759.202525,559.450018 C760.057513,561.881785 762.602391,563.535235 761.722293,566.430974 C769.731061,566.809444 771.147253,574.373823 772.401488,581.436509 C773.699664,588.743125 771.167341,591.647666 778.150375,595.452488 C787.88293,600.754846 798.193012,606.110014 798.002177,618.739106 C797.90676,625.088859 797.196153,634.665041 790.676395,637.959368 C784.298508,641.182025 773.913097,640.637581 766.883611,641.806941 C753.271592,644.073992 739.611864,646.733344 725.916983,648.093825 C711.334471,649.543581 696.509649,650.733059 681.903282,651.380608 C673.944734,651.735188 667.069672,652.937241 659.383565,650.259028 C651.826772,647.626081 644.434449,645.703552 636.637859,643.748331 C628.940451,641.820772 605.377422,639.223032 612.243695,626.059554 C613.342248,623.953448 617.097418,622.278622 617.703819,620.286937 C618.681846,617.074339 615.377397,614.56713 615.515501,611.663847 C615.767854,606.352687 621.760306,605.686278 625.8984,605.686278 C618.806139,601.250252 628.303918,595.998189 628.247421,592.232346 C628.148238,585.597168 619.895904,581.290653 619.428862,575.728018 C618.293899,562.192357 661.232901,576.286293 667.841798,579.214724 C662.754554,586.757727 639.155115,580.230684 632.125629,579.086471 C633.084823,581.604997 634.00133,583.869533 634.278793,586.448413 C634.503526,588.549489 633.701268,590.951079 634.43573,593.065987 C635.595802,596.410609 635.555626,595.770604 639.662333,596.682202 C642.700618,597.356156 645.705005,598.13573 648.733246,598.84992 C653.384835,599.94761 660.701829,602.892386 665.310731,602.731442 C669.353408,602.590616 668.554916,603.844221 669.295655,599.354128 C669.694901,596.941222 669.014426,594.376173 668.607647,592.012305 C667.758936,587.05824 666.517257,582.369482 670.843674,578.814878 C674.969213,575.42499 683.664734,573.811776 688.724358,572.61601 C699.954713,569.962945 712.916388,569.312881 724.439272,569.449936"></path><path d="M777.879534,484.893267 C765.682733,482.84965 753.290733,482.346315 740.950366,482.965707 C741.61908,486.019779 742.287795,489.072589 742.957769,492.124137 C754.518598,489.147017 766.246921,487.402374 777.879534,484.893267 L777.879534,484.893267 Z M678.703233,508.581559 C673.81192,508.223295 677.214682,510.410722 678.422399,513.612388 C679.907172,517.545719 679.588556,522.518519 679.92984,526.658735 C694.241089,521.201522 710.892209,518.007425 726.107671,516.170693 C733.323745,515.300264 740.644344,515.050488 747.900716,514.678348 C750.045389,514.568598 757.791648,515.466781 759.360798,514.023634 C760.525696,512.950105 759.708378,507.029924 758.588816,505.723018 C752.498602,498.624604 728.95632,504.754193 720.439339,505.389985 C706.474411,506.433238 692.765131,508.928469 678.703233,508.581559 L678.703233,508.581559 Z M699.029136,489.557002 C711.700712,490.774341 723.936553,490.658284 736.609388,492.556829 C735.648504,484.502204 736.797031,482.445973 727.65919,482.018327 C719.516235,481.638618 711.398468,481.330814 703.293294,481.334599 C685.066727,481.34469 666.882978,480.996519 648.636262,480.996519 L648.636262,489.182339 C665.511546,487.454095 682.119849,490.575026 699.029136,489.557002 L699.029136,489.557002 Z M638.094246,519.659979 C646.091116,519.625919 653.649732,522.643407 661.647862,523.425532 C666.43465,523.893545 664.930986,524.487708 668.251891,526.89085 C673.42404,530.634957 674.913851,528.640539 674.265285,523.552943 C672.06772,506.343672 650.278454,510.202576 637.722738,509.246365 C638.547612,513.349997 636.651031,516.830453 633.856535,519.659979 L638.094246,519.659979 Z M724.536003,497.564951 C713.033104,497.751652 701.516352,498.405105 690.094051,498.166683 C684.981091,498.059456 678.356912,497.046478 673.34596,497.918169 C669.674956,498.556484 666.604662,500.426015 662.578521,501.121097 C668.492427,504.306363 671.490938,502.154258 677.708347,501.4289 C683.920719,500.706066 690.225023,500.719942 696.462582,500.342756 C706.706131,499.722102 717.624692,497.268501 727.71712,497.93583 C727.900985,496.514129 726.841872,496.390502 724.536003,497.564951 L724.536003,497.564951 Z M633.299902,534.836986 C628.021968,534.825633 635.283378,528.823455 636.236705,528.228031 C630.393323,528.228031 628.979074,524.723607 630.67164,519.093569 C632.267235,513.790258 633.447246,515.413798 629.433699,510.997315 C626.412519,507.672023 625.955375,505.222206 629.516816,501.50459 C633.141224,497.722638 640.480714,498.792383 643.692055,495.670191 C649.158892,490.356787 642.104015,479.772872 649.679003,475.702038 C654.799519,472.951986 663.053296,473.292589 668.706516,472.711041 C674.170834,472.149677 679.826573,472.041189 685.327412,471.966761 C697.31768,471.802767 709.772648,473.813585 721.710022,474.919913 C726.062335,475.322329 730.954908,477.080848 735.242993,477.084633 C739.615455,477.089679 744.19571,476.114546 748.710478,476.226819 C753.959447,476.359275 759.015736,475.971997 764.42842,476.833596 C768.575459,477.494618 778.258598,477.841528 781.428381,480.924614 C791.990546,491.198202 766.943342,495.916182 762.633847,497.070447 C767.020162,501.875469 766.837556,508.227079 766.176398,514.275932 C768.264399,514.275932 771.86362,513.367658 772.944142,515.708987 C774.286609,518.616725 769.318475,519.372359 768.143502,519.7117 C761.385832,521.663228 753.477116,521.128355 746.512913,521.837314 C732.589544,523.253969 718.834927,524.071416 705.056383,526.709195 C698.341531,527.994655 691.666978,529.585396 684.957164,530.836796 C683.798562,531.053772 682.633664,531.226597 681.463728,531.357792 C679.667895,531.20389 679.087335,532.330402 679.720788,534.743636 C677.85821,535.653171 670.914156,533.386271 668.766965,533.03936 C656.474454,531.044942 645.477813,531.873742 633.299902,534.836986 L633.299902,534.836986 Z"></path><path d="M881.519241,654.202392 C873.590711,660.441601 866.220794,666.328899 857.634483,671.750323 C863.7039,671.561218 883.889264,661.881804 881.519241,654.202392 M878.422394,644.033309 C874.095345,640.315081 869.797169,640.695795 864.440767,639.56868 C859.508659,638.530482 854.71589,636.743378 849.793825,635.553645 C845.931241,634.620644 842.10757,633.358275 838.258794,632.476621 C832.823308,631.230532 832.287291,632.601856 827.288652,635.4497 C809.562438,645.552409 789.726051,652.501701 771.05459,660.700837 C776.536523,665.527395 788.868675,665.735285 795.72015,667.274424 C800.722555,668.396529 805.482685,669.931911 810.274198,671.708996 C814.735565,673.365855 821.923463,677.175504 826.628359,677.301992 C830.600156,677.409694 833.82881,673.501109 837.248271,671.395908 C841.746041,668.625709 846.223727,665.904352 850.756647,663.203033 C860.349716,657.487307 869.318896,650.482912 878.422394,644.033309 M798.312362,684.953851 C796.266209,682.985157 790.106409,683.071569 787.540559,682.470441 C782.486686,681.289475 777.506877,680.062171 772.385217,679.175507 C764.073819,677.737809 750.944545,677.094101 750.041979,666.311366 C749.290049,657.350801 760.117086,655.22431 766.450118,652.188613 C775.972889,647.621292 785.688978,643.407133 795.454024,639.379575 C804.60899,635.604992 813.898274,632.412751 823.220196,629.150379 C825.037883,628.514185 826.514126,628.601849 827.997901,627.146618 C829.169104,625.998213 828.807575,623.76903 830.090501,622.569278 C833.029178,619.821622 836.841551,621.266834 840.372734,621.971907 C848.391645,623.571159 856.718108,625.67135 864.362937,628.638168 C872.307786,631.721454 879.414088,632.365162 881.322157,641.372064 C885.384336,639.465987 888.439757,639.189218 887.953953,644.789728 C887.812103,646.435316 886.617049,648.224925 886.329584,649.921859 C885.9078,652.424055 886.647177,655.061504 886.229159,657.569962 C884.70898,666.690828 872.410721,673.447258 864.789742,677.028979 C855.392502,681.444766 843.267476,687.969511 832.775606,688.831128 C821.595827,689.750353 809.411801,685.359613 798.312362,684.953851"></path><path d="M656.004787,533.634132 C652.671886,533.655132 649.336387,533.676132 646.004787,533.697132 C649.33119,533.072132 652.665389,533.065132 656.004787,533.634132"></path><path d="M461.004787,180.957314 C460.005146,182.623187 459.005505,184.28906 458.004787,185.957314 C458.345549,183.809184 459.10795,181.968269 461.004787,180.957314"></path><path d="M656.004787,581.430814 C658.008758,581.448814 660.011538,581.464814 662.004787,581.483814 C659.997241,581.467814 658.001609,581.449814 656.004787,581.430814"></path><path d="M702.004787,472.646814 C699.670128,472.520814 697.33812,472.393814 695.004787,472.267814 C697.33812,472.393814 699.670128,472.520814 702.004787,472.646814"></path><path d="M662.004787,533.68361 C660.00395,533.66461 658.003113,533.64661 656.004787,533.62761 C658.011899,533.08061 660.012736,533.09961 662.004787,533.68361"></path><path d="M741.589287,249.957314 C741.533287,247.956421 741.477287,245.955527 741.420287,243.957314 C741.478287,245.959548 741.533287,247.957761 741.589287,249.957314"></path><path d="M401.566287,551.957314 C401.525287,550.289836 401.484287,548.622358 401.443287,546.957314 C401.485287,548.62601 401.525287,550.291053 401.566287,551.957314"></path><path d="M456.004787,470.454814 C457.34277,470.455814 458.678217,470.456814 460.004787,470.459814 C458.665535,470.459814 457.335161,470.456814 456.004787,470.454814"></path><path d="M635.004787,111.276314 C633.337357,111.397314 631.671072,111.517314 630.004787,111.638314 C631.672216,111.517314 633.338501,111.397314 635.004787,111.276314"></path><path d="M761.004787,476.476814 C759.004787,476.463814 757.003422,476.450814 755.004787,476.437814 C757.003422,476.450814 759.004787,476.463814 761.004787,476.476814"></path><path d="M592.579287,599.957314 C592.529287,598.621976 592.478287,597.285435 592.430287,595.957314 C592.479287,597.293856 592.529287,598.626788 592.579287,599.957314"></path><path d="M594.558787,548.957314 C594.522787,547.623211 594.486787,546.287952 594.450787,544.957314 C594.487787,546.291418 594.523787,547.624366 594.558787,548.957314"></path><path d="M560.432787,571.957314 C560.480787,573.29266 560.529787,574.628006 560.576787,575.957314 C560.528787,574.620761 560.480787,573.290245 560.432787,571.957314"></path><path d="M464.004787,469.477814 C465.008602,469.463814 466.011273,469.450814 467.004787,469.436814 C465.998682,469.450814 465.001734,469.463814 464.004787,469.477814"></path><path d="M754.004787,521.522314 C755.007357,521.479314 756.009928,521.435314 757.004787,521.392314 C755.998911,521.436314 755.000747,521.479314 754.004787,521.522314"></path><path d="M562.419287,603.957314 C562.476287,605.29205 562.533287,606.628187 562.590287,607.957314 C562.533287,606.618373 562.476287,605.287844 562.419287,603.957314"></path><path d="M669.605787,596.957314 C669.538787,598.29332 669.470787,599.627989 669.403787,600.957314 C669.470787,599.621309 669.538787,598.289312 669.605787,596.957314"></path><path d="M554.349287,1.10406429 C552.936787,0.924064289 551.523037,0.745564289 550.109287,0.565564289 C551.510537,0.889564289 553.045537,-0.311935711 554.349287,1.10406429"></path><path d="M493.562287,513.957314 C493.524287,515.292457 493.486287,516.627599 493.447287,517.957314 C493.484287,516.619458 493.523287,515.288386 493.562287,513.957314"></path><path d="M407.607787,635.957314 C407.539787,634.623111 407.469787,633.288907 407.401787,631.957314 C407.470787,633.291518 407.539787,634.624416 407.607787,635.957314"></path><path d="M731.004787,523.488314 C732.009891,523.467314 733.012211,523.445314 734.004787,523.426314 C732.99829,523.448314 732.001538,523.468314 731.004787,523.488314"></path><path d="M391.494287,280.957314 C391.502287,282.292919 391.509287,283.628524 391.515287,284.957314 C391.507287,283.620347 391.501287,282.28883 391.494287,280.957314"></path><path d="M370.512787,580.957314 C370.508787,582.292528 370.503787,583.629151 370.496787,584.957314 C370.500787,583.620691 370.506787,582.288298 370.512787,580.957314"></path><path d="M619.747546,572.957314 C619.711546,574.292054 619.676546,575.6282 619.638546,576.957314 C619.090546,575.586006 619.152546,574.256892 619.747546,572.957314"></path><path d="M433.004787,471.457314 C434.008384,471.457314 435.011981,471.457314 436.004787,471.457314 C434.998492,471.457314 434.001639,471.457314 433.004787,471.457314"></path><path d="M593.520787,566.957314 C593.509787,565.622577 593.499787,564.287841 593.488787,562.957314 C593.499787,564.294858 593.509787,565.625384 593.520787,566.957314"></path><path d="M798.004787,685.415814 C799.008824,685.442814 800.012862,685.470814 801.004787,685.498814 C799.996711,685.471814 799.000749,685.443814 798.004787,685.415814"></path><path d="M762.004787,558.474814 C762.673298,558.462814 763.344023,558.451814 764.004787,558.439814 C763.331848,558.451814 762.668871,558.462814 762.004787,558.474814"></path><path d="M737.004787,561.459314 C737.675573,561.457314 738.344112,561.456314 739.004787,561.455314 C738.334,561.457314 737.668831,561.458314 737.004787,561.459314"></path><path d="M347.564787,567.957314 C347.524787,566.956928 347.483787,565.955385 347.444787,564.957314 C347.485787,565.958858 347.525787,566.959244 347.564787,567.957314"></path><path d="M757.004787,567.198425 C756.136276,568.077425 755.018807,567.558425 754.004787,567.614425 C755.005165,567.475425 756.005544,567.337425 757.004787,567.198425"></path><path d="M638.004787,535.203899 C636.684534,535.827899 635.350267,535.913899 634.004787,535.246899 C635.339054,535.232899 636.67192,535.218899 638.004787,535.203899"></path><path d="M725.004787,569.474314 C723.670988,569.463314 722.33719,569.452314 721.004787,569.440314 C722.338585,569.452314 723.672383,569.463314 725.004787,569.474314"></path><path d="M669.004787,534.638814 C667.671453,534.517814 666.336742,534.396814 665.004787,534.275814 C666.336742,534.396814 667.671453,534.517814 669.004787,534.638814"></path><path d="M363.544287,529.957314 C363.519287,530.959925 363.492287,531.961231 363.465287,532.957314 C363.490287,531.953398 363.517287,530.954703 363.544287,529.957314"></path><path d="M593.427787,583.957314 C593.479787,582.955116 593.530787,581.952919 593.581787,580.957314 C593.530787,581.960831 593.479787,582.959073 593.427787,583.957314"></path><path d="M731.004787,526.289314 C729.671905,526.401314 728.337668,526.513314 727.004787,526.625314 C728.339024,526.513314 729.671905,526.401314 731.004787,526.289314"></path><path d="M401.546287,522.957314 C401.519287,521.955519 401.491287,520.953724 401.463287,519.957314 C401.490287,520.961803 401.519287,521.959558 401.546287,522.957314"></path><path d="M568.622787,445.957314 C568.543787,446.959326 568.464787,447.960131 568.386787,448.957314 C568.465787,447.955302 568.544787,446.956912 568.622787,445.957314"></path><path d="M751.004787,476.217747 C749.669227,476.909747 748.336339,476.822747 747.004787,476.210747 C748.337675,476.212747 749.671898,476.215747 751.004787,476.217747"></path><path d="M592.593287,614.957314 C592.533287,613.955663 592.475287,612.955251 592.416287,611.957314 C592.475287,612.960203 592.533287,613.95814 592.593287,614.957314"></path><path d="M592.567787,622.957314 C592.525787,621.956534 592.482787,620.955754 592.441787,619.957314 C592.484787,620.959265 592.526787,621.957704 592.567787,622.957314"></path><path d="M403.483787,490.957314 C403.498787,489.955979 403.511787,488.953309 403.525787,487.957314 C403.510787,488.96132 403.497787,489.958649 403.483787,490.957314"></path><path d="M688.004787,650.484814 C688.674056,650.465814 689.343325,650.446814 690.004787,650.429814 C689.332171,650.449814 688.668479,650.466814 688.004787,650.484814"></path><path d="M365.585787,658.957314 C365.531787,657.956092 365.477787,656.954869 365.423787,655.957314 C365.478787,656.958537 365.531787,657.958537 365.585787,658.957314"></path><path d="M582.004787,667.436814 C582.674896,667.450814 583.345005,667.462814 584.004787,667.477814 C583.332383,667.464814 582.669158,667.450814 582.004787,667.436814"></path><path d="M727.004787,475.608814 C725.671906,475.507814 724.337667,475.406814 723.004787,475.305814 C724.337667,475.406814 725.671906,475.507814 727.004787,475.608814"></path><path d="M734.004787,476.664814 L731.004787,476.249814 L734.004787,476.664814 Z"></path><path d="M582.420787,581.957314 C582.477787,578.956007 582.532787,575.956007 582.588787,572.957314 C582.531787,575.958621 582.476787,578.957314 582.420787,581.957314"></path><path d="M504.452787,471.957314 C504.486787,474.292226 504.520787,476.627138 504.556787,478.957314 C504.522787,476.620034 504.487787,474.288674 504.452787,471.957314"></path><path d="M332.004787,618.426314 C330.335658,618.446314 328.664068,618.466314 327.004787,618.488314 C328.678839,618.468314 330.341813,618.447314 332.004787,618.426314"></path><path d="M469.004787,419.495814 C467.333531,419.469814 465.663652,419.442814 464.004787,419.418814 C465.680172,419.445814 467.343168,419.470814 469.004787,419.495814"></path><path d="M426.004787,458.459814 C427.672622,458.458814 429.339289,458.456814 431.004787,458.454814 C429.33812,458.455814 427.671453,458.457814 426.004787,458.459814"></path><path d="M448.004787,418.424314 C446.666772,418.446314 445.330034,418.469314 444.004787,418.490314 C445.346631,418.468314 446.675709,418.446314 448.004787,418.424314"></path><path d="M340.004787,618.467814 C338.668029,618.460814 337.331271,618.453814 336.004787,618.446814 C337.346681,618.454814 338.675734,618.460814 340.004787,618.467814"></path><path d="M520.004787,107.630814 C521.670682,107.514814 523.338891,107.399814 525.004787,107.283814 C523.337734,107.399814 521.670682,107.514814 520.004787,107.630814"></path><path d="M542.411787,224.957314 C542.473787,223.29019 542.535787,221.623066 542.597787,219.957314 C542.534787,221.62581 542.473787,223.291562 542.411787,224.957314"></path><path d="M502.004787,240.456314 C501.001366,240.456314 499.997945,240.457314 499.004787,240.458314 C500.011628,240.458314 501.008207,240.457314 502.004787,240.456314"></path><path d="M417.004787,415.440814 C416.001381,415.451814 414.997976,415.462814 414.004787,415.473814 C415.011597,415.463814 416.008192,415.452814 417.004787,415.440814"></path><path d="M394.004787,456.294814 C395.338529,456.402814 396.672271,456.511814 398.004787,456.619814 C396.671044,456.511814 395.338529,456.402814 394.004787,456.294814"></path><path d="M391.473287,506.957314 C391.494287,505.622599 391.516287,504.289266 391.536287,502.957314 C391.515287,504.293411 391.494287,505.625363 391.473287,506.957314"></path><path d="M506.004787,453.653314 C507.337317,453.522314 508.672256,453.392314 510.004787,453.261314 C508.671052,453.392314 507.337317,453.522314 506.004787,453.653314"></path><path d="M597.385787,429.957314 C597.465787,428.623079 597.544787,427.28749 597.623787,425.957314 C597.544787,427.292903 597.464787,428.625785 597.385787,429.957314"></path><path d="M615.004787,245.612814 C616.338509,245.508814 617.671064,245.404814 619.004787,245.301814 C617.671064,245.404814 616.338509,245.508814 615.004787,245.612814"></path><path d="M479.004787,420.471814 C478.001989,420.461814 476.997794,420.451814 476.004787,420.442814 C477.01178,420.451814 478.008982,420.461814 479.004787,420.471814"></path><path d="M391.578287,581.957314 C391.528287,580.955515 391.479287,579.954795 391.431287,578.957314 C391.479287,579.959113 391.528287,580.958754 391.578287,581.957314"></path><path d="M503.69715,530.957314 C505.88267,536.376818 504.655416,532.539446 504.711455,533.790434 C502.84956,534.040415 502.510524,533.095681 503.69715,530.957314"></path><path d="M412.004787,415.511814 C411.002498,415.475814 409.997464,415.439814 409.004787,415.402814 C410.01394,415.438814 411.00799,415.474814 412.004787,415.511814"></path><path d="M616.410287,313.957314 C616.473287,312.623548 616.537287,311.289782 616.599287,309.957314 C616.536287,311.292379 616.472287,312.624847 616.410287,313.957314"></path><path d="M391.509787,571.957314 C391.506787,570.623047 391.502787,569.29018 391.499787,567.957314 C391.502787,569.294385 391.505787,570.62585 391.509787,571.957314"></path><path d="M391.400287,541.957314 C391.469287,540.95651 391.540287,539.955707 391.609287,538.957314 C391.539287,539.959324 391.469287,540.958922 391.400287,541.957314"></path><path d="M599.364787,410.957314 C599.457787,409.956507 599.551787,408.955699 599.644787,407.957314 C599.551787,408.959334 599.457787,409.95893 599.364787,410.957314"></path><path d="M378.370787,544.957314 C378.459787,545.959295 378.549787,546.961276 378.638787,547.957314 C378.548787,546.956522 378.459787,545.956918 378.370787,544.957314"></path><path d="M376.356787,536.957314 C376.455787,537.958116 376.553787,538.960121 376.652787,539.957314 C376.553787,538.954107 376.455787,537.95571 376.356787,536.957314"></path><path d="M576.392787,399.957314 C576.467787,398.956929 576.541787,397.956543 576.616787,396.957314 C576.540787,397.958856 576.466787,398.958085 576.392787,399.957314"></path><path d="M66.0047865,535.614814 C67.3371848,535.509814 68.6709857,535.403814 70.0047865,535.299814 C68.6681806,535.404814 67.3357823,535.509814 66.0047865,535.614814"></path><path d="M567.562287,559.957314 C567.523287,560.959472 567.484287,561.962925 567.447287,562.957314 C567.486287,561.952567 567.524287,560.955588 567.562287,559.957314"></path><path d="M583.393287,562.957314 C583.467287,561.956917 583.541287,560.955329 583.616287,559.957314 C583.541287,560.958902 583.467287,561.958108 583.393287,562.957314"></path><path d="M577.346787,395.957314 C577.451787,394.956115 577.558787,393.956115 577.662787,392.957314 C577.557787,393.959712 577.451787,394.958513 577.346787,395.957314"></path><path d="M74.0047865,534.653814 C75.3385908,534.522814 76.6723951,534.391814 78.0047865,534.260814 C76.6723951,534.391814 75.3371779,534.522814 74.0047865,534.653814"></path><path d="M498.004787,419.446314 C497.335422,419.453314 496.664902,419.461314 496.004787,419.468314 C496.677619,419.461314 497.341203,419.453314 498.004787,419.446314"></path><path d="M391.509787,532.957314 C391.506787,531.955247 391.502787,530.954421 391.499787,529.957314 C391.502787,530.960621 391.506787,531.957728 391.509787,532.957314"></path><path d="M585.582801,530.957314 C585.227801,529.923388 585.053801,528.904356 585.738801,527.957314 C585.686801,528.958969 585.634801,529.958142 585.582801,530.957314"></path><path d="M568.547287,511.957314 C568.519287,512.958172 568.489287,513.960316 568.462287,514.957314 C568.491287,513.953884 568.519287,512.955599 568.547287,511.957314"></path><path d="M569.411287,610.957314 C569.473287,611.957701 569.536287,612.960405 569.598287,613.957314 C569.536287,612.955769 569.473287,611.955382 569.411287,610.957314"></path><path d="M643.004787,247.243814 C644.005905,247.386814 645.005905,247.529814 646.004787,247.670814 C645.003668,247.527814 644.004787,247.385814 643.004787,247.243814"></path><path d="M639.004787,247.336943 C640.346436,247.417943 641.821141,246.772943 643.004787,247.717943 L639.004787,247.336943 Z"></path><path d="M468.004787,458.467314 C469.33812,458.461314 470.672869,458.454314 472.004787,458.447314 C470.671453,458.454314 469.33812,458.461314 468.004787,458.467314"></path><path d="M498.004787,246.283814 L502.004787,246.630814 C500.66962,246.514814 499.338578,246.399814 498.004787,246.283814"></path><path d="M432.004787,458.196058 C433.339486,458.202058 434.671453,458.208058 436.004787,458.214058 C434.665989,458.858058 433.332655,458.921058 432.004787,458.196058"></path><path d="M395.619287,625.957314 C395.543287,624.954251 395.467287,623.953813 395.390287,622.957314 C395.467287,623.960378 395.543287,624.95819 395.619287,625.957314"></path><path d="M541.482787,247.957314 C541.497787,246.955582 541.511787,245.955149 541.526787,244.957314 C541.511787,245.960346 541.497787,246.95948 541.482787,247.957314"></path><path d="M457.004787,458.618814 C458.339031,458.511814 459.671909,458.403814 461.004787,458.295814 C459.670542,458.403814 458.339031,458.511814 457.004787,458.618814"></path><path d="M570.471287,634.957314 C570.493287,635.95855 570.516287,636.959786 570.538287,637.957314 C570.516287,636.953606 570.493287,635.956078 570.471287,634.957314"></path><path d="M574.004787,222.647814 C575.33812,222.520814 576.671453,222.393814 578.004787,222.266814 C576.671453,222.393814 575.33812,222.520814 574.004787,222.647814"></path><path d="M591.367787,477.957314 C591.459787,476.956528 591.551787,475.955741 591.641787,474.957314 C591.550787,475.959281 591.458787,476.957708 591.367787,477.957314"></path><path d="M637.390287,210.957314 C637.467287,209.955743 637.543287,208.95535 637.619287,207.957314 C637.543287,208.958885 637.466287,209.9581 637.390287,210.957314"></path><path d="M542.475787,124.957314 C542.494787,125.958114 542.512787,126.960114 542.533787,127.957314 C542.514787,126.954114 542.495787,125.955714 542.475787,124.957314"></path><path d="M507.004787,106.290814 C508.33812,106.401814 509.672861,106.513814 511.004787,106.623814 C509.671453,106.512814 508.33812,106.401814 507.004787,106.290814"></path><path d="M307.004787,674.653314 C308.338587,674.522314 309.670986,674.392314 311.004787,674.261314 C309.670986,674.392314 308.338587,674.523314 307.004787,674.653314"></path><path d="M509.004787,96.4583143 C508.335384,96.4573143 507.66481,96.4563143 507.004787,96.4563143 C507.676533,96.4583143 508.341246,96.4583143 509.004787,96.4583143"></path><path d="M263.004787,687.677328 C264.339526,686.989328 265.671453,687.185328 267.004787,687.682328 C265.671453,687.680328 264.336713,687.679328 263.004787,687.677328"></path><path d="M782.004787,629.636314 C784.338524,629.516314 786.672261,629.397314 789.004787,629.278314 C786.672261,629.397314 784.338524,629.517314 782.004787,629.636314"></path><path d="M782.004787,612.411314 C780.667231,612.441314 779.330942,612.472314 778.004787,612.503314 C779.344875,612.473314 780.674831,612.441314 782.004787,612.411314"></path><path d="M762.004787,592.578161 C763.671453,592.451161 765.33812,592.324161 767.004787,592.197161 C765.450198,593.174161 763.671453,592.451161 762.004787,592.578161"></path><path d="M743.004787,594.638314 C744.671885,594.517314 746.337688,594.397314 748.004787,594.276314 C746.338983,594.397314 744.671885,594.517314 743.004787,594.638314"></path><path d="M715.004787,612.613314 C716.33812,612.509314 717.671453,612.405314 719.004787,612.301314 C717.671453,612.405314 716.33812,612.509314 715.004787,612.613314"></path><path d="M722.004787,612.615814 C723.33812,612.510814 724.671453,612.403814 726.004787,612.298814 C724.671453,612.403814 723.33812,612.509814 722.004787,612.615814"></path><path d="M727.004787,611.634314 C728.337731,611.516314 729.670676,611.399314 731.004787,611.280314 C729.671842,611.398314 728.338897,611.516314 727.004787,611.634314"></path><path d="M734.004787,577.448314 C733.001632,577.455314 731.998477,577.462314 731.004787,577.466314 C732.011997,577.458314 733.008392,577.453314 734.004787,577.448314"></path><path d="M759.004787,632.539421 C760.33812,632.427421 761.671453,632.313421 763.004787,632.201421 C761.760577,633.075421 760.354537,632.572421 759.004787,632.539421"></path><path d="M721.004787,552.648314 C722.337327,552.521314 723.671057,552.393314 725.004787,552.266314 C723.671057,552.393314 722.337327,552.521314 721.004787,552.648314"></path><path d="M716.004787,536.458814 C715.000654,536.457814 713.997899,536.456814 713.004787,536.455814 C714.013051,536.456814 715.008919,536.457814 716.004787,536.458814"></path><path d="M706.004787,538.452814 C705.335468,538.456814 704.66615,538.459814 704.004787,538.461814 C704.677514,538.458814 705.34115,538.455814 706.004787,538.452814"></path><path d="M682.004787,541.238679 C681.668604,542.060679 679.902092,541.955679 680.009483,541.111679 C680.674066,541.153679 681.338648,541.196679 682.004787,541.238679"></path><path d="M635.443787,544.957314 C635.484787,545.957314 635.525787,546.959637 635.565787,547.957314 C635.524787,546.954991 635.484787,545.954991 635.443787,544.957314"></path><path d="M772.004787,550.257913 C773.004424,550.240913 774.005149,550.224913 775.004787,550.207913 C774.017114,550.913913 773.015301,550.814913 772.004787,550.257913"></path><path d="M734.004787,535.443314 C733.335418,535.453314 732.666049,535.463314 732.004787,535.471314 C732.67763,535.462314 733.341208,535.453314 734.004787,535.443314"></path><path d="M708.004787,598.643814 C709.338585,598.518814 710.672383,598.394814 712.004787,598.270814 C710.670988,598.394814 709.338585,598.519814 708.004787,598.643814"></path><path d="M692.004787,600.631814 L696.004787,600.282814 L692.004787,600.631814 Z"></path><path d="M770.004787,630.645314 C771.337661,630.519314 772.671912,630.394314 774.004787,630.269314 C772.671912,630.394314 771.337661,630.519314 770.004787,630.645314"></path><path d="M722.004787,636.665842 C723.340471,636.177842 724.676155,636.010842 726.004787,636.677842 C724.670513,636.673842 723.33765,636.669842 722.004787,636.665842"></path><path d="M719.884824,498.8251 L718.004787,498.1751 C720.338118,498.1461 722.67145,498.1171 725.004787,498.0891 C725.010131,498.0901 720.153591,498.8461 719.884824,498.8251"></path><path d="M702.004787,481.458814 C700.334037,481.457814 698.663287,481.456814 697.004787,481.455814 C698.677986,481.457814 700.341386,481.458814 702.004787,481.458814"></path><path d="M639.004787,519.684308 C640.668344,519.018308 642.3354,519.148308 644.004787,519.666308 C642.337731,519.672308 640.671842,519.678308 639.004787,519.684308"></path><path d="M740.004787,503.439314 C739.00135,503.451314 737.997914,503.463314 737.004787,503.475314 C738.011659,503.462314 739.008223,503.451314 740.004787,503.439314"></path><path d="M719.004787,490.293814 C720.672308,490.402814 722.339829,490.511814 724.004787,490.620814 C722.338547,490.510814 720.671026,490.402814 719.004787,490.293814"></path><path d="M698.004787,500.634314 C699.671883,500.516314 701.338979,500.399314 703.004787,500.280314 C701.338979,500.399314 699.671883,500.516314 698.004787,500.634314"></path><path d="M711.004787,498.626814 C712.337725,498.513814 713.670664,498.400814 715.004787,498.287814 C713.670664,498.400814 712.337725,498.513814 711.004787,498.626814"></path><path d="M700.004787,489.293314 C701.3389,489.402314 702.671843,489.512314 704.004787,489.621314 C702.670673,489.511314 701.33773,489.402314 700.004787,489.293314"></path><path d="M681.004787,508.478314 C680.335024,508.464314 679.666423,508.450314 679.004787,508.436314 C679.67687,508.450314 680.340828,508.464314 681.004787,508.478314"></path><path d="M702.004787,498.519814 C701.334678,498.477814 700.665716,498.436814 700.004787,498.394814 C700.67719,498.435814 701.340415,498.477814 702.004787,498.519814"></path><path d="M689.004787,498.484814 C688.334695,498.465814 687.664604,498.446814 687.004787,498.429814 C687.677161,498.448814 688.340403,498.466814 689.004787,498.484814"></path><path d="M725.004787,497.554787 C725.004787,497.813787 728.016605,496.499787 728.004752,497.721787 L725.004787,497.554787 Z"></path><path d="M714.004787,481.455814 C713.33477,481.456814 712.66587,481.457814 712.004787,481.458814 C712.678153,481.457814 713.340353,481.456814 714.004787,481.455814"></path><path d="M359.004787,434.033788 C360.087664,429.614505 359.792661,426.156587 363.649287,428.980678 C365.765875,430.530865 369.255546,438.393064 368.990523,441.055886 C368.66434,444.341283 367.16654,445.650191 364.075003,444.605065 C360.520575,443.401169 359.110316,437.339187 359.004787,434.033788"></path><path d="M553.834844,407.204269 C562.79041,407.204269 558.883069,416.735271 551.417612,416.948632 C547.987504,417.047008 543.052373,416.369873 544.164672,411.778127 C544.758727,409.327663 553.460764,406.023753 553.834844,407.204269"></path><path d="M457.779061,425.957314 C464.24358,429.085113 455.148123,442.820787 449.27358,439.42017 C441.751392,435.067893 455.12039,427.916992 457.779061,425.957314"></path><path d="M442.048679,438.957314 C444.164994,441.265462 453.70079,449.090803 448.444654,452.236876 C441.98061,456.106493 437.061105,443.333285 442.048679,438.957314"></path><path d="M333.683071,432.957314 C331.579875,428.890126 334.47366,418.247777 340.895468,420.192346 C347.357625,422.150904 337.238833,431.877564 333.683071,432.957314"></path><path d="M476.345056,435.30094 C480.537518,433.613057 479.739267,438.607787 480.373134,440.217979 C481.091165,442.048712 484.782583,446.505875 483.85677,448.454396 C482.482515,451.345224 479.197456,449.501961 477.414213,447.626118 C474.286962,444.335561 474.50921,439.057638 476.345056,435.30094"></path><path d="M412.445069,439.93004 C408.950299,439.93004 400.608199,429.854157 405.509578,428.163697 C411.593458,426.065793 416.680715,440.670623 412.445069,439.93004"></path><path d="M533.213146,423.957314 C536.413412,424.746672 540.649508,433.808541 535.826231,434.859404 C530.485675,436.024069 529.532458,426.463403 533.213146,423.957314"></path><path d="M513.808058,440.957314 C511.297236,436.123284 510.678819,425.775358 516.807861,434.0811 C518.13578,435.88029 519.505646,435.152601 518.82371,438.12023 C518.228064,440.711735 515.849075,440.957314 513.808058,440.957314"></path><path d="M381.589699,415.957314 C384.148122,419.808085 383.392596,431.883804 378.046637,424.741765 C375.77324,421.705754 377.338843,416.101702 381.589699,415.957314"></path><path d="M510.193056,53.0551921 C515.156677,51.7736817 516.34692,63.4765999 513.452116,64.7666374 C509.399134,66.571959 509.907039,55.0127844 510.193056,53.0551921"></path><path d="M824.160827,647.606444 C819.553837,647.336984 813.100201,646.080801 820.0787,642.810823 C824.50603,640.739749 831.089277,640.595256 835.764281,641.445294 C838.986608,642.031078 843.822022,644.702255 838.904478,648.164892 C836.026071,650.190405 827.660342,647.705377 824.160827,647.606444"></path><path d="M818.997375,655.957314 C817.665137,655.806953 816.334274,655.656592 815.004787,655.507848 C816.073051,653.569321 819.176107,653.16189 818.997375,655.957314"></path><path d="M825.004787,647.413814 C826.341557,647.442814 827.678328,647.472814 829.004787,647.500814 C827.664148,647.471814 826.333823,647.442814 825.004787,647.413814"></path></g></g></g></svg>