<?xml version="1.0" standalone="no"?>
<!DOCTYPE svg PUBLIC "-//W3C//DTD SVG 20010904//EN"
 "http://www.w3.org/TR/2001/REC-SVG-20010904/DTD/svg10.dtd">
<svg version="1.0" xmlns="http://www.w3.org/2000/svg"
 width="87.000000pt" height="87.000000pt" viewBox="0 0 87.000000 87.000000"
 preserveAspectRatio="xMidYMid meet">
<metadata>
Created by potrace 1.11, written by Peter Selinger 2001-2013
</metadata>
<g transform="translate(0.000000,87.000000) scale(0.100000,-0.100000)"
fill="#000000" stroke="none">
<path d="M392 858 c-17 -17 -17 -369 0 -386 7 -7 23 -12 37 -12 53 0 54 4 55
200 1 171 0 183 -19 196 -24 17 -57 18 -73 2z"/>
<path d="M143 776 c-72 -41 -107 -79 -122 -132 -4 -16 -7 -108 -7 -204 2 -224
1 -221 176 -324 182 -107 200 -115 248 -111 47 4 57 8 207 95 209 120 204 112
205 360 0 221 -8 243 -115 307 -98 58 -145 55 -145 -9 0 -23 10 -33 70 -69 39
-23 74 -49 79 -58 4 -9 8 -89 7 -177 -1 -144 -3 -164 -20 -183 -11 -12 -25
-21 -32 -21 -7 0 -14 -3 -16 -7 -2 -5 -23 -19 -48 -32 -25 -14 -74 -42 -110
-64 -36 -21 -75 -39 -86 -39 -29 -1 -293 152 -306 176 -12 22 -15 308 -4 343
4 13 34 37 72 58 64 36 85 63 77 96 -3 10 -17 22 -32 27 -21 7 -38 1 -98 -32z"/>
</g>
</svg>
