<svg xmlns="http://www.w3.org/2000/svg" viewBox="0 0 1024 768" version="1.1"><g stroke="none" stroke-width="1" fill="#FFFFFF00" fill-rule="evenodd"><g transform="translate(-68.000000, -18.000000)"><rect x="0" y="0" width="1024" height="768"></rect><path d="M720.311796,614.793035 C725.064712,630.889494 722.033913,649.66973 711.148359,662.909534 C704.116775,671.461132 687.397039,679.108064 678.011843,670.205342 C673.815278,666.222931 672.039787,652.594031 670.246512,646.234716 C668.597927,640.38615 665.840174,629.555397 667.065103,624.647818 C668.84901,617.496965 683.100832,619.150047 689.762666,618.523926 C699.985743,617.563309 710.135306,616.103006 720.311796,614.793035 Z M854.79983,622.969383 C857.037533,627.895392 860.60816,631.159471 862.130123,636.62633 C863.124673,640.19512 863.723525,643.773706 864.117488,647.43768 C864.595059,651.875616 864.920546,651.706155 861.858922,653.780725 C857.187443,656.948425 845.235363,656.704161 839.550125,657.622265 C832.129772,658.820167 824.745926,660.230789 817.321846,661.425469 C819.120886,654.515995 818.178243,647.077956 820.038421,640.030929 C821.846019,633.184 824.992848,626.424306 829.435433,620.798563 C832.739842,616.613297 837.546842,611.598768 843.48971,611.573026 C851.150929,611.539548 852.361157,617.60288 854.79983,622.969383 Z M383.678633,474.921268 C384.816214,489.734678 382.704959,505.510034 374.280358,518.239708 C370.71193,523.631148 365.516031,526.530846 361.298305,531.172832 C356.417445,536.544786 353.769967,543.185154 346.059248,545.483488 C341.083531,546.967541 335.245346,545.943117 330.072307,546.611222 C321.485045,547.720937 318.949885,546.517565 311.709476,542.072607 C306.509241,538.87916 300.513808,539.478233 295.030227,535.976907 C288.453685,531.778756 282.728116,525.793081 276.499362,521.038749 C311.455261,503.914893 347.49274,489.333276 383.678633,474.921268 Z M477.644329,483.706252 C491.022272,490.000654 498.095753,500.738432 501.918511,514.597848 C465.016552,523.032885 429.101682,533.352152 392.854845,544.987651 C402.976336,519.242125 414.342526,495.667222 442.03069,483.692201 C447.55465,481.302933 453.230755,477.498887 459.518459,477.589651 C465.779937,477.679084 472.153218,481.122707 477.644329,483.706252 Z M814.224017,521.872757 C833.242134,531.882171 823.574733,563.87211 816.928853,578.07404 C808.47117,571.85304 799.603743,565.793577 791.345107,559.735842 C782.317559,553.113973 774.202467,544.591289 765.966645,537.047879 C770.327039,534.77392 773.161392,531.156865 777.21357,528.559378 C781.227433,525.987709 785.207642,525.804065 789.703389,524.799175 C798.31086,522.874423 805.276675,517.161736 814.224017,521.872757 Z M665.814855,449.791259 C667.332575,451.738196 669.14712,453.573637 670.577203,455.574864 C674.050742,460.434474 677.055258,465.375026 681.083132,469.883323 C688.218119,477.870657 698.605952,488.399138 710.295935,489.127587 L710.635405,492.537771 C707.188036,492.451076 705.149232,489.481771 702.158326,489.18041 C699.809672,488.943952 696.523262,490.737768 693.644438,490.483968 C684.741049,489.700182 675.994248,489.252461 666.955868,489.491727 C649.117112,489.964943 631.58237,492.80941 614.046646,495.075857 C617.39695,483.135531 623.649323,470.906019 633.612192,462.918892 C637.056056,460.157233 640.355951,456.360702 644.24404,454.159694 C646.584737,452.834936 649.06296,452.734227 651.472321,451.699119 C654.259873,450.500581 657.83908,446.503895 660.718037,446.12072 C663.727917,445.719958 663.74021,447.127632 665.814855,449.791259 Z M808.765482,450.878538 C818.123067,458.390639 825.313042,467.922189 833.007718,476.944406 C839.973341,485.110057 849.412054,496.759506 851.888689,507.272628 C839.536934,513.083846 818.352676,507.764594 810.384971,497.016196 C800.559525,483.759993 805.375604,465.310206 808.765482,450.878538 Z M594.557628,408.046103 C592.714831,420.503064 586.727402,434.38291 577.740627,443.683878 C573.866104,447.695168 570.470755,452.924544 566.068758,456.431966 C560.320341,461.012241 555.692768,458.665453 549.021251,459.375746 C541.854676,460.138326 537.210599,464.814253 529.574264,463.544558 C524.134453,462.639887 519.123228,459.627997 514.010522,458.714282 C508.425977,457.714868 503.551403,458.307161 497.998683,455.542421 C491.132036,452.123892 485.653373,445.396797 480.31277,440.288628 C483.12412,438.062518 488.799889,437.903405 492.396322,436.700046 C497.146392,435.109962 501.890092,433.534772 506.666728,432.011711 C516.531601,428.867316 526.369994,425.65494 536.254561,422.563448 C555.081928,416.673709 574.960663,411.079705 594.557628,408.046103 Z" fill="#714dd2"></path><g transform="translate(68.000000, 18.000000)" fill="#000000"><path d="M821.924401,82.4919913 L821.308798,86.6217593 C827.320236,87.6577014 827.496556,84.0275757 821.924401,82.4919913 Z M795.766673,75.3714612 C792.544029,74.2475653 787.272613,75.895125 789.80679,79.7440011 C793.383837,85.1793055 795.012699,78.0839359 795.766673,75.3714612 Z M535.869345,225.877906 C536.353686,225.393819 530.642353,214.480077 529.905416,212.649442 C526.21776,214.752988 525.967604,214.244319 527.470187,217.76197 C528.766832,220.796111 533.280497,223.876539 535.869345,225.877906 Z M199.06813,228.872222 C197.306594,228.718107 193.800901,227.669127 192.306395,228.280647 C190.217275,229.137246 190.778527,231.118966 190.525528,234.010757 C196.635307,233.726568 197.489854,234.535861 199.06813,228.872222 Z M191.146182,222.879688 C194.132654,223.415814 197.118123,223.951852 200.103593,224.487891 C200.741895,221.067541 202.430497,215.411619 196.133639,217.47657 C195.542477,217.670661 191.903468,221.76721 191.146182,222.879688 Z M542.929329,229.911767 C539.753065,233.067492 554.494944,239.747662 556.01514,237.608362 C559.331838,232.939733 545.07303,230.611262 542.929329,229.911767 Z M615.851321,192.611769 C617.634583,192.436811 619.416928,192.260804 621.200191,192.085845 C620.584139,189.484804 618.707325,179.898493 614.805537,180.41263 C610.93029,180.923284 615.301196,190.583603 615.851321,192.611769 Z M622.356044,208.263398 C622.405808,206.102873 623.291119,201.312495 622.445835,199.232376 C621.871313,197.81757 619.507319,193.522929 616.10969,196.313797 C615.386678,196.907651 615.055752,205.55757 615.276415,205.83817 C616.201768,207.014633 621.037343,207.811246 622.356044,208.263398 Z M603.92445,236.005905 C600.263973,233.208189 592.306039,229.080283 588.78172,235.406907 C583.868861,244.225002 600.748175,238.331291 603.92445,236.005905 Z M583.001897,236.74095 C578.19645,237.64152 573.340777,237.524452 568.47639,237.184036 C563.025319,236.801969 561.732957,235.137583 560.146012,240.358198 C565.992065,242.477111 578.443017,243.946757 584.358193,241.930673 C583.907124,240.200533 583.454052,238.470217 583.001897,236.74095 Z M613.313644,212.782389 C611.630518,216.230363 607.986087,220.746445 607.004419,224.342887 C606.281945,226.995213 605.998303,225.669728 606.603325,227.727859 C606.81863,228.461871 609.777814,231.535979 610.296066,232.279075 C613.889362,229.558553 618.222379,226.779842 620.06226,222.589762 C623.007524,215.880536 619.219943,215.343032 613.313644,212.782389 Z M531.560965,198.663053 C519.341083,202.464687 504.331837,206.187771 491.397037,205.056123 C491.226725,206.162856 513.334646,212.605842 515.977779,212.141267 C518.679338,211.666319 518.893626,207.902093 522.130054,205.892621 C525.698265,203.677978 528.644548,204.996409 532.589135,204.650535 C532.24605,202.654998 531.90405,200.658589 531.560965,198.663053 Z M571.78718,249.872633 C560.53908,249.15275 550.490345,246.465824 540.540273,241.347807 C534.825483,238.409073 530.721042,234.146037 526.900995,229.227547 C523.942579,225.418008 524.54788,225.731293 519.902965,224.439415 C516.470658,223.485889 512.250053,223.872454 508.725641,223.42959 C496.927754,221.946432 485.168659,218.370501 473.947119,214.648047 C461.35355,210.471679 450.506262,204.58225 436.672595,204.926183 C412.920992,205.517269 393.655663,223.492782 368.87858,215.943355 C359.047518,212.94837 348.866345,208.972414 340.915357,202.550557 C330.576111,194.199078 324.297415,189.251294 309.727442,192.209569 C297.996126,194.590694 288.995956,200.80696 278.945506,206.536492 C267.49099,213.066428 254.991042,216.978079 242.218795,220.426543 C237.215537,221.777235 232.58158,222.563129 227.33944,222.82645 C224.219695,222.983193 209.440313,220.734018 207.614154,222.322024 C205.848031,223.858185 205.044918,234.456507 205.232975,236.390093 C205.546957,239.617945 204.122219,239.951047 207.571478,241.310579 C209.966243,242.254624 217.36075,241.299917 220.329228,241.638014 C244.210234,244.366052 268.67624,245.182655 292.174524,249.297882 C314.259597,253.164627 336.424307,256.294133 358.261199,260.829178 C386.666999,266.729589 415.596639,269.42222 444.017739,275.136224 C457.75635,277.897258 471.611135,281.787186 485.187648,284.728558 C497.551091,287.406055 509.972734,289.891221 522.406596,292.317455 C521.95059,290.609142 519.366907,284.384923 523.492387,284.958763 C526.106488,285.321985 530.493459,294.34886 531.871817,296.379809 C538.218436,305.730068 544.977081,312.827623 553.610819,320.269231 C562.312124,327.769009 571.073731,335.190835 579.90623,342.552089 C587.121028,348.565015 602.621273,357.534478 602.221319,368.034521 C597.826104,368.871303 589.100348,361.085832 585.809517,358.976597 C579.151605,354.70694 572.768328,350.054851 566.560266,345.199378 C560.719768,353.74373 574.562906,363.649203 576.135403,371.73112 C572.575002,371.74576 566.629745,361.948671 564.469303,359.352838 C558.729757,364.701769 552.28862,369.419309 548.15683,376.137956 C594.465056,374.162192 602.057184,431.595215 635.483973,451.063537 C642.889891,455.376377 652.169095,457.158866 660.635756,455.264392 C669.456407,453.291532 677.933357,450.506652 685.693367,445.524169 C703.022606,434.39553 715.723076,413.001419 722.505274,394.627657 C726.249757,384.481191 729.783738,374.653089 731.478727,363.976019 C733.354662,352.153467 731.590616,340.136332 730.063285,328.354749 C727.342687,307.363115 716.185291,286.171432 700.382494,271.156032 C693.299982,264.426924 685.563834,258.536776 679.078159,251.191162 C676.815046,248.626993 671.649631,238.809097 668.810343,238.19391 C663.577457,237.059628 660.876349,244.403775 657.254826,238.392633 C653.708923,232.509077 660.473031,230.213065 664.590872,227.471658 C669.033491,224.512855 673.34317,221.401129 677.685217,218.311589 C686.270288,212.203203 694.768837,206.195637 703.015137,199.691799 C743.222379,167.980111 778.766398,132.625223 814.773592,96.5898764 C808.032062,94.9945663 798.445135,90.4086524 791.591192,91.6322698 C784.735162,92.8566725 778.643551,97.7083418 771.414629,98.5120489 C764.373166,99.2953816 757.535282,97.774869 751.005265,95.561278 C743.308075,92.9513734 738.0972,89.5931689 731.639313,96.1054055 C721.263504,106.568819 715.553416,121.108241 704.660751,131.008684 C693.652852,141.015176 678.245179,146.858604 663.912107,149.877283 C650.641085,152.671454 632.237501,151.350709 622.513006,161.797555 C620.32444,164.148386 618.371791,165.821134 618.247118,169.333841 C618.027524,175.580874 619.444443,171.104108 621.452156,174.972732 C624.723655,181.270676 626.00293,189.128548 626.741094,196.089387 C628.23318,210.176961 626.349357,225.6076 615.061631,235.31767 C602.90325,245.775132 587.864811,250.177932 571.78718,249.872633 Z M571.143589,227.05558 C579.375723,231.255863 596.021525,225.782053 602.600856,220.661435 C611.552899,213.691912 612.259938,201.56193 610.826111,191.422107 C606.663142,192.430178 602.499255,193.437201 598.335284,194.445184 C596.56005,194.874398 594.784816,195.303612 593.0105,195.733874 C593.171624,197.202514 592.93054,198.574029 592.28733,199.847457 C588.365184,204.873446 586.46357,202.375743 582.205039,198.016966 C573.088779,188.68569 564.99975,178.166841 561.282603,165.763021 C557.118275,170.627496 552.414828,173.764774 545.74119,173.088969 C542.817421,172.793494 531.603839,169.303031 534.498589,164.186189 C535.419005,162.558619 544.536644,164.607622 547.591541,164.453916 C553.971078,164.131391 556.972565,164.253662 559.30675,158.254536 C561.251345,153.259731 560.564114,151.206988 554.567293,150.292327 C546.953458,149.128774 546.735467,153.650432 541.309709,155.770304 C527.534574,161.154614 536.941327,139.71428 534.975205,133.674738 C541.746068,131.670612 548.894215,130.279182 554.882397,126.459774 C548.247554,127.220615 541.939423,129.437487 535.513639,131.04986 C536.061118,123.142771 551.748588,121.460029 557.615886,118.976199 C551.276763,118.133205 545.251651,122.305518 538.888983,122.043056 C532.943595,121.797746 524.606884,119.30028 518.871035,117.39811 C512.973309,115.443067 508.346955,109.994348 502.656423,114.736912 C498.926193,117.846107 493.919566,126.317281 492.72496,130.825111 C496.436894,130.289524 505.181361,129.568087 506.212415,133.78095 C507.5372,139.192436 496.612681,136.042753 493.246472,136.928915 C488.134638,138.274946 489.702017,139.760164 487.848442,144.810352 C486.02187,149.782579 482.744302,153.761714 477.558686,155.824208 C483.322871,158.925008 484.910021,158.869346 483.748156,164.606192 C482.605793,170.247 483.360182,176.584085 483.917895,182.86235 C487.347588,181.458184 491.0432,181.005364 494.725409,180.636535 C495.442042,185.190606 488.286318,187.11848 484.599997,187.384367 C486.534849,193.377624 486.606817,193.1894 493.227201,193.170533 C496.93457,193.160041 500.654576,192.947425 504.353532,192.767806 C511.88523,192.401887 519.193671,191.058353 526.622203,189.864682 C529.457367,189.408198 533.472852,187.859794 536.295378,188.170605 C541.468758,188.739349 540.463263,189.297843 539.608389,193.705715 C538.449804,199.681885 539.755418,204.205225 541.255665,210.690792 C532.401406,207.672877 539.5129,216.908116 543.690844,218.808506 C551.919659,222.550748 561.992236,226.556881 571.143589,227.05558 Z M86.8972308,588.225087 C93.1647344,591.351535 99.0857443,594.297666 104.796402,598.29864 C110.477527,602.27961 116.537785,608.974444 123.730253,610.259845 C132.332508,611.798266 134.40423,607.33427 136.532958,600.742319 C138.925397,593.327618 141.114896,589.962656 147.914852,585.895875 C159.949375,578.699574 174.044692,573.957805 187.196442,568.778316 C192.226528,566.798024 192.605119,567.176636 191.116571,562.079861 C190.218212,559.003145 189.121442,555.979716 187.942947,552.990751 C185.766452,547.475717 183.381339,541.634684 179.737659,536.822594 C158.884404,550.514265 134.012038,566.384035 108.339895,569.676504 C97.9158941,571.013596 87.6428576,573.358753 77.4185022,574.247819 C72.3566101,574.688526 68.2090859,575.969889 63.750153,578.146282 C58.7569373,580.581744 50.4978634,581.441456 46.9021394,585.446951 C60.4008239,585.356297 73.5501685,587.078661 86.8972308,588.225087 Z M598.340132,606.170367 C594.160217,607.891162 599.80498,617.76648 601.010437,621.877502 C602.822247,628.054514 604.534894,634.25769 606.362146,640.431214 C610.229959,653.500486 613.875158,666.622864 617.544729,679.743502 C641.73304,666.617486 667.613899,659.105457 694.47683,652.825176 C721.239848,646.568089 748.576659,642.114784 775.922716,637.832614 C790.865631,635.490527 806.540225,632.294049 820.37695,626.20576 C828.979761,622.420582 827.29848,618.926976 827.157879,610.545486 C827.024819,602.67757 825.787953,594.657921 824.582498,586.867475 C822.304112,572.147872 819.896733,556.099862 813.952105,542.270172 C808.159076,528.795365 800.40849,515.838338 792.955608,503.146394 C784.111632,488.084638 776.579711,471.867004 765.039801,458.496195 C753.014332,444.56225 740.108705,431.922617 727.064566,418.951505 C719.257359,433.758429 708.115906,451.715966 693.714851,461.036556 C677.871012,471.288681 652.947067,476.55987 634.930424,467.978972 C616.782956,459.336304 606.056245,441.607203 594.756584,426.15931 C583.866205,411.269814 574.404173,395.163967 555.104522,389.852173 C534.692477,384.233053 513.200416,391.881306 493.299413,396.672574 C470.607934,402.136175 448.406036,409.973942 426.351029,417.378424 C388.061848,430.234663 350.075928,442.000638 312.753735,457.322167 C266.818279,476.179245 220.821152,494.887699 176.422507,516.963482 C186.028401,530.698322 193.473543,543.213457 198.898987,559.009697 C203.123787,571.308896 205.704874,584.333337 206.692672,597.633552 C211.861078,592.492077 215.808904,586.376701 221.025168,581.172638 C226.924854,575.285126 233.85219,570.754319 240.793012,566.138562 C253.357843,557.782828 266.235926,550.218062 280.094924,543.863652 C311.553426,529.439143 344.98147,519.504124 378.240965,509.223384 C385.775909,506.894164 394.644564,504.18807 402.454889,502.898123 C409.090764,501.802526 414.985689,499.87951 421.741122,498.282429 C437.060185,494.662904 452.54991,491.341863 468.001666,488.720094 C497.690328,483.682857 527.984088,478.315327 558.084614,474.833506 C578.494527,472.472291 599.794717,468.643452 620.764701,470.688092 C624.308699,471.033959 627.779379,471.733418 631.348184,471.622736 C632.342852,471.591692 633.526151,470.119704 634.555627,470.221385 C636.536549,470.416951 638.657656,472.631917 640.678614,473.292608 C645.242457,474.784493 651.869553,473.858454 654.355295,477.615027 C656.346407,480.623795 655.617165,483.00746 652.652491,484.990384 C656.21989,489.520957 663.201924,493.696066 667.985207,497.258801 C672.283312,500.461663 676.337076,503.908314 680.67247,506.996372 C685.328959,510.312849 690.971445,513.443648 695.847972,516.828731 C702.209606,521.243761 707.645295,526.899741 713.654085,531.852944 C724.438678,540.74275 735.262003,548.486247 746.627123,556.81909 C752.747271,561.306865 758.58148,565.53349 765.230147,569.205231 C768.865886,571.213025 777.106432,576.712778 772.804572,581.707482 C768.512817,586.690489 759.905993,579.321882 755.217647,578.791703 C749.82196,578.180284 742.545121,581.550169 737.162962,582.34125 C722.921072,584.433051 708.633597,586.273116 694.387018,588.533864 C678.124577,591.11374 662.033275,594.59796 645.694979,596.741514 C637.256826,597.848789 628.821032,598.917561 620.337263,599.681162 C615.961588,600.075451 609.777047,599.48405 605.665926,600.87989 C602.555237,599.975793 601.201447,600.858983 601.60539,603.53147 C600.843352,604.779018 599.755294,605.658359 598.340132,606.170367 Z M147.711325,234.043134 C156.608544,233.986363 165.434738,234.499195 174.342818,234.422084 C177.772367,234.392125 180.723944,235.084878 182.111743,232.717216 C183.807979,229.82298 183.026269,222.264128 183.316155,218.950718 C172.914068,219.783589 163.368513,220.04203 152.984647,219.132591 C141.862634,218.159541 131.068239,214.987371 119.904079,214.299993 C122.283345,215.202036 125.006093,220.113558 123.454871,222.503698 C121.909664,224.88275 119.387084,222.735243 116.941405,221.658032 C107.496773,217.498768 99.6304973,211.354328 89.0218424,214.040774 C98.7892724,219.077972 108.057582,227.155753 118.257854,230.163685 C127.876777,232.999785 137.57951,233.96673 147.711325,234.043134 Z M808.547408,70.2688697 C812.87839,71.077467 821.326942,75.3992668 825.211769,73.2220015 C829.956163,70.5625088 828.959117,59.7786279 829.131599,55.5810591 C829.661829,42.6807556 830.643675,24.9298725 820.496708,14.4729176 C818.656405,26.8685972 822.635531,39.8305087 822.3513,52.3642626 C822.135934,61.7694669 818.583164,56.6333887 817.325964,49.9765019 C816.175589,43.8863908 816.301568,37.8789135 814.733719,31.8200213 C811.856369,36.7264463 811.186027,43.3850208 809.155054,48.8019539 C806.594708,55.6329227 802.97282,61.829073 799.322894,68.1611599 C802.407599,68.8316893 805.476926,69.5395836 808.547408,70.2688697 Z M189.959534,239.776508 C189.906826,243.389384 189.39189,246.783751 193.913938,247.115507 C199.900941,247.554139 197.937025,241.454789 197.557312,237.605691 C195.404596,237.897362 190.471092,237.297346 189.959534,239.776508 Z M806.044784,76.1632581 C802.291126,75.6993692 801.720525,74.8510461 799.340596,77.4744949 C797.82861,79.1393434 797.682444,82.1595153 798.994366,83.2081819 C804.68225,87.7578181 805.579167,78.7170863 806.044784,76.1632581 Z M809.554246,84.5394786 C812.475848,85.1134787 815.334862,86.6681504 816.976768,83.7720646 C819.383695,79.5251411 813.629573,79.1697879 810.47845,77.9089208 C810.170104,80.1184373 809.862676,82.3290018 809.554246,84.5394786 Z M625.977545,484.139237 C593.676156,483.376496 561.854215,488.437099 530.148063,494.008164 C502.102834,498.934662 474.263562,503.041098 446.834927,509.224467 C391.557644,521.686072 336.187931,535.63091 284.880188,559.6184 C272.415497,565.445429 259.967249,571.269058 248.477018,578.357169 C242.302063,582.166044 236.011795,585.931926 230.164542,590.228189 C226.948771,592.589798 223.620599,594.92125 220.60591,597.510456 C217.844394,599.881806 216.276543,603.154055 213.795976,605.4745 C212.627672,606.56747 207.596373,610.603179 206.103546,611.0571 C202.898023,612.032806 204.167704,612.110984 200.926594,609.894807 C194.152888,605.26469 192.794668,599.093491 190.752917,591.669242 C189.316106,586.442475 190.419188,584.710883 185.698126,584.889145 C183.295573,584.979922 179.680325,587.420777 177.454127,588.344741 C170.263393,591.330217 162.493154,593.707562 155.592096,597.269037 C150.013246,600.14682 145.548989,603.848905 143.159231,609.54897 C140.337305,616.278665 138.697035,621.774297 130.135322,622.529143 C114.862835,623.874637 106.087558,608.650501 93.0288531,603.527616 C79.0619213,598.047524 61.2365352,599.126119 46.4897301,598.949832 C41.1188416,598.885432 35.2702312,599.402473 30.1472478,600.126228 C22.9082659,601.148736 14.3441765,605.079562 6.83102853,602.5806 C-1.81567102,599.704717 -1.68556855,587.421678 4.04362743,582.075712 C10.0341054,576.488407 18.9227295,575.722483 26.5847501,573.86697 C42.0735593,570.118099 56.1616075,561.572397 71.9729018,558.947244 C87.7002293,556.336036 104.363832,555.768391 119.695752,551.009969 C127.508584,548.584091 135.100104,546.692409 142.523937,543.280221 C151.773071,539.028031 161.734808,536.261761 170.870563,532.082879 C167.726964,526.560655 166.875549,521.436394 166.684244,515.24922 C166.557072,511.120275 165.885323,511.116667 168.752118,509.387442 C169.319791,509.680983 169.887381,509.975484 170.455888,510.271033 C172.257236,511.550264 173.540495,510.965747 174.30775,508.516698 C186.987944,500.82623 198.708044,492.564013 212.238327,485.883742 C234.930525,474.679452 258.954105,465.62781 281.640146,454.955249 C324.741045,434.67919 372.745617,422.979717 418.088663,408.125724 C445.518284,399.13981 473.603925,391.77906 501.709163,385.151652 C506.635362,383.989705 511.546086,383.027699 516.554092,382.257111 C525.036846,380.951476 523.030567,380.872725 527.309879,374.347956 C532.800337,365.97524 541.514516,357.041645 550.360099,351.854132 C555.814788,348.653868 558.142142,349.134264 557.971515,342.134045 C557.842142,336.784563 556.374255,336.838078 551.999259,333.256869 C547.050851,329.205485 542.455148,324.709788 538.276649,319.9322 C533.507335,314.479684 531.370792,308.300391 527.380645,302.696362 C522.557446,295.92201 507.638102,297.071944 499.28701,295.892277 C486.207008,294.046299 472.909539,292.725177 460.025506,289.873422 C434.006932,284.115091 407.85153,282.100666 381.508784,278.075297 C355.027678,274.028146 328.554707,270.337842 302.07154,266.671808 C292.564805,265.356196 282.935945,264.225387 273.481057,262.593983 C260.244664,260.309476 246.316028,260.077994 232.887094,257.941161 C225.973098,256.840772 217.505189,252.936318 210.549536,253.269408 C203.085109,253.627664 209.759696,253.542893 204.849861,256.109523 C202.645978,257.262862 200.096568,258.294035 197.557119,258.427029 C193.556779,258.637378 189.524943,256.923968 187.077594,253.870445 C182.998094,248.780221 184.964993,244.879968 176.651641,244.237807 C171.178811,243.816094 164.792125,245.927381 159.230834,246.205362 C153.782047,246.477701 148.116382,247.268173 142.665097,247.107704 C131.763612,246.785895 118.772386,245.828346 108.873037,241.168646 C98.3823855,236.231726 89.0198892,229.645732 77.9842397,225.44792 C72.4459728,223.340451 64.5674173,222.446001 60.8546341,217.351086 C57.7554366,213.097609 56.7967737,204.447126 61.5490842,200.958956 C68.8386928,195.609183 82.9733323,203.705286 91.0394706,201.682867 C95.1633135,200.649114 91.7585534,199.403799 94.8776379,197.962781 C96.8104633,197.070248 96.5204429,196.936486 98.8132199,196.612552 C104.465621,195.81221 113.724929,199.771386 119.472279,200.711641 C130.812933,202.565126 142.055114,205.394208 153.386157,207.12685 C159.855722,208.116742 166.433552,208.365125 172.917852,209.417275 C178.565317,210.334275 183.206434,212.546161 187.303635,208.010657 C189.032091,206.097646 188.5043,204.125627 191.273768,203.128224 C193.757666,202.234549 200.892884,203.516876 203.292754,204.437173 C205.914321,205.441706 206.499923,206.891353 208.608726,208.035867 C208.662194,210.204456 209.57317,210.853199 211.343742,209.981311 C212.992357,209.857477 214.634587,209.945023 216.270434,210.24395 C230.664114,210.30418 244.989612,205.838037 258.080994,200.564233 C279.775417,191.825599 306.711255,167.087805 331.59418,180.544021 C337.716443,183.854217 341.734012,189.375482 347.694871,192.961886 C352.989556,196.146452 359.762392,198.998717 365.716378,200.795131 C377.613588,204.384114 389.441242,203.935324 401.226843,200.2186 C415.59753,195.685765 427.171506,190.939217 442.660131,191.460087 C457.00983,191.942283 468.462403,201.847644 482.517965,202.243138 C479.084095,196.728422 478.447631,190.392945 478.084778,184.136567 C477.848338,180.045483 480.132559,169.334801 477.65732,166.023349 C474.923817,162.365103 453.580442,160.885871 465.483859,150.147711 C469.379909,146.63108 476.572384,147.904868 480.601348,144.02244 C484.667807,140.103613 484.747789,133.97598 486.91649,129.084009 C489.370497,123.549245 493.417394,118.977405 497.564767,114.560487 C499.320822,112.689568 500.507374,111.503354 501.507358,109.254668 C502.66796,106.64648 501.895107,104.44205 503.749159,101.693237 C510.011051,92.4154146 520.933603,95.6452499 530.440218,96.8814946 C536.203288,97.6305412 543.183201,96.9163411 548.776366,98.488603 C553.271324,99.7528448 559.116866,103.584648 562.773995,106.397555 C570.830523,112.59348 572.703242,124.025918 573.323644,133.393918 C573.687454,138.878107 572.619731,144.046404 572.532128,149.511422 C572.439368,155.231478 569.956303,157.822677 565.490073,161.616527 C565.406821,160.561159 564.890552,159.853076 563.940264,159.492189 C561.995286,161.884654 562.493812,162.818609 565.43676,162.295101 C565.54875,163.72557 566.059921,165.01096 566.968102,166.153016 C569.400804,168.854929 571.496836,171.84094 573.866329,174.596356 C579.049841,180.620281 585.097194,185.84783 589.086446,192.684707 C593.268051,187.81884 598.591293,187.020669 603.580296,183.664499 C608.433124,180.399965 604.808709,179.427697 606.609093,174.708668 C607.331535,172.817966 609.226558,172.484395 609.893499,171.020458 C610.524592,169.631774 609.755544,168.756411 610.145275,167.231447 C612.087302,159.659273 611.280782,154.967658 617.328968,149.032169 C625.418296,141.092958 635.386232,138.994017 646.507289,137.486614 C657.601889,135.981736 665.480454,135.445837 675.343498,131.062515 C678.765163,129.542483 682.001566,128.848194 685.252515,127.122578 C689.645442,124.789439 693.736744,122.328297 697.554211,119.179314 C706.426757,111.861217 711.944581,101.664733 719.118714,92.8712455 C724.86268,85.8339596 731.78832,76.8242118 742.154768,78.6824665 C753.944854,80.7968888 764.334373,87.962422 776.884618,84.0987209 C781.540823,82.6663744 781.037971,83.5465913 782.88497,79.0329344 C783.498855,77.5295167 783.895757,76.0148574 784.493269,74.5371045 C786.731034,69.0056802 791.01675,68.3131926 793.675204,63.8095599 C799.948578,53.1778784 803.386104,39.9193384 806.958979,28.2510562 C808.618732,22.8326139 811.834215,18.1328718 813.794368,12.9371663 C814.61312,10.7645625 814.241687,1.0883385 816.786232,0.239647089 C824.993418,-2.49528471 831.634985,18.997134 833.132071,23.0620562 C837.043391,33.6847663 840.488127,45.6728108 838.944119,57.0463288 C838.309075,61.7327935 837.802786,67.1621491 836.548627,71.750899 C835.409138,75.9170924 835.162682,75.642945 835.815179,79.4191325 C836.477235,83.2590609 837.264719,85.5615467 836.696582,89.5870783 C836.537682,90.711262 836.02597,94.8646357 835.541742,95.4397021 C833.293478,98.115316 832.987875,96.2449965 830.188904,97.3143363 C825.663135,99.0435836 824.544173,100.52991 821.339586,104.586077 C813.327243,114.724967 804.963023,124.895009 796.304352,134.52057 C781.113241,151.406697 765.139661,166.544337 748.088796,181.561596 C731.353814,196.301648 713.858406,211.255821 694.862061,223.296369 C690.245701,226.222552 682.65662,228.789943 678.942233,232.629248 C674.872936,236.834283 681.041476,238.658178 685.212522,241.640888 C693.501724,247.564905 702.024691,253.631313 709.253066,260.538669 C724.662448,275.264161 733.462864,296.959971 738.861382,316.662638 C741.670777,326.916034 742.246956,338.669564 743.310865,349.288969 C744.558215,361.744779 743.01446,375.376103 739.084697,387.225101 C737.594659,391.718697 735.841114,396.121495 734.395882,400.633527 C733.729663,402.712055 730.460734,409.164573 731.347809,411.56287 C732.813492,415.525366 742.444184,420.337693 745.806742,423.091925 C750.402625,426.858914 755.106679,430.75053 758.958277,435.239191 C775.343789,454.332421 788.743543,474.369293 800.780878,496.33378 C813.023381,518.675256 824.577978,538.833283 829.407627,563.942411 C830.670141,570.503954 831.79286,577.071655 833.119809,583.623351 C834.54553,590.672408 833.167479,600.841068 836.020938,607.280506 C837.785387,611.265269 841.08849,612.51911 839.74282,618.026967 C838.579444,622.789147 832.669061,631.244158 829.455891,634.99473 C822.14053,643.533922 808.786466,646.896644 798.241915,649.992255 C785.444699,653.749186 771.757015,655.481078 758.579854,657.617642 C711.112109,665.314973 664.591273,673.723224 620.655369,693.45106 C622.132886,695.605847 623.326087,700.260646 620.326322,701.745007 C616.341467,703.716098 614.38525,697.863233 613.014147,695.276457 C609.023802,687.748503 607.835102,678.013359 605.450742,669.764605 C599.636852,649.642364 595.221839,629.3096 590.486687,608.968183 C574.329002,612.369175 557.968705,614.175959 541.895208,617.329795 C534.481126,618.785057 526.967507,618.921264 519.501582,619.838754 C511.484795,620.824182 510.972461,623.346826 511.604809,630.998097 C512.999861,647.867234 519.73453,664.050925 523.577006,680.454816 C525.442013,688.411354 528.70366,695.986847 530.478138,703.905464 C531.054811,706.483705 530.429454,713.423962 532.24703,715.348174 C532.169463,715.265902 538.368732,716.496346 539.347213,716.7426 C538.821387,706.778024 539.986556,697.00107 539.489345,687.05545 C538.976638,676.779435 537.572239,663.304382 539.868949,653.350613 C541.958316,644.301947 549.927759,634.734153 558.725214,630.915681 C566.387853,627.588259 581.597849,622.251095 589.871864,627.183765 C591.325771,628.051302 594.828242,630.740354 594.011296,632.823114 C592.907323,635.637551 580.659702,637.795438 578.17273,638.666586 C568.437116,642.077812 558.141905,648.055936 552.688245,656.723166 C547.780829,664.521718 549.742397,676.576457 549.905618,685.518323 C549.997759,690.601317 550.655457,695.321526 550.040804,700.386233 C549.169613,707.552729 548.71649,710.148296 551.646546,716.335076 C555.081061,723.584073 552.959484,734.17737 542.671679,731.570175 C536.51934,730.010928 536.273118,726.654486 532.56833,723.002232 C531.166554,721.619569 529.591261,722.231763 528.21799,720.488684 C526.377957,718.152178 526.387353,712.981291 525.455703,710.031341 C522.47641,700.589548 518.257112,691.410889 515.105179,681.912378 C510.867222,669.140729 507.397837,656.211801 504.360015,643.136755 C501.999071,632.970982 499.439406,622.677498 504.347475,612.783803 C508.703148,604.002124 519.372842,604.654951 528.220056,604.339284 C548.708291,603.608822 569.884491,599.167189 590.789132,598.094764 C592.293421,598.017336 595.43113,598.531854 596.779678,597.904662 C598.643467,597.039961 599.347,594.5234 601.758211,592.914964 C606.365395,589.839912 615.478282,588.771345 620.803196,587.827188 C632.878051,585.683219 644.890409,583.942177 656.892543,581.706682 C670.692973,579.135929 684.364673,576.064226 698.179987,573.727037 C711.406365,571.489293 724.766454,571.06812 738.149142,569.546645 C716.9158,555.852297 698.216423,539.157968 677.78737,524.321383 C668.313381,517.441113 659.534946,510.672988 651.032874,502.718374 C647.49213,499.40564 643.989722,496.185293 640.774722,492.574923 C639.07131,490.6607 637.565721,487.004396 635.398943,485.669 C632.675038,483.988727 629.569058,484.43797 625.977545,484.139237 Z"></path><path d="M548.107762,97.6304292 C541.057431,97.6332217 533.035392,98.2901572 526.107762,97.327443 C532.15274,97.3211599 542.438801,96.0812902 548.107762,97.6304292" transform="translate(537.107762, 97.351817) rotate(5.000000) translate(-537.107762, -97.351817) "></path><path d="M162.046744,207.94524 C159.046106,207.94324 156.045468,207.94124 153.046744,207.93924 C156.047383,207.23124 159.047064,207.30524 162.046744,207.94524" transform="translate(157.546744, 207.690768) rotate(5.000000) translate(-157.546744, -207.690768) "></path><path d="M346.028371,273.633412 C348.033071,273.630412 350.03683,273.627412 352.028371,273.627412 C350.019913,273.631412 348.024612,273.632412 346.028371,273.633412" transform="translate(349.028371, 273.630412) rotate(5.000000) translate(-349.028371, -273.630412) "></path><path d="M549.815983,686.171521 C549.699983,683.836471 549.582983,681.501421 549.466983,679.171521 C549.583983,681.507601 549.699983,683.839561 549.815983,686.171521" transform="translate(549.641483, 682.671521) rotate(5.000000) translate(-549.641483, -682.671521) "></path><path d="M538.330837,704.291987 C538.440837,705.960542 538.552837,707.629098 538.662837,709.291987 C538.551837,707.621543 538.440837,705.956765 538.330837,704.291987" transform="translate(538.496837, 706.791987) rotate(5.000000) translate(-538.496837, -706.791987) "></path><path d="M583.186637,625.852506 C581.185976,626.029506 579.186306,626.206506 577.186637,626.384506 C579.187297,626.206506 581.186967,626.029506 583.186637,625.852506" transform="translate(580.186637, 626.118506) rotate(5.000000) translate(-580.186637, -626.118506) "></path><path d="M297.480104,266.20554 C298.817358,266.25754 300.153707,266.30954 301.480104,266.36254 C300.13923,266.31054 298.810119,266.25854 297.480104,266.20554" transform="translate(299.480104, 266.284040) rotate(5.000000) translate(-299.480104, -266.284040) "></path><path d="M522.174355,95.8165919 C520.507071,95.8235919 518.839786,95.8295919 517.174355,95.8365919 C518.840713,95.8295919 520.507997,95.8235919 522.174355,95.8165919" transform="translate(519.674355, 95.826592) rotate(5.000000) translate(-519.674355, -95.826592) "></path><path d="M538.623997,678.216613 C538.721997,679.885403 538.818997,681.554193 538.916997,683.216613 C538.818997,681.546762 538.721997,679.881157 538.623997,678.216613" transform="translate(538.770497, 680.716613) rotate(5.000000) translate(-538.770497, -680.716613) "></path><path d="M289.510546,265.560794 C290.848156,265.578794 292.185767,265.596794 293.510546,265.612794 C292.168659,265.594794 290.839602,265.577794 289.510546,265.560794" transform="translate(291.510546, 265.586794) rotate(5.000000) translate(-291.510546, -265.586794) "></path><path d="M310.343479,268.40276 C311.681809,268.40976 313.019068,268.41676 314.343479,268.42376 C313.000867,268.41676 311.672173,268.40976 310.343479,268.40276" transform="translate(312.343479, 268.413260) rotate(5.000000) translate(-312.343479, -268.413260) "></path><path d="M527.883284,604.025396 C526.215916,604.181396 524.5496,604.337396 522.883284,604.492396 C524.550652,604.336396 526.216968,604.180396 527.883284,604.025396" transform="translate(525.383284, 604.258896) rotate(5.000000) translate(-525.383284, -604.258896) "></path><path d="M469.861171,292.371203 C470.864352,292.365203 471.867534,292.359203 472.861171,292.356203 C471.854171,292.363203 470.857671,292.367203 469.861171,292.371203" transform="translate(471.361171, 292.363703) rotate(5.000000) translate(-471.361171, -292.363703) "></path><path d="M539.323817,695.328137 C539.324817,696.663426 539.324817,697.998714 539.325817,699.328137 C539.325817,697.991872 539.324817,696.659516 539.323817,695.328137" transform="translate(539.324817, 697.328137) rotate(5.000000) translate(-539.324817, -697.328137) "></path><path d="M625.692936,484.682147 C626.697569,484.678147 627.700216,484.673147 628.692936,484.672147 C627.686318,484.678147 626.689627,484.680147 625.692936,484.682147" transform="translate(627.192936, 484.677147) rotate(5.000000) translate(-627.192936, -484.677147) "></path><path d="M317.295581,177.041686 C315.62821,177.200686 313.961896,177.359686 312.295581,177.518686 C313.962951,177.359686 315.629266,177.200686 317.295581,177.041686" transform="translate(314.795581, 177.280186) rotate(5.000000) translate(-314.795581, -177.280186) "></path><path d="M121.541872,200.547993 C120.208538,200.415993 118.876165,200.284993 117.541872,200.152993 C118.875205,200.284993 120.208538,200.415993 121.541872,200.547993" transform="translate(119.541872, 200.350493) rotate(5.000000) translate(-119.541872, -200.350493) "></path><path d="M144.280038,204.625965 L140.280038,204.068965 L144.280038,204.625965 Z" transform="translate(142.280038, 204.347465) rotate(5.000000) translate(-142.280038, -204.347465) "></path><path d="M91.3074077,201.9286 C89.9740743,201.7896 88.640741,201.6516 87.3074077,201.5126 C88.6397776,201.6516 89.9740743,201.7896 91.3074077,201.9286" transform="translate(89.307408, 201.720600) rotate(5.000000) translate(-89.307408, -201.720600) "></path><path d="M611.660958,484.368084 C612.330884,484.396084 613.000811,484.425084 613.660958,484.451084 C612.988586,484.423084 612.324364,484.395084 611.660958,484.368084" transform="translate(612.660958, 484.409584) rotate(5.000000) translate(-612.660958, -484.409584) "></path><path d="M473.95849,165.126809 C474.628211,165.170809 475.297932,165.214809 475.95849,165.259809 C475.28627,165.214809 474.62238,165.170809 473.95849,165.126809" transform="translate(474.958490, 165.193309) rotate(5.000000) translate(-474.958490, -165.193309) "></path><path d="M698.167904,573.734222 C696.833867,573.930222 695.500886,574.127222 694.167904,574.323222 C695.501941,574.127222 696.834923,573.930222 698.167904,573.734222" transform="translate(696.167904, 574.028722) rotate(5.000000) translate(-696.167904, -574.028722) "></path><path d="M742.427087,373.792747 C742.426087,372.792167 742.425087,371.790717 742.426087,370.792747 C742.427087,371.794197 742.427087,372.793907 742.427087,373.792747" transform="translate(742.426380, 372.292747) rotate(5.000000) translate(-742.426380, -372.292747) "></path><path d="M504.642732,296.368771 C505.312476,296.367771 505.98222,296.365771 506.642732,296.364771 C505.969631,296.365771 505.306601,296.367771 504.642732,296.368771" transform="translate(505.642732, 296.366771) rotate(5.000000) translate(-505.642732, -296.366771) "></path><path d="M232.905565,258.559372 C233.575835,258.545372 234.244442,258.531372 234.905565,258.519372 C234.233632,258.534372 233.570014,258.546372 232.905565,258.559372" transform="translate(233.905565, 258.539372) rotate(5.000000) translate(-233.905565, -258.539372) "></path><path d="M128.777256,232.309481 C131.874859,232.311481 134.748039,232.167481 137.777256,232.848481 C134.870364,232.880481 131.482843,233.513481 128.777256,232.309481" transform="translate(133.277256, 232.670599) rotate(5.000000) translate(-133.277256, -232.670599) "></path><path d="M160.831701,233.744498 C162.924642,232.935498 166.533785,232.884498 168.831701,233.630498 C166.165034,233.667498 163.497362,233.706498 160.831701,233.744498" transform="translate(164.831701, 233.423615) rotate(5.000000) translate(-164.831701, -233.423615) "></path><path d="M570.854425,227.783714 C573.188097,227.775714 575.521768,227.768714 577.854425,227.760714 C575.523797,228.535714 573.192154,228.755714 570.854425,227.783714" transform="translate(574.354425, 228.095598) rotate(5.000000) translate(-574.354425, -228.095598) "></path><path d="M806.027073,75.5870942 C804.35728,75.5220942 802.68561,75.4570942 801.027073,75.3900942 C802.700619,75.4550942 804.363846,75.5210942 806.027073,75.5870942" transform="translate(803.527073, 75.488594) rotate(5.000000) translate(-803.527073, -75.488594) "></path><path d="M80.6458983,588.041407 C82.645223,586.884407 84.6455607,587.392407 86.6458983,588.031407 C84.6445478,588.034407 82.6462359,588.038407 80.6458983,588.041407" transform="translate(83.645898, 587.695919) rotate(5.000000) translate(-83.645898, -587.695919) "></path><path d="M205.093742,233.457228 C205.207742,235.125991 205.322742,236.794754 205.435742,238.457228 C205.321742,236.787417 205.207742,235.121798 205.093742,233.457228" transform="translate(205.264742, 235.957228) rotate(5.000000) translate(-205.264742, -235.957228) "></path><path d="M142.731592,233.942967 C144.397647,233.791967 146.065538,233.640967 147.731592,233.489967 C146.06462,233.640967 144.397647,233.791967 142.731592,233.942967" transform="translate(145.231592, 233.716467) rotate(5.000000) translate(-145.231592, -233.716467) "></path><path d="M571.946512,249.748492 C570.608434,249.779492 569.271451,249.811492 567.946512,249.839492 C569.287876,249.807492 570.617194,249.777492 571.946512,249.748492" transform="translate(569.946512, 249.793992) rotate(5.000000) translate(-569.946512, -249.793992) "></path><path d="M201.928441,567.456112 C202.072441,569.12379 202.214441,570.790456 202.357441,572.456112 C202.213441,570.787422 202.071441,569.121767 201.928441,567.456112" transform="translate(202.142941, 569.956112) rotate(5.000000) translate(-202.142941, -569.956112) "></path><path d="M490.478505,285.984916 C492.144859,286.144916 493.813092,286.303916 495.478505,286.463916 C493.810272,286.303916 492.143919,286.144916 490.478505,285.984916" transform="translate(492.978505, 286.224416) rotate(5.000000) translate(-492.978505, -286.224416) "></path><path d="M150.033221,218.836281 C148.695952,218.880281 147.358683,218.925281 146.033221,218.972281 C147.374782,218.929281 148.704538,218.882281 150.033221,218.836281" transform="translate(148.033221, 218.904281) rotate(5.000000) translate(-148.033221, -218.904281) "></path><path d="M479.607519,283.907755 C481.2748,284.064755 482.940238,284.221755 484.607519,284.378755 C482.922727,284.447755 481.189086,285.131755 479.607519,283.907755" transform="translate(482.107519, 284.269509) rotate(5.000000) translate(-482.107519, -284.269509) "></path><path d="M165.970433,220.29285 C164.966305,220.32685 163.963129,220.35985 162.970433,220.39185 C163.976467,220.35785 164.973926,220.32485 165.970433,220.29285" transform="translate(164.470433, 220.342350) rotate(5.000000) translate(-164.470433, -220.342350) "></path><path d="M453.058885,277.683525 C454.724827,277.848525 456.391856,278.014525 458.058885,278.179525 C456.390769,278.013525 454.724827,277.848525 453.058885,277.683525" transform="translate(455.558885, 277.931525) rotate(5.000000) translate(-455.558885, -277.931525) "></path><path d="M809.208424,84.9832481 C810.875456,85.1532481 812.542488,85.3232481 814.208424,85.4942481 C812.541392,85.3232481 810.875456,85.1532481 809.208424,84.9832481" transform="translate(811.708424, 85.238748) rotate(5.000000) translate(-811.708424, -85.238748) "></path><path d="M392.726787,267.606051 C394.392745,267.625051 396.06083,267.644051 397.726787,267.662051 C396.059766,267.643051 394.392745,267.625051 392.726787,267.606051" transform="translate(395.226787, 267.634051) rotate(5.000000) translate(-395.226787, -267.634051) "></path><path d="M808.436215,70.8767109 C810.102529,71.0377109 811.7699,71.1977109 813.436215,71.3587109 C811.768844,71.1977109 810.102529,71.0377109 808.436215,70.8767109" transform="translate(810.936215, 71.117711) rotate(5.000000) translate(-810.936215, -71.117711) "></path><path d="M205.317547,240.920254 C206.984936,240.887254 208.652326,240.854254 210.317547,240.820254 C208.675092,241.845254 207.005535,241.785254 205.317547,240.920254" transform="translate(207.817547, 241.199669) rotate(5.000000) translate(-207.817547, -241.199669) "></path><path d="M535.060746,139.828436 C535.068746,138.493772 535.076746,137.158109 535.083746,135.828436 C535.076746,137.166095 535.068746,138.497765 535.060746,139.828436" transform="translate(535.072246, 137.828436) rotate(5.000000) translate(-535.072246, -137.828436) "></path><path d="M534.625968,144.80941 C534.632968,143.474103 534.638968,142.138795 534.646968,140.80941 C534.639968,142.146691 534.632968,143.47805 534.625968,144.80941" transform="translate(534.636468, 142.809410) rotate(5.000000) translate(-534.636468, -142.809410) "></path><path d="M539.818912,387.527712 C538.814896,387.550712 537.81088,387.573712 536.818912,387.595712 C537.826944,387.572712 538.822928,387.549712 539.818912,387.527712" transform="translate(538.318912, 387.561712) rotate(5.000000) translate(-538.318912, -387.561712) "></path><path d="M626.704099,202.061836 C626.667099,203.396749 626.629099,204.731663 626.592099,206.061836 C626.630099,204.725026 626.667099,203.392957 626.704099,202.061836" transform="translate(626.648099, 204.061836) rotate(5.000000) translate(-626.648099, -204.061836) "></path><path d="M648.314853,455.871882 C649.981165,455.707882 651.648542,455.542882 653.314853,455.378882 C651.647476,455.542882 649.980099,455.707882 648.314853,455.871882" transform="translate(650.814853, 455.625382) rotate(5.000000) translate(-650.814853, -455.625382) "></path><path d="M536.229497,188.117924 C537.562139,187.274924 538.89478,187.233924 540.229497,188.112924 C538.89478,188.114924 537.562139,188.115924 536.229497,188.117924" transform="translate(538.229497, 187.793742) rotate(5.000000) translate(-538.229497, -187.793742) "></path><path d="M547.510196,173.529912 C546.840437,173.483912 546.170677,173.437912 545.510196,173.391912 C546.182487,173.438912 546.846342,173.483912 547.510196,173.529912" transform="translate(546.510196, 173.460912) rotate(5.000000) translate(-546.510196, -173.460912) "></path><path d="M553.889149,375.819751 C555.222482,375.972751 556.555816,376.125751 557.889149,376.278751 C556.554842,376.125751 555.222482,375.972751 553.889149,375.819751" transform="translate(555.889149, 376.049251) rotate(5.000000) translate(-555.889149, -376.049251) "></path><path d="M508.526164,481.717866 C509.858851,481.570866 511.192507,481.423866 512.526164,481.275866 C511.192507,481.422866 509.859821,481.570866 508.526164,481.717866" transform="translate(510.526164, 481.496866) rotate(5.000000) translate(-510.526164, -481.496866) "></path><path d="M479.935466,487.258063 C481.2688,487.103063 482.601142,486.948063 483.935466,486.794063 C482.602133,486.948063 481.26979,487.103063 479.935466,487.258063" transform="translate(481.935466, 487.026063) rotate(5.000000) translate(-481.935466, -487.026063) "></path><path d="M467.719663,489.244278 C469.05266,489.060278 470.387674,488.877278 471.719663,488.693278 L467.719663,489.244278 Z" transform="translate(469.719663, 488.968778) rotate(5.000000) translate(-469.719663, -488.968778) "></path><path d="M455.503859,491.173493 L459.503859,490.649493 C458.169521,490.824493 456.836188,490.998493 455.503859,491.173493" transform="translate(457.503859, 490.911493) rotate(5.000000) translate(-457.503859, -490.911493) "></path><path d="M713.146404,586.364433 C712.141659,586.405433 711.136914,586.445433 710.146404,586.485433 C711.154707,586.445433 712.149962,586.405433 713.146404,586.364433" transform="translate(711.646404, 586.424933) rotate(5.000000) translate(-711.646404, -586.424933) "></path><path d="M508.237601,289.516031 C509.57158,289.666031 510.90459,289.817031 512.237601,289.968031 C510.90459,289.817031 509.570611,289.666031 508.237601,289.516031" transform="translate(510.237601, 289.742031) rotate(5.000000) translate(-510.237601, -289.742031) "></path><path d="M755.937971,97.3054143 C755.268576,97.3264143 754.598363,97.3474143 753.937971,97.3684143 C754.60982,97.3484143 755.273486,97.3264143 755.937971,97.3054143" transform="translate(754.937971, 97.336914) rotate(5.000000) translate(-754.937971, -97.336914) "></path><path d="M160.987557,219.976649 C160.317578,219.958649 159.648427,219.941649 158.987557,219.923649 C159.660021,219.940649 160.323375,219.958649 160.987557,219.976649" transform="translate(159.987557, 219.950149) rotate(5.000000) translate(-159.987557, -219.950149) "></path><path d="M442.276958,274.704344 C443.610291,274.859344 444.944605,275.014344 446.276958,275.169344 C444.943624,275.014344 443.610291,274.859344 442.276958,274.704344" transform="translate(444.276958, 274.936844) rotate(5.000000) translate(-444.276958, -274.936844) "></path><path d="M291.901233,249.542335 C293.234884,249.670335 294.568535,249.799335 295.901233,249.927335 C294.568535,249.799335 293.23393,249.670335 291.901233,249.542335" transform="translate(293.901233, 249.734835) rotate(5.000000) translate(-293.901233, -249.734835) "></path><path d="M189.587231,240.123255 C189.670231,241.124932 189.754231,242.125771 189.836231,243.123255 C189.753231,242.120738 189.670231,241.121577 189.587231,240.123255" transform="translate(189.711731, 241.623255) rotate(5.000000) translate(-189.711731, -241.623255) "></path><path d="M175.782232,234.79214 C177.11524,234.63514 178.448249,234.47914 179.782232,234.32114 C178.449223,234.47914 177.11524,234.63514 175.782232,234.79214" transform="translate(177.782232, 234.556640) rotate(5.000000) translate(-177.782232, -234.556640) "></path><path d="M212.379968,241.09927 C213.707461,240.41627 215.038046,240.05827 216.379968,241.06827 C215.046291,241.07827 213.712614,241.08927 212.379968,241.09927" transform="translate(214.379968, 240.769986) rotate(5.000000) translate(-214.379968, -240.769986) "></path><path d="M672.303447,320.476972 C677.164891,320.797508 679.529536,321.681379 681.233412,326.21782 C682.023308,328.322413 680.643259,332.53064 681.346398,333.839653 C682.282572,335.577646 683.360987,334.520071 684.867137,336.114111 C690.3722,341.94133 694.050312,354.181177 684.750115,359.349091 C680.738087,355.252188 681.551186,350.016136 683.6374,345.237855 C678.305852,344.489299 675.580054,344.544001 673.507963,339.453822 C673.259796,338.843461 672.195504,331.193796 672.020981,331.041206 C670.841684,330.007623 666.566358,331.529687 664.993627,330.819518 C661.518285,329.248511 659.409877,323.159297 659.936474,319.583504 C660.662816,314.652632 665.552506,311.738063 669.196319,308.689138 C656.770836,310.084523 646.145065,320.489448 633.74682,322.208248 C630.300733,322.685212 629.565312,324.302284 628.021837,320.501924 C626.651876,317.125746 627.845295,317.475072 630.043487,315.544182 C634.400527,311.720789 641.346168,308.843647 646.673681,306.41468 C654.411235,302.884951 667.602403,295.049108 676.573729,298.000145 C681.050818,299.472305 684.609891,304.877261 683.674726,309.425218 C682.761755,313.86185 675.580054,317.570081 672.303447,320.476972" transform="translate(658.938626, 328.349091) rotate(5.000000) translate(-658.938626, -328.349091) "></path><path d="M676.529423,257.053463 C680.578675,262.295359 682.65662,268.025052 679.314966,274.225122 C684.756491,273.296951 690.770073,271.761935 694.775474,276.409568 C700.564818,283.12744 695.435234,285.942926 689.453543,286.877873 C684.650849,287.628927 675.33448,291.587449 670.814826,288.700341 C663.386048,283.954955 669.425542,273.212748 671.65896,267.849871 C667.248932,268.376383 656.200444,270.65955 657.402364,262.213091 C658.268423,256.125292 672.099464,256.436941 676.529423,257.053463" transform="translate(677.311554, 273.240693) rotate(5.000000) translate(-677.311554, -273.240693) "></path><path d="M620.674635,293.161001 L616.343811,298.260277 C618.53617,298.750242 621.513819,296.889763 623.447333,296.107334 C622.523437,295.125252 621.598531,294.143082 620.674635,293.161001 Z M614.094919,286.293049 C608.949357,285.57085 603.394368,292.29486 602.210087,284.780854 C601.517371,280.377593 605.640185,274.738342 610.488209,274.060852 C618.943615,272.88 630.765968,292.053575 632.879512,298.66341 C634.827938,304.754446 632.750779,303.912511 628.278179,306.168816 C624.405621,308.122345 619.370762,312.655674 614.344168,311.282707 C609.747671,310.026749 608.329431,302.664586 608.349833,298.828067 C608.382151,292.914196 611.938157,291.010416 614.094919,286.293049 Z"></path><path d="M641.122968,286.633226 C642.104265,288.933678 648.66738,299.516521 643.701515,299.924511 C640.939793,300.151491 634.337426,284.627754 633.433627,282.866501 C632.19367,280.447292 629.741938,277.175709 629.871771,274.300623 C630.096211,269.329081 629.95732,270.904536 633.334994,271.147798 C639.918238,271.623787 646.148215,281.034376 652.501986,283.002497 C649.135383,273.792072 644.420126,263.785779 646.185454,253.926975 C654.084139,260.040123 655.617981,273.92328 658.428013,282.989089 C659.283503,285.74829 661.238045,291.382576 658.327367,293.558524 C655.033229,296.019873 643.604895,287.924237 641.122968,286.633226" transform="translate(644.866811, 276.926975) rotate(5.000000) translate(-644.866811, -276.926975) "></path><path d="M593.480336,306.68928 C595.910796,301.586186 598.525336,295.614525 589.546179,297.504144 C590.857258,300.565508 592.16934,303.62696 593.480336,306.68928 Z M590.570815,285.342191 C598.273472,284.729991 602.656301,294.837127 603.452561,300.711547 C604.08922,305.396612 599.213852,321.748994 592.639075,316.812989 C590.188675,314.97366 588.812176,309.946625 587.209178,307.404579 C585.013482,303.924081 581.939913,300.605516 580.27322,296.863253 C576.74528,288.935255 583.07144,285.362821 590.570815,285.342191 Z"></path><path d="M590.901403,285.28596 C589.234112,285.45396 587.566821,285.62296 585.901403,285.79096 C587.568694,285.62296 589.235985,285.45396 590.901403,285.28596" transform="translate(588.401403, 285.538460) rotate(5.000000) translate(-588.401403, -285.538460) "></path><path d="M678.713657,257.404767 C677.380667,257.219767 676.047678,257.034767 674.713657,256.849767 C676.046646,257.034767 677.379635,257.219767 678.713657,257.404767" transform="translate(676.713657, 257.127267) rotate(5.000000) translate(-676.713657, -257.127267) "></path><path d="M689.273501,274.431023 C687.939497,274.427023 686.606499,274.424023 685.273501,274.419023 C686.609519,273.575023 687.942517,273.591023 689.273501,274.431023" transform="translate(687.273501, 274.112251) rotate(5.000000) translate(-687.273501, -274.112251) "></path><path d="M504.34515,143.673523 C511.215477,147.747815 498.428367,166.376086 491.526957,152.783699 C489.600819,148.990156 489.666996,144.063833 493.929366,144.718263 C495.848485,145.012708 496.353833,147.823138 498.971817,147.70086 C501.567741,147.580539 502.643611,145.246503 504.34515,143.673523" transform="translate(498.312843, 150.673523) rotate(5.000000) translate(-498.312843, -150.673523) "></path><path d="M542.951276,161.067277 C542.749303,157.583143 548.81902,150.098493 553.021537,154.327224 C557.23878,158.569493 545.829395,160.706583 542.951276,161.067277" transform="translate(548.446364, 157.067277) rotate(5.000000) translate(-548.446364, -157.067277) "></path></g></g></g></svg>