<svg xmlns="http://www.w3.org/2000/svg" viewBox="0 0 1024 768" version="1.1"><g id="react-group-310" stroke="none" stroke-width="1" fill="#FFFFFF00" fill-rule="evenodd"><g id="react-group-311"><rect id="react-rect-313" x="0" y="0" width="1024" height="768"></rect><path d="M537.0207,380.5301 C533.5687,386.3861 530.1177,392.2411 526.6667,398.0971 L526.6667,398.0971 L494.7347,452.2651 C492.2927,456.4091 491.1377,460.5401 489.6617,465.1771 L489.6617,465.1771 L481.5417,490.6971 C477.5087,488.6201 473.4757,486.5431 469.4437,484.4651 C465.5737,482.4711 458.6117,480.4831 455.5757,477.3211 C452.8977,474.5321 451.5757,467.9821 450.1157,464.4391 C445.8777,454.1591 441.6397,443.8791 437.4007,433.5991 C430.9787,418.0231 424.5567,402.4471 418.1367,386.8711 C437.4217,388.7201 456.7077,390.5701 475.9937,392.4191 C496.3357,388.4561 516.6787,384.4931 537.0207,380.5301 Z M505.3182,216.4694 C506.1552,222.4914 506.9912,228.5134 507.8282,234.5354 C508.3952,238.6244 508.0912,243.1764 510.6202,246.3964 C516.7482,254.1994 526.9502,259.5984 529.5002,269.4384 L529.5002,269.4384 L532.1602,279.6944 C532.5002,281.0084 534.2722,284.7664 533.8062,286.0444 C533.0302,288.1724 525.5832,290.9174 523.6532,291.9414 C516.3342,295.8214 508.7632,299.5854 500.8182,302.0074 C492.5722,304.5204 485.9212,303.4994 478.4582,299.0364 C473.6992,296.1904 465.4812,291.3624 462.6892,286.3044 C460.7662,282.8224 460.8712,276.6884 460.1422,272.7414 L460.1422,272.7414 L439.7872,272.7414 C435.6422,272.7414 428.6342,271.3504 425.3202,273.6654 C423.3212,275.0614 421.6372,278.0314 419.9982,279.8404 C417.3662,282.7454 414.6372,285.5684 411.7892,288.2634 C405.7522,293.9804 398.8942,299.8654 390.9912,302.7924 C381.4382,306.3304 372.4472,301.3674 364.9852,295.3404 C361.5782,292.5874 353.7312,286.3744 353.3222,281.6654 C352.8992,276.8114 357.1712,271.0654 360.5452,268.1314 C366.6242,262.8474 373.8402,258.7614 380.8252,254.8164 C391.6762,248.6884 402.8502,243.0754 414.1732,237.8684 C415.9562,242.5064 417.7402,247.1434 419.5242,251.7804 C420.7902,255.0754 422.0582,258.3704 423.3262,261.6644 C423.9572,263.3074 424.5522,266.8354 425.7962,268.0894 C427.2512,269.5564 431.0262,268.7794 433.2892,268.7794 L433.2892,268.7794 L452.4002,268.7794 C454.7992,268.7794 460.3312,269.8544 462.5352,268.7604 C464.2622,267.9024 466.1452,264.3484 467.3372,262.8894 C479.9972,247.4164 492.6582,231.9434 505.3182,216.4694 Z" id="react-path-314" fill="#714dd2"></path><g id="react-group-312" transform="translate(72.999426, 30.999409)" fill="#000000"><path d="M856.306774,317.720491 C854.194774,314.783491 851.836774,313.659491 850.928774,317.933491 C849.933774,322.615491 850.976774,328.515491 850.572774,333.381491 C849.596774,345.129491 849.205774,356.933491 847.914774,368.653491 C845.543774,390.175491 844.059774,413.070491 835.900774,433.359491 C831.997774,443.062491 827.584774,452.656491 822.263774,461.666491 C816.949774,470.663491 811.654774,480.479491 805.116774,488.636491 C792.848774,503.939491 781.945774,520.614491 766.869774,533.372491 C763.212774,536.467491 759.957774,540.005491 756.035774,542.785491 C752.719774,545.136491 748.980774,546.919491 745.803774,549.229491 C744.237774,550.367491 742.694774,551.250491 741.045774,552.301491 C739.474774,553.301491 738.527774,554.825491 736.830774,555.514491 C735.165774,556.190491 733.086774,556.012491 731.301774,556.757491 C729.202774,557.634491 727.341774,559.012491 725.247774,559.899491 C721.108774,561.653491 716.501774,562.044491 712.317774,563.781491 C708.234774,565.474491 704.613774,566.556491 700.342774,567.730491 C695.478774,569.067491 690.557774,569.825491 685.654774,570.995491 C683.494774,571.511491 681.446774,572.172491 679.400774,573.030491 C676.758774,574.139491 676.536774,574.012491 673.755774,573.594491 C669.071774,572.890491 664.345774,575.056491 659.591774,574.935491 C657.209774,574.875491 655.076774,574.240491 652.683774,574.512491 C650.043774,574.812491 648.178774,575.241491 645.460774,575.014491 C640.605774,574.609491 635.933774,574.370491 631.127774,574.264491 C629.278774,574.223491 627.594774,573.715491 625.744774,573.808491 C622.930774,573.950491 622.134774,573.387491 619.403774,572.727491 C617.441774,572.253491 615.222774,572.903491 613.243774,572.798491 C610.910774,572.674491 608.686774,571.922491 606.358774,571.746491 C601.539774,571.382491 597.155774,570.766491 592.336774,569.990491 C582.336774,568.379491 571.984774,565.863491 562.441774,562.469491 C557.880774,560.847491 554.114774,558.756491 549.993774,556.343491 C546.059774,554.039491 541.618774,553.573491 537.959774,550.912491 C530.452774,545.449491 521.896774,540.955491 514.837774,534.893491 C507.619774,528.695491 498.972774,524.227491 491.859774,518.054491 C488.642774,515.262491 485.033774,512.965491 481.926774,510.055491 C478.534774,506.877491 475.720774,503.353491 472.118774,500.393491 C464.595774,494.211491 458.698774,485.932491 451.185774,479.534491 C443.367774,472.876491 436.730774,465.425491 429.629774,458.045491 C426.737774,455.039491 423.788774,452.297491 420.370774,449.917491 C416.374774,447.134491 418.863774,444.449491 420.295774,440.497491 C424.131774,429.924491 429.417774,421.065491 435.728774,411.766491 C441.953774,402.595491 448.190774,393.550491 455.159774,384.919491 C461.030774,377.648491 467.339774,370.878491 473.605774,364.111491 C476.210774,361.297491 478.732774,358.293491 481.507774,355.627491 C483.651774,353.568491 483.942774,353.684491 486.615774,354.333491 C489.045774,354.924491 491.373774,355.142491 493.649774,356.238491 C498.067774,358.366491 501.883774,361.334491 506.765774,362.475491 C511.977774,363.692491 516.492774,365.553491 521.592774,367.090491 C531.006774,369.929491 541.218774,373.009491 549.576774,378.360491 C558.371774,383.992491 564.732774,392.884491 571.009774,401.001491 C577.577774,409.491491 582.120774,419.294491 587.379774,428.656491 C592.819774,438.337491 597.890774,448.162491 603.776774,457.588491 C614.556774,474.849491 628.685774,489.799491 648.916774,494.810491 C657.764774,497.001491 668.825774,499.774491 677.452774,495.443491 C681.228774,493.548491 684.478774,490.740491 688.213774,488.751491 C692.560774,486.436491 696.968774,484.441491 700.681774,481.130491 C707.942774,474.656491 715.818774,468.933491 722.808774,462.111491 C729.255774,455.817491 734.883774,448.655491 740.903774,441.937491 C743.906774,438.586491 746.370774,434.762491 748.904774,431.053491 C750.163774,429.209491 751.049774,427.072491 752.294774,425.265491 C753.433774,423.612491 755.029774,422.541491 756.265774,420.963491 C758.735774,417.813491 760.616774,413.867491 762.880774,410.520491 C765.743774,406.288491 768.010774,401.752491 769.844774,396.988491 C773.676774,387.028491 775.099774,377.533491 775.981774,366.971491 C779.074774,369.534491 787.418774,369.653491 789.374774,365.821491 C792.544774,359.609491 785.770774,358.621491 782.238774,355.847491 C779.828774,353.955491 778.241774,351.293491 776.475774,348.847491 C775.279774,347.189491 771.947774,344.493491 771.499774,342.483491 C770.827774,339.463491 774.185774,336.401491 775.733774,334.124491 C777.901774,330.935491 779.912774,327.637491 782.035774,324.417491 C790.195774,312.036491 798.874774,299.752491 808.864774,288.762491 C813.315774,283.865491 818.041774,278.752491 823.462774,274.936491 C828.277774,271.547491 833.003774,264.929491 838.976774,263.734491 C835.616774,268.901491 826.355774,279.667491 832.820774,286.171491 C838.114774,291.496491 848.557774,279.589491 855.114774,280.538491 C851.429774,285.806491 845.032774,294.441491 849.818774,301.185491 C853.922774,306.970491 861.450774,297.482491 866.493774,297.482491 C863.097774,304.228491 859.702774,310.974491 856.306774,317.720491 M414.855774,397.091491 C411.669774,396.876491 408.120774,398.892491 408.493774,402.437491 C408.852774,405.869491 412.870774,406.133491 413.306774,409.171491 C413.719774,412.040491 410.264774,417.531491 409.275774,420.296491 C408.668774,421.991491 407.644774,428.741491 405.648774,429.478491 C402.898774,430.493491 398.784774,425.089491 396.146774,427.530491 C394.055774,429.463491 396.462774,433.892491 397.692774,435.556491 C399.643774,438.195491 403.843774,438.459491 404.943774,441.404491 C405.933774,444.057491 404.880774,449.466491 404.880774,452.325491 C401.371774,450.484491 399.090774,449.602491 397.561774,445.869491 C396.117774,442.345491 395.539774,443.043491 392.136774,441.074491 C389.277774,439.418491 387.680774,436.341491 385.715774,433.794491 C383.620774,431.078491 380.635774,428.280491 380.040774,424.749491 C384.962774,424.749491 389.856774,424.986491 392.910774,420.320491 C395.640774,416.145491 392.828774,412.998491 388.269774,413.601491 C385.724774,413.938491 378.864774,418.066491 376.604774,416.712491 C375.328774,415.947491 375.071774,413.265491 374.629774,411.953491 C373.568774,408.802491 372.358774,405.721491 371.378774,402.538491 C370.449774,399.514491 369.616774,396.462491 368.848774,393.393491 C368.414774,391.663491 366.435774,387.181491 367.411774,385.667491 C369.294774,382.749491 374.164774,385.543491 374.444774,380.016491 C374.740774,374.174491 369.008774,374.188491 365.085774,374.442491 C359.975774,374.772491 357.438774,367.802491 354.875774,364.133491 C361.635774,365.232491 368.208774,367.173491 375.002774,368.136491 C380.518774,368.917491 386.032774,366.398491 388.260774,372.740491 C389.053774,374.996491 391.913774,382.340491 395.672774,378.594491 C397.887774,376.387491 395.183774,371.412491 394.155774,369.126491 C405.099774,367.093491 416.256774,367.542491 427.209774,365.017491 C432.427774,363.815491 437.237774,361.512491 442.336774,359.936491 C446.322774,358.704491 450.924774,355.956491 455.029774,355.557491 C454.070774,358.775491 449.916774,361.423491 447.717774,363.835491 C444.381774,367.494491 441.190774,371.283491 437.976774,375.049491 C436.265774,372.231491 434.026774,367.007491 430.535774,366.023491 C425.348774,364.561491 424.969774,371.486491 426.173774,374.769491 C427.007774,377.045491 428.412774,378.335491 429.952774,380.067491 C432.559774,383.004491 430.825774,383.959491 428.365774,386.973491 C426.309774,389.492491 424.516774,392.079491 422.616774,394.705491 C419.691774,398.744491 419.173774,397.382491 414.855774,397.091491 M358.392774,436.299491 C348.328774,434.650491 337.571774,434.283491 327.377774,433.689491 C317.839774,433.133491 308.013774,432.960491 298.449774,433.246491 C288.926774,433.530491 279.189774,432.605491 269.717774,433.743491 C260.894774,434.803491 251.979774,432.725491 242.981774,432.346491 C239.197774,432.187491 235.367774,433.195491 231.582774,432.741491 C229.682774,432.513491 228.007774,431.836491 226.062774,431.867491 C223.303774,431.912491 220.643774,432.679491 217.863774,432.666491 C207.845774,432.617491 196.763774,430.222491 186.924774,433.318491 C182.664774,434.658491 178.665774,434.053491 174.311774,435.098491 C170.097774,436.110491 166.051774,437.575491 161.875774,438.654491 C153.350774,440.858491 145.518774,443.791491 137.389774,447.394491 C121.575774,454.403491 106.204774,466.339491 99.0647736,482.530491 C95.0127736,491.719491 93.1247736,502.360491 94.7167736,512.302491 C96.2477736,521.867491 97.5357736,532.305491 102.701774,540.677491 C112.328774,556.278491 122.618774,572.517491 138.747774,582.090491 C146.723774,586.824491 153.847774,592.967491 161.797774,597.635491 C165.280774,599.679491 169.374774,600.197491 172.782774,602.312491 C175.793774,604.181491 178.830774,606.313491 181.783774,608.303491 C185.243774,610.637491 187.580774,612.981491 186.303774,617.362491 C185.034774,621.720491 181.655774,626.095491 178.990774,629.703491 C172.517774,638.463491 166.026774,647.414491 159.313774,655.980491 C155.742774,660.537491 151.320774,664.088491 146.804774,667.661491 C143.829774,670.016491 139.110774,672.278491 136.880774,675.375491 C135.404774,677.425491 136.510774,678.744491 135.682774,680.703491 C134.914774,682.516491 133.049774,683.142491 131.389774,684.047491 C126.060774,686.950491 120.997774,687.696491 115.294774,689.410491 C117.472774,683.765491 120.297774,677.909491 119.409774,671.680491 C118.680774,666.576491 116.073774,664.361491 111.425774,667.069491 C106.540774,669.915491 101.869774,673.323491 96.9387736,676.063491 C91.9817736,678.819491 85.6967736,680.068491 80.2597736,681.584491 C82.7287736,676.460491 85.7177736,671.095491 84.3437736,665.201491 C83.0737736,659.754491 80.1887736,658.663491 75.7647736,661.651491 C66.3117736,668.035491 51.2947736,671.288491 40.1287736,668.403491 C41.8307736,662.541491 47.8607736,657.595491 51.8077736,653.190491 C56.4817736,647.972491 61.2267736,642.834491 66.3557736,638.057491 C71.1977736,633.547491 75.7197736,629.006491 80.1337736,624.094491 C80.8147736,623.337491 81.3397736,622.235491 82.3287736,621.806491 C83.3957736,621.344491 84.9647736,622.241491 85.8247736,621.473491 C87.4197736,620.050491 85.1857736,618.007491 84.2237736,616.696491 C87.2797736,615.974491 90.7507736,619.470491 93.5697736,617.482491 C98.0867736,614.294491 93.8327736,606.888491 91.1697736,604.234491 C83.6367736,596.725491 74.7467736,590.981491 67.8117736,582.753491 C60.3117736,573.853491 51.7927736,565.718491 44.5927736,556.586491 C38.0357736,548.271491 30.6677736,539.544491 26.6027736,529.694491 C22.2057736,519.043491 19.9807736,508.485491 21.2407736,496.965491 C22.5307736,485.169491 25.0937736,473.416491 27.4617736,461.799491 C29.4707736,451.947491 35.3307736,442.511491 41.0777736,434.380491 C46.5817736,426.591491 51.9527736,417.430491 58.6357736,410.620491 C61.9267736,407.266491 66.1637736,405.080491 69.5587736,401.856491 C73.4347736,398.175491 76.2657736,395.736491 81.0807736,393.271491 C85.8047736,390.854491 90.3907736,388.166491 95.1017736,385.720491 C99.7857736,383.287491 104.302774,381.378491 109.098774,379.262491 C113.140774,377.479491 117.119774,376.831491 121.266774,375.201491 C126.635774,373.092491 132.118774,371.320491 137.763774,370.107491 C147.567774,368.001491 157.160774,365.430491 166.923774,363.404491 C171.549774,362.444491 176.381774,362.470491 180.910774,361.427491 C185.788774,360.303491 190.357774,360.080491 195.300774,359.277491 C199.752774,358.554491 204.183774,358.572491 208.682774,357.975491 C211.339774,357.623491 214.019774,358.049491 216.669774,357.728491 C219.929774,357.334491 222.222774,356.658491 225.534774,356.840491 C230.055774,357.090491 233.651774,354.593491 237.992774,355.243491 C242.138774,355.864491 246.080774,354.739491 250.185774,354.036491 C252.356774,353.664491 254.019774,354.287491 256.174774,354.351491 C259.106774,354.439491 262.106774,353.812491 265.070774,353.786491 C271.132774,353.732491 277.235774,353.385491 283.294774,353.528491 C295.392774,353.814491 307.263774,353.794491 319.366774,355.557491 C322.247774,355.978491 325.119774,357.227491 327.949774,357.563491 C330.280774,357.840491 331.424774,357.288491 333.786774,358.355491 C338.432774,360.455491 341.594774,366.128491 344.016774,370.447491 C350.136774,381.364491 352.007774,394.399491 355.638774,406.241491 C359.387774,418.467491 364.345774,428.836491 371.406774,439.413491 C367.007774,438.634491 362.803774,437.021491 358.392774,436.299491 M309.455774,302.251491 C305.400774,293.898491 303.177774,284.829491 299.788774,276.213491 C303.400774,275.662491 307.305774,277.129491 310.963774,277.244491 C315.377774,277.385491 319.279774,277.178491 323.605774,276.187491 C331.627774,274.348491 340.638774,271.019491 347.004774,265.652491 C350.149774,263.001491 352.504774,259.722491 354.056774,255.925491 C355.010774,253.588491 355.590774,251.201491 356.063774,248.739491 C356.181774,248.124491 356.146774,245.112491 356.661774,244.656491 C357.815774,243.632491 363.520774,243.434491 365.110774,243.558491 C369.467774,243.900491 373.846774,244.478491 378.281774,244.766491 C381.716774,244.990491 385.233774,244.497491 386.553774,248.137491 C387.703774,251.306491 387.238774,255.136491 388.307774,258.437491 C390.636774,265.634491 396.296774,272.979491 403.383774,275.963491 C410.450774,278.938491 421.454774,279.531491 428.908774,278.512491 C437.999774,277.269491 444.578774,271.470491 451.414774,266.037491 C451.414774,283.897491 450.816774,301.373491 456.078774,318.728491 C457.263774,322.640491 458.703774,326.501491 460.531774,330.161491 C461.366774,331.832491 465.431774,336.586491 465.027774,338.352491 C464.583774,340.289491 456.946774,342.301491 455.146774,342.913491 C450.748774,344.407491 446.310774,345.839491 441.888774,347.259491 C434.005774,349.791491 425.431774,351.873491 417.192774,352.445491 C409.153774,353.003491 401.238774,352.813491 393.197774,352.986491 C385.174774,353.158491 378.068774,352.172491 370.206774,350.361491 C361.327774,348.317491 351.990774,347.300491 343.226774,344.942491 C335.568774,342.881491 330.619774,334.556491 325.921774,328.696491 C319.384774,320.540491 314.018774,311.648491 309.455774,302.251491 M298.144774,257.574491 C296.592774,258.831491 290.154774,256.146491 288.812774,255.107491 C286.954774,253.668491 286.582774,248.503491 289.242774,247.161491 C291.780774,245.881491 300.103774,250.095491 296.287774,242.758491 C295.428774,241.105491 294.150774,241.166491 294.922774,239.146491 C295.365774,237.989491 298.276774,236.174491 299.335774,235.775491 C303.720774,234.126491 304.240774,238.918491 308.001774,240.480491 C311.811774,242.062491 316.201774,240.987491 320.126774,242.546491 C321.626774,243.141491 322.387774,244.278491 323.641774,242.688491 C324.262774,241.899491 323.967774,239.809491 323.730774,238.915491 C322.574774,234.576491 316.560774,231.846491 313.265774,229.327491 C321.621774,225.095491 329.412774,221.093491 336.791774,215.272491 C337.342774,216.776491 338.898774,219.177491 337.847774,220.792491 C337.254774,221.701491 334.161774,222.755491 333.210774,223.623491 C330.325774,226.259491 326.436774,232.208491 329.492774,236.162491 C333.200774,240.960491 342.046774,232.621491 344.577774,229.761491 C349.116774,234.322491 348.803774,244.729491 345.301774,249.616491 C344.735774,245.559491 337.068774,239.214491 333.666774,243.967491 C328.856774,250.691491 341.113774,251.938491 344.683774,251.111491 C342.678774,254.343491 338.890774,259.480491 334.819774,260.049491 C330.965774,260.589491 329.176774,255.531491 326.888774,253.034491 C324.901774,250.866491 320.577774,245.789491 318.510774,250.139491 C316.463774,254.450491 321.009774,259.310491 323.241774,262.491491 C320.144774,262.892491 317.171774,264.313491 313.992774,263.984491 C312.474774,263.827491 308.866774,263.640491 307.594774,263.171491 C303.671774,261.725491 304.534774,255.683491 305.512774,252.444491 C306.507774,249.154491 307.540774,243.525491 301.726774,245.910491 C295.547774,248.444491 301.430774,254.911491 298.144774,257.574491 M346.878774,201.881491 C349.486774,197.559491 351.607774,192.899491 353.203774,188.112491 C354.787774,183.360491 354.718774,179.512491 359.398774,177.182491 C367.844774,172.978491 377.716774,168.344491 383.921774,160.980491 C386.331774,158.120491 387.449774,153.658491 390.841774,151.916491 C395.018774,149.772491 400.659774,148.699491 405.143774,147.101491 C410.391774,145.231491 415.908774,144.254491 421.057774,142.113491 C424.700774,140.598491 429.692774,137.688491 433.620774,137.366491 C433.360774,141.238491 432.601774,145.217491 433.176774,149.099491 C433.563774,151.715491 436.863774,155.242491 436.568774,157.372491 C436.426774,158.394491 434.888774,158.818491 434.293774,159.673491 C433.558774,160.731491 433.526774,162.206491 433.273774,163.409491 C432.438774,167.395491 431.857774,171.390491 430.472774,175.248491 C424.674774,191.392491 409.035774,202.315491 398.495774,215.236491 C395.678774,218.690491 393.117774,222.304491 390.749774,226.083491 C389.257774,228.464491 387.882774,232.811491 385.052774,233.914491 C381.653774,235.239491 375.024774,233.137491 371.519774,232.923491 C368.075774,232.713491 365.282774,233.932491 361.954774,233.697491 C358.504774,233.452491 355.958774,235.010491 354.342774,231.415491 C353.045774,228.529491 352.946774,224.934491 351.929774,221.916491 C349.770774,215.505491 342.658774,208.877491 346.878774,201.881491 M372.359774,119.523491 C367.508774,119.679491 363.133774,117.430491 359.103774,114.980491 C367.355774,111.649491 375.798774,112.145491 384.088774,114.632491 C380.846774,117.544491 376.742774,119.382491 372.359774,119.523491 M353.078774,97.2894914 C355.109774,89.8134914 360.952774,81.1884914 366.511774,75.9024914 C367.451774,80.4944914 370.940774,79.6494914 374.163774,81.1714914 C376.917774,82.4714914 377.260774,85.1114914 380.493774,85.9054914 C382.906774,86.4974914 386.953774,86.8454914 388.876774,84.8634914 C392.036774,81.6054914 388.387774,79.6094914 385.826774,78.1934914 C387.798774,75.5444914 389.897774,72.9704914 392.059774,70.4714914 C393.554774,68.7434914 396.459774,66.3364914 396.557774,63.8174914 C396.707774,59.9464914 393.616774,61.5894914 391.313774,62.7834914 C390.224774,63.3484914 388.704774,64.6704914 387.471774,64.8914914 C386.289774,65.1024914 385.125774,64.3194914 384.062774,64.6154914 C381.487774,65.3324914 376.690774,73.9024914 372.953774,69.9314914 C371.402774,68.2834914 374.718774,63.0774914 375.671774,61.7164914 C378.882774,57.1314914 385.096774,58.7124914 390.114774,58.3184914 C395.595774,57.8874914 401.083774,56.7654914 406.563774,56.4734914 C412.691774,56.1474914 415.402774,61.2474914 419.698774,65.0834914 C423.781774,68.7294914 429.951774,72.7344914 435.228774,74.4214914 C440.277774,76.0344914 442.608774,74.8324914 442.809774,81.0714914 C443.253774,94.8594914 458.642774,87.7644914 467.427774,89.1544914 C472.558774,89.9654914 473.401774,93.0204914 469.118774,96.1434914 C466.928774,97.7404914 464.362774,98.3254914 461.762774,98.7544914 C458.460774,99.2994914 457.176774,100.051491 454.364774,101.933491 C445.110774,108.125491 429.858774,111.457491 419.104774,108.585491 C413.162774,106.998491 407.076774,104.058491 402.104774,100.447491 C397.813774,97.3314914 393.876774,93.5214914 388.928774,91.4314914 C382.934774,88.9004914 377.239774,90.8594914 371.039774,90.8104914 C363.221774,90.7474914 359.018774,92.2044914 353.078774,97.2894914 M441.979774,142.084491 C442.829774,139.610491 448.073774,126.349491 451.890774,127.965491 C452.860774,128.376491 454.661774,133.695491 455.380774,134.665491 C457.695774,137.784491 460.994774,140.145491 464.258774,142.167491 C458.839774,146.673491 451.153774,147.798491 445.105774,151.261491 C438.494774,155.045491 440.723774,145.735491 441.979774,142.084491 M422.340774,261.223491 C419.203774,260.938491 416.062774,260.697491 412.920774,260.472491 C410.122774,260.272491 406.951774,259.223491 404.238774,259.207491 C401.903774,259.193491 400.310774,260.821491 398.093774,259.366491 C396.223774,258.139491 395.581774,255.024491 394.680774,253.155491 C399.105774,253.401491 407.835774,257.105491 411.404774,253.047491 C413.892774,250.217491 411.654774,245.915491 408.936774,244.240491 C403.845774,241.101491 399.820774,243.807491 394.917774,245.451491 C394.964774,239.464491 397.995774,236.650491 401.750774,232.543491 C405.773774,228.145491 410.054774,223.616491 413.523774,218.764491 C416.449774,221.160491 423.547774,227.161491 427.048774,222.444491 C430.575774,217.692491 423.548774,213.390491 420.223774,211.579491 C422.984774,207.760491 425.744774,203.940491 428.503774,200.120491 C429.461774,205.626491 429.213774,211.136491 431.541774,216.331491 C433.670774,221.081491 436.640774,226.008491 440.630774,229.403491 C436.878774,231.678491 433.126774,238.112491 437.059774,241.842491 C439.278774,243.947491 441.298774,243.126491 443.549774,241.664491 C446.571774,239.701491 447.290774,238.582491 450.699774,240.279491 C452.196774,241.023491 454.689774,242.137491 454.317774,243.909491 C454.009774,245.378491 449.834774,247.988491 448.733774,249.023491 C443.700774,253.757491 438.044774,257.433491 432.211774,261.098491 C431.322774,258.128491 430.441774,249.177491 425.875774,249.620491 C421.455774,250.049491 422.340774,258.211491 422.340774,261.223491 M496.673774,143.274491 C530.865774,134.317491 564.661774,124.974491 599.463774,118.442491 C607.909774,116.857491 616.420774,115.658491 624.861774,114.063491 C633.183774,112.490491 641.665774,111.981491 649.960774,110.416491 C666.666774,107.265491 683.421774,105.109491 700.396774,103.600491 C716.966774,102.126491 733.252774,101.529491 749.755774,104.319491 C756.614774,105.479491 763.912774,105.036491 770.574774,106.817491 C773.938774,107.716491 777.720774,108.498491 780.847774,110.047491 C784.331774,111.772491 787.295774,114.657491 790.568774,116.763491 C797.185774,121.021491 801.292774,125.507491 805.562774,132.091491 C810.076774,139.053491 810.463774,147.564491 810.652774,155.792491 C810.839774,163.967491 808.626774,171.903491 806.222774,179.637491 C803.764774,187.546491 802.673774,196.314491 799.092774,203.804491 C798.245774,205.575491 794.778774,212.470491 791.873774,211.603491 C790.011774,211.047491 790.188774,207.994491 790.070774,206.402491 C789.703774,201.461491 789.125774,189.168491 780.775774,194.515491 C777.543774,196.585491 775.085774,200.501491 772.672774,203.393491 C769.675774,206.983491 766.671774,210.567491 763.645774,214.132491 C758.371774,220.344491 753.156774,229.137491 745.641774,232.823491 C746.202774,229.099491 755.435774,192.073491 743.886774,196.303491 C741.789774,197.071491 739.960774,200.010491 738.588774,201.681491 C736.002774,204.832491 733.534774,208.075491 731.104774,211.347491 C726.806774,217.134491 722.598774,222.983491 718.419774,228.856491 C714.520774,234.336491 710.101774,239.472491 705.308774,244.198491 C702.648774,246.821491 691.953774,257.140491 691.086774,247.560491 C690.911774,245.628491 691.831774,243.362491 692.187774,241.477491 C692.907774,237.670491 693.349774,233.803491 694.016774,229.986491 C695.382774,222.167491 697.282774,214.490491 699.317774,206.824491 C701.313774,199.306491 702.740774,191.866491 702.817774,184.074491 C702.894774,176.364491 703.137774,168.033491 698.974774,161.201491 C695.890774,156.142491 690.560774,150.402491 685.319774,147.720491 C678.213774,144.086491 671.201774,144.281491 663.502774,143.203491 C648.248774,141.068491 632.054774,143.274491 616.913774,145.605491 C602.695774,147.794491 589.161774,152.134491 575.322774,155.437491 C559.759774,159.152491 544.922774,164.978491 529.907774,169.866491 C513.350774,175.255491 496.801774,181.009491 480.558774,187.320491 C481.355774,184.509491 481.271774,181.650491 481.877774,178.837491 C482.356774,176.614491 483.620774,175.702491 484.580774,173.780491 C486.605774,169.726491 485.649774,163.804491 480.212774,163.938491 C475.683774,164.049491 470.533774,167.740491 466.906774,170.079491 C463.208774,172.464491 455.262774,176.175491 453.055774,180.273491 C447.120774,191.294491 470.485774,185.970491 466.409774,194.943491 C465.289774,197.407491 463.822774,197.205491 464.111774,200.452491 C464.431774,204.063491 464.309774,205.764491 463.085774,209.348491 C460.922774,215.682491 459.942774,222.366491 457.673774,228.649491 C451.513774,221.206491 440.274774,212.734491 438.963774,202.572491 C437.565774,191.732491 442.980774,181.444491 445.604774,171.249491 C446.652774,167.176491 445.808774,161.663491 447.453774,157.930491 C449.333774,153.665491 456.602774,153.782491 460.548774,152.966491 C472.716774,150.448491 484.652774,146.423491 496.673774,143.274491 M877.800774,290.166491 C877.173774,285.619491 873.585774,282.610491 869.315774,281.700491 C865.109774,280.804491 867.155774,280.333491 867.298774,275.787491 C867.427774,271.724491 866.640774,266.755491 862.904774,264.433491 C859.522774,262.332491 855.062774,263.061491 851.284774,262.896491 C853.910774,255.312491 856.516774,243.647491 844.883774,245.693491 C835.485774,247.346491 828.467774,253.653491 820.873774,259.179491 C813.110774,264.830491 806.401774,270.153491 799.855774,277.184491 C793.280774,284.248491 787.063774,291.652491 781.521774,299.559491 C775.978774,307.467491 771.187774,315.840491 767.322774,324.691491 C763.685774,333.021491 760.400774,341.061491 762.297774,350.276491 C763.281774,355.054491 765.566774,359.490491 766.370774,364.299491 C767.201774,369.254491 766.103774,374.265491 764.715774,379.015491 C762.062774,388.093491 757.418774,396.072491 752.161774,403.857491 C747.711774,410.446491 743.838774,416.989491 738.414774,422.798491 C731.645774,430.049491 725.021774,437.291491 717.942774,444.266491 C712.348774,449.776491 705.558774,455.376491 699.114774,459.888491 C695.205774,462.625491 690.517774,463.869491 686.280774,465.973491 C682.325774,467.938491 678.972774,469.955491 674.676774,471.161491 C670.333774,472.380491 665.779774,474.502491 661.206774,474.404491 C656.607774,474.305491 651.631774,472.056491 647.242774,470.729491 C638.090774,467.962491 631.092774,465.279491 624.545774,458.075491 C610.676774,442.814491 601.537774,423.431491 591.279774,405.593491 C581.937774,389.346491 570.920774,371.174491 555.771774,359.613491 C548.528774,354.084491 539.983774,350.139491 531.628774,346.628491 C527.519774,344.900491 523.040774,344.283491 518.770774,343.079491 C514.953774,342.002491 510.917774,342.025491 507.346774,340.534491 C503.047774,338.740491 498.968774,335.491491 494.208774,334.960491 C492.678774,334.790491 491.443774,335.374491 489.963774,334.871491 C488.152774,334.255491 486.471774,332.301491 484.572774,331.465491 C475.857774,327.630491 470.881774,323.832491 466.890774,315.020491 C462.744774,305.863491 460.021774,296.165491 460.422774,286.037491 C460.619774,281.067491 461.327774,276.053491 462.223774,271.163491 C463.063774,266.577491 463.157774,261.707491 464.237774,257.234491 C464.701774,255.312491 465.658774,253.531491 466.069774,251.588491 C466.449774,249.795491 466.127774,247.682491 466.857774,245.984491 C467.495774,244.499491 468.695774,244.011491 469.512774,242.745491 C470.972774,240.487491 469.870774,239.117491 469.620774,236.774491 C469.168774,232.516491 471.080774,227.886491 471.901774,223.729491 C472.925774,218.536491 474.485774,213.507491 475.668774,208.358491 C476.410774,205.133491 476.362774,201.537491 479.244774,199.414491 C482.341774,197.131491 488.212774,196.886491 491.911774,195.925491 C502.019774,193.297491 512.060774,190.501491 522.169774,187.889491 C526.994774,186.643491 531.691774,185.102491 536.307774,183.231491 C539.020774,182.132491 540.069774,182.507491 542.821774,182.233491 C544.895774,182.027491 546.607774,180.756491 548.569774,180.226491 C552.647774,179.126491 555.002774,181.318491 558.505774,182.941491 C562.484774,184.784491 567.643774,185.594491 571.965774,186.214491 C580.801774,187.482491 591.625774,186.018491 600.410774,184.489491 C610.298774,182.767491 620.300774,179.917491 628.900774,174.753491 C630.594774,173.736491 631.896774,172.560491 633.819774,173.032491 C635.367774,173.411491 636.699774,175.523491 637.983774,176.427491 C641.869774,179.164491 646.608774,179.902491 651.039774,178.066491 C654.643774,176.574491 657.048774,173.887491 658.661774,170.388491 C659.894774,167.714491 660.384774,163.606491 663.435774,162.342491 C666.472774,161.084491 672.843774,162.574491 676.053774,163.192491 C680.149774,163.979491 683.414774,166.351491 686.525774,169.117491 C693.417774,175.246491 694.234774,183.321491 692.875774,191.991491 C689.687774,212.349491 681.542774,231.843491 681.994774,252.773491 C682.165774,260.769491 685.480774,268.227491 695.022774,267.286491 C699.721774,266.823491 702.494774,263.454491 706.003774,260.744491 C709.935774,257.708491 713.407774,254.562491 716.711774,250.838491 C723.683774,242.985491 729.670774,234.375491 736.002774,226.016491 C736.742774,233.634491 732.763774,241.203491 737.665774,248.241491 C741.682774,254.009491 747.326774,250.012491 751.139774,246.202491 C756.825774,240.525491 762.040774,234.144491 767.153774,227.951491 C771.257774,222.978491 775.461774,214.842491 781.030774,211.463491 C780.847774,217.777491 785.074774,228.587491 792.991774,225.759491 C800.298774,223.148491 805.142774,212.839491 808.275774,206.382491 C810.165774,202.486491 811.857774,198.497491 813.676774,194.568491 C815.739774,190.114491 816.104774,186.263491 817.074774,181.559491 C818.961774,172.397491 820.609774,163.351491 822.028774,154.080491 C823.496774,144.478491 821.910774,136.104491 818.612774,127.105491 C817.224774,123.321491 816.949774,119.727491 814.534774,116.334491 C812.019774,112.803491 808.734774,109.294491 805.553774,106.353491 C798.878774,100.182491 790.205774,98.0134914 782.153774,94.3314914 C777.743774,92.3154914 773.981774,92.1324914 769.307774,91.4944914 C764.867774,90.8894914 760.631774,89.7274914 756.127774,89.4754914 C744.599774,88.8304914 733.188774,86.5534914 721.599774,87.2634914 C716.213774,87.5944914 710.800774,87.9084914 705.410774,88.1064914 C701.099774,88.2644914 695.011774,89.5504914 690.865774,88.3154914 C693.027774,83.7914914 697.525774,80.0894914 697.353774,74.6844914 C697.189774,69.5114914 692.880774,66.9014914 688.414774,65.5604914 C682.423774,63.7624914 675.728774,62.7214914 669.470774,62.9574914 C664.252774,63.1534914 657.024774,65.2764914 652.143774,62.5314914 C655.371774,58.1504914 658.943774,53.4444914 659.679774,47.8834914 C660.650774,40.5434914 654.737774,36.5774914 648.677774,33.8694914 C642.418774,31.0724914 634.945774,30.3154914 628.235774,29.3214914 C621.387774,28.3054914 614.712774,27.7124914 607.841774,28.5344914 C594.093774,30.1804914 580.344774,31.8814914 566.560774,33.8264914 C553.689774,35.6434914 539.340774,38.8284914 526.486774,35.5654914 C512.881774,32.1104914 517.658774,20.2624914 512.019774,10.5524914 C505.726774,-0.283508616 489.997774,-0.501508616 479.149774,0.264491384 C465.856774,1.20349138 450.283774,6.74649138 438.721774,13.2554914 C436.348774,14.5914914 433.827774,15.6434914 431.509774,17.0264914 C429.154774,18.4304914 427.383774,20.4934914 424.655774,21.2974914 C418.254774,23.1824914 410.823774,19.4224914 404.322774,19.2654914 C390.263774,18.9274914 373.710774,25.8504914 363.713774,35.7894914 C357.315774,42.1504914 348.793774,61.4444914 359.690774,67.9394914 C354.969774,72.8944914 351.543774,78.8794914 348.889774,85.1514914 C347.560774,88.2914914 346.436774,91.5164914 345.389774,94.7604914 C344.639774,97.0874914 344.242774,100.912491 342.510774,102.777491 C340.815774,104.603491 338.428774,105.712491 336.688774,107.712491 C334.408774,110.334491 332.292774,113.074491 330.514774,116.064491 C327.581774,120.992491 325.057774,126.751491 324.319774,132.481491 C323.641774,137.734491 324.751774,142.939491 329.006774,146.435491 C331.431774,148.428491 334.475774,149.553491 337.587774,149.780491 C340.982774,150.028491 344.484774,148.297491 347.780774,148.674491 C350.487774,148.983491 350.196774,150.374491 351.912774,152.228491 C353.867774,154.338491 356.864774,155.421491 359.610774,156.011491 C362.156774,156.558491 364.823774,156.667491 367.376774,156.099491 C370.663774,155.368491 373.476774,152.951491 376.869774,152.736491 C371.806774,157.371491 366.446774,161.687491 360.745774,165.516491 C354.533774,169.689491 348.633774,171.049491 341.422774,172.590491 C327.177774,175.634491 313.618774,180.213491 299.067774,181.810491 C292.150774,182.569491 285.371774,184.095491 278.409774,184.656491 C269.878774,185.343491 261.338774,185.331491 252.788774,185.196491 C246.182774,185.092491 239.466774,185.186491 232.952774,183.949491 C225.949774,182.618491 218.701774,183.054491 211.559774,183.085491 C204.231774,183.116491 196.943774,182.990491 189.645774,182.257491 C182.699774,181.559491 175.937774,177.949491 169.297774,175.843491 C155.662774,171.517491 143.090774,164.448491 131.963774,155.552491 C126.588774,151.255491 120.655774,147.488491 115.906774,142.465491 C111.596774,137.907491 107.513774,132.462491 103.647774,127.502491 C95.2087736,116.674491 92.7057736,102.784491 86.0717736,91.0744914 C82.6187736,84.9794914 75.1727736,69.1654914 67.8177736,80.5674914 C63.5547736,87.1774914 62.9137736,95.6844914 61.2597736,103.180491 C57.8647736,96.9944914 54.6037736,90.7114914 51.0427736,84.6184914 C49.3647736,81.7464914 46.5347736,76.5324914 42.4197736,77.9554914 C38.4777736,79.3194914 36.6327736,87.0834914 35.7737736,90.5564914 C34.1017736,97.3134914 34.0447736,104.395491 31.1197736,110.833491 C28.8327736,106.085491 27.1747736,100.152491 21.9327736,97.8244914 C15.5127736,94.9744914 9.16077357,97.9944914 5.95477357,103.813491 C-1.95022643,118.160491 -0.581226433,136.782491 2.09377357,152.304491 C7.32277357,182.647491 21.6527736,212.315491 44.8137736,233.044491 C50.3307736,237.982491 56.7467736,241.756491 62.7697736,246.018491 C65.1897736,247.731491 67.3567736,249.250491 70.2847736,249.913491 C73.9857736,250.750491 75.6707736,252.941491 79.1807736,254.494491 C92.2867736,260.294491 107.021774,260.832491 120.451774,265.325491 C123.589774,266.375491 126.848774,265.730491 129.946774,266.776491 C133.359774,267.928491 135.700774,268.095491 139.215774,268.663491 C146.435774,269.830491 154.112774,271.797491 161.524774,271.936491 C168.939774,272.074491 176.119774,273.033491 183.588774,273.442491 C191.283774,273.863491 198.441774,273.424491 206.108774,272.491491 C222.745774,270.466491 240.789774,270.007491 256.161774,262.859491 C262.146774,260.076491 267.089774,256.506491 271.546774,251.624491 C272.787774,250.265491 276.264774,246.621491 274.903774,244.424491 C273.419774,242.030491 270.141774,244.282491 268.187774,245.141491 C252.942774,251.842491 236.202774,253.610491 219.735774,254.965491 C212.035774,255.598491 204.227774,256.722491 196.508774,256.925491 C192.529774,257.030491 189.035774,256.623491 185.192774,255.820491 C180.791774,254.900491 176.349774,255.301491 171.910774,254.793491 C164.198774,253.911491 156.543774,252.521491 148.855774,251.578491 C142.404774,250.787491 135.190774,251.843491 129.348774,248.895491 C123.904774,246.149491 117.377774,245.678491 111.505774,243.763491 C104.586774,241.506491 97.4397736,240.270491 90.6407736,237.517491 C87.2547736,236.146491 83.8517736,235.458491 80.4697736,234.335491 C77.7387736,233.428491 75.4247736,231.206491 72.6847736,229.973491 C66.2547736,227.081491 60.3927736,221.748491 55.4467736,216.783491 C44.3777736,205.673491 35.0587736,192.428491 27.7407736,178.510491 C23.6887736,170.803491 21.3727736,161.284491 18.6247736,153.015491 C16.0667736,145.317491 13.8167736,136.718491 12.4817736,128.720491 C12.0067736,125.877491 8.64977357,111.494491 13.3277736,111.377491 C19.7907736,111.217491 23.9347736,122.677491 25.7317736,127.180491 C28.4367736,133.958491 31.8167736,143.344491 37.4257736,148.333491 C42.6697736,152.997491 45.7317736,144.126491 45.6517736,139.989491 C45.5937736,136.984491 44.4757736,135.658491 42.8407736,133.282491 C40.5317736,129.924491 39.7377736,127.252491 39.5507736,123.087491 C39.1237736,113.556491 40.8867736,104.111491 42.5137736,94.7684914 C46.4257736,101.653491 50.5857736,108.291491 53.2987736,115.768491 C54.7157736,119.672491 56.8267736,131.147491 63.1307736,129.249491 C67.0117736,128.081491 68.5707736,122.255491 69.1347736,118.776491 C70.3947736,111.014491 69.5787736,103.182491 71.7447736,95.5054914 C74.4637736,96.8064914 75.7777736,102.102491 76.9677736,104.633491 C79.3517736,109.697491 81.1207736,114.778491 82.7827736,120.110491 C85.9717736,130.348491 92.1937736,138.894491 98.3807736,147.514491 C104.641774,156.237491 112.103774,163.664491 120.672774,170.132491 C129.031774,176.440491 138.782774,183.481491 148.660774,187.122491 C153.738774,188.994491 158.998774,190.248491 164.055774,192.206491 C166.336774,193.089491 168.601774,194.032491 170.917774,194.822491 C174.049774,195.889491 177.122774,195.887491 180.212774,196.686491 C185.157774,197.965491 189.283774,199.166491 194.484774,199.320491 C199.535774,199.470491 204.601774,199.359491 209.631774,199.767491 C219.959774,200.605491 230.782774,200.778491 241.164774,200.774491 C252.868774,200.770491 264.806774,201.000491 276.322774,198.679491 C288.071774,196.312491 300.045774,194.681491 311.633774,191.780491 C324.869774,188.466491 337.990774,184.471491 351.155774,180.871491 C345.441774,191.222491 335.138774,201.972491 324.637774,207.383491 C319.404774,210.079491 314.000774,213.224491 308.533774,215.348491 C302.566774,217.667491 296.663774,219.333491 291.063774,222.542491 C284.991774,226.020491 282.887774,229.339491 279.979774,235.488491 C277.069774,241.642491 275.063774,247.555491 275.827774,254.532491 C276.418774,259.918491 278.656774,265.676491 282.625774,269.481491 C284.666774,271.438491 287.185774,272.889491 289.899774,273.691491 C292.971774,274.599491 294.085774,273.951491 294.873774,277.084491 C295.395774,279.157491 294.799774,282.101491 295.141774,284.358491 C295.615774,287.480491 296.388774,290.557491 297.184774,293.609491 C299.002774,300.585491 300.974774,307.598491 304.131774,314.105491 C306.724774,319.446491 310.055774,324.362491 313.608774,329.103491 C314.962774,330.911491 317.562774,333.111491 318.379774,335.220491 C318.953774,336.701491 318.214774,340.474491 316.451774,341.367491 C315.519774,341.839491 310.820774,339.896491 310.147774,339.736491 C307.384774,339.075491 304.785774,338.544491 302.155774,337.605491 C295.837774,335.350491 288.257774,335.206491 281.535774,334.473491 C275.623774,333.830491 269.606774,333.027491 263.649774,333.251491 C260.876774,333.356491 258.141774,334.340491 255.428774,334.422491 C252.531774,334.510491 249.935774,333.829491 246.983774,333.998491 C244.274774,334.154491 243.316774,334.127491 240.714774,334.948491 C237.949774,335.820491 236.619774,334.903491 233.877774,334.629491 C230.687774,334.310491 227.790774,335.823491 224.637774,335.851491 C221.600774,335.878491 218.623774,335.576491 215.546774,335.694491 C209.935774,335.907491 204.123774,337.094491 198.643774,337.005491 C195.399774,336.951491 193.211774,337.434491 190.061774,338.087491 C186.538774,338.817491 182.896774,337.618491 179.438774,338.615491 C174.619774,340.004491 169.471774,340.014491 164.380774,341.064491 C158.820774,342.211491 153.466774,343.980491 147.845774,344.829491 C135.818774,346.645491 123.877774,350.386491 112.334774,354.208491 C62.7317736,370.636491 21.7307736,414.809491 12.4167736,466.839491 C9.72677357,481.869491 5.93377357,498.787491 7.65377357,514.071491 C9.30077357,528.719491 15.0187736,543.652491 22.6767736,556.168491 C30.1627736,568.402491 39.4017736,580.039491 49.5777736,590.128491 C54.6237736,595.132491 59.4327736,600.498491 65.0197736,604.913491 C67.3487736,606.754491 69.4007736,609.119491 71.7927736,610.833491 C74.6527736,612.881491 78.3237736,613.849491 81.5467736,615.166491 C69.7137736,621.850491 58.4217736,630.373491 48.6427736,639.822491 C40.1757736,648.002491 29.1867736,659.706491 30.4047736,672.520491 C32.0847736,690.214491 56.2217736,684.500491 67.5887736,682.053491 C67.5887736,690.526491 67.6567736,700.700491 79.0677736,699.719491 C83.8417736,699.308491 89.5547736,697.295491 93.7037736,694.924491 C97.4527736,692.783491 99.8687736,691.891491 104.158774,690.903491 C104.158774,694.982491 103.236774,700.849491 106.544774,704.005491 C110.136774,707.431491 116.773774,707.191491 121.138774,705.901491 C131.166774,702.938491 141.968774,699.717491 148.491774,690.813491 C151.662774,686.485491 154.610774,681.722491 156.530774,676.690491 C157.441774,674.302491 157.469774,671.182491 159.041774,669.139491 C160.504774,667.239491 163.234774,665.956491 165.024774,664.376491 C168.910774,660.946491 172.160774,656.842491 175.537774,652.933491 C179.577774,648.257491 184.095774,643.967491 187.785774,638.996491 C194.450774,630.022491 199.185774,618.618491 196.868774,607.295491 C194.702774,596.715491 185.952774,586.889491 175.617774,584.460491 C170.741774,583.314491 167.657774,579.373491 163.837774,576.467491 C159.695774,573.315491 154.994774,570.173491 150.570774,567.450491 C145.810774,564.520491 140.814774,561.274491 136.401774,557.846491 C131.973774,554.405491 128.583774,549.340491 125.117774,544.976491 C117.902774,535.896491 109.670774,526.439491 107.314774,514.788491 C106.370774,510.120491 105.028774,505.045491 106.530774,500.395491 C108.119774,495.476491 111.619774,491.522491 114.811774,487.595491 C121.800774,478.995491 131.835774,473.896491 141.830774,469.635491 C147.240774,467.328491 152.595774,465.451491 158.077774,463.699491 C160.035774,463.073491 161.565774,461.824491 163.602774,461.328491 C166.449774,460.635491 169.485774,460.372491 172.370774,459.715491 C177.876774,458.462491 182.702774,457.071491 188.360774,457.026491 C194.830774,456.974491 201.288774,456.477491 207.722774,455.818491 C213.343774,455.243491 218.168774,456.064491 223.703774,456.190491 C226.088774,456.244491 228.519774,455.795491 230.903774,455.921491 C233.823774,456.075491 236.573774,456.868491 239.544774,456.925491 C244.380774,457.015491 248.881774,457.516491 253.613774,456.861491 C255.963774,456.535491 257.962774,457.232491 260.334774,457.000491 C260.913774,456.944491 261.474774,456.197491 262.019774,456.184491 C263.097774,456.160491 263.693774,456.708491 264.793774,456.835491 C276.263774,458.160491 287.716774,455.822491 299.174774,456.330491 C310.382774,456.827491 322.053774,456.138491 333.290774,455.489491 C344.413774,454.846491 356.964774,453.709491 367.305774,449.211491 C371.154774,447.536491 373.577774,443.388491 377.281774,446.213491 C381.953774,449.776491 385.734774,454.115491 390.887774,457.207491 C395.302774,459.856491 400.761774,460.686491 405.688774,461.951491 C408.012774,462.548491 410.840774,463.809491 413.250774,463.402491 C416.332774,462.880491 416.013774,461.372491 418.173774,464.315491 C421.372774,468.677491 423.427774,473.763491 426.842774,478.055491 C430.455774,482.595491 434.493774,487.114491 438.667774,491.148491 C446.383774,498.601491 453.720774,506.523491 461.345774,514.150491 C465.274774,518.080491 467.715774,523.015491 471.812774,526.757491 C475.666774,530.276491 479.380774,534.076491 483.321774,537.482491 C492.380774,545.315491 502.331774,552.245491 511.886774,559.460491 C516.490774,562.937491 520.514774,566.927491 525.558774,569.804491 C530.439774,572.588491 535.651774,575.137491 540.289774,578.180491 C549.387774,584.147491 559.999774,587.868491 570.450774,591.357491 C576.050774,593.227491 581.729774,594.776491 587.542774,595.821491 C592.855774,596.775491 597.878774,597.131491 603.169774,597.765491 C608.042774,598.350491 612.967774,598.540491 617.804774,599.187491 C620.658774,599.569491 621.422774,599.114491 623.917774,598.740491 C626.156774,598.404491 627.820774,599.577491 630.143774,599.695491 C640.746774,600.233491 651.605774,601.078491 662.311774,600.151491 C667.865774,599.669491 672.810774,600.026491 678.156774,598.239491 C683.464774,596.463491 689.165774,597.011491 694.529774,595.098491 C704.884774,591.407491 715.738774,589.380491 725.809774,584.659491 C730.035774,582.678491 735.454774,581.330491 739.190774,578.489491 C740.733774,577.315491 741.736774,575.916491 743.307774,574.957491 C745.366774,573.701491 748.235774,572.412491 750.509774,571.467491 C754.638774,569.750491 757.438774,566.575491 761.061774,563.938491 C765.733774,560.537491 770.359774,557.200491 774.440774,553.074491 C781.958774,545.472491 789.241774,537.997491 795.770774,529.421491 C810.577774,509.972491 823.504774,488.935491 834.908774,467.319491 C847.327774,443.779491 852.267774,419.016491 854.556774,392.696491 C855.693774,379.634491 856.641774,366.523491 857.519774,353.441491 C857.927774,347.344491 858.275774,341.204491 858.015774,335.093491 C857.905774,332.495491 857.075774,328.997491 857.990774,326.452491 C858.864774,324.026491 861.449774,322.186491 863.088774,320.285491 C869.317774,313.065491 879.198774,300.308491 877.800774,290.166491" id="react-path-315"></path><path d="M388.546074,390.375791 C385.399074,388.600791 389.754074,383.609791 386.251074,382.344791 C383.079074,381.199791 381.222074,386.672791 380.889074,388.826791 C380.193074,393.329791 381.901074,397.455791 385.831074,399.647791 C387.897074,400.799791 390.304074,401.417791 392.207074,402.879791 C394.267074,404.464791 395.283074,406.654791 397.492074,408.106791 C401.345074,400.135791 394.865074,393.939791 388.546074,390.375791" id="react-path-316"></path><path d="M411.298974,375.083791 C405.375974,376.478791 404.345974,392.801791 410.776974,392.526791 C414.569974,392.364791 413.505974,384.725791 414.099974,382.121791 C414.678974,379.579791 415.847974,374.012791 411.298974,375.083791" id="react-path-317"></path><path d="M407.894674,88.7438914 C415.542674,93.8178914 427.949674,80.7958914 424.025674,73.0138914 C420.915674,74.8748914 416.376674,80.3838914 412.538674,79.9888914 C406.553674,79.3738914 412.699674,73.5658914 411.876674,70.7788914 C410.323674,65.5098914 405.980674,74.3668914 405.484674,76.0208914 C404.331674,79.8688914 403.993674,86.1558914 407.894674,88.7438914" id="react-path-318"></path><path d="M427.234574,243.119391 C427.110574,240.122391 426.264574,237.034391 424.046574,234.905391 C421.829574,232.776391 419.234574,232.270391 417.560574,229.586391 C416.501574,227.886391 416.476574,226.189391 414.256574,227.949391 C412.839574,229.072391 412.408574,232.240391 412.432574,233.907391 C412.467574,236.414391 413.471574,238.779391 415.108574,240.659391 C417.014574,242.849391 419.708574,243.173391 421.741574,244.923391 C422.976574,245.987391 423.263574,248.632391 425.271574,247.737391 C426.543574,247.170391 426.864574,244.262391 427.234574,243.119391" id="react-path-319"></path></g></g></g></svg>