<svg xmlns="http://www.w3.org/2000/svg" viewBox="0 0 1024 768" version="1.1"><g stroke="none" stroke-width="1" fill="#FFFFFF00" fill-rule="evenodd"><g transform="translate(-74.000000, -32.000000)"><rect x="0" y="0" width="1024" height="768"></rect><path d="M797.909742,157 C802.338146,171.470139 804.241616,185.615278 807.957895,200.193199 C812.050341,216.238522 816.36151,232.922513 821.963817,248.493853 C832.430362,277.597752 849.514829,297.256929 865.621298,324 C878.185303,344.863075 912.917669,415.379612 919.378676,426.501997 C923.415345,433.453325 926.008796,443.701643 928.780763,451.247724 C930.350291,455.518772 932.036859,466.298402 931.292306,470.681128 C919.178405,469.329301 906.299346,467.85151 894.446168,470.681128 C890.589799,471.603124 877.362495,479.534434 873.646217,478.605945 C869.547284,477.58266 871.973383,471.362886 870.419421,467.574912 C866.010475,456.830415 861.082896,445.849778 857.862122,434.731289 C854.571302,423.36477 832.564119,352.879592 820.103885,329.976439 C813.698655,318.20606 808.906902,306.332143 801.767496,294.990297 C794.344019,283.195244 788.190432,271.878071 776,264.408607 C777.263405,254.193933 783.084926,243.048174 786.457466,233.2919 C789.754771,223.747297 791.31003,215.412975 792.517659,205.241154 C793.666916,195.580976 797.342984,186.123378 795.938192,176.277502 C795.207907,171.155881 791.852231,167.727615 790.612174,163.199447 C789.898753,160.593186 787.975108,162.88519 790.695191,159.615351 C791.965081,158.090812 796.289627,158.085618 797.909742,157 Z M787.741691,164.546093 C789.848974,175.999152 782.906514,191.779925 780.414434,203.075968 C777.804055,214.906644 774.682781,226.463515 771.869604,238.215033 C770.474715,244.04278 767.795437,249.168497 766.066451,254.813275 C764.129467,261.147105 763.232474,267.757334 761.244791,274.117117 C757.282423,286.791264 751.819868,298.94765 753.373355,312.43802 C754.724044,324.170073 756.338631,336.815673 760.186599,347.958594 C764.752162,361.18035 769.044727,373.666338 770.073019,387.756222 C771.049311,401.157054 767.794137,415.10809 764.278966,427.949634 C763.033576,432.4966 753.639853,465.468589 750.791576,464.994947 C748.624494,450.052507 737.045489,435.421503 729.58745,422.468361 C721.00752,407.571338 708.443498,394.673717 696,382.810601 C699.493071,381.445473 702.808099,374.236152 704.490285,370.836309 C706.813366,366.142709 709.51416,361.388345 712.176538,356.886797 C717.052798,348.644124 730.802334,315.881175 735,307.676134 C739.969859,297.961926 773.124777,199.883749 772.386383,189.719257 C772.054886,185.174886 771.791296,183.493132 774.206677,180.054359 C777.369551,175.548918 784.12382,168.906197 787.741691,164.546093 Z M710.978173,160 C710.978173,164.522913 711.384935,165.345143 708.686571,168.375573 C706.402743,170.939683 703.44659,172.791973 701.230124,175.563914 C696.262181,181.779348 691.903086,188.514358 688.365289,195.648143 C681.490486,209.51564 676.938374,225.923866 674.67009,241.220198 C672.167335,258.103836 673.623389,275.423918 672.51969,292.41407 C672.109041,298.729522 671.022182,306.188043 666.832788,311.2708 C663.085133,315.819692 656.264737,319.151476 651.110254,321.751957 C639.312847,327.701108 629.369189,335.564898 620.377666,345.422563 C618.184517,347.825604 617.581274,353.303583 615.090178,355.296159 C612.574469,357.309518 604.923785,363.280693 601.977995,364.595222 C595.131691,367.652929 568.459179,364.760238 561.219067,363.49507 C554.000976,362.233798 543.731247,356.214167 537.361658,353.051245 C528.322205,348.562104 516.907541,339.043895 503.117666,324.49662 C542.166861,309.575682 587.221345,295.504251 622.090214,271.611526 C622.288414,274.456207 627.247288,282.319997 627.756389,279.97411 C631.01567,264.98173 633.202342,249.790612 636.418875,234.803428 C637.273853,230.823472 638.124945,226.830527 639.667793,223.07269 C640.439864,221.190524 631.399115,219.74543 627.756389,221.187254 C614.186846,226.560974 600.105746,229.18423 585.817244,232.335462 C559.4865,238.14043 529.551757,240.366793 506.793787,256.230763 C497.0846,262.999546 487.416867,271.642701 479.540702,280.184538 C470.796605,289.669407 462.669067,305.306414 461.473392,318.508853 C445.666655,311.386758 425.00621,314.461789 408.709804,315.937386 C414.623405,301.046324 433.891333,286.362303 445.775533,276.214974 C455.592239,267.830308 465.193906,259.144288 476.023632,252.020894 C500.188431,236.12575 524.552724,221.077516 552.42502,212.077152 C566.219967,207.623083 579.996778,203.124849 594.356529,200.815332 C602.186058,199.555359 610.132175,199.169573 618.004454,198.377219 C625.683714,197.60305 628.608777,195.961188 634.28661,190.558892 C644.89482,180.468716 659.476088,178.21895 673.144083,174.597502 C686.578903,171.038403 699.487781,168.01187 710.978173,160 Z M473.952841,110.913292 L491.887944,120 C484.629315,122.944991 478.994949,124.944991 474.984847,126 C468.969695,127.582513 460.715184,150.752374 452.974034,150.752374 C445.232885,150.752374 445.172309,130.536605 449,122.264812 C451.551794,116.750283 459.869408,112.966443 473.952841,110.913292 L473.952841,110.913292 Z" fill="#714dd2"></path><g transform="translate(74.000000, 32.080356)" fill="#000000"><path d="M334.469952,370.080895 C335.596932,370.46634 336.012749,369.73698 335.716107,367.892814 C334.589127,367.390568 334.17331,368.11863 334.469952,370.080895 M725.471198,89.2538216 C723.686165,89.4173437 724.695266,91.1810459 725.754886,91.8403253 C725.660323,90.97859 725.565761,90.1168547 725.471198,89.2538216 M621.426314,348.523237 C622.48982,347.708222 622.110274,347.017796 620.290266,346.457149 C619.255257,347.299417 619.634804,347.989844 621.426314,348.523237 M218.131916,344.095164 C212.346751,343.165943 207.864738,334.396748 203.093855,336.242211 C197.12345,338.553583 191.656949,348.985252 187.577799,353.681969 C190.72298,356.210072 194.203665,358.481211 197.534086,360.757542 C200.969432,363.10655 200.087279,363.937138 203.549828,361.145583 C206.070637,359.115833 208.090134,355.458649 210.180876,352.964289 C212.691322,349.965086 215.881842,347.298119 218.131916,344.095164 M351.451083,676.304746 C352.475728,676.391454 353.170051,653.275145 354.000389,650.094252 C355.846305,643.032954 359.064028,635.923638 362.625026,629.574829 C364.145802,626.865035 366.860917,623.368778 368.015101,620.587605 C369.792361,616.302289 366.916619,613.375763 366.105711,608.455825 C364.377675,597.965755 366.669201,588.695612 370.342898,578.968645 C363.578426,577.430759 357.053599,574.898763 350.175134,573.842358 C350.175134,583.12548 349.25671,590.905755 345.431454,599.419285 C344.472873,601.552858 342.544053,603.284116 343.370505,605.89398 C343.638649,606.742737 346.001421,607.2943 346.568797,608.076869 C349.755431,612.477689 350.268401,615.975244 350.440686,621.463616 C351.015835,639.900079 349.00152,657.997818 351.451083,676.304746 M303.544061,357.394958 C307.282526,360.555086 319.218153,338.249899 323.323211,338.377083 C332.050183,338.648322 319.652106,360.578447 318.893013,363.260987 C322.382766,362.016403 325.684688,354.112836 327.55133,351.048744 C329.152419,348.423307 335.034738,335.53102 338.396248,334.735472 C344.950868,333.184608 342.042741,345.104847 341.125612,347.900296 C339.063368,354.189406 337.046462,360.412329 335.245884,366.784498 C339.075026,364.69505 341.915794,352.184314 343.634762,348.097561 C346.009193,342.446965 347.912106,336.252594 351.615596,331.310594 C354.144177,327.938925 358.30364,323.183807 362.865967,322.946311 C368.412782,322.656903 370.498343,328.569653 375.495917,329.675373 C376.163038,317.076388 374.92336,304.412513 376.396206,291.851164 C366.531891,292.057513 356.61317,292.514336 346.873211,294.19498 C341.388574,295.141072 337.747262,295.103436 335.045101,300.234914 C332.951767,304.211355 331.315703,308.366892 329.337658,312.401733 C321.735076,327.912969 313.606569,343.315189 303.544061,357.394958 M178.742015,310.373281 C171.539705,317.765517 165.027832,325.410822 158.242634,333.165142 C151.4393,340.93763 141.977848,345.923755 135.55147,353.949314 C129.679515,361.285744 125.271338,369.729193 119.672708,377.303119 C113.475612,385.688167 108.347205,395.079005 103.069828,404.076612 C108.509127,405.07202 109.849845,405.18363 113.373277,401.1423 C116.290472,397.796586 118.677856,393.769531 121.622254,390.396564 C128.46704,382.551399 135.065703,376.162358 143.619094,370.016005 C151.979474,364.009814 162.747964,358.75245 172.746998,355.696145 C176.646091,354.50477 178.078781,354.805858 180.238178,351.23952 C181.787452,348.684164 182.352238,345.483803 183.923533,342.86745 C187.317427,337.218153 192.679003,334.045046 198.008195,330.463134 C191.985975,323.370689 184.76812,317.576039 178.742015,310.373281 M659.737163,95.1341268 C657.76171,96.6123143 657.497452,102.164278 656.589391,104.470458 C654.923533,108.706458 652.560761,112.681601 650.489449,116.726825 C646.855909,123.828355 643.837675,131.778642 643.971099,139.924895 C644.107114,148.298263 650.598261,153.10659 658.397741,154.625009 C666.969267,156.293972 673.547205,152.923601 681.079837,149.319627 C688.555472,145.741608 694.724069,140.088417 700.669861,134.379421 C705.37468,129.8618 708.374779,122.503307 713.709152,119.968715 C718.77279,117.561307 724.990612,115.432925 726.513979,108.289866 C727.555464,103.41016 725.572238,103.982487 721.293599,105.023318 C716.74034,106.129039 713.443599,109.055564 709.219366,110.627193 C711.57048,105.267303 712.135266,100.867781 709.240092,95.6156084 C707.572939,92.5904503 704.445893,87.5848584 700.656908,87.4641636 C698.160711,87.3849981 695.177452,90.1142591 692.876858,90.9928658 C690.059408,92.0661415 686.938838,92.5606011 684.039779,93.3600422 C675.447526,95.7337077 668.561289,96.1892334 659.737163,95.1341268 M676.666479,432.726715 C679.548698,433.206899 688.831388,400.341561 690.106041,395.677289 C693.613929,382.835616 696.852378,368.873947 695.879548,355.479414 C694.854903,341.352925 690.497246,328.947311 686.029482,315.676068 C682.257337,304.477403 680.610909,291.916053 679.239102,280.152847 C677.665216,266.644108 683.12265,254.508436 687.082625,241.827689 C688.911701,235.969447 689.874168,229.974936 691.481734,224.08295 C693.172205,217.883388 696.158054,212.261344 697.671058,205.921619 C700.475554,194.163605 703.576693,182.609344 706.184292,170.778653 C708.664944,159.524182 715.441074,146.128351 713.34515,134.698678 C709.816536,138.965825 705.552147,142.686601 702.066281,146.878476 C698.511759,151.156005 699.747551,151.490836 700.177617,157.420458 C700.887485,167.212314 698.829127,178.586182 696.549259,188.099013 C691.793921,207.931903 683.386908,225.943987 677.25199,245.185083 C674.099036,255.078167 672.845109,266.232708 668.383822,275.570336 C664.384985,283.942406 658.851124,291.385255 654.610051,299.475704 C649.959639,308.343531 644.516454,316.715601 639.432089,325.340741 C637.023979,329.426197 634.52001,333.427296 632.381338,337.665892 C630.580761,341.238719 628.585876,349.852178 625.058558,351.235627 C637.474771,363.114336 646.980266,375.279858 655.537543,390.195406 C662.98468,403.177241 674.50449,417.748873 676.666479,432.726715 M702.501528,232.21363 C714.220827,239.399517 720.092782,249.957072 727.286025,261.286814 C734.461132,272.590601 741.17897,284.161733 747.565191,295.927535 C760.270274,319.333252 769.617733,342.581936 776.63869,368.321086 C779.804597,379.929855 784.413558,391.201197 787.703822,402.567278 C790.744078,413.069028 791.732452,423.755064 796.106949,433.81816 C797.315538,436.596737 798.249507,442.741792 801.45298,443.722925 C805.227716,444.879259 815.356289,439.699763 819.173772,438.745884 C831.573145,435.651943 844.503624,435.027704 857.217774,436.448789 C857.961322,432.068733 852.933954,423.429318 851.366545,419.160873 C848.777081,412.107362 846.449284,404.585347 842.977667,397.915983 C836.996899,386.431803 830.083459,375.260392 823.164837,364.438086 C815.834284,352.972075 809.805587,340.671583 802.309226,329.489789 C798.849267,324.329759 793.903508,317.367094 791.628822,311.629546 C790.504432,308.795164 790.153384,307.701123 788.797122,305.296311 C787.614441,303.195182 786.232271,301.123903 784.982229,299.046134 C769.221347,272.856649 757.578475,246.276528 747.446017,217.72895 C741.899201,202.102211 737.263038,186.372947 732.872997,170.378932 C728.747213,155.349178 727.966099,139.849623 723.383046,124.870483 C720.687361,126.677013 716.165191,126.423943 716.248096,130.004557 C716.26364,130.707961 720.044853,135.72134 720.459375,136.695983 C721.29619,138.672524 721.810455,140.760675 722.192592,142.866994 C724.054053,153.101399 720.316883,163.030822 718.998186,173.082237 C717.720942,182.810502 716.570645,190.775064 713.253178,199.90245 C709.662386,209.785153 703.782658,221.85334 702.501528,232.21363 M432.631223,292.690836 C444.086264,302.650108 454.698013,313.828009 468.256751,320.557072 C474.624837,323.715903 479.688475,328.19459 486.90633,329.45345 C494.151388,330.7188 501.625728,330.002417 508.896693,329.485895 C516.329581,328.957693 523.055191,328.870741 529.901272,325.815733 C532.846965,324.502366 537.326388,323.230528 539.842015,321.220244 C542.33303,319.22813 543.901734,315.999219 546.094812,313.5983 C555.086041,303.74934 565.031965,295.891197 576.826396,289.948597 C589.973203,283.322061 597.248054,275.79745 598.235134,260.636619 C599.338797,243.661472 597.88279,226.356686 600.385464,209.487958 C602.657559,194.181774 607.19916,177.821781 614.081512,163.956149 C617.617898,156.828664 621.97685,150.099601 626.94463,143.889656 C629.161025,141.120164 632.117081,139.268211 634.400835,136.707664 C637.099111,133.67991 636.692361,132.858406 636.692361,128.339487 C625.202345,136.342983 612.293888,139.368142 598.859507,142.924097 C585.236,146.530667 570.573599,148.825167 560.003302,158.871392 C554.325653,164.268917 551.400686,165.909329 543.721677,166.681517 C535.849655,167.474469 527.903797,167.859914 520.074523,169.117476 C505.710059,171.42755 491.942766,175.919215 478.144383,180.369351 C450.274292,189.363064 425.909498,204.398009 401.745488,220.277818 C390.909639,227.400112 381.321239,236.069377 371.498376,244.450531 C359.614564,254.590197 343.637353,268.174208 337.723946,283.050822 C354.006866,281.579123 370.539795,276.878513 386.34213,283.99302 C387.541652,270.768498 396.512155,257.902167 405.262444,248.417888 C413.023063,240.008182 422.511718,231.603667 432.00685,224.838267 C454.729102,208.648285 485.03062,204.452517 511.482271,198.626719 C525.78067,195.476972 539.10883,193.020248 552.686998,187.648678 C556.126231,186.28859 566.156355,180.201936 568.0502,183.827972 C569.260084,186.145833 566.156355,189.474675 565.384309,191.356476 C564.048772,194.604855 563.288384,197.983013 562.513748,201.415678 C559.023995,216.900958 556.850348,232.682134 553.473294,248.207645 C552.977163,250.494358 552.315224,260.835182 548.204985,259.429671 C545.465257,258.493961 548.005497,242.7037 547.807304,239.851149 C512.934391,263.729263 471.684325,277.781778 432.631223,292.690836 M471.828112,559.243472 C464.079152,559.577005 456.186404,563.748116 448.673203,565.644193 C438.545926,568.203443 427.917337,570.808116 418.542675,575.39452 C413.552873,577.836969 413.506239,579.264542 414.871569,584.830781 C415.945439,589.205645 417.183822,593.441645 418.086701,597.894377 C420.327708,608.946392 422.832972,619.859542 425.621924,630.783075 C454.485571,606.698612 491.330051,593.078263 527.336421,583.799035 C532.429853,582.485667 537.619144,582.082053 542.783822,581.18398 C547.307287,580.398814 552.460307,580.958164 556.749309,580.069175 C559.504581,579.496847 561.995596,577.641002 564.811751,576.988211 C570.903921,575.576211 578.164523,575.463303 584.027411,573.295987 C591.872229,570.396715 600.64713,566.563031 608.409045,562.612546 C616.882122,558.296083 623.701,555.143741 625.42515,545.861917 C626.793071,538.500829 630.224531,531.623818 631.290629,524.3977 C632.679276,514.975715 630.955125,506.603645 630.374795,497.184255 C629.030191,475.389101 625.859102,453.357748 620.316173,432.098583 C615.001231,411.715428 611.20836,390.848197 607.545026,370.184719 C606.831272,366.157664 605.405059,362.44727 604.471091,358.488998 C602.914045,351.905289 599.819383,353.593719 593.841206,353.980461 C582.65949,354.702035 570.835266,350.242814 561.549985,344.222347 C557.165125,341.381476 551.623492,334.884719 546.609078,333.488292 C542.142609,332.243708 537.584168,338.275855 533.319779,340.297818 C523.131619,345.12691 510.638979,346.433789 499.519441,347.195594 C475.262163,348.85677 456.879432,333.0717 440.350389,317.015392 C429.254168,329.422303 417.230455,341.219252 404.346611,351.761233 C393.72968,360.448667 384.706066,371.730392 375.868987,382.073811 C367.566899,391.794289 360.852947,406.912292 349.577964,413.721818 C343.003913,417.694366 338.102196,415.180539 331.753541,411.187226 C326.714515,408.015417 321.158632,406.286755 316.08463,403.36023 C292.661578,389.845002 270.541677,374.580347 247.656206,360.2527 C242.65086,357.119825 234.78402,349.748355 228.893929,349.218855 C224.529795,348.825623 224.874366,349.917068 222.349672,353.528829 C219.903995,357.030278 217.424639,360.507068 214.997097,364.020197 C205.481239,377.792388 195.338417,392.008425 187.627023,406.881145 C204.415142,402.878748 220.287427,402.262296 236.808698,404.626877 C252.007386,406.803278 271.410876,409.430013 284.865983,417.64505 C290.613583,421.154285 296.257551,425.095686 301.990901,429.085105 C309.186734,434.091994 314.775002,441.093594 322.741586,444.870175 C329.612279,448.12634 337.047757,449.600634 344.189185,452.027509 C352.214061,454.751579 363.597856,459.831145 372.120158,457.624895 C379.382056,455.744392 385.462568,449.304737 390.929069,444.868877 C398.041998,439.098884 406.684771,435.152292 413.881899,429.772936 C426.637502,420.240638 439.951413,412.095682 453.669482,403.576961 C470.049556,393.402255 485.763805,381.70913 502.765662,372.753053 C506.109036,370.990649 509.414845,369.769425 512.526347,367.664403 C515.451314,365.685267 517.557601,362.064421 521.077147,364.645733 C524.206784,366.937638 522.840158,371.161958 521.893236,374.102759 C521.005901,376.859274 520.18463,377.741774 520.757188,380.146586 C521.289589,382.385281 524.734003,385.819244 525.916685,388.007325 C531.504952,398.340362 535.496017,409.433906 540.84982,419.885042 C546.059837,430.048068 551.938269,439.826947 556.782988,450.183344 C566.34548,470.624899 579.698252,488.739509 588.166149,509.837748 C584.265761,511.435333 583.779993,508.146722 580.755282,507.835252 C577.448178,507.493932 578.645109,508.123362 575.361322,510.490539 C570.958327,513.666241 566.235373,515.673928 561.509828,518.151417 C550.990051,523.667042 540.217675,530.157311 528.864969,533.968932 C509.36562,540.517601 491.39482,552.090031 471.828112,559.243472 M807.349548,463.804991 C806.67595,468.643167 805.809342,473.443708 805.104655,478.2728 C804.607229,481.687296 802.696545,486.633189 803.130497,490.011347 C808.153979,487.63898 813.559597,479.688693 817.437964,488.385211 C819.748921,493.564708 816.852452,503.845833 816.169787,509.419858 C821.847436,508.268715 820.56501,494.323917 829.636553,498.824667 C836.612172,502.284586 831.731182,519.869697 837.184729,521.582785 C840.951693,515.642781 840.331206,502.167785 841.564408,495.097403 C842.142147,491.782836 841.314399,487.331403 845.194061,487.115969 C848.554276,486.929086 851.21369,491.79841 852.804416,494.024127 C854.318715,485.944061 858.405637,478.77245 856.621899,471.333494 C855.519531,466.732814 854.38996,462.126943 853.20987,457.543134 C852.515546,454.84502 851.77718,446.562498 849.429952,444.70795 C845.063228,441.255818 829.106743,447.402171 824.281454,448.788215 C819.879754,450.053564 814.26817,451.252726 810.217518,453.385002 C805.962196,455.626292 807.266644,458.852608 807.349548,463.804991 M665.956281,185.701987 C672.49147,184.986903 678.15487,181.027333 683.169284,176.89905 C691.387172,170.133649 692.634622,164.834755 694.19685,154.410873 C683.656347,159.547542 675.871116,163.79652 663.979531,164.010656 C650.366388,164.255939 643.674457,156.274505 637.415183,145.292572 C635.736371,147.851822 633.338624,150.566807 632.113195,153.37134 C630.565216,156.914318 630.760818,156.178469 631.210315,159.774656 C631.903343,165.326619 634.668979,172.441127 637.479952,177.313046 C643.54751,187.831667 655.47666,189.255347 665.956281,185.701987 M396.887815,608.296197 L409.247031,608.296197 C408.538459,603.768193 407.829886,599.241487 407.121314,594.713483 C406.503417,590.7617 407.529358,585.203248 403.64581,584.515417 C400.429383,583.945686 397.237568,587.509428 393.965439,587.190171 C390.23086,586.826789 388.08312,584.148142 383.753962,585.225311 C377.591842,586.761899 378.823748,593.50913 378.731776,599.171406 C378.6968,601.395825 377.840554,604.740241 378.536173,606.902366 C379.747353,610.675053 378.735662,609.169612 382.485785,609.536888 C386.888781,609.969053 392.352691,608.54148 396.887815,608.296197 M703.278756,62.9708952 C707.807403,63.6911709 719.533178,73.3259944 722.842873,71.0276011 C727.336545,67.9090018 714.417724,59.2929466 711.771264,57.9367518 C698.835604,51.3076194 674.640505,56.5455165 665.944622,68.6487444 C671.644292,69.2029025 678.606957,63.9831746 684.453005,63.1253327 C690.716165,62.2064944 696.987097,62.9864687 703.278756,62.9708952 M700.123211,312.318675 C703.809861,327.17063 710.429251,343.08548 710.389094,358.525336 C710.347642,374.573858 706.803483,389.139002 700.30845,403.832627 C697.059639,411.18463 694.150216,418.617097 690.458384,425.76405 C688.749779,429.074722 687.177188,433.130329 684.81312,436.017921 C681.897221,439.579068 680.993046,439.315616 677.525315,436.487722 C675.976041,440.451186 674.35034,444.536642 669.082031,441.87227 C665.287865,439.952833 665.369474,435.196417 664.127205,431.661226 C660.798079,422.183436 653.682559,414.009928 648.659078,405.375704 C643.507353,396.52345 639.160059,387.001535 633.460389,378.491899 C630.716776,374.394763 627.447238,370.579248 624.517089,366.601509 C622.294218,363.586733 618.901619,356.613686 615.814729,354.844792 C615.406685,358.819936 619.646462,364.608097 621.212576,368.4898 C623.268343,373.587535 625.033946,378.828028 626.517155,384.119134 C629.40067,394.395068 631.14166,405.134314 633.337328,415.580259 C637.261033,434.255517 641.889424,452.810079 644.515158,471.764362 C646.958244,489.398789 647.608525,507.61852 645.752246,525.330814 C644.955587,532.938483 640.495596,539.371649 637.487724,546.300572 C633.400802,555.719961 628.434317,561.59248 620.224201,568.274822 C605.314383,580.407899 588.807361,587.669057 570.648731,593.084752 C567.261314,594.094436 564.113541,593.655781 560.935975,594.341017 C557.369795,595.108013 554.532914,596.924925 550.657139,597.530994 C540.654218,599.094836 530.479012,600.933811 520.821957,603.769491 C513.210307,606.00559 505.691924,608.333833 498.161883,610.656884 C492.423351,612.427075 485.35317,614.072678 479.828376,616.681244 C466.200983,623.118303 453.419474,630.670167 440.773979,638.671068 C437.066602,641.018778 434.333351,642.439862 431.598805,645.911461 C428.641454,649.667278 429.068929,652.322564 427.456182,656.606583 C425.952246,660.605086 423.326512,662.856759 419.759036,659.533108 C416.424729,656.426189 417.74213,649.871031 417.471396,646.026965 C417.063351,640.229719 413.628005,618.065991 409.638236,616.212741 C406.757312,614.874715 398.333459,617.751925 394.83982,618.136072 C390.312469,618.633127 386.233318,618.621447 381.724102,618.002399 C383.215084,624.20845 377.771899,632.599987 375.485554,638.055914 C371.587757,647.361097 368.553979,656.424892 366.937345,666.328358 C365.837568,673.079483 366.191206,679.85916 365.153607,686.68945 C364.083624,693.740366 365.705439,704.794976 356.129993,705.852678 C340.93001,707.532024 337.052939,677.122112 335.324903,666.925344 C332.612378,650.932627 334.758822,635.173513 336.358616,619.095142 C336.489449,617.792156 337.151388,612.063693 336.56199,611.02416 C336.081404,610.177998 331.807947,608.715384 331.257411,608.324748 C326.439894,604.899869 328.401099,603.079064 329.835084,597.978733 C332.576107,588.2323 331.780744,576.0538 338.365158,567.531186 C343.401594,561.011068 354.708962,564.971936 361.223426,566.731744 C366.078508,568.043814 370.875299,569.808814 375.593071,571.556943 C378.854837,572.765189 382.497444,576.379546 385.353756,576.962255 C391.050835,578.126377 395.24916,570.850943 399.4993,568.273524 C407.166652,563.626123 415.164325,559.352487 423.426256,556.236483 C438.606809,550.509318 454.317172,547.222005 469.89152,542.401998 C479.426809,539.452112 488.844218,536.227094 497.902807,531.96384 C504.596033,528.815392 511.346256,524.382127 518.587427,522.248553 C527.708195,519.560822 536.964977,515.824472 545.86812,512.110186 C555.337345,508.160998 565.69779,505.629002 575.417023,502.427344 C555.18449,472.809086 537.895059,441.127336 523.999523,408.033586 C522.397139,404.218072 520.858228,400.380494 519.439787,396.492303 C518.716965,394.513167 516.942295,385.640149 515.061404,384.387778 C511.641602,382.114042 497.902807,392.418528 494.076256,394.927164 C480.206627,404.01302 466.90567,413.943741 452.457007,422.201605 C439.94364,429.35245 428.138847,437.646653 416.17213,445.316616 C409.582535,449.540936 403.452799,454.926781 396.7518,459.19263 C390.068937,463.445502 382.204688,471.367237 374.287328,473.204914 C371.333863,473.891447 366.328517,473.053072 363.342667,472.810384 C359.133979,472.469064 354.435637,472.090108 350.342238,470.920796 C342.317361,468.630189 333.837807,466.028112 325.995579,463.175561 C311.897964,458.049274 300.971437,445.40227 288.262469,437.593443 C272.944606,428.18184 255.592997,425.836726 238.473261,420.633869 C219.742073,414.943042 198.966776,414.322697 179.196693,415.800884 C179.196693,397.762844 187.904234,384.23334 197.405843,369.429403 C190.562353,364.936439 187.674952,362.137097 180.015373,366.293932 C174.332543,369.377491 169.094028,372.150877 163.823129,375.597818 C158.097551,379.343252 152.004086,382.216568 146.301825,386.324086 C140.104729,390.7872 134.683566,395.522851 128.960579,400.519358 C124.657328,404.276472 119.755612,407.692267 115.254168,411.088594 C110.808426,414.443392 106.281074,413.958017 100.595653,411.671303 C98.9194323,410.99645 93.6835083,408.642252 92.7974686,407.50798 C91.0111403,405.221267 92.3324274,403.626278 93.815637,400.611502 C97.2470974,393.633263 101.630662,386.5512 106.108789,380.171244 C110.10633,374.477822 115.294325,369.722704 119.479696,364.169443 C123.453921,358.901697 126.294688,352.782597 130.898467,348.008013 C136.046305,342.666292 142.151429,338.379678 147.011693,332.688851 C149.435348,329.850575 152.197097,326.824119 152.388814,323.474513 C152.536487,320.90488 149.674993,318.415711 149.64779,316.571546 C149.586908,312.243403 157.002955,307.841285 160.098913,304.657796 C164.644399,299.980546 169.134185,295.940513 176.155142,297.946903 C181.309457,299.418601 189.063599,305.915358 192.904399,309.690642 C197.736165,314.443164 201.741479,319.943215 206.724804,324.645123 C209.52671,327.28873 212.513855,329.701329 215.409028,332.235921 C217.12152,333.733575 219.83534,338.030572 221.729185,338.906583 C223.422246,339.691748 225.07515,338.94941 227.441809,338.885818 C226.375711,338.913072 231.772262,339.821528 231.484688,339.74366 C234.039177,340.427597 236.559985,341.168638 239.076908,341.982355 C249.424399,345.325472 258.957097,350.965686 268.292898,356.582539 C292.006116,370.847892 314.258145,386.050252 337.483005,401.255208 C344.362766,405.757255 346.25402,405.437998 351.535282,398.991855 C356.464201,392.977877 360.551124,386.294237 365.18081,380.059634 C372.810596,369.786296 381.413211,359.794579 390.421281,350.665895 C399.694903,341.271164 410.384375,333.405233 420.295323,324.712608 C423.048005,322.298711 434.391644,314.147267 433.675299,311.090961 C433.27114,309.364895 429.603921,306.451347 428.441965,304.68505 C426.708748,302.050528 424.912056,299.077281 423.633517,296.17152 C416.104771,279.063998 435.644276,277.89209 447.077295,272.604877 C461.03501,266.149649 474.852823,259.019568 489.118838,253.256064 C496.282287,250.363281 503.454804,247.720972 510.686908,245.038432 C517.343863,242.56873 523.406239,238.565035 529.958269,235.839667 C534.783558,233.83198 545.267064,233.066281 548.483492,228.795241 C550.381223,226.276222 549.563838,218.319447 549.896751,215.385134 C550.447287,210.514513 551.25949,205.671145 552.532848,200.934197 C550.141578,200.503329 545.651792,203.130064 543.47685,204.139748 C539.288888,206.083844 535.642394,207.99809 530.995868,209.220612 C521.05383,211.834369 510.64416,212.132862 500.8485,214.96984 C485.939977,219.290197 470.043079,221.789748 455.460992,227.989311 C438.670282,235.12588 424.213847,247.679443 412.419416,261.229711 C406.331132,268.223524 401.490299,274.947395 397.336017,283.249384 C396.259556,285.399829 394.983607,292.605182 393.329408,294.105432 C391.22312,296.015785 385.663351,294.005502 383.26949,293.610972 C383.26949,299.968866 383.401619,306.337142 383.173632,312.684653 C382.931396,319.385164 384.139985,329.663693 381.821256,335.845086 C379.646314,341.647524 375.585299,340.447064 371.284639,337.56077 C365.569424,333.727086 362.63798,331.527325 357.514754,337.468627 C348.602543,347.802961 345.23067,363.856675 339.117774,375.953414 C337.115117,379.915579 332.178426,388.211079 329.478855,380.067421 C327.512469,374.132608 330.774234,366.562575 329.249573,360.699142 C327.166602,364.357623 320.938417,375.240925 316.010794,375.211075 C309.230777,375.169546 311.443285,364.64184 311.668682,360.350035 C307.67114,364.617182 295.937592,378.560682 293.09812,367.384079 C290.916701,358.80566 297.006281,350.29213 301.330257,343.53841 C306.361512,335.678969 311.307271,327.70013 316.52765,319.97566 C321.636627,312.416009 325.056429,303.84927 330.235356,296.242899 C326.28704,296.78927 318.645596,295.499263 321.073137,289.38795 C322.343904,286.192781 326.360876,287.535998 328.322081,285.551671 C330.364894,283.485583 331.464672,277.620851 332.608492,274.913653 C338.240802,261.573627 346.318789,250.605969 355.659771,239.759005 C372.165497,220.590586 393.238731,205.286998 414.485546,192.449219 C439.801149,177.154715 465.89916,167.853425 494.24595,160.376833 C507.679036,156.835153 521.301248,155.206421 534.879416,152.654958 C540.515612,151.595958 546.233417,150.998972 550.693409,147.427443 C557.342592,142.101296 561.727452,138.158597 569.741965,134.759675 C576.218863,132.013542 582.365439,130.746895 589.430439,129.573689 C597.000637,128.314829 605.688748,129.988983 612.963599,127.851517 C619.009135,126.073539 626.056,122.213899 631.547114,119.125149 C634.314045,117.570392 639.211875,116.69438 640.704152,115.371928 C643.587667,112.820465 645.495761,106.458678 647.336495,103.032502 C642.781941,104.225175 641.047427,100.989774 639.828475,97.0704356 C637.801206,90.5529136 637.78048,92.7189319 631.452551,89.9896709 C627.705018,88.3726194 626.492543,84.057454 623.522238,82.5260569 C620.336899,80.8817518 615.283624,84.4273253 611.521842,83.2748841 C608.471223,82.3391746 605.489259,79.0609466 605.656363,75.5711783 C605.725018,74.1150533 607.260043,72.8224503 607.287246,71.6362665 C607.35331,68.8563915 605.08251,67.3211011 605.414127,64.2738805 C605.928393,59.5576966 608.32355,60.3545422 606.289804,55.243829 C604.26383,50.1564761 605.054012,49.1532812 605.66284,43.8803437 C605.832535,42.4229209 605.08251,40.0752114 606.100678,38.835818 C606.693962,38.1116489 608.866314,38.0000386 609.087823,37.6340606 C609.916866,36.2674834 609.942774,35.1448915 610.109878,32.6388511 C610.205736,31.2112775 609.764012,28.3561305 611.249812,27.2997261 C612.54001,26.3821856 614.370381,28.0874871 615.499952,27.5476047 C616.480554,27.0791011 617.329028,24.7443694 618.939185,24.4627481 C624.887568,23.4219172 623.072741,29.4735312 626.110406,21.9203694 C627.869531,17.5455055 629.220612,15.7545496 632.377452,13.2666783 C633.749259,13.9000018 634.60421,13.6443364 634.944894,12.4970864 C635.40605,11.6677959 635.869795,10.8398033 636.332246,10.0118106 C638.793467,9.42910106 639.147106,11.2732665 641.052609,9.46154591 C644.250901,6.4208143 640.960637,-0.31343938 647.420695,1.48919665 C652.107378,2.79607533 653.246017,8.80486209 658.147733,10.2480091 C658.823921,8.29093562 658.735835,2.57025915 661.583079,1.99144297 C664.480843,1.40224444 666.686875,6.6842665 667.741314,8.40903488 C668.426569,6.92565621 669.561322,2.48330694 670.690893,1.39705327 C673.935818,-1.72414159 672.953921,1.29971871 675.825777,1.71501283 C676.276569,2.24321503 676.728657,2.77271503 677.179449,3.30221503 C678.682089,2.56896135 680.160117,1.79547606 681.616124,0.976567972 C684.765191,0.380880472 683.643393,0.706626796 686.389597,1.81753856 C688.585266,2.70652753 687.271751,3.72270033 689.940233,4.28204959 C691.87812,4.68566356 693.518071,2.67408268 695.674878,3.29053488 C696.301842,3.56436944 696.931396,3.8395018 697.55836,4.11333635 C698.44699,6.08468562 699.811025,6.43379224 701.650464,5.15935841 C703.818929,6.05353856 706.745191,9.64713047 709.053558,9.52903121 C713.466916,9.29932165 712.428021,3.22434738 717.267559,3.52154224 C719.06166,3.63055694 723.700414,8.45575547 724.980249,9.88852018 C726.77435,11.8988033 726.266561,13.6352518 728.514045,15.8960091 C731.770629,19.1703437 729.859944,17.4144283 732.968855,18.8965091 C737.602427,21.1066525 739.309738,20.2708731 741.217832,25.5905312 C742.878508,30.2171672 743.808591,35.9728841 743.826726,40.8746525 C743.837089,43.9335533 741.637535,50.6794871 745.882493,49.2000018 C748.861866,48.1617665 748.36185,40.7760202 751.558847,43.0925827 C753.990274,44.8523915 749.193483,54.2626966 749.137782,56.4702444 C748.977155,62.8216489 749.991437,63.3303841 746.054779,68.0764172 C744.189432,70.3241966 739.91468,74.4667555 738.967757,77.3790055 C737.847254,80.8233511 740.821446,86.7893106 741.507997,89.8663805 C742.995092,96.544829 741.738574,97.9555312 737.327807,103.203811 C736.854993,103.48673 736.38218,103.770947 735.908071,104.053866 C733.553071,104.048675 732.898904,105.223178 733.946866,107.574781 C733.009012,110.197623 733.12171,112.725726 731.795241,115.361546 C731.069828,116.802097 727.866355,119.718241 727.703137,121.143219 C727.414267,123.6843 728.675967,124.129443 730.814639,126.763965 C739.439276,137.385112 743.388888,151.148219 747.655868,163.923704 C755.170365,186.426156 764.432328,208.37445 773.402832,230.398017 C776.899061,238.982925 780.441924,247.227811 784.070282,255.908755 C788.585975,266.715487 794.93204,276.582616 800.300092,287.055814 C804.010059,294.29491 807.796454,302.242601 812.432617,308.487586 C818.265711,316.34573 821.543021,326.445164 826.658475,334.950906 C832.122386,344.035465 838.50213,352.987649 843.771734,362.336958 C848.810761,371.278759 855.03765,379.463947 859.822782,388.647138 C865.795777,400.113149 872.751965,413.889233 874.395802,426.882748 C874.977427,431.487322 876.788368,439.082013 873.930761,443.022116 C870.972114,447.101083 862.825472,448.806384 858.691916,445.761759 C862.825472,455.384903 865.395505,466.166976 867.250488,476.458483 C868.051033,480.904726 869.16765,484.829255 868.188343,489.372833 C867.311371,493.43363 868.764787,491.06905 865.486182,493.444013 C862.739977,495.432233 864.009449,489.827061 861.851347,495.541248 C861.396668,496.746899 862.289185,500.090017 862.2568,501.489039 C862.132444,507.104594 861.714036,512.822675 861.495117,518.470675 C861.329309,522.755991 862.019746,526.370347 856.755323,525.917417 C852.534977,525.554035 850.44553,521.072752 848.572411,517.910028 C847.86902,522.945469 847.466157,527.971825 846.884531,533.021542 C846.370266,537.501528 847.398797,541.927005 841.662856,541.444226 C832.257106,540.651274 828.549729,523.606046 826.166231,516.483752 C821.881116,522.129156 819.798145,533.338204 817.913368,540.242469 C816.119267,546.814498 814.027229,560.802123 804.857238,552.19645 C798.748228,546.462796 801.114886,535.183667 802.210777,527.845939 C802.572188,525.425553 807.730389,504.158601 805.318393,502.932186 C801.870092,506.621814 797.854416,512.64877 792.176767,509.396498 C787.072972,506.473866 788.733649,499.978406 789.140398,495.290774 C790.295876,481.954642 794.872452,469.171369 798.265051,456.247936 C796.334936,455.81577 791.641776,455.431623 790.05105,453.994965 C788.013417,452.153395 789.269936,451.259215 788.374828,448.906314 C787.164944,445.72023 784.991297,442.483531 783.274919,439.457075 C777.682766,429.595138 775.959911,419.764347 773.069919,409.032888 C770.279672,398.667406 765.023021,389.543914 762.235365,379.046057 C759.144589,367.415226 755.85303,355.986851 752.206536,344.402741 C744.245134,319.097053 732.777139,295.002208 719.592766,272.050719 C717.860843,269.037241 703.677733,236.487267 701.541652,237.448932 C700.018285,238.135465 699.1452,246.558149 698.563574,248.83448 C697.21638,254.104822 696.952122,259.646403 696.634754,265.078969 C691.437691,277.749333 696.970257,299.61327 700.123211,312.318675 Z"></path><path d="M220.784761,269.422662 C226.079169,270.685502 227.973083,258.343638 228.566388,254.522704 C229.525004,248.327786 230.624821,243.00026 233.961839,237.583272 C235.585009,234.948681 237.524262,232.240187 239.62933,229.968631 C240.857394,228.646149 243.935328,226.923034 244.577859,225.503311 C246.355184,221.579949 244.290274,211.715793 244.313592,207.301039 C244.329137,204.465483 242.475382,191.273082 245.803333,190.352531 C250.126171,189.154518 251.253192,201.186507 251.731204,203.895001 C252.277874,206.996349 252.18849,209.986195 252.518823,213.05513 C252.824544,215.91921 254.384237,217.692891 254.981429,219.601413 C256.688801,225.056001 252.634116,229.636714 249.728475,234.55064 C246.493795,240.01949 242.993553,245.332754 240.723965,251.303369 C238.260064,257.780935 238.418106,264.603384 236.491807,271.161336 C233.360761,281.818981 220.229023,287.630121 209.592277,284.504137 C203.93774,282.84196 205.126942,279.019729 203.335367,274.616643 C202.656564,272.94539 200.750991,272.01706 200.183594,269.797365 C199.582517,267.448016 200.133073,264.389453 200.594245,262.016766 C202.831446,250.529328 206.461231,238.502526 209.96795,227.326261 C190.881137,237.839989 170.667303,244.766162 148.687802,244.37201 C137.763471,244.174935 129.80437,241.830771 121.89061,251.165935 C115.758061,258.400686 115.765834,271.125033 113.26307,280.121797 C110.546561,289.888712 108.096909,302.399127 101.912543,310.571285 C94.4521823,320.434144 84.266244,318.810863 83.5058287,305.658655 C82.8568201,294.446086 88.433631,283.819559 87.4983331,272.437142 C87.0280933,266.710279 84.7727558,261.664104 84.9113664,255.863337 C85.0305457,250.879397 86.0085926,246.197553 86.9309363,241.29011 C76.0143775,242.613888 67.559129,247.101249 59.8034108,254.629021 C52.5412501,261.675773 49.512543,270.376923 43.5160139,278.436281 C38.0441326,285.790315 33.2018285,295.909892 22.4005627,295.658361 C8.61333885,295.338113 7.74540312,278.361081 12.9154501,269.287821 C15.5581201,264.65006 19.2293587,261.019718 22.5883995,256.934288 C26.3075689,252.413216 26.7467184,248.781578 27.5136109,243.005446 C28.0965528,238.601064 28.2571857,232.782145 32.2198952,229.877872 C35.7836134,227.26273 40.2580164,228.534646 43.5548767,225.068967 C46.7092401,221.75628 49.1990498,216.741223 52.0321475,213.078468 C55.5699571,208.505534 59.2321277,203.780904 62.3787186,198.926619 C69.1486173,188.476422 78.0456062,181.205367 87.4231983,173.02932 C84.0227039,170.910756 75.0570573,173.252327 70.8456259,172.58201 C63.9267532,171.478645 54.9727655,168.184111 49.6122908,163.446515 C38.4845776,153.60829 33.1370571,140.812633 32.5890917,126.024179 C32.0618532,111.820468 34.2899867,94.6891465 44.843826,84.1339291 C50.2224367,78.7532446 57.1089238,74.0441732 63.904731,70.6135006 C68.4296556,68.3302752 77.7489535,63.3502248 82.981181,65.4065539 C95.0610327,70.1584114 67.7404887,89.0569312 64.1379077,92.080487 C52.6604293,101.713857 45.9760288,111.011421 46.2428866,126.420923 C46.5006765,141.40386 60.9356135,148.527109 73.0089881,153.483821 C79.2710796,156.054881 86.8350747,158.117693 93.8303776,157.929693 C101.757092,157.718355 107.148657,153.16487 114.369364,150.493976 C128.581488,145.23776 143.161513,141.703364 157.81149,138.162484 C172.237359,134.673467 187.930156,135.46177 202.703199,133.18373 C216.591466,131.041829 229.567753,128.400756 242.695605,123.349395 C256.28981,118.11911 266.774992,102.519015 281.601147,100.877582 C290.79738,99.8610864 286.30225,106.371066 282.329177,109.709684 C277.574962,113.704356 272.412687,117.184297 267.655882,121.191935 C255.538462,131.39838 242.844579,137.402706 227.487298,141.293654 C216.331085,144.118837 204.303051,146.761207 192.447308,148.446723 C177.47995,150.575659 162.415436,149.910528 147.712346,153.787214 C139.00708,156.082108 130.553127,159.004533 122.340123,162.733412 C118.975901,164.260749 112.018165,166.70734 111.395065,169.423613 C110.586719,172.939858 113.400385,172.869844 110.008959,176.108627 C104.296128,181.565808 96.8655618,185.424342 91.0957323,191.086378 C84.6691217,197.394097 78.5560042,203.511222 73.3496853,210.908042 C68.1861154,218.245221 64.062773,225.356801 56.4158706,230.417237 C53.880721,232.094974 49.5773143,235.036847 46.6962859,235.808294 C44.0445479,236.518804 42.8333242,235.430998 40.563737,236.906473 C34.5270497,240.828538 38.1438804,253.07705 36.5505059,259.141017 C34.5128,266.907354 29.2948223,272.737942 26.0458927,279.941576 C30.5915441,278.957494 33.765339,271.429722 36.1022883,267.878471 C38.7216406,263.895467 42.0392278,261.212904 45.37236,257.770563 C52.3806172,250.534515 54.2356679,240.637945 62.5665554,233.824572 C77.6582737,221.484005 101.117151,222.548472 113.708697,206.005785 C115.747698,203.325815 117.663634,195.580222 120.110694,193.894707 C124.59287,190.80762 124.21331,200.032577 123.752138,202.770891 C122.175604,212.11902 116.410956,223.166927 108.874165,229.067528 C105.463307,231.739719 100.692252,232.962366 97.7322021,236.430639 C97.0067633,236.717176 96.2839153,237.006307 95.5584765,237.294141 C95.9911489,238.834443 96.2269165,240.400676 96.261893,241.991544 C96.3305507,244.771348 95.6569289,247.482435 95.5442268,250.285577 C95.2631192,257.342701 96.8241081,263.375551 98.2374184,270.135765 C99.2491465,274.964119 96.5274555,285.02924 98.6959994,288.965568 C102.98127,274.58423 108.020479,257.974121 116.138917,245.192727 C118.057443,242.169171 121.862111,239.673311 123.372578,236.560294 C124.090244,235.762915 124.80791,234.96424 125.525577,234.166861 C124.267718,233.001262 123.171787,231.702119 122.237784,230.268134 C117.369572,220.037054 128.036113,226.362924 132.291589,227.231613 C139.132736,228.627998 147.657938,225.758731 154.762056,225.543504 C161.684815,225.333463 168.511713,225.102677 175.279021,224.027837 C182.586521,222.86872 190.168652,221.115784 197.318111,219.199483 C204.496069,217.272809 211.128653,213.31055 218.105819,211.569283 C211.131243,206.801867 208.923837,200.59528 206.510457,192.844501 C204.924855,187.747761 199.291046,175.381262 202.836628,170.209323 C206.680158,164.599149 208.052015,173.226396 209.298215,176.282365 C211.407169,181.449119 214.5991,190.264365 218.506106,194.141051 C220.61247,196.231091 223.457226,196.001601 225.339481,198.789185 C226.722996,200.840328 226.910833,203.674587 227.127169,206.052461 C227.768405,213.073282 224.992307,218.693828 222.516747,225.085822 C216.743031,239.988373 214.409968,255.926868 206.857632,270.105944 C211.451214,270.545475 216.205429,269.885531 220.784761,269.422662"></path><path d="M317.399705,152.004535 C321.084595,151.138104 332.683253,149.872179 329.318282,143.115827 C325.91316,136.281651 316.850534,147.333845 317.399705,152.004535 M427.189981,98.1988597 C425.025675,97.5269859 421.592058,95.9614422 419.274917,96.1274651 C416.529059,96.3246172 414.487798,98.3142975 411.701789,98.5775994 C406.017086,99.1145796 401.621123,96.6890893 397.906444,102.7593 C405.809851,102.7593 421.619257,105.439013 427.189981,98.1988597 M278.082129,239.776155 C285.603448,240.825471 289.340147,207.605333 289.737778,203.253718 C286.365035,202.908702 277.271324,209.534052 276.477357,212.586019 C275.606972,215.938903 278.606692,221.317784 278.970648,224.802968 C279.510753,229.96135 278.938267,234.696893 278.082129,239.776155 M319.995318,50.1521021 C310.939168,51.0340986 300.806693,53.9654398 292.495293,48.9289805 C285.756284,44.8471528 283.260403,36.2347166 277.584766,31.1788016 C277.584766,45.7602785 290.696238,57.2495796 304.038257,61.8761699 C310.831665,64.2316193 321.241316,60.6789894 327.243346,64.5182681 C328.984117,65.6311401 332.69491,70.7013228 332.830908,72.7960644 C333.295891,79.9350476 328.206987,73.5457614 325.325132,73.7662605 C321.319029,74.0723651 315.744419,84.6303817 312.405352,87.8405894 C309.893929,90.2557033 307.058701,92.2155513 304.222178,94.2908371 C303.287032,94.9756814 298.481781,97.40636 298.242166,98.5814905 C298.031046,99.6243217 300.665515,103.457115 301.221163,104.44547 C305.040754,111.252407 309.642657,116.130626 315.680954,120.932319 C318.656065,123.298145 321.755516,124.615951 324.738399,126.580987 C325.711106,127.224326 329.667991,132.613584 328.517839,132.386599 C330.180896,127.33717 334.914911,121.488755 338.064876,117.024296 C341.293849,112.446994 345.549929,107.651787 350.962636,105.798297 C353.340653,104.983747 357.278109,104.284635 359.753267,104.084889 C361.491447,104.023928 363.212789,104.166603 364.917293,104.512917 C367.398927,105.60763 368.370339,104.726931 367.828939,101.866927 C370.436208,96.4530255 368.900082,89.6370087 372.21454,84.1375013 C376.105369,77.6807683 382.468765,74.7559124 389.759535,75.4835595 C393.036432,75.810417 396.565895,77.2164231 399.810411,76.6431254 C403.025137,76.075016 406.66858,73.4809087 409.814659,72.3628485 C422.035022,68.0177188 437.115221,62.7374135 446.695934,53.6852762 C448.150461,52.3129934 452.256296,48.504844 452.578805,46.5320254 C451.723962,44.6071978 450.870415,42.6849643 450.015572,40.7614338 C449.7915,37.9416392 448.419866,37.1724864 445.900671,38.4552725 C442.933331,38.3930139 437.305618,41.7977797 434.335688,42.7718669 C430.565314,44.0092561 426.772922,45.0974841 423.063423,46.4944109 C416.623609,48.9186041 410.354764,51.4089471 403.595032,52.8512707 C396.59439,54.3428824 393.261799,55.252117 389.578205,48.6202818 C385.974914,42.1376077 386.486524,38.34632 378.101296,39.2944662 C370.626605,40.137551 364.362941,42.9573456 357.472392,45.9327866 C352.896394,47.9081993 346.934515,51.5464348 342.280804,52.325964 C338.831644,52.9044499 335.109193,51.5607023 331.785669,50.8680757 C327.589169,49.9951586 324.263054,50.1482109 319.995318,50.1521021 M406.812349,87.8016778 L410.577541,87.8016778 C407.65942,86.0869729 404.740003,84.370971 401.821881,82.6562661 C397.713456,89.2868042 387.444984,86.403454 381.220176,90.3542794 C376.107959,93.5995075 371.309184,107.428693 376.216757,112.465153 C383.03866,119.465351 386.397155,103.933134 388.333502,100.354563 C392.274845,93.0716067 398.210819,87.6174962 406.812349,87.8016778 M287.50094,102.646457 C284.446821,96.8823503 286.449224,91.3724665 290.98248,88.314014 C297.522026,83.9027346 304.104313,79.0699128 310.516927,74.1826147 C299.617685,72.473098 291.806238,68.868586 282.919761,62.2211861 C272.666831,54.550411 269.74871,47.4620129 270.036248,34.5057442 C270.180017,28.0023173 269.270775,9.51800597 279.768501,14.8839168 C288.441267,19.3172461 289.636751,31.7144847 298.967487,35.9169385 C308.184244,40.0675101 319.042039,35.7625891 328.735435,38.9948468 C331.494245,39.9157548 338.874386,46.3932407 341.116405,46.3634084 C344.094106,46.3219027 351.573978,39.7406526 354.389778,38.177703 C361.455181,34.2580069 370.592929,30.4355899 378.463957,29.3058562 C383.406501,28.5963678 385.016454,28.0879228 388.599022,31.7313464 C392.610306,35.8105801 393.86796,40.8535246 395.299174,46.1532858 C410.517961,39.8872197 425.89088,34.0388049 441.539679,28.9297106 C446.509423,27.3070965 449.922317,25.2318107 454.161558,22.6169506 C460.232236,18.8736538 463.610159,20.6065175 464.713683,28.3460365 C466.657802,41.9806642 458.325678,50.7007558 451.085421,60.9059737 C447.09227,66.5338894 444.364545,70.5093588 437.872923,73.3836297 C431.115781,76.3746353 422.981825,75.4109245 415.643131,77.6587184 C417.526375,79.9519093 418.521101,85.291879 420.178977,86.9041167 C421.528592,88.2141409 427.982653,87.9962359 430.159911,89.1402372 C436.683914,92.569647 435.90808,98.2935446 431.865711,103.953887 C427.305256,110.337985 420.563656,111.514412 413.196468,112.070848 C409.898848,112.318586 406.958708,112.363982 403.658498,112.130513 C401.522687,111.980055 394.088147,109.672596 392.478194,110.356143 C390.571636,111.164208 390.128672,115.370553 389.260877,117.291489 C387.881472,120.344753 386.346641,123.434335 383.10083,124.845529 C380.291507,126.06476 377.124704,125.735308 374.570538,124.060812 C371.147282,121.818206 372.086313,119.17092 369.931074,116.291461 C369.727725,113.258949 368.4351,112.684355 366.051902,114.565082 C364.232124,115.201936 362.414936,115.845274 360.600338,116.495098 C356.846802,117.862193 353.340653,119.181296 350.036557,121.478378 C343.708132,125.876687 339.875588,133.297131 332.823137,136.389307 C337.425039,144.25464 334.550955,154.955332 326.806859,159.039754 C325.060908,159.959365 322.922506,161.090396 321.067757,161.687041 C319.685761,162.13193 316.069518,161.771349 315.135668,162.543096 C313.783462,163.662453 313.040008,174.258085 312.093205,176.618722 C308.837032,184.735684 301.92317,188.774709 297.830287,196.136785 C293.838432,203.321165 294.695865,214.471935 293.534056,222.564253 C292.095071,232.587883 291.180648,243.109582 286.888303,252.410754 C284.016809,258.634017 275.402328,266.011658 267.795524,264.784646 C256.61263,262.981741 261.47487,248.693398 264.904602,242.536285 C270.195559,233.039258 270.189083,225.853581 268.84724,215.348744 C264.431848,216.005053 253.492454,220.324241 254.018312,211.910254 C254.378382,206.172089 266.767123,200.91124 271.108687,198.029186 C280.923833,191.515383 290.968233,183.935402 299.25632,175.588862 C302.682166,172.138699 307.585854,165.767572 309.329214,161.04889 C310.598526,157.605213 310.326531,154.256221 310.602412,150.6556 C310.856274,147.341628 313.764034,142.790266 313.620265,139.893946 C313.406554,135.598104 302.095433,128.734096 298.861279,124.185329 C294.252901,117.705249 290.37891,110.042256 287.50094,102.646457"></path><path d="M514.063311,117.071902 C517.530957,116.618358 530.85429,112.926507 533.143143,116.382515 C537.317546,122.686782 525.045918,123.860814 521.959532,124.432279 C508.323671,126.953986 494.983479,130.307623 481.76,134.064266 C455.45569,141.536086 428.63655,150.912791 404.137387,163.084626 C400.300153,164.990809 389.025766,172.747713 385.185939,168.82909 C380.224378,163.767535 392.261285,158.15136 395.018283,156.574321 C407.238038,149.583259 420.150285,143.312684 433.26613,138.164307 C459.099701,128.025647 486.394767,120.122312 514.063311,117.071902"></path><path d="M185.280306,449.856398 C204.84804,446.937499 226.107993,451.245126 245.098306,457.185795 C251.182543,459.088866 257.525135,461.299258 263.093956,464.402035 C266.094738,466.07108 273.229185,469.043986 274.926571,472.167338 C277.759423,477.376352 274.589419,479.597031 270.030762,478.740649 C265.696873,477.925414 260.372196,475.433419 255.848417,474.295434 C235.134883,469.081276 214.545358,465.170979 193.565719,463.08403 C188.547192,462.583831 184.901817,463.166325 180.064138,464.047138 C176.448473,464.706784 166.901,468.636369 164.183115,466.33211 C154.359203,458.006173 180.604098,450.373314 185.280306,449.856398"></path><path d="M489.736011,489.919644 C491.060575,497.34286 487.28635,498.035401 480.979028,501.504555 C474.537424,505.048509 468.102339,507.959245 461.298305,510.819685 C453.966271,513.901945 446.283541,517.062873 438.64644,519.31202 C432.177459,521.21812 422.201512,525.489435 415.483523,524.856218 C412.773121,524.600868 411.020943,524.954231 411,521.595987 C410.980528,517.95273 414.406663,518.170681 417.233094,517.36594 C425.885781,514.904002 434.263386,511.20658 442.771361,508.27392 C458.793889,502.754225 474.843795,498.093436 489.736011,489.919644"></path><path d="M4.34932142,126.898852 C-0.668859402,118.614987 -0.567966095,107.571997 0.820578033,98.2117493 C1.28847074,95.0566095 8.9008707,71.7319463 13.5003443,76.5802146 C16.2282471,79.456196 6.94227939,97.7741847 5.96992015,101.960263 C4.79703547,107.007188 4.19419796,111.999581 4.96729292,117.158169 C5.1779077,118.552663 8.30181669,127.403934 4.34932142,126.898852"></path><path d="M267.335112,173.919644 C263.659593,168.89394 268.579942,157.648187 270.068354,152.30583 C270.986272,149.013172 273.788743,136.646654 278.232185,139.286299 C282.546144,141.848423 277.716817,153.439734 276.852744,156.640418 C275.572017,161.388888 273.709258,173.800079 267.335112,173.919644"></path><path d="M675,441.741065 C675.674786,440.133924 676.350845,438.527971 677.025631,436.919644 C678.74188,438.22411 681.138007,438.865067 679.391202,440.842538 C678.316637,442.060356 676.50872,442.057982 675,441.741065"></path><path d="M613,128.196962 C609.990538,128.657962 607.982055,128.682962 605,128.612962 C607.667537,128.473962 610.333768,128.335962 613,128.196962"></path><path d="M710.5105,361.919644 C710.5035,359.919644 710.4955,357.918411 710.4895,355.919644 C710.4965,357.922112 710.5035,359.920878 710.5105,361.919644"></path><path d="M226.5095,211.919644 C226.5025,209.917815 226.4965,207.917358 226.4905,205.919644 C226.4975,207.921474 226.5035,209.920559 226.5095,211.919644"></path><path d="M320,36.6738402 C317.999529,36.6608402 315.999059,36.6498402 314,36.6368402 C316.010353,35.8238402 318.005176,36.2148402 320,36.6738402"></path><path d="M333.5385,652.919644 C333.5145,654.254131 333.4885,655.588618 333.4615,656.919644 C333.4865,655.584004 333.5125,654.250671 333.5385,652.919644"></path><path d="M81,173.402644 C82.0041183,173.413644 83.0059903,173.423644 84,173.436644 C82.9936353,173.426644 81.9973793,173.414644 81,173.402644"></path><path d="M645.5255,526.919644 C645.5085,525.583432 645.4925,524.248454 645.4745,522.919644 C645.4905,524.25709 645.5075,525.588367 645.5255,526.919644"></path><path d="M696.406,264.919644 C696.468,263.584248 696.532,262.25009 696.594,260.919644 C696.531,262.256278 696.468,263.587961 696.406,264.919644"></path><path d="M605.609,62.9196444 C605.537,64.2541412 605.465,65.5898015 605.391,66.9196444 C605.463,65.5839842 605.536,64.2529778 605.609,62.9196444"></path><path d="M862.4805,501.919644 C862.4935,500.583945 862.5065,499.249429 862.5195,497.919644 C862.5055,499.255344 862.4935,500.587494 862.4805,501.919644"></path><path d="M464.5565,40.9196444 C464.5195,39.5839148 464.4825,38.2481851 464.4435,36.9196444 C464.4805,38.2568119 464.5185,39.5882282 464.5565,40.9196444"></path><path d="M46.415,126.919644 C46.472,125.584423 46.528,124.249202 46.585,122.919644 C46.527,124.256282 46.472,125.588671 46.415,126.919644"></path><path d="M407,112.426144 C408.003697,112.422144 409.006007,112.417144 410,112.413144 C408.992144,112.417144 407.996765,112.422144 407,112.426144"></path><path d="M743.5985,44.9196444 C743.5325,43.5840303 743.4665,42.2511532 743.4015,40.9196444 C743.4675,42.2552585 743.5335,43.5867673 743.5985,44.9196444"></path><path d="M84.4985,251.919644 C84.5005,253.255245 84.5015,254.590845 84.5015,255.919644 C84.4995,254.582684 84.4995,253.251164 84.4985,251.919644"></path><path d="M868.622,483.919644 C868.54,482.585435 868.459,481.251225 868.378,479.919644 C868.459,481.255169 868.541,482.586749 868.622,483.919644"></path><path d="M371,473.467144 C372.003583,473.435144 373.007165,473.404144 374,473.372144 C372.99373,473.405144 371.996865,473.437144 371,473.467144"></path><path d="M696.6175,291.919644 C696.5385,290.584529 696.4605,289.25075 696.3825,287.919644 C696.4605,289.25476 696.5385,290.587202 696.6175,291.919644"></path><path d="M217,449.406644 C215.666272,449.415644 214.332544,449.424644 213,449.432644 C214.333728,449.424644 215.666272,449.415644 217,449.406644"></path><path d="M185,449.231644 C183.666272,449.356644 182.332544,449.482644 181,449.607644 C182.333728,449.481644 183.667456,449.356644 185,449.231644"></path><path d="M695.5445,282.919644 C695.5145,281.918851 695.4845,280.918058 695.4555,279.919644 C695.4855,280.920438 695.5155,281.920041 695.5445,282.919644"></path><path d="M740.584,87.9196444 C740.527,86.9181166 740.472,85.9177346 740.416,84.9196444 C740.473,85.9211723 740.528,86.9204084 740.584,87.9196444"></path><path d="M434.488,96.9196444 C434.496,95.9188207 434.504,94.9192326 434.512,93.9196444 C434.505,94.9217038 434.497,95.9200563 434.488,96.9196444"></path><path d="M295.347932,372.140871 C295.897876,372.171871 296.44782,372.203871 297,372.235871 C295.767097,373.298871 294.324052,372.205871 295.347932,372.140871"></path><path d="M356,472.437144 C356.670006,472.425144 357.337785,472.413144 358,472.402144 C357.327769,472.415144 356.664441,472.425144 356,472.437144"></path><path d="M867.6125,475.919644 C867.5375,474.918472 867.4625,473.918472 867.3875,472.919644 C867.4635,473.921989 867.5375,474.919644 867.6125,475.919644"></path><path d="M87.627,278.919644 C87.542,279.920455 87.457,280.921266 87.373,281.919644 C87.458,280.917618 87.543,279.918023 87.627,278.919644"></path><path d="M546,150.155371 C544.803359,151.046371 543.358992,150.548371 542,150.517371 C543.3338,150.396371 544.6676,150.276371 546,150.155371"></path><path d="M861.4765,514.919644 C861.4925,513.917677 861.5085,512.916891 861.5235,511.919644 C861.5075,512.922792 861.4925,513.921218 861.4765,514.919644"></path><path d="M635.3825,551.919644 C635.4605,550.917402 635.5395,549.916505 635.6175,548.919644 C635.5395,549.923232 635.4605,550.921438 635.3825,551.919644"></path><path d="M70,172.361144 C70.6700393,172.400144 71.3389545,172.438144 72,172.478144 C71.3288364,172.440144 70.6644182,172.400144 70,172.361144"></path><path d="M514,117.257644 C512.666212,117.365644 511.333788,117.473644 510,117.581644 C511.333788,117.473644 512.666212,117.365644 514,117.257644"></path><path d="M417.634,647.919644 C417.544,648.920055 417.455,649.921698 417.366,650.919644 C417.455,649.915538 417.544,648.917591 417.634,647.919644"></path><path d="M221,269.269144 C219.667115,269.369144 218.334231,269.469144 217,269.570144 C218.334231,269.469144 219.667115,269.369144 221,269.269144"></path><path d="M389,608.578144 C391.666211,608.473144 394.332422,608.366144 397,608.261144 C394.333789,608.366144 391.666211,608.472144 389,608.578144"></path><path d="M632.401,514.919644 C632.467,513.25171 632.534,511.583776 632.599,509.919644 C632.533,511.587579 632.467,513.254245 632.401,514.919644"></path><path d="M686,63.6011444 C687.666237,63.4801444 689.332474,63.3591444 691,63.2381444 C689.333763,63.3591444 687.666237,63.4801444 686,63.6011444"></path><path d="M210,403.259644 C211.667097,403.365644 213.334194,403.473644 215,403.579644 C213.332903,403.472644 211.665806,403.365644 210,403.259644"></path><path d="M328.549792,364.919644 C327.845792,363.419338 327.883792,362.086821 328.663792,360.919644 C329.081792,362.281555 329.043792,363.614072 328.549792,364.919644"></path><path d="M807.477,459.919644 C807.492,461.256237 807.506,462.591432 807.523,463.919644 C807.509,462.581656 807.494,461.25065 807.477,459.919644"></path><path d="M406.523,590.919644 C406.507,589.583867 406.492,588.24809 406.477,586.919644 C406.493,588.25982 406.508,589.589732 406.523,590.919644"></path><path d="M359,457.251644 C360.33373,457.363644 361.66746,457.475644 363,457.587644 C361.66627,457.475644 360.33373,457.362644 359,457.251644"></path><path d="M334.064721,369.837777 C333.857489,368.23053 334.147976,367.634191 334.935279,368.045569 C335.142511,369.556084 334.852024,370.153486 334.064721,369.837777"></path><path d="M383.5195,301.919644 C383.5065,302.920836 383.4935,303.922028 383.4805,304.919644 C383.4945,303.917261 383.5065,302.918453 383.5195,301.919644"></path><path d="M842.5125,491.919644 C842.5045,490.918826 842.4955,489.918007 842.4875,488.919644 C842.4945,489.920463 842.5035,490.920054 842.5125,491.919644"></path><path d="M699,63.4231444 C700.333333,63.4211444 701.666667,63.4191444 703,63.4161444 C701.665285,63.4181444 700.333333,63.4211444 699,63.4231444"></path><path d="M666,185.580644 L670,185.258644 L666,185.580644 Z"></path><path d="M603,353.435644 C602.331126,353.424644 601.661148,353.413644 601,353.403644 C601.672185,353.414644 602.335541,353.425644 603,353.435644"></path><path d="M626.4085,543.919644 C626.4705,542.919247 626.5305,541.917657 626.5915,540.919644 C626.5295,541.922427 626.4695,542.921632 626.4085,543.919644"></path><path d="M472,559.381644 C471.330301,559.406644 470.660603,559.432644 470,559.457644 C470.671973,559.431644 471.335986,559.405644 472,559.381644"></path><path d="M383.4895,305.919644 C383.4965,306.92087 383.5035,307.924546 383.5105,308.919644 C383.5055,307.915968 383.4975,306.917193 383.4895,305.919644"></path><path d="M323,49.4186444 C321.99735,49.4196444 320.993565,49.4206444 320,49.4206444 C321.007192,49.4206444 322.004164,49.4196444 323,49.4186444"></path><path d="M327.754706,128.919644 C329.169467,129.838828 329.37876,130.839221 328.382587,131.919644 C326.778002,131.793713 326.571953,130.794497 327.754706,128.919644"></path><path d="M403,87.3896444 C404.333333,87.4096444 405.668087,87.4296444 407,87.4496444 C405.666667,87.4296444 404.331913,87.4096444 403,87.3896444"></path><path d="M374.5045,103.919644 C374.5015,104.920885 374.4985,105.922126 374.4955,106.919644 C374.4985,105.915922 374.5015,104.918404 374.5045,103.919644"></path><path d="M350,105.595644 L354,105.243644 L350,105.595644 Z"></path><path d="M530.838052,289.325092 C521.040132,290.401996 508.580176,289.466131 499.729427,284.697173 C493.593118,281.39001 490.748984,270.552429 499.659994,269.028682 C504.663104,268.173222 510.667097,272.579697 515.089851,274.282708 C520.354972,276.30734 525.849353,277.260341 531.270371,278.679956 C534.950322,279.643501 540.295356,282.075433 536.936369,287.336049 C536.329813,288.285095 530.907485,291.148052 530.838052,289.325092"></path><path d="M669,337.527962 C668.039923,343.818085 667.896493,350.766041 664.878001,356.514647 C660.52729,364.802825 659.669294,355.924019 660.355432,351.370885 C661.365903,344.656854 661.91378,337.782565 661.409837,330.996159 C660.997637,325.436243 657.255534,318.925119 659.994919,313.919644 C667.471372,318.763569 667.623847,329.591318 669,337.527962"></path><path d="M669.340677,141.895213 C665.204734,140.948404 658.43937,138.214162 664.268558,134.357402 C666.637579,132.789922 671.304487,133.54206 673.949153,132.073179 C675.550941,131.184519 676.459172,129.280789 678.064771,128.590592 C683.385859,126.301312 683.930797,130.2099 681.928879,135.180329 C679.810098,140.437709 674.722736,142.15056 669.340677,141.895213"></path><path d="M666.947482,108.799022 C673.743778,103.718203 672.819783,110.06561 669.227621,114.536153 C667.892241,116.043432 666.554265,117.549396 665.214991,119.054044 L666.389451,120.491615 C666.187002,122.536832 668.098582,124.049372 665.754853,125.388299 C661.88757,127.600553 658.981916,122.372426 659,119.477556 C659.027337,114.674254 663.75892,111.662327 666.947482,108.799022"></path><path d="M666.072531,109.207149 C659.727943,115.42728 659.96501,102.904517 663.33771,100.204934 C669.810607,95.0221683 665.641167,107.044508 666.072531,109.207149"></path><path d="M678.201855,113.912758 C677.749611,111.70632 677.691667,101.257604 682.085501,101.952783 C686.863742,102.708413 681.602165,114.241293 678.201855,113.912758"></path><path d="M670,142.377644 C670.669704,142.405644 671.339408,142.434644 672,142.461644 C671.328018,142.434644 670.664009,142.405644 670,142.377644"></path><path d="M365.337695,63.9196444 C359.926197,54.7006267 372.276526,38.9592203 378.460908,51.6997966 C379.299624,53.4253735 381.198257,58.0760624 378.913841,59.5067371 C376.460892,61.0423545 376.986242,58.8106614 374.967792,58.4745791 C372.562243,58.0734057 373.348293,56.9509172 370.55301,58.170378 C368.567478,59.0364875 366.709662,62.3295631 365.337695,63.9196444"></path></g></g></g></svg>