<svg xmlns="http://www.w3.org/2000/svg" viewBox="0 0 1024 768" version="1.1"><g stroke="none" stroke-width="1" fill="#FFFFFF00" fill-rule="evenodd"><g transform="translate(-57.000000, -46.000000)"><rect x="0" y="0" width="1024" height="768"></rect><path d="M883.0359,685.1717 C888.1629,687.8097 892.9549,687.8077 897.9979,689.8607 C903.0029,691.8987 904.3079,700.3477 908.5879,701.3567 C888.7469,703.4437 869.2049,707.8667 849.1229,705.6677 C850.8619,698.5817 847.7389,691.3297 851.9219,684.6807 C863.1059,674.0997 870.3769,678.6577 883.0359,685.1717 Z M799.251,198.1616 C799.509,203.1436 799.878,205.1236 803.414,208.3376 C806.185,210.8556 807.744,207.1016 808.007,212.0196 C808.159,214.8566 805.211,216.2806 804.07,218.5736 C798.382,229.9976 802.308,244.7526 805.103,256.1326 C810.771,279.2076 824.615,304.2966 814.86,327.7506 C813.877,330.1156 813.087,335.2426 811.187,337.0536 C808.682,335.7296 806.853,336.3086 805.699,338.7886 C805.007,339.5666 804.315,340.3446 803.623,341.1216 C799.239,345.1756 794.573,346.6826 788.754,344.5276 C777.022,340.1846 775.082,326.5586 775.021,315.8316 C774.952,304.0086 777.47,291.6266 780.162,280.1086 C781.459,274.5626 783.455,268.1246 779.739,262.8926 C776.229,257.9506 771.893,260.7366 768.437,258.5306 C764.758,256.1826 770.057,238.9256 766.432,234.3496 C760.103,226.3596 757.898,245.9056 757.797,249.8976 C757.687,254.2706 757.924,259.3726 759.985,263.3366 C761.604,266.4506 766.874,269.1836 767.778,272.3276 C768.624,275.2656 764.915,282.8976 764.342,286.0506 C763.46,290.9086 763.153,295.8716 762.9,300.7956 C762.045,317.4296 764.655,334.9356 776.105,347.8436 C781.125,353.5046 789.634,359.9326 797.594,358.9016 C804.62,357.9916 811.681,354.1976 818.234,351.6196 C822.641,368.5496 829.261,384.9456 836.314,400.9336 C842.444,414.8316 848.207,429.0656 854.647,442.7936 C868.219,471.7286 890.249,496.3776 907.462,523.1316 C924.08,548.9606 933.399,578.6006 935.634,609.0936 C936.162,616.3036 934.056,626.1706 935.736,632.9126 C937.311,639.2336 938.693,641.9786 937.662,648.8716 C936.516,656.5316 934.296,663.5956 935.25,671.3896 C936.096,678.3046 939.391,688.6076 935.79,695.0136 C931.463,690.4036 927.146,688.2336 924.522,682.0846 C921.857,675.8446 922.906,670.7166 916.866,667.9746 C911.706,665.6316 908.005,666.1416 903.452,662.3066 C897.921,657.6476 894.152,651.9536 891.427,645.2836 C886.776,633.9016 886.103,621.5626 890.035,609.8736 C893.188,600.5016 902.397,582.9576 915.308,589.2376 C913.39,585.2986 912.114,581.0166 908.455,578.4576 C905.269,576.2286 900.505,575.5026 896.947,572.9676 C892.969,570.1346 888.466,567.1106 884.026,565.0386 C882.302,564.2346 880.671,563.8306 878.89,563.2806 C876.754,562.6216 872.703,563.0946 872.439,563.0546 C864.813,561.9016 856.309,558.2306 851.652,552.6986 C848.147,548.5346 845.049,544.6476 842.373,539.8826 C838.899,533.6986 837.562,534.0726 830.897,532.6036 C821.211,530.4706 815.065,529.0156 807.317,521.8296 C798.724,513.8596 792.436,503.9276 786.148,494.1486 C782.464,488.4186 779.226,488.0686 773.222,485.7806 C769.731,484.4516 764.897,478.4976 761.719,478.0556 C760.802,477.9276 756.408,479.9276 754.922,480.1666 C752.266,480.5966 749.96,480.5196 747.299,480.2406 C741.193,479.5996 735.796,477.9826 731.691,473.2046 C719.048,458.4916 715.193,423.8086 732.503,411.2916 C735.801,408.9076 740.395,407.8096 742.341,403.8486 C744.573,399.3036 743.557,390.7416 743.378,385.9496 C743.175,380.4806 742.918,374.5286 742.101,369.1376 C741.725,366.6596 741.445,365.6176 740.434,363.1366 C738.428,358.2166 737.84,358.9326 733.709,357.7496 C727.816,356.0636 725.151,356.7266 721.538,351.1326 C718.656,346.6706 717.308,341.0496 717.046,335.7736 C716.802,330.8516 719.022,326.3026 717.168,321.8446 C714.454,315.3206 709.422,310.3826 707.215,303.2426 C705.355,297.2296 700.553,283.8086 705.287,278.2606 C707.408,275.7746 711.175,275.4106 713.278,272.0836 C716.942,266.2906 718.422,263.1226 723.86,258.5566 C727.872,255.1876 731.725,250.1676 736.561,248.1076 C741.317,246.0816 745.806,249.3426 749.667,248.4486 C753.876,247.4726 752.769,237.7116 753.937,233.3156 C755.512,227.3886 758.89,221.2096 762.98,216.5846 C764.346,215.0396 766.049,214.7426 767.112,212.6886 C768.554,209.9076 767.982,205.9446 769.105,202.9036 C770.446,199.2696 773.701,193.0136 777.34,191.0216 C787.971,185.2016 791.164,200.1986 799.251,198.1616 Z M774.3734,628.535 C775.8734,632.576 775.0434,639.071 776.7704,642.55 C778.1454,645.321 783.6664,647.079 786.3734,650.384 C792.1694,657.461 794.3774,668.828 792.2734,677.566 C785.1804,675.815 780.4374,674.695 773.2254,675.618 C772.4974,659.781 773.1784,644.367 774.3734,628.535 Z M686.7077,640.471 C691.5337,645.853 693.9277,652.195 693.2307,659.389 C692.9817,661.95 692.1987,665.54 691.4447,668 C690.6157,670.7 686.4957,675.755 688.0947,677.202 C683.5927,676.933 678.3027,677.456 675.0587,674.545 C672.1467,671.932 670.1097,665.197 668.9277,661.628 C671.2007,657.091 673.4747,652.554 675.7487,648.018 C677.2287,650.366 681.5747,656.498 685.1637,654.536 C687.8667,653.059 685.6847,643.457 686.7077,640.471 Z M856.0897,598.5229 C861.6127,603.6549 863.5007,612.9079 863.2187,620.0899 C863.3097,629.9889 859.8827,649.8029 847.0137,650.4669 C836.6717,651.0009 825.6407,636.1889 824.4777,627.0339 C823.2027,616.9979 826.5227,592.9969 839.6797,590.9329 C844.5237,590.1729 852.5987,595.2779 856.0897,598.5229 Z M763.6475,611.3223 C763.8675,617.8113 763.9765,624.0543 763.4615,630.5213 C763.0325,635.9283 764.4635,642.3133 763.2535,647.4903 C755.6025,638.9303 745.5235,629.6093 745.8295,617.0273 C746.1175,605.1333 755.9715,606.1453 763.6475,611.3223 Z M686.5364,468.317 L692.9404,475.337 C693.1234,485.2 692.9284,494.952 695.9314,504.462 C699.0914,514.469 704.3864,524.113 709.6284,533.161 C719.8184,550.747 722.2484,567.334 723.4764,587.446 C704.3124,578.86 693.8614,549.522 687.5384,531.17 C684.1904,521.455 680.7184,511.731 677.5604,501.955 C674.4464,492.314 668.9424,479.717 672.5654,469.561 C679.5274,474.679 682.5384,477.317 686.5364,468.317 Z M805.9549,537.5423 C815.3119,544.9843 816.0199,556.3723 819.3789,566.7793 C817.4419,568.3263 815.3149,569.6883 813.5649,571.4523 C812.4849,572.5423 809.9379,577.0023 809.1079,577.4603 C805.7929,579.2933 802.8969,576.9403 799.6579,573.9843 C793.2819,568.1613 789.3019,555.8033 789.6009,547.2573 C789.9499,537.2753 797.0069,530.4253 805.9549,537.5423 Z M936.8818,493.8111 C949.0448,500.7791 945.8718,520.0571 944.3548,530.9311 C943.4028,537.7471 945.5128,544.6811 945.3658,551.1651 C945.2018,558.4831 941.4048,556.9671 938.9758,561.5091 C936.8668,556.0001 932.9988,549.3691 932.1188,543.5931 L930.7208,539.9391 C931.9048,539.4641 932.5338,538.6381 932.6068,537.4611 C933.1038,534.6621 933.0968,531.8081 933.2528,528.9541 C933.8968,517.1601 934.7888,505.4421 936.8818,493.8111 Z M751.5679,506.8301 C750.2219,511.9631 749.2359,521.6221 741.6729,518.6451 C735.7049,516.2951 734.2639,506.8101 734.250798,501.5231 C734.2409,497.1831 734.9549,489.2091 741.0259,488.9491 C748.4779,488.6291 751.1389,501.8171 751.5679,506.8301 Z M693.9974,363.9259 C688.9664,371.9839 685.4744,383.8869 687.8514,393.4279 C690.3464,403.4469 698.1074,405.8719 705.0104,398.4999 C710.7074,407.4689 699.0284,423.4419 688.5864,414.9139 C686.3294,413.0719 684.8144,409.5449 682.0234,408.3959 C679.7354,407.4549 677.7084,408.7339 675.3724,408.2029 C668.1864,406.5699 665.4724,399.5119 662.6494,393.5879 C663.4244,388.7589 664.2454,383.9719 665.2904,379.1909 C665.8464,376.6489 666.4254,374.1109 666.9884,371.5699 C667.9454,367.2529 667.6474,367.7919 670.7774,365.6519 C679.0324,360.0119 684.7104,359.7329 693.9974,363.9259 Z M698.2594,368.2752 L704.2974,381.7032 C701.0074,380.9102 697.4234,390.7832 695.2744,392.7072 C694.2694,384.4912 696.6764,376.2652 698.2594,368.2752 Z M694.9129,322.4115 C700.3729,324.7115 701.4589,334.6795 701.6519,339.5015 C700.1509,344.5775 698.7489,351.0715 692.4039,347.4965 C688.1699,345.1095 686.3549,337.2505 686.2109,332.9575 C686.0289,327.5745 688.0509,319.5195 694.9129,322.4115 Z" fill="#714dd2"></path><g transform="translate(56.999856, 45.999681)" fill="#000000"><path d="M597.013844,159.804019 C594.765844,160.815019 599.057844,168.370019 599.724844,169.756019 C601.467844,173.374019 603.592844,180.850019 607.719844,178.792019 C604.150844,172.463019 600.582844,166.133019 597.013844,159.804019 M68.9808444,598.149019 C65.9728444,596.815019 61.9498444,608.290019 61.4138444,610.621019 C59.9188444,617.116019 61.1698444,621.479019 66.3688444,625.678019 C64.2168444,616.396019 66.7948444,607.151019 68.9808444,598.149019 M763.343844,106.762019 C759.602844,101.906019 754.198844,92.8900191 746.640844,97.6630191 C743.655844,99.5490191 741.358844,105.594019 739.517844,108.547019 C736.626844,113.183019 733.828844,117.646019 731.628844,122.637019 C735.365844,121.101019 737.568844,117.761019 740.909844,115.935019 C743.192844,114.688019 745.274844,114.568019 747.473844,113.659019 C752.336844,111.651019 758.995844,109.682019 763.343844,106.762019 M153.426844,585.212019 C155.450844,593.134019 157.322844,601.033019 158.888844,609.057019 C159.947844,614.487019 163.506844,622.158019 161.649844,627.471019 C166.460844,626.824019 171.271844,626.178019 176.082844,625.531019 C172.513844,617.409019 170.635844,608.742019 169.575844,599.968019 C168.926844,594.598019 169.758844,593.067019 165.712844,590.079019 C162.579844,587.765019 157.063844,586.653019 153.426844,585.212019 M126.816844,281.991019 C136.066844,291.250019 144.156844,301.804019 153.986844,310.431019 C159.094844,314.914019 164.330844,319.271019 169.572844,323.595019 C174.017844,327.261019 181.086844,335.343019 186.871844,336.465019 C187.586844,333.512019 189.277844,328.673019 188.824844,325.644019 C190.512844,323.898019 189.988844,322.623019 187.252844,321.817019 C185.578844,320.530019 183.923844,319.222019 182.284844,317.890019 C175.854844,312.523019 169.769844,306.693019 163.676844,300.952019 C157.619844,295.246019 152.016844,289.276019 146.758844,282.829019 C143.988844,279.434019 142.368844,276.030019 137.825844,275.032019 C132.428844,273.847019 130.632844,278.055019 126.816844,281.991019 M311.686844,625.779019 C311.425844,630.810019 323.798844,633.893019 327.557844,634.195019 C337.719844,635.010019 344.318844,630.554019 347.815844,621.766019 C355.095844,603.475019 366.751844,587.360019 371.626844,568.126019 C373.072844,562.419019 374.324844,559.822019 369.171844,556.914019 C367.056844,555.722019 361.549844,553.062019 359.250844,554.580019 C357.061844,556.025019 355.268844,562.527019 353.861844,564.890019 C351.626844,568.644019 349.085844,572.214019 346.659844,575.846019 C335.309844,592.837019 323.872844,609.383019 311.686844,625.779019 M164.845844,373.879019 L212.349844,401.042019 C214.330844,394.203019 215.241844,387.073019 217.098844,380.180019 C218.420844,375.281019 221.821844,368.361019 221.606844,364.060019 C221.285844,357.639019 216.312844,349.115019 214.144844,342.994019 C211.442844,335.367019 208.740844,327.738019 206.038844,320.110019 C202.379844,323.609019 198.166844,326.053019 198.121844,330.612019 C198.096844,333.218019 199.833844,334.844019 198.826844,337.796019 C198.119844,339.867019 195.113844,342.617019 193.661844,344.156019 C189.420844,348.656019 189.553844,348.881019 185.096844,344.673019 C178.346844,354.409019 171.595844,364.144019 164.845844,373.879019 M217.107844,501.236019 C217.787844,494.692019 218.660844,488.418019 220.132844,481.997019 C221.037844,478.052019 224.859844,469.951019 223.602844,466.235019 C222.678844,463.504019 217.186844,461.129019 215.047844,459.643019 C208.859844,455.344019 202.816844,450.821019 196.690844,446.434019 C191.318844,442.587019 185.866844,438.832019 180.595844,434.847019 C175.713844,431.157019 172.028844,426.567019 166.120844,424.985019 C160.951844,423.600019 154.392844,424.504019 149.038844,424.326019 C141.853844,424.087019 134.557844,424.008019 127.379844,424.359019 C103.290844,425.538019 76.3048444,423.853019 53.1298444,430.572019 C42.1768444,433.747019 35.1158444,435.616019 28.9928444,445.991019 C21.9118444,457.990019 15.8618444,470.458019 10.7108444,483.419019 C9.95884444,485.312019 8.25884444,488.042019 8.3220318,490.110019 C8.44784444,494.059019 9.86084444,493.149019 13.6478444,495.401019 C17.7398444,497.834019 21.7508444,500.722019 25.6598444,503.462019 C32.3628444,508.160019 40.6848444,513.065019 47.6388444,516.729019 C56.0058444,521.137019 64.4348444,525.090019 72.9458444,529.529019 C78.3388444,532.342019 83.9208444,534.642019 89.2108444,537.733019 C94.9538444,541.090019 101.383844,542.046019 107.574844,544.667019 C126.744844,552.784019 145.297844,560.285019 164.109844,569.545019 C182.471844,578.583019 201.044844,586.221019 219.831844,594.194019 C244.112844,604.497019 268.153844,614.027019 293.476844,621.152019 C295.330844,621.674019 299.228844,623.514019 301.059844,623.430019 C304.974844,623.250019 305.861844,620.389019 308.213844,617.165019 C312.835844,610.829019 317.287844,604.372019 321.708844,597.896019 C331.297844,583.847019 340.674844,569.642019 350.998844,556.114019 C321.743844,547.951019 294.617844,532.890019 268.900844,517.433019 C267.805844,520.510019 266.933844,527.327019 263.423844,528.356019 C259.083844,529.630019 255.930844,523.617019 253.985844,520.852019 C252.144844,525.436019 248.994844,540.898019 243.102844,540.560019 C234.961844,540.092019 236.398844,527.278019 235.384844,522.194019 C230.896844,528.159019 225.695844,535.018019 219.596844,525.845019 C215.369844,519.486019 215.838844,508.326019 217.107844,501.236019 M556.066844,428.164019 C552.294844,426.985019 548.546844,425.937019 544.856844,424.616019 C543.886844,422.558019 542.275844,421.934019 540.024844,422.744019 C538.180844,422.909019 536.386844,422.681019 534.643844,422.058019 C526.936844,420.741019 518.399844,419.031019 511.035844,416.809019 C504.477844,414.830019 498.293844,413.082019 491.630844,411.595019 C487.673844,410.713019 470.049844,405.726019 467.444844,408.661019 C466.643844,409.564019 468.021844,420.510019 467.827844,422.461019 C467.482844,425.930019 467.311844,431.641019 465.114844,434.529019 C464.271844,435.637019 461.061844,436.865019 459.901844,437.728019 C456.132844,440.531019 452.649844,444.014019 448.900844,446.920019 C440.714844,453.265019 432.741844,459.849019 424.388844,465.986019 C418.485844,470.323019 411.728844,472.470019 405.171844,475.621019 C409.836844,476.456019 418.965844,471.966019 423.674844,470.574019 C429.773844,468.770019 435.758844,466.765019 441.996844,465.113019 C454.786844,461.726019 467.890844,457.903019 480.889844,454.297019 C488.872844,452.083019 497.305844,449.776019 505.044844,446.844019 C508.477844,445.543019 511.172844,442.519019 513.440844,445.597019 C515.249844,448.054019 513.060844,451.287019 511.669844,453.108019 C503.554844,463.728019 481.516844,466.312019 469.721844,470.718019 C456.409844,475.689019 443.274844,480.925019 429.567844,484.417019 C413.559844,488.496019 396.183844,491.617019 381.266844,498.781019 C368.890844,504.723019 354.870844,507.026019 341.712844,510.514019 C329.355844,513.789019 314.701844,514.445019 303.022844,520.005019 C308.067844,523.989019 315.531844,526.067019 321.411844,528.746019 C328.609844,532.025019 335.882844,535.016019 343.001844,538.491019 C346.031844,539.970019 349.202844,542.168019 352.268844,543.397019 C356.160844,544.958019 355.661844,544.135019 359.681844,543.818019 C365.938844,543.326019 374.380844,542.201019 379.463844,546.757019 C385.594844,552.252019 381.709844,558.272019 382.609844,564.995019 C383.227844,569.604019 383.541844,568.865019 388.659844,569.569019 C393.370844,570.216019 398.076844,570.971019 402.723844,571.978019 C408.460844,573.222019 414.332844,575.308019 419.920844,577.106019 C428.585844,579.895019 429.527844,583.177019 438.559844,579.577019 C464.282844,569.325019 490.887844,560.898019 516.774844,551.197019 C528.698844,546.729019 540.673844,538.110019 551.897844,531.635019 C566.297844,523.327019 579.317844,514.340019 589.067844,500.508019 C593.511844,494.204019 598.145844,483.555019 597.211844,475.728019 C596.376844,468.729019 591.198844,460.949019 587.860844,454.930019 C583.597844,447.246019 579.844844,444.264019 573.322844,439.159019 C568.788844,435.611019 561.783844,428.117019 556.066844,428.164019 M269.593844,487.643019 C269.992844,491.507019 267.734844,507.434019 269.971844,509.884019 C273.796844,514.074019 283.178844,509.184019 286.808844,507.936019 C298.600844,503.882019 312.306844,504.769019 324.314844,501.559019 C335.963844,498.445019 347.357844,494.410019 359.071844,491.238019 C365.355844,489.535019 371.319844,486.867019 377.500844,484.840019 C384.381844,482.583019 392.062844,481.346019 398.443844,477.951019 C397.653844,475.988019 370.043844,480.710019 366.905844,480.965019 C356.006844,481.850019 345.745844,480.169019 335.003844,478.194019 C311.309844,473.836019 288.984844,463.502019 265.596844,456.798019 C266.692844,467.584019 297.046844,469.732019 293.430844,482.249019 C292.421844,485.738019 278.842844,491.441019 274.351844,489.252019 C265.227844,484.803019 276.388844,478.542019 280.936844,476.981019 C274.013844,473.012019 267.388844,468.706019 261.069844,463.815019 C254.304844,458.579019 251.393844,451.233019 247.767844,443.653019 C240.188844,427.805019 222.252844,418.586019 208.320844,408.720019 C193.255844,398.052019 177.214844,388.983019 162.158844,378.339019 C159.471844,376.439019 158.216844,377.311019 157.272844,373.842019 C156.262844,370.127019 159.973844,365.406019 161.774844,362.573019 C166.508844,355.123019 172.022844,348.072019 178.276844,341.836019 C170.211844,336.347019 161.499844,331.816019 153.936844,325.603019 C146.270844,319.305019 139.926844,311.617019 133.163844,304.407019 C122.359844,327.916019 107.217844,349.720019 95.3268444,372.775019 C90.6298444,381.881019 88.1468444,395.654019 95.2898444,404.478019 C102.806844,413.765019 116.823844,410.150019 127.434844,410.642019 C138.633844,411.162019 148.849844,412.431019 159.895844,415.607019 C164.892844,417.045019 169.441844,416.620019 174.244844,418.928019 C179.877844,421.634019 185.417844,425.110019 190.776844,428.318019 C201.315844,434.626019 211.161844,442.523019 221.113844,449.721019 C225.195844,452.673019 247.330844,470.174019 229.822844,467.472019 C229.822844,483.849019 226.953844,500.621019 225.447844,516.919019 C229.599844,511.961019 232.560844,506.922019 235.072844,500.965019 C236.566844,497.421019 236.585844,488.377019 241.564844,490.521019 C249.054844,493.745019 243.220844,517.438019 243.220844,523.847019 C245.076844,520.261019 246.376844,516.399019 247.712844,512.599019 C248.724844,509.720019 249.989844,501.557019 252.101844,499.626019 C259.171844,493.164019 260.162844,510.788019 260.162844,514.466019 C262.452844,507.969019 262.873844,501.035019 263.103844,494.170019 C263.193844,491.462019 262.524844,487.248019 263.208844,484.628019 C264.346844,480.261019 264.211844,480.546019 268.784844,478.700019 C269.054844,481.680019 269.324844,484.662019 269.593844,487.643019 M487.998844,625.850019 C488.559844,631.391019 490.703844,635.402019 487.060844,640.386019 C494.102844,639.882019 501.035844,639.263019 508.089844,639.442019 C513.752844,639.586019 522.222844,640.881019 527.506844,638.455019 C529.659844,637.467019 530.391844,639.168019 531.498844,637.280019 C532.549844,635.486019 530.080844,629.532019 529.783844,628.055019 C528.359844,620.967019 527.665844,613.696019 526.371844,606.564019 C525.483844,601.662019 522.873844,592.021019 526.154844,587.389019 C530.980844,580.573019 533.105844,590.175019 534.362844,594.438019 C538.503844,608.483019 538.264844,621.822019 538.264844,636.253019 C544.501844,636.253019 552.695844,633.529019 558.710844,631.886019 C567.007844,629.619019 575.867844,627.289019 583.906844,624.329019 C591.488844,621.538019 598.165844,617.465019 602.959844,610.909019 C606.545844,606.005019 614.495844,593.906019 612.520844,588.484019 C610.099844,581.836019 598.553844,577.265019 592.387844,576.534019 C584.387844,575.585019 576.188844,577.192019 568.002844,577.867019 C559.239844,578.590019 550.737844,580.541019 542.067844,581.480019 C533.647844,582.391019 522.346844,585.200019 514.166844,583.095019 C513.953844,586.460019 516.767844,590.983019 517.747844,594.409019 C519.032844,598.901019 520.179844,603.433019 521.222844,607.986019 C522.339844,612.860019 529.253844,630.382019 522.965844,633.885019 C515.584844,637.997019 512.061844,620.389019 511.142844,616.097019 C508.950844,605.863019 507.066844,595.638019 509.361844,585.350019 C499.940844,583.652019 488.578844,586.174019 478.862844,586.843019 C482.482844,599.593019 484.817844,612.946019 487.998844,625.850019 M82.2238444,631.393019 C85.4998444,632.850019 90.0018444,632.068019 93.5628444,632.348019 C99.1278444,632.785019 104.749844,633.791019 110.351844,633.612019 C118.899844,633.340019 127.860844,632.259019 136.415844,631.281019 C131.535844,622.480019 128.574844,614.147019 127.965844,604.060019 C127.746844,600.437019 125.823844,577.965019 132.509844,578.926019 C135.735844,579.390019 135.050844,598.578019 135.676844,602.113019 C136.586844,607.241019 137.760844,612.491019 139.189844,617.511019 C140.226844,621.152019 143.754844,626.605019 142.850844,630.543019 C147.163844,629.844019 151.477844,629.145019 155.791844,628.446019 C152.437844,621.759019 149.987844,615.766019 148.731844,608.307019 C148.124844,604.707019 148.511844,600.227019 147.334844,596.808019 C146.592844,594.653019 144.900844,592.626019 144.674844,590.819019 C144.413844,588.734019 146.697844,583.611019 145.852844,581.759019 C145.022844,579.938019 139.243844,578.254019 137.218844,577.250019 C131.637844,574.485019 128.366844,573.785019 122.111844,575.375019 C110.046844,578.441019 91.0378444,580.617019 82.0398444,588.887019 C73.1258444,597.080019 69.8818444,624.716019 82.2238444,631.393019 M609.141844,232.002019 C612.481844,231.625019 615.787844,231.392019 619.144844,231.219019 C614.239844,224.317019 609.784844,217.103019 605.717844,209.677019 C603.724844,206.039019 601.842844,202.343019 600.040844,198.607019 C597.971844,194.320019 598.028844,191.521019 593.534844,190.669019 C587.311844,189.490019 578.988844,191.846019 572.586844,191.578019 C567.640844,191.370019 556.534844,186.716019 552.550844,188.403019 C556.183844,195.849019 553.267844,207.434019 553.409844,215.449019 C553.551844,223.420019 552.561844,231.125019 551.158844,238.985019 C559.645844,238.985019 570.268844,236.055019 578.835844,234.746019 C588.809844,233.222019 598.979844,233.143019 609.141844,232.002019 M474.414844,641.187019 C477.683844,640.768019 480.791844,640.638019 484.091844,640.638019 C476.656844,628.585019 471.042844,615.106019 470.979844,600.744019 C470.971844,598.866019 473.230844,588.070019 472.483844,587.173019 C471.025844,585.425019 464.982844,586.805019 463.326844,586.970019 C456.555844,587.647019 449.028844,587.596019 442.653844,590.035019 C438.254844,591.719019 438.206844,590.702019 436.457844,595.879019 C435.422844,598.941019 434.678844,602.438019 434.658844,605.658019 C434.616844,612.165019 436.691844,619.770019 439.373844,625.628019 C441.927844,631.205019 445.962844,637.186019 451.512844,640.181019 C457.906844,643.634019 466.916844,641.579019 474.414844,641.187019 M542.015844,193.408019 C540.729844,188.606019 541.285844,189.690019 537.010844,189.094019 C536.110844,188.969019 526.318844,189.172019 525.755844,189.746019 C525.108844,190.408019 525.355844,200.185019 525.270844,201.304019 C524.980844,205.139019 524.551844,208.964019 524.133844,212.787019 C522.438844,228.307019 519.221844,243.331019 516.809844,258.723019 C522.769844,255.025019 531.382844,260.067019 536.473844,256.064019 C540.496844,252.901019 539.893844,242.779019 540.193844,238.313019 C541.197844,223.365019 541.540844,208.380019 542.015844,193.408019 M757.209844,175.284019 C756.673844,176.145019 756.137844,177.006019 755.601844,177.867019 C757.682844,179.201019 769.864844,165.630019 772.573844,163.202019 C776.181844,159.969019 781.891844,155.652019 783.518844,150.925019 C785.409844,145.432019 783.549844,136.760019 783.091844,131.080019 C782.764844,127.015019 783.459844,121.393019 780.145844,118.553019 C777.095844,115.940019 769.581844,116.010019 765.969844,116.569019 C755.129844,118.247019 748.610844,127.161019 743.138844,135.655019 C748.694844,134.972019 768.281844,126.030019 770.556844,130.866019 C773.861844,137.892019 753.290844,144.174019 751.256844,150.339019 C755.467844,151.826019 764.755844,146.058019 762.142844,155.655019 C761.696844,156.998019 760.918844,158.110019 759.810844,158.991019 C757.887844,159.672019 757.432844,160.955019 758.444844,162.841019 C757.583844,166.600019 757.759844,171.356019 757.209844,175.284019 M881.975844,515.510019 C882.033844,517.788019 882.242844,519.966019 884.104844,521.576019 C888.234844,508.497019 889.524844,495.412019 891.235844,481.811019 C892.947844,468.207019 894.769844,454.265019 895.040844,440.673019 C895.344844,425.440019 893.905844,408.869019 891.441844,393.819019 C889.514844,382.053019 888.022844,367.575019 881.007844,357.561019 C884.991844,383.512019 883.752844,408.116019 881.066844,434.158019 C879.640844,447.986019 877.627844,461.707019 876.704844,475.595019 C876.460844,479.263019 876.381844,482.975019 876.063844,486.636019 C875.875844,488.793019 873.739844,492.880019 873.720844,493.939019 C873.615844,499.818019 879.909844,510.111019 881.975844,515.510019 M670.018844,495.298019 C673.331844,502.921019 677.098844,510.430019 679.085844,518.537019 C681.182844,527.097019 680.279844,535.069019 680.615844,543.743019 C681.172844,558.134019 680.018844,572.440019 680.220844,586.852019 C680.392844,599.135019 679.921844,611.111019 680.044844,623.264019 C680.122844,630.952019 679.701844,638.611019 679.727844,646.295019 C679.727844,646.272019 680.033844,653.192019 679.504844,653.543019 C677.131844,655.119019 674.538844,652.881019 673.811844,650.726019 L666.777844,658.684019 C670.464844,657.758019 674.998844,655.823019 678.788844,655.652019 C680.239844,655.118019 681.684844,655.103019 683.124844,655.607019 C684.553844,656.471019 685.612844,657.675019 686.301844,659.221019 C696.232844,661.336019 702.192844,652.497019 703.976844,644.594019 C707.845844,627.447019 706.451844,610.518019 706.170844,593.207019 C705.562844,555.599019 711.537844,518.216019 710.972844,480.605019 C710.863844,473.327019 710.585844,466.134019 711.679844,458.870019 C713.709844,445.375019 716.707844,457.728019 717.188844,464.097019 C718.634844,483.235019 721.152844,502.983019 719.767844,522.239019 C718.521844,539.590019 718.636844,557.101019 717.772844,574.504019 C716.853844,593.001019 715.373844,611.106019 716.225844,629.618019 C721.192844,628.983019 737.169844,628.036019 738.833844,635.014019 C740.284844,641.100019 734.445844,638.848019 731.412844,638.591019 C726.494844,638.174019 721.690844,639.328019 716.314844,638.364019 C716.710844,646.550019 717.839844,657.528019 710.524844,663.055019 C706.926844,665.774019 700.967844,668.228019 696.763844,669.831019 C692.643844,671.403019 685.665844,674.885019 681.373844,674.694019 C678.336844,674.559019 677.166844,672.924019 673.834844,673.185019 C668.890844,673.574019 664.610844,676.881019 659.369844,674.149019 C649.429844,668.968019 654.315844,653.899019 660.591844,647.860019 C662.209844,646.302019 664.028844,644.599019 666.199844,643.840019 C667.231844,643.479019 671.550844,643.915019 672.048844,643.374019 C673.886844,641.379019 671.591844,629.709019 671.346844,627.494019 C670.057844,615.876019 668.653844,604.011019 668.124844,592.341019 C667.627844,581.369019 667.074844,570.375019 666.696844,559.399019 C666.614844,557.009019 667.674844,552.095019 666.673844,550.006019 C665.008844,546.534019 657.703844,544.324019 654.534844,542.707019 C657.358844,570.369019 661.507844,600.101019 651.285844,626.449019 C649.255844,631.681019 646.978844,639.149019 641.831844,642.059019 C636.980844,644.803019 625.556844,644.416019 619.744844,644.742019 C613.494844,645.092019 607.376844,643.633019 603.932844,637.764019 C601.223844,633.146019 602.847844,627.606019 608.410844,625.592019 C611.741844,624.387019 612.390844,625.162019 615.308844,626.595019 C615.941844,627.623019 616.385844,628.728019 616.642844,629.910019 L618.885844,629.910019 C621.925844,631.266019 634.075844,632.783019 637.416844,630.619019 C641.288844,628.114019 642.130844,621.339019 643.781844,617.314019 C646.847844,609.835019 647.659844,603.766019 648.772844,595.772019 C650.514844,583.260019 648.750844,568.752019 648.783844,555.716019 C648.792844,552.045019 648.808844,548.373019 648.813844,544.702019 C648.820844,539.157019 649.303844,539.191019 646.139844,535.199019 C641.371844,529.183019 635.935844,523.035019 630.831844,517.268019 C633.596844,534.117019 632.464844,551.857019 631.366844,568.643019 C630.750844,578.074019 629.474844,587.678019 628.889844,596.984019 C628.713844,599.780019 630.722844,607.490019 627.475844,608.726019 C624.180844,609.980019 620.079844,604.130019 618.748844,602.018019 C611.484844,616.513019 602.814844,630.494019 587.827844,637.993019 C580.121844,641.849019 572.097844,643.588019 563.687844,645.100019 C555.896844,646.502019 548.696844,649.058019 541.015844,650.264019 C525.117844,652.759019 510.474844,653.112019 494.476844,652.567019 C479.383844,652.053019 464.931844,654.840019 449.886844,651.331019 C444.014844,649.962019 438.081844,647.447019 434.067844,642.952019 C431.877844,640.499019 430.908844,636.638019 428.699844,634.377019 C428.201844,631.451019 426.480844,630.549019 423.534844,631.669019 C421.684844,631.752019 419.841844,631.691019 418.005844,631.485019 C402.915844,630.693019 386.145844,631.576019 371.523844,627.266019 C365.973844,625.630019 359.777844,622.935019 362.546844,615.989019 C364.966844,609.918019 371.644844,611.762019 377.120844,612.292019 C393.027844,613.833019 408.685844,616.644019 424.821844,618.059019 C424.302844,609.628019 424.749844,601.027019 428.054844,593.140019 C416.860844,591.735019 405.255844,589.616019 394.604844,586.042019 C391.315844,584.938019 388.041844,583.791019 384.778844,582.611019 C379.400844,580.666019 380.518844,580.163019 377.403844,583.557019 C373.489844,587.821019 371.093844,596.718019 368.257844,601.870019 C365.066844,607.668019 362.004844,613.400019 359.315844,619.452019 C356.770844,625.180019 354.872844,632.852019 350.994844,637.788019 C342.464844,648.646019 322.763844,649.587019 311.169844,645.322019 C305.490844,643.232019 303.440844,642.904019 299.998844,637.814019 C296.227844,632.238019 295.290844,631.912019 288.343844,631.155019 C275.798844,629.788019 263.958844,626.639019 252.206844,622.291019 C239.790844,617.698019 227.041844,614.117019 214.661844,609.158019 C203.072844,604.515019 191.871844,599.845019 179.880844,596.221019 C178.457844,605.265019 184.353844,615.464019 184.353844,624.788019 C191.330844,624.090019 197.836844,623.478019 204.752844,622.368019 C207.218844,621.972019 222.755844,618.486019 224.271844,620.543019 C230.590844,629.119019 201.838844,633.153019 197.344844,634.286019 C182.943844,637.920019 168.258844,641.297019 153.766844,644.106019 C138.974844,646.973019 124.554844,649.828019 109.538844,650.343019 C84.1298444,651.214019 49.0828444,649.746019 50.2958444,616.363019 C50.7718444,603.282019 56.1608444,589.086019 66.4728444,580.555019 C72.8888444,575.247019 80.8898444,572.329019 88.7338444,569.927019 C91.6318444,569.039019 106.898844,566.965019 107.362844,565.823019 C103.060844,562.740019 95.7078444,561.936019 90.6038444,559.560019 C85.7378444,557.294019 80.6028444,556.450019 75.6218444,554.166019 C65.6688444,549.603019 56.0558444,544.025019 46.8528444,538.383019 C39.5338444,533.895019 32.1338444,528.940019 25.3958444,523.605019 C20.0418444,519.367019 14.9108444,515.291019 10.6308444,510.447019 C8.39084444,507.912019 4.42584444,505.667019 2.63184444,503.484019 C-3.66815556,495.817019 2.97584444,480.561019 5.65884444,471.635019 C9.57784444,458.588019 14.8078444,444.705019 22.5208444,433.403019 C29.6138444,423.009019 37.5218444,416.007019 50.2448444,413.572019 C61.9878444,411.325019 73.7958444,410.613019 85.8058444,409.982019 C83.7878444,402.305019 80.9468444,396.887019 81.6678444,388.467019 C82.3478444,380.525019 86.3578444,372.634019 89.5048444,365.401019 C95.3558444,351.956019 100.875844,338.796019 108.877844,326.417019 C113.275844,319.614019 118.215844,313.156019 123.016844,306.637019 C123.790844,305.586019 128.602844,300.778019 128.418844,299.424019 C128.235844,298.078019 123.403844,293.980019 122.663844,293.041019 C117.694844,286.733019 114.259844,279.941019 120.094844,273.190019 C123.136844,269.670019 132.080844,262.562019 136.385844,267.034019 C141.040844,257.628019 149.182844,251.215019 155.521844,243.213019 C163.424844,233.235019 170.970844,223.105019 178.368844,212.654019 C185.734844,202.248019 191.751844,191.069019 201.515844,182.683019 C212.396844,173.338019 222.639844,174.146019 236.003844,178.141019 C236.766844,172.986019 237.827844,173.672019 242.813844,171.951019 C246.587844,170.648019 250.255844,169.102019 253.966844,167.631019 C257.910844,166.066019 261.902844,165.178019 265.934844,163.948019 C271.305844,162.310019 272.112844,162.845019 272.985844,155.870019 C274.041844,147.442019 270.434844,138.531019 268.108844,130.592019 C266.960844,126.675019 266.162844,121.799019 263.579844,119.164019 C261.242844,116.781019 257.099844,115.696019 254.543844,113.061019 C232.521844,90.3600191 232.174844,41.8900191 255.632844,20.7920191 C260.191844,16.6910191 263.951844,11.1740191 269.626844,8.40501911 C275.857844,5.36401911 284.076844,2.90501911 290.939844,1.47201911 C305.085844,-1.47998089 320.950844,-0.542980891 332.132844,9.40101911 C337.647844,14.3050191 341.010844,22.1000191 342.890844,29.0630191 C344.686844,35.7140191 344.301844,46.9560191 337.493844,36.6770191 C333.200844,30.1940191 329.470844,23.5820191 322.203844,20.3750191 C315.709844,17.5100191 307.779844,15.9630191 300.704844,16.5710191 C284.030844,18.0030191 270.518844,22.8990191 258.976844,35.2400191 C246.214844,48.8850191 245.565844,70.6700191 248.316844,88.0210191 C250.740844,82.8890191 252.382844,74.7630191 259.178844,73.7830191 C264.842844,72.9660191 273.771844,80.1980191 270.731844,86.4240191 C256.938844,82.9080191 252.904844,103.766019 264.831844,105.022019 C268.442844,105.402019 273.015844,98.9740191 276.340844,100.471019 C282.558844,103.269019 274.225844,112.911019 272.582844,116.086019 C271.709844,116.623019 270.836844,117.160019 269.963844,117.698019 C270.823844,119.696019 271.691844,121.691019 272.568844,123.682019 C273.631844,126.221019 274.643844,128.766019 275.577844,131.356019 C277.850844,137.659019 280.207844,144.158019 281.577844,150.724019 C282.969844,157.400019 283.692844,165.196019 280.401844,171.468019 C276.784844,178.362019 273.377844,177.514019 270.598844,170.956019 C263.324844,175.541019 256.010844,180.430019 247.459844,182.239019 C256.426844,197.283019 268.034844,210.216019 285.488844,214.948019 C300.281844,218.959019 318.902844,218.812019 333.017844,212.177019 C347.664844,205.292019 355.724844,189.200019 353.980844,173.190019 C353.415844,168.005019 350.397844,149.995019 357.576844,163.023019 C361.513844,170.168019 361.802844,181.758019 360.904844,189.593019 C356.611844,227.071019 318.620844,241.092019 285.861844,232.070019 C269.056844,227.441019 256.946844,215.051019 247.930844,200.466019 C245.827844,197.065019 243.903844,193.555019 242.024844,190.026019 C241.273844,188.616019 240.612844,186.647019 239.610844,185.410019 C235.683844,180.563019 239.541844,183.264019 235.372844,182.657019 C228.920844,181.719019 218.767844,186.660019 213.976844,190.575019 C200.977844,201.196019 193.777844,218.186019 183.800844,231.572019 C173.178844,245.822019 159.688844,258.505019 146.156844,269.875019 C161.463844,285.554019 176.769844,301.231019 192.076844,316.909019 C195.238844,313.409019 201.249844,305.409019 202.090844,300.729019 C202.583844,297.986019 200.370844,288.958019 207.176844,292.976019 C211.771844,295.690019 213.514844,307.303019 214.947844,312.054019 C217.161844,319.392019 220.889844,326.302019 223.299844,333.564019 C227.769844,347.038019 233.276844,360.393019 237.855844,373.963019 C239.717844,379.481019 245.026844,386.329019 239.925844,391.001019 C232.172844,398.099019 229.867844,384.124019 227.814844,378.785019 C224.955844,382.760019 225.326844,389.205019 223.852844,393.841019 C222.952844,396.673019 220.211844,401.081019 220.302844,403.871019 C220.457844,408.642019 224.788844,410.062019 228.691844,412.728019 C235.952844,417.688019 243.403844,422.530019 250.054844,428.307019 C252.829844,430.717019 255.382844,433.155019 257.407844,436.255019 C259.175844,438.962019 259.707844,445.064019 261.661844,446.948019 C264.217844,449.410019 273.665844,447.694019 278.654844,448.230019 C286.985844,449.126019 295.428844,452.089019 303.516844,454.218019 C317.828844,457.984019 332.548844,463.407019 347.537844,465.419019 C362.257844,467.395019 376.070844,466.414019 390.741844,463.782019 C398.755844,462.344019 407.362844,460.626019 414.675844,456.772019 C423.098844,452.334019 430.567844,445.234019 438.435844,439.872019 C441.956844,437.472019 445.558844,435.203019 449.159844,432.928019 C453.971844,429.888019 452.713844,430.546019 453.026844,425.716019 C453.389844,420.125019 455.723844,409.449019 451.989844,404.473019 C450.429844,402.396019 445.644844,400.877019 443.391844,399.366019 C440.116844,397.167019 437.179844,394.613019 433.669844,392.844019 C429.837844,390.913019 429.724844,392.442019 427.946844,387.705019 C426.330844,383.403019 425.264844,378.897019 423.781844,374.550019 C416.995844,354.667019 415.242844,334.474019 412.430844,313.713019 C411.123844,304.070019 407.918844,290.948019 411.548844,281.554019 C416.596844,268.489019 420.820844,286.761019 421.885844,291.444019 C426.704844,283.190019 429.473844,274.010019 434.486844,265.861019 C437.409844,261.110019 438.839844,258.682019 440.486844,253.476019 C441.153844,251.368019 441.420844,249.617019 442.830844,247.866019 C445.813844,244.162019 446.254844,246.273019 449.355844,246.182019 C459.112844,245.896019 468.702844,246.147019 478.468844,246.599019 C483.865844,246.849019 489.263844,246.981019 494.698844,246.961019 C497.346844,246.951019 500.026844,246.822019 502.672844,246.974019 C504.098844,246.959019 505.517844,247.065019 506.929844,247.293019 C509.843844,248.653019 510.955844,247.481019 510.266844,243.776019 C512.803844,238.469019 512.634844,230.001019 513.532844,224.211019 C514.436844,218.383019 515.274844,212.545019 516.030844,206.695019 C516.433844,203.568019 519.823844,191.769019 518.024844,189.200019 C516.241844,186.653019 506.950844,187.224019 504.201844,186.767019 C485.925844,183.729019 468.925844,176.198019 451.831844,170.028019 C443.415844,166.991019 435.427844,162.890019 427.355844,159.164019 C423.153844,157.224019 419.182844,153.229019 414.753844,151.985019 C409.164844,150.415019 401.744844,152.925019 396.173844,153.870019 C385.559844,155.671019 375.320844,157.248019 364.550844,157.834019 C360.745844,158.041019 353.507844,159.108019 350.074844,156.493019 C343.178844,151.241019 351.030844,148.170019 355.537844,147.507019 C375.474844,144.575019 395.350844,142.890019 415.439844,141.666019 C416.381844,141.609019 419.831844,140.908019 420.979844,141.270019 C423.595844,142.096019 422.540844,143.054019 424.108844,143.906019 C427.012844,145.484019 430.326844,146.646019 434.011844,147.625019 C444.532844,150.419019 455.126844,155.107019 465.682844,158.791019 C484.676844,165.419019 507.369844,175.987019 526.365844,174.129019 C531.053844,173.671019 534.908844,173.085019 539.809844,173.560019 C545.549844,174.117019 548.899844,177.061019 553.309844,177.917019 C559.217844,179.063019 567.668844,178.202019 573.887844,178.422019 C579.817844,178.632019 585.751844,178.907019 591.684844,178.907019 C586.474844,168.431019 583.301844,158.595019 580.373844,147.344019 C578.776844,141.208019 576.373844,135.635019 577.414844,129.173019 C577.906844,126.123019 579.125844,123.257019 580.454844,120.502019 C582.460844,116.343019 583.030844,117.213019 583.742844,112.607019 C584.722844,106.268019 583.317844,99.5840191 584.087844,93.2260191 C584.877844,86.7010191 589.808844,80.8850191 590.357844,74.6470191 C590.650844,71.3280191 588.793844,68.6190191 589.349844,65.0390191 C589.846844,61.8370191 591.742844,58.4800191 593.445844,55.7840191 C597.411844,49.5020191 602.241844,45.9400191 608.943844,43.3810191 C614.330844,41.3240191 621.206844,39.4370191 626.650844,42.7680191 C632.204844,46.1660191 631.803844,53.0050191 634.464844,57.9950191 C640.186844,68.7250191 653.388844,78.3140191 663.912844,83.7940191 C673.580844,88.8280191 683.995844,92.0080191 694.361844,95.2910191 C700.670844,97.2890191 707.157844,98.7140191 713.357844,100.997019 C717.820844,102.641019 725.098844,106.628019 729.643844,104.206019 C733.604844,102.095019 738.224844,95.6530191 742.144844,92.6620191 C746.731844,89.1630191 752.848844,85.7480191 758.623844,88.7960191 C764.398844,91.8430191 763.924844,103.075019 768.416844,105.187019 C769.981844,105.923019 774.629844,103.767019 776.763844,104.107019 C780.209844,104.655019 782.582844,106.788019 784.648844,109.414019 C792.364844,119.227019 794.754844,134.792019 795.091844,146.889019 C795.260844,152.931019 795.113844,160.446019 791.423844,165.576019 C787.119844,171.560019 778.973844,171.708019 773.448844,175.919019 C769.029844,179.287019 765.898844,184.793019 761.413844,188.382019 C758.650844,190.594019 757.584844,188.895019 756.440844,192.342019 C755.695844,194.584019 757.200844,198.958019 757.644844,201.127019 C760.391844,214.509019 765.536844,226.852019 770.418844,239.600019 C772.718844,245.607019 774.669844,251.615019 775.719844,257.981019 C776.407844,262.158019 775.613844,265.810019 775.946844,269.829019 C776.182844,272.690019 777.399844,275.161019 777.131844,278.095019 C776.564844,284.308019 773.190844,289.796019 771.044844,295.261019 C768.598844,301.491019 771.958844,312.280019 774.422844,318.723019 C780.326844,334.159019 788.629844,349.754019 796.006844,364.585019 C803.252844,379.154019 808.642844,394.669019 817.084844,408.665019 C825.283844,422.257019 834.930844,435.566019 844.259844,448.421019 C849.448844,455.572019 854.954844,462.374019 859.657844,469.874019 C860.685844,471.514019 867.703844,485.115019 869.523844,484.644019 C867.291844,460.909019 869.548844,436.224019 870.546844,412.505019 C871.794844,382.814019 868.015844,355.919019 859.660844,327.577019 C857.707844,320.951019 855.966844,314.171019 854.592844,307.400019 C853.630844,302.659019 850.914844,298.763019 857.581844,300.836019 C868.620844,304.267019 878.336844,325.107019 883.949844,334.178019 C896.518844,354.495019 907.017844,381.589019 908.426844,405.419019 C909.809844,428.809019 908.616844,451.189019 905.693844,474.234019 C904.250844,485.603019 901.920844,498.277019 898.358844,509.150019 C896.526844,514.743019 894.326844,520.536019 891.886844,525.895019 C890.856844,528.157019 888.595844,530.713019 888.204844,533.198019 C887.586844,537.141019 890.475844,542.461019 891.198844,546.355019 C893.560844,559.096019 894.103844,572.300019 893.298844,585.230019 C892.867844,592.165019 891.909844,598.367019 889.646844,604.889019 C886.763844,613.198019 888.103844,619.545019 889.303844,628.110019 C890.587844,637.276019 891.817844,658.111019 882.286844,663.319019 C881.613844,663.250019 880.938844,663.180019 880.264844,663.111019 C878.561844,661.148019 877.049844,661.264019 875.729844,663.461019 C873.264844,664.265019 870.856844,666.336019 868.260844,667.227019 C862.235844,669.296019 855.734844,669.422019 849.450844,670.331019 C837.151844,672.112019 824.893844,675.253019 812.809844,675.633019 C798.501844,676.083019 783.575844,675.522019 769.585844,673.014019 C766.693844,672.495019 763.313844,671.124019 760.421844,670.861019 C756.496844,670.504019 753.741844,673.114019 749.689844,672.500019 C743.409844,671.549019 739.441844,664.903019 739.030844,659.457019 C737.722844,642.103019 747.350844,634.145019 763.084844,631.063019 C752.917844,616.508019 741.212844,604.567019 738.507844,585.874019 C735.844844,567.482019 741.619844,546.196019 752.108844,531.461019 C762.176844,517.316019 779.356844,507.859019 797.073844,511.448019 C805.296844,513.114019 844.089844,524.567019 836.590844,537.559019 C834.927844,531.616019 824.700844,532.766019 819.759844,531.908019 C811.561844,530.484019 803.365844,528.337019 795.048844,528.779019 C778.690844,529.649019 762.880844,539.325019 754.959844,553.972019 C745.827844,570.859019 749.994844,587.711019 760.988844,602.129019 C771.040844,615.312019 781.403844,629.162019 794.921844,638.681019 C792.308844,642.836019 793.253844,644.140019 788.062844,643.396019 C784.498844,642.885019 781.164844,640.106019 777.562844,639.414019 C770.093844,637.980019 758.337844,644.100019 753.722844,650.220019 C750.995844,653.836019 751.096844,655.623019 756.124844,657.850019 C759.834844,659.493019 765.676844,658.644019 769.661844,659.000019 C779.574844,659.885019 789.678844,660.181019 799.623844,660.146019 C816.838844,660.083019 832.848844,657.321019 849.885844,655.533019 C857.436844,654.740019 865.333844,655.654019 872.721844,652.875019 C882.728844,649.112019 880.276844,638.059019 878.979844,629.105019 C877.694844,620.236019 879.002844,613.357019 880.396844,604.574019 C881.000844,600.759019 882.128844,596.355019 881.329844,592.515019 C880.381844,587.953019 878.680844,585.934019 878.897844,580.846019 C879.669844,562.739019 877.397844,543.670019 872.598844,526.194019 C862.175844,488.237019 836.723844,458.280019 815.496844,426.019019 C809.501844,416.907019 803.198844,408.273019 798.425844,398.405019 C793.904844,389.056019 790.790844,379.168019 786.300844,369.793019 C776.404844,349.130019 767.017844,327.845019 761.234844,305.619019 C754.680844,308.198019 747.619844,311.992019 740.593844,312.902019 C732.633844,313.933019 724.124844,307.505019 719.104844,301.844019 C707.655844,288.936019 705.044844,271.430019 705.900844,254.796019 C706.153844,249.872019 706.459844,244.909019 707.341844,240.051019 C707.914844,236.898019 711.623844,229.266019 710.778844,226.328019 C709.873844,223.184019 704.603844,220.451019 702.985844,217.337019 C700.923844,213.373019 700.686844,208.271019 700.796844,203.898019 C700.898844,199.906019 703.102844,180.360019 709.431844,188.349019 C713.056844,192.926019 707.757844,210.182019 711.436844,212.531019 C714.747844,214.644019 719.307844,212.062019 722.739844,216.893019 C726.447844,222.114019 724.461844,228.549019 723.161844,234.109019 C720.474844,245.607019 717.951844,258.023019 718.020844,269.832019 C718.081844,280.585019 720.003844,294.179019 731.753844,298.528019 C737.689844,300.725019 742.195844,299.214019 746.622844,295.122019 C747.637844,293.954019 748.672844,292.805019 749.727844,291.674019 C750.696844,290.009019 752.182844,289.802019 754.186844,291.054019 C755.669844,289.876019 757.867844,281.736019 758.609844,279.917019 C767.709844,257.617019 753.362844,232.013019 748.102844,210.133019 C744.885844,196.750019 742.080844,183.326019 748.592844,170.410019 C749.646844,168.319019 752.550844,166.502019 750.808844,163.502019 C750.349844,162.713019 745.965844,162.343019 744.927844,161.426019 C741.545844,158.441019 742.250844,152.876019 742.250844,148.891019 C734.429844,151.303019 732.175844,145.218019 733.192844,137.760019 C727.358844,138.685019 723.306844,140.469019 721.146844,133.719019 C719.231844,127.733019 722.123844,121.629019 724.042844,116.051019 C697.049844,113.158019 667.896844,109.451019 646.384844,90.8250191 C641.080844,86.2320191 636.669844,80.4510191 632.993844,74.4620191 C632.329844,73.3790191 629.201844,65.7550191 628.164844,65.3570191 C625.083844,64.1740191 622.498844,70.2020191 619.760844,71.6950191 C617.326844,73.0210191 613.866844,73.7520191 611.162844,74.5600191 C608.617844,75.3210191 599.646844,75.4730191 598.055844,76.7940191 C594.077844,80.0980191 594.391844,99.1990191 594.360844,103.632019 C594.252844,118.900019 597.660844,134.115019 603.963844,148.016019 C609.899844,161.108019 618.982844,179.112019 630.855844,187.680019 C633.855844,189.846019 636.556844,190.969019 640.358844,190.790019 C643.074844,190.663019 645.767844,188.761019 648.595844,189.750019 C655.752844,192.254019 653.192844,197.229019 647.690844,199.581019 C631.964844,206.307019 618.710844,191.521019 609.616844,181.191019 C606.953844,193.447019 619.301844,207.950019 625.835844,217.950019 C629.998844,224.323019 634.114844,230.702019 638.075844,237.205019 C640.951844,241.928019 646.604844,250.650019 636.563844,247.002019 C631.719844,272.424019 618.425844,294.657019 611.636844,319.362019 C604.666844,344.722019 598.591844,373.679019 598.591844,400.089019 C603.898844,396.395019 606.574844,379.560019 613.712844,392.445019 C614.484844,393.839019 614.242844,396.146019 615.260844,397.364019 C616.668844,399.049019 618.362844,398.581019 620.519844,399.782019 C623.939844,401.685019 626.145844,405.479019 623.088844,408.769019 C627.026844,407.853019 631.150844,408.320019 631.999844,412.977019 C632.475844,415.591019 628.647844,427.700019 625.791844,428.689019 C617.084844,431.703019 607.430844,414.321019 605.072844,408.792019 C599.633844,414.251019 593.366844,418.450019 588.353844,409.620019 C584.617844,403.040019 586.785844,393.085019 587.312844,385.922019 C588.374844,371.492019 589.760844,357.417019 591.842844,343.126019 C595.746844,316.328019 605.655844,292.495019 617.826844,268.374019 C621.177844,261.735019 624.890844,254.939019 627.883844,248.146019 C632.397844,237.897019 625.334844,240.315019 618.430844,241.803019 C604.904844,244.720019 590.741844,246.983019 577.074844,248.016019 C569.940844,248.555019 560.804844,248.876019 553.949844,250.938019 C549.129844,252.388019 549.956844,251.387019 548.020844,256.549019 C547.154844,258.859019 546.177844,261.316019 544.650844,263.294019 C536.862844,273.386019 516.690844,271.697019 505.550844,270.945019 C506.225844,266.689019 506.892844,262.431019 507.592844,258.179019 C499.016844,260.194019 488.830844,261.597019 479.998844,261.494019 C475.243844,261.440019 470.186844,260.715019 465.443844,260.320019 C461.946844,260.029019 455.316844,257.550019 452.025844,258.514019 C448.209844,259.633019 442.438844,273.430019 440.256844,277.879019 C436.159844,286.234019 428.838844,295.516019 426.253844,304.313019 C423.961844,312.112019 428.638844,325.568019 430.107844,333.331019 C432.230844,344.553019 434.165844,355.796019 437.723844,366.677019 C440.303844,374.566019 443.276844,385.441019 451.197844,389.376019 C459.089844,393.298019 464.761844,395.504019 473.303844,394.706019 C488.345844,393.300019 504.348844,395.609019 519.198844,398.533019 C534.490844,401.544019 548.493844,402.900019 563.014844,408.266019 C595.949844,420.439019 616.922844,457.937019 604.504844,492.289019 C597.362844,512.047019 585.596844,526.731019 568.336844,538.954019 C559.541844,545.183019 549.150844,550.236019 539.508844,555.036019 C535.081844,557.240019 530.729844,559.914019 526.217844,561.872019 C522.920844,563.303019 517.253844,566.597019 513.671844,566.958019 C517.647844,568.849019 521.165844,567.078019 525.302844,566.491019 C531.155844,565.658019 537.132844,565.480019 543.006844,564.754019 C552.150844,563.622019 561.158844,562.768019 570.305844,561.633019 C578.112844,560.664019 586.921844,560.320019 594.680844,561.436019 C598.428844,561.975019 604.069844,563.039019 607.407844,564.845019 C610.032844,566.265019 612.439844,569.537019 615.262844,571.158019 C618.367844,558.407019 616.915844,542.689019 617.060844,529.586019 C617.179844,518.890019 617.656844,508.430019 618.663844,497.784019 C619.790844,485.877019 612.506844,472.336019 609.816844,460.674019 C607.299844,449.759019 600.593844,435.926019 603.061844,424.533019 C606.174844,410.172019 614.321844,435.971019 615.441844,439.660019 C618.948844,451.201019 623.019844,462.467019 626.905844,473.872019 C631.528844,487.439019 636.186844,500.585019 642.919844,513.298019 C648.522844,523.877019 654.961844,536.287019 666.476844,541.447019 C665.526844,525.889019 664.471844,511.484019 658.003844,497.140019 C651.870844,483.538019 642.517844,471.442019 638.428844,456.867019 C636.397844,449.624019 636.099844,442.217019 635.998844,434.736019 C635.930844,429.703019 636.161844,422.937019 641.559844,428.364019 C645.840844,432.667019 646.671844,446.393019 648.545844,452.187019 C649.448844,454.975019 650.698844,457.535019 651.695844,460.247019 C652.144844,461.468019 655.167844,467.419019 655.167844,468.217019 C658.284844,477.622019 665.175844,486.643019 670.018844,495.298019"></path><path d="M339.458644,152.426619 C339.755644,156.069619 341.868644,165.511619 339.162644,168.394619 C335.575644,172.219619 333.875644,167.299619 332.324644,163.420619 C329.082644,155.314619 327.471644,139.617619 333.877644,132.862619 C340.565644,125.808619 353.779644,125.618619 360.916644,118.593619 C363.781644,115.771619 363.506644,116.360619 363.256644,111.948619 C363.115644,109.457619 361.504644,106.147619 360.725644,103.908619 C358.700644,98.0906191 356.479644,92.3426191 354.361644,86.5586191 C350.660644,88.2456191 345.334644,93.4496191 341.688644,89.0876191 C338.318644,85.0546191 343.925644,78.4466191 347.830644,77.2676191 C345.791644,72.8106191 336.186644,73.6346191 334.356644,67.0876191 C332.766644,61.3976191 337.334644,63.6586191 338.333644,61.4176191 C339.509644,58.7806191 337.101644,55.2156191 338.340644,52.7856191 C342.641644,44.3486191 347.404644,59.8616191 349.546644,62.6306191 C353.531644,67.7806191 360.473644,68.9056191 361.084644,76.6956191 C361.461644,81.4916191 361.100644,83.7216191 363.076644,88.4316191 C364.895644,92.7676191 367.057644,96.9256191 368.583644,101.387619 C370.880644,108.110619 374.422644,120.345619 369.933644,126.855619 C366.147644,132.346619 356.954644,136.532619 350.976644,138.880619 C347.982644,140.055619 343.831644,140.771619 341.409644,143.060619 C338.248644,146.046619 339.232644,147.881619 339.458644,152.426619"></path><path d="M650.057744,355.723519 C649.375744,354.649519 648.692744,353.575519 648.010744,352.500519 C643.279744,357.553519 638.040744,359.630519 633.259744,353.211519 C628.335744,346.603519 630.184744,336.694519 632.099744,329.477519 C633.084744,325.763519 638.067744,311.120519 641.259744,322.275519 C641.963744,324.737519 639.608744,330.219519 639.182744,332.629519 C638.344744,337.357519 637.684744,341.892519 638.274744,346.707519 C643.820744,341.743519 646.536744,329.158519 652.165744,342.226519 C654.206744,346.965519 654.430744,354.769519 659.864744,347.571519 C662.765744,343.727519 662.951744,336.631519 664.309744,332.102519 C673.572744,334.317519 671.884744,348.015519 668.792744,354.689519 C663.868744,365.316519 657.169744,361.894519 650.057744,355.723519"></path><path d="M682.490344,117.332819 C685.785344,122.827819 679.552344,132.876819 678.423344,138.518819 C683.942344,137.879819 697.601344,124.566819 701.445344,126.761819 C709.448344,131.329819 692.543344,147.261819 689.295344,149.596819 C663.336344,168.254819 668.016344,114.283819 682.490344,117.332819"></path><path d="M649.938144,178.525719 C659.636144,175.825719 672.714144,193.231719 666.423144,201.851719 C661.910144,208.034719 656.334144,204.498719 654.920144,199.055719 C654.200144,196.279719 654.839144,192.934719 653.896144,189.838719 C652.736144,186.026719 651.181144,182.313719 649.938144,178.525719"></path><path d="M351.646644,103.498419 C359.022644,109.697419 343.951644,124.810419 336.396644,112.976419 C334.318644,109.721419 333.940644,106.750419 337.021644,105.548419 C338.577644,104.942419 342.246644,106.927419 344.442644,106.576419 C346.849644,106.191419 349.464644,104.498419 351.646644,103.498419"></path><path d="M326.303344,78.7103191 C323.441344,75.1403191 315.398344,53.1803191 325.365344,58.0713191 C330.370344,60.5273191 334.506344,79.3003191 326.303344,78.7103191"></path><path d="M655.383444,551.022319 C655.100444,548.251319 654.817444,545.479319 654.534444,542.707319 C658.214444,544.584319 665.598444,546.437319 666.879444,550.638319 C669.285444,558.530319 658.111444,552.217319 655.383444,551.022319"></path><path d="M762.211044,216.758219 C760.019044,213.797219 753.202044,189.098219 759.116044,189.663219 C760.152044,198.623219 760.365044,207.928219 762.211044,216.758219"></path><path d="M670.018744,495.297719 C665.175744,486.643719 658.284744,477.622719 655.167744,468.216719 C662.473744,474.132719 668.181744,486.218719 670.018744,495.297719"></path><path d="M868.638844,475.235219 C868.933844,478.372219 869.228844,481.508219 869.523844,484.644219 C865.135844,485.777219 868.369844,476.270219 868.638844,475.235219"></path><path d="M655.177344,468.231319 C653.100344,465.970319 652.211344,463.190319 651.696344,460.247319 C652.856344,462.907319 654.016344,465.569319 655.177344,468.231319"></path><path d="M680.295544,610.231819 C680.372544,607.440819 680.449544,604.649819 680.526544,601.865819 C680.449544,604.657819 680.372544,607.444819 680.295544,610.231819"></path><path d="M352.176944,157.374819 C354.034944,157.605819 355.893944,157.836819 357.752944,158.067819 C356.285944,158.754819 352.829944,159.667819 352.176944,157.374819"></path><path d="M722.783344,639.524319 C724.717344,639.232319 726.657344,638.567319 728.557344,639.637319 C726.629344,639.600319 724.706344,639.562319 722.783344,639.524319"></path><path d="M667.530944,576.473019 C667.556944,578.540019 667.582944,580.607019 667.605944,582.667019 C667.578944,580.598019 667.554944,578.536019 667.530944,576.473019"></path><path d="M707.485544,544.308019 C707.363544,546.513019 707.241544,548.717019 707.120544,550.917019 C707.242544,548.711019 707.363544,546.510019 707.485544,544.308019"></path><path d="M681.179344,552.935419 C681.074344,551.017419 680.969344,549.099419 680.865344,547.185419 C680.970344,549.104419 681.075344,551.020419 681.179344,552.935419"></path><path d="M738.638844,569.856819 C738.534844,571.564819 738.431844,573.273819 738.327844,574.977819 C738.431844,573.267819 738.534844,571.561819 738.638844,569.856819"></path><path d="M391.459144,613.014019 C389.578144,613.962019 387.698144,614.056019 385.823144,613.002019 C387.703144,613.006019 389.581144,613.010019 391.459144,613.014019"></path><path d="M583.986944,96.8070191 C584.012944,98.4960191 584.039944,100.185019 584.065944,101.867019 C584.037944,100.176019 584.011944,98.4920191 583.986944,96.8070191"></path><path d="M397.193944,142.890019 C395.266944,143.036019 393.339944,143.181019 391.414944,143.327019 C393.340944,143.181019 395.267944,143.036019 397.193944,142.890019"></path><path d="M795.106544,149.390019 C795.096544,147.723019 795.086544,146.056019 795.078544,144.392019 C795.962544,146.056019 795.979544,147.721019 795.106544,149.390019"></path><path d="M339.458644,152.426619 C339.370644,150.655619 339.282644,148.885619 339.195644,147.117619 C339.284644,148.889619 339.371644,150.657619 339.458644,152.426619"></path><path d="M812.809744,675.633219 C814.110744,675.642219 815.412744,675.651219 816.701744,675.660219 C815.395744,675.651219 814.102744,675.642219 812.809744,675.633219"></path><path d="M300.730644,0.298219109 C299.019644,0.444219109 297.308644,0.590219109 295.597644,0.735219109 C297.308644,0.590219109 299.019644,0.444219109 300.730644,0.298219109"></path><path d="M469.488444,653.599519 C470.591444,653.598519 471.694444,653.597519 472.784444,653.598519 C471.677444,653.599519 470.583444,653.599519 469.488444,653.599519"></path><path d="M640.358544,190.790419 C638.685544,190.623419 637.012544,190.455419 635.340544,190.287419 C637.013544,190.455419 638.686544,190.623419 640.358544,190.790419"></path><path d="M716.404444,650.680019 C716.507444,649.301019 716.609444,647.922019 716.712444,646.549019 C716.609444,647.930019 716.507444,649.305019 716.404444,650.680019"></path><path d="M535.307744,173.134119 C533.660744,173.119119 532.013744,173.105119 530.367744,173.091119 C532.022744,172.133119 533.666744,172.407119 535.307744,173.134119"></path><path d="M315.544544,0.759119109 C313.884544,0.706119109 312.129544,1.57111911 310.599544,0.255119109 C312.248544,0.423119109 313.896544,0.591119109 315.544544,0.759119109"></path><path d="M270.707644,163.511119 C269.116644,163.657119 267.524644,163.803119 265.934644,163.948119 C267.526644,163.802119 269.116644,163.657119 270.707644,163.511119"></path><path d="M370.948844,611.584819 C369.272844,611.759819 367.595844,611.934819 365.921844,612.109819 C367.597844,611.934819 369.273844,611.759819 370.948844,611.584819"></path><path d="M412.670544,141.880719 C411.036544,141.915719 409.401544,141.950719 407.768544,141.985719 C409.389544,141.336719 411.011544,140.724719 412.670544,141.880719"></path><path d="M680.235044,588.976919 C680.226044,587.559919 680.216044,586.142919 680.207044,584.728919 C680.216044,586.146919 680.226044,587.561919 680.235044,588.976919"></path><path d="M869.239444,468.817219 C869.063444,470.530219 868.886444,472.242219 868.711444,473.955219 C868.886444,472.243219 869.063444,470.530219 869.239444,468.817219"></path><path d="M657.155944,579.217619 C657.033944,577.759619 656.912944,576.301619 656.791944,574.847619 C656.912944,576.306619 657.034944,577.762619 657.155944,579.217619"></path><path d="M107.362944,565.823119 C107.063944,567.277119 106.003944,567.563119 104.182944,566.681119 L107.362944,565.823119 Z"></path><path d="M718.172044,566.469619 C718.074044,565.202619 717.978044,563.935619 717.882044,562.671619 C717.980044,563.939619 718.075044,565.204619 718.172044,566.469619"></path><path d="M375.709144,144.932919 C374.334144,145.119919 372.958144,145.305919 371.583144,145.492919 C372.959144,145.305919 374.334144,145.119919 375.709144,144.932919"></path><path d="M666.703244,555.670819 C666.701244,556.914819 666.699244,558.158819 666.696244,559.398819 C666.699244,558.152819 666.701244,556.911819 666.703244,555.670819"></path><path d="M583.739844,109.082819 C583.740844,110.259819 583.741844,111.435819 583.742844,112.606819 C583.741844,111.428819 583.740844,110.255819 583.739844,109.082819"></path><path d="M82.0753444,384.750319 C81.9393444,385.990319 81.8033444,387.231319 81.6683444,388.466319 C81.8043444,387.224319 81.9393444,385.987319 82.0753444,384.750319"></path><path d="M906.009944,470.001819 C905.936944,468.833819 905.863944,467.665819 905.790944,466.503819 C905.863944,467.673819 905.936944,468.837819 906.009944,470.001819"></path><path d="M195.641244,624.153719 C194.220244,624.130719 192.799244,624.108719 191.378244,624.085719 C192.816244,623.100719 194.233244,623.311719 195.641244,624.153719"></path><path d="M361.119744,78.4495191 C361.096744,77.2785191 361.073744,76.1075191 361.050744,74.9405191 C361.780744,76.0995191 362.014744,77.2635191 361.119744,78.4495191"></path><path d="M247.660344,63.5975191 C247.759344,62.4425191 247.858344,61.2875191 247.956344,60.1395191 C247.857344,61.2965191 247.759344,62.4465191 247.660344,63.5975191"></path><path d="M717.335144,467.914419 C717.286144,466.641419 717.236144,465.368419 717.189144,464.097419 C717.238144,465.371419 717.286144,466.643419 717.335144,467.914419"></path><path d="M708.187644,533.679119 C708.152644,534.880119 708.117644,536.080119 708.080644,537.274119 C708.114644,536.071119 708.151644,534.875119 708.187644,533.679119"></path><path d="M544.629044,649.463219 C545.520044,649.461219 546.410044,649.459219 547.290044,649.460219 C546.397044,649.463219 545.513044,649.463219 544.629044,649.463219"></path><path d="M111.335144,650.071619 C112.224144,650.095619 113.112144,650.119619 113.990144,650.144619 C113.098144,650.120619 112.216144,650.096619 111.335144,650.071619"></path><path d="M648.813644,544.702019 C640.146644,538.005019 632.590644,527.990019 630.831644,517.268019 C634.558644,521.479019 637.691644,526.178019 641.419644,530.386019 C642.901644,532.057019 644.718644,533.497019 646.140644,535.199019 C649.384644,539.082019 648.813644,539.254019 648.813644,544.702019"></path><path d="M618.366344,499.433019 C614.206344,489.851019 610.595344,478.228019 611.320344,467.656019 C614.190344,477.254019 620.848344,489.311019 618.366344,499.433019"></path><path d="M632.322444,555.779219 C632.252444,558.561219 632.181444,561.343219 632.114444,564.118219 C632.186444,561.333219 632.254444,558.556219 632.322444,555.779219"></path><path d="M82.2242444,631.392919 C85.0672444,631.561919 87.9112444,631.730919 90.7542444,631.899919 C87.8982444,631.937919 85.0042444,632.629919 82.2242444,631.392919"></path><path d="M632.307744,546.589219 C632.317744,548.961219 632.327744,551.334219 632.337744,553.700219 C632.327744,551.326219 632.317744,548.958219 632.307744,546.589219"></path><path d="M515.492844,271.543319 C513.891844,271.460319 512.290844,271.376319 510.702844,271.293319 C512.307844,271.376319 513.900844,271.460319 515.492844,271.543319"></path><path d="M541.529944,212.539919 C541.523944,210.614919 541.517944,208.689919 541.511944,206.768919 C541.516944,208.694919 541.523944,210.617919 541.529944,212.539919"></path><path d="M507.156344,260.829919 C507.083344,259.475919 506.362344,258.793919 504.992344,258.784919 C507.742344,257.298919 508.464344,257.980919 507.156344,260.829919"></path><path d="M588.706644,367.923219 C588.813644,366.210219 588.921644,364.497219 589.028644,362.788219 C588.920644,364.502219 588.813644,366.213219 588.706644,367.923219"></path><path d="M122.590044,632.603419 C124.508044,632.470419 126.426044,632.336419 128.344044,632.203419 C126.425044,632.336419 124.508044,632.470419 122.590044,632.603419"></path><path d="M525.426444,400.038919 L531.133444,399.998919 C529.230444,400.012919 527.328444,400.025919 525.426444,400.038919"></path><path d="M579.902044,191.294819 C578.575044,191.305819 577.248044,191.316819 575.933044,191.326819 C577.265044,191.315819 578.583044,191.305819 579.902044,191.294819"></path><path d="M856.568544,654.814319 C858.232544,654.806319 859.895544,654.799319 861.559544,654.792319 C859.900544,655.839319 858.236544,655.812319 856.568544,654.814319"></path><path d="M158.048044,424.514019 C156.920044,424.546019 155.792044,424.578019 154.675044,424.610019 C155.807044,424.578019 156.927044,424.546019 158.048044,424.514019"></path><path d="M757.210144,175.284519 C758.278144,176.314519 756.874144,178.682519 755.602144,177.866519 C756.138144,177.005519 756.674144,176.145519 757.210144,175.284519"></path><path d="M235.687144,528.781119 C235.734144,527.324119 235.782144,525.866119 235.829144,524.412119 C235.781144,525.870119 235.734144,527.326119 235.687144,528.781119"></path><path d="M617.061144,529.586319 C617.138144,528.066319 617.215144,526.546319 617.290144,525.028319 C617.213144,526.549319 617.137144,528.067319 617.061144,529.586319"></path><path d="M883.210144,371.167319 C883.273144,372.689319 883.337144,374.211319 883.399144,375.728319 C883.336144,374.205319 883.272144,372.686319 883.210144,371.167319"></path><path d="M369.274544,543.534519 C370.978544,543.680519 372.681544,543.825519 374.385544,543.970519 C372.681544,543.825519 370.977544,543.680519 369.274544,543.534519"></path><path d="M602.938144,426.798219 C603.021144,425.286219 603.105144,423.774219 603.188144,422.265219 C603.104144,423.778219 603.021144,425.288219 602.938144,426.798219"></path><path d="M306.895644,455.559419 C308.593644,455.716419 310.291644,455.872419 311.989644,456.028419 C310.291644,455.871419 308.593644,455.715419 306.895644,455.559419"></path><path d="M457.151544,587.766519 C456.057544,587.767519 454.964544,587.767519 453.882544,587.767519 C454.980544,587.766519 456.066544,587.766519 457.151544,587.766519"></path><path d="M553.605644,218.226419 C553.540644,219.639419 553.475644,221.051419 553.412644,222.457419 C553.478644,221.043419 553.542644,219.634419 553.605644,218.226419"></path><path d="M577.832144,560.950519 C579.513144,559.756519 581.148144,560.544519 582.789144,561.062519 C581.136144,561.025519 579.484144,560.987519 577.832144,560.950519"></path><path d="M381.321444,156.664419 C380.215444,156.619419 379.110444,156.573419 378.016444,156.523419 C379.126444,156.568419 380.223444,156.616419 381.321444,156.664419"></path><path d="M649.282344,586.933419 C649.182344,585.526419 649.083344,584.120419 648.984344,582.718419 C649.083344,584.127419 649.182344,585.530419 649.282344,586.933419"></path><path d="M558.777944,428.141519 C557.866944,428.147519 556.955944,428.153519 556.055944,428.161519 C556.970944,428.156519 557.874944,428.148519 558.777944,428.141519"></path><path d="M597.208144,479.236719 C597.209144,478.063719 597.210144,476.889719 597.211144,475.722719 C597.210144,476.897719 597.209144,478.067719 597.208144,479.236719"></path><path d="M538.916644,565.285019 C540.281644,565.108019 541.645644,564.931019 543.008644,564.754019 C541.643644,564.931019 540.279644,565.108019 538.916644,565.285019"></path><path d="M479.924944,394.583819 C481.402944,394.574819 482.880944,394.564819 484.358944,394.555819 C482.885944,395.423819 481.406944,395.260819 479.924944,394.583819"></path><path d="M556.489444,250.961819 C555.635444,250.953819 554.781444,250.945819 553.938444,250.938819 C554.796444,250.945819 555.642444,250.953819 556.489444,250.961819"></path><path d="M304.088044,468.610719 C303.207044,468.598719 302.327044,468.586719 301.457044,468.573719 C302.342044,468.586719 303.215044,468.598719 304.088044,468.610719"></path><path d="M133.928344,410.850919 C135.403344,410.865919 136.878344,410.881919 138.353344,410.896919 C136.869344,411.729919 135.394344,411.751919 133.928344,410.850919"></path><path d="M883.352644,413.290919 C883.258644,414.415919 883.165644,415.541919 883.076644,416.660919 C883.169644,415.532919 883.260644,414.411919 883.352644,413.290919"></path><path d="M507.841944,594.158119 C507.966944,592.929119 508.092944,591.700119 508.217944,590.475119 C508.091944,591.706119 507.966944,592.932119 507.841944,594.158119"></path><path d="M269.341444,447.739119 C270.831444,447.760119 272.322444,447.782119 273.813444,447.803119 C272.307444,448.840119 270.825444,448.187119 269.341444,447.739119"></path><path d="M609.142244,232.002319 C610.592244,231.838319 612.041244,231.674319 613.491244,231.510319 C612.041244,231.674319 610.592244,231.838319 609.142244,232.002319"></path><path d="M487.999144,625.850019 C488.130144,627.141019 488.261144,628.432019 488.391144,629.719019 C488.260144,628.427019 488.129144,627.139019 487.999144,625.850019"></path><path d="M617.085144,540.943719 C617.083144,539.738719 617.080144,538.534719 617.079144,537.335719 C617.081144,538.542719 617.083144,539.742719 617.085144,540.943719"></path><path d="M91.4596444,632.071119 C92.8626444,632.256119 94.2656444,632.440119 95.6676444,632.625119 C94.2646444,632.440119 92.8616444,632.256119 91.4596444,632.071119"></path><path d="M117.780444,632.638519 C119.165444,631.506519 120.571444,631.853519 121.982444,632.578519 C120.581444,632.598519 119.180444,632.618519 117.780444,632.638519"></path><path d="M370.868344,466.721019 C372.240344,466.553019 373.612344,466.385019 374.982344,466.217019 C373.610344,466.385019 372.239344,466.553019 370.868344,466.721019"></path><path d="M523.313144,639.015519 C524.711144,638.828519 526.109144,638.641519 527.507144,638.454519 C526.108144,638.641519 524.711144,638.828519 523.313144,639.015519"></path><path d="M474.415144,641.187419 C475.841144,641.004419 477.266144,640.821419 478.692144,640.638419 C477.266144,640.821419 475.841144,641.004419 474.415144,641.187419"></path><path d="M552.911244,226.766519 C552.848244,227.917519 552.785244,229.069519 552.724244,230.213519 C552.787244,229.059519 552.849244,227.912519 552.911244,226.766519"></path><path d="M217.107544,501.236219 C217.234544,500.014219 217.361544,498.791219 217.488544,497.573219 C217.360544,498.797219 217.234544,500.017219 217.107544,501.236219"></path><path d="M541.902044,196.993019 C541.939044,195.794019 541.976044,194.595019 542.014044,193.402019 C541.978044,194.603019 541.940044,195.798019 541.902044,196.993019"></path><path d="M269.593844,487.642919 C269.719844,488.866919 269.845844,490.090919 269.970844,491.309919 C269.844844,490.083919 269.718844,488.863919 269.593844,487.642919"></path><path d="M274.318544,447.751319 C275.764544,447.911319 277.210544,448.070319 278.655544,448.230319 C277.209544,448.070319 275.763544,447.911319 274.318544,447.751319"></path><path d="M504.509944,626.178619 C505.333944,628.595619 505.030944,634.218619 502.692944,635.921619 C497.841944,639.457619 497.342944,633.000619 496.379944,629.512619 C493.708944,619.837619 489.407944,609.033619 488.311944,599.086619 C487.975944,596.035619 487.793944,590.320619 491.829944,589.291619 C495.725944,588.299619 497.698944,594.471619 499.042944,597.641619 C502.769944,606.437619 504.931944,616.641619 504.509944,626.178619"></path><path d="M504.509944,626.178619 C504.564944,624.928619 504.620944,623.679619 504.675944,622.435619 C504.619944,623.686619 504.564944,624.932619 504.509944,626.178619"></path></g></g></g></svg>