<svg xmlns="http://www.w3.org/2000/svg" viewBox="0 0 1024 768" version="1.1"><g stroke="none" stroke-width="1" fill="#FFFFFF00" fill-rule="evenodd"><g transform="translate(1.000000, -20.000000)"><rect x="0" y="0" width="1024" height="768"></rect><path d="M795.0031,112.6652 C795.3651,115.7922 799.2471,113.4042 799.6101,115.0992 C799.8391,116.1642 795.8431,118.8072 794.9811,119.5352 C797.7651,121.2132 801.3191,117.3472 803.4061,115.7272 C804.4811,116.8942 804.8451,117.5072 803.8571,118.8422 C802.1151,121.1992 802.1941,118.0762 800.1221,119.7162 C800.9851,121.1662 801.7431,120.3352 802.8391,119.9452 C802.3621,122.7352 803.4311,120.9692 804.2681,122.7362 C804.9481,124.1732 804.8651,125.2352 805.0681,126.8402 C804.0841,129.1002 803.1011,131.3612 802.1171,133.6212 C800.9341,136.3402 801.2861,137.2142 798.3921,136.3052 C798.7181,135.7412 800.8831,132.9832 800.7071,132.3052 C800.5071,131.5302 797.5461,130.4582 796.7641,129.8072 C795.3881,128.6622 795.4031,127.6802 794.5251,126.4502 C794.8741,125.3062 794.6031,124.7712 793.7101,124.8482 L792.7241,127.4992 L792.7241,127.4992 C792.8061,129.3802 794.3951,129.2042 795.3321,131.0012 C796.7681,133.7512 795.9641,132.1282 794.7911,134.3412 C793.6391,136.5152 793.5101,139.2902 791.6161,140.3832 C792.6341,140.8302 793.6511,141.2772 794.6691,141.7232 C792.2931,144.3312 797.2351,143.0612 798.0521,142.8082 C797.2161,144.5832 796.3801,146.3582 795.5451,148.1332 C793.0401,146.7312 791.8041,144.0732 790.1361,141.8782 L786.3261,148.9602 L786.3261,148.9602 C787.5901,148.8432 788.8541,148.7272 790.1161,148.6102 C789.9401,148.9432 788.3221,151.2272 788.4601,151.7352 C789.0251,153.8062 793.3251,152.6382 792.8501,155.3472 C792.7881,155.6942 788.9341,159.5812 788.2731,159.9562 C790.2101,160.8262 791.0861,160.4652 790.3921,162.7502 L787.6941,161.1192 L787.6941,161.1192 C786.9281,162.4942 786.0411,163.8372 785.5531,165.3432 C785.6461,166.3282 785.4711,167.2612 785.0251,168.1432 C784.4951,168.9322 783.8981,169.6682 783.2341,170.3502 C782.7081,171.7352 782.5391,179.2952 783.1731,180.5282 C784.5871,178.7012 787.7481,181.9262 782.4131,181.9262 C780.0771,181.9262 780.2341,181.4402 779.3411,183.4922 C778.6391,185.1072 778.2591,186.5162 780.2501,186.6712 C778.7531,189.6202 779.0731,191.8922 778.9381,195.0352 C778.8281,197.5812 778.1141,200.1122 777.5851,202.6102 C778.0591,201.9292 778.5331,201.2492 779.0071,200.5682 C780.2841,203.2922 779.3111,205.5862 778.7041,208.5012 C777.3781,206.7502 777.2161,209.8742 776.0821,209.5512 C773.7691,208.8912 775.5011,208.4052 774.5611,206.8882 C773.7461,205.5742 773.8311,205.1972 772.3251,204.3942 C770.3271,203.3292 766.8251,203.2892 764.5651,202.9132 C760.7651,202.2792 756.9601,202.1202 753.1161,201.9532 C738.7261,201.3292 724.3861,201.1692 709.9981,201.9602 C696.7611,202.6882 683.2031,204.5442 670.2231,207.0582 C656.4041,209.7342 642.8881,212.2022 629.5041,216.7292 C626.9181,217.6042 624.3291,219.4292 621.7441,220.0702 C619.2911,220.6792 616.8331,220.6712 614.2761,221.5592 C608.1531,223.6852 601.8181,225.2972 595.6481,227.3262 C588.9991,229.5132 581.8031,231.3372 575.4751,234.3642 C572.7271,235.6792 570.2321,237.4622 567.4841,238.7942 C564.8961,240.0492 560.5441,241.1942 559.1771,244.0922 C558.6441,245.2222 558.7351,246.0412 559.0661,247.2122 C559.7301,249.5622 560.2541,249.3082 562.0581,249.1492 C564.5681,248.9272 567.8161,246.9742 570.2531,246.2062 C576.9251,244.1042 583.6771,242.4212 590.4621,240.7372 C602.6471,237.7122 614.8801,232.3562 626.9041,230.2612 C634.0351,229.0192 640.7911,225.6412 647.9611,224.3652 C649.5341,224.0862 654.0881,221.8412 655.3791,222.6172 C655.7211,222.8222 656.5591,225.2862 656.8541,225.8752 C657.9131,227.9912 659.1271,230.0342 660.5491,231.9292 C664.8351,237.6432 670.5841,242.2452 675.7151,247.1692 C681.5761,252.7942 686.6691,258.9992 692.0781,265.0372 C692.5481,264.4922 693.0171,263.9472 693.4861,263.4032 C692.9911,267.2162 695.8471,269.9662 698.1821,272.5552 C700.9531,275.6312 703.1821,278.5222 705.3671,282.0292 C707.1601,284.9052 709.4541,287.4232 711.4801,290.0432 C713.4721,292.6212 714.7981,295.7322 716.6311,298.5102 C720.8391,304.8912 724.9801,311.3952 729.2241,317.6902 C731.2221,320.6532 732.8001,323.9872 734.3811,327.3602 C735.6361,330.0372 739.4121,335.5112 739.4121,338.1082 C739.1411,339.3802 741.8991,347.0322 738.9511,343.4262 C738.4811,344.1542 738.0101,344.8822 737.5381,345.6102 C738.3451,345.2722 739.1501,344.9342 739.9571,344.5962 C737.5091,346.8132 742.0811,347.0982 742.1821,348.3372 C741.7741,348.7302 741.3671,349.1232 740.9601,349.5162 C740.2641,350.9502 739.3581,351.1362 738.2451,350.0742 C737.0181,350.1492 736.7731,349.4632 735.4051,349.9202 C736.7111,351.9592 738.3941,350.6702 739.0561,353.4882 C739.638453,355.970965 737.793165,356.503703 735.844474,357.972056 L735.722663,358.0642 L735.680112,358.210859 C735.255054,359.480777 734.050386,358.93995 732.7081,358.6632 C729.4981,358.0022 725.9511,356.7352 722.8251,355.7602 C716.0681,353.6532 709.2591,351.8772 702.2731,350.4362 C686.3331,347.1472 670.5211,347.3022 654.4361,346.2622 C654.8591,344.5002 654.8621,344.6552 654.3601,343.5632 C655.0041,344.9632 651.1191,343.1352 654.0471,346.2282 C646.5731,347.4502 638.5001,346.5312 630.9201,346.9382 C631.2731,346.1522 632.0841,345.2482 631.3261,344.6792 C627.7371,349.8682 615.7451,347.6432 609.8171,348.3862 C606.3371,348.8232 602.8981,349.6602 599.4291,350.2112 L597.968785,350.44011 C596.750651,350.633608 595.5331,350.846057 594.3431,351.1682 C592.8101,351.5812 590.2561,353.2782 588.8031,352.8842 C590.9301,348.5962 588.4771,352.3082 588.1431,352.3572 C587.1331,352.5062 585.3941,352.8462 583.9431,352.8462 C585.5971,346.2052 588.4341,340.0862 589.5771,333.2462 C590.2901,328.9822 592.2481,322.1142 588.0321,319.0922 C585.7221,317.4362 581.9361,317.0772 579.2611,316.5142 C576.3291,315.8972 571.2061,315.9222 568.6551,314.2652 C566.6631,312.9702 566.2421,311.7802 563.6331,310.7902 C560.6231,309.6482 559.2351,308.5142 556.1941,309.4372 C557.4311,307.8882 559.1641,306.7582 556.7361,305.1752 C555.7411,304.5282 553.7911,305.3992 553.4421,303.9832 C551.6401,305.2562 552.0671,306.2842 551.5851,308.0292 C551.6291,308.7672 551.8231,309.4712 552.1691,310.1392 C551.2151,310.5232 550.2621,310.9072 549.3081,311.2912 C549.9141,309.6622 548.1351,310.6332 547.7801,309.8322 C547.2511,308.6352 547.5651,306.8082 547.5651,305.5092 C545.5991,306.1302 543.5431,306.8982 542.6831,308.9442 C540.2761,307.5092 541.2321,307.4112 542.4661,305.2582 C540.4451,304.7802 540.0171,305.8202 539.7101,307.4942 C538.6441,307.1642 537.5761,306.8352 536.5101,306.5062 C538.9141,306.4892 539.4911,304.6112 539.5481,302.5712 C538.6131,302.8752 537.6781,303.1802 536.7421,303.4842 C536.5501,304.4712 536.3581,305.4582 536.1661,306.4452 C534.6931,307.6932 530.8611,305.4392 529.6181,304.7942 C525.2841,302.5472 523.6981,301.8972 524.3091,296.7912 C524.8201,292.5112 525.9511,288.2102 526.2021,283.9082 C526.4811,279.1292 525.9231,274.0182 525.5041,269.2542 C524.6921,260.0352 523.3851,250.9502 522.9271,241.6932 C522.6801,236.6812 522.4041,231.6682 522.2071,226.6532 C522.0511,222.6672 520.6751,218.2812 525.6481,217.9272 C525.0401,215.9972 526.8611,213.7652 528.7401,212.7082 C529.3971,211.2112 530.1151,211.0772 530.8961,212.3082 C531.5741,212.5212 532.2041,212.4212 532.7871,212.0062 C535.5251,211.3852 538.8091,207.5002 541.2671,206.0992 C543.6771,204.7262 548.9321,202.7302 550.6531,200.4182 C552.3171,198.1812 549.8001,198.4332 550.3091,196.3832 C551.0031,193.5812 553.5321,197.6052 553.9201,198.1652 C554.7651,197.3162 557.9931,195.7242 557.9551,194.4902 C557.1641,194.3492 556.3741,194.2082 555.5831,194.0672 C556.4471,193.5682 558.3641,192.0782 559.3691,191.8812 C561.0771,191.5462 560.4361,191.1132 561.8051,192.9962 C562.2811,192.2582 563.4391,189.8332 564.1641,189.3422 C564.5101,189.1072 566.5661,188.9512 566.9971,188.7992 C569.2351,188.0082 569.0091,186.2672 570.6541,185.4392 C571.4521,185.0382 572.4341,185.6542 573.1041,185.3622 C574.1741,184.8942 574.1771,183.2972 575.1481,182.7182 C575.9881,182.2162 578.1181,182.6332 579.1211,182.2682 C580.7831,181.6612 580.7101,181.0962 581.9501,179.9882 C583.6891,178.4352 585.2901,178.6602 587.2271,177.4832 C589.2351,176.2632 588.9271,173.5162 590.7491,172.9922 C593.1821,172.2932 593.8051,174.5972 595.1281,172.3212 C595.4261,171.8102 594.0761,171.0462 594.9231,170.2262 C595.9671,169.2162 596.3991,170.4212 596.8781,171.2062 L598.5301,168.0892 L598.5301,168.0892 C601.1781,169.5392 600.0661,167.6692 602.0871,166.6732 C602.9841,166.2312 603.7231,167.1042 604.7061,166.5702 C605.4291,166.1782 605.5541,165.3242 606.0731,164.7952 C607.0711,163.7782 607.6231,162.3822 609.1691,161.8982 C608.6101,162.0722 613.1901,161.9402 612.7811,161.7442 C612.3361,161.0902 611.8901,160.4362 611.4441,159.7822 C613.8411,159.7822 615.9341,160.0202 618.2531,159.3002 C619.0741,159.0462 620.3571,158.6542 621.0401,158.1322 C622.9171,156.6972 622.4941,157.0472 622.4941,154.4112 C625.0831,156.0592 628.3791,155.4832 630.9341,153.5722 C632.2681,152.5742 633.1231,151.3802 634.5861,150.4782 C635.2141,150.1532 635.8531,149.8492 636.5011,149.5672 C637.3131,148.7272 638.1261,148.7192 638.9411,149.5442 C640.0931,149.2352 640.0801,149.0222 640.9731,148.4632 C641.2291,147.9572 641.5011,147.4602 641.7931,146.9732 C642.7511,146.8732 643.6951,146.7002 644.6271,146.4542 C648.2441,145.4812 650.4281,143.0672 653.7851,145.2062 C654.2141,144.3312 654.6441,143.4552 655.0721,142.5792 C656.5011,144.8112 657.4781,142.6792 659.3741,141.7752 C660.1691,141.3962 661.2011,141.3022 661.9191,140.9562 L663.1331,141.2432 L663.1331,141.2432 C663.4761,140.1832 663.8181,139.1232 664.1601,138.0632 C664.8511,138.3322 667.5901,139.8032 668.4131,139.7252 C669.5931,139.6142 671.0031,137.6172 672.1461,137.2402 C673.8901,136.6652 673.2651,137.4252 674.9781,137.4372 C676.2951,137.4462 676.9161,137.6332 678.0541,136.5272 C674.2081,135.5282 679.0601,135.0572 680.6811,134.7192 C683.2061,134.1932 684.5071,134.7552 686.2611,132.7602 L684.4401,132.7602 C686.2371,131.1252 685.6321,131.7022 687.5241,131.8622 C688.1201,131.9112 690.7121,133.3342 690.7171,131.4362 C693.1621,132.8772 693.1891,132.8802 695.7101,132.2302 C696.8261,131.9422 697.7761,131.0052 699.0031,130.9832 C700.2001,130.9622 701.0581,131.5032 702.1261,131.3872 C702.7651,131.3192 705.0021,130.4802 705.7581,130.2052 C706.9571,129.7682 707.7471,128.8352 708.8941,128.4742 C710.1561,128.0752 711.7621,128.5492 713.0881,128.2582 C717.0311,127.3902 719.3451,125.0302 723.6141,126.3082 C724.0701,122.4872 728.8321,123.3372 731.3951,123.7312 C733.1791,124.0062 734.0881,124.7282 735.9351,123.8542 C737.4391,123.1432 738.2961,122.0152 739.9701,121.4472 C741.2541,121.0112 742.9841,120.6942 744.3251,120.4162 C745.1541,120.1542 746.0011,120.0702 746.8661,120.1652 C747.7351,120.287117 748.463774,120.665318 749.051351,121.298264 L749.159663,121.4232 C749.293248,121.107805 751.3131,119.611311 751.0811,119.7962 C752.5891,118.5892 753.2961,119.0502 754.2231,116.7002 L750.9911,116.0182 L750.9911,116.0182 C752.6551,115.9062 753.9051,115.7142 755.3851,116.3612 C756.4081,116.8082 758.1271,119.1772 759.1521,119.1792 C761.0051,119.1812 761.6531,116.5702 761.4691,115.2112 C763.0241,118.8322 764.3511,119.4352 767.8431,117.5842 C768.2531,117.3662 768.6641,117.1492 769.0741,116.9312 C769.9051,116.0602 770.7311,116.0762 771.5531,116.9802 L773.0171,117.7772 L773.0171,117.7772 C773.6041,116.8002 774.1901,115.8242 774.7781,114.8472 C776.0241,116.5632 777.2081,116.6472 779.2401,116.2462 C780.6411,115.9692 783.5171,113.4302 784.5501,113.4312 C785.1491,113.4312 785.9141,114.8912 786.9131,115.1762 C788.5661,115.6502 791.1351,114.4582 791.7241,112.8762 C792.0371,113.5362 792.3501,114.1972 792.6621,114.8582 C793.4431,114.1282 794.2271,113.4002 795.0031,112.6652 Z M735.669663,358.0522 L735.6671,358.1082 L735.6671,358.1082 L735.722663,358.0642 L735.7241,358.0622 L735.669663,358.0522 Z M733.6411,354.6072 L733.6411,357.6822 L734.682225,357.8722 L734.682225,357.8722 L735.669663,358.0522 L735.679742,357.883501 C735.72373,356.40466 734.965862,355.309105 733.6411,354.6072 Z M641.6211,342.3732 C641.2961,343.3692 640.9721,344.3662 640.6481,345.3622 C641.7411,345.4512 642.8351,345.5402 643.9291,345.6302 C643.1591,344.5442 642.3901,343.4592 641.6211,342.3732 Z M513.1937,263.5793 C515.5847,264.2773 515.5517,264.1923 516.0317,266.4043 C518.7627,278.9943 510.3127,293.4343 516.5167,305.4023 C498.3807,305.2553 480.2077,305.6173 462.1777,307.7423 C462.1777,300.8863 462.4027,294.0453 461.8847,287.2003 C461.6497,284.0933 461.2987,280.9973 460.9817,277.8983 C460.5807,273.9653 460.7077,274.1953 463.9267,273.5183 C465.6177,273.1623 466.2227,272.0903 467.8387,271.4373 C469.0517,270.9463 469.5957,271.5503 470.7917,271.7183 C472.9307,272.0203 472.9567,271.6613 474.9167,271.2433 C479.1237,270.3463 482.6967,270.6663 486.0207,267.5253 C487.7437,267.3763 487.1857,268.9723 488.3867,268.8163 C489.2597,268.7023 489.8157,267.0723 490.7067,266.6833 C493.4777,265.4703 498.0907,265.7663 501.1227,265.3873 C504.2197,265.0013 506.9607,263.6043 509.9257,263.1903 C511.1467,263.0203 512.0367,263.2413 513.1937,263.5793 Z M548.1781,299.9152 C547.592822,302.092006 545.025426,299.258221 544.985249,300.965517 L544.987663,301.1212 L544.993322,301.083018 C545.128489,300.79063 547.725162,304.227512 547.5721,304.1132 C548.9671,305.1642 549.7801,305.0652 551.3611,303.8592 C548.5311,303.7522 548.8431,302.0062 548.1781,299.9152 Z M556.0641,302.9912 C557.0971,303.5592 557.4131,302.1062 557.9481,301.2192 C556.7941,300.6442 556.6241,301.9822 556.0641,302.9912 Z M552.8671,293.5202 C553.2691,294.9342 553.2401,296.0182 553.2401,297.4782 C555.6291,297.1402 556.3801,296.9662 556.4241,294.4252 L555.1471,295.2282 C554.4771,293.9012 554.3291,293.7982 552.8671,293.5202 Z M534.3791,295.8872 C534.9201,295.5392 535.4611,295.1902 536.0021,294.8412 C535.2041,293.6932 533.7851,295.0582 534.3791,295.8872 Z M540.4211,274.7612 C541.1111,274.3992 541.8031,274.0372 542.4931,273.6752 C540.7011,271.3902 540.5701,272.1572 540.4211,274.7612 Z M537.9241,256.6372 L535.2081,256.6372 C535.7401,258.3832 537.9241,258.7592 537.9241,256.6372 Z M804.0266,155.0551 C804.6466,155.4171 805.2676,155.7791 805.8876,156.1401 C804.2756,157.6091 802.2936,159.0901 803.8636,160.8121 C805.1106,162.1791 810.9326,162.8311 812.6766,163.3291 C812.0716,164.0251 810.8246,165.9271 809.9996,166.4061 C809.3456,166.7851 808.7486,165.2841 807.4306,166.7791 C809.6166,167.9131 809.0306,167.0541 808.4626,169.4591 C808.1276,170.8781 806.9286,172.4021 806.2536,173.6751 C804.6086,176.7721 802.9256,179.8491 801.2006,182.9021 C797.6616,189.1631 793.9356,195.3201 790.0206,201.3541 C789.3606,197.9461 791.2486,194.1271 792.2276,190.8391 C793.4596,186.7011 794.6936,182.5651 795.9336,178.4301 C798.3266,170.4621 800.4746,162.5771 804.0266,155.0551 Z M709.0401,165.4522 C707.2711,165.9032 706.1121,166.1972 704.2831,166.6632 C706.9401,167.5092 706.9401,167.5092 709.0401,165.4522 Z M787.3651,150.0932 C785.1091,151.1492 784.8681,151.9162 786.6931,153.2082 C786.9101,152.2032 787.0691,151.4662 787.3651,150.0932 Z M787.0911,125.1042 C786.7851,126.4452 784.8881,125.1552 784.4681,126.1352 C783.5061,128.3772 786.5641,128.0732 787.6661,127.9382 C787.4751,126.9932 787.2821,126.0492 787.0911,125.1042 Z M799.8751,123.4022 C799.2711,126.2692 799.2711,126.2692 802.0671,126.7002 C801.3331,125.5962 800.7181,124.6702 799.8751,123.4022 Z M749.159663,121.4232 L749.1547,121.453632 C749.157395,121.471088 749.174396,121.479496 749.2081,121.4772 L749.2081,121.4772 L749.159663,121.4232 Z" fill="#714dd2"></path><g transform="translate(-1.000045, 19.255000)" fill="#000000"><path d="M396.601745,402.4602 C396.177745,404.6432 395.117745,405.6712 396.228745,407.6762 C397.171745,409.3792 399.875745,410.4942 401.690745,410.0632 L396.601745,402.4602 Z M347.427745,324.8142 L338.474745,327.8832 C340.921745,330.2842 343.253745,332.8082 345.951745,334.9402 L347.427745,324.8142 Z M495.106745,332.6742 C490.836745,330.5222 486.053745,330.2792 481.372745,330.0032 C482.083745,333.8462 482.796745,337.6902 483.509745,341.5332 C487.374745,338.5802 491.241745,335.6272 495.106745,332.6742 L495.106745,332.6742 Z M392.573745,630.1692 C391.721745,628.6602 385.909745,617.0012 384.701745,617.6002 C384.060745,617.9172 384.010745,624.4082 383.916745,625.3312 C383.583745,628.6152 383.249745,631.8982 382.916745,635.1822 C386.354745,633.9682 390.026745,632.9612 392.573745,630.1692 L392.573745,630.1692 Z M351.965745,535.9152 C352.844745,538.4912 353.724745,541.0682 354.603745,543.6452 C355.021745,544.8702 355.266745,546.6772 356.006745,547.7582 C356.967745,549.1602 356.242745,549.9852 357.525745,548.4502 C358.903745,546.8012 359.315745,542.4032 359.913745,540.3832 C360.822745,537.3142 361.730745,534.2472 362.638745,531.1792 C358.357745,531.1432 355.762745,534.6682 351.965745,535.9152 L351.965745,535.9152 Z M262.003745,384.1752 C256.739745,387.7732 251.410745,391.3422 246.830745,395.8142 C250.859745,395.5632 256.469745,398.3352 260.264745,397.0332 C262.016745,397.4072 262.595745,396.7422 262.003745,395.0362 L262.003745,391.4922 L262.003745,384.1752 Z M340.055745,409.6272 L340.055745,430.6342 C344.970745,426.4462 350.143745,422.5562 354.872745,418.1522 C349.933745,415.3102 344.995745,412.4692 340.055745,409.6272 L340.055745,409.6272 Z M515.756745,464.0582 C514.205745,473.4102 514.119745,483.0342 513.694745,492.4982 C513.619745,494.1782 512.972745,496.7072 514.091745,498.1782 C515.214745,499.6532 518.413745,500.4702 520.039745,501.2582 C524.614745,503.4762 529.158745,505.7572 533.720745,508.0022 C527.732745,493.3542 521.744745,478.7062 515.756745,464.0582 L515.756745,464.0582 Z M631.907745,406.5452 C643.193745,400.9972 654.480745,395.4492 665.767745,389.9002 C654.701745,385.2152 643.634745,380.5312 632.569745,375.8462 C632.348745,386.0792 632.127745,396.3132 631.907745,406.5452 L631.907745,406.5452 Z M515.732745,432.6662 C517.795745,432.8142 518.121745,424.9572 518.462745,422.8792 C519.112745,418.9352 519.778745,414.9942 520.461745,411.0552 C521.828745,403.1812 523.264745,395.3192 524.776745,387.4722 C527.800745,371.7802 531.135745,356.1472 534.831745,340.6002 C530.859745,339.8842 527.210745,339.3692 523.331745,338.2132 C520.198745,337.2792 516.467745,337.7872 513.670745,335.8452 C513.307745,343.1302 515.126745,350.8752 515.799745,358.1602 C516.579745,366.5892 516.998745,374.9742 516.929745,383.4412 C516.793745,399.8502 516.170745,416.2632 515.732745,432.6662 L515.732745,432.6662 Z M255.950745,654.9852 C257.906745,654.4642 255.243745,627.6512 255.124745,623.7842 C254.784745,612.5892 254.718745,601.3862 254.918745,590.1882 C244.380745,596.7962 233.597745,602.8822 222.465745,608.3712 C225.326745,612.0822 228.007745,616.0842 231.173745,619.5382 C234.435745,623.0952 238.177745,626.0102 241.200745,629.8412 C247.286745,637.5562 251.455745,646.3142 255.950745,654.9852 L255.950745,654.9852 Z M509.537745,496.3672 C510.027745,488.3022 510.481745,480.2542 511.295745,472.2132 C511.642745,468.7912 514.949745,450.6082 509.654745,451.0352 C506.642745,451.2782 501.359745,455.6862 498.597745,457.2312 C494.949745,459.2712 491.296745,461.3052 487.630745,463.3142 C480.396745,467.2782 473.114745,471.1542 465.854745,475.0712 C480.415745,482.1702 494.976745,489.2692 509.537745,496.3672 L509.537745,496.3672 Z M478.099745,328.6682 C472.068745,328.2182 466.238745,327.7702 460.289745,326.6472 C457.081745,326.0412 453.873745,326.1252 450.648745,325.7162 C448.338745,325.4232 443.823745,323.5262 441.671745,324.1472 C438.967745,324.9272 437.985745,338.4782 437.613745,341.8792 C437.014745,347.3572 436.610745,354.0032 439.057745,359.1492 C443.773745,369.0692 456.480745,361.3262 462.662745,357.1652 C467.961745,353.5972 473.964745,349.9842 478.664745,345.6532 C482.827745,341.8162 479.090745,333.6262 478.099745,328.6682 L478.099745,328.6682 Z M509.376745,436.5432 C513.920745,434.7052 513.848745,432.3972 514.046745,427.6432 C514.286745,421.8672 514.426745,416.0842 514.591745,410.3052 C514.885745,400.0072 515.163745,389.7042 515.071745,379.4002 C514.982745,369.3352 514.489745,359.2862 513.337745,349.2832 C512.930745,345.7462 513.335745,339.7052 511.471745,336.6882 C509.770745,333.9362 504.490745,333.9072 501.609745,334.0772 C498.361745,334.2682 495.730745,337.3532 493.333745,339.3032 C490.678745,341.4642 485.223745,344.5062 484.788745,347.7282 C484.300745,351.3262 486.277745,356.4602 487.043745,359.9502 C489.844745,372.6872 493.252745,385.2992 496.842745,397.8332 C500.566745,410.8372 504.340745,423.9722 509.376745,436.5432 L509.376745,436.5432 Z M393.928745,406.0552 C394.221745,403.1932 395.286745,400.8032 393.846745,398.0772 C392.609745,395.7332 390.595745,393.3782 389.082745,391.1592 C384.752745,384.8032 379.896745,378.7152 375.179745,372.6432 C370.859745,367.0822 366.433745,361.5802 361.905745,356.1872 C359.383745,353.1842 356.783745,350.2462 354.199745,347.2962 C352.306745,345.1372 350.512745,342.1032 347.835745,340.9732 C345.862745,353.3702 344.232745,365.8212 342.960745,378.3102 C342.346745,384.3472 341.816745,390.3932 341.371745,396.4452 C341.245745,398.1532 339.920745,403.9222 340.767745,405.5132 C341.658745,407.1842 347.103745,409.4202 348.770745,410.4442 C353.430745,413.3082 357.051745,417.6232 361.483745,412.9152 C364.534745,409.6732 366.991745,405.1032 370.401745,402.2742 C372.178745,400.8002 373.851745,400.8692 375.844745,399.9942 C378.161745,398.9782 378.234745,397.9992 381.003745,399.3822 C385.668745,401.7112 388.502745,405.1532 393.928745,406.0552 L393.928745,406.0552 Z M160.379745,469.8402 C160.379745,478.4232 159.792745,485.4792 165.610745,492.4272 C170.694745,498.4992 175.977745,499.9042 183.128745,502.3002 C187.339745,503.7102 187.633745,502.4102 191.045745,500.0282 C194.288745,497.7662 197.819745,495.9512 201.017745,493.6172 C207.910745,488.5872 214.798745,483.3992 221.497745,478.1082 C223.749745,476.3292 223.417745,476.9362 223.075745,474.8012 C222.762745,472.8562 221.366745,470.3802 220.603745,468.5302 C219.223745,465.1832 217.597745,461.9442 215.970745,458.7112 C214.123745,455.0432 212.514745,451.0592 210.220745,447.6392 C209.268745,446.2202 208.138745,444.9362 207.027745,443.6422 C204.688745,440.9172 204.771745,441.0182 201.974745,443.2452 C196.069745,447.9482 190.575745,453.0392 183.929745,456.7162 C176.066745,461.0682 168.222745,465.4492 160.379745,469.8402 L160.379745,469.8402 Z M338.428745,403.3552 C339.281745,391.0332 340.243745,378.7792 341.720745,366.5132 C342.479745,360.2152 343.362745,353.9342 344.221745,347.6492 C344.571745,345.0902 345.921745,340.7952 345.169745,338.3092 C344.430745,335.8622 341.168745,333.5332 339.378745,331.7632 C338.897745,331.2872 337.418745,329.2902 336.782745,329.2002 C336.101745,329.1052 333.538745,330.9822 332.799745,331.4052 C330.185745,332.9042 327.618745,334.4802 325.090745,336.1202 C320.326745,339.2112 315.710745,342.5282 311.193745,345.9692 C301.721745,353.1842 292.688745,360.9482 283.417745,368.4162 C291.911745,375.8602 302.366745,381.6412 311.863745,387.6702 C317.478745,391.2352 323.122745,394.7612 328.839745,398.1602 C331.738745,399.8822 335.100745,402.5152 338.428745,403.3552 L338.428745,403.3552 Z M222.314745,623.6972 C215.455745,628.2322 208.905745,633.0192 201.148745,635.9292 C193.426745,638.8272 185.794745,639.9422 177.813745,641.6642 C173.788745,642.5332 170.005745,643.4832 165.897745,644.0912 C163.595745,644.4312 160.032745,644.3002 157.933745,645.2722 C156.064745,644.8742 155.398745,645.5112 155.937745,647.1842 C155.957745,647.7042 155.977745,648.2242 155.997745,648.7442 C156.526745,655.9772 161.175745,664.6812 165.230745,670.5612 C167.597745,673.9952 170.613745,677.1902 173.610745,680.0762 C176.994745,683.3352 178.945745,685.6332 183.662745,684.2682 C191.613745,681.9662 198.630745,677.3332 206.689745,675.2902 C213.064745,673.6742 218.359745,670.2872 224.576745,668.5342 C232.243745,666.3722 239.830745,663.9082 247.603745,662.1022 C244.131745,655.4002 241.026745,648.4222 236.581745,642.2832 C232.022745,635.9832 226.995745,629.9292 222.314745,623.6972 L222.314745,623.6972 Z M264.381745,398.1792 C278.725745,401.0342 294.272745,403.6772 307.110745,411.0822 C312.120745,413.9722 318.471745,418.4392 319.938745,424.4162 C321.692745,431.5602 314.796745,435.9852 309.036745,438.2152 C302.120745,440.8922 294.592745,441.9182 287.264745,442.7622 C283.385745,443.2092 279.488745,443.4532 275.591745,443.6742 C272.437745,443.8542 267.088745,443.1612 264.205745,444.4112 C262.399745,444.0512 261.773745,444.7832 262.327745,446.6082 C262.293745,447.2632 262.260745,447.9192 262.227745,448.5742 L261.928745,454.4642 C261.729745,458.3862 261.530745,462.3092 261.330745,466.2312 C260.897745,474.7752 260.463745,483.3202 260.030745,491.8642 C267.543745,487.2092 273.598745,480.5442 280.941745,475.5782 C284.432745,473.2172 287.898745,470.8512 291.375745,468.4982 C292.833745,467.5122 293.724745,466.1292 295.159745,465.2102 C297.062745,463.9912 298.749745,463.2582 300.534745,461.6612 C307.824745,455.1412 315.931745,449.5052 323.663745,443.5202 C327.175745,440.8002 331.020745,438.3002 334.362745,435.3832 C337.862745,432.3272 337.378745,429.8112 337.292745,425.4182 C337.202745,420.7672 338.909745,414.9922 338.117745,410.5072 C338.782745,408.9852 338.271745,408.0382 336.586745,407.6662 C335.460745,406.9462 334.335745,406.2262 333.209745,405.5062 C330.964745,404.0702 328.719745,402.6342 326.474745,401.1992 C317.543745,395.4882 308.613745,389.7762 299.682745,384.0652 C295.221745,381.2122 290.760745,378.3592 286.298745,375.5062 C285.052745,374.7102 280.988745,371.1102 279.590745,371.2162 C278.164745,371.3242 275.690745,374.1082 274.621745,374.9942 C272.981745,376.3522 271.389745,377.7812 269.617745,378.9702 C268.734745,379.5822 267.812745,380.1282 266.852745,380.6092 C265.317745,380.7572 264.784745,381.6002 265.251745,383.1372 C263.903745,387.4612 264.644745,393.6372 264.381745,398.1792 L264.381745,398.1792 Z M463.293745,602.0252 C460.045745,586.8402 455.856745,568.8592 443.187745,558.5302 C430.338745,548.0542 411.553745,552.1022 401.502745,564.4042 C396.468745,570.5662 393.347745,577.8512 391.029745,585.4002 C388.649745,593.1482 385.142745,603.2432 385.784745,611.4372 C386.065745,615.0292 389.143745,618.8902 390.902745,622.0242 C392.717745,625.2612 393.922745,629.9022 398.200745,628.7812 C404.833745,627.0422 411.579745,623.0502 417.786745,620.1932 C424.064745,617.3022 430.674745,614.9242 437.184745,612.1322 C441.506745,610.2792 445.993745,608.8692 450.304745,606.9892 C454.392745,605.2082 459.786745,604.7782 463.293745,602.0252 L463.293745,602.0252 Z M655.224745,511.5822 C664.284745,514.8252 668.993745,509.6342 675.368745,503.7902 C681.407745,498.2542 687.950745,492.9302 693.511745,486.9132 C699.247745,480.7092 703.781745,473.3772 708.191745,466.2112 C712.649745,458.9692 718.675745,451.1472 721.420745,443.0812 C722.816745,438.9782 723.412745,434.4322 724.292745,430.1912 C724.504745,429.1702 725.925745,425.3712 725.474745,424.5122 C724.852745,423.3312 720.896745,423.2062 719.810745,423.0342 C711.165745,421.6672 702.004745,421.5992 693.333745,422.8212 C676.556745,425.1852 662.525745,434.5942 657.222745,451.0462 C651.006745,470.3322 653.993745,491.7682 655.224745,511.5822 L655.224745,511.5822 Z M596.481745,344.3002 C596.341745,347.6392 604.345745,348.5672 606.420745,349.3462 C611.214745,351.1442 615.981745,353.0432 620.636745,355.1712 C630.223745,359.5532 640.446745,362.4082 649.626745,367.7062 C669.415745,379.1272 690.898745,387.1782 710.890745,398.1022 C714.005745,399.8052 720.092745,403.9062 723.650745,403.5592 C725.541745,403.3752 724.132745,404.8972 725.359745,401.8912 C725.800745,400.8092 725.947745,399.4022 726.194745,398.2432 C726.935745,394.7702 727.508745,391.2652 728.340745,387.8112 C729.709745,382.1262 731.107745,376.8522 731.684745,371.0092 C731.929745,368.5332 732.197745,366.0602 732.226745,363.5702 C732.256745,361.0462 732.837745,354.7222 731.698745,352.5372 C730.942745,351.0882 730.791745,351.5852 728.903745,351.1762 C727.821745,350.9422 726.686745,350.4552 725.643745,350.1302 C723.194745,349.3682 720.743745,348.6362 718.175745,348.4122 C715.638745,348.1902 714.019745,347.4182 711.640745,346.9702 C709.144745,346.5002 706.580745,347.0702 704.037745,346.4142 C701.292745,345.7052 699.982745,345.0582 697.114745,345.3292 C694.333745,345.5912 693.533745,344.9752 690.810745,344.2172 C688.537745,343.5852 685.829745,344.0272 683.460745,343.8352 C680.593745,343.6012 677.735745,343.2432 674.866745,343.0162 C661.966745,341.9952 648.913745,343.5092 635.983745,343.3892 C628.952745,343.3242 622.072745,344.3622 615.051745,344.0412 C608.915745,343.7612 602.572745,343.8272 596.481745,344.3002 L596.481745,344.3002 Z M630.040745,412.2892 C623.765745,414.6792 617.946745,418.5612 612.128745,421.9042 C605.419745,425.7592 598.998745,429.8552 592.789745,434.4782 C582.350745,442.2522 570.168745,451.5732 567.420745,465.1382 C564.601745,479.0602 576.691745,490.4672 588.026745,496.1632 C600.953745,502.6582 615.992745,506.0172 630.152745,508.4982 C628.638745,476.4492 628.994745,444.3472 630.040745,412.2892 L630.040745,412.2892 Z M442.308745,487.7412 C438.501745,488.7932 435.278745,491.0462 431.746745,492.7132 C428.583745,494.2062 425.522745,495.3322 422.567745,497.2542 C417.752745,500.3872 412.170745,503.0692 407.136745,505.4922 C394.680745,511.4852 382.587745,518.9282 370.255745,525.5702 C366.987745,527.3312 365.916745,528.4432 364.809745,532.0672 C363.607745,536.0032 362.474745,539.9662 361.316745,543.9162 C360.236745,547.6002 358.512745,551.5392 358.966745,555.4282 C359.362745,558.8112 361.112745,562.0022 362.431745,565.0882 C365.753745,572.8542 369.354745,580.4962 373.075745,588.0772 C376.414745,594.8832 379.461745,602.1042 383.747745,608.3602 C387.078745,590.9862 390.067745,571.5192 402.980745,558.2802 C415.883745,545.0512 436.468745,544.8642 448.902745,558.5202 C454.809745,565.0072 458.404745,573.1772 461.230745,581.3862 C462.714745,585.6992 463.711745,590.0942 464.666745,594.5482 C465.686745,599.3062 465.435745,601.8312 470.685745,600.3892 C474.854745,599.2442 479.274745,598.3302 483.361745,597.0242 C485.481745,596.3472 487.549745,595.5862 487.645745,593.9112 C487.767745,591.7962 484.919745,587.4652 484.078745,585.4752 C479.735745,575.2042 475.391745,564.9322 471.047745,554.6612 C466.330745,543.5082 461.612745,532.3552 456.893745,521.2032 C454.539745,515.6382 452.184745,510.0742 449.829745,504.5102 C447.681745,499.4382 445.892745,491.9062 442.308745,487.7412 L442.308745,487.7412 Z M630.393745,401.0082 C630.463745,395.9372 630.547745,390.8662 630.613745,385.7942 C630.653745,382.7722 632.000745,376.9282 629.368745,374.7692 C627.736745,373.4312 622.895745,372.4052 620.831745,371.4892 C616.758745,369.6832 612.348745,368.8772 608.251745,367.0832 C592.205745,360.0542 575.506745,354.2002 558.985745,348.5352 C555.423745,347.3132 551.782745,346.3132 548.196745,345.1102 C546.260745,344.4612 539.089745,340.6472 537.298745,341.6452 C535.729745,342.5182 534.546745,352.9182 534.044745,355.0772 C532.855745,360.1892 531.718745,365.3142 530.626745,370.4482 C526.385745,390.3802 522.828745,410.4522 519.520745,430.5582 C528.308745,427.2212 536.731745,421.4392 545.034745,416.9692 C553.659745,412.3262 562.254745,407.6942 570.938745,403.1582 C573.389745,401.8772 582.012745,395.9912 584.030745,398.3012 C587.267745,402.0082 579.554745,406.3562 577.529745,407.9442 C569.697745,414.0872 561.423745,419.4422 553.047745,424.8002 C544.368745,430.3542 535.336745,435.2602 526.612745,440.7122 C523.463745,442.6802 518.436745,445.0762 517.198745,448.4002 C515.606745,452.6762 516.755745,457.8732 518.205745,461.9582 C521.765745,471.9972 525.664745,481.9122 529.787745,491.7322 C531.662745,496.1972 533.585745,500.6422 535.544745,505.0702 C537.877745,510.3442 540.938745,511.4592 546.021745,513.8862 C567.675745,524.2262 590.167745,534.0392 610.966745,546.0042 C607.485745,550.0162 599.001745,543.4282 595.566745,541.7602 C589.204745,538.6702 582.836745,535.5902 576.479745,532.4912 C564.636745,526.7182 552.853745,520.8302 540.943745,515.1962 C548.576745,532.5572 557.584745,549.2842 567.572745,565.3992 C565.050745,566.2532 565.665745,566.2982 564.082745,564.7812 C562.749745,563.5042 561.854745,561.0022 560.951745,559.3982 C559.084745,556.0852 557.242745,552.7592 555.361745,549.4542 C551.459745,542.5952 547.415745,535.8402 543.852745,528.7942 C541.172745,523.4962 539.096745,514.2342 533.588745,511.5632 C526.725745,508.2332 519.771745,504.9922 512.908745,501.6152 C512.908745,528.0102 514.805745,553.8192 517.589745,580.0512 C517.730745,581.3742 518.998745,585.2782 516.441745,584.8962 C515.288745,584.7232 514.899745,577.4852 514.697745,575.9742 C513.767745,569.0452 512.978745,562.0992 512.333745,555.1392 C511.048745,541.2502 510.349745,527.3052 510.259745,513.3572 C508.612745,526.9182 506.965745,540.4792 505.318745,554.0402 L502.977745,573.3172 C502.567745,576.6922 502.157745,580.0672 501.747745,583.4422 C501.559745,584.9932 501.678745,587.0202 501.133745,588.4992 C500.276745,590.8262 500.564745,590.6482 497.877745,591.7092 C500.446745,574.0502 502.819745,556.3612 504.918745,538.6402 C505.943745,529.9932 506.903745,521.3392 507.788745,512.6772 C508.026745,510.3482 508.259745,508.0172 508.487745,505.6872 C508.602745,504.4992 509.627745,500.6792 509.058745,499.6922 C508.495745,498.7142 504.762745,497.6942 503.687745,497.1952 C501.334745,496.1032 498.981745,495.0122 496.630745,493.9142 C488.998745,490.3472 481.372745,486.7512 473.824745,483.0102 C470.522745,481.3732 467.059745,478.8442 463.468745,477.9712 C459.893745,477.1022 457.293745,479.5902 454.236745,481.1722 C451.857745,482.4032 446.252745,484.0422 444.663745,486.1332 C443.184745,488.0792 447.777745,495.8672 448.984745,498.7382 C452.387745,506.8382 455.791745,514.9392 459.195745,523.0392 C466.096745,539.4632 472.998745,555.8872 479.900745,572.3122 C481.587745,576.3262 483.274745,580.3412 484.961745,584.3562 C486.042745,586.9292 487.847745,594.2612 490.470745,594.5482 C491.631745,594.6752 493.537745,593.4122 494.659745,593.0492 C496.333745,592.5082 497.879745,592.5162 499.559745,592.2312 C502.637745,591.7092 505.833745,590.1212 508.856745,589.0072 C516.625745,586.1432 524.679745,584.2942 532.511745,581.6192 C540.379745,578.9322 548.119745,575.9132 555.956745,573.2252 C563.074745,570.7852 570.256745,568.0042 577.094745,564.8262 C584.315745,561.4692 591.721745,558.5092 598.757745,554.7872 C611.573745,548.0082 624.250745,541.6772 635.574745,533.3632 C638.236745,531.4082 641.072745,529.4452 643.706745,527.3522 C646.015745,525.5152 650.421745,523.2472 651.993745,520.8322 C652.592745,519.9112 653.107745,518.1052 652.407745,517.0122 C651.656745,515.8382 648.330745,515.9452 646.776745,515.7362 C641.875745,515.0782 636.975745,514.4192 632.075745,513.7612 C632.451745,516.9842 632.831745,520.2042 633.104745,523.4392 C633.295745,525.7222 634.645745,531.7562 632.825745,533.5452 C630.323745,531.1672 631.127745,524.0562 630.903745,520.8882 C630.783745,519.1952 631.214745,515.8812 630.456745,514.3792 C629.625745,512.7332 627.329745,512.7552 625.248745,512.3052 C616.424745,510.3962 607.680745,508.7942 599.141745,505.7692 C584.716745,500.6602 567.473745,492.0332 564.251745,475.3932 C560.892745,458.0462 575.652745,443.0162 588.079745,433.3412 C595.520745,427.5492 603.436745,422.5342 611.623745,417.8782 C615.450745,415.7032 619.274745,413.5272 623.125745,411.3982 C624.526745,410.6242 629.125745,409.0292 629.864745,407.6752 C630.620745,406.2902 630.233745,402.5862 630.393745,401.0082 L630.393745,401.0082 Z M321.774745,667.4132 C321.074745,667.7552 320.373745,668.0972 319.674745,668.4392 C327.459745,646.2542 335.172745,624.1692 341.681745,601.5672 C344.823745,590.6582 348.006745,579.7602 351.255745,568.8822 C352.658745,564.1902 356.103745,557.7282 355.146745,552.8672 C354.110745,547.6062 351.626745,542.0102 349.704745,537.0072 C337.401745,544.7412 324.840745,552.0782 312.332745,559.4612 C301.119745,566.0822 289.716745,571.9702 278.424745,578.5212 C272.638745,581.8772 266.669745,584.1442 260.630745,586.8862 C255.723745,589.1152 257.628745,595.9282 257.699745,600.4792 C257.947745,616.5472 257.935745,632.6722 258.910745,648.7172 C259.265745,654.5622 258.807745,661.2732 262.528745,666.1382 C267.287745,672.3582 271.701745,678.6992 276.041745,685.2472 C277.667745,687.7002 284.498745,700.9812 287.045745,700.6902 C288.708745,700.5012 290.239745,695.1232 291.071745,693.8482 C292.864745,691.0992 295.485745,688.7342 297.871745,686.5212 C308.175745,676.9612 319.609745,670.2272 331.492745,663.2402 C343.565745,656.1422 355.920745,649.5352 368.221745,642.8042 C371.000745,641.2832 373.993745,640.1862 376.754745,638.6322 C377.845745,638.0182 380.008745,637.0432 380.695745,635.9462 C381.722745,634.3042 381.374745,629.7552 381.588745,627.7922 C382.026745,623.7822 382.813745,619.6162 382.856263,615.5762 C382.896745,611.5862 380.497745,608.1572 378.758745,604.6782 C371.124745,589.4002 363.707745,574.0852 357.065745,558.3442 C351.828745,576.6222 346.330745,594.8142 341.193745,613.1192 C338.511745,622.6772 335.278745,632.0792 332.130745,641.4902 C330.523745,646.2972 328.906745,651.1002 327.301745,655.9082 C326.051745,659.6522 325.402745,665.1342 321.774745,667.4132 L321.774745,667.4132 Z M431.415745,322.9462 C427.368745,322.9912 423.700745,322.3962 419.742745,321.5512 C418.290745,321.2422 417.014745,321.1112 415.542745,320.9812 C413.873745,320.8342 412.357745,319.9302 410.894745,319.7532 C409.788745,319.6202 407.857745,320.0842 406.801745,320.4382 C404.353745,321.2582 404.431745,320.8442 404.329745,323.6862 C404.169745,328.0772 404.049745,332.4692 403.808745,336.8562 C402.859745,354.1252 401.025745,371.2262 398.512745,388.3282 C398.003745,391.7852 396.579745,396.3192 397.362745,399.7522 C398.068745,402.8472 400.742745,406.1532 402.508745,408.7492 C406.141745,414.0882 414.697745,416.7262 420.716745,418.2402 C427.063745,419.8372 433.653745,420.4252 439.683745,421.8492 C441.354745,422.2442 443.272745,421.5482 445.053745,421.9442 C446.700745,422.3102 447.979745,423.2142 449.501745,423.8682 C453.230745,425.4692 457.396745,425.7642 461.247745,427.0002 C468.883745,429.4512 477.059745,429.3042 484.702745,431.6582 C486.656745,432.2592 488.344745,433.7752 490.224745,434.2942 C491.943745,434.7682 493.713745,434.2102 495.512745,434.4752 C499.324745,435.0362 502.878745,436.3392 503.757745,440.4312 C506.088745,438.5862 506.412745,439.0712 506.009745,436.2172 C505.751745,434.3872 504.732745,432.1592 504.174745,430.3952 C502.752745,425.8972 501.322745,421.4022 499.901745,416.9042 C497.090745,408.0032 494.296745,399.0952 491.705745,390.1282 C489.386745,382.1072 487.278745,374.0252 485.436745,365.8812 C484.499745,361.7402 483.716745,357.5812 482.913745,353.4182 C482.679745,352.2102 482.911745,350.2902 481.697745,349.4862 C480.596745,348.7572 478.026745,351.3732 476.863745,352.2162 C468.740745,358.1002 450.109745,375.5032 439.953745,365.2372 C434.484745,359.7092 434.804745,349.9902 435.398745,342.8482 C435.762745,338.4582 436.533745,334.1252 437.395745,329.8092 C437.610745,328.7322 438.927745,325.2722 438.445745,324.5052 C437.924745,323.6802 432.502745,323.1882 431.415745,322.9462 L431.415745,322.9462 Z M716.834745,419.0012 C718.997745,419.2432 721.158745,419.4862 723.320745,419.7292 C723.122745,417.9822 723.300745,415.3552 722.639745,413.7282 C721.724745,411.4792 719.485745,411.2282 717.022745,410.2962 C713.126745,408.8232 709.153745,407.5422 705.300745,405.9562 C696.938745,402.5152 688.615745,399.0252 680.248745,395.5842 C676.581745,394.0752 672.272745,391.6062 668.290745,392.8382 C663.996745,394.1682 659.758745,396.8762 655.744745,398.8592 C651.199745,401.1052 646.656745,403.3562 642.114745,405.6072 C639.984745,406.6632 637.853745,407.7182 635.723745,408.7742 C632.376745,410.4322 631.931745,410.6002 631.667745,414.3872 C630.322745,433.7592 630.422745,453.8832 631.008745,473.2812 C631.308745,483.1802 630.972745,493.1332 631.682745,503.0152 C631.737745,503.7752 631.680745,508.0642 632.156745,508.6492 C632.826745,509.4732 637.543745,509.7512 638.670745,509.9582 C643.064745,510.7612 647.489745,511.0282 651.929745,511.4252 C650.883745,488.8932 647.041745,462.2562 658.612745,441.6462 C670.235745,420.9402 695.079745,416.4552 716.834745,419.0012 L716.834745,419.0012 Z M514.778745,197.3312 C516.081745,194.3632 518.325745,191.8572 520.243745,189.2532 C521.280745,187.8452 523.074745,186.1622 523.738745,184.5152 C524.683745,182.1712 524.678745,182.6732 523.266745,180.6202 C521.931745,178.6802 521.958745,178.5342 519.894745,178.1872 C518.156745,177.8952 516.305745,178.3912 514.530745,178.0732 C512.735745,177.7512 507.802745,176.2392 508.933745,173.3832 C508.884745,173.5082 511.738745,172.1012 511.960745,171.8572 C512.677745,171.0762 512.904745,169.4112 513.258745,168.4672 C514.398745,165.4412 514.798745,163.4822 513.528745,160.2602 C511.630745,155.4492 504.128745,154.0252 499.458745,155.6442 C497.123745,156.4522 495.792745,158.1662 494.743745,160.3202 C494.076745,161.6882 493.921745,163.6652 493.059745,164.8562 C491.759745,166.6492 491.679745,166.4502 488.984745,166.1332 C485.553745,165.7302 482.739745,164.4122 479.488745,163.4932 C475.947745,162.4912 473.644745,164.5292 470.550745,166.1722 C464.964745,169.1402 459.569745,170.1702 453.312745,170.6412 C446.344745,171.1662 439.886745,169.4862 432.987745,169.0532 C434.777745,177.2982 439.406745,183.9922 443.106745,191.4582 C443.756745,192.7712 444.807745,194.1132 444.832745,195.6322 C444.858745,197.0632 442.786745,199.0102 443.019745,200.1942 C443.518745,202.7202 449.077745,204.7422 451.183745,205.4532 C457.140745,207.4622 463.923745,211.3952 470.479745,209.8152 C474.074745,208.9492 476.008745,203.2732 479.391745,202.8562 C483.929745,202.2942 480.534745,208.1382 479.691745,210.1482 C486.132745,211.1272 494.296745,210.2972 500.461745,208.1132 C503.551745,207.0192 506.169745,205.3862 508.989745,203.7672 C512.501745,201.7512 513.231745,201.1972 514.778745,197.3312 L514.778745,197.3312 Z M402.063745,320.0412 C390.580745,320.2322 378.929745,318.5792 367.420745,320.0982 C364.754745,320.4492 362.123745,321.0152 359.503745,321.6172 C357.620745,322.0502 351.639745,322.4162 350.383745,323.8162 C349.239745,325.0932 349.231745,330.9722 348.995745,332.6292 C348.470745,336.3192 348.610745,337.5932 350.963745,340.4462 C358.705745,349.8342 366.768745,358.9422 374.397745,368.4342 C381.725745,377.5522 387.740745,387.7402 395.147745,396.7292 C399.103745,385.2142 399.340745,371.3952 400.426745,359.3212 C401.005745,352.8832 401.532745,346.4402 402.027745,339.9962 C402.498745,333.8582 404.100745,325.8932 402.063745,320.0412 L402.063745,320.0412 Z M253.434745,441.3982 C254.762745,441.3982 256.880745,441.8142 258.171745,441.3982 C259.946745,441.9632 260.539745,441.2972 259.952745,439.4012 C259.980745,438.7382 260.008745,438.0742 260.037745,437.4102 C260.222745,433.1332 260.426745,428.8572 260.624745,424.5802 C260.806745,420.6702 260.983745,416.7592 261.137745,412.8482 C261.243745,410.1782 262.592745,403.5592 261.513745,401.1482 C260.788745,399.5272 259.071745,399.8952 256.982745,399.6582 C254.995745,399.4332 253.002745,399.2252 251.026745,398.9172 C248.518745,398.5262 245.738745,397.6282 243.186745,398.1902 C240.622745,398.7552 238.758745,401.1222 236.746745,402.6282 C233.562745,405.0092 230.309745,407.3022 227.098745,409.6462 C221.262745,413.9082 215.485745,418.2482 209.698745,422.5752 C207.308745,424.3612 206.849745,423.7412 208.014745,426.3092 C208.735745,427.8952 210.374745,429.6902 211.372745,431.1232 C213.359745,433.9772 215.338745,438.3032 217.887745,440.6192 C221.596745,443.9892 231.887745,441.8492 236.814745,441.8252 C242.432745,441.7972 247.848745,441.8842 253.434745,441.3982 L253.434745,441.3982 Z M267.976745,441.1192 C272.848745,440.6422 277.770745,440.8482 282.612745,440.1932 C287.876745,439.4802 293.102745,438.4252 298.356745,437.6342 C303.594745,436.8472 319.529745,433.6622 317.956745,425.8442 C316.294745,417.5802 304.095745,412.6302 297.345745,409.8522 C286.803745,405.5132 275.797745,403.1902 264.708745,400.7372 C263.317745,408.1452 263.517745,416.0982 263.263745,423.6052 C263.125745,427.6822 263.004745,431.7642 263.006745,435.8452 C263.006745,436.8272 262.669745,438.8652 263.070745,439.7782 C264.012745,441.9272 265.108745,441.1192 267.976745,441.1192 L267.976745,441.1192 Z M251.954745,444.6692 L220.858745,444.6692 C225.460745,454.1952 229.810745,463.8992 234.771745,473.2452 C239.712745,482.5552 246.074745,491.3272 251.680745,500.2632 C253.100745,498.7182 255.365745,497.0422 256.330745,495.2032 C257.399745,493.1692 257.369745,490.1762 257.544745,487.8212 C257.998745,481.7092 258.205745,475.5432 258.359745,469.4172 C258.494745,464.0522 258.730745,458.7232 259.142745,453.3712 C259.232745,452.1972 260.527745,446.1002 259.786745,445.0982 C259.125745,444.2062 253.314745,444.6782 251.954745,444.6692 L251.954745,444.6692 Z M380.019745,257.6312 C385.265745,257.6302 390.517745,257.5642 395.762745,257.6522 C400.522745,257.7332 406.724745,256.9042 411.084745,259.3552 C419.967745,264.3472 402.210745,277.1682 398.609745,280.3952 C404.431745,282.5052 413.518745,278.3172 419.218745,276.3982 C426.266745,274.0262 433.453745,272.4332 440.642745,270.5752 C442.438745,270.1112 450.148745,269.2022 451.122745,267.8262 C452.088745,266.4612 449.924745,258.2262 449.707745,256.4892 C449.504745,254.8562 449.675745,252.3102 448.995745,250.7742 C449.412745,248.9292 448.764745,248.2822 447.051745,248.8362 C446.459745,248.8342 445.869745,248.8312 445.277745,248.8292 C440.903745,248.8642 436.525745,249.0672 432.154745,249.2122 C417.130745,249.7122 402.471745,250.3792 387.575745,252.7242 C380.650745,253.8142 373.664745,255.1552 366.775745,256.4932 C360.976745,257.6192 361.952745,258.5642 367.368745,258.5782 C371.604745,258.5892 375.804745,257.9602 380.019745,257.6312 L380.019745,257.6312 Z M810.998745,147.1512 C811.890745,146.1262 812.784745,145.1002 813.676745,144.0742 C811.501745,143.4532 809.326745,142.8312 807.151745,142.2102 C804.838745,141.5502 803.593745,141.7012 804.622745,139.1172 C805.910745,135.8802 811.794745,135.5092 814.622745,135.3872 C824.359745,134.9662 834.587745,138.0642 843.837745,140.7932 C848.350745,142.1252 851.888745,144.1862 855.707745,146.9272 C857.374745,148.1242 859.299745,149.2482 860.758745,150.6862 C862.274745,152.1802 862.905745,154.0942 864.387745,155.5922 C866.818745,158.0482 869.929745,159.2712 871.121745,162.8162 C872.489745,166.8852 870.856745,171.5432 868.831745,175.0912 C866.777745,178.6922 863.726745,181.4152 861.248745,184.6872 C859.281745,187.2832 855.174745,194.3762 861.592745,193.5542 C864.986745,193.1192 869.388745,187.3312 871.831745,185.0252 C875.332745,181.7182 878.776745,178.3352 882.484745,175.2552 C885.772745,172.5242 889.560745,169.7242 893.957745,169.2442 C898.591745,168.7382 900.906745,171.7042 903.165745,175.3112 C905.295745,178.7132 905.637745,182.0342 907.135745,185.5162 C907.858745,187.1952 908.778745,188.1312 909.203745,189.9612 C909.856745,192.7762 909.924745,195.8472 910.257745,198.7172 C910.781745,203.2242 911.274745,206.7682 910.401745,211.1842 C909.583745,215.3172 909.360745,219.7072 908.671745,223.9122 C907.891745,228.6742 907.242745,233.4582 906.473745,238.2222 C905.822745,242.2582 903.345745,248.0062 905.775745,251.7592 C911.613745,260.7782 918.617745,247.5012 920.461745,242.5412 C923.703745,233.8252 925.353745,224.2972 928.214745,215.4022 C929.746745,210.6452 931.083745,205.8432 931.961745,200.9182 C932.688745,196.8452 932.330745,191.8832 934.562745,188.2552 C936.297745,185.4372 939.383745,183.2972 942.770745,184.1572 C947.008745,185.2342 948.636745,191.3602 949.883745,195.0842 C953.174745,204.9062 951.963745,213.7522 950.623745,223.7692 C950.003745,228.4072 949.411745,233.0522 948.346745,237.6132 C947.627745,240.6902 944.650745,246.9182 949.076745,248.5912 C955.351745,250.9652 962.002745,232.9632 963.790745,228.8982 C968.472745,218.2512 970.265745,207.6922 972.195745,196.2842 C972.638745,193.6612 972.977745,190.9822 973.640745,188.4042 C974.217745,186.1602 975.941745,183.8922 976.096745,181.6482 C976.251745,179.4022 974.764745,177.8352 976.288745,175.6302 C977.556745,173.7952 979.847745,173.6842 981.917745,173.6682 C986.779745,173.6302 991.430745,175.7652 995.953745,177.3142 C1000.16374,178.7552 1006.39074,181.9172 1010.92774,180.8992 C996.688745,166.4422 982.485745,152.1492 965.502745,140.8902 C957.616745,135.6612 949.724745,130.6362 941.200745,126.3722 C932.566745,122.0532 922.672745,119.1362 913.425745,116.5232 C908.396745,115.1012 903.395745,113.4902 898.429745,111.8592 C894.008745,110.4072 889.558745,110.1322 885.229745,108.4852 C875.824745,104.9082 865.315745,103.5222 855.577745,100.9862 C851.277745,99.8672 846.930745,98.9072 842.620745,97.8702 C838.090745,96.7802 831.726745,94.8872 827.111745,95.0712 C823.169745,95.2282 821.839745,99.7452 819.943745,102.8872 C817.190745,107.4482 814.843745,112.1872 812.678745,117.0522 C808.244745,127.0202 803.563745,137.3182 800.391745,147.7322 C798.650745,153.4502 796.930745,159.1742 795.219745,164.9012 C793.739745,169.8592 790.036745,177.0112 791.020745,182.0992 C798.313745,170.8602 805.104745,159.1882 810.998745,147.1512 L810.998745,147.1512 Z M471.465745,248.6352 C467.596745,248.8112 463.726745,248.9862 459.857745,249.1622 C463.715745,261.8422 463.177745,275.3442 463.177745,288.4872 C481.206745,286.3622 499.380745,286.0002 517.516745,286.1472 C514.184745,279.7192 515.476745,271.3802 516.425745,264.4972 C516.981745,260.4682 517.291745,256.5872 517.210745,252.5222 C517.134745,248.7092 518.233745,245.5032 514.193745,244.3242 C510.988745,243.3892 508.962745,244.9472 505.909745,245.6582 C502.252745,246.5092 498.269745,246.6122 494.546745,247.0752 C486.797745,248.0382 479.325745,248.6032 471.465745,248.6352 L471.465745,248.6352 Z M367.576745,273.3292 C379.195745,270.1062 391.542745,271.2942 403.219745,268.8442 C400.563745,266.4202 395.559745,267.8562 392.032745,268.0582 C388.022745,268.2862 384.015745,268.4532 380.005745,268.6482 C376.094745,268.8392 365.246745,268.5432 363.835745,273.5192 C365.081745,273.4562 366.329745,273.3922 367.576745,273.3292 L367.576745,273.3292 Z M792.716745,93.6492 C777.512745,94.9832 761.589745,94.7762 746.495745,97.4292 C729.208745,100.4672 711.188745,102.3732 694.427745,107.7272 C677.986745,112.9802 661.218745,116.6572 645.010745,122.8252 C629.254745,128.8212 614.078745,135.2002 599.240745,143.2202 C591.978745,147.1452 584.911745,151.3062 577.988745,155.8142 C571.229745,160.2152 563.823745,163.8232 557.274745,168.4882 C551.444745,172.6412 546.415745,176.4502 541.331745,181.5382 C535.897745,186.9782 530.610745,192.5652 525.171745,197.9962 C520.631745,202.5272 523.505745,213.6052 523.793745,219.6352 C524.192745,227.9952 524.881745,236.2372 525.906745,244.5422 C526.881745,252.4562 527.885745,260.9622 526.596745,268.8592 C526.055745,272.1792 524.187745,277.9142 525.079745,281.2282 C525.792745,283.8822 530.526745,285.8282 532.941745,286.6932 C535.895745,287.7512 538.912745,287.3052 541.943745,288.6512 C545.328745,290.1562 548.182745,292.0322 551.777745,292.8232 C556.208745,293.7982 561.190745,294.6182 565.744745,294.6482 C569.955745,294.6752 574.180745,296.0392 578.379745,296.8792 C585.209745,298.2472 591.876745,298.6732 591.451745,306.9102 C590.960745,316.4142 587.189745,324.5692 584.943745,333.5912 C587.980745,333.5912 590.097745,333.7852 592.877745,332.7082 C596.123745,331.4522 599.586745,331.1182 602.997745,330.5762 C610.533745,329.3772 617.880745,328.9932 625.466745,328.2282 C639.362745,326.8262 653.499745,326.9942 667.406745,327.1422 C674.447745,327.2162 682.085745,327.7602 689.029745,328.8562 C696.153745,329.9812 703.531745,330.6842 710.435745,332.8412 C716.259745,334.6612 722.273745,335.9012 728.214745,337.5092 C730.892745,338.2332 734.099745,338.8212 736.629745,339.6312 C740.295745,340.8062 742.254745,343.3112 746.487745,343.255157 C745.296745,335.4142 742.498745,328.1412 740.810745,320.3662 C739.048745,312.2462 735.532745,305.0622 731.652745,297.4022 C729.921745,293.9852 728.640745,290.3592 726.971745,286.9132 C725.115745,283.0802 722.506745,279.9052 720.265745,276.3212 C715.680745,268.9902 710.786745,261.9382 706.282745,254.5552 C702.350745,248.1092 697.858745,241.9302 693.553745,235.7082 C688.821745,228.8672 682.245745,223.7042 676.874745,217.4282 C674.607745,214.7772 672.449745,212.3142 669.909745,209.8812 C667.570745,207.6412 664.252745,202.6832 660.671745,202.4512 C658.613745,202.3172 655.047745,203.4752 653.083745,204.0962 C649.449745,205.2472 645.594745,205.9972 641.841745,207.0102 C637.734745,208.1192 633.698745,209.5622 629.584745,210.6162 C627.938745,211.0372 625.983745,210.8372 624.422745,211.3142 C622.790745,211.8142 621.487745,212.9152 619.702745,213.4202 C610.896745,215.9182 602.143745,218.7542 593.272745,221.0282 C584.139745,223.3702 574.866745,225.3642 566.015745,228.6812 C564.327745,229.3142 562.449745,230.8102 561.152745,229.8272 C560.185745,229.0932 559.561745,227.0202 559.816745,225.8102 C560.665745,221.7822 567.108745,220.3272 570.210745,218.7102 C578.523745,214.3762 586.782745,211.3202 595.716745,208.3772 C600.117745,206.9292 604.502745,205.3832 608.964745,204.1322 C612.694745,203.0872 616.576745,201.3192 620.390745,200.7842 C623.782745,200.3082 626.191745,198.9722 629.558745,197.7892 C634.518745,196.0462 639.619745,194.6152 644.660745,193.1262 C653.275745,190.5802 662.407745,189.5102 671.222745,187.8032 C691.644745,183.8482 712.847745,181.8682 733.686745,182.1132 C744.192745,182.2372 755.182745,181.9302 765.565745,183.6582 C768.069745,184.0742 773.332745,183.9942 775.058745,186.2412 C775.985745,187.4472 775.483745,189.2422 775.721745,190.5492 C776.123745,192.7552 777.326745,193.7832 778.369745,195.7932 C780.586745,184.9172 783.133745,174.2722 785.995745,163.5552 C788.583745,153.8562 790.978745,143.9812 794.436745,134.4182 C798.095745,124.3002 802.531745,113.5722 808.000745,104.3122 C809.126745,102.4062 811.933745,99.3782 812.174745,97.2462 C812.424745,95.0462 809.341745,93.3422 807.223745,93.0972 C802.471745,92.5482 797.383745,93.4882 792.716745,93.6492 L792.716745,93.6492 Z M894.853745,249.0542 C896.400745,233.9672 900.922745,218.1862 898.396745,203.0392 C897.327745,196.6272 896.492745,190.5062 893.285745,184.7182 C891.663745,181.7912 891.013745,179.6412 887.917745,181.3672 C884.783745,183.1142 881.898745,187.4292 879.300745,189.9302 C874.525745,194.5272 869.524745,199.2612 863.806745,202.6752 C859.302745,205.3632 850.356745,207.9112 846.970745,202.0962 C843.744745,196.5542 848.047745,188.8202 851.136745,184.2482 C854.671745,179.0172 861.367745,174.1722 857.609745,167.7182 C855.992745,164.9402 853.665745,164.2122 851.219745,162.3892 C849.102745,160.8112 847.328745,158.7672 845.210745,157.1612 C839.074745,152.5062 832.344745,150.5122 825.259745,147.8522 C821.988745,146.6232 821.558745,145.4672 819.668745,148.2762 C817.616745,151.3272 816.492745,155.6032 815.008745,158.9772 C812.036745,165.7362 808.866745,172.1402 805.034745,178.4422 C801.167745,184.8022 797.740745,191.4462 794.085745,197.9322 C792.706745,200.3792 791.409745,202.8662 789.779745,205.1632 C788.891745,206.4132 787.792745,207.5272 787.071745,208.8952 C786.004745,210.9182 786.479745,212.7622 785.815745,214.7762 C782.949745,223.4662 778.769745,211.3352 777.970745,208.4992 C777.062745,205.2732 774.871745,202.7582 773.451745,199.7492 C772.278745,197.2642 771.478745,193.5712 768.646745,192.4012 C766.326745,191.4432 763.336745,192.7582 760.969745,192.8862 C756.619745,193.1222 752.237745,192.7702 747.868745,193.0422 C743.783745,193.2962 739.707745,193.6882 735.623745,193.9382 C731.535745,194.1892 727.452745,193.4982 723.418745,193.9282 C716.179745,194.7002 708.778745,194.5762 701.555745,195.6462 C693.079745,196.9002 684.690745,198.2382 676.190745,199.2822 C678.165745,203.0172 682.259745,204.6372 685.496745,207.3022 C688.389745,209.6842 690.680745,212.4332 693.594745,214.6992 C696.551745,216.9992 698.308745,220.4012 700.755745,223.1652 C703.153745,225.8722 705.373745,228.1422 707.474745,231.1712 C717.613745,245.7972 728.071745,259.8832 736.434745,275.6912 C740.667745,283.6922 744.709745,292.2522 747.601745,300.8362 C750.703745,310.0432 752.225745,319.9172 754.068745,329.4372 C754.986745,334.1822 755.467745,338.1872 754.461745,342.9592 C754.197745,344.0952 753.922745,345.2292 753.637745,346.3602 C752.755745,347.7142 753.081745,348.5922 754.617745,348.9952 C755.515745,350.3042 756.741745,350.7952 756.819745,352.5852 C756.879745,353.9452 756.122745,355.5212 754.951745,356.2882 C752.690745,357.7682 752.690745,355.7692 750.359745,356.2122 C749.485745,356.6852 748.611745,357.1572 747.738745,357.6292 C747.277745,356.9272 746.802745,356.2332 746.315745,355.5492 C744.829745,354.1362 743.647745,354.2652 741.705745,353.9212 C742.692745,365.2882 741.118745,375.4372 738.616745,386.5252 C737.412745,391.8572 735.349745,397.0762 734.309745,402.4172 C733.148745,408.3842 735.686745,411.1022 739.612745,415.0822 C738.616745,415.6022 736.870745,416.1672 736.048745,416.9442 C734.740745,418.1832 735.074745,418.3352 735.075745,420.2742 C735.077745,423.8242 734.396745,427.3232 733.838745,430.8142 C732.806745,437.2792 731.863745,443.9692 729.637745,450.1592 C725.594745,461.4022 719.059745,473.0782 712.401745,482.9812 C708.675745,488.5232 704.940745,494.8192 700.270745,499.6012 C695.583745,504.3992 690.937745,509.2412 686.261745,514.0542 C677.058745,523.5282 667.001745,530.0732 655.976745,537.1662 C651.610745,539.9762 647.011745,543.0542 643.256745,546.5522 C639.440745,550.1062 634.365745,552.5942 629.804745,555.1762 C627.769745,556.3282 626.321745,557.9832 624.124745,558.9282 C622.060745,559.8152 620.618745,560.1052 618.887745,561.2692 C614.592745,564.1572 609.953745,566.6262 605.224745,568.8042 C599.456745,571.4602 593.780745,574.5502 587.856745,576.8172 C585.157745,577.8502 582.618745,578.9762 580.004745,580.1842 C577.175745,581.4912 574.123745,582.3492 571.221745,583.7422 C568.769745,584.9192 566.286745,585.6032 563.790745,586.5652 C561.752745,587.3512 560.152745,588.6232 558.073745,589.4452 C553.756745,591.1502 549.827745,592.0682 545.633745,594.0782 C540.060745,596.7492 533.456745,597.9952 527.586745,599.9172 C521.032745,602.0642 514.233745,604.2002 507.507745,605.7222 C504.645745,606.3702 502.207745,607.2172 499.443745,608.1982 C497.642745,608.8372 495.577745,609.1872 493.582745,609.7942 C488.069745,611.4752 482.559745,613.0952 477.017745,614.5242 C466.189745,617.3172 455.127745,620.6702 444.626745,624.4612 C439.120745,626.4492 433.535745,628.8412 428.253745,631.3722 C422.282745,634.2322 415.848745,635.8832 409.855745,638.7152 C398.278745,644.1842 386.740745,649.8142 375.297745,655.5562 C369.288745,658.5722 363.363745,661.6792 357.496745,664.9592 C355.367745,666.1492 353.039745,666.6402 350.924745,667.8072 C348.158745,669.3342 345.888745,671.5752 343.055745,673.0882 C332.135745,678.9202 320.990745,684.4142 310.960745,691.7932 C305.711745,695.6552 300.071745,699.6102 295.535745,704.3122 C294.038745,705.8632 291.444745,708.2652 291.173745,710.5162 C290.774745,713.8462 291.148745,710.7822 292.301745,712.8362 C293.898745,713.0302 294.259745,713.6442 293.388745,714.6762 C292.986745,715.1602 292.471745,715.4072 291.844745,715.4172 C289.827745,715.8252 286.054745,713.6882 284.433745,712.7942 C281.624745,711.2462 280.133745,709.2892 278.329745,706.6902 C274.411745,701.0522 270.588745,695.3632 266.553745,689.8042 C262.924745,684.8052 259.372745,679.3012 255.243745,674.7102 C252.443745,671.5982 252.233745,672.9572 249.119745,674.7122 C246.802745,676.0172 244.111745,676.5742 241.710745,677.8032 C232.561745,682.4902 222.504745,685.9512 213.120745,689.2172 C210.983745,689.9612 209.844745,691.1412 207.966745,692.1682 C205.574745,693.4772 202.544745,694.1172 199.986745,695.0472 C192.939745,697.6092 185.927745,700.2692 178.930745,702.9652 C173.528745,705.0482 168.337745,706.6892 164.108745,710.5322 C162.425745,712.0622 160.388745,713.1582 158.650745,714.7052 C156.626745,716.5042 153.889745,719.4322 151.341745,720.4502 L149.789745,721.6622 C148.739745,720.9322 147.688745,720.2032 146.635745,719.4762 C145.591745,718.7532 144.546745,718.0332 143.504745,717.3082 C140.887745,715.4892 138.289745,713.6442 135.688745,711.8022 C129.789745,707.6212 123.852745,703.4812 118.365745,698.7612 C108.618745,690.3802 98.5047447,682.4482 88.3127447,674.5982 C77.6157447,666.3592 67.1867447,657.7372 56.1227447,649.9932 C46.0947447,642.9742 35.1537447,637.0462 25.4307447,629.6382 C20.5367447,625.9092 15.6547447,622.1562 10.6577447,618.5442 C10.3857447,618.3482 6.31974474,615.8532 6.27894682,615.5762 C6.20974474,615.0662 7.54774474,613.7352 7.94274474,613.3072 C9.81274474,611.2742 11.8847447,609.4642 13.7477447,607.4092 C22.4307447,597.8342 33.7677447,598.1682 45.7507447,597.7162 C51.1847447,597.5112 57.0777447,600.0172 62.2387447,601.7232 C68.5497447,603.8092 74.6377447,606.8712 80.7337447,609.5152 C93.2967447,614.9642 106.262745,619.6202 118.952745,624.6672 C123.942745,626.6512 128.913745,627.6192 133.986745,628.9832 C139.133745,630.3682 144.435745,629.0482 149.940745,629.1472 C152.797745,629.1982 155.498745,629.3652 158.375745,629.2032 C160.083745,629.1072 162.051745,628.7832 163.738745,628.8122 C165.105745,628.8362 166.524745,629.4002 167.782745,629.2572 C173.289745,628.6332 179.106745,627.7582 184.786745,627.0422 C190.425745,626.3312 196.244745,625.9782 201.809745,624.8652 C204.611745,624.3052 207.376745,623.5132 210.072745,622.5632 C212.412745,621.7382 216.666745,620.8012 218.586745,619.1302 C220.304745,617.6352 219.553745,617.6152 218.595745,615.1762 C218.216745,614.2122 217.824745,612.7502 217.262745,611.8212 C215.743745,609.3112 214.275745,608.5222 215.159745,605.3812 C216.716745,599.8452 222.023745,596.3112 226.566745,593.5842 C236.800745,587.4442 246.160745,579.5682 256.936745,574.3592 C279.140745,563.6272 299.376745,549.6862 321.030745,537.9002 C344.832745,524.9452 367.348745,509.7432 391.481745,497.3352 C413.945745,485.7862 436.306745,474.1692 458.956745,462.9832 C470.016745,457.5232 482.525745,452.5262 492.560745,445.3672 C487.000745,444.6772 481.424745,443.7862 475.845745,443.2922 C473.257745,443.0632 470.638745,443.2752 468.065745,442.8642 C465.187745,442.4042 462.466745,441.2402 459.594745,440.7562 C454.655745,439.9222 450.214745,438.2292 445.271745,437.6052 C439.971745,436.9352 434.780745,435.3772 429.455745,434.9412 C418.316745,434.0282 408.263745,429.9202 398.498745,424.7432 C396.081745,423.4612 394.095745,424.1942 391.779745,423.3222 C390.503745,422.8432 389.148745,420.9272 387.715745,419.8982 C383.768745,417.0642 380.380745,413.7182 376.629745,410.6222 C368.743745,428.3202 353.258745,440.3572 338.481745,452.2292 C330.996745,458.2412 322.872745,463.3382 315.310745,469.2372 C309.448745,473.8112 304.124745,477.9052 297.866745,481.5422 C291.857745,485.0322 286.212745,489.7462 280.483745,493.9392 C276.600745,496.7812 272.049745,498.9262 267.920745,501.3942 C264.546745,503.4102 257.959745,506.4172 257.039745,510.0742 C256.286745,513.0622 257.755745,516.6182 253.195745,515.2442 C249.112745,514.0152 246.152745,509.4822 243.774745,506.2892 C237.624745,498.0272 231.887745,489.4852 226.177745,480.9192 C223.110745,486.9052 217.820745,491.2162 212.930745,495.6542 C209.959745,498.3512 206.875745,500.8532 203.666745,503.2602 C202.110745,504.4282 200.536745,505.5732 198.977745,506.7382 C198.363745,507.1982 196.971745,507.9052 196.573745,508.5532 C195.643745,510.0692 196.208745,509.3822 196.353745,511.2152 C196.579745,514.0862 197.537745,516.3452 195.912745,519.0962 C194.386745,521.6792 191.059745,522.7822 188.727745,524.5462 C183.179745,528.7452 177.345745,533.2082 171.190745,536.4872 C169.793745,537.2312 168.472745,537.8762 167.171745,538.7872 C164.999745,540.3062 165.396745,540.8572 163.207745,539.4012 C159.784745,537.1222 156.827745,533.3392 153.738745,530.5912 C147.266745,524.8332 140.722745,519.1482 134.094745,513.5712 C121.463745,502.9412 108.459745,492.8402 95.9857447,482.0202 C84.1317447,471.7382 71.4237447,462.8872 59.1857447,453.1122 C55.8287447,450.4312 52.5127447,447.6952 49.1997447,444.9592 C46.2497447,442.5242 41.4627447,439.8402 39.2807447,436.7242 C36.1117447,432.1982 48.5077447,426.0132 52.2477447,425.0922 C58.6967447,423.5052 67.0357447,424.4132 73.4947447,425.7142 C80.2747447,427.0792 87.1787447,431.6452 93.5097447,434.4892 C100.645745,437.6942 107.913745,440.4652 115.102745,443.4912 C118.308745,444.8402 121.707745,445.9172 124.683745,447.7352 C127.841745,449.6642 130.660745,451.8632 134.018745,453.4812 C137.888745,455.3432 141.909745,457.0812 145.979745,458.4592 C147.823745,459.0832 149.808745,459.7102 151.746745,459.9622 C154.490745,460.3192 154.118745,459.0552 156.397745,458.3492 C158.334745,457.7492 158.794745,459.3342 160.536745,459.7752 C162.176745,460.1912 163.402745,459.7702 164.822745,458.8882 C167.988745,456.9232 170.806745,454.2132 173.973745,452.1672 C176.911745,450.2682 180.150745,448.4942 182.904745,446.3442 C184.132745,445.3862 185.040745,444.0732 186.250745,443.1002 C188.189745,441.5402 188.958745,442.1592 191.222745,441.0852 C193.073745,440.2062 194.752745,438.5702 196.513745,437.4862 C197.606745,436.8132 200.257745,435.9632 200.962745,434.8742 C202.814745,432.0152 199.653745,430.0292 196.822745,430.8722 C196.398745,428.4032 194.221745,422.5412 195.161745,420.2262 C195.993745,418.1782 198.177745,418.5612 200.014745,417.4772 C206.918745,413.4012 212.013745,405.9952 218.472745,401.2062 C224.561745,396.6912 229.933745,391.3012 235.965745,386.7032 C241.132745,382.7642 246.779745,378.9182 251.484745,374.6702 C257.047745,369.6482 264.169745,365.7412 270.217745,361.2582 C276.465745,356.6282 282.271745,351.4762 288.452745,346.7932 C294.399745,342.2882 300.240745,337.5822 306.351745,333.2932 C311.843745,329.4382 317.600745,325.9182 322.978745,322.0102 C325.924745,319.8702 329.145745,317.9902 332.508745,316.5852 C335.852745,315.1872 338.777745,313.5482 342.042745,312.0432 C348.531745,309.0522 356.981745,306.9852 364.037745,306.1282 C371.795745,305.1862 379.585745,304.3412 387.417745,304.3342 C391.589745,304.3312 395.641745,305.1252 399.788745,305.3772 C403.598745,305.6072 407.718745,306.5712 411.501745,306.4442 C413.214745,306.3872 414.703745,305.6622 416.362745,305.8962 C417.747745,306.0912 418.952745,306.9272 420.438745,307.0732 C423.747745,307.3992 427.074745,307.0742 430.420745,307.5022 C438.107745,308.4842 445.804745,309.8842 453.507745,310.6642 C461.714745,311.4952 469.850745,311.6522 478.014745,313.0522 C485.992745,314.4192 494.020745,315.8362 501.952745,317.4172 C518.809745,320.7772 535.842745,324.0582 552.432745,329.0472 C556.310745,330.2132 560.211745,331.3222 563.939745,332.9212 C565.748745,333.6962 567.486745,334.6362 569.373745,335.2162 C572.075745,336.0462 572.607745,336.3612 573.999745,334.0942 C576.395745,330.1922 577.715745,325.0312 579.454745,320.7862 C581.173745,316.5852 583.261745,312.3512 584.258745,307.9642 C581.359745,307.5052 577.702745,308.3972 574.711745,308.4992 C571.054745,308.6252 567.437745,308.5462 563.784745,308.5242 C556.421745,308.4802 550.664745,306.3052 543.697745,304.0222 C537.825745,302.0972 530.007745,300.9932 525.528745,296.5852 C523.126745,294.2222 522.327745,293.8062 518.717745,294.2302 C515.075745,294.6572 511.478745,295.3932 507.801745,295.5152 C493.943745,295.9752 480.148745,298.3932 466.227745,298.8712 C462.461745,299.0002 453.042745,300.7852 453.659745,294.3982 C453.787745,293.0722 454.803745,291.9222 455.001745,290.5572 C455.213745,289.0942 454.847745,287.6092 454.618745,286.1792 C454.073745,282.7962 453.504745,279.4152 452.961745,276.0312 C440.267745,280.1052 427.413745,283.4062 414.477745,286.6332 C409.113745,287.9712 400.495745,291.0482 394.952745,289.3612 C389.593745,287.7302 392.697745,280.1802 394.366745,276.5662 C383.719745,278.9962 372.363745,282.9702 361.506745,283.8822 C358.203745,284.1602 354.988745,284.8912 354.219745,280.8982 C353.607745,277.7162 355.905745,273.8252 357.077745,271.0302 C348.745745,270.2862 340.117745,270.3572 341.685745,259.6772 C343.122745,249.8782 351.262745,247.9272 359.929745,246.1372 C370.626745,243.9262 381.551745,243.1892 392.318745,241.4002 C401.686745,239.8432 411.907745,238.1072 421.474745,238.8932 C426.539745,239.3082 431.634745,239.4032 436.697745,239.8722 C439.086745,240.0932 441.383745,240.4632 443.695745,241.1152 C445.828745,241.7152 448.811745,243.5762 450.997745,243.6092 C454.297745,243.6612 458.275745,239.1992 461.824745,238.1682 C466.220745,236.8902 470.957745,236.6582 475.499745,236.3452 C480.647745,235.9922 485.803745,235.7952 490.947745,235.3782 C492.120745,235.2832 496.553745,235.5732 497.479745,234.8862 C498.827745,233.8852 497.930745,228.7512 497.836745,226.6422 C497.748745,224.6912 498.124745,221.0372 496.772745,220.2722 C495.502745,219.5542 491.800745,220.5392 490.550745,220.7392 C485.369745,221.5692 480.446745,221.4742 475.284745,221.2632 C472.900745,221.1662 470.610745,221.8012 468.249745,221.4882 C465.716745,221.1532 463.166745,220.3012 460.643745,219.8272 C455.178745,218.8002 450.199745,217.5222 445.490745,214.4602 C441.356745,211.7732 436.464745,209.9542 434.154745,205.2482 C432.462745,201.8022 431.774745,195.1522 436.749745,194.1722 C433.361745,189.2852 431.023745,183.7952 429.227745,178.1482 C428.901745,177.1242 428.685745,175.5822 428.198745,174.6892 C426.478745,171.5312 428.074745,174.3322 425.620745,173.0692 C423.195745,171.8222 421.447745,170.8352 419.552745,168.6662 C416.531745,165.2072 415.259745,160.9502 414.877745,156.4432 C414.359745,150.3222 413.391745,143.4202 414.285745,137.3302 C415.832745,126.7812 423.542745,118.8552 431.376745,112.4752 C435.629745,109.0112 441.228745,107.7212 446.216745,105.6192 C451.031745,103.5892 456.410745,101.4612 461.483745,100.9852 C466.062745,100.5552 470.526745,99.0602 475.110745,98.4572 C481.410745,97.6272 487.717745,97.9372 494.048745,97.6852 C496.962745,97.5692 499.869745,97.1582 502.770745,96.8452 C504.408745,96.6682 507.178745,96.8572 508.678745,96.2082 C511.133745,95.1442 509.807745,97.3782 510.684745,94.1242 C512.352745,87.9342 513.714745,82.1292 516.241745,76.1142 C518.595745,70.5102 521.454745,65.1522 525.233745,60.3612 C528.777745,55.8672 533.373745,52.5802 537.548745,48.7412 C540.642745,45.8972 544.151745,43.3282 547.680745,41.0282 C549.698745,39.7132 551.946745,39.0022 553.917745,37.8412 C556.365745,36.4012 558.525745,35.3092 561.279745,34.4272 C567.189745,32.5352 573.054745,30.5262 579.331745,30.6252 C586.098745,30.7312 592.882745,29.1562 599.470745,31.1532 C611.703745,34.8622 617.697745,48.1202 617.492745,60.2952 C621.676745,59.2512 625.333745,57.2412 629.765745,57.0692 C633.847745,56.9112 638.697745,57.2652 642.707745,58.0232 C650.489745,59.4942 658.493745,63.8202 663.133745,70.3762 C667.559745,76.6292 668.221745,84.9312 665.501745,92.0252 C664.199745,95.4212 662.134745,98.4422 659.934745,101.3112 C658.322745,103.4152 654.724745,105.7442 654.554745,108.5632 C684.675745,99.4582 714.919745,93.0402 746.078745,88.8862 C761.873745,86.7812 777.694745,87.8352 793.505745,86.6322 C800.259745,86.1182 807.599745,86.8372 814.581745,86.8642 C817.529745,86.8762 819.823745,86.4662 821.960745,84.5582 C824.124745,82.6282 825.853745,80.2642 828.375745,83.0502 C829.019745,83.7612 829.154745,85.4812 830.020745,86.0162 C831.070745,86.6642 834.123745,86.2192 835.379745,86.2962 C839.770745,86.5642 844.055745,87.3092 848.366745,88.1672 C856.276745,89.7422 864.135745,91.3342 871.951745,93.3332 C886.833745,97.1402 901.518745,100.8222 916.185745,105.3412 C931.151745,109.9522 946.275745,115.6412 960.074745,123.1052 C966.758745,126.7202 973.434745,131.2332 979.579745,135.7052 C982.436745,137.7852 984.997745,140.0352 987.481745,142.5432 C990.138745,145.2242 993.387745,147.0332 996.018745,149.7342 C1001.74174,155.6092 1007.44074,161.8412 1012.63274,168.2062 C1015.34374,171.5292 1017.82974,175.0342 1020.24374,178.5762 C1021.93774,181.0612 1026.40174,185.6112 1025.37374,188.8212 C1024.82574,190.5352 1022.91174,191.7342 1021.15874,191.3142 C1020.57374,191.1742 1020.08574,190.4142 1019.58674,190.3422 C1017.89374,190.1022 1019.43374,189.5062 1017.45774,190.3072 C1013.53174,191.9002 1012.27974,195.0952 1007.29174,194.3682 C998.812745,193.1312 990.837745,189.1272 983.126745,185.6362 C980.924745,194.0562 980.612745,202.7852 978.684745,211.3062 C976.804745,219.6192 973.669745,227.5472 969.884745,235.1722 C966.564745,241.8622 962.301745,248.9922 956.424745,253.7732 C951.940745,257.4212 940.873745,261.9532 937.579745,254.1862 C936.180745,250.8872 938.261745,245.7612 938.850745,242.3662 C939.641745,237.8102 940.513745,233.2412 940.989745,228.6392 C941.375745,224.9002 941.570745,221.1392 941.930745,217.3962 C942.241745,214.1762 943.101745,207.2632 941.290745,204.4192 C940.199745,202.7052 940.104745,204.3872 939.469745,206.0982 C938.699745,208.1732 938.059745,210.2312 937.496745,212.3682 C936.298745,216.9092 935.218745,221.4812 934.085745,226.0382 C932.061745,234.1802 929.832745,242.1442 925.614745,249.4652 C921.868745,255.9662 916.596745,263.0982 908.584745,264.1632 C904.833745,264.6612 899.943745,262.9462 897.080745,260.4192 C893.867745,257.5842 894.827745,252.9082 894.853745,249.0542 L894.853745,249.0542 Z"></path><path d="M711.906445,581.5344 C716.309445,580.6654 720.015445,577.1514 723.611445,574.5114 C728.197445,571.1444 732.548445,567.4754 737.001445,563.9384 C745.392445,557.2734 753.006445,549.9634 760.246445,542.0134 C774.531445,526.3294 785.285445,506.1404 790.174445,485.5134 C792.647445,475.0764 795.706445,462.8474 794.302445,452.0614 C793.814445,448.3144 793.070445,447.6274 789.396445,447.2014 C787.737445,447.0094 783.526445,446.5324 782.032445,447.1844 C778.160445,448.8764 776.070445,456.0754 774.922445,459.6934 C771.530445,470.3754 769.534445,481.4384 766.469445,492.2084 C763.465445,502.7644 758.623445,513.4754 753.835445,523.3464 C743.181445,545.3104 728.373445,563.6854 711.906445,581.5344 M799.249445,460.2714 C796.616445,490.1804 788.312445,518.6764 769.693445,542.7624 C760.843445,554.2114 750.435445,564.1724 739.154445,573.2204 C727.506445,582.5634 715.610445,591.3624 702.393445,598.3304 C698.876445,600.1854 695.354445,602.0334 691.793445,603.8024 C689.819445,604.7834 684.836445,608.3954 682.559445,607.8244 C680.735445,607.3654 680.259445,605.9544 679.974445,604.1184 C679.336445,599.9974 682.013445,597.9404 684.720445,595.2944 C695.595445,584.6624 706.504445,573.9924 716.672445,562.6824 C736.753445,540.3464 751.838445,513.5994 760.223445,484.7394 C762.806445,475.8534 765.111445,466.8684 767.899445,458.0454 C769.597445,452.6704 772.005445,443.1024 777.649445,440.4224 C780.675445,438.9854 784.202445,440.3834 787.384445,439.5224 C790.369445,438.7144 792.347445,437.0664 794.891445,439.8304 C799.355445,444.6804 799.554445,454.1934 799.249445,460.2714"></path><path d="M3.71014474,632.843 C1.48114474,633.633 1.38814474,634.416 0.367144736,632.123 C-0.146855264,630.967 -0.00785526377,629.384 0.113144736,628.183 C0.403144736,625.307 1.91714474,622.65 3.16114474,620.1 C14.8691447,629.758 27.0261447,638.462 39.5801447,646.995 C53.0061447,656.12 65.8251447,666.266 78.5231447,676.374 C89.8941447,685.427 101.402145,694.212 112.654145,703.378 C118.081145,707.799 124.268145,711.225 129.427145,715.781 C133.596145,719.463 140.510145,721.113 144.064145,725.444 C138.432145,728.81 130.913145,731.52 124.672145,728.608 C117.787145,725.396 112.506145,721.209 106.379145,716.856 C103.222145,714.613 99.9391447,712.577 96.7321447,710.407 C93.9131447,708.498 91.9221447,705.712 89.0681447,703.922 C83.0701447,700.159 76.9171447,696.013 71.2261447,691.716 C65.3801447,687.303 58.9181447,683.792 53.2781447,679.102 C47.4961447,674.293 41.0241447,671.107 34.9871447,666.729 C22.1931447,657.452 10.9271447,647.017 3.71014474,632.843"></path><path d="M348.892745,140.218 C348.733745,141.072 348.574745,141.926 348.415745,142.781025 C348.512745,142.803 356.168745,128.013 357.436745,126.227 C361.738745,120.172 367.336745,115.134 372.733745,110.077 C384.165745,99.365 397.545745,90.719 408.748745,79.816 C412.434745,76.229 419.038745,70.794 417.580745,64.729 C416.131745,58.701 403.899745,59.926 399.710745,61.67 C393.143745,64.405 387.809745,70.125 382.915745,75.109 C377.577745,80.546 372.196745,85.922 367.672745,92.075 C362.794745,98.71 358.163745,105.896 355.174745,113.596 C351.825745,122.222 350.517745,131.149 348.892745,140.218 M351.406745,166.682 C346.211745,168.284 352.724745,169.366 350.689745,172.142 C348.457745,175.186 344.705745,165.807 344.144745,164.036 C340.837745,153.573 342.316745,140.862 344.122745,130.239 C345.034745,124.88 345.623745,119.433 346.853745,114.132 C348.053745,108.963 350.666745,104.051 353.080745,99.349 C357.913745,89.941 364.313745,81.176 371.576745,73.505 C378.861745,65.809 386.981745,58.109 396.594745,53.371 C404.537745,49.458 417.127745,52.173 420.845745,60.72 C424.644745,69.454 419.506745,78.968 413.430745,85.109 C405.504745,93.118 396.868745,101.073 387.965745,107.979 C383.390745,111.529 379.555745,115.822 375.110745,119.526 C370.379745,123.469 366.286745,127.435 362.788745,132.534 C359.400745,137.475 355.913745,142.412 353.711745,148.021 C351.300745,154.163 351.406745,160.184 351.406745,166.682"></path><path d="M143.610545,543.3255 C131.672545,535.6385 119.694545,528.8895 109.298545,519.0865 C99.0345447,509.4075 90.0665447,498.4925 78.6425447,490.0945 C72.9425447,485.9045 67.0595447,481.9715 61.4605447,477.6445 C56.1465447,473.5375 50.0385447,470.0195 45.2355447,465.3355 C38.8335447,459.0895 26.8475447,447.4845 35.0265447,438.1725 C45.1785447,450.2465 59.1075447,459.7635 71.8065447,468.9295 C85.1965447,478.5945 97.4865447,489.8695 110.187545,500.3995 C122.422545,510.5425 134.616545,520.7795 146.555545,531.1915 C149.690545,533.9265 152.714545,536.7995 155.886545,539.4905 C156.274545,539.8195 159.562545,541.9025 159.562545,542.4565 C159.562545,543.7865 157.014545,544.6165 156.106545,544.9865 C154.673545,545.5705 150.797545,547.0225 149.172545,546.5315 C148.320545,546.2735 148.305545,545.5795 147.691545,545.1675 C147.338545,544.5015 146.926545,543.8745 146.458545,543.2845 C145.508545,543.2995 144.559545,543.3135 143.610545,543.3255"></path><path d="M846.392845,409.2981 C837.882845,409.0791 824.928845,409.0541 825.405845,420.6751 C825.641845,426.4291 828.761845,430.6551 831.324845,435.5771 C834.015845,440.7491 836.010845,446.0921 836.800845,451.8901 C839.995845,475.3571 831.423845,498.2831 823.670845,519.9771 C840.321845,506.5381 852.346845,487.8381 858.660845,467.3411 C861.721845,457.4011 862.912845,444.6251 861.923845,434.2751 C861.428845,429.0961 859.518845,424.4531 857.218845,419.8391 C856.063845,417.5211 854.908845,414.8741 853.066845,412.9981 C851.221845,411.1181 848.663845,410.4921 846.392845,409.2981 M816.706845,533.4181 C811.208845,524.3771 819.864845,511.0651 822.694845,502.2491 C826.078845,491.7091 829.200845,480.7351 830.646845,469.7421 C832.161845,458.2271 830.205845,449.2741 824.868845,439.1031 C820.095845,430.0101 817.262845,417.9001 822.568845,408.2791 C824.705845,404.4071 827.860845,403.9311 831.611845,402.3861 C836.215845,400.4911 837.483845,397.2851 843.133845,397.7931 C853.214845,398.6981 857.878845,408.2591 861.628845,416.4051 C870.372845,435.3951 867.995845,459.9021 860.538845,478.9711 C856.246845,489.9431 851.351845,501.3361 844.064845,510.6791 C840.491845,515.2601 836.291845,519.2311 831.933845,523.0531 C827.218845,527.1861 822.994845,532.1681 816.706845,533.4181"></path><path d="M241.030445,203.718 C227.740445,206.389 215.612445,212.379 213.483445,227.315 C211.548445,240.889 220.794445,253.447 232.148445,259.801 C244.428445,266.675 259.815445,267.817 272.051445,260.199 C284.932445,252.179 287.854445,236.107 280.014445,223.498 C271.266445,209.427 256.611445,205.274 241.030445,203.718 M249.571445,197.206 C265.397445,199.525 280.088445,210.788 285.419445,225.957 C290.915445,241.594 285.865445,258.786 271.315445,267.354 C241.910445,284.671 202.609445,255.812 209.706445,222.642 C211.508445,214.22 216.625445,207.698 223.577445,202.767 C231.252445,197.322 240.533445,197.174 249.571445,197.206"></path><path d="M812.253145,38.4099 C793.184145,29.7879 774.114145,21.1659 755.045145,12.5439 C754.263145,21.1879 753.481145,29.8309 752.698145,38.4749 C752.486145,40.8139 751.620145,43.9959 751.989145,46.3039 C752.384145,48.7669 751.541145,48.5039 754.752145,48.1539 C758.858145,47.7049 762.978145,46.6909 767.042145,45.9659 C774.348145,44.6619 782.118145,44.2899 789.269145,42.3719 C792.918145,41.3929 796.413145,41.2699 800.117145,40.6779 C804.185145,40.0279 808.144145,38.8239 812.253145,38.4099 M747.747145,55.1199 C747.747145,45.3829 748.829145,35.7769 749.720145,26.0849 C750.522145,17.3649 750.831145,9.0529 753.677145,0.7449 C756.336145,5.5739 763.699145,7.5039 768.255145,9.9889 C774.533145,13.4129 781.219145,15.9339 787.645145,19.0529 C793.957145,22.1159 800.037145,25.6329 806.356145,28.6889 C809.560145,30.2389 812.813145,31.6849 816.011145,33.2469 C818.013145,34.2249 822.761145,35.7989 824.006145,37.6149 C827.787145,43.1269 814.846145,43.6599 812.348145,44.1459 C804.857145,45.6069 797.279145,46.4299 789.802145,47.9319 C782.831145,49.3339 775.847145,50.6349 768.851145,51.9059 C761.927145,53.1639 754.793145,55.1199 747.747145,55.1199"></path><path d="M159.765845,296.1692 C167.273845,295.3882 174.750845,294.2642 182.250845,293.5222 C189.352845,292.8192 195.634845,292.0712 202.122845,288.8172 C193.261845,286.1452 184.380845,283.6152 175.444845,281.2012 C171.012845,280.0042 166.589845,278.7372 162.137845,277.6192 C158.693845,276.7532 155.691845,276.2552 154.367845,272.4962 C152.826845,268.1202 157.111845,268.7832 159.782845,269.8952 C163.466845,271.4282 167.479845,272.3812 171.297845,273.6562 C179.819845,276.5012 188.393845,279.1182 196.995845,281.7052 C199.669845,282.5092 215.163845,285.4832 209.580845,290.6522 C207.191845,292.8652 201.860845,294.0802 198.939845,295.6692 C195.192845,297.7072 191.113845,298.5192 186.945845,299.3302 C178.258845,301.0202 169.243845,301.6692 160.449845,303.1352 C155.958845,303.8842 151.468845,304.6332 146.978845,305.3822 C144.347845,305.8202 143.334845,305.7772 142.647845,302.8432 C142.147845,300.7112 142.799845,298.5782 143.279845,296.5132 C144.497845,291.2662 145.852845,286.0462 147.193845,280.8302 C147.703845,278.8402 148.606845,270.0922 150.381845,269.1352 C154.408845,266.9642 151.301845,279.0752 151.002845,280.5582 C149.872845,286.1522 148.530845,291.7072 147.926845,297.3842 C151.881845,297.0262 155.825845,296.6552 159.765845,296.1692"></path><path d="M266.223845,340.7054 C267.713845,344.4464 265.239845,345.2834 262.237845,346.5794 C258.343845,348.2604 254.513845,350.0344 250.548845,351.5484 C242.207845,354.7314 233.806845,357.6874 225.664845,361.3704 C210.135845,368.3934 194.396845,375.1374 179.108845,382.6574 C175.309845,384.5264 171.507845,386.3884 167.674845,388.1884 C163.710845,390.0504 159.164845,393.1834 154.923845,394.2474 C151.224845,395.1754 150.838845,392.5414 153.030845,390.1154 C155.856845,386.9864 160.225845,384.6504 163.774845,382.4754 C178.380845,373.5224 194.321845,366.2344 210.274845,360.0754 C228.713845,352.9554 247.202845,346.1244 266.223845,340.7054"></path><path d="M306.768745,128.4778 C306.234745,117.1038 307.755745,105.6988 306.848745,94.3548 C291.252745,108.1808 298.936745,129.5478 307.908745,144.5498 L306.768745,128.4778 Z M313.519745,127.8278 C313.618745,133.3838 313.933745,138.9368 313.393745,144.4648 C312.826745,150.2678 315.548745,153.2568 319.096745,157.5308 C316.083745,160.5888 309.169745,153.4588 307.260745,151.3568 C303.329745,147.0288 300.404745,141.2788 297.801745,136.0818 C292.257745,125.0108 288.439745,113.1578 292.876745,101.0028 C294.521745,96.4978 296.533745,90.3728 300.888745,87.7498 C305.670745,84.8698 309.328745,88.9318 311.312745,93.1098 C316.156745,103.3038 312.463745,116.8858 313.519745,127.8278 L313.519745,127.8278 Z"></path><path d="M478.740445,693.2073 C485.931445,693.7773 493.015445,694.3383 500.207445,694.7943 C498.966445,684.9363 497.724445,675.0773 496.483445,665.2183 C492.322445,666.1823 488.161445,667.1453 484.000445,668.1073 C482.033445,668.5623 479.016445,668.6823 477.275445,669.6643 C476.624445,669.8143 475.972445,669.9653 475.322445,670.1163 C475.304445,671.3953 475.290445,672.6753 475.278445,673.9553 C475.229445,677.7413 475.120445,681.5233 474.963445,685.3063 C474.897445,686.8913 474.344445,689.2123 474.723445,690.7823 C474.050445,692.3703 474.478445,693.0453 476.011445,692.8073 C476.921445,692.9403 477.830445,693.0743 478.740445,693.2073 M473.789445,700.3343 C468.152445,697.5273 469.693445,688.9513 469.702445,683.4923 C469.709445,680.0193 469.954445,676.5693 470.045445,673.1013 C470.108445,670.7173 469.563445,667.7673 470.383445,665.4643 C471.842445,661.3673 478.981445,661.4783 482.652445,661.7653 C485.374445,661.9773 487.652445,661.8403 490.442445,661.6613 C491.817445,661.5733 493.351445,661.8353 494.702445,661.4293 C494.994445,661.3413 497.743445,659.4243 497.621445,659.4193 C502.552445,659.6083 502.618445,671.4313 502.938445,674.4313 C503.729445,681.8263 504.445445,689.2343 505.089445,696.6443 C505.260445,698.6053 505.989445,700.8223 504.126445,701.9413 C502.446445,702.9513 497.993445,701.9533 496.135445,701.8963 C488.645445,701.6703 481.197445,700.5023 473.789445,700.3343"></path><path d="M825.672145,261.0188 C828.931145,263.9518 827.365145,266.9778 826.298145,270.6418 C825.656145,272.8408 822.130145,280.0608 823.103145,282.1178 C824.228145,284.4958 829.510145,285.0808 831.769145,285.8318 C835.703145,287.1398 839.655145,288.4538 843.378145,290.2978 C845.030145,291.1168 850.989145,292.9988 852.106145,294.5268 C852.746145,295.4028 852.979145,296.0888 852.498145,297.2178 C851.653145,299.1998 850.448145,298.1508 848.389145,297.7258 C838.980145,295.7818 829.651145,293.2958 820.925145,289.1958 C818.492145,294.8428 816.432145,300.6098 814.374145,306.4038 C813.771145,308.1018 813.195145,311.9598 810.904145,312.2348 C808.110145,312.5688 808.072145,308.8268 808.258145,306.8078 C808.528145,303.8598 810.056145,300.7168 810.978145,297.9258 C811.739145,295.6218 814.408145,290.8248 814.079145,288.4508 C813.854145,286.8168 812.858145,286.9308 811.083145,286.2888 C809.406145,285.6828 807.728145,285.0798 806.052145,284.4668 C803.365145,283.4838 800.689145,282.4978 798.074145,281.3318 C796.639145,280.6918 793.636145,279.9438 792.597145,278.6158 C791.994145,277.8458 791.322145,275.0708 792.083145,274.3028 C793.862145,272.5038 805.694145,277.3458 808.127145,278.0068 C809.741145,278.4458 811.363145,278.7808 812.929145,279.3558 C813.522145,279.5748 814.224145,280.4628 814.865145,280.4958 C817.587145,280.6338 817.803145,278.5408 818.647145,276.2958 C820.608145,271.0788 822.737145,265.7568 825.672145,261.0188"></path><path d="M147.291245,364.8142 C145.840245,361.2572 161.241245,356.9602 164.100245,355.7622 C171.078245,352.8412 178.554245,351.0742 185.779245,348.8432 C192.884245,346.6492 199.958245,344.2872 206.946245,341.7482 C209.107245,340.9622 224.669245,333.3852 225.483245,334.4932 C228.180245,338.1592 195.524245,349.6752 192.342245,350.8212 C177.566245,356.1412 162.309245,360.2262 147.291245,364.8142"></path><path d="M809.688745,86.6482 C805.696745,86.6882 799.938745,87.8202 796.275745,86.2002 C800.746745,86.3492 805.217745,86.4992 809.688745,86.6482"></path><path d="M249.571445,197.2063 L240.694445,197.1743 C243.656445,196.4873 246.616445,196.0723 249.571445,197.2063"></path><path d="M711.844945,194.8347 C713.937945,194.8237 716.031945,194.8127 718.110945,194.8007 C716.012945,194.8127 713.928945,194.8237 711.844945,194.8347"></path><path d="M894.853745,249.0545 C894.837745,251.2935 894.823745,253.5325 894.804745,255.7625 C894.818745,253.5205 894.835745,251.2875 894.853745,249.0545"></path><path d="M482.652545,661.7649 C480.429545,661.9259 478.206545,662.0859 475.985545,662.2459 C478.209545,662.0859 480.430545,661.9249 482.652545,661.7649"></path><path d="M495.179845,235.0345 C492.921845,235.2175 490.663845,235.4015 488.408845,235.5845 C490.665845,235.4005 492.922845,235.2175 495.179845,235.0345"></path><path d="M728.805845,194.0979 C730.403845,194.0949 732.000845,194.0919 733.585845,194.0889 C731.983845,194.0929 730.394845,194.0959 728.805845,194.0979"></path><path d="M407.346845,239.4031 C405.361845,239.5821 403.374845,239.7611 401.390845,239.9401 C403.375845,239.7611 405.361845,239.5821 407.346845,239.4031"></path><path d="M495.042145,97.679 C493.056145,97.691 491.070145,97.703 489.085145,97.715 C491.065145,96.665 493.052145,96.936 495.042145,97.679"></path><path d="M132.572445,441.1282 C130.920445,441.0402 129.574445,441.8422 128.642445,440.2662 C130.167445,439.0772 131.047445,440.4472 132.572445,441.1282"></path><path d="M438.957245,308.5139 L433.801245,307.9339 L438.957245,308.5139 Z"></path><path d="M473.789245,700.3347 C474.928245,700.3607 476.066245,700.3857 477.192245,700.4117 C476.049245,700.3847 474.919245,700.3597 473.789245,700.3347"></path><path d="M738.367445,89.8899 C736.593445,90.0489 734.817445,90.2079 733.043445,90.3669 C734.818445,90.2069 736.593445,90.0489 738.367445,89.8899"></path><path d="M175.869345,628.3308 C174.164345,628.3378 172.460345,628.3458 170.756345,628.3518 C172.461345,628.3448 174.165345,628.3378 175.869345,628.3308"></path><path d="M38.8293447,598.1101 C37.1083447,598.1131 35.3883447,598.1161 33.6683447,598.1191 C35.3893447,598.1161 37.1083447,598.1131 38.8293447,598.1101"></path><path d="M473.655445,236.4544 C471.908445,236.6264 470.161445,236.7974 468.414445,236.9694 C470.162445,236.7974 471.908445,236.6264 473.655445,236.4544"></path><path d="M424.911345,239.2888 C423.192345,239.0908 421.474345,238.8928 419.756345,238.6948 C421.459345,239.0278 423.351345,237.7128 424.911345,239.2888"></path><path d="M580.584245,308.2859 C581.654245,308.1649 583.156245,307.7899 584.259245,307.9649 C584.115245,308.5949 580.995245,308.2839 580.584245,308.2859"></path><path d="M471.550045,443.1233 C472.703045,443.1453 473.857045,443.1673 474.998045,443.1863 C473.841045,443.1653 472.696045,443.1443 471.550045,443.1233"></path><path d="M367.404445,305.8025 C365.720445,305.9655 364.037445,306.1285 362.353445,306.2905 C364.038445,306.1275 365.720445,305.9655 367.404445,305.8025"></path><path d="M178.869345,300.0633 C179.787345,300.0883 180.705345,300.1133 181.611345,300.1383 C180.689345,300.1133 179.779345,300.0883 178.869345,300.0633"></path><path d="M427.040245,307.0701 C425.600245,307.0411 424.159245,307.0121 422.720245,306.9841 C424.160245,307.0121 425.600245,307.0411 427.040245,307.0701"></path><path d="M159.765845,296.1692 C158.309845,296.3492 156.853845,296.5282 155.399845,296.7072 C156.856845,296.5272 158.310845,296.3482 159.765845,296.1692"></path><path d="M359.491445,283.8001 C360.390445,283.8361 361.289445,283.8721 362.177445,283.9111 C361.273445,283.8771 360.382445,283.8391 359.491445,283.8001"></path><path d="M428.089045,435.0305 C429.002045,434.9705 429.914045,434.9115 430.815045,434.8505 C429.899045,434.9095 428.994045,434.9705 428.089045,435.0305"></path><path d="M497.930845,316.6087 C496.462845,316.4257 494.993845,316.2427 493.527845,316.0597 C494.994845,316.2427 496.462845,316.4257 497.930845,316.6087"></path><path d="M143.610545,543.3255 C144.563545,543.3125 145.516545,543.3005 146.458545,543.2845 C145.502545,543.2975 144.555545,543.3115 143.610545,543.3255"></path><path d="M65.3644447,424.9065 C63.8464447,424.7535 62.3284447,424.5995 60.8094447,424.4465 C62.3274447,424.5995 63.8454447,424.7535 65.3644447,424.9065"></path><path d="M32.9738447,598.3176 C31.4818447,598.4896 29.9898447,598.6626 28.4968447,598.8346 C29.9908447,598.6616 31.4818447,598.4896 32.9738447,598.3176"></path><path d="M846.316645,194.5926 C846.199645,195.8826 846.082645,197.1726 845.962645,198.4576 C846.079645,197.1656 846.197645,195.8796 846.316645,194.5926"></path><path d="M184.786345,627.0418 C183.285345,627.2138 181.784345,627.3868 180.284345,627.5588 C181.785345,627.3858 183.286345,627.2138 184.786345,627.0418"></path><path d="M170.059745,628.53 C168.540745,629.591 167.022745,629.651 165.502745,628.534 C167.021745,628.532 168.540745,628.531 170.059745,628.53"></path><path d="M141.259945,629.7991 C139.786945,629.8001 138.314945,629.8011 136.842945,629.8021 C138.315945,629.8011 139.787945,629.8001 141.259945,629.7991"></path><path d="M313.519745,127.8279 C313.393745,126.5209 313.267745,125.2149 313.141745,123.9129 C313.267745,125.2219 313.393745,126.5249 313.519745,127.8279"></path><path d="M474.377145,98.6433 C472.897145,98.8263 471.417145,99.0083 469.938145,99.1903 C471.418145,99.0083 472.898145,98.8263 474.377145,98.6433"></path><path d="M479.622245,97.951 C478.118245,98.119 476.613245,98.288 475.110245,98.457 C476.614245,98.288 478.118245,98.119 479.622245,97.951"></path><path d="M246.022645,272.1057 C246.948645,272.0917 247.874645,272.0777 248.787645,272.0637 C247.857645,272.0777 246.940645,272.0917 246.022645,272.1057"></path><path d="M380.019745,257.6316 C384.931745,256.8216 389.842745,256.5516 394.752745,257.6286 L380.019745,257.6316 Z"></path><path d="M511.007045,202.3846 C512.029045,199.7146 512.283045,198.7126 514.779045,197.3306 C513.740045,199.9256 513.577045,201.3136 511.007045,202.3846"></path><path d="M630.773645,466.6238 C630.872645,469.3998 630.970645,472.1758 631.068645,474.9488 C630.969645,472.1718 630.871645,469.3978 630.773645,466.6238"></path><path d="M808.884945,93.0598 C806.662945,93.1098 804.441945,93.1608 802.229945,93.2108 C804.454945,93.1608 806.669945,93.1098 808.884945,93.0598"></path><path d="M512.908445,515.9627 C512.986445,518.2767 513.063445,520.5917 513.140445,522.9037 C513.062445,520.5877 512.985445,518.2757 512.908445,515.9627"></path><path d="M240.647645,441.8191 C242.891645,441.8351 245.136645,441.8511 247.380645,441.8671 C245.135645,441.8511 242.891645,441.8351 240.647645,441.8191"></path><path d="M431.416245,322.9461 C430.063245,322.9591 428.712245,322.9711 427.373245,322.9881 C428.729245,322.9761 430.072245,322.9611 431.416245,322.9461"></path><path d="M427.010945,249.3836 C425.898945,249.3456 424.785945,249.3076 423.685945,249.2736 C424.802945,249.3126 425.906945,249.3476 427.010945,249.3836"></path><path d="M267.976745,441.1189 C269.731745,440.9479 271.485745,440.7759 273.240745,440.6039 C271.485745,440.7759 269.731745,440.9479 267.976745,441.1189"></path><path d="M229.742345,441.9075 C231.461345,441.8815 233.180345,441.8545 234.898345,441.8275 C233.180345,441.8545 231.461345,441.8815 229.742345,441.9075"></path><path d="M248.093945,441.8631 C249.873945,441.7081 251.653945,441.5531 253.434945,441.3981 C251.654945,441.5521 249.873945,441.7081 248.093945,441.8631"></path><path d="M254.585145,444.6853 C253.700145,444.6803 252.815145,444.6743 251.942145,444.6693 C252.831145,444.6753 253.708145,444.6803 254.585145,444.6853"></path><path d="M629.997345,404.9129 C630.129345,403.6079 630.262345,402.3039 630.393345,401.0039 C630.262345,402.3099 630.129345,403.6109 629.997345,404.9129"></path><path d="M364.225745,273.0428 C365.341745,273.1378 366.458745,273.2328 367.576745,273.3288 C366.329745,273.3928 365.081745,273.4558 363.835745,273.5198 C363.842745,273.2638 363.972745,273.1048 364.225745,273.0428"></path><path d="M651.050045,492.4602 C650.979045,491.2722 650.907045,490.0832 650.838045,488.9022 C650.909045,490.0932 650.980045,491.2772 651.050045,492.4602"></path><path d="M384.264845,268.51 C383.368845,268.528 382.471845,268.545 381.586845,268.562 C382.487845,268.544 383.375845,268.527 384.264845,268.51"></path><path d="M712.353745,418.4768 C713.847745,418.6518 715.341745,418.8268 716.834745,419.0008 C715.340745,418.8268 713.847745,418.6518 712.353745,418.4768"></path><path d="M402.063645,320.0408 C401.143645,320.0548 400.224645,320.0678 399.316645,320.0838 C400.239645,320.0708 401.151645,320.0558 402.063645,320.0408"></path><path d="M348.892745,140.218 C349.857745,140.733 349.356745,142.997 348.415745,142.781 C348.574745,141.926 348.733745,141.072 348.892745,140.218"></path><path d="M846.392845,409.2981 C845.505845,409.2751 844.619845,409.2521 843.745845,409.2291 C844.634845,409.2531 845.513845,409.2761 846.392845,409.2981"></path><path d="M306.768745,128.4778 C306.674745,126.4828 306.581745,124.4888 306.488745,122.4998 C306.581745,124.4968 306.675745,126.4868 306.768745,128.4778"></path><path d="M474.645745,692.6072 C476.011745,692.8072 477.376745,693.0072 478.741745,693.2072 C477.374745,693.0072 476.010745,692.8072 474.645745,692.6072"></path><path d="M465.619345,179.0227 C460.804345,180.0137 455.859345,180.5317 451.157345,181.9907 C449.984345,182.3547 446.134345,184.5907 444.729345,184.0017 C442.594345,183.1047 443.674345,180.8037 444.573345,179.5757 C446.979345,176.2917 451.283345,174.4517 455.230345,174.4927 C459.169345,174.5347 464.577345,174.3907 465.619345,179.0227"></path><path d="M452.241445,187.8328 C457.543445,191.5438 461.593445,193.3718 462.042445,185.0308 C467.788445,185.8138 465.213445,195.0678 460.865445,195.7658 C456.133445,196.5248 452.976445,191.7978 452.241445,187.8328"></path></g></g></g></svg>