<svg xmlns="http://www.w3.org/2000/svg" viewBox="0 0 1024 768" version="1.1"><g stroke="none" stroke-width="1" fill="#FFFFFF00" fill-rule="evenodd"><g transform="translate(-42.000000, -146.000000)"><rect x="0" y="0" width="1024" height="768"></rect><polyline fill="#714dd2" points="218 458.457317 220.613419 491.231707 270.268371 503.030488 308.162939 520.073171 338.217252 546.292683 352.591054 534.493902 370.884984 493.853659 391.792332 489.920732 467.58147 497.786585 493.715655 505.652439 484.56869 550.22561 475.421725 583 627 573.823171 621.773163 497.786585 590.412141 428.304878 466.27476 368 373.498403 379.79878 308.162939 451.902439 279.415335 467.634146 228.453674 465.012195"></polyline><path d="M843.006191,157.210504 C853.218503,169.624798 838.172904,187.180458 829.640885,195.842626 C825.500864,200.048248 822.068473,204.908629 818.021149,209.218803 C814.022133,213.478007 809.003451,216.83022 805.411778,220.941744 C801.641239,225.259759 797.289714,229.985529 794.136718,234.843296 C792.141779,237.921059 789.182011,241.35822 788.191069,244.929992 C786.766673,250.06613 787.957369,247.099455 789.840027,250.003399 C791.763159,252.968767 792.41073,253.139972 793.063525,257.273713 C793.696735,261.292447 794.597591,264.232984 796.768784,267.666225 C800.34479,273.321204 804.20672,278.637695 806.729117,284.889931 C810.081867,293.20577 812.454121,301.648378 815.125355,310.203381 C816.167214,313.53991 816.865704,317.361302 818.547301,320.435143 C820.933917,324.801514 821.270758,324.43558 824.823264,321.71199 C835.428557,313.583038 846.153965,304.990135 857.209686,297.2428 C863.543094,292.80455 870.121953,288.459089 876.80526,284.571046 C881.393097,281.902345 891.248982,277.153051 893.545512,272.19988 C896.590144,265.631373 891.850858,259.603926 898.374883,253.555568 C902.621961,249.616555 909.546801,247.432716 915.08119,246.476061 C922.904275,245.124721 931.545963,247.05502 939.359909,247.754215 C947.260023,248.459943 954.985189,247.691483 962.732549,246.074841 C974.592513,243.600869 997.376333,229.911036 1005.06233,246.357133 C1008.42553,253.552954 1006.1525,261.526383 1005.51929,268.902557 C1004.96963,275.331225 1003.08306,282.155885 999.07882,287.443624 C994.501428,293.485447 987.839011,293.801718 980.908949,295.406598 C972.724216,297.300304 964.325367,297.99035 956.13019,299.838314 C952.093311,300.74792 948.111267,301.190961 943.966024,301.38177 C940.277737,301.552974 934.957465,300.057874 931.719606,300.529667 C928.650168,300.976629 929.698556,302.91477 927.54303,304.258268 C926.668285,304.803248 924.886158,304.412483 924.340422,304.851603 C922.841606,306.05657 922.408151,307.106015 921.315374,309.288547 C917.843815,316.22168 912.592739,322.979688 908.128933,329.331248 C904.370144,334.681718 900.014702,341.233235 895.592674,346.00736 C886.217245,356.130649 877.112073,367.285087 867.859369,377.863179 C863.151418,383.245015 857.504749,388.970568 852.034334,393.597013 C850.346208,395.02546 846.933401,396.310148 846.070407,398.309713 C844.839237,401.160074 848.188071,407.43322 848.970118,410.297956 C850.82797,417.109547 851.079949,424.144619 853.051387,430.852964 C854.937962,437.268562 855.623396,444.264427 856.041184,450.951862 C856.987736,466.067529 859.053176,480.404281 858.568803,495.529097 C858.149709,508.572013 857.671864,521.080404 853.142778,533.88677 C849.019731,545.543059 836.668866,558.23311 825.182301,562.527601 C818.344935,565.085215 811.993248,567.408892 805.112798,568.795519 C798.317212,570.165156 791.157366,571.567465 784.410086,573.495151 C771.892106,577.070844 758.697831,579.56834 745.696783,580.79291 C729.057061,582.35989 711.69796,582.510184 695.101323,581.933839 C687.532828,581.671151 679.754133,581.655468 672.284863,581.677685 C664.54403,581.701209 657.25232,583.226368 649.515404,584.037956 C622.210331,586.901386 593.35422,584.599926 566.064815,587.400624 C552.576783,588.784637 539.10964,591.449417 525.387908,591.608859 C513.102323,591.750005 500.645705,590.939724 488.631682,590.88614 C484.821976,590.869151 481.501865,591.17366 477.69477,590.29934 C475.686775,589.838002 472.864093,588.042314 470.836515,589.077383 C469.066137,589.980455 467.73052,593.790084 466.63252,595.411954 C464.234155,598.960202 461.310943,601.809255 458.224532,604.751099 C445.972892,616.428299 433.832227,620.360777 417.752603,624.639585 C410.370807,626.605171 406.72691,627.632399 400.529283,632.128153 C395.480573,635.790102 390.371806,638.420903 384.560633,640.57991 C373.162848,644.814284 359.721817,641.539179 349.009465,637.865468 C343.822363,636.08677 338.371532,634.468821 333.07215,632.356862 C325.853552,629.48167 319.896153,624.704931 312.782003,621.767007 C313.597995,629.357514 305.364956,631.907286 302.867366,637.008138 C301.253659,640.304153 302.231544,645.479498 300.510779,649.205486 C298.91535,652.660943 296.447788,655.928207 292.60022,656.832585 C287.356978,658.06369 277.98416,652.230972 274.301095,648.82779 C272.256544,646.938005 270.431332,641.906419 267.927213,641.068693 C264.661937,639.974813 258.675815,644.806442 255.585488,645.896401 C240.794479,651.117488 225.806326,653.579698 209.92515,651.500412 C193.833776,649.392373 179.08324,643.678583 163.993251,638.260153 C134.439956,627.649388 108.715951,610.181291 85.574399,589.147956 C84.287089,587.976969 82.4187923,586.934059 81.5309923,585.399752 C80.7554729,584.060174 80.8233634,580.897463 80.3167952,580.149913 C78.8088408,577.924253 76.5501731,578.317631 73.722269,578.104606 C64.9852726,577.444619 58.0447655,575.335273 51.2726793,569.480337 C40.613857,560.264041 36.6709805,538.777209 53.0104173,533.069954 C57.186994,531.61014 61.7839702,531.320007 66.1015505,532.219158 C67.8823729,532.590319 74.5069276,536.605133 76.1989699,536.33591 C78.7644508,535.928156 78.2657161,532.625606 78.9472331,530.861284 C80.675832,526.39036 83.1081429,522.453961 86.040494,518.660015 C90.9142549,512.35289 96.8533758,506.013092 102.947862,500.880874 C109.5685,495.303002 116.858904,492.827724 124.740741,489.739506 C130.050568,487.658913 140.415633,484.08714 146.040107,485.948174 C153.364457,488.372483 149.779312,496.377279 145.164057,499.17667 C138.572142,503.177107 130.661583,504.815966 123.982194,508.863452 C116.610843,513.330455 109.877924,519.448079 103.13195,524.816846 C97.7033137,529.137475 92.9992793,534.469649 87.4844746,538.612539 C86.0222158,539.71034 83.6342949,541.631491 83.1799502,542.237895 C83.021974,542.448307 83.2165067,544.156432 82.4932108,544.915744 C79.2853805,548.283639 80.0360937,547.90333 75.2054173,546.721887 C69.5104414,545.328726 55.9153511,542.177777 52.0756161,549.238987 C48.619724,555.593161 62.764467,561.318713 67.4084443,563.256854 C74.2262261,566.10068 75.8190437,568.957575 80.6901934,574.377312 C85.6801517,579.932966 93.9693314,583.708616 100.220488,587.850199 C113.732021,596.799887 128.919928,603.15014 143.389763,610.261013 C157.470532,617.17977 172.607522,622.160386 187.279723,627.001163 C196.138139,629.923404 206.753877,633.05867 216.050971,633.959128 C225.418566,634.867427 234.203869,633.339654 243.395211,631.551808 C247.070441,630.836931 249.844816,630.289337 253.688468,628.934076 C255.400094,628.330286 258.192748,628.241417 259.551865,627.185437 C261.659084,625.547885 260.783035,624.239672 261.156433,621.442895 C262.788418,609.178895 271.295631,622.870036 275.060948,626.952808 C277.965881,630.103757 280.826425,633.977424 284.650493,635.974376 C289.443308,638.474486 290.274967,637.295657 291.84559,633.172371 C294.785775,625.449867 295.891608,616.67269 307.002164,617.807084 C298.229916,610.301527 289.870235,603.925135 282.361797,594.906181 C274.953889,586.00877 268.027744,576.44745 260.924038,567.303033 C255.101115,559.807931 250.03021,549.465082 242.47216,543.552642 C240.082933,541.683767 232.819946,537.377514 230.05471,537.46769 C225.917301,537.602302 222.243375,544.362923 217.786097,544.924892 C212.862724,545.546979 210.596223,543.828399 209.190104,539.830575 C207.731762,535.683764 211.217683,530.910946 210.040042,527.895915 C209.71234,527.056882 207.616871,526.051872 206.969299,524.833836 C205.99533,523.004169 205.924828,520.596849 206.215974,518.571146 C206.650735,515.546966 207.720012,514.313248 207.491534,511.270772 C207.2265,507.735593 205.676766,505.150534 206.897491,501.453299 C208.178273,497.569176 212.119844,495.441534 214.579573,492.572877 C218.30311,488.231337 216.400868,484.957539 214.907275,479.379667 C211.708584,467.445007 207.978518,455.646266 204.732826,443.71814 C197.268778,446.079718 189.97054,448.757568 182.467324,450.958396 C175.250033,453.07689 166.318503,454.97713 159.622141,458.31758 C155.598318,460.324987 156.715902,458.480943 157.013576,462.938798 C157.204192,465.824445 158.423611,469.049887 158.990237,471.89502 C160.036013,477.151394 160.491663,490.714458 164.608183,493.225023 C167.100551,494.746261 171.111318,492.536284 173.851748,495.607511 C176.160028,498.189956 175.468066,501.947309 176.857212,504.81858 C177.720206,506.603813 179.390053,507.283404 180.429301,508.92357 C182.599189,512.35289 182.3681,515.235923 182.750637,519.079532 C182.990865,521.498614 182.618773,528.746711 183.822525,530.627348 C185.428398,533.135299 188.610117,532.700099 191.293101,533.481629 C198.053437,535.449828 204.279787,538.87392 210.020458,542.866516 C212.999811,546.510169 234.322678,567.842785 225.06214,570.557227 C220.590501,571.868053 212.678636,561.794427 209.460361,559.055153 C204.471708,554.811631 199.246744,552.024002 193.164009,549.683335 C178.318165,543.970851 164.886273,538.837327 148.719174,541.20936 C141.787806,542.224826 133.368068,545.294747 126.405366,544.619076 C119.398273,543.939486 121.213041,537.688557 125.594595,534.200427 C129.512666,531.082151 134.966108,531.959084 136.685567,526.730156 C138.420694,521.447644 136.55762,514.771972 139.342439,509.479005 C141.719916,504.958419 147.324806,500.266629 151.651525,497.647591 C153.5381,496.506662 156.772042,495.70945 157.757761,494.027463 C158.565921,492.647371 155.235365,484.736672 154.773187,483.092585 C152.511908,475.036821 150.046957,466.973215 148.131659,458.829887 C146.356059,451.282509 145.893881,447.370941 153.843608,444.631667 C165.976439,440.44957 178.696786,438.49444 190.834839,434.649524 C188.68323,429.044207 181.958145,433.760828 177.127468,433.566099 C171.210543,433.328243 164.364038,431.380954 158.729119,429.563048 C145.936966,425.434534 137.232609,415.141348 135.255948,401.868417 C134.821187,398.956631 136.190749,393.117378 135.130612,390.542775 C134.130531,388.110624 131.302627,386.927874 129.235881,385.194918 C123.909081,380.730529 119.190685,374.601143 116.317085,368.257424 C113.436958,361.89933 113.235897,354.757092 114.909661,348.04744 C115.831406,344.350204 116.352336,343.841818 115.049359,340.345846 C113.540099,336.302281 111.079065,332.701757 109.687308,328.545798 C107.407751,321.739435 106.164831,314.401161 106.288862,307.213181 C106.429866,299.149575 109.663808,295.532061 111.806278,288.422496 C113.497015,282.810644 111.19004,275.054161 111.576494,268.826757 C112.071312,260.858555 114.110641,254.457332 117.631813,247.364757 C123.04217,236.46778 131.60944,224.78666 142.760469,219.072869 C144.965608,217.942396 148.589921,217.875744 150.560053,216.562304 C153.008031,214.929979 153.199953,212.523966 154.158255,209.664458 C156.44434,202.845025 159.298356,197.320736 164.241313,192.107491 C180.272631,175.200056 208.364973,169.211816 230.894203,170.638956 C234.940221,170.896417 238.796929,172.811033 242.631441,171.685787 C245.288313,170.905565 248.103162,168.137539 250.842286,166.991383 C254.308623,165.540718 257.781487,164.692537 261.511553,164.321376 C268.877682,163.586895 274.869026,164.363197 281.658085,166.850238 C284.220955,167.789903 286.67546,168.815823 289.201774,169.835209 C293.190346,171.446624 292.963173,170.67947 296.714128,169.93192 C304.189927,168.443355 308.485312,169.545076 315.108561,172.735232 C316.873716,173.584721 319.66637,174.215956 321.183463,175.406547 C323.332461,177.093762 324.208511,182.220752 326.600349,183.177406 C327.926826,183.709317 332.028985,181.75288 333.739305,181.474509 C336.757825,180.981805 339.713677,181.415698 342.71653,181.383025 C348.034191,181.325521 353.654748,181.522864 358.510231,184.03735 C362.167183,185.929749 366.568321,189.581243 369.7174,192.013394 C374.074148,195.377368 376.7963,201.738076 382.236686,203.499785 C384.367406,204.189831 386.673075,203.491943 388.848185,204.080051 C391.683922,204.845897 394.407379,206.900353 396.703909,208.714337 C400.654619,211.83392 403.995619,219.085938 408.020748,220.353637 C410.706343,221.200511 414.881614,220.317043 417.954969,221.193977 C421.811676,222.294391 425.009062,223.888816 427.8683,226.807135 C433.321742,232.374552 434.862336,240.604135 435.096037,248.152821 C435.158705,250.187672 433.904035,255.924987 435.123454,257.73113 C436.205787,259.333396 440.284444,260.257378 441.945153,261.901465 C447.136171,267.041524 449.481008,275.606982 450.005854,282.648588 C450.606425,290.683442 448.531845,296.346263 447.103532,304.034787 C446.214426,308.827209 445.064203,305.757289 449.10761,308.580204 C451.884596,310.518345 453.802505,311.873606 455.602911,314.916082 C459.368228,321.27679 460.314779,328.775813 459.693319,336.025217 C458.916494,345.070309 454.329963,351.811327 452.267133,360.368943 C461.771815,360.368943 472.010238,362.880816 481.295582,364.633376 C484.721445,365.280294 487.375706,367.163545 490.416421,368.674327 C493.040654,369.977312 494.99773,370.128913 497.474431,370.992777 C503.465776,373.082519 502.307719,372.733575 506.476462,368.457381 C523.082239,351.423176 546.718608,341.139138 570.554733,341.473706 C583.849538,341.659286 596.710888,343.41446 609.140088,348.200348 C614.291939,350.182923 620.018249,352.32102 624.589113,355.431455 C629.883273,359.0359 630.670543,358.994079 637.669802,359.140452 C663.015186,359.665828 687.608552,373.278555 706.053902,389.778235 C707.701555,378.71136 725.675588,372.074895 734.379945,367.487657 C737.354075,365.920677 740.086671,365.103862 741.550235,362.167245 C742.919797,359.418823 742.838851,353.765151 743.754068,350.527946 C745.43436,344.582834 747.37577,337.308598 747.224322,331.039373 C746.789561,312.887764 742.589483,294.819798 742.045053,276.626368 C741.907966,272.057427 741.389648,266.92913 741.996746,262.404624 C742.486342,258.759665 744.149661,256.486956 741.757824,253.112527 C737.216988,246.707383 728.84425,245.107731 726.029402,236.675578 C721.492483,223.087683 729.285539,209.192665 739.926083,201.110762 C746.053209,196.458179 752.039331,195.472772 756.949648,188.950007 C761.371676,183.072854 765.109575,176.122731 770.150451,170.780102 C774.377946,166.301337 778.228125,160.300028 783.073163,156.572734 C788.039621,152.751342 795.332637,150.167591 801.263924,148.352299 C815.50267,143.992463 832.987107,145.032759 843.006191,157.210504 Z M397.940301,498.55589 C394.628024,498.697036 391.294857,499.069504 387.976052,499.065583 C385.957612,499.062969 381.266634,497.97301 379.447949,498.74147 C375.813192,500.279698 372.871701,508.696169 371.173131,512.054915 C365.670077,522.944051 361.336829,534.361176 355.968251,545.292133 C353.175597,550.978478 349.005548,554.717534 342.416245,554.809018 C335.033143,554.910956 331.558973,550.179959 326.873217,545.326112 C317.530427,535.64325 304.953696,527.31957 293.356156,520.585087 C280.829036,513.313465 265.891801,506.265325 251.629556,503.697255 C242.131401,501.987823 220.371162,494.612956 214.592628,506.526706 C217.545869,506.13202 228.817012,504.408212 229.294858,509.403204 C229.653894,513.151409 215.788547,513.791793 214.075616,519.668946 C217.701234,519.386654 230.215297,515.893296 231.095264,521.281667 C231.562664,524.146404 226.333783,525.589227 224.49421,526.55503 C220.849007,528.472261 218.654313,530.462677 215.784631,533.344404 C220.21188,533.344404 224.576462,529.584437 228.780456,529.976509 C230.514277,530.138565 232.599301,532.731465 234.176452,533.522143 C236.41423,534.642161 238.829568,535.200209 241.29713,535.506025 C246.669626,536.17124 249.921846,534.65523 254.205481,538.155123 C258.051744,541.296923 262.050761,545.445041 265.594127,548.942319 C273.156094,556.40867 279.381139,565.885041 285.868607,574.275373 C293.878391,584.633905 302.196293,592.856954 312.851199,600.616051 C321.524222,606.929711 330.314747,611.019018 340.14191,615.66768 C349.782373,620.22878 361.907371,625.517826 372.844284,625.768752 C381.568225,625.970015 392.472498,623.170624 400.41178,619.44725 C405.029645,617.281708 406.708632,617.284322 411.329108,616.426992 C418.500705,615.096562 426.801635,611.246419 433.440551,608.226161 C454.288184,598.740642 467.499431,578.068013 476.899666,557.833197 C482.249967,546.316747 485.592273,535.064291 487.822218,522.604255 C489.036415,515.816189 490.095247,514.223071 483.482442,511.415839 C476.803053,508.581161 469.584456,506.828601 462.632198,504.826422 C442.240216,498.954496 418.996828,497.659353 397.940301,498.55589 Z M447.75502,375.726388 C445.675218,376.66344 444.569385,386.666493 443.634584,388.894767 C439.468452,398.83901 432.077517,405.044197 421.238523,406.079266 C417.874022,406.400764 412.386635,403.337378 409.975213,404.785429 C406.746494,406.724877 406.162896,415.994757 402.688726,419.035926 C399.490034,421.836624 392.826312,424.796764 388.724154,425.873654 C385.556797,426.704846 382.415551,426.476138 379.259945,425.744271 C377.459538,425.327368 374.025841,423.103015 372.263297,423.942048 C369.26175,425.371803 367.847798,432.984527 364.421934,435.566972 C359.412392,439.342621 351.457443,442.139399 345.325095,442.068826 C339.000826,441.995639 331.377496,436.99934 325.746494,438.195158 C319.061882,439.614458 319.940543,445.832713 317.022553,450.693094 C310.824926,461.015033 303.782583,469.90591 292.640693,474.83425 C280.588808,480.16381 263.313265,480.842094 250.672559,478.130266 C243.801248,476.656076 236.905131,474.571562 231.105708,470.63255 C226.485449,467.493726 223.016932,463.313908 218.738017,459.767662 L218.03843,459.20047 L218.073624,459.325841 C218.168519,459.656226 218.264922,459.978657 218.363167,460.292314 C220.401191,466.790248 221.305963,478.319767 225.354592,483.619268 C228.9776,488.362028 241.556942,488.62733 247.613566,489.265099 C263.843333,490.975839 277.800072,494.775013 292.117152,502.917033 C305.820606,510.71011 318.337281,520.140739 330.201161,530.304542 C332.638694,532.39167 334.586632,535.738654 337.53465,537.082153 C342.34966,539.27514 341.960594,536.714913 343.233543,532.426956 C345.846025,523.63279 348.616483,514.94579 352.597222,506.656089 C354.301014,503.102614 358.179917,498.700956 359.011577,494.92792 C359.807986,491.307793 358.172083,487.358325 358.728264,483.471588 C360.131771,473.652808 364.564243,465.280772 370.119521,457.340015 C373.976229,451.828795 385.515018,442.445215 384.041009,456.316708 C382.952148,466.560232 375.473739,475.635383 373.634165,485.699862 C379.304335,484.642575 382.863368,484.951005 387.968218,485.27381 C394.933531,485.714238 402.854535,482.988033 410.035271,482.964509 C423.801393,482.921381 437.361232,483.819225 450.892349,486.272286 C457.159172,487.409294 463.125711,488.693982 469.167973,490.838614 C473.915092,492.523215 480.227611,497.889368 485.28546,498.298429 C488.951551,498.595097 487.673381,499.076038 488.67085,495.947307 C489.597818,493.04467 488.601654,487.822276 488.41626,484.777186 C487.995861,477.885874 486.344292,471.178836 485.487826,464.333266 C485.120956,461.395342 481.615451,449.149639 485.314183,446.776299 C490.975213,443.144409 493.340939,457.394905 494.061624,459.947291 C497.753827,473.032028 500.128692,485.923342 500.019023,499.604028 C499.922409,511.435442 499.136445,522.808133 496.923473,534.570281 C495.615274,541.51779 493.215603,548.190849 490.52348,554.705772 C489.105611,558.137706 480.787708,571.146642 481.944459,573.437647 C482.871427,575.273849 497.005725,572.077158 499.17953,571.891578 C506.916446,571.228977 514.672945,571.690314 522.419,571.230284 C533.867703,570.549386 545.40127,570.689225 556.364294,568.671363 C562.901375,567.466396 569.837965,568.61778 576.368517,568.659601 C583.571448,568.706649 590.532844,568.041435 597.782776,568.728867 C603.288441,569.249015 611.550203,572.155573 616.861336,570.947992 C622.299111,569.71166 620.693238,566.071928 620.7311,560.535877 C620.81988,547.159701 619.629183,531.766969 616.641998,518.760647 C615.066153,511.903314 612.947183,505.265542 611.816543,498.294509 C610.685904,491.320862 610.744656,483.783938 608.641353,477.031158 C604.909982,465.04945 594.653281,454.649097 586.156512,445.794813 C577.412988,436.683069 567.687661,430.067514 556.960948,423.532987 C547.844026,417.979946 538.21009,412.765394 528.332009,408.42124 C516.477268,403.206688 503.015348,399.991701 492.028823,393.126527 C482.885788,387.414043 469.661485,381.781281 459.113638,379.136105 C457.443791,378.717895 448.935272,375.195785 447.75502,375.726388 Z M773.407894,264.992296 C765.801537,266.061345 751.582375,262.345813 751.588903,272.833729 C751.591514,278.586726 753.500284,284.619401 754.042103,290.375013 C754.680536,297.167 754.239247,304.002115 755.273273,310.767964 C756.948343,321.719831 759.40546,331.833972 758.582939,343.086427 C757.686,355.317754 755.137492,367.070754 755.375109,379.477207 C755.59967,391.28379 754.963849,402.668243 760.573961,413.502488 C762.940993,418.076657 764.861513,423.450652 767.466162,427.730767 C770.518627,432.74667 773.162443,434.215631 778.618496,436.236107 C782.035221,437.501192 790.448431,439.147892 792.661403,442.557608 C795.857483,447.479414 791.589516,449.469831 787.386827,449.302547 C774.406669,448.786319 761.079224,442.994115 748.909836,438.763662 C743.183526,436.771938 737.672638,434.263987 732.045553,432.090603 C727.549107,430.353726 723.883015,429.753857 719.793913,426.791102 C709.828358,419.57045 702.135832,409.59092 692.308669,402.184688 C673.715787,388.173355 651.425479,379.807854 628.073728,377.326041 C622.065411,376.686964 617.4136,376.974483 611.396144,377.484176 C608.066894,377.766468 604.770284,377.856644 601.473673,378.468276 C599.570126,378.822447 592.41028,382.224322 590.923215,381.517286 C581.263168,376.924821 608.616547,362.944854 611.692513,362.180314 C607.807082,359.442348 599.73463,359.91414 595.072374,359.305123 C589.120198,358.526207 583.333831,357.766895 577.322902,358.094928 C568.920136,358.554959 559.982079,358.306647 551.734678,360.120631 C541.402253,362.392033 531.616869,365.880163 522.279302,370.774524 C519.161558,372.408156 514.776087,374.394652 514.805962,378.94791 C514.833533,383.226718 516.537325,382.526217 520.703457,383.473724 C531.927599,386.028724 542.314859,393.467629 552.31436,399.135677 C562.94707,405.160511 573.536696,411.930281 583.403027,419.149626 C602.317083,432.991061 613.111687,452.904378 621.511842,474.550652 C625.856839,485.745603 629.007224,498.819885 630.314118,510.751931 C631.769848,524.027475 630.555651,537.378821 631.5949,550.63999 C631.839045,553.773949 632.258138,566.279726 634.622559,568.228322 C636.416437,569.706432 645.319243,567.063869 647.828584,566.891358 C658.318985,566.168639 668.873361,566.240519 679.164007,565.647184 C700.913801,564.393862 723.210637,566.142501 745.158881,564.852585 C756.200241,564.203053 766.887786,562.65045 777.715029,560.422176 C787.778503,558.352038 800.318678,558.105033 809.498269,553.321759 C827.169406,544.114611 837.941815,521.91813 838.717334,503.123524 C839.558133,482.750176 838.166376,460.579834 833.887963,440.283593 C831.644963,429.641463 829.699636,419.512946 827.059737,408.996279 C824.105191,397.222368 820.787691,385.499427 817.54461,373.870583 C811.957998,353.85402 803.26278,335.205787 799.100565,314.689987 C796.810563,303.404859 793.566176,291.606117 790.17948,280.591519 C788.931338,276.532271 786.470304,268.820222 783.56537,265.735926 C780.512905,262.497414 777.950035,264.354527 773.407894,264.992296 Z M153.370985,508.778504 C148.789676,511.709892 145.486538,518.300616 145.695432,523.734729 C145.695432,530.907025 151.648914,527.851481 157.259027,528.111555 C160.674446,528.26969 173.304706,531.773504 175.525512,528.391232 C178.177161,524.351588 170.202628,526.155117 169.193409,523.988268 C167.152774,519.606215 176.509925,517.755637 175.36623,513.95777 C174.222535,510.161209 164.715241,518.92401 162.677218,514.514511 C160.790643,510.433046 170.39455,506.903094 168.920541,504.091941 C167.669787,501.709452 154.989914,507.740821 153.370985,508.778504 Z M173.264886,471.408982 C173.241385,474.465834 172.187775,478.531616 168.387208,477.908223 C163.641395,477.129307 162.202637,468.017563 161.769181,464.569946 C164.808591,453.218166 173.315804,464.44579 173.264886,471.408982 Z M311.067766,373.844445 C305.580378,374.704388 304.961529,377.161371 302.396048,380.931793 C301.224936,379.998662 300.499029,378.761023 300.219633,377.218874 C287.246003,383.063355 273.747526,387.629683 259.675896,389.789997 C243.997087,392.198624 227.641983,388.553665 211.711195,387.06902 C209.649671,386.876905 203.321485,384.32844 201.641193,385.339984 C200.250742,386.177711 200.274242,393.208862 200.160656,394.568043 C199.386442,403.831388 201.152903,412.01523 202.513326,421.081232 C202.87628,423.495087 202.519854,428.722708 204.422096,430.782391 C205.760324,432.230442 208.141717,431.703759 209.836371,433.890212 C214.404297,439.789665 215.82925,451.216408 217.932369,458.824401 L217.98443,459.00947 L217.994598,458.873404 C218.645385,451.116673 224.708566,455.101406 229.220439,457.134831 C236.00297,460.19299 243.110592,461.827928 250.447998,462.856463 C256.347951,463.683734 263.041702,465.661082 269.094409,465.34481 C275.451318,465.014163 283.270486,462.497064 289.458975,460.685693 C295.322371,458.971033 298.557619,455.259422 302.604943,450.480069 C306.470789,445.915048 310.677395,442.788931 314.850055,438.715307 C325.36004,428.453486 322.482523,407.191442 313.352545,397.147874 C320.739563,393.356542 333.549995,385.022406 322.315408,376.569342 C319.41178,374.38289 314.569353,373.295545 311.067766,373.844445 Z M217.98443,459.00947 L217.974102,459.148772 L217.974102,459.148772 L218.03843,459.20047 L217.98443,459.00947 Z M253.974653,441.392764 C256.88742,441.613631 258.980278,443.804004 258.213898,446.822955 C257.245152,450.636505 250.615375,453.025528 247.300486,453.237247 C238.515183,454.287999 246.825252,440.853012 253.974653,441.392764 Z M226.23012,426.719353 C226.544766,428.933251 226.232731,430.313343 228.151946,431.032141 C229.619427,431.582348 232.392496,430.450568 234.196819,431.215107 C235.997225,431.979647 236.054671,432.442292 237.160504,434.23798 C235.908445,438.156082 230.162551,442.587798 225.552519,440.231448 C219.819682,437.301366 219.285696,425.744402 220.857624,420.812141 C223.521024,412.453174 225.760108,423.416803 226.23012,426.719353 Z M735.97929,382.581107 C733.587453,383.450199 731.477622,385.913716 729.339068,387.254601 C723.649315,390.821146 717.425576,392.714851 711.976051,396.619885 C715.868009,400.818972 717.906032,406.513158 721.7066,410.55411 C724.085381,413.082972 726.977259,413.363956 729.837803,414.736207 C738.196179,418.747099 748.033786,424.38901 757.266906,426.30624 C751.860466,419.980818 748.430685,414.25788 745.220244,406.571969 C744.072632,403.823547 742.632568,400.91699 741.773491,398.062708 C740.541016,393.974708 741.204254,389.648851 740.159784,385.614435 C739.034367,381.259826 740.586711,380.908268 735.97929,382.581107 Z M210.459919,406.528449 C212.890925,409.398413 214.759222,415.866288 214.965504,419.530851 C212.401329,431.814454 203.815781,414.866505 204.076899,409.365741 C204.319738,404.292334 206.983138,402.42738 210.459919,406.528449 Z M233.720149,399.806904 C237.886281,403.36038 239.246704,409.295037 239.678854,414.198546 C240.148865,419.51373 238.934668,421.77337 233.640508,418.357119 C229.00567,415.365613 226.686945,407.401331 226.446717,402.734372 C226.446717,397.415267 229.68327,396.363208 233.720149,399.806904 Z M317.532908,384.593349 C318.573462,390.139856 306.290488,395.840577 308.295871,387.154884 C307.89375,381.612298 316.42838,378.717503 317.532908,384.593349 Z M897.479249,284.216874 C888.201739,295.543823 876.967153,302.735724 865.357862,311.294647 C855.073743,318.877312 845.281832,327.068995 834.147775,333.363051 C830.878582,335.212322 825.524365,336.287905 824.932933,339.722452 C824.378058,342.951816 830.370708,351.62444 831.755938,355.125639 C836.432555,366.933529 839.88453,379.051156 843.540177,391.235435 C854.436616,374.250892 865.427058,356.984059 878.783226,341.626614 C890.570076,328.074005 902.661129,313.892775 912.964831,299.289414 C906.728036,295.49024 901.560518,290.250857 897.479249,284.216874 Z M965.484729,258.095757 C955.152304,261.32512 943.249256,263.143025 932.480764,262.042611 C927.59917,261.543373 922.790688,261.127777 917.862093,260.823268 C914.172501,260.595867 907.931789,258.796258 904.757904,261.640084 C901.755051,264.328388 902.118004,269.678859 903.646848,273.020616 C904.635178,275.180931 906.007352,275.529874 906.902985,277.319028 C907.19152,277.895373 906.33636,278.891235 907.07924,280.246496 C909.12118,283.976404 916.06952,290.209036 919.812642,292.107969 C924.614595,294.545348 925.332669,291.71067 929.07579,289.254995 C936.957626,284.086184 950.198902,283.992087 959.432022,283.06157 C959.618721,285.048066 986.378058,275.498509 989.019263,273.745949 C993.958303,270.469537 999.745976,255.389156 994.490983,250.919539 C988.148436,245.524634 971.620994,256.175913 965.484729,258.095757 Z M785.532892,186.212041 C782.280671,191.395227 777.955258,196.96003 773.150693,200.837619 C767.724668,205.217059 760.682325,206.917342 754.479476,209.914076 C748.860224,212.627212 743.866349,215.345575 740.359539,220.581038 C737.93245,224.202473 733.485617,229.283721 735.513195,233.95068 C737.587775,238.724805 745.759452,242.073097 749.309346,246.222521 C754.197468,251.935005 754.203996,250.81368 761.525735,249.234938 C765.182688,248.445568 768.656858,248.199869 772.394757,248.33056 C773.906628,248.382836 779.011478,249.864867 780.352318,248.870312 C782.067861,247.596079 780.381041,242.305726 780.597768,240.24735 C780.929388,237.116005 782.041749,233.885335 783.096664,230.933036 C787.279769,219.212708 795.233412,211.48367 802.966411,202.596713 C811.262119,193.061532 822.62857,186.368869 830.804164,176.789253 C835.317582,171.500207 833.262586,167.761151 827.068876,165.284565 C823.921103,164.027322 820.232816,164.03255 817.002791,163.030153 C813.663096,161.993777 810.68766,159.952391 807.109043,159.911877 C791.901551,159.301552 791.417178,176.832381 785.532892,186.212041 Z" fill="#000000"></path></g></g></svg>