<svg xmlns="http://www.w3.org/2000/svg" viewBox="0 0 1024 768" version="1.1"><g id="react-group-59" stroke="none" stroke-width="1" fill="#FFFFFF00" fill-rule="evenodd"><g id="react-group-60"><rect id="react-rect-62" x="0" y="0" width="1024" height="768"></rect><path d="M372.116604,194.471264 C371.411415,206.002867 370.705188,217.53343 370,229.065032 C374.538547,227.757764 403.410765,219.262598 401.627542,227.876228 C400.348025,234.054058 392.23057,240.736921 388.094988,245.038021 C384.288633,248.998274 380.369073,252.854612 376.349811,256.598719 C383.737152,253.771154 391.185769,251.093229 398.688392,248.587805 C404.36521,246.69237 410.083571,244.841619 415.900596,243.421082 C418.059781,242.893186 423.890308,240.740039 425.930057,242.208377 C431.290112,246.065754 402.207064,274.478574 398.223113,278.483512 C403.856311,275.86378 409.624524,273.484094 415.4914,271.442137 C419.726684,269.967563 432.812654,264.333217 436.56085,269.144546 C440.572842,274.292564 430.633736,286.114093 427.877374,289.862357 C423.927696,295.232756 419.647753,300.384931 415.156981,305.311607 C433.822143,322.076439 455.755682,336.997794 479.098559,346.272332 C496.214177,353.072621 513.026532,354.803868 531.087247,351.07223 C549.641283,347.237715 567.435086,339.884591 584.350259,331.477755 C594.284172,326.539648 604.087225,321.197306 613.426037,315.195095 C609.576062,310.511584 605.838252,305.731429 602.206376,300.877495 C597.022878,293.94731 590.652296,286.374923 587.696529,278.125 C584.804114,270.050697 595.656122,271.627108 600.861429,272.065635 C608.399363,272.700565 615.916526,274.04836 623.303867,275.660103 C618.080904,272.027186 612.95245,268.248786 607.926815,264.347765 C601.37656,259.264175 592.640117,253.51552 588.352904,246.201884 C584.582899,239.770499 592.857178,241.394712 596.683266,242.237474 C605.805018,244.247217 614.680629,247.671262 623.380721,251.011135 C629.752342,253.457327 636.084498,256.018866 642.355377,258.716536 C638.462821,255.333018 634.701124,251.78739 631.085865,248.110828 C626.225362,243.169604 619.671992,237.135179 617.493074,230.330733 C613.056307,216.473482 642.903742,226.926432 648,229.065032 C647.058018,214.710021 646.118113,200.355011 645.177169,186 C605.655464,196.516339 566.13272,207.033717 526.609976,217.551095 C522.33938,218.687941 516.993866,221.163229 512.539443,221.295203 C508.504603,221.415746 503.631637,219.599288 499.697537,218.847972 L428.177521,205.182966 C409.490548,201.612399 390.803576,198.041832 372.116604,194.471264" id="react-path-63" fill="#714dd2"></path><g id="react-group-61" transform="translate(215.000019, 39.623399)" fill="#000000"><path d="M581.895547,648.591995 C577.628784,651.033113 572.630992,652.91825 567.890721,654.182975 C565.106786,654.927054 560.506699,657.221642 558.06128,655.11827 C556.886856,654.108152 556.617912,651.814603 555.925303,650.485446 C554.828758,648.381034 553.270128,646.563446 551.810145,644.70325 C548.271297,640.196172 544.589151,635.848093 540.735669,631.607054 C538.910172,629.597211 535.574849,624.906191 532.357903,625.214838 C528.347624,625.599348 528.444194,631.149799 529.44936,633.985819 C532.648653,643.013485 542.333758,650.883466 548.660695,657.685132 C547.052222,660.160544 538.217563,659.865407 535.764875,659.286564 C532.019386,658.402191 531.640372,655.735564 529.931175,652.684426 C525.933357,645.555407 517.822458,641.566897 511.154927,637.37574 C508.724046,635.846015 503.558034,631.610172 500.389892,632.676407 C497.387894,633.686525 497.517693,637.52123 498.474055,640.02574 C499.918461,643.810564 504.027388,646.435623 507.06573,648.827897 C511.117545,652.016211 514.822536,655.486152 518.199395,659.389446 C513.33244,659.786426 508.483139,660.472309 503.628645,660.872407 C497.757563,661.356681 492.864648,658.135113 487.459805,656.309211 C482.43813,654.612172 477.434107,653.178054 472.495503,651.22225 C466.951515,649.026387 461.143776,648.262564 455.550983,646.335858 C433.60244,638.776603 412.096254,629.268819 390.945198,619.685172 C380.866542,615.117819 370.995564,610.548387 360.494282,606.974525 C352.841315,604.369211 340.814631,599.177289 338.98498,590.061289 C338.019273,585.244525 341.538392,580.065074 342.05655,575.252466 C342.66505,569.590819 342.18635,563.36176 340.461577,557.929779 C338.941367,553.144191 336.422222,548.712975 334.436812,544.118603 C332.124308,538.763525 334.194866,538.850819 338.687999,538.241838 C344.065844,537.512309 350.341899,534.485074 355.396803,532.513681 C361.220119,530.240917 366.992554,527.066113 372.325748,523.801936 C377.150128,520.849525 381.347318,517.043917 385.187301,512.910956 C389.093741,508.706289 391.623269,503.724289 395.39991,499.41674 C409.339317,516.559642 422.588191,533.963387 437.399849,550.365328 C444.39032,558.107485 451.992406,564.509054 460.606926,570.395172 C464.203924,572.854995 467.772885,575.661917 471.691786,577.60525 C476.593008,580.038054 482.071577,581.546995 487.108828,583.76676 C506.422964,592.276897 524.855503,601.579956 542.873723,612.560309 C551.591044,617.87174 558.906533,623.961544 566.582344,630.624995 C568.97169,632.69927 588.54231,644.788466 581.895547,648.591995 M355.329308,508.151348 C352.207894,509.565721 349.232894,511.402015 345.902763,512.30925 C346.846664,506.565505 352.206856,497.901564 359.07895,498.854525 C361.70505,499.21825 363.685268,501.257191 362.531611,504.06827 C361.482833,506.622662 357.55251,507.145387 355.329308,508.151348 M138.076428,352.358368 C134.53758,354.312093 131.240678,355.450034 129.165966,351.256799 C130.702789,350.948152 137.683915,350.018054 138.076428,352.358368 M132.184578,340.504034 C129.450486,339.67474 131.637344,338.802838 132.57813,337.802074 C133.311236,337.023701 135.737964,334.291603 136.587371,333.840583 C140.338051,331.853603 143.237248,339.246583 145.030556,341.646132 C140.784561,341.268897 136.318426,341.757328 132.184578,340.504034 M161.421611,366.101995 C156.238985,366.980132 156.814255,360.495426 156.968976,357.210466 C158.062406,358.544819 165.463043,365.417152 161.421611,366.101995 M178.597693,354.901328 C172.279063,355.967564 168.10368,345.050603 169.236568,340.275407 C170.233426,336.068662 175.130495,333.720034 179.028627,333.099623 C182.807344,332.497917 188.067851,333.318897 189.190355,337.676328 C190.182022,341.527662 182.809421,354.190505 178.597693,354.901328 M328.17114,519.704309 C323.630241,521.099975 319.180721,521.275603 314.616978,522.645289 C309.438505,524.199956 304.646315,524.06174 299.457458,525.119662 C297.346402,525.548858 291.651847,528.624936 289.592711,527.938015 C287.553304,527.257328 284.601149,520.927466 283.428802,519.281348 C292.609247,515.465348 300.440817,510.538426 306.491542,502.498015 C311.303461,496.103721 316.463243,486.52423 313.436324,478.271819 C310.022083,468.967721 298.253959,466.947485 290.407851,470.834152 C286.695591,472.671485 283.016559,474.956721 279.956411,477.757407 C276.457022,480.95923 275.081149,484.455152 272.814334,488.404172 C270.521559,492.398917 268.913086,490.177074 266.622388,486.785074 C264.665015,483.885662 264.92046,480.958191 262.474002,478.09723 C261.225852,476.638172 259.2934,475.230034 258.642327,473.344897 C258.229046,472.149799 259.099221,470.030838 258.316271,469.089309 C257.214535,467.767426 255.875006,469.321054 254.951873,468.140505 C254.282109,467.283152 254.50121,465.328387 253.808601,464.255917 C253.208409,463.645897 252.540721,463.12525 251.802423,462.692936 C250.906289,462.25023 250.743261,461.696328 251.311262,461.03123 C250.598924,459.712466 251.285303,459.267681 249.759901,457.663132 C247.381978,455.162779 245.21381,452.766348 243.521228,449.814975 C242.747624,448.463995 242.824465,446.460387 241.862912,445.29127 C240.544151,443.685681 238.346908,443.926779 237.212981,441.939799 C236.202624,440.168975 236.878618,437.072113 235.213034,435.464446 C234.334552,435.213995 233.45607,434.967701 232.57655,434.724525 C231.915093,434.082289 231.529849,433.302877 231.419779,432.38525 C230.49457,430.960485 230.310774,429.287348 229.14258,427.782564 C226.906917,424.904975 223.899727,422.245623 221.9247,419.211113 C219.84895,416.02176 220.949648,415.484485 224.555992,414.343426 C227.808243,413.312525 230.778051,412.356446 233.79251,410.60225 C247.72984,402.491172 260.943409,380.976289 238.821454,374.40325 C230.611908,371.964211 223.867536,365.404681 214.764971,367.982975 C210.819072,369.101172 207.07566,371.480975 204.131812,374.304525 C202.097598,376.257211 200.21395,381.47823 197.716611,382.478995 C193.226594,384.276838 195.124779,379.784309 193.850669,377.720426 C193.24217,376.73525 190.792598,375.600426 189.885041,374.703583 C188.819648,373.652936 187.789561,372.325858 187.050224,371.025799 C185.677467,368.61274 184.837406,367.267995 182.857187,365.302838 C182.110582,364.560838 178.383784,360.728211 181.745067,361.229113 C180.383732,357.080564 182.37018,356.457034 185.115695,353.425642 C188.33991,349.866328 191.669002,344.920701 191.687693,339.933505 C191.725076,330.358172 180.37854,326.068289 173.253077,331.75176 C171.803479,332.908407 163.227379,344.072701 164.982266,336.953034 C165.928243,333.113132 174.688139,323.088858 178.749299,325.68274 C174.198016,319.049426 163.743461,335.155191 161.303234,338.450544 C159.225407,334.625191 159.077955,331.63225 155.639831,328.670485 C152.841358,333.159897 154.318994,328.25376 153.702187,327.256113 C152.368889,325.102858 153.100957,327.565799 152.378234,326.800936 C151.477947,325.847975 150.060538,325.096623 149.103139,323.835015 C147.462475,326.061015 148.117702,323.665623 147.615119,322.83425 C146.439657,320.889877 146.894474,319.763368 144.879988,318.072564 C143.413776,316.843172 140.526001,314.934132 138.553051,314.759544 C136.277929,314.557936 135.647624,315.429838 133.329927,314.784485 C130.380887,313.964544 126.669666,312.705015 128.097458,317.637132 C129.133776,321.221387 133.34758,323.25825 134.270713,326.920446 C135.200076,330.606544 131.555311,334.32174 129.786926,337.343779 C127.515957,341.221093 125.659308,340.904132 121.545189,341.778113 C118.915974,342.337211 115.40724,343.532309 117.661594,346.721662 C119.272144,349.000662 123.045669,348.520544 125.171262,349.870485 C128.151454,351.762897 128.109919,356.428975 131.914596,357.240603 C136.104517,358.134328 138.505285,353.469289 142.037903,352.342779 C144.549779,351.541544 152.331507,351.630917 154.30861,353.517093 C157.003243,356.087074 154.675163,360.997368 155.353234,364.189838 C156.361515,368.924505 159.564962,369.213407 163.615739,369.365132 C168.603147,369.551152 170.355957,374.339858 173.03813,378.138191 C179.320416,387.034917 184.780294,396.518799 191.215224,405.297054 C194.06354,409.183721 198.230617,412.641191 200.562851,416.859368 C203.443357,422.068956 199.4445,425.073328 195.993915,428.812426 C191.485207,433.698819 188.118732,439.258623 184.208139,444.599152 C180.732632,449.34525 176.41395,448.163662 170.860617,448.163662 C172.098383,445.612387 173.58744,444.021348 176.632013,444.331034 C173.448296,440.443328 170.902152,444.890132 168.836786,447.353074 C165.849325,450.915505 161.954308,451.774936 158.116402,454.117328 C156.758182,454.945583 149.362737,460.317289 151.609823,462.151505 C151.865268,462.359348 164.106899,454.306466 165.501463,453.567583 C165.501463,456.540779 164.851428,459.629328 165.267824,462.585897 C165.573112,464.753701 167.097475,467.015034 166.772458,469.269093 C166.15669,473.523642 160.658392,476.875113 158.298121,480.190211 C156.521428,482.685368 156.950285,484.653642 156.045844,487.331701 C155.221358,489.774897 155.654369,489.036015 153.599386,489.790485 C149.414657,491.327485 142.372266,490.498191 138.583165,488.312721 C136.231201,486.956544 134.42751,484.812642 132.516865,482.923348 C131.07765,481.498583 127.457807,479.065779 127.058025,477.072564 C126.371646,473.641074 133.184552,467.264446 134.533426,463.724877 C138.341219,453.734897 131.810756,445.969877 121.649029,445.402466 C124.780826,442.986289 128.663383,444.806995 131.964439,445.728779 C126.320765,437.908681 116.682388,444.343505 111.89539,449.658054 C108.624447,441.390054 107.047126,432.667917 105.049255,424.044505 C103.68792,418.173975 98.5073706,407.694525 100.817798,401.649407 C101.935111,398.727132 105.088714,397.097642 107.270381,395.071172 C109.749029,392.76827 111.871507,390.015387 113.683505,387.164819 C117.953383,380.450446 120.418531,371.974603 114.54018,365.357917 C116.326219,365.063819 118.113296,364.77076 119.899334,364.476662 C116.993906,361.746642 112.410433,363.076838 108.640023,362.267289 C106.247563,361.753917 99.364046,362.086466 97.7669954,360.732368 C95.8459657,359.104956 97.0775015,351.614289 97.1460355,349.397642 C97.3038715,344.217152 97.736882,339.236191 98.3090373,334.086877 C98.8510792,329.222309 98.7420478,323.966995 99.7472136,319.187642 C100.563392,315.309289 103.1708,314.127701 106.180067,311.842466 C113.371987,306.37723 119.232685,299.730407 116.776882,290.313034 C117.647056,290.174819 118.517231,290.036603 119.387406,289.898387 C116.573357,287.863603 112.931707,288.603525 109.801987,287.527936 C112.676262,279.437642 119.033313,265.215975 129.354954,264.450074 C129.710084,268.066544 129.4671,272.367858 131.907327,275.361838 C134.685032,278.769426 139.561332,279.113407 143.324474,277.310368 C146.738714,275.672564 149.944238,272.202623 151.518444,268.77425 C152.582798,266.453681 152.390695,262.529603 154.259805,260.690191 C156.766489,258.223093 174.047449,259.71125 173.517868,263.875387 C173.20635,266.323779 168.585495,270.439074 167.293732,272.608956 C164.930346,276.579799 163.038392,280.874877 162.170294,285.435995 C160.852571,292.361328 161.615791,301.504348 168.648837,305.14576 C176.647589,309.288074 186.396036,304.021328 192.955573,299.471642 C196.557763,296.973368 200.046769,294.216328 203.33744,291.321074 C205.09025,289.780956 206.851367,288.193034 208.396498,286.440917 C209.536655,285.147093 210.448365,283.061387 211.852275,282.092838 C215.168906,279.804485 218.420119,283.686995 221.226899,285.647995 C225.79895,288.842544 230.348156,291.876015 235.255608,294.534328 C245.21381,299.928897 254.319491,307.074544 263.124037,314.16927 C271.980503,321.306603 281.112144,328.648662 288.286411,337.540191 C283.94073,340.213054 284.716411,340.90725 282.78292,345.675172 C281.411201,349.058858 279.521324,351.938525 279.303261,355.698407 C278.926324,362.18623 283.091324,367.715897 289.413069,369.152093 C292.948802,369.955407 296.317353,369.312132 299.592449,367.866583 C302.137554,366.743191 304.67539,363.977838 307.334718,363.290917 C312.278514,362.015799 316.234796,371.35523 319.006271,374.645387 C331.31436,389.25676 344.324404,403.290328 355.913924,418.498211 C357.197379,420.182779 361.010364,423.472936 361.319805,425.703093 C361.765276,428.905956 356.726987,431.957093 354.637737,433.793387 C353.540154,434.75674 341.903906,445.702799 345.811385,447.442446 C346.924543,447.938152 350.185102,441.22274 351.000241,440.648054 C354.052083,438.497917 351.743732,442.712975 351.562013,444.843368 C351.107196,450.139211 354.744692,453.025113 359.857746,452.353779 C365.314508,451.63776 370.172118,447.330211 373.548976,443.261681 C377.780433,448.162623 384.395006,455.571191 385.618234,462.11825 C386.400145,466.301093 382.781341,476.537368 389.537135,477.390564 C390.568261,477.520466 394.30025,474.751995 394.995974,476.323289 C395.576437,477.635819 391.542275,479.878446 390.959735,480.312838 C388.473819,482.168877 386.972301,484.156897 384.965084,486.404721 C382.608967,489.043289 379.388906,491.266172 376.737885,493.794583 C373.944604,496.458093 368.420346,503.692074 364.735084,500.197191 C362.882589,498.440917 363.369596,496.14425 360.402903,495.113348 C357.701001,494.174936 354.278453,495.364838 351.767615,496.406132 C348.941105,497.577328 339.631899,501.853701 338.598697,505.374564 C337.17402,510.229779 344.868522,504.392505 346.236088,503.539309 C344.676419,507.49976 343.813514,513.233113 339.840617,515.543289 C336.539561,517.462721 331.792022,518.591309 328.17114,519.704309 M275.402013,489.750995 C278.043688,481.259564 293.623758,466.11923 303.470852,470.854936 C291.994517,473.259681 282.887798,481.114074 275.402013,489.750995 M281.228444,514.067603 C277.388461,511.927858 277.595102,505.71127 276.254535,502.075054 C275.485084,499.988309 273.946184,498.463779 274.398924,496.148407 C274.928505,493.433975 278.390512,490.416093 280.233662,488.458211 C286.034133,482.295662 296.24155,473.874897 305.577755,475.287191 C317.46114,477.086074 309.405276,493.040113 305.358653,498.533407 C301.910145,503.217152 288.620774,518.188093 281.228444,514.067603 M253.506428,503.682721 C240.655259,502.824328 227.847702,501.675995 215.172022,499.316975 C210.677851,498.480407 206.912632,498.604074 209.483697,493.437093 C210.333104,491.73174 215.452388,481.043407 216.608121,481.349975 C217.293461,481.531838 217.136664,488.878054 217.338112,489.719819 C218.245669,493.501525 220.793889,497.025505 225.089727,496.785446 C232.118618,496.393662 236.649133,487.305721 240.349971,482.427642 C243.314587,486.414074 245.460948,490.842172 248.44114,494.762093 C249.865817,496.635799 254.825189,500.99427 253.506428,503.682721 M178.163645,453.237113 C176.007938,458.184819 171.671603,462.890387 168.656105,467.372525 C166.951062,463.763328 165.751716,455.477662 169.796262,452.808956 C171.326856,451.799877 179.527056,450.109074 178.163645,453.237113 M222.734648,467.970074 C223.327571,466.065191 223.984875,464.175897 224.717981,462.320897 C225.975477,466.27823 226.618243,466.395662 222.734648,467.970074 M233.735399,472.023015 C235.295067,474.666779 237.895207,477.266897 237.487118,480.587191 C237.177676,483.103132 234.903592,485.681426 233.279543,487.434583 C230.592179,490.335034 224.638025,495.902113 220.744046,492.050779 C217.490756,488.833368 218.623645,479.987564 220.136585,476.367975 C222.297484,471.195799 230.016908,465.724328 233.735399,472.023015 M226.1032,466.604544 C226.997257,466.249132 225.118802,460.478368 226.862266,459.903681 C228.382475,463.370505 229.81546,464.308917 226.1032,466.604544 M201.547248,388.941877 C200.967824,386.812525 199.639718,386.901897 200.118418,384.269564 C200.432013,382.543426 201.801655,380.700897 202.841088,379.333289 C204.911646,376.607426 207.643662,374.360642 210.597894,372.659446 C216.834491,369.069995 225.399168,367.578721 230.982615,373.198799 C225.762606,374.022897 209.75991,379.175328 209.658147,386.315779 C215.462772,385.197583 220.027554,379.366544 225.849831,377.529211 C230.628522,376.02027 235.811149,376.12627 240.564919,377.719387 C253.578077,382.077858 248.167004,393.325289 240.82244,400.630975 C236.462222,404.968662 231.233906,408.206858 225.518584,410.441172 C222.873793,411.475191 221.250782,411.589505 218.650643,411.069897 C218.163636,410.972211 217.594596,410.069132 217.011018,409.875838 C215.560381,409.394681 215.980931,411.023132 214.785739,410.291525 C213.743191,409.654485 211.51895,405.539191 210.809727,404.360721 C209.680992,402.485975 209.154526,400.662152 207.769308,398.950564 C206.382013,397.237936 205.707056,394.942309 204.423601,393.392838 C203.807833,392.646681 202.119404,392.676819 201.665625,391.949368 C200.985477,390.856113 201.851498,390.060074 201.547248,388.941877 M181.56231,472.823211 C184.519657,467.684289 189.579753,463.321662 193.4945,458.830172 C193.735407,466.21276 188.441673,471.267505 181.56231,472.823211 M185.55909,475.196779 C191.666926,473.047681 195.032362,467.905642 195.655399,461.671387 C196.445617,453.774387 201.40395,449.629995 204.389334,442.53527 C205.533645,439.816681 206.867981,430.870074 211.305041,433.430701 C212.827327,434.308838 213.729692,437.612505 214.523025,439.104819 C216.441978,442.715054 218.623645,446.215132 220.658898,449.759897 C222.316175,452.646838 224.800015,455.548328 224.068985,459.023466 C223.431411,462.052779 221.379543,465.280583 220.178121,468.137387 C217.341228,474.885015 213.61443,481.099525 210.500285,487.698544 C209.243828,490.361015 207.756847,496.663858 203.921018,496.631765 C200.884753,496.605662 201.224308,493.286407 199.225399,492.148466 C196.7021,490.71227 193.833016,493.445407 191.760381,494.578152 C194.146611,490.548074 198.319919,488.265956 203.010346,489.024583 C197.393671,483.431525 193.599378,490.978309 188.779151,492.658721 C184.212292,494.251838 176.1097,486.740387 172.264526,484.612074 C173.735931,482.121074 175.065076,479.074093 177.594604,477.43525 C179.994334,475.879544 182.939221,476.118564 185.55909,475.196779 M135.900992,526.309564 C136.569718,523.089034 138.459596,521.185191 139.657903,518.260838 C141.047275,521.806642 137.793985,523.898583 135.900992,526.309564 M232.943104,546.071289 C232.614971,556.916544 231.729221,567.732701 231.409395,578.581074 C231.261943,583.583858 230.376193,588.355936 229.788461,593.300525 C229.29107,597.482328 229.544439,601.589309 226.912109,605.162132 C222.761646,610.794681 214.693322,612.413779 208.428688,614.500525 C203.828601,616.032328 199.175556,617.422799 194.63258,619.125034 C190.54546,620.656838 187.250634,622.977407 183.363924,624.798113 C179.887379,626.427603 176.133584,627.393034 172.672615,629.128525 C169.093269,630.924289 166.263645,633.111838 162.58669,634.710152 C158.184936,636.623348 154.557824,640.027819 150.643077,642.729779 C147.196646,645.108544 143.550844,646.945877 140.586228,649.93674 C137.806446,652.743662 134.287327,653.974093 131.136838,656.467172 C127.805669,659.103662 124.318741,660.817328 120.638671,662.884328 C113.099927,667.121211 102.928854,674.35623 93.856402,670.240936 C96.4513497,666.926877 101.761699,663.741681 102.165634,659.175368 C102.691062,653.226897 97.5136272,655.416525 94.5157825,657.316211 C89.9748837,660.19276 87.4630076,663.665819 84.0061926,667.500525 C79.9647615,671.982662 74.8600146,668.966858 69.9151804,667.706289 C73.2961926,664.662426 76.6502066,661.590505 80.0249884,658.541446 C82.8743427,655.968348 87.2335225,653.185328 88.9686795,649.627054 C90.2085225,647.082015 90.1482956,643.594407 87.1556429,642.273564 C83.8078593,640.796838 80.0218732,643.911368 77.5421874,645.766368 C70.9598052,650.691211 66.6245085,656.936897 62.3027109,663.790525 C60.0037057,667.435054 58.9445434,667.155505 54.7151629,666.427015 C50.2334526,665.654877 45.750704,664.831819 41.2316115,664.290387 C47.2179553,658.142387 53.9083305,651.482054 58.6361403,644.288603 C60.167772,641.957642 62.1656429,635.814838 57.4990984,635.249505 C55.5759919,635.016721 51.7474317,638.949113 50.2635661,640.009113 C43.7808698,644.642975 37.5484265,650.487525 33.2515504,657.252819 C31.8331036,659.486093 31.3876324,661.969819 28.6410792,662.154799 C25.0503113,662.397975 18.3775888,658.970642 14.913505,657.911681 C21.5343078,649.56574 28.1083828,641.159525 35.8433828,633.799799 C42.9501542,627.036583 50.0392729,622.123172 58.3505818,616.936446 C67.2589675,611.375603 75.5567773,604.975074 83.7351717,598.406191 C91.5636272,592.117897 99.7420216,586.187093 106.948479,579.166152 C121.342702,565.141936 134.163758,549.013309 144.781341,531.95874 C147.26518,527.968152 149.603645,523.873642 151.625399,519.627407 C153.523584,515.639936 154.39895,510.870975 156.961707,507.244113 C157.847458,505.990819 159.09457,505.059681 159.883749,503.752348 C160.628278,502.520877 160.375948,501.032721 161.510913,499.942583 C164.135974,497.422485 168.915704,498.941819 171.36943,500.708485 C175.315329,503.548662 178.507353,506.996779 182.843688,509.374505 C187.205983,511.76574 191.924447,513.504348 196.75402,514.679701 C208.042406,517.42427 219.233182,519.67625 230.7334,521.344191 C229.549631,525.732799 232.456097,526.423877 233.418688,530.372897 C234.58792,535.164721 233.089517,541.191132 232.943104,546.071289 M124.249168,472.888681 C121.689526,469.086191 119.406097,465.110152 116.890067,461.282721 C115.358435,458.95176 113.459212,456.448289 114.768627,453.597721 C116.974177,448.791348 124.754866,447.936074 128.976978,450.031132 C138.575896,454.794897 129.659203,468.414858 124.249168,472.888681 M98.8417336,385.920877 C97.95806,378.488407 100.800145,373.215426 107.523749,369.318368 C112.31594,366.540544 116.174613,370.336799 115.520425,375.399858 C114.524604,383.113956 106.28183,391.693721 99.9912362,395.718603 C99.5800321,392.456505 99.2311315,389.186093 98.8417336,385.920877 M97.8168383,364.655407 C99.8001717,363.080995 105.111559,365.089799 107.409526,365.226975 C104.249692,367.988172 101.088819,370.749368 97.9279465,373.510564 C97.7213061,371.616074 95.9871874,366.10823 97.8168383,364.655407 M108.481149,292.877819 C124.473461,290.798348 106.063767,307.960995 101.429413,310.650485 C102.183287,306.998681 104.035782,293.456662 108.481149,292.877819 M151.05532,262.830975 C148.90792,271.626897 132.213653,281.223015 132.039203,266.814289 C131.974823,261.445701 134.99032,261.880093 139.392074,261.364642 C141.902912,261.071583 152.282702,257.802211 151.05532,262.830975 M93.3922397,276.453015 C91.5179378,281.371623 90.0153811,286.418054 88.1784614,291.342897 C87.3643602,293.523172 86.4069605,295.021721 84.8909047,296.749936 C83.6219867,298.194446 82.1121612,298.559211 82.1620041,300.842368 C83.751786,300.535799 84.9957825,299.588034 86.2802764,298.674564 C85.9687581,303.201387 84.3685923,308.07323 83.59395,312.585505 C82.6656254,317.996701 81.89306,323.409975 81.6064631,328.897034 C80.9844649,340.82827 80.9792729,352.716897 81.2409483,364.655407 C81.3749012,370.738975 81.435128,376.825662 81.7632607,382.901956 C81.927327,385.925034 82.1121612,388.960583 82.4859832,391.964956 C82.6375888,393.177721 83.5181472,395.760172 82.9740286,396.897074 C80.8380513,401.359466 71.3762013,389.101917 67.2672746,390.900799 C67.8581211,387.504642 66.4947092,388.247681 64.2175102,386.577662 C63.1147354,385.768113 62.3972048,384.391152 61.2466638,383.669936 C60.8988017,383.294779 60.5156341,382.961191 60.0981996,382.668132 C59.622615,382.019662 59.1210704,382.089289 58.5935661,382.874936 C53.9644038,380.107505 52.7681734,374.209956 50.2832956,370.24223 C49.0050321,368.20225 47.7703811,367.88425 47.5523183,365.063819 C47.3633305,362.606074 47.7329989,360.101564 47.633313,357.633426 C47.520128,354.849368 47.3571001,351.779525 46.5762275,349.083799 C45.6697092,345.953681 44.4225975,346.209328 41.993793,344.541387 C42.7424753,344.214034 43.2357127,343.664289 43.4745434,342.892152 C42.6988628,343.030368 40.3417074,343.991642 39.756053,343.300564 C38.6044736,341.943348 41.3219518,341.762525 42.0363671,341.221093 C38.9886795,339.868034 39.6449448,338.756074 40.7446045,336.276505 C41.0561228,335.575034 41.3531036,334.526466 41.6178942,333.935152 C42.1962799,332.642368 42.5285661,333.46127 42.7196307,331.855681 C42.9013497,330.324917 41.5441682,327.314309 41.1443863,325.683779 C40.4735835,322.947525 40.1028767,320.583309 40.7051455,317.73274 C41.1931909,315.424642 42.5057214,313.334779 42.5971001,310.961211 C42.62306,310.295074 41.6075102,310.073721 41.5940111,309.430446 C41.5742816,308.489956 42.4517249,308.076348 42.6801717,307.207564 C43.2627109,304.983642 42.9999972,302.631897 43.9968558,300.52125 C44.8940286,298.625721 46.7060268,296.173172 47.9884439,294.51874 C48.8773095,293.372485 51.0579378,292.08074 51.2967685,290.567642 C51.4546045,289.564799 49.8938977,289.680152 49.9634701,288.924642 C50.057964,287.902054 50.9156778,287.570544 51.1513933,286.810877 C51.8003898,284.725172 51.9634177,282.720525 53.6404247,281.122211 C55.752519,279.110289 56.6704596,279.953093 56.7576848,276.634877 C56.8002589,275.015779 55.5053811,274.766368 56.1990286,272.899936 C56.5759657,271.886701 57.6880862,271.288113 58.3993863,270.570015 C60.5114806,268.439623 61.9351193,266.547211 63.4387144,263.914877 C64.7688977,261.589113 66.8903375,260.236054 68.2527109,258.22725 C70.027327,255.609466 67.3742293,254.311485 70.9753811,253.572603 C70.4634526,251.94727 69.919334,250.633701 71.2661315,249.257779 C72.1155382,248.390034 74.271245,248.921074 75.0230425,247.917191 C75.8849099,246.764701 74.6107999,244.033642 75.9098314,243.285407 C76.9658785,242.678505 78.5473532,244.551172 80.2067074,243.624191 C81.4714718,242.917525 83.3810792,239.01527 82.9740286,237.581152 C86.2439326,239.420564 85.428793,238.15376 86.9936533,235.793701 C87.3446307,235.26474 88.4079465,235.147309 88.7101193,234.613152 C89.3144649,233.545877 89.1763584,232.457819 90.0465329,231.590074 C91.4971699,230.145564 93.8699012,230.516564 95.4659134,229.484623 C96.7846743,228.632466 96.7151019,227.713799 97.7669954,226.909446 C98.666245,226.222525 100.142842,226.090544 101.01717,225.378681 C102.729482,223.984054 102.746097,222.511485 104.888304,221.310152 C107.425102,219.888505 109.672187,218.678858 111.9795,216.793721 C113.484133,215.565368 114.911926,213.387172 116.672004,212.576583 C119.106001,211.45527 121.002109,211.376289 123.383147,209.776936 C125.103767,208.620289 126.730931,206.712289 128.420399,205.737505 C129.694508,205.003819 130.588566,205.161779 132.194962,204.706603 C135.085852,203.886662 135.789884,201.162877 138.148077,200.054034 C139.766934,199.292289 142.12409,199.989603 143.901821,199.589505 C149.434386,198.347642 154.899456,195.668544 160.450713,194.184544 C167.227275,192.37423 174.051603,190.788387 180.880084,189.187995 C174.605067,197.692936 166.612545,205.366505 158.506838,212.121407 C155.846472,214.339093 141.266376,224.447544 149.124945,228.764446 C152.279587,230.496819 159.13299,224.900642 161.680172,223.533034 C166.808802,220.778074 172.121228,218.572858 177.492842,216.344779 C186.179011,212.741819 197.49128,206.334015 207.144194,206.849466 C201.26792,214.058505 193.932702,219.845897 187.212214,226.214211 C181.035844,232.067074 171.729753,237.556211 174.642449,247.135701 C165.966664,244.928407 158.174552,242.319975 149.155058,242.897779 C145.114666,243.156544 141.072196,242.670191 137.050495,243.236564 C132.676777,243.854897 128.558505,245.318113 124.356123,246.602583 C121.031184,247.617897 117.357344,247.697917 114.298234,249.386642 C112.819561,250.203466 110.991987,251.369466 109.66388,252.382701 C107.893418,253.733681 107.490521,254.628446 106.100111,256.408623 C101.1397,262.760309 96.3402415,268.715015 93.3922397,276.453015 M66.2589937,396.671564 C65.9879727,395.572074 65.7418732,394.56923 65.4313933,393.313858 C68.1924841,395.014015 68.1924841,395.014015 66.2589937,396.671564 M45.3924579,361.658309 C45.0518645,362.129074 43.6219954,362.27976 43.2066376,361.873426 C42.6895172,361.368368 44.0487755,359.402172 44.2668383,358.984407 C44.805765,359.398015 46.045608,360.752113 45.3924579,361.658309 M39.4808785,348.915446 C39.8463933,347.572779 40.2129465,346.231152 40.5784614,344.888485 C41.0270478,346.132426 43.0508785,347.508348 43.0955294,348.694093 C43.1235661,349.47974 39.8806603,349.088995 39.4808785,348.915446 M40.6542642,350.756936 C43.8224055,352.842642 44.1536533,355.303505 44.2481472,358.903348 C40.4569692,357.647975 41.0010879,353.977466 40.6542642,350.756936 M95.7493951,208.697191 C95.4295696,209.562858 94.0723881,212.259623 93.0776062,210.373446 C92.7598575,209.769662 95.0879378,208.945564 95.7493951,208.697191 M94.8397615,205.75725 C95.6227109,205.051623 97.2010704,205.92976 98.0868209,205.35923 C98.7077807,204.959132 98.5021787,204.553838 98.7939675,204.316897 C98.8521176,204.269093 99.6963322,202.560623 100.042118,202.172995 C100.652693,201.49127 101.984954,201.06623 102.727406,200.451015 C104.802118,198.731113 105.973426,196.469779 107.278688,194.169995 C108.83628,191.423348 109.332632,191.105348 111.844508,189.847897 C113.57655,188.981191 114.919194,187.920152 116.328296,186.446544 C117.952344,184.749505 117.832929,183.534662 119.166228,181.679662 C119.82457,180.764113 120.772624,180.650838 121.539997,179.912995 C122.460015,179.029662 122.927292,177.794034 123.777737,176.902387 C124.145329,176.516838 125.324945,176.517877 125.547161,176.187407 C125.830643,175.769642 126.051821,174.098583 126.31765,173.790975 C126.825425,174.476858 127.334238,175.16274 127.840974,175.848623 C129.842999,172.32776 131.30402,169.418995 134.651803,167.075564 C138.167807,164.614701 141.203034,161.014858 144.837414,158.811721 C145.653592,158.317054 147.318139,158.108172 147.942214,157.378642 C148.997222,156.144054 148.083435,155.045603 148.852885,153.997034 C149.726175,152.808172 151.41772,153.770485 152.527763,153.258152 C153.932711,152.609681 154.33457,150.715191 156.143453,150.924074 C150.195529,157.960603 150.270294,168.90874 149.954622,177.697387 C149.817554,181.484289 152.202746,183.393328 148.68155,186.172191 C145.686821,188.536407 141.463671,187.834936 137.922746,189.390642 C133.476341,191.344368 128.720495,192.383583 124.183749,194.086858 C119.491245,195.847289 115.71772,198.930642 111.201742,200.970623 C107.2195,202.768466 104.499945,205.324936 100.857257,207.544701 C99.5031909,208.369838 97.4056341,209.568054 95.7909308,208.581838 C94.7795347,207.963505 93.5199622,206.948191 94.8397615,205.75725 M162.014535,146.757858 C162.273095,145.758132 167.349805,143.130995 168.598994,142.273642 C170.473296,140.985015 173.247885,137.83827 175.34025,139.088446 C176.06505,136.184877 178.893636,132.953956 181.393051,132.33874 C184.165564,131.654936 188.922449,129.277211 191.650311,127.201897 C192.44676,126.596034 192.709474,125.709583 193.647144,125.141132 C195.2795,124.15076 196.899395,124.691152 198.471524,123.341211 C198.712432,123.135446 200.887868,119.542877 200.974055,119.577172 C201.085163,119.962721 201.186926,120.352426 201.275189,120.744211 C202.926236,119.828662 204.396603,119.100172 205.425652,117.932093 C205.65929,117.667093 204.14635,116.978093 204.624011,116.453289 C205.208627,115.811054 206.513889,116.529152 207.104735,115.919132 C205.266777,125.043446 206.635381,136.787623 215.891629,141.413172 C204.88361,142.603074 194.132074,139.293172 182.988025,141.325877 C177.653793,142.299623 172.231297,143.896897 167.37888,146.350485 C164.405957,147.85423 160.604395,153.239446 157.644971,150.624779 C158.819395,149.058681 160.610625,148.085975 162.014535,146.757858 M215.427467,120.508309 C219.543662,115.473309 225.787528,113.481132 232.076044,115.284172 C239.438261,117.395858 236.333461,122.539975 235.221341,128.251505 C233.096786,125.136975 228.494622,122.047387 224.575721,121.953858 C219.020311,121.821877 221.119945,126.450544 224.456306,128.109132 C227.489456,129.615995 232.690774,130.035838 234.862056,132.77625 C236.975189,135.442877 236.165241,139.803426 236.505835,142.948093 C234.863095,142.703877 233.220355,142.459662 231.576577,142.215446 C232.955564,134.876505 226.887187,134.521093 221.228976,132.452015 C215.510538,130.362152 210.743269,126.238544 215.427467,120.508309 M233.866236,102.436348 L233.866236,109.247368 C231.577615,107.942113 229.287955,106.637897 226.998296,105.332642 C229.287955,104.367211 231.577615,103.401779 233.866236,102.436348 M252.266585,156.859034 C259.910207,158.930191 267.50087,161.121897 274.848549,163.97974 C277.517222,165.017917 280.440303,165.38476 283.05498,166.556995 C285.54505,167.672074 285.918871,167.555681 285.033121,169.738034 C282.552397,175.85174 276.675084,174.795897 271.525687,173.860603 C263.465669,172.396348 255.572833,170.36676 247.61354,168.456681 C239.833889,166.591289 231.890172,165.368132 224.227859,163.029897 C216.365137,160.631387 208.702824,158.359662 200.61477,156.775897 C198.2545,156.313446 179.58313,154.600819 179.724581,152.649172 C191.484168,151.121525 203.590809,152.626309 215.402545,152.785309 C227.678444,152.950544 240.360355,153.63123 252.266585,156.859034 M241.890948,133.209603 C242.037362,129.005975 242.095512,124.788838 242.617824,120.610152 C246.116175,124.928093 249.273933,126.220877 253.683994,122.173132 C257.906105,118.298936 258.847929,116.278701 264.200852,119.921152 C268.841437,123.080368 273.231769,122.934877 278.159988,120.169525 C281.16614,118.482877 285.996751,111.590799 289.156585,113.009328 C290.662257,113.685858 291.76607,116.411721 293.28628,117.414564 C295.19381,118.670975 298.127275,119.542877 300.350477,120.03027 C305.601638,121.180681 308.73032,117.80323 312.026184,114.190917 C316.805913,108.95223 316.66573,111.995054 321.097598,115.627113 C326.040355,119.679015 330.173165,117.699309 334.648645,114.241838 C337.375468,122.230289 338.395172,130.954505 339.16566,139.329544 C339.425259,142.15725 340.396158,146.172779 337.856245,148.17223 C336.066053,149.582446 332.266568,149.637525 330.109823,150.416936 C322.404936,153.203074 315.001184,157.155211 308.556908,162.215152 C306.04607,164.186544 303.857135,166.600642 300.42628,166.151701 C297.156376,165.723544 293.978889,162.98625 291.348636,161.179054 C288.495128,159.219093 285.607353,156.993093 282.27203,155.900877 C280.31881,155.260721 277.190128,155.492466 275.480931,154.319191 C272.303444,152.137877 276.042702,146.415956 275.251446,142.575015 C274.652292,139.658975 272.974247,133.578525 268.957737,135.288034 C262.980739,137.830995 266.45936,147.758623 269.745878,150.857564 C263.022275,149.663505 255.578025,147.919701 249.093252,145.704093 C244.084037,143.992505 241.711306,138.337093 241.890948,133.209603 M354.657467,153.68423 C368.459805,149.808995 381.375355,147.195368 395.739465,146.48974 C402.097554,146.176936 408.253156,146.374387 414.540634,146.431544 C418.160477,146.464799 420.918453,143.545642 418.026524,140.187936 C414.024552,135.538485 401.817187,137.30827 396.408191,137.099387 C381.910128,136.53925 368.616603,138.187446 354.885913,142.966799 C356.337589,140.291858 359.825556,139.94476 362.216978,138.561564 C365.149404,136.863485 367.143121,134.066956 368.396463,130.962819 C371.655983,122.890191 368.374657,115.283132 364.96457,107.908858 C371.663252,109.710858 378.592458,113.65676 385.326446,114.658564 C386.738662,114.868485 387.644142,114.733387 388.89333,115.247799 C389.659666,115.562681 389.901611,116.652819 390.851742,116.890799 C391.310713,117.006152 392.413488,115.969015 392.932685,116.115544 C394.983514,116.695426 393.361542,116.84923 394.658496,117.688917 C395.687545,118.355054 395.604474,119.212407 397.492275,118.897525 C398.329221,118.759309 399.236777,117.464446 399.678095,117.429113 C400.239866,117.383387 400.110067,116.699583 400.969858,116.899113 C402.53368,117.262838 402.395573,119.277877 402.916847,120.269289 C403.473426,121.325132 402.683208,122.729113 404.370599,123.306917 C405.632248,123.73923 405.948959,122.406956 407.02162,122.502564 C407.672693,122.56076 409.024683,123.499172 409.599954,124.07074 C411.453488,125.91223 413.991324,127.945975 416.48347,129.144191 C416.238409,128.897897 417.657894,128.304505 417.318339,128.16525 C417.089892,128.07276 418.581027,128.432328 418.558182,128.427132 C419.997397,128.754485 420.757502,130.963858 421.484378,131.76925 C422.82183,133.245975 424.899657,134.804799 426.773959,135.456387 C430.014788,136.583936 429.91614,135.236074 431.098871,139.087407 C433.403069,135.464701 434.286742,141.531642 437.144404,142.199858 C438.624116,142.545917 438.451742,141.911995 439.796463,142.686211 C440.719596,143.21725 441.335364,144.843623 442.031088,145.62823 C442.330145,144.496525 442.628165,143.363779 442.926184,142.233113 C444.984282,146.13225 449.426533,152.315583 454.29868,151.197387 C454.29868,152.261544 453.860477,153.533544 454.683924,154.441819 C455.259194,155.076779 456.190634,154.355564 456.641297,154.724485 C457.03381,155.046642 457.973557,156.329034 458.274692,156.539995 C458.867615,156.955681 459.94443,157.259132 460.459474,157.673779 C460.913252,158.038544 461.137545,159.781309 461.641166,160.411074 C462.587144,161.59474 464.222615,161.829603 464.996219,163.249172 C465.172746,161.849348 465.349273,160.448485 465.524762,159.048662 C467.059508,160.234407 467.191385,161.155152 467.568322,162.889603 C468.105172,165.359819 467.392833,164.780975 469.096838,165.823309 C470.77073,166.849015 471.64402,166.733662 473.178767,168.512799 C474.6834,170.256603 474.696899,171.331152 476.868182,169.514603 C477.272118,170.858309 477.401917,172.596917 478.47977,173.626779 C479.293871,174.405152 482.665538,174.438407 482.98744,176.276779 C476.653234,170.932093 480.82135,179.049407 482.990556,176.290289 C483.448488,179.24374 485.610425,180.19774 488.078688,182.301113 C490.380809,184.261074 490.757746,184.118701 491.54381,187.411975 C491.526158,187.33923 492.700582,188.067721 492.78573,188.213211 C490.542798,188.533289 494.020381,191.039877 494.608112,191.498172 C495.036969,191.832799 495.595625,191.033642 496.307964,191.575074 C497.123104,192.194446 497.786638,193.602583 498.450172,194.451623 C500.247632,196.753485 501.577816,198.731113 503.46977,200.60274 C505.511254,202.622975 506.503959,205.176328 508.464447,207.537426 C510.638845,210.159368 511.815346,213.174132 513.633575,216.020544 C515.362502,218.727701 517.658392,220.900701 519.660416,223.37923 C522.851402,227.324093 523.936524,236.011936 529.885486,236.240564 C529.536585,236.601172 530.021515,239.293779 530.078627,239.790525 C530.360032,242.235799 530.173121,244.588583 531.619604,246.803152 C531.950852,244.276819 533.272728,245.250564 534.421193,246.577642 C536.3308,248.785975 534.653793,248.229995 534.754517,250.467426 C534.877048,253.179779 535.185451,251.081603 536.218653,253.449975 C537.027563,255.304975 537.470957,256.508387 537.905006,258.567074 C534.544762,258.833113 533.005861,256.087505 531.763941,253.427113 C531.244744,252.314113 531.065102,250.485093 530.146123,249.61527 C529.167955,248.689328 527.824273,248.616583 526.819107,247.583603 C524.88977,245.598701 524.053863,242.503917 521.779779,240.572015 C519.210791,238.389662 518.641751,237.35876 516.518234,234.749289 C514.169386,231.863387 510.925442,229.836917 508.461332,227.045583 C505.993069,224.249054 506.193479,225.775662 503.092833,224.763466 C499.795931,223.685799 494.464814,213.319623 490.311236,217.312289 C490.475303,214.70074 486.563671,212.244034 484.586568,211.297309 C483.731969,210.888897 482.737187,211.258858 481.88155,210.645721 C480.954264,209.980623 480.887807,208.69823 479.952214,207.900113 C479.953252,207.901152 478.518191,208.24825 478.22744,208.101721 C477.634517,207.801387 477.630364,206.739309 477.107013,206.390132 C475.659491,205.422623 473.93368,204.408348 472.397894,203.58425 C468.663828,201.581681 465.36381,199.115623 461.760582,196.704642 C458.674474,194.638681 454.93833,190.907897 451.370407,189.818799 C448.254186,188.867917 446.294735,189.352191 443.7434,187.447309 C442.35299,186.410172 442.762118,186.062034 440.528531,185.416681 C438.401899,184.802505 437.207746,185.118426 436.081088,182.863328 C434.110215,178.917426 435.354212,171.215799 434.973121,166.790819 C434.568147,162.094603 434.087371,157.281995 432.863104,152.715681 C431.414543,147.319034 429.501821,144.497564 423.712772,145.768525 C412.242667,148.289662 400.911707,150.688172 389.389683,152.901701 C366.429744,157.312132 343.864395,164.50974 321.409116,170.899877 C319.69888,171.38727 310.157074,173.571701 312.10614,168.637505 C313.004351,166.361623 319.043653,165.513623 321.065407,164.798642 C332.163767,160.870407 343.313008,156.868387 354.657467,153.68423 M350.799831,143.64125 C349.122824,144.280368 347.446856,144.919485 345.769849,145.559642 L345.769849,140.896681 C347.446856,141.811191 349.122824,142.725701 350.799831,143.64125 M343.831166,118.985858 C345.288034,120.176799 348.250573,117.310642 349.489378,116.729721 C351.605625,115.738309 354.300259,114.887191 356.664683,115.090877 C361.024901,115.468113 364.21381,119.761113 363.415285,124.113348 C362.063296,131.47723 351.571358,134.959642 345.786463,137.83827 C345.600591,135.228799 344.756376,132.091407 346.586027,129.83423 C348.17477,127.87427 351.255687,128.016642 352.721899,125.931975 C356.411315,120.69225 346.412615,120.217328 344.17799,124.383544 C343.296393,121.721074 342.414796,119.058603 341.5332,116.396132 C343.66087,116.043838 342.726315,118.083819 343.831166,118.985858 M354.15073,104.571936 C352.068749,105.917721 349.986769,107.263505 347.905826,108.609289 C346.873662,103.950485 350.390704,103.337348 354.15073,104.571936 M543.83943,266.722838 C541.112606,268.023936 540.431419,264.916681 538.470931,264.782623 C540.78655,263.358897 540.78655,263.358897 543.83943,266.722838 M554.926367,334.566995 C555.265922,339.032505 555.000093,343.549975 555.595093,347.997819 C556.047833,351.381505 557.418514,354.530328 557.564927,357.952466 C557.884753,365.447289 555.354186,373.079289 550.243208,378.573623 C545.408444,383.77074 538.49066,388.243525 531.964351,390.428995 C529.023618,391.412093 525.954125,393.593407 523.097502,394.399838 C519.937667,395.292525 516.935669,393.35023 514.329299,396.833681 C512.591027,381.891838 513.860983,366.278662 513.723915,351.24225 C513.586847,336.173623 513.748837,321.099799 511.199578,306.193289 C508.929648,292.917309 504.454168,277.984819 496.205163,267.123975 C492.854264,262.713544 488.728723,259.10123 484.377851,255.719623 C482.120381,253.965426 479.861873,252.089642 477.34792,250.704368 C473.477824,248.571897 470.181961,248.867034 465.973348,248.259093 C459.949622,247.38927 454.350599,246.654544 448.305067,248.350544 C442.676969,249.930152 436.478793,251.729034 431.437388,254.472564 C426.415713,257.20674 420.58409,258.33325 415.37135,260.781642 C411.825233,262.447505 404.458863,268.012505 400.524386,267.010701 C396.715556,266.040074 391.078112,259.576152 388.646193,256.680897 C385.538278,252.98025 382.967214,248.691407 380.210276,244.710172 C379.242493,243.312426 377.268505,241.151897 377.017214,239.357172 C376.58005,236.241603 377.8282,237.260034 380.804238,237.608172 C388.457205,238.506054 395.654317,239.925623 402.988496,242.334525 C406.638453,243.53274 413.775337,248.381721 417.425294,245.476074 C422.998357,241.039662 414.53025,233.414936 411.428566,230.85327 C406.144177,226.488564 399.999997,223.24725 394.366707,219.368897 C388.38244,215.247368 380.468837,210.859799 376.617432,204.513309 C387.864282,207.833603 399.099709,211.636093 410.018426,215.916623 C415.014142,217.874505 419.951707,219.943583 424.643173,222.547858 C427.278618,224.010034 432.603505,227.965289 435.776838,226.070799 C442.675931,221.952387 426.83107,209.992054 424.544526,207.547819 C420.992179,203.749485 417.511481,199.987525 413.607118,196.541485 C410.972711,194.21676 406.834709,192.582074 405.610442,189.152662 C409.982083,190.735387 413.516777,193.835368 417.611166,195.941858 C419.754413,197.045505 421.709709,197.680466 424.077248,198.018211 C426.600547,198.379858 426.901681,198.782034 428.890207,199.784877 C430.438453,200.567407 432.029273,201.612858 433.767545,202.144936 C435.00635,202.52425 437.170364,202.589721 438.253409,203.29223 C438.806873,204.082034 439.37799,204.858328 439.968837,205.621113 C440.629255,205.815446 441.27929,206.038877 441.91998,206.293485 C442.880495,207.149799 443.449535,208.330348 444.38409,209.213681 C451.164805,215.625642 460.234142,220.214819 467.836228,225.586525 C475.028147,230.668289 482.660346,235.265779 489.567746,240.812074 C497.516655,247.195975 505.766699,254.056877 512.527685,261.71174 C516.348976,266.037995 519.490119,270.943093 522.699796,275.726603 C525.023723,279.190309 528.403697,282.06374 530.411952,285.635525 C534.791899,293.422368 538.427318,301.840015 543.141629,309.501113 C547.94628,317.307701 554.204683,325.064407 554.926367,334.566995 M490.311236,379.747936 C491.620652,374.344015 499.010905,368.033897 503.733522,365.650975 C501.353522,371.539172 495.012048,375.554701 490.311236,379.747936 M502.496795,398.599309 C498.468863,406.956681 480.756969,407.91276 483.159814,395.545054 C484.337353,389.485387 489.335145,385.767074 493.624753,381.801426 C495.608086,379.969289 500.464657,373.413917 503.535189,374.46976 C503.390852,379.182603 503.113601,383.91623 503.123985,388.630113 C503.130215,391.776858 503.92251,395.641701 502.496795,398.599309 M497.37751,302.274407 C499.011943,305.944917 500.640145,309.00125 497.608034,312.285172 C496.240468,313.767093 491.781603,317.009446 489.765041,316.28927 C483.290652,313.980132 495.634046,303.925721 497.37751,302.274407 M458.218618,269.616015 C459.778287,269.530799 461.292266,269.762544 462.833243,269.667975 C464.36799,269.572368 464.52998,269.300093 465.95258,269.494426 C466.103147,269.712662 466.252676,269.930897 466.403243,270.149132 C466.597423,271.613387 467.366873,271.772387 468.709517,270.627172 C470.577589,271.042858 471.79251,271.320328 473.578549,272.329407 C468.758322,275.805583 462.890355,279.847093 456.979814,281.014132 C447.638418,282.857701 450.218828,270.056642 458.218618,269.616015 M315.008453,347.787897 C314.039631,349.736426 311.253618,344.867701 310.564125,343.960459 C311.849657,343.956309 315.987659,345.821701 315.008453,347.787897 M390.067755,296.49325 C397.326132,292.258446 405.945844,288.539093 413.74107,285.386113 C415.111751,291.990328 408.426568,300.516054 404.309334,305.034564 C400.980241,308.689485 396.965809,312.479505 392.451908,314.582877 C387.571454,316.856681 382.237222,315.857995 382.473976,309.477211 C382.561201,307.145211 383.091821,303.393642 384.040913,301.262211 C385.26518,298.514525 387.578723,297.943995 390.067755,296.49325 M291.957135,176.364074 C293.037065,176.300681 304.771961,174.783426 304.709657,176.243525 C304.524823,180.632132 293.134674,177.186093 291.957135,176.364074 M208.974884,261.101721 C215.17306,253.454132 225.179029,245.199642 225.325442,234.511309 C225.541428,218.783819 208.087056,226.630936 199.311585,227.284603 C203.95217,222.725564 227.269317,203.598799 213.477362,196.805446 C209.512772,194.85276 203.878444,196.76076 199.900355,197.783348 C192.842388,199.598858 186.279735,202.742485 179.346376,204.930034 C184.300556,199.656015 192.861079,193.661819 192.580713,185.674407 C192.238043,175.951505 184.256943,178.302211 177.355774,179.729054 C174.703714,180.27776 162.856673,184.990603 160.631393,181.790858 C159.816254,180.618623 161.135015,179.129426 161.414343,178.086054 C161.90758,176.239368 161.754936,175.595054 161.77155,173.708877 C161.805817,169.90327 164.334308,165.016877 162.272056,161.477309 C161.800625,162.281662 161.39669,163.11823 161.061289,163.988054 C160.38114,161.928328 160.838034,159.743897 160.157885,157.684172 C177.386926,162.090446 194.913985,164.502466 212.251018,168.263387 C221.027528,170.16723 229.287955,173.445956 238.184919,174.921642 C247.157685,176.40876 255.974692,178.685681 264.964072,180.104211 C273.16635,181.398034 281.02388,183.552328 289.146201,185.204681 C297.063959,186.815466 305.184203,183.28525 312.911934,181.497799 C330.220931,177.49474 347.523697,173.393995 364.855538,169.509407 C384.856053,165.025191 405.661324,161.191525 424.805163,153.713328 C425.17587,163.680446 425.973357,173.628858 427.191393,183.527387 C418.736786,179.530564 406.189866,174.318897 397.642842,181.470779 C394.222371,184.33174 393.1684,189.272172 394.52039,193.473721 C395.991795,198.047309 400.499465,200.171466 403.473426,203.614387 C394.421742,201.293819 371.071367,184.933446 366.914674,201.470485 C363.979133,213.15023 378.298592,220.694936 385.300486,227.269015 C378.347397,225.907642 369.036114,220.348877 364.953147,229.283015 C361.424683,237.006466 365.674831,245.410603 370.027781,251.780995 C372.387013,255.23223 375.040111,258.480819 377.547833,261.825015 C378.873863,263.59376 380.168741,265.387446 381.562266,267.10423 C382.959945,268.826211 385.596428,270.62925 386.575634,272.482172 C388.547545,276.219191 384.568418,276.447819 381.474002,277.79776 C377.610137,279.483368 374.292467,282.314191 370.75881,284.570328 C362.667641,289.73627 355.596175,294.534328 346.034639,296.185642 C336.19066,297.88476 326.712196,299.65974 316.998016,302.030191 C307.31395,304.393368 299.408653,306.664054 289.509639,303.609799 C284.996777,302.21725 281.320861,300.979544 276.533863,301.241426 C271.505957,301.516819 268.566262,301.255975 264.432414,298.141446 C246.64368,284.743877 227.334735,273.750015 208.974884,261.101721 M176.905111,247.651152 C183.78032,244.201995 190.701219,240.735172 197.802798,237.771328 C203.681149,235.316701 212.607187,232.457819 219.042118,233.533407 C217.228043,238.19325 213.917641,242.016525 210.367371,245.448015 C207.227266,248.482525 203.304212,253.062348 199.504727,255.18027 C196.054142,257.102819 192.039709,254.057917 188.636891,252.78176 C184.897632,251.380897 179.752388,250.72723 176.905111,247.651152 M178.632999,265.053858 C182.058662,263.630132 189.421917,268.407407 192.538139,269.64927 C198.66155,272.091426 204.819229,274.641662 210.215765,278.494034 C203.626114,286.109407 196.163173,293.072152 187.295285,297.96374 C181.460547,301.182191 171.626952,304.873485 166.123461,299.029975 C159.208793,291.686877 167.52114,276.72425 172.416132,270.431799 C172.578121,271.508426 172.741149,272.584015 172.904177,273.660642 C174.465922,271.160289 175.657999,266.290525 178.632999,265.053858 M304.408522,330.233466 C300.134491,331.133426 298.681777,330.32076 295.86046,327.043074 C293.952929,324.827466 292.078627,322.526642 289.928112,320.534466 C287.732947,318.50176 282.312528,313.599779 289.218889,316.422289 C295.513636,318.994348 300.906018,320.280897 307.832109,319.272858 C315.750905,318.121407 323.133889,314.773054 330.941577,313.078093 C326.661315,316.823426 322.412205,320.606172 318.123636,324.341113 C313.593121,328.287015 310.165381,329.020701 304.408522,330.233466 M305.385652,360.356172 C296.019334,367.405172 277.162091,366.642387 283.508758,351.133132 C284.473426,348.77723 285.822301,346.560583 287.383008,344.553858 C287.903243,343.883564 288.829491,342.495172 289.570905,342.045191 C291.642502,340.788779 291.068269,340.637054 293.05991,342.732113 C294.778453,344.539309 308.208008,359.305525 305.385652,360.356172 M302.608985,333.40723 C303.466699,333.128721 307.082388,331.032623 307.905835,332.192387 C308.739666,333.366701 301.651585,337.428995 302.608985,333.40723 M370.798269,440.910975 C368.692406,445.950132 351.837187,453.245426 354.977292,443.087093 C356.367702,438.587289 357.679194,435.18074 362.926201,434.838838 C365.954159,434.642426 372.652842,436.473525 370.798269,440.910975 M401.0332,372.620995 C403.807789,368.580525 412.970582,363.117368 416.883252,369.14274 C418.767938,372.04527 414.19381,373.532387 411.427528,372.78623 C409.942624,372.384054 408.727702,371.496564 407.112999,371.430054 C405.037248,371.344838 403.008226,372.973289 401.0332,372.620995 M408.389186,376.631328 C406.502423,378.541407 395.122659,388.11674 393.279508,386.640015 C396.995922,381.327544 401.262685,375.394662 408.389186,376.631328 M389.804002,473.528838 C385.852912,473.75227 387.825861,467.797564 388.20799,465.416721 C389.164351,467.075309 394.194334,473.280466 389.804002,473.528838 M399.844238,462.856093 C398.565974,460.58125 395.12162,457.195485 395.900416,454.269054 C396.496454,452.031623 401.872222,449.023093 404.123461,450.306525 C407.112999,452.012917 402.778741,463.233328 399.844238,462.856093 M493.606062,439.004015 C491.915556,444.827779 490.163784,443.325074 484.863819,444.453662 C479.546201,445.585368 475.870285,450.10076 471.189203,452.522132 C472.815329,449.084407 473.82361,444.895328 476.54628,442.106074 C477.175547,441.46176 481.034221,440.18976 478.83594,438.697446 C476.913871,437.39323 474.150704,441.625956 473.326219,442.779485 C469.271289,448.456721 466.435433,455.389328 464.093854,461.921838 C462.942275,465.129897 462.02018,468.39823 461.475023,471.767368 C460.989055,474.769662 461.513444,477.911211 461.01813,480.835564 C460.220643,485.545289 453.824133,485.569191 449.976882,486.784034 C446.494107,487.882485 443.026908,489.074466 439.412257,489.666819 C436.278383,490.180191 433.026132,489.244897 429.988828,489.862191 C426.700233,490.530407 425.222598,492.482054 421.484378,492.040387 C418.43669,491.681858 415.585259,490.279956 412.496036,490.139662 C409.605145,490.00976 406.721524,491.009485 403.848287,490.195779 C400.948051,489.37376 401.088234,489.05576 401.747615,486.20623 C402.159858,486.97525 402.573139,487.74427 402.986419,488.51225 C404.142152,487.606054 404.941716,484.842779 405.649901,483.544799 C406.748522,481.534956 407.643618,480.839721 407.236568,478.33625 C406.636376,474.638721 403.30313,472.008466 402.547179,468.49176 C401.757999,464.822289 404.471324,461.822074 406.074604,458.758466 C408.266655,454.56523 408.23758,451.455897 406.40066,447.11925 C407.785878,447.485054 409.171097,447.850858 410.557353,448.217701 C408.65813,444.095132 402.218008,445.766191 398.988601,446.98727 C397.365591,447.600407 394.793488,450.012426 393.046908,449.951113 C390.647179,449.866936 389.395913,446.711877 388.364788,444.974309 C385.380442,439.947623 381.97347,434.983289 378.442929,430.316172 C377.47203,429.03274 376.199997,428.207603 376.535399,426.744387 C376.820957,425.503564 379.603854,423.743132 380.507257,422.97827 C383.893461,420.11523 388.202798,418.528348 391.3834,415.514623 C396.190128,410.960779 401.733077,407.697642 406.64676,403.233172 C411.767083,398.582681 417.042126,394.311505 422.377397,389.916662 C427.781201,385.465701 432.462283,380.220779 437.826629,375.724093 C439.217039,378.243152 441.909596,387.262505 444.989474,387.960858 C448.580241,388.773525 448.473287,384.525211 448.294683,381.96874 C448.040276,378.32525 446.017484,374.785681 445.792152,371.308466 C445.550207,367.589113 449.128514,365.926368 451.829378,363.775191 C456.000608,360.451779 465.232973,352.882132 460.270486,346.652034 C455.995416,341.285525 442.093392,351.574799 438.261716,354.668544 C435.005311,357.29776 432.489282,359.675485 428.822711,361.74976 C426.244378,363.20674 421.919465,368.81227 418.86347,368.29474 C415.228051,367.679525 413.807528,363.709721 409.361123,363.840662 C405.015442,363.967446 401.32395,367.097564 398.629317,370.240152 C392.537056,377.343191 390.443653,386.847858 384.892397,394.25227 C382.155189,397.903034 378.604919,400.91676 375.636149,404.371113 C372.375591,408.162172 371.682981,412.529995 368.468112,416.239995 C359.267938,403.983485 349.244317,392.378564 339.542598,380.52423 C334.697449,374.604858 329.953025,368.614819 325.211716,362.612309 C323.435023,360.362407 321.430922,358.25176 319.803758,355.888583 C317.575364,352.652466 317.976184,350.053387 317.100817,346.444191 C316.713496,344.844838 314.897344,342.928525 315.383313,341.399838 C316.037502,339.345309 320.63032,337.732446 322.286559,336.89276 C329.049622,333.459191 335.184456,329.16827 341.490625,324.973995 C353.169447,317.207936 364.983261,309.925113 377.403496,303.291799 C377.189587,306.149642 375.329823,309.111407 376.579011,311.978603 C377.160512,310.329368 378.081568,302.981074 380.284002,302.665152 C379.862414,302.725426 380.209238,312.08876 380.549831,313.425191 C381.566419,317.41474 384.51546,320.142681 388.735495,320.115662 C396.771629,320.063701 403.974971,311.321819 408.435913,305.53027 C411.455564,301.609309 414.356838,297.04923 415.420154,292.142054 C416.376515,287.735779 415.324622,284.671132 419.90498,282.433701 C429.303488,277.843485 438.77676,274.103348 448.828418,271.669505 C448.377755,276.000956 447.122336,281.333172 451.058889,284.44874 C455.40457,287.887505 461.090817,284.822858 465.182091,282.548015 C469.234945,280.294995 475.484002,274.105426 480.244002,275.90327 C484.926123,277.672015 488.184604,283.543583 490.805512,287.442721 C493.114901,290.879407 495.628854,293.357936 492.95395,297.188485 C489.956105,301.481485 488.004962,305.671603 485.603156,310.334564 C484.680023,312.127211 483.799465,313.296328 484.451577,315.132623 C484.663409,315.729132 487.070407,319.278054 487.723557,319.78623 C491.893749,323.031701 497.524962,316.85876 500.502039,314.515328 C501.551856,324.606113 501.786533,334.652211 502.210198,344.774172 C502.520678,352.187936 505.3908,359.486348 499.306847,364.905858 C493.224971,370.323289 488.148261,375.885172 484.441193,383.220995 C482.460974,387.139877 480.68532,391.161642 478.543112,394.999466 C477.112205,397.563211 474.093592,401.323093 475.940896,404.340975 C477.889962,402.491172 478.470425,399.679054 480.094474,397.593348 C481.067449,401.921681 482.046655,406.723897 486.624936,408.558113 C491.892711,410.66876 497.128296,407.016956 501.793802,404.98425 C500.120948,416.555917 496.858313,427.80023 493.606062,439.004015 M488.220948,452.304936 C484.606297,460.031505 481.340547,469.348074 474.664709,475.037779 C473.198496,476.286917 466.970207,481.163956 464.599552,480.347132 C462.588182,479.652936 463.695111,475.587525 464.046088,473.845799 C465.824858,465.003113 468.90162,459.439152 476.071734,453.798289 C479.039465,451.463172 482.849334,448.478544 486.675817,447.902819 C490.795128,447.282407 489.609282,449.335897 488.220948,452.304936 M590.195433,635.710917 C580.821847,622.964936 567.574011,613.059132 555.05409,603.483799 C549.383418,599.146113 543.13436,595.893368 537.4045,591.554642 C530.926995,586.649544 524.347728,581.917995 517.092467,578.221505 C503.335817,571.211995 488.328941,566.325603 475.346934,558.036819 C469.015844,553.99427 462.089753,550.087858 456.137676,545.549603 C453.522999,543.555348 451.21361,541.006152 448.851262,538.722995 C446.656097,536.600917 441.942824,533.520681 441.069535,530.415505 C444.722606,529.817956 446.800433,526.273191 450.060992,525.911544 C451.134692,525.792034 457.864526,527.572211 456.944508,524.308034 C459.385774,524.246721 459.670294,524.210348 461.715931,523.676191 C462.563261,523.454838 463.567388,523.800897 464.424063,523.497446 C465.734517,523.034995 466.626498,521.698564 467.950451,521.18623 C468.891236,520.822505 472.385433,521.228838 472.915015,520.77574 C474.361498,519.540113 472.824674,519.64923 471.961769,518.105995 C474.772702,518.034289 476.703077,519.454897 479.52128,517.944917 C480.378994,517.484544 481.104831,516.424544 481.936585,515.875838 C483.411105,514.901054 483.943802,516.412074 484.954159,514.388721 C485.899098,517.180054 485.873139,516.407917 488.151376,515.586936 C490.420268,514.769074 492.058854,514.178799 494.643418,513.974074 C500.816673,513.485642 507.012772,514.234917 513.15799,513.796368 C515.406114,513.635289 517.327144,513.125034 519.56073,513.419132 C521.527449,513.677897 520.934526,515.045505 522.569997,513.202975 C522.95005,512.774819 521.721629,511.602583 522.310399,510.987368 C522.569997,510.715093 523.416289,510.906309 523.737152,510.767054 C526.61039,509.512721 526.622851,511.264838 527.132702,513.547995 C528.818016,513.153093 530.536559,512.795603 532.000695,511.807309 C531.261358,511.147407 530.023592,510.418917 530.738008,509.213426 C533.167851,510.134172 534.756594,509.709132 533.541673,512.376799 C535.987091,513.18427 536.443985,512.131544 538.640189,511.900838 C539.939221,511.764701 541.752257,512.571132 542.834264,511.533995 C544.015957,510.40125 542.152039,509.170819 544.322283,508.197074 C544.767755,508.423623 545.096926,508.765525 545.312912,509.22174 C546.485259,509.576113 546.274465,510.037525 544.680529,510.605975 C548.949369,512.818466 547.94628,510.345132 549.738549,507.728387 C550.152868,507.125642 552.00744,505.251936 552.851655,506.157093 C554.133034,507.528858 551.517318,507.965328 552.078051,509.329819 C553.049988,511.695074 556.441385,508.663681 557.481856,507.465466 C558.269997,506.560309 558.590861,504.824819 559.440268,504.148289 C560.618845,503.208838 562.315582,504.660623 563.792179,504.400819 C570.53655,503.218191 576.906062,494.149995 571.825198,488.079936 C570.459709,486.448368 569.303976,486.772603 567.676812,485.74274 C566.068339,484.725348 565.165974,482.964917 563.87525,481.511054 C560.928287,478.192838 557.319866,475.707034 553.199517,474.118074 C543.642135,470.430936 533.344378,467.741446 523.308296,465.762779 C518.660442,464.846191 513.712493,463.444289 508.953531,463.454681 C506.149866,463.459877 501.927755,465.640152 499.306847,464.59574 C494.211446,462.565113 501.692039,452.170877 502.92669,448.813172 C506.552763,438.949975 509.288933,428.433113 511.083278,418.078368 C511.434255,416.051897 511.299264,413.426838 512.029255,411.495975 C512.86724,409.276211 513.046882,409.590054 514.840189,409.40923 C518.07998,409.081877 521.622981,410.780995 524.996725,410.193838 C528.735983,409.543289 532.777414,409.845701 536.551978,408.689054 C538.287135,408.158015 539.895608,407.580211 541.037842,406.115956 C541.398165,405.656623 540.997344,405.256525 541.224753,404.935407 C541.295364,404.833564 542.586088,403.442054 542.627624,403.362034 C542.615163,402.641858 542.677467,401.926877 542.815573,401.219172 C544.12395,402.305152 543.479107,404.583113 545.683618,404.636113 C546.07717,402.207466 546.081324,401.717995 547.675259,400.351426 C547.553767,400.456387 548.875643,399.332995 548.706385,399.452505 C548.786341,399.020191 548.945215,398.615936 549.181969,398.241819 C549.927536,397.88225 550.714639,397.691034 551.543278,397.669211 C553.265974,395.897348 552.550521,394.952701 552.550521,392.567701 C553.940931,393.289956 555.331341,394.012211 556.721751,394.734466 C557.058191,387.668838 561.360259,383.799838 564.218959,378.07376 C565.436995,375.633681 566.677877,373.726721 566.968627,370.783662 C567.136847,369.085583 566.698645,367.588074 567.401638,365.987681 C568.039212,364.535897 569.465966,363.753368 570.062004,362.171681 C571.23539,359.05923 570.360023,355.086309 570.424404,351.854348 C570.513706,347.372211 570.961254,342.904623 571.107667,338.424564 C571.395303,329.629681 570.510591,320.591623 569.194945,311.898583 C568.565678,307.740681 567.512746,303.706446 566.686184,299.592191 C566.006036,296.210583 564.378871,293.038897 563.797371,289.893191 C563.555425,288.585858 563.929247,287.412583 563.534657,285.967034 C563.01546,284.066309 562.147362,282.197799 561.501481,280.331368 C559.993732,275.971858 558.502598,271.618583 556.806899,267.326623 C553.520381,259.00874 549.67313,250.94027 546.017981,242.782426 C542.501978,234.937387 539.59032,226.849172 535.035922,219.52374 C530.550058,212.308466 525.720486,205.214779 520.77669,198.308152 C515.627292,191.11574 509.116559,184.935525 504.12292,177.676603 C494.746219,164.047289 481.667641,152.816485 467.984718,143.542525 C439.749735,124.404328 409.237554,105.29627 375.380704,98.7346618 C370.278034,97.7463677 365.109945,97.0604853 359.909666,96.9326618 C356.683374,96.8526422 351.336681,98.4125049 348.281725,97.3202892 C344.860215,96.0971324 345.172772,92.2541127 344.317135,89.239348 C343.215399,85.3641127 340.730521,82.8253088 337.909203,80.0859363 C334.939395,77.2021127 332.243723,73.8340147 328.53977,71.8730147 C324.785974,69.8870735 320.358261,69.1440343 316.199491,68.5433677 C312.486193,68.0060931 306.938051,68.5080343 303.545617,66.8899755 C300.456393,65.4153284 301.981795,63.8804069 304.874762,65.1430539 C305.086594,63.8668971 305.257929,63.042799 306.076184,62.0565833 C306.48635,61.5608775 308.42607,60.8656422 308.472798,60.4031912 C308.527833,59.8617598 306.900669,58.3195637 306.668069,57.6212108 C306.167563,56.1174657 306.452083,54.0348775 307.046044,52.6236226 C309.962894,55.2164657 310.808147,56.364799 314.064552,53.8862696 C315.440425,52.8397794 315.862013,52.3783677 317.45491,51.8504461 C317.886882,51.7070343 318.855704,52.1497402 319.232641,51.9013677 C320.671856,50.9536029 319.347903,51.1770343 320.032205,50.0567598 C319.859831,50.3394265 321.068522,47.3620735 321.011411,47.9845637 C321.157824,46.3987206 321.627179,46.8861127 320.669779,44.9375833 C318.794439,41.1257402 314.018863,40.9698578 316.452859,36.619701 C317.410259,34.9081127 318.253435,35.0785441 318.523418,32.5968971 C318.667755,31.2625441 318.488112,29.7328186 318.481882,28.3756029 C318.47046,25.5998578 318.992772,23.6565245 316.391594,22.2431912 C313.892179,20.8838971 311.585905,22.3751716 310.571393,19.0039559 C309.508077,15.4664657 310.578662,10.9313284 306.746987,8.50891667 C303.946437,6.73913236 299.902929,8.2522304 296.808514,7.38656373 C293.707868,6.51985785 290.856437,3.34713236 287.709063,5.78305392 C285.4734,7.51438726 284.286515,11.7710147 280.073749,9.46915196 C278.172449,8.43097549 277.125748,4.94544608 275.926402,2.99068138 C274.015756,-0.124887252 272.484125,-1.25035784 269.54443,1.78415196 C267.732432,3.65577941 263.91114,8.21170098 263.677502,10.8024657 C263.421018,13.6623873 265.91628,14.8574853 262.783444,16.5493284 C259.667222,18.2328578 257.918566,16.9982696 255.389037,20.4152108 C252.880276,23.8051324 254.822074,25.677799 251.915608,28.9211912 C248.282266,32.9751716 246.348776,34.7252108 246.399657,40.1873284 C246.434962,43.933701 243.124561,47.1698186 245.055974,50.7239363 C247.219988,54.70725 253.535503,56.3637598 257.365102,57.9849363 C256.086838,60.3470735 254.33299,61.8612108 255.825163,64.2929755 C257.177152,66.4950735 260.998444,66.9523284 263.367022,66.5522304 C264.959919,66.2841127 265.01703,66.5252108 266.271411,65.4049363 C267.092781,64.67125 265.966123,63.755701 267.657667,63.3493677 C269.458243,62.9149755 272.333557,66.444152 273.502789,67.3264461 C270.890189,70.7174069 263.713845,71.3513284 259.917475,73.0701912 C257.603933,74.1187598 255.477301,75.6692696 253.121184,76.6066422 C250.984168,77.4567206 248.38299,77.2592696 246.445346,78.5749167 C243.098601,80.8466422 241.706114,86.4750343 239.655285,89.7838971 C237.333435,93.5292304 235.082196,95.2688775 230.627484,96.0462108 C225.069997,97.015799 220.594517,97.4055049 215.411891,99.8258382 C209.082877,102.781368 202.844203,105.902132 196.628374,109.088368 C186.601638,114.227289 177.288278,119.502348 167.978034,125.717897 C158.237894,132.221309 148.763584,139.009466 139.366114,145.804897 C130.070407,152.525505 122.265835,160.793505 114.19128,168.921211 C107.663933,175.491132 101.936149,182.58274 95.4337232,189.150583 C87.7579116,196.90625 82.1121612,206.694623 74.9950059,214.922093 C71.1010268,219.422936 67.3752677,223.848956 64.9319256,229.151034 C62.9517074,233.44923 59.5083916,237.666368 57.2093863,242.175525 C54.2717685,247.941093 51.4919867,253.614172 48.194046,259.188525 C46.8410181,261.475838 45.2325451,263.438917 43.8047528,265.622309 C41.9751019,268.418838 42.0830949,271.11976 41.5908959,274.343407 C41.0768907,273.556721 40.5639239,272.770034 40.0499186,271.984387 C39.1184788,274.019172 37.9918209,276.020701 37.1849884,278.104328 C36.6699448,279.433485 36.7509396,281.320701 36.2338191,282.483583 C35.5848226,283.943681 34.7946045,283.749348 33.9856952,284.96523 C33.1207127,286.265289 32.842423,288.012211 31.9307127,289.406838 C27.9900059,295.434289 26.47395,303.082917 24.4490809,309.960446 C21.7326411,319.187642 22.161498,329.792838 22.30895,339.306858 C22.4657476,349.356074 23.0150582,359.405289 24.5259221,369.348505 C25.8945259,378.353309 28.8207214,386.99023 33.4021176,394.886191 C37.3937057,401.765799 42.8982345,405.775093 49.9489326,409.299074 C53.1866464,410.917132 56.1917598,410.41727 59.5904247,410.676034 C63.3130687,410.958701 65.8519431,411.969858 69.7905731,411.080289 C71.6804509,410.653172 72.5745085,409.27725 74.0760268,408.818956 C75.0053898,408.53525 75.5058959,408.99874 76.3978767,408.890662 C77.6740635,408.735819 80.3281996,408.110211 81.7123794,408.260897 C86.018601,408.730623 85.2958785,415.241309 85.7195434,418.564721 C86.3716551,423.685975 86.8493165,428.86127 87.7288366,433.94927 C89.578217,444.651113 93.5708436,454.648368 95.9300757,465.16523 C84.9937057,466.499583 75.6128506,468.540603 65.3628593,472.679799 C55.0796394,476.831466 44.6832345,478.240642 33.8610879,480.304525 C23.7367424,482.235387 13.9986795,485.843544 5.89504951,492.380211 C2.09660274,495.442779 -1.84929604,499.027034 0.939831357,504.070348 C2.72379296,507.296074 5.93866207,508.116015 8.71429035,509.99076 C9.27502333,509.280975 7.65305125,507.77723 7.35607045,507.360505 C9.6893427,507.839583 9.61769349,508.928681 11.3216987,509.876446 C12.8107563,510.704701 14.0298314,510.675603 15.6601106,511.260681 C19.6402764,512.690642 21.5955731,516.25827 25.5300495,517.260074 C26.7678157,517.574956 28.3866725,518.328387 29.6524753,518.542466 C31.1726848,518.799152 32.310765,518.134054 33.8517424,518.415681 C34.6834963,518.963348 35.5827458,519.355132 36.549491,519.589995 C37.1829116,519.295897 37.8090635,518.985172 38.4258698,518.657819 C40.6397266,518.887485 42.0072921,520.280034 43.8057912,521.424211 C43.926245,519.982819 43.7528331,518.485309 45.1172834,517.544819 C45.6499797,518.946721 44.7891507,519.834211 46.2429029,520.798603 C48.0850146,522.02176 50.5044736,520.495152 52.1534439,519.721975 C52.619683,524.380779 63.4065242,524.106426 66.825957,524.039917 C71.5610355,523.948466 76.2909221,522.069564 81.0675364,523.118132 C83.5046481,523.652289 86.1058261,524.210348 88.5315155,524.904544 C91.452519,525.739034 94.9840984,526.485191 97.8594125,527.537917 C99.0026848,527.956721 100.403479,529.298348 101.620477,529.207936 C102.589299,529.135191 102.848898,527.70627 103.976594,527.746799 C105.252781,527.793564 105.681638,529.215211 106.786489,529.643368 C108.439613,530.282485 109.959823,529.066603 111.530913,529.680779 C112.0958,529.901093 112.861097,530.847819 113.583819,531.156466 C114.681402,531.624113 116.852685,531.630348 118.073837,531.855858 C119.80484,532.176975 121.355163,531.960819 122.83799,532.066819 C124.034221,532.153074 124.008261,532.957426 124.580416,533.009387 C125.236681,533.068623 126.379954,530.811446 127.26155,530.480975 C128.546044,529.998779 130.87724,531.147113 132.186655,531.348721 C122.697807,544.211093 111.256777,555.579074 98.8552328,565.532681 C85.4775975,576.270897 71.7790984,586.994564 57.4336795,596.412975 C44.4090984,604.964681 31.8009134,612.360779 21.7025277,624.432309 C13.1876935,634.611426 -0.366468817,645.502407 1.72278075,660.256152 C3.81099192,674.997426 19.8178418,680.996819 32.6440896,683.811015 C48.7755469,687.350583 65.3815504,685.925819 81.5566202,687.915917 C88.4546743,688.764956 96.1190635,688.311858 103.062807,687.588564 C111.264046,686.734328 118.292938,681.382368 125.343636,677.512328 C138.025547,670.550623 148.868461,661.236132 161.360346,654.05723 C177.000643,645.068015 192.476873,635.543603 209.62388,629.523426 C217.600826,626.72274 225.813488,623.526113 232.248418,617.76574 C233.205817,616.908387 233.919194,615.614564 235.001201,614.907897 C236.840198,613.707603 237.333435,614.924525 238.400905,614.560799 C239.222275,614.28125 240.017685,613.39376 240.727947,613.127721 C242.527484,612.45327 243.330163,612.731779 245.344648,612.731779 C243.615721,611.735172 242.033208,609.165191 243.827554,607.071172 C246.900163,603.483799 247.429744,609.216113 248.584439,610.54423 C249.562606,609.286779 249.187746,608.167544 248.937493,606.738623 C249.764055,607.284211 250.591655,607.829799 251.419255,608.376426 C250.849177,605.611074 251.391219,603.063956 252.856393,600.654015 C254.207344,598.433211 254.540669,598.746015 254.913453,595.667858 C259.109604,599.498407 259.929936,590.200544 260.307912,586.810623 C260.673426,583.523583 260.312065,581.163525 262.474002,578.289054 C264.794814,575.202583 268.324317,573.251975 271.270241,570.854505 C275.924325,567.065525 281.044648,562.280975 287.480617,565.914074 C292.561481,568.783348 295.325687,575.815721 300.092955,579.429074 C302.983845,581.621819 306.035687,581.843172 307.878837,585.242446 C309.368933,587.990132 309.852824,591.27925 311.259849,594.100721 C314.667859,600.939799 319.574273,608.766132 325.171219,614.012093 C330.380844,618.895368 337.069142,618.870426 343.165556,621.898701 C349.200704,624.897877 355.471568,628.146466 361.860809,630.319466 C368.837781,632.693034 376.361987,633.702113 383.155163,636.577623 C386.64936,638.057466 389.773889,640.284505 393.299238,641.700956 C397.1008,643.227564 401.105887,644.304191 404.95833,645.702975 C420.22169,651.247191 435.158994,658.04574 451.19388,661.118701 C458.305844,662.481113 464.890303,666.183838 472.054186,666.96325 C475.126795,667.297877 477.633479,667.720838 480.640669,668.489858 C485.358095,669.695348 484.359159,670.336544 486.097432,674.269975 C488.956132,680.745328 495.938296,676.910623 501.320294,677.07274 C509.934814,677.332544 518.418496,675.939995 527.019517,675.873485 C542.061699,675.758132 556.545224,674.063172 571.096245,669.124819 C585.704378,664.166721 602.336341,652.218858 590.195433,635.710917" id="react-path-64"></path><path d="M416.321317,129.774584 C416.527317,129.980584 417.010317,130.105584 416.321317,129.774584" id="react-path-65"></path><path d="M151.362742,405.572218 C154.63015,402.261735 168.530203,402.930551 169.58077,408.853303 C170.752163,415.46377 158.331711,425.448768 153.786419,428.247927 C147.936622,431.850295 140.796654,432.525411 141.83391,423.480117 C142.618252,416.648111 146.71096,410.286481 151.362742,405.572218 M162.842188,398.757011 C163.266102,400.588119 160.142046,399.9655 159.281932,399.530822 C158.87645,398.698214 162.418275,396.918554 162.842188,398.757011 M138.871637,410.879701 C141.64448,411.128538 144.820757,406.680962 146.912677,405.165889 C147.837299,406.594867 141.740731,414.449521 141.070047,416.241781 C139.394873,420.719806 138.463083,426.377971 140.746481,430.844446 C147.420554,443.897389 164.500979,425.257677 168.772877,418.746955 C171.761773,414.193334 173.831165,408.546718 169.60944,404.084443 C168.106289,402.494823 165.623223,402.053845 164.226562,400.542971 C162.388581,398.556471 163.835415,395.99145 160.139998,396.425079 C157.590375,396.724313 154.528779,399.024748 152.049809,399.857356 C149.061937,400.860055 146.37613,401.899503 143.768142,403.757909 C143.180398,404.176838 135.446542,410.572066 138.871637,410.879701" id="react-path-66"></path><path d="M334.819678,415.260784 C333.07723,424.229083 324.190645,433.428303 314.840167,433.785655 C305.528088,434.140918 302.513311,424.384771 304.157169,416.608693 C305.559222,409.97677 311.290929,398.454758 319.468705,399.7243 C325.897807,400.721126 336.313056,407.573521 334.819678,415.260784 M328.889753,400.271823 C322.985772,395.70356 314.828752,393.589745 307.985572,397.214472 C305.741873,398.402513 296.785755,403.644731 299.510988,407.193181 C303.185799,404.345853 306.358319,400.394075 311.133186,399.446359 C310.329937,403.148408 305.743948,406.478475 304.128111,410.083349 C302.239335,414.29426 301.205698,419.114342 301.514959,423.742164 C302.066024,431.979039 307.58291,438.378996 316.123912,437.246334 C323.943651,436.209802 330.779566,430.216308 334.510417,423.478851 C339.490765,414.481295 336.684584,406.302934 328.889753,400.271823" id="react-path-67"></path><path d="M274.061714,435.646387 C269.857586,441.871045 263.447676,447.725849 256.036539,449.648261 C246.442213,452.136269 249.137826,444.207609 252.00493,438.517642 C254.540346,433.487022 258.889267,424.833079 265.511745,424.879254 C267.759629,424.893863 271.9463,425.980757 273.915894,427.183037 C277.798603,429.552569 276.274683,432.371282 274.061714,435.646387 M265.107147,421.966976 C266.615663,420.286669 273.295647,413.082261 274.191103,418.698052 C276.109353,416.473783 274.595702,414.628639 272.140384,414.393746 C269.177778,414.110432 265.938936,417.409233 263.80093,419.048331 C259.400664,422.420278 256.013948,425.873613 253.097552,430.601344 C249.883355,435.813285 241.685613,447.592949 248.859536,452.76471 C256.613657,458.354745 267.900314,448.030797 272.755497,442.706562 C275.860843,439.300617 279.973577,434.299875 278.792642,429.305313 C277.342659,423.171316 270.207759,422.527422 265.107147,421.966976" id="react-path-68"></path><path d="M232.021277,321.655442 C227.681939,326.606401 218.867987,333.819833 211.604997,332.969866 C204.980639,332.194835 207.566624,324.759671 209.911418,321.161681 C213.432804,315.753916 218.150707,310.676694 224.968018,310.381053 C227.910546,310.253763 231.724507,310.313302 234.004285,312.5419 C237.116695,315.585565 234.313638,319.040868 232.021277,321.655442 M231.559868,307.900954 C226.477034,306.14456 224.480393,305.475261 219.540176,308.267426 C215.573111,310.509369 212.054871,313.67827 209.33256,317.276261 C205.258532,322.662469 201.149899,334.777587 211.611289,336.292746 C223.085681,337.955727 250.381143,314.408134 231.559868,307.900954" id="react-path-69"></path><path d="M247.199552,338.810863 C243.898982,342.182925 239.777903,344.933898 235.074129,345.872682 C237.064148,341.433124 241.507459,331.732699 246.775399,330.381219 C249.201924,329.758087 251.969214,330.574287 251.769491,333.339562 C251.625362,335.338691 248.501866,337.479812 247.199552,338.810863 M251.449318,327.074534 C248.716002,325.704666 249.577691,324.768947 246.397573,325.843594 C243.891776,326.689419 240.731218,328.158375 238.644427,329.851046 C237.505802,330.774507 233.961242,334.048502 234.39466,335.714613 C235.181197,338.74242 237.824946,334.102643 238.519857,333.210849 C239.710986,334.1813 233.620478,342.896972 233.258095,344.331197 C231.907394,349.672764 236.099508,350.237668 240.209263,348.489835 C245.750019,346.134193 262.159181,332.440618 251.449318,327.074534" id="react-path-70"></path><path d="M332.692617,470.804639 C333.102034,467.263822 333.682881,463.519758 336.933005,461.53166 C339.861443,459.738553 342.893749,459.998543 343.327368,463.674514 C343.730734,467.088431 340.385819,473.151771 337.68024,475.014002 C333.9128,477.607712 333.186741,474.374344 332.692617,470.804639 M337.533012,478.862268 C345.267559,474.336171 350.143248,453.579265 335.885261,459.397058 C327.782642,462.702647 330.76251,482.824021 337.533012,478.862268" id="react-path-71"></path><path d="M271.473324,392.787719 C272.693065,390.287397 274.088235,389.458231 276.56177,388.364073 C274.912746,389.920897 273.227605,391.359116 271.473324,392.787719 M273.257531,386.62667 C271.506346,388.384375 267.491107,391.064206 268.053509,394.083825 C268.56741,396.839522 270.671515,396.681382 272.580585,395.822297 C276.584473,394.02292 278.812409,386.143702 282.999981,385.405359 C278.355264,382.461605 277.270706,382.598375 273.257531,386.62667" id="react-path-72"></path><path d="M273.873017,230.145484 C274.095813,238.536505 274.292037,246.926487 274.477019,255.317508 C274.542428,258.266828 273.838269,262.470646 274.723322,265.295346 C275.113726,266.539461 278.647807,271.933392 279.901802,272.282325 C284.289254,273.503593 282.721504,262.504916 282.752164,259.796527 C282.859474,250.659869 282.72457,241.512825 282.687778,232.375128 C282.667338,227.666602 283.996962,188.184148 277.887438,188.376601 C276.834776,188.410539 274.241959,192.924867 273.851555,193.829394 C272.624131,196.671749 273.075856,200.884913 273.104472,203.914197 C273.187254,212.654151 273.641022,221.406568 273.873017,230.145484" id="react-path-73"></path><path d="M310.865865,254.605475 C311.209886,256.92514 311.029166,260.794032 313.640891,261.996667 C315.91295,263.042709 316.783888,261.798316 317.634141,259.854474 C319.588308,255.382177 318.882849,248.545324 318.846923,243.921653 C318.77507,234.757827 317.743009,225.632628 317.029928,216.503253 C316.716391,212.497603 317.367417,208.474206 316.866627,204.282731 C316.646716,202.443285 316.427892,195.043741 313.01817,195.388246 C309.93505,195.699344 310.212662,203.454876 310.045006,205.453004 C308.647151,222.086318 308.404377,238.001392 310.865865,254.605475" id="react-path-74"></path><path d="M456.386121,445.615428 C455.079307,452.295869 433.760275,475.559039 428.391852,462.548133 C425.207335,454.829084 432.110927,446.425521 437.493882,441.95714 C440.825792,439.191293 444.988084,436.477943 449.529238,437.315828 C453.384289,438.027105 457.215466,441.372472 456.386121,445.615428 M445.377326,433.632836 C443.871219,433.988989 431.284697,442.826935 431.169481,442.710619 C430.07649,441.613339 438.014947,429.781032 438.831836,428.745512 C445.562086,420.218428 450.028505,426.675502 454.237507,433.377559 C453.341732,429.374441 450.875496,423.562766 446.754723,421.869495 C441.552376,419.732578 437.493882,425.007965 434.991317,428.801097 C431.452849,434.161919 429.502488,439.982858 427.536558,446.032312 C426.599264,448.917563 425.531184,451.533125 423.944116,454.134277 C422.376769,456.70146 419.635469,459.531127 420.04028,462.778706 C422.267781,461.540406 423.451076,459.116301 424.854423,457.119374 C426.419694,457.75345 425.882021,462.745767 426.199642,464.017007 C426.998885,467.210031 429.180715,469.708249 432.555182,470.257918 C438.844291,471.281086 445.632668,465.462206 449.837517,461.510555 C454.268646,457.346859 459.038155,451.638118 458.999981,445.229424 C458.959269,438.533542 452.374336,431.976622 445.377326,433.632836" id="react-path-75"></path><path d="M462.426948,326.289535 C458.85871,331.750442 452.597598,338.297051 445.972778,339.56562 C441.109988,340.49667 437.902376,336.892639 439.855505,332.027353 C441.505546,327.915477 447.127601,325.318777 450.812965,323.509969 C453.735982,322.074209 467.36474,318.73246 462.426948,326.289535 M459.801884,317.357306 C452.492801,317.08144 446.597451,322.36575 441.146975,326.583166 C442.377827,321.73878 445.162142,316.468054 449.082786,313.314396 C454.41819,309.022789 459.476191,311.68741 465.093109,313.833736 C463.707116,309.460622 457.487101,307.887973 453.524333,308.505539 C448.513594,309.287161 444.911451,313.564139 442.377827,317.70214 C439.356178,322.638482 438.321564,328.455716 434.764628,333.085887 C433.136163,335.205045 423.050985,343.135167 425.334945,346.376601 C429.101475,342.377579 432.869033,338.379602 436.635564,334.38058 C437.612642,339.106887 438.689381,344.488377 444.723433,344.028599 C449.542044,343.660777 455.037726,339.564575 458.561785,336.433906 C463.112238,332.389951 472.068279,317.821264 459.801884,317.357306" id="react-path-76"></path><path d="M357.413901,363.987194 C354.317729,365.410955 347.502236,367.345941 345.77081,363.068438 C343.365766,357.127635 351.104137,346.707119 354.787408,342.749003 C357.053402,340.313159 358.590159,339.05324 361.749161,340.629435 C364.270595,341.888317 367.976526,345.464828 368.943693,348.214874 C371.021198,354.11731 362.25695,361.759782 357.413901,363.987194 M364.517794,335.454953 C367.039228,336.023213 367.348227,339.225377 364.195405,337.995531 C361.832591,337.074701 361.283602,334.725963 364.517794,335.454953 M367.682976,339.964737 C366.741559,337.092329 368.657354,332.58773 364.020305,332.380336 C361.392782,332.263158 356.579603,334.934394 354.285799,336.020102 C351.106197,337.524746 348.114054,339.821635 346.453698,343.056983 C344.915912,346.053828 346.013889,346.843999 348.358164,344.356307 C348.644503,344.551258 343.055737,358.965146 343.007327,360.409646 C342.788967,367.009963 347.461036,371.356943 354.02315,370.186203 C360.053785,369.110865 365.489082,364.179034 368.807734,359.201576 C370.486629,356.681738 371.865796,353.797923 371.991456,350.711899 C372.185095,345.978129 369.029183,344.075288 367.682976,339.964737" id="react-path-77"></path><path d="M396.610763,337.543528 C394.066416,332.643188 399.962352,324.396815 405.241105,326.808998 C416.232888,331.831741 399.949068,343.968629 396.610763,337.543528 Z M406.484668,331.146917 C405.30548,331.194401 397.848194,334.075092 398.945635,336.027208 C400.451807,338.706356 405.895074,332.224274 406.484668,331.146917 Z" id="react-path-78"></path><path d="M45.945761,322.089275 C45.6510384,320.002045 40.9726845,323.032243 41.0001006,324.376601 C41.773625,322.828552 46.5596848,326.438669 45.945761,322.089275" id="react-path-79"></path><path d="M301.805821,164.371893 C307.761757,163.934064 300.173333,133.885561 295.832583,136.542983 C291.127475,139.422995 296.340446,164.772973 301.805821,164.371893" id="react-path-80"></path><path d="M312.928805,150.340774 C318.50889,151.139969 317.622162,138.326731 314.620761,136.033616 C309.080883,131.800494 306.154462,149.370249 312.928805,150.340774" id="react-path-81"></path></g></g></g></svg>