<svg xmlns="http://www.w3.org/2000/svg" viewBox="0 0 1024 768" version="1.1"><g stroke="none" stroke-width="1" fill="#FFFFFF00" fill-rule="evenodd"><g transform="translate(-35.000000, -89.000000)"><rect x="0" y="0" width="1024" height="768"></rect><path d="M738.3212,566.0273 C733.8042,571.2513 727.1342,575.1283 722.0162,579.9043 C716.6422,584.9213 710.8092,589.3053 705.4562,594.2613 C681.8422,565.4003 649.4942,547.7033 621.4712,523.7543 C608.1862,512.3993 598.3982,496.9983 591.2352,481.1923 C587.5632,473.0893 584.8502,464.7493 582.7272,456.1173 C581.7712,452.2293 580.8362,448.3543 580.2112,444.4133 C579.4542,439.6403 579.2582,439.2333 576.0382,435.5083 C574.6522,433.9053 571.9672,429.2213 569.2522,429.7373 C566.9672,430.1723 562.7882,437.1273 561.3442,438.8453 C554.4002,447.1083 547.6682,455.6223 540.3572,463.5653 C529.1722,475.7193 518.9892,487.6793 508.6042,500.5613 C487.3602,526.9163 464.4442,551.7253 441.3202,576.5243 C439.6052,578.3633 435.6062,583.7563 433.1422,584.4813 C430.1462,585.3623 425.2772,581.6873 422.2602,579.6333 C414.9772,574.6753 409.2372,568.5383 403.0112,562.3933 C390.8622,550.4013 382.6352,533.5683 377.1012,517.5523 C373.7882,507.9653 371.6342,498.0273 368.2152,488.4733 C366.7902,484.4913 363.5602,479.5973 365.2002,476.1293 C365.6882,475.0953 368.7962,472.3483 369.8922,472.1383 C371.1882,471.8893 373.3492,473.6663 373.7992,473.5433 C378.0992,472.3663 375.7132,467.8653 378.2712,465.4433 C379.7212,464.0693 387.0962,464.2703 389.2982,463.5153 C397.3492,460.7533 404.5722,455.4853 412.1832,452.3403 C444.0462,439.1763 476.2972,426.3713 503.8042,404.8743 C510.9382,399.3003 515.6782,395.1113 524.1902,391.5083 C532.7922,387.8673 541.4392,384.6193 550.2162,381.4423 C557.9602,378.6393 565.7462,376.0113 573.7462,374.0023 C582.3962,371.8293 594.6672,369.0743 603.3102,371.8733 C620.2832,377.3683 625.7642,391.3533 632.5232,406.1063 C641.6682,426.0663 652.7252,444.9543 664.7122,463.3263 C687.7722,498.6743 715.8182,530.3933 738.3212,566.0273" fill="#714dd2"></path><g transform="translate(35.000000, 89.000000)" fill="#000000"><path d="M192.16002,164.5296 C191.22602,164.0556 183.93402,167.0236 182.71002,167.4776 C177.82102,169.2916 173.21602,172.3056 168.61002,174.7576 C172.14002,179.0536 175.67102,183.3506 179.20002,187.6476 C182.66002,179.1606 187.10702,172.1576 192.16002,164.5296 L192.16002,164.5296 Z M194.56702,217.3346 C193.36602,217.4696 203.50602,241.8366 204.69002,244.5726 C208.99902,254.5236 213.52302,264.3776 217.88902,274.3036 C222.11902,283.9226 227.48502,292.7716 232.89102,301.7576 C237.51502,309.4426 242.27102,321.3686 249.24602,327.0606 C244.84202,307.5226 245.42202,285.0576 232.79002,268.6526 C219.69602,251.6456 206.75002,235.0386 194.56702,217.3346 L194.56702,217.3346 Z M703.32102,477.8946 C683.75402,446.9096 659.26002,419.4986 638.85602,389.0666 C627.43102,372.0266 616.31102,354.7686 606.69402,336.6306 C599.69902,323.4366 595.35102,304.6116 584.54702,294.5246 C579.78602,290.0806 574.69902,285.7306 568.31002,283.7396 C559.56702,281.0156 547.52902,283.7156 538.74602,285.8696 C522.37902,289.8826 506.39002,296.1146 490.88702,302.6596 C475.16202,309.2976 461.74602,321.2216 447.53802,330.8016 C432.29702,341.0796 415.79902,348.5666 398.72302,355.1206 C383.85502,360.8276 370.62802,369.0206 355.83902,374.7646 C352.89202,375.9096 346.87802,375.7416 344.40602,377.2346 C341.74202,378.8416 342.79102,383.5876 339.55702,385.3386 C338.09802,386.1286 337.61202,383.2646 336.49202,383.3116 C335.12202,383.3686 333.87302,384.9766 332.55302,385.9946 C327.17802,390.1416 330.47102,392.9066 332.59902,398.6126 C339.53602,417.2046 343.26402,436.1206 353.00402,453.6726 C361.01202,468.0996 372.47302,481.0276 385.96702,490.5786 C388.02002,492.0326 394.71102,497.6646 397.12002,497.2896 C399.28902,496.9536 403.70202,491.1876 405.20002,489.6216 C411.99502,482.5156 418.20602,474.8716 424.99702,467.7546 C435.49102,456.7556 445.59302,445.4616 455.77702,434.3126 C467.59902,421.3696 478.06202,406.7046 488.71002,392.8756 C493.60802,386.5136 499.91302,381.3316 505.35702,375.4326 C512.67802,367.5006 519.40002,358.9736 526.34502,350.7126 C528.44502,348.2126 531.96502,341.8176 535.23002,341.8926 C537.51802,341.9456 541.55202,347.3326 542.74902,349.0206 C547.19702,355.2956 547.17702,366.6276 549.38902,374.4606 C554.78702,393.5606 564.52002,412.2156 577.86902,426.9546 C591.14302,441.6116 608.14702,452.0346 623.84702,463.8156 C640.85502,476.5796 656.96802,489.6416 670.45602,506.1286 C675.80902,501.1726 681.64202,496.7876 687.01602,491.7716 C692.13502,486.9946 698.80502,483.1186 703.32102,477.8946 L703.32102,477.8946 Z M451.45202,565.5546 C455.25602,565.5936 461.69802,567.9336 465.10102,566.5246 C455.00702,555.3556 445.73702,545.7726 432.96602,537.5876 C419.71302,529.0936 406.50402,520.6756 393.63202,511.6156 C367.69102,493.3576 348.61102,471.7046 337.77502,441.2986 C334.98502,433.4686 333.11602,425.2566 331.07102,417.2076 C329.97102,412.8726 327.78102,392.5926 324.06202,390.8416 C321.85902,389.8036 305.27902,401.4566 302.65202,402.9086 C296.51002,406.3056 290.34502,408.9396 283.99502,411.5976 C270.34602,417.3126 256.27502,421.6716 241.80102,425.3106 C224.44802,429.6736 212.62802,422.4546 201.87802,408.8156 C189.68202,393.3416 179.54702,375.8826 168.39602,359.6326 C163.32502,352.2416 159.12402,344.8626 155.37902,336.7106 C152.92802,331.3766 143.20702,316.9856 146.56602,311.3026 C156.14902,318.5986 159.59702,333.1056 166.12502,342.8746 C174.26102,355.0496 183.43002,366.5286 191.60802,378.6926 C198.48502,388.9206 205.50102,401.3156 215.66102,408.6686 C224.59802,415.1356 233.08802,413.1476 242.70602,410.2406 C254.36302,406.7186 266.44602,404.9826 277.87002,400.6136 C290.23302,395.8866 301.93002,389.1806 313.99202,383.7126 C319.61502,381.1626 326.34802,379.7136 331.64702,376.5346 C336.21402,373.7966 335.53302,372.3506 335.86802,366.5196 C336.26002,359.7166 336.71102,352.9086 337.01202,346.0996 C337.21402,341.5246 334.74002,335.3216 336.41902,331.9066 C322.72502,334.2806 309.34102,337.4606 295.74302,340.2736 C288.29802,341.8136 281.11902,343.7176 273.59802,344.9276 C270.73102,345.3886 266.81202,345.3756 264.24502,346.6246 C262.19702,346.0366 261.15302,346.4106 261.11302,347.7456 C261.01502,348.4706 260.86002,349.1856 260.64702,349.8886 C256.44802,351.7986 254.00602,347.7016 250.36402,343.7716 C245.87002,338.9216 242.50502,333.4596 239.20802,327.7606 C231.83602,315.0186 223.33902,303.0346 216.51702,289.9336 C209.56402,276.5786 203.91702,262.2796 198.02202,248.4236 C192.61402,235.7116 189.15102,221.9636 183.17502,209.5526 C180.50802,204.0126 177.12802,199.4316 173.18102,194.7516 C169.92402,190.8896 164.91302,182.5586 160.04902,180.7846 C158.76302,180.3156 155.39502,181.1036 153.93402,180.9996 C151.02202,180.7916 148.42702,179.7226 145.44702,179.9566 C138.99502,180.4616 131.96102,184.5416 126.80502,188.1286 C130.13702,191.0986 138.47202,194.7086 132.48502,200.0586 C126.67502,205.2526 123.46602,195.9356 121.24902,191.8536 C110.80902,200.4266 112.31802,212.2476 111.11202,224.3606 C110.48202,230.6846 108.82502,236.9126 107.75602,243.1416 C106.98602,247.6246 107.52602,252.2616 107.30602,256.8386 C106.74502,268.4696 105.57602,279.6026 105.631009,291.0706 C105.69302,303.3286 106.52802,315.1666 107.50902,327.3356 C109.16002,347.8236 112.94302,368.3186 116.18702,388.6436 C118.01202,400.0686 120.51002,411.1686 122.93502,422.4086 C125.68702,435.1656 130.77802,447.2486 133.63302,459.9726 C136.54202,456.2746 138.73002,456.2566 143.43502,456.7466 C147.05402,457.1236 149.48502,456.2626 149.27302,461.2856 C149.13602,464.5436 146.26202,467.0316 143.08202,467.6006 C138.93502,468.3416 137.52602,466.2726 135.38902,463.1316 C134.88902,469.0796 138.88902,475.2986 140.47102,481.1076 C141.96802,486.6126 142.96002,492.0086 145.47602,497.2776 C147.93102,502.4176 150.03302,507.4876 152.51702,512.5786 C153.66102,514.9206 154.73102,517.2996 155.88802,519.6356 C156.47302,520.8186 157.16202,522.4486 158.03502,523.4456 C160.08302,525.7826 159.75702,524.6506 162.15402,525.9816 C167.37602,528.8826 165.41502,528.1596 165.53702,534.1496 C165.65602,540.0586 168.68602,544.3996 173.54502,547.7206 C183.85402,554.7686 194.02202,556.7286 205.74202,560.2896 C216.66202,563.6076 228.16402,566.4546 239.72702,566.3896 C253.88902,566.3106 267.86302,564.4536 282.02502,564.2656 C297.64902,564.0586 313.42302,564.1436 329.01502,564.6836 C335.43802,564.9056 341.40302,565.1916 347.60402,566.8316 C354.80502,568.7376 361.77102,567.9816 369.19302,567.6926 C385.02702,567.0766 401.40702,565.8516 417.03402,565.7416 C428.28602,565.6616 440.15802,564.8766 451.45202,565.5546 L451.45202,565.5546 Z M862.04002,571.6926 C864.85502,573.1796 871.16502,572.5696 873.99502,572.1566 C878.98002,571.4296 879.51402,569.4536 882.67702,565.0086 C888.12102,557.3536 892.54102,550.0226 895.74402,541.1556 C901.87402,524.1846 904.37702,506.8226 907.06802,489.0696 C910.05902,469.3436 904.59702,448.8966 902.64302,429.3046 C902.19402,424.8096 901.58002,420.3556 900.87002,415.8946 C900.44502,413.2276 900.33402,404.1546 898.57902,401.8456 C895.20702,397.4096 879.52702,400.9876 873.36202,401.3896 C856.15402,402.5136 838.83302,402.7766 821.63302,402.9716 C812.46202,403.0756 803.24002,403.4596 794.16002,403.5306 C789.99002,403.5636 785.91302,403.3566 781.72802,402.9506 C780.32802,402.8156 778.96102,402.4936 777.55102,402.4156 C772.72302,402.1486 773.08602,401.4486 771.83802,405.7236 C769.65202,413.2136 771.33402,422.7426 770.76002,430.5166 C769.99202,440.9046 769.57702,451.4396 769.76702,461.8496 C769.94302,471.4696 769.61502,481.0676 769.97402,490.7086 C770.12402,494.7016 770.56002,497.9566 771.61302,501.7696 C772.80402,506.0806 774.11402,516.1526 777.08002,519.1356 C777.41702,519.4756 779.93802,518.6836 780.60702,519.5296 C781.63802,520.8326 781.44902,523.5896 782.15702,524.4316 C784.44802,527.1576 789.18302,527.3736 792.61802,528.5986 C802.04302,531.9596 810.68902,535.6086 819.57202,540.1406 C827.50902,544.1896 840.30602,547.6356 845.07802,555.6236 C847.26602,559.2856 847.56102,564.1146 849.57302,567.8926 C851.86402,572.1966 847.28002,569.9466 852.89302,571.6926 C855.42102,572.4786 859.44902,571.6926 862.04002,571.6926 L862.04002,571.6926 Z M25.28502,523.0146 C24.57102,532.9536 18.97202,542.4206 17.02302,552.1926 C16.11102,556.7686 14.56402,561.2666 13.49202,565.8156 C12.46402,570.1796 8.75001997,575.3476 9.12601997,579.6656 C22.83402,574.7816 36.71902,573.5536 51.04602,572.2366 C64.62502,570.9876 78.97002,570.4906 92.43502,570.4846 C106.15602,570.4776 120.82702,569.1376 134.95502,568.9296 C149.73002,568.7126 164.72802,568.3296 179.28902,566.7976 C171.67502,561.1586 162.14802,555.8626 156.52602,548.0166 C150.41402,539.4876 147.24002,528.8016 141.86202,519.8016 C131.07002,501.7406 124.20902,479.3296 118.55202,459.0386 C107.13102,418.0766 94.36802,377.8706 91.29202,335.3826 C85.43802,338.3806 80.79102,350.0116 77.86002,355.8036 C74.11902,363.1986 72.16002,371.2146 69.72802,379.0746 C64.72002,395.2636 61.25402,412.0496 55.12202,428.0846 C43.40202,458.7366 35.86902,491.7646 25.28502,523.0146 L25.28502,523.0146 Z M769.39702,284.2776 C771.93202,302.5976 777.24802,321.1546 777.45202,339.6956 C777.49702,343.7746 776.80602,348.3046 777.65602,352.3266 C778.56402,356.6206 781.51702,360.4166 783.22202,364.4976 C785.92802,370.9756 792.78102,384.2536 786.17202,389.7426 C786.03802,384.5336 781.27102,377.9186 778.87002,373.3636 C775.25102,366.5006 770.49602,360.2256 766.57302,353.5326 C758.36102,339.5236 749.15902,325.8146 738.57602,313.4646 C728.26802,301.4346 716.38802,290.7636 705.45702,279.3086 C702.17302,275.8666 675.82702,242.7396 674.78002,243.2026 C682.95202,274.7166 696.84402,302.1366 715.85502,328.5226 C725.17602,341.4576 736.36302,349.9696 747.71002,360.9276 C757.15902,370.0536 774.96802,379.8116 771.70102,394.7646 C786.47202,393.3446 801.14602,391.0756 816.05102,391.0756 C813.60002,372.2106 811.72302,353.6446 807.34702,335.0896 C802.37902,314.0206 799.01402,292.3216 794.81002,271.0656 C790.52002,249.3656 783.24302,228.3576 778.71602,206.6986 C774.38102,185.9586 770.65702,165.2556 767.47902,144.2846 C764.85302,155.9046 765.82202,168.6676 764.89002,180.5236 C763.93802,192.6366 764.03002,204.5266 764.34702,216.7106 C764.93402,239.3416 767.34602,261.6996 769.39702,284.2776 L769.39702,284.2776 Z M833.40302,176.3796 C833.48602,166.6926 835.36302,157.1366 835.94202,147.4726 C836.12002,144.5076 839.07302,124.2786 836.31902,123.2226 C834.05402,128.1606 833.52602,134.4796 831.46902,139.6606 C829.41402,144.8366 826.66502,149.7676 824.69302,154.9796 C820.42102,166.2706 818.94702,179.0466 818.48702,191.0506 C817.44602,218.2026 816.90802,245.2936 818.73302,272.4456 C819.51502,284.0836 820.11502,295.7416 819.90102,307.4026 C819.66602,320.2336 817.70102,331.3706 820.08702,344.0966 C822.44902,356.6986 823.93302,369.2486 824.72002,382.0346 C825.27202,391.0086 825.49402,390.3736 834.05602,389.7426 C840.23702,389.2866 846.47902,389.7736 852.66902,389.4906 C849.77502,354.5146 849.30202,319.4666 844.67902,284.6246 C842.32002,266.8496 842.25702,248.8176 839.32702,231.1086 C837.87102,222.3116 835.42802,213.6916 834.02402,204.8846 C832.51702,195.4286 833.25902,185.9086 833.40302,176.3796 L833.40302,176.3796 Z M207.29502,154.3686 C223.77802,155.7966 241.31102,160.7246 258.20602,157.4706 C255.42102,156.3426 248.13302,154.7866 251.41302,150.3346 C254.74802,145.8076 260.36802,151.5496 263.69402,150.9566 C265.74502,150.5906 270.27702,142.0176 271.54102,140.2426 C274.41002,136.2086 274.75602,135.5056 279.91502,134.4716 C284.91302,133.4716 286.04602,134.5546 286.67902,129.5856 C287.40602,123.8716 285.42902,117.4476 285.62502,111.6046 C286.04602,99.0256 290.10402,87.9946 293.88102,76.1596 C277.83402,79.6506 262.14302,83.7906 245.73502,86.0406 C238.72102,87.0026 227.80902,89.2216 221.43702,84.4536 C219.78002,83.2136 220.04502,81.5396 218.68902,80.1026 C216.41502,77.6916 212.19702,75.1976 208.97202,74.5106 C189.12502,70.2856 187.18902,98.5786 197.13502,109.1656 C199.62602,111.8186 203.09202,113.1286 205.64302,115.5596 C209.04802,118.8016 209.32702,122.2166 209.82402,127.1656 C210.75602,136.4456 209.49002,145.7616 205.53102,154.2506 L207.29502,154.3686 Z M448.14002,287.9386 C453.99902,289.0506 460.11402,288.7966 465.98802,289.7456 C468.07502,290.0826 474.33202,291.2586 476.16702,290.0386 C478.96902,288.1756 479.96502,281.3426 481.29002,278.1606 C483.62002,272.5636 486.91702,267.6816 489.13902,261.9826 C498.21902,238.7046 506.68602,215.3336 517.66802,192.8506 C513.45902,191.7566 510.22702,191.7136 505.98502,191.1486 C501.56602,190.5596 497.56002,187.9466 493.34402,186.8236 C489.33702,185.7566 485.13902,186.0286 481.16902,184.7876 C478.98202,184.1046 477.10502,182.5856 474.94902,182.0546 C471.51202,181.2096 467.50102,180.7156 465.45702,182.9716 C463.36202,185.2856 462.62702,191.6306 461.48702,194.6196 C458.45102,202.5826 454.92402,210.2676 452.38102,218.4136 C450.08602,225.7606 447.90602,233.0296 445.88602,240.4436 C443.75202,248.2706 439.54602,254.7216 436.98402,262.1986 C435.03502,267.8896 433.19602,273.7076 432.90502,279.7756 C432.62202,285.6966 431.76002,286.0736 437.68102,287.0196 C440.67002,287.4966 445.32802,289.2726 448.14002,287.9386 L448.14002,287.9386 Z M833.63002,565.0546 C835.15602,565.7656 836.59502,565.6716 837.94502,564.7706 C824.71502,559.1826 811.84602,551.4326 798.04402,547.5986 C785.09702,544.0036 772.51302,539.7076 760.04002,535.2796 C749.90502,531.6816 740.79302,528.8806 731.63002,522.5486 C726.06802,518.7046 721.12702,514.3826 717.30502,508.7656 C713.05002,502.5116 712.10302,493.6116 707.49502,487.9796 C701.27502,494.8106 693.96802,499.9836 686.60902,505.4116 C684.06302,507.2896 677.95602,511.3836 677.08502,514.2896 C675.98602,517.9566 678.93002,521.4646 680.38602,525.1756 C684.11502,534.6796 685.93702,544.1786 687.96002,554.0596 C688.77102,558.0196 690.52202,563.9726 693.77502,565.6316 C696.73702,567.1406 705.31502,566.0436 709.00102,565.7636 C728.23102,564.3066 747.12002,562.8146 766.46602,564.1416 C788.35802,565.6426 811.79502,566.6796 833.63002,565.0546 L833.63002,565.0546 Z M872.03902,388.9426 C875.53402,388.9546 878.94802,388.5176 882.43002,388.5176 C880.42002,379.1326 885.11902,366.9886 886.78502,357.6206 C888.64902,347.1416 890.06802,336.3056 891.31102,325.7426 C893.93102,303.4936 895.11802,281.5146 895.15202,259.1026 C895.18402,237.4156 899.13202,217.5976 904.66202,196.7496 C910.60002,174.3596 920.32402,154.2246 928.36402,132.6316 C919.54502,137.2936 914.66302,148.2026 910.02902,156.5426 C904.17102,167.0876 900.26902,178.7636 897.87702,190.6016 C893.26202,213.4386 888.20002,236.3446 882.87502,259.1436 C877.33002,282.8826 874.07002,306.8396 867.71802,330.3846 C864.62002,341.8666 860.40802,355.9926 860.17402,367.8336 C860.07702,372.7316 858.60102,382.9896 860.82102,387.2436 C862.89702,391.2236 867.48702,389.3486 872.03902,388.9426 L872.03902,388.9426 Z M344.48802,359.4886 C344.30402,361.9266 344.13002,364.2456 343.69702,366.6536 C348.53802,366.6076 354.66902,361.5846 358.82102,359.3296 C363.87902,356.5826 368.94302,353.5526 373.89002,350.7916 C383.44002,345.4596 394.28202,341.9466 404.47902,337.5666 C416.19302,332.5346 426.96002,326.4546 438.16202,320.3966 C442.07502,318.2806 470.19702,306.0906 469.72502,302.7606 C463.55102,302.5546 457.37702,302.3496 451.20202,302.1446 C445.90902,301.9686 437.71102,303.1646 432.64202,301.5286 C429.86602,300.6316 426.74902,297.3306 425.70102,294.7456 C424.66402,292.1876 426.99502,280.4226 425.64002,279.6726 C418.73002,286.7276 414.38502,296.1046 408.20702,303.7156 C401.38002,312.1276 392.55802,317.0396 382.83502,321.5096 C372.09802,326.4466 360.98502,330.2696 350.01202,334.5006 C345.38402,336.2846 345.47602,337.3056 345.07302,342.3796 C344.62202,348.0506 344.67102,353.8026 344.48802,359.4886 L344.48802,359.4886 Z M902.43502,572.8486 C914.07402,574.0976 926.00202,573.3856 937.73202,574.3596 C942.00002,574.7136 947.91702,575.2416 943.62302,580.9696 C940.91902,584.5776 932.25702,583.4206 928.32802,583.6706 C917.77902,584.3416 906.61002,583.9806 896.03702,583.8246 C893.81102,583.7926 891.35102,583.1306 889.10102,583.2796 C886.50402,583.4506 883.39402,585.3186 881.02702,585.3046 C879.56802,585.2956 879.04502,583.7566 877.78702,583.6156 C875.04602,583.3076 872.30602,583.0826 869.54202,583.0836 C827.75202,583.0926 786.53602,582.2526 744.85002,582.2076 C724.91702,582.1866 704.66402,581.8426 684.73902,580.9066 C680.55502,580.7096 656.72702,581.5656 657.38702,574.0316 C657.72602,570.1516 665.50302,569.6046 668.34102,569.1926 C670.44402,568.8876 672.62602,568.9356 674.73302,568.8226 C680.33102,568.5226 682.78302,569.8696 681.60202,563.7446 C677.12302,540.5126 669.09702,521.3126 651.94902,504.6086 C637.92702,490.9496 621.04302,478.5596 605.16102,467.1536 C585.87702,453.3036 570.23302,438.7376 558.78402,417.5446 C552.09802,405.1686 546.50102,392.5156 543.06602,378.8316 C541.83002,373.9086 541.80102,368.3096 540.28602,363.5636 C539.12102,359.9096 536.46502,357.3526 534.90102,353.5676 C515.71502,385.6136 490.28602,412.4246 466.97002,441.3186 C455.82902,455.1226 443.12002,468.2336 429.80902,480.2426 C425.85902,483.8066 422.17302,487.5276 418.48602,491.3626 C415.40202,494.5726 410.50602,497.4256 407.90202,500.9866 C405.40402,504.4026 406.01902,504.2396 409.82102,506.9526 C414.84702,510.5376 420.38602,513.5166 425.49102,517.0126 C433.65102,522.6016 442.55802,527.3236 449.85402,534.0496 C457.74502,541.3236 464.63902,549.7496 471.53602,557.9516 C476.13302,563.4186 482.16502,570.4336 483.32102,577.3456 C483.70402,579.6326 485.15802,585.2886 483.23902,586.9636 C481.59902,588.3946 481.76402,587.8516 479.72802,586.9786 C477.06002,585.8346 476.27502,583.2096 473.01602,581.9586 C464.67702,578.7586 454.58602,579.8576 445.90902,579.8186 C437.22902,579.7796 428.47702,580.7546 419.80102,580.7186 C399.98902,580.6376 380.59902,582.2416 360.79302,583.1026 C339.75702,584.0166 318.46302,581.8226 297.49702,582.1336 C281.96302,582.3636 266.01502,581.2026 250.05202,582.0656 C241.84102,582.5086 233.77702,581.4816 225.77102,581.3666 C215.28902,581.2156 204.52402,582.6416 193.95202,582.8446 C176.60002,583.1796 159.46002,583.1776 142.00202,583.5946 C104.45002,584.4936 67.10102,585.4216 29.52702,586.0166 C24.51502,586.0956 19.02802,585.9256 14.07502,586.4896 C8.81801997,587.0896 11.53202,588.2066 7.92501997,590.0996 C-2.17298003,595.3966 0.159019974,575.7606 0.401019974,571.8986 C1.69901997,551.2026 6.95301997,530.9046 13.26702,511.2566 C19.25702,492.6216 24.12002,473.1176 29.19302,454.0796 C34.74602,433.2426 41.98102,413.2586 48.55102,392.6266 C55.28302,371.4846 60.76402,349.5186 72.99102,330.7776 C75.77602,326.5096 78.65402,321.9166 83.13402,319.2256 C88.15602,316.2086 88.37202,317.9706 88.36802,312.4496 C88.36502,307.2496 88.68502,300.3026 87.45802,295.3406 C86.34902,290.8576 86.52002,293.5156 84.02302,290.2956 C81.99102,287.6766 79.86502,285.8866 78.40702,282.7066 C69.45102,291.7876 48.95002,286.9956 40.29702,280.4566 C29.70602,272.4526 21.63902,258.9496 18.68302,246.0896 C16.30902,235.7626 19.22202,216.0776 30.65202,211.1116 C36.22402,208.6906 56.69002,206.8606 57.50902,198.9706 C57.93102,194.8976 50.72802,189.1706 49.06602,185.6686 C45.98602,179.1806 43.02802,170.5506 42.17202,163.4386 C40.50002,149.5566 46.80202,134.0336 56.84102,124.6566 C75.25702,107.4546 107.66002,98.6266 131.34902,109.5406 C126.34302,90.4176 123.32102,73.9206 125.84202,54.0286 C128.01402,36.8916 138.12502,27.3036 152.03802,18.7676 C175.78002,4.1996 208.06602,-1.5504 235.21302,2.6856 C241.38202,3.6486 247.30202,5.7136 253.01402,7.3566 C261.31202,9.7436 271.24602,8.9486 279.08102,12.8266 C284.76202,15.6376 289.07602,21.2376 294.06502,24.9766 C299.89002,29.3416 304.73002,35.8566 308.77702,41.8816 C317.43202,54.7656 314.05002,78.6776 306.80602,91.6106 C305.25302,94.3846 303.33402,96.7196 300.76402,98.6126 C298.08802,100.5826 294.00902,101.1956 292.63002,103.7506 C289.09802,110.2956 292.50502,124.4646 292.97602,131.5386 C293.52502,139.7526 289.37202,145.9226 280.05802,146.5776 C274.67002,146.9576 274.49802,143.8316 271.91802,150.2636 C270.24602,154.4326 268.72702,158.9746 266.31402,162.7966 C261.33902,170.6736 252.22702,169.9046 243.92702,169.6916 C234.31902,169.4436 224.85502,167.9256 215.24202,166.9676 C217.78102,175.1026 224.73102,181.4166 229.07102,188.6636 C234.93902,198.4656 238.47102,206.5906 239.42502,218.0106 C240.15702,226.7846 238.57702,233.7136 232.57302,240.2436 C230.08802,242.9466 227.88502,243.0796 228.50202,246.1976 C228.87802,248.0996 232.16702,251.2376 233.33102,252.7556 C236.41002,256.7716 239.98502,260.4576 242.69502,264.7466 C253.12302,281.2486 256.20302,306.4046 256.22902,325.6146 C256.23002,326.4956 256.70002,328.3686 256.31102,329.2796 C256.02302,329.9526 253.83502,332.0836 253.80302,332.2666 C253.37502,334.7366 255.78302,338.9706 259.56202,339.3896 C263.53102,339.8286 270.80002,336.5166 274.49202,335.4286 C280.40002,333.6866 286.42202,332.4006 292.31702,330.6116 C301.83802,327.7226 311.31502,325.4186 320.99402,323.1546 C325.36802,322.1326 329.76602,321.2806 334.15402,320.3246 C339.15202,319.2366 341.47402,317.1336 344.05402,322.2186 C346.26702,326.5826 344.89102,327.3736 350.25202,325.1746 C355.57502,322.9896 360.77602,320.2816 365.97302,317.8156 C375.13902,313.4676 386.05502,309.5916 393.96202,303.1726 C407.15102,292.4636 412.03502,275.4096 424.65802,264.0466 C428.17302,260.8826 430.27002,260.8266 432.49202,256.4436 C434.87102,251.7526 436.09802,245.7366 437.34802,240.6906 C439.53902,231.8546 441.09802,222.9876 443.08502,214.1596 C445.56002,203.1616 450.90902,193.2016 454.81202,182.7116 C456.33302,178.6246 457.12102,173.4296 459.57402,169.7566 C460.22402,168.7826 461.46602,168.2336 461.97302,167.4276 C463.71802,164.6606 463.70002,163.9006 464.15202,160.5716 C466.26702,145.0166 475.55202,153.1996 485.69802,156.7666 C489.97302,158.2696 510.27202,168.0166 502.52102,174.4986 C511.76102,177.1796 526.56002,175.7226 526.43602,188.9646 C526.37202,195.7496 522.31402,203.0076 520.13602,209.3586 C518.20102,214.9976 516.33102,220.6586 514.36602,226.2886 C510.06102,238.6216 504.83802,250.5856 500.63702,262.9566 C498.72202,268.5946 497.14202,274.3646 494.47602,279.6856 C492.12502,284.3796 486.43202,289.5536 485.49402,294.6866 C510.11702,284.1816 532.89602,268.9936 560.45702,269.9616 C572.52502,270.3846 583.47702,275.4576 590.14202,286.0686 C598.49802,299.3686 603.99602,314.2596 612.16302,327.6826 C641.87402,376.5116 677.31002,420.8716 709.92602,467.6796 C712.43102,471.2766 715.65302,474.6776 716.52202,479.1226 C717.08902,482.0226 715.98902,484.9236 716.66902,487.7096 C718.08002,493.4996 725.20902,500.7286 730.04302,504.0556 C739.30902,510.4336 754.37202,519.4296 765.93502,518.6336 C758.67802,501.1936 758.77502,482.0846 759.11202,463.4816 C759.43302,445.8106 761.34302,428.2816 763.61002,410.7926 C764.12302,406.8356 764.57002,403.1676 765.70702,399.3326 C767.01202,394.9326 768.80402,395.3496 764.89502,391.3946 C758.87902,385.3046 751.72302,380.2936 745.65802,374.1276 C732.54102,360.7936 719.09702,350.3426 708.77302,334.4196 C698.95502,319.2746 688.59702,303.6916 681.32902,287.1066 C673.84702,270.0336 670.85602,251.8006 667.14202,233.7196 C665.63502,226.3826 660.13902,218.1916 661.24302,210.5296 C662.63902,200.8466 667.12902,207.8976 668.95702,213.1086 C674.53502,229.0156 687.59602,243.2526 698.41402,256.0456 C710.10202,269.8656 724.39702,281.4286 736.59702,294.8466 C749.88202,309.4606 758.98202,326.2556 770.79602,341.8556 C770.79602,322.4956 764.18602,302.7816 761.48202,283.6296 C759.10302,266.7726 758.35602,249.8626 756.85202,232.9326 C753.43702,194.4746 756.38802,154.8836 761.18102,116.7006 C763.45902,98.5666 762.16702,80.8596 762.23602,62.6636 C762.25802,56.8726 759.86102,43.5256 762.91602,38.3866 C768.76702,28.5436 772.18002,50.0666 772.47602,53.2756 C774.24502,72.3916 771.07202,91.2946 772.69302,110.3286 C774.38702,130.2056 778.06302,149.5246 781.19102,169.1716 C784.58002,190.4446 790.09702,211.2376 795.37902,232.1026 C800.92502,254.0096 805.58902,276.3736 811.75502,298.1056 C813.41802,291.2746 811.08502,282.8826 810.62402,275.9256 C809.96602,265.9696 808.68102,256.0116 808.57002,246.0296 C808.39202,230.1206 808.26802,213.9166 809.16802,198.0816 C810.05502,182.4736 809.78702,166.1186 814.57402,151.0816 C816.84602,143.9446 820.17802,136.9816 823.43802,130.2586 C827.46002,121.9686 828.88202,113.9306 831.10902,105.1136 C833.01702,97.5626 835.80902,90.2106 837.08002,82.5086 C837.87002,77.7186 840.07502,63.5786 845.55902,74.2916 C848.74302,80.5096 847.36702,89.7276 847.45602,96.4076 C847.57002,104.9716 846.25902,113.2986 846.05802,121.8266 C845.66702,138.5586 845.38602,155.2706 844.13802,171.9746 C842.82902,189.4996 843.97202,205.2056 847.30602,222.4736 C850.95502,241.3756 852.02302,260.3186 853.91402,279.4516 C854.88902,289.3306 856.53302,299.1546 857.32702,309.0476 C857.74702,314.2866 855.59302,329.3096 859.34702,333.0406 C859.71002,323.9666 862.31002,314.8846 864.28102,306.0426 C866.61602,295.5676 867.55902,284.5556 869.28002,273.9306 C872.06702,256.7166 877.47502,240.2776 881.05302,223.2566 C888.42802,188.1696 894.55602,143.0746 925.46402,120.1086 C929.50802,117.1036 933.95202,114.8856 938.32402,112.4126 C940.79902,111.0126 944.47602,107.3906 947.30802,106.7586 C950.39902,106.0686 951.68802,106.6046 952.94102,110.1906 C954.68802,115.1896 951.49302,117.5246 948.51002,121.1556 C938.18702,133.7196 933.77702,149.8256 927.40302,164.5606 C912.80702,198.3016 906.34902,233.8896 906.27502,270.3616 C906.23602,289.4546 904.91902,307.8696 902.88302,326.8466 C900.69202,347.2696 897.80702,368.8696 891.60202,388.5166 C897.82502,389.9116 904.57702,387.8316 906.26602,395.0656 C906.68102,396.8426 905.93102,398.9436 906.39002,401.2566 C906.83602,403.5046 907.90902,405.7406 908.54402,407.9516 C909.85602,412.5246 910.55002,417.0366 911.18802,421.7326 C913.65502,439.8806 917.89102,457.1416 918.34202,475.5426 C918.75702,492.5516 915.42702,509.7846 912.35902,526.4666 C909.26802,543.2686 900.40302,557.5916 893.42402,572.7866 C896.42802,572.7866 899.43102,572.8176 902.43502,572.8486 L902.43502,572.8486 Z"></path><path d="M507.43442,534.2254 C504.12442,535.1614 488.14542,536.9274 488.14842,541.9414 C488.15042,544.9484 504.10842,544.8894 506.93242,545.2164 C507.10042,541.5534 507.26742,537.8894 507.43442,534.2254 M542.70542,568.8244 C551.91342,570.5754 564.41242,568.1134 570.29942,559.9954 C573.05042,556.2024 574.35442,550.4334 575.25042,545.9064 C576.10642,541.5924 578.74542,530.8274 576.94942,526.7834 C574.74442,521.8174 553.58742,527.0074 547.42642,527.5774 C536.67742,528.5694 525.56242,528.6864 514.80642,527.9854 C514.80642,539.0914 514.23842,549.9154 520.77042,559.4744 C525.48342,566.3714 534.33342,567.9994 542.70542,568.8244 M540.85442,582.5424 C530.84942,578.8804 520.34542,581.2604 513.83042,570.5194 C512.17742,567.7944 510.78542,564.8644 509.78542,561.8374 C509.29642,560.5114 508.91642,559.1534 508.64642,557.7624 C509.15542,554.7684 508.05842,553.9244 505.35642,555.2294 C500.05342,554.1984 494.23842,557.8384 488.65242,556.7654 C475.10442,554.1634 477.56542,534.7564 486.65742,528.0384 C488.45342,526.7104 490.24742,526.3414 492.30342,525.6854 C496.83542,524.2414 499.28842,525.8544 503.43342,525.4444 C506.78342,525.1134 507.70442,521.6004 511.30442,520.0534 C513.66142,519.0414 516.93342,519.1194 519.41142,519.0174 C532.37942,518.4844 545.38842,518.4894 558.43942,517.6444 C564.52642,517.2504 571.09842,518.2144 577.06142,517.1744 C579.85342,516.6864 579.45242,514.8284 582.09642,516.4584 C584.83342,518.1464 583.65142,524.3884 583.51342,526.8774 C582.71442,541.2704 581.85742,556.7064 574.14742,569.2894 C567.09342,580.8024 553.21242,581.9804 540.85442,582.5424"></path><path d="M12.46672,586.5076 C15.68572,586.4726 18.90372,586.4386 22.11172,586.4056 C18.88872,586.4406 15.67772,586.4736 12.46672,586.5076"></path><path d="M906.29482,279.6311 C906.28882,276.5391 906.28182,273.4471 906.27482,270.3611 C906.28082,273.4551 906.28782,276.5431 906.29482,279.6311"></path><path d="M87.46772,292.3289 C87.45772,295.3409 87.44772,298.3529 87.43772,301.3579 C87.44672,298.3439 87.45672,295.3359 87.46772,292.3289"></path><path d="M355.03702,583.093 C357.59802,583.097 360.15902,583.1 362.70802,583.107 C360.14302,583.104 357.59102,583.099 355.03702,583.093"></path><path d="M199.53992,582.4788 C202.10092,582.4868 204.66092,582.4948 207.20992,582.5048 C204.64492,582.4978 202.09292,582.4878 199.53992,582.4788"></path><path d="M759.45012,457.3875 C759.33812,459.4205 759.22412,461.4525 759.11212,463.4815 C759.22512,461.4465 759.33812,459.4175 759.45012,457.3875"></path><path d="M902.43542,572.8484 C900.45642,572.8274 898.47742,572.8074 896.49842,572.7864 C898.48642,571.9574 900.46542,571.9944 902.43542,572.8484"></path><path d="M726.72942,581.8504 C728.15042,581.8284 729.57042,581.8064 730.97742,581.7824 C729.55342,581.8034 728.14142,581.8274 726.72942,581.8504"></path><path d="M905.52432,304.7185 C905.55932,303.1815 905.59432,301.6455 905.62932,300.1145 C905.59432,301.6525 905.55932,303.1855 905.52432,304.7185"></path><path d="M772.69322,110.3289 C772.57622,108.7439 772.45922,107.1599 772.34122,105.5789 C772.45922,107.1649 772.57622,108.7469 772.69322,110.3289"></path><path d="M906.22552,285.6839 C906.24452,284.0949 906.26352,282.5069 906.28252,280.9239 C906.26352,282.5139 906.24452,284.0989 906.22552,285.6839"></path><path d="M459.54092,579.8797 C460.80392,579.8987 462.06692,579.9167 463.31892,579.9327 C462.05392,579.9127 460.79692,579.8967 459.54092,579.8797"></path><path d="M784.84662,582.4705 C786.08062,582.4945 787.31562,582.5195 788.53862,582.5455 C787.29962,582.5215 786.07362,582.4955 784.84662,582.4705"></path><path d="M918.20012,470.7605 C918.11112,469.3665 918.02212,467.9735 917.93512,466.5825 C918.02412,467.9765 918.11212,469.3685 918.20012,470.7605"></path><path d="M896.03702,583.825 C897.04202,583.819 898.04702,583.813 899.04002,583.811 C898.03202,583.818 897.03402,583.822 896.03702,583.825"></path><path d="M759.11902,582.534 C760.11402,582.51 761.10902,582.485 762.09402,582.462 C761.09502,582.487 760.10602,582.511 759.11902,582.534"></path><path d="M535.43052,581.7742 C536.52652,581.7682 537.62152,581.7622 538.70652,581.7542 C537.60852,581.7602 536.51952,581.7672 535.43052,581.7742"></path><path d="M282.82212,581.7698 C283.86312,581.7768 284.90512,581.7848 285.93512,581.7938 C284.89012,581.7878 283.85612,581.7788 282.82212,581.7698"></path><path d="M221.37102,581.9383 C222.43302,581.8793 223.49302,581.8193 224.54502,581.7613 C223.48002,581.8213 222.42602,581.8793 221.37102,581.9383"></path><path d="M515.57602,177.3201 C513.99602,177.1841 512.41602,177.0481 510.83602,176.9111 C512.41802,177.0221 514.09102,176.0861 515.57602,177.3201"></path><path d="M918.34952,573.449 C916.79152,573.292 915.23352,573.134 913.67552,572.976 C915.23452,573.134 916.79152,573.292 918.34952,573.449"></path><path d="M809.67762,186.9129 C809.57362,188.2779 809.46762,189.6439 809.36362,191.0049 C809.46862,189.6379 809.57362,188.2749 809.67762,186.9129"></path><path d="M906.61712,243.825 C906.72312,242.531 906.82912,241.237 906.93512,239.948 C906.82912,241.244 906.72212,242.534 906.61712,243.825"></path><path d="M809.05752,208.0872 C808.94552,209.4502 808.83252,210.8122 808.72152,212.1702 C808.83352,210.8062 808.94552,209.4462 809.05752,208.0872"></path><path d="M905.95692,296.0628 C905.94692,294.7458 905.93692,293.4288 905.92792,292.1158 C906.77792,293.4288 906.74392,294.7428 905.95692,296.0628"></path><path d="M759.47252,485.1946 C759.46052,486.5146 759.44952,487.8356 759.43552,489.1496 C758.56352,487.8186 758.73752,486.5036 759.47252,485.1946"></path><path d="M858.77532,332.4724 C858.62332,331.1364 858.47032,329.7994 858.31832,328.4674 C858.47132,329.8054 858.62332,331.1394 858.77532,332.4724"></path><path d="M36.50962,209.8426 C35.47662,211.2076 34.06962,210.2726 32.84162,210.4386 C34.06562,210.2396 35.28762,210.0416 36.50962,209.8426"></path><path d="M547.30162,518.5906 C545.99662,518.5926 544.69162,518.5936 543.38662,518.5956 C544.69262,518.5936 545.99662,518.5916 547.30162,518.5906"></path><path d="M755.79872,215.4514 C755.92072,216.5614 756.04172,217.6714 756.16372,218.7774 C756.04172,217.6654 755.92072,216.5584 755.79872,215.4514"></path><path d="M110.85142,105.2097 C109.53942,105.2357 108.22742,105.2617 106.91542,105.2877 C108.21342,104.5237 109.52142,104.3027 110.85142,105.2097"></path><path d="M809.02532,227.2879 C808.94032,228.4519 808.85532,229.6149 808.77132,230.7739 C808.85632,229.6099 808.94032,228.4489 809.02532,227.2879"></path><path d="M773.04582,84.4055 C773.14782,83.3445 773.24882,82.2835 773.34982,81.2285 C773.24782,82.2915 773.14782,83.3485 773.04582,84.4055"></path><path d="M762.73622,81.0818 C762.63322,82.2328 762.53022,83.3848 762.42822,84.5318 C762.53122,83.3788 762.63322,82.2298 762.73622,81.0818"></path><path d="M192.84262,4.1902 C191.50762,4.3522 190.17262,4.5142 188.83862,4.6752 C190.17362,4.5132 191.50762,4.3522 192.84262,4.1902"></path><path d="M96.41882,106.1263 C95.04882,106.2663 93.67882,106.4063 92.30982,106.5463 C93.67982,106.4063 95.04982,106.2663 96.41882,106.1263"></path><path d="M847.15222,109.5003 C847.23622,108.4293 847.31922,107.3573 847.40222,106.2923 C847.31922,107.3643 847.23522,108.4323 847.15222,109.5003"></path><path d="M51.45302,286.2561 C52.24202,286.2681 53.03002,286.2791 53.80702,286.2911 C53.01502,286.2791 52.23402,286.2681 51.45302,286.2561"></path><path d="M762.77622,418.4417 C762.69722,419.6277 762.61822,420.8127 762.53922,421.9957 C762.61922,420.8097 762.69822,419.6257 762.77622,418.4417"></path><path d="M843.26162,187.6404 C843.22962,186.4974 843.19862,185.3554 843.16562,184.2154 C843.19962,185.3594 843.23062,186.4994 843.26162,187.6404"></path><path d="M226.44912,1.4857 C225.23212,1.4857 224.01512,1.4867 222.80012,1.4867 C224.01712,0.6507 225.23312,0.6717 226.44912,1.4857"></path><path d="M551.36022,270.5091 C550.02722,270.5431 548.69422,270.5771 547.36322,270.6111 C548.67222,269.6851 550.00622,269.6621 551.36022,270.5091"></path><path d="M667.84952,579.8333 C668.63952,579.8493 669.43052,579.8663 670.21052,579.8853 C669.41652,579.8703 668.63252,579.8513 667.84952,579.8333"></path><path d="M697.60632,581.222 C698.39532,581.194 699.18432,581.166 699.96232,581.139 C699.17032,581.167 698.38832,581.195 697.60632,581.222"></path><path d="M231.91102,581.7708 C232.73402,581.7918 233.55702,581.8128 234.36902,581.8328 C233.54302,581.8118 232.72702,581.7918 231.91102,581.7708"></path><path d="M917.51652,457.5359 C917.39952,456.4059 917.28252,455.2749 917.16452,454.1499 C917.28252,455.2819 917.39952,456.4089 917.51652,457.5359"></path><path d="M810.03312,267.0379 C810.12712,268.1149 810.22012,269.1919 810.31212,270.2619 C810.21912,269.1839 810.12612,268.1109 810.03312,267.0379"></path><path d="M851.39642,248.5476 C851.26842,247.4056 851.14042,246.2636 851.01342,245.1256 C851.14142,246.2686 851.26842,247.4076 851.39642,248.5476"></path><path d="M238.58782,582.4519 C239.41782,582.4389 240.24882,582.4259 241.06982,582.4149 C240.23582,582.4289 239.41182,582.4399 238.58782,582.4519"></path><path d="M540.85442,582.5423 C541.66242,582.5053 542.46842,582.4693 543.26642,582.4333 C542.45742,582.4703 541.65542,582.5063 540.85442,582.5423"></path><path d="M844.64542,165.1585 C844.60842,164.0015 844.57242,162.8445 844.53642,161.6895 C844.57342,162.8475 844.60942,164.0025 844.64542,165.1585"></path><path d="M159.88462,583.2078 C160.69462,583.2018 161.50362,583.1948 162.30262,583.1898 C161.48862,583.1968 160.68762,583.2028 159.88462,583.2078"></path><path d="M844.30652,583.1966 C845.13852,583.2046 845.97152,583.2136 846.79352,583.2226 C845.95652,583.2146 845.13152,583.2056 844.30652,583.1966"></path><path d="M862.28212,583.0974 C863.08612,583.1544 863.88912,583.2124 864.68312,583.2674 C863.87612,583.2104 863.07912,583.1544 862.28212,583.0974"></path><path d="M869.54192,583.0833 C870.35992,583.1073 871.17892,583.1323 871.98692,583.1503 C871.16592,583.1253 870.35392,583.1043 869.54192,583.0833"></path><path d="M906.81732,253.1336 C906.76332,251.9956 906.71032,250.8566 906.65732,249.7216 C906.71132,250.8616 906.76332,251.9976 906.81732,253.1336"></path><path d="M357.48432,568.1663 C359.97332,568.0373 362.46332,567.9073 364.95332,567.7773 C362.46332,567.9073 359.97332,568.0363 357.48432,568.1663"></path><path d="M207.29482,154.3689 C209.45582,154.5569 211.61682,154.7449 213.77582,154.9309 C211.61482,154.7439 209.45482,154.5559 207.29482,154.3689"></path><path d="M817.44232,248.3206 C817.50932,250.3826 817.57832,252.4446 817.64532,254.5006 C817.57732,252.4376 817.50932,250.3796 817.44232,248.3206"></path><path d="M862.03992,571.6922 C864.29592,571.8292 866.55092,571.9652 868.80692,572.1022 C866.53692,572.2052 864.23292,572.8522 862.03992,571.6922"></path><path d="M848.69032,327.7859 C848.70732,325.8189 848.72432,323.8519 848.74032,321.8899 C848.72332,323.8579 848.70732,325.8219 848.69032,327.7859"></path><path d="M842.91592,389.5867 C844.89492,389.6127 846.87592,389.6397 848.85392,389.6657 C846.87392,389.6387 844.89492,389.6127 842.91592,389.5867"></path><path d="M344.63172,355.0056 C344.58172,356.5046 344.53272,358.0036 344.48572,359.4956 C344.53572,357.9946 344.58372,356.5006 344.63172,355.0056"></path><path d="M875.85932,291.5315 C875.77832,293.0235 875.69732,294.5145 875.61832,295.9985 C875.70032,294.5055 875.78032,293.0185 875.85932,291.5315"></path><path d="M833.62982,565.0545 C835.06982,564.9565 836.50982,564.8595 837.94682,564.7665 C836.86382,565.6335 835.77482,565.7055 833.62982,565.0545"></path><path d="M823.99302,370.0559 C824.09202,371.6639 824.19102,373.2719 824.28902,374.8749 C824.19002,373.2659 824.09202,371.6609 823.99302,370.0559"></path><path d="M285.57802,116.2517 C285.59302,114.6987 285.60802,113.1457 285.62402,111.5987 C285.60902,113.1537 285.59402,114.7027 285.57802,116.2517"></path><path d="M825.73622,389.9114 L831.10322,389.7944 C829.33222,390.6504 827.54322,390.6804 825.73622,389.9114"></path><path d="M875.25092,401.3719 C873.98492,401.3829 872.71992,401.3929 871.46292,401.4059 C872.73192,401.3959 873.99192,401.3839 875.25092,401.3719"></path><path d="M411.77922,565.6726 C413.53122,565.6956 415.28322,565.7186 417.03522,565.7406 C415.27022,566.6256 413.51622,566.7506 411.77922,565.6726"></path><path d="M81.74892,570.8347 C83.52692,570.6757 85.30592,570.5167 87.08392,570.3577 C85.30592,570.5167 83.52692,570.6757 81.74892,570.8347"></path><path d="M818.05942,261.5642 C818.14642,263.1782 818.23342,264.7922 818.32042,266.4012 C818.23342,264.7852 818.14642,263.1752 818.05942,261.5642"></path><path d="M250.51742,158.158 C252.01642,157.419 253.52742,157.295 255.05342,158.078 C253.54042,158.105 252.02942,158.132 250.51742,158.158"></path><path d="M769.02622,280.2014 C769.15022,281.5624 769.27422,282.9244 769.39822,284.2814 C769.27322,282.9184 769.15022,281.5594 769.02622,280.2014"></path><path d="M895.65322,248.4339 C894.88322,247.1019 894.91022,245.7769 895.69122,244.4639 C895.67822,245.7889 895.66622,247.1119 895.65322,248.4339"></path><path d="M818.30462,202.1936 C818.30462,203.5406 818.30562,204.8886 818.30562,206.2316 C818.30462,204.8816 818.30462,203.5376 818.30462,202.1936"></path><path d="M872.03892,388.9427 C873.58192,388.4697 875.12492,387.8007 876.66092,388.9587 C875.11992,388.9537 873.57992,388.9477 872.03892,388.9427"></path><path d="M373.43352,567.5569 C374.98652,567.4119 376.53852,567.2679 378.09052,567.1229 C376.53852,567.2679 374.98652,567.4119 373.43352,567.5569"></path><path d="M160.58872,567.5598 C162.01072,566.9348 163.42972,566.6068 164.83072,567.6078 C163.41572,567.5908 162.00272,567.5758 160.58872,567.5598"></path><path d="M451.45202,565.5545 C452.97302,564.8905 454.49002,564.5255 455.99102,565.6015 C454.47702,565.5855 452.96502,565.5705 451.45202,565.5545"></path><path d="M112.96372,368.8289 C113.07772,370.2019 113.19272,371.5749 113.30572,372.9439 C113.19072,371.5699 113.07672,370.1999 112.96372,368.8289"></path><path d="M465.98822,289.7454 C467.48422,289.2014 468.97522,288.9174 470.44422,289.8264 C468.95822,289.7984 467.47322,289.7724 465.98822,289.7454"></path><path d="M818.03602,330.615 C818.11902,331.957 818.20202,333.299 818.28402,334.638 C818.20102,333.295 818.11802,331.955 818.03602,330.615"></path><path d="M111.99692,209.5232 C111.87292,210.6042 111.74892,211.6862 111.62592,212.7612 C111.74992,211.6782 111.87292,210.6012 111.99692,209.5232"></path><path d="M25.28502,523.0144 C25.20802,524.0674 25.13202,525.1194 25.05602,526.1654 C25.13502,525.1114 25.21002,524.0624 25.28502,523.0144"></path><path d="M849.35342,337.7171 C849.26942,336.6291 849.18542,335.5411 849.10142,334.4581 C849.18542,335.5481 849.26942,336.6331 849.35342,337.7171"></path><path d="M740.40422,563.5227 C741.73722,563.5317 743.07022,563.5417 744.40222,563.5507 C743.06922,563.5417 741.73622,563.5317 740.40422,563.5227"></path><path d="M344.12682,364.2639 C344.37582,365.0559 344.62482,365.8489 344.87382,366.6419 C343.21082,367.0439 342.96182,366.2509 344.12682,364.2639"></path><path d="M444.07902,287.9549 C445.43302,287.9489 446.78702,287.9439 448.14102,287.9379 C446.78902,288.5799 445.43602,289.0209 444.07902,287.9549"></path><path d="M113.72252,375.3294 C113.76852,376.5294 113.81452,377.7304 113.85852,378.9264 C113.81152,377.7254 113.76652,376.5274 113.72252,375.3294"></path><path d="M128.04672,568.8728 C129.35372,568.8718 130.65972,568.8708 131.96672,568.8698 C130.65872,568.8708 129.35372,568.8718 128.04672,568.8728"></path><path d="M772.31342,387.9822 C772.36142,389.0872 772.41042,390.1922 772.45942,391.2912 C772.41242,390.1832 772.36242,389.0832 772.31342,387.9822"></path><path d="M100.30072,570.2195 C101.58572,569.3665 102.87372,569.4405 104.16372,570.2055 C102.87572,570.2105 101.58772,570.2155 100.30072,570.2195"></path><path d="M134.13852,194.0862 C134.20752,195.2142 134.27752,196.3432 134.34952,197.4642 C134.28052,196.3342 134.20952,195.2102 134.13852,194.0862"></path><path d="M93.61512,570.3362 C94.95112,570.3412 96.28712,570.3472 97.62212,570.3532 C96.28212,571.2652 94.94712,571.3082 93.61512,570.3362"></path><path d="M833.40322,176.3792 C833.41422,175.2332 833.42422,174.0882 833.43422,172.9452 C833.42322,174.0922 833.41322,175.2352 833.40322,176.3792"></path><path d="M220.05362,156.3387 C221.33162,156.5057 222.60962,156.6727 223.88662,156.8387 C222.60862,156.6717 221.33062,156.5057 220.05362,156.3387"></path><path d="M107.27822,255.2376 C107.29522,256.3076 107.31222,257.3786 107.33222,258.4436 C107.31522,257.3716 107.29722,256.3046 107.27822,255.2376"></path><path d="M842.00672,255.0843 C841.93672,253.9943 841.86672,252.9043 841.79672,251.8193 C841.86672,252.9113 841.93772,253.9983 842.00672,255.0843"></path><path d="M543.93442,569.0584 C545.51142,569.2014 547.08842,569.3444 548.66442,569.4864 C547.08742,569.3434 545.51142,569.2014 543.93442,569.0584"></path><path d="M538.66592,528.2351 C537.81292,528.2491 536.96192,528.2621 536.11692,528.2801 C536.97192,528.2691 537.81892,528.2521 538.66592,528.2351"></path><path d="M538.73822,568.4339 C540.06022,568.5639 541.38422,568.6949 542.70622,568.8249 C541.38322,568.6939 540.06022,568.5639 538.73822,568.4339"></path><path d="M300.71672,479.3655 C302.43772,489.0895 287.32572,498.5995 286.12772,484.7765 C285.68972,479.7215 289.06972,476.1675 292.85472,473.0775 C298.22672,468.6925 301.22772,472.8915 300.71672,479.3655"></path><path d="M134.14442,360.7278 C137.70442,362.1848 164.90342,371.0478 150.77542,375.5058 C147.03542,376.6858 141.38242,376.8618 138.14042,374.7828 C134.24042,372.2808 130.30642,364.8978 134.14442,360.7278"></path><path d="M140.83782,229.0437 C150.06982,227.9717 158.57582,243.1347 147.19382,242.6427 C138.90882,242.2837 127.76682,229.0437 140.83782,229.0437"></path><path d="M173.86312,266.2224 C181.57212,272.9484 167.28312,288.0014 161.61012,282.1754 C158.71312,279.1994 161.38512,272.7884 163.77612,270.2984 C166.23012,267.7434 170.59612,267.2634 173.86312,266.2224"></path><path d="M196.81332,440.5911 C192.26232,441.3141 172.24832,447.8541 176.42232,435.9751 C178.01432,431.4451 182.45432,432.7891 186.51332,432.9971 C193.05532,433.3311 196.81332,433.0181 196.81332,440.5911"></path><path d="M183.62972,471.1883 C190.44272,474.8333 180.48372,495.2313 174.83672,490.8913 C167.00172,484.8693 177.71772,473.0203 183.62972,471.1883"></path><path d="M213.34362,454.7908 C216.65662,453.4378 232.27362,468.4598 226.32862,472.6388 C223.28162,474.7808 217.50862,471.1088 215.67162,468.8948 C212.22762,464.7428 211.91562,459.6208 213.34362,454.7908"></path><path d="M123.24112,332.0056 C126.62712,332.5616 132.47312,332.7376 132.69212,337.4956 C132.88412,341.6776 127.64112,343.0326 123.95012,343.3606 C120.12012,343.7006 115.05012,342.6196 114.97712,337.8046 C114.90012,332.6096 123.12112,332.9226 123.24112,332.0056"></path><path d="M206.73912,539.0579 C210.34512,541.2469 227.16512,549.1289 219.95512,554.8229 C217.25712,556.9539 209.07812,552.5529 207.23712,550.3159 C205.04012,547.6459 202.89312,541.3909 206.73912,539.0579"></path><path d="M253.49692,481.864 C252.97592,473.164 267.65392,469.701 264.61092,482.05 C263.75292,485.532 262.92292,490.817 258.61792,491.019 C253.52992,491.258 253.34592,485.238 253.49692,481.864"></path><path d="M208.15512,330.5735 C208.25712,337.1735 195.61112,342.9935 195.51312,332.5325 C195.42612,323.1845 208.62712,320.4485 208.15512,330.5735"></path><path d="M199.80462,296.2 C202.92062,297.204 207.06162,297.721 207.33562,301.68 C207.62662,305.87 203.73462,307.735 200.23262,307.5 C197.36062,307.307 193.11062,305.181 192.58862,302.065 C191.82362,297.491 196.28762,297.192 199.80462,296.2"></path><path d="M141.86222,417.033 C141.80922,411.587 152.72322,405.042 154.73322,411.361 C155.37622,413.383 150.23222,422.45 148.52122,423.129 C143.99422,424.926 143.36222,420.738 141.86222,417.033"></path><path d="M231.29672,507.6756 C227.60872,510.9766 216.54572,520.2496 217.37272,507.8016 C217.90072,499.8496 232.26972,500.2646 231.29672,507.6756"></path><path d="M411.53992,543.2532 C412.74892,538.0192 430.05692,547.0992 424.28092,553.7102 C422.34292,555.9292 417.27392,553.9212 415.32492,552.6062 C411.46792,550.0032 411.38392,547.6002 411.53992,543.2532"></path><path d="M315.10532,431.2156 C315.78032,428.8826 316.53032,424.7566 318.75632,423.2676 C322.78432,420.5736 326.29132,424.6376 326.29232,428.9206 C326.29332,436.9106 317.19832,439.4306 315.10532,431.2156"></path><path d="M272.20792,524.6336 C276.70192,525.6636 286.70792,536.5876 280.90492,541.0436 C275.31992,545.3326 267.89192,527.8966 272.20792,524.6336"></path><path d="M276.48622,441.9456 C282.26422,442.4066 290.20622,451.7636 281.22522,453.2506 C274.20022,454.4146 266.03022,444.2376 276.48622,441.9456"></path><path d="M328.79582,485.0032 C330.24482,480.1222 344.57482,485.3522 343.76982,490.7262 C343.34182,493.5832 337.48282,494.2542 334.40282,493.4992 C329.86882,492.3862 328.69182,489.4122 328.79582,485.0032"></path><path d="M159.87882,212.3972 C159.98282,206.0872 172.10782,203.5152 172.99582,209.8742 C173.79882,215.6192 159.72682,221.7322 159.87882,212.3972"></path><path d="M324.78992,550.0218 C325.66392,546.8488 326.04092,543.0298 330.00392,542.6118 C334.54192,542.1328 334.40792,545.6128 333.87492,549.2188 C332.42292,559.0298 326.87892,559.5198 324.78992,550.0218"></path><path d="M133.31432,287.472 C126.99332,288.898 115.41632,276.724 122.49232,274.112 C127.47832,272.269 133.31432,283.799 133.31432,287.472"></path><path d="M213.93642,382.0359 C210.71942,383.5509 209.97842,384.4699 207.50742,381.9839 C205.35542,379.8189 205.45042,373.7869 207.29742,371.5349 C214.37142,362.9109 214.20542,378.5459 213.93642,382.0359"></path><path d="M240.18252,364.5447 C243.53752,364.9717 253.50652,374.4277 248.31552,378.1857 C241.95452,382.7897 238.35552,368.3667 240.18252,364.5447"></path><path d="M312.77042,367.0349 C310.33142,376.4259 304.24442,370.1069 304.58942,363.0009 C305.14342,351.6189 311.45142,361.5319 312.77042,367.0349"></path><path d="M349.78212,517.8611 C353.90812,519.5681 359.50812,535.3401 353.61512,536.1861 C346.99612,537.1351 349.20012,521.1451 349.78212,517.8611"></path><path d="M298.25672,509.0003 C302.97772,507.4073 304.70772,517.3663 301.96372,519.2163 C295.92672,523.2863 297.19972,511.3503 298.25672,509.0003"></path><path d="M253.49692,481.864 C253.43692,483.186 253.37792,484.508 253.31592,485.822 C253.37492,484.498 253.43492,483.181 253.49692,481.864"></path><path d="M411.53992,543.2532 C411.49092,544.6092 411.44192,545.9642 411.39092,547.3132 C411.43792,545.9552 411.48892,544.6042 411.53992,543.2532"></path><path d="M328.79582,485.0032 C328.76982,486.1532 328.74182,487.3032 328.71182,488.4462 C328.73782,487.2932 328.76782,486.1482 328.79582,485.0032"></path><path d="M850.99302,465.2117 C860.78102,464.8977 871.70002,461.2137 881.31802,462.3857 C883.96602,462.7087 890.06102,463.3757 885.81902,467.3027 C883.79002,469.1807 874.07702,468.2097 871.13702,468.8327 C853.16602,472.6377 832.76602,475.0917 814.33902,474.7747 C805.71302,474.6267 797.02302,473.9357 788.40102,473.4797 C779.78502,473.0237 778.93802,469.5227 788.63302,468.4087 C798.70202,467.2527 809.03402,467.6817 819.15302,467.6697 C829.79102,467.6557 840.37602,465.9217 850.99302,465.2117"></path><path d="M872.48132,441.6302 C871.53932,444.3122 870.71232,450.4682 867.10232,450.8722 C862.04632,451.4372 861.20932,442.7562 861.39532,439.5812 C861.62132,435.7492 863.00032,429.3832 867.76332,430.7112 C871.78632,431.8312 872.18932,438.5632 872.48132,441.6302"></path><path d="M841.87192,439.6663 C842.61092,436.7943 842.97392,430.3183 847.03592,430.0983 C851.57592,429.8533 852.87292,436.6003 852.84292,439.8333 C852.81292,442.9023 851.67792,448.6993 848.06292,449.4083 C843.16192,450.3693 842.72392,442.9483 841.87192,439.6663"></path><path d="M790.89642,444.8181 C789.42542,448.2701 788.45242,453.0251 783.90042,450.6711 C780.38042,448.8511 779.88942,441.5101 780.55342,438.1491 C781.24142,434.6671 782.69842,430.6731 786.69942,432.2391 C791.31342,434.0461 790.84742,441.0171 790.89642,444.8181"></path><path d="M829.49892,441.6302 C825.15992,454.7832 817.24592,445.8842 820.25092,436.0642 C823.39292,425.8002 829.09992,435.7692 829.49892,441.6302"></path><path d="M808.35832,442.281 C807.15332,444.597 805.87132,449.593 802.62332,449.067 C798.64132,448.421 798.51332,440.758 798.95032,437.904 C799.33132,435.406 800.45332,431.243 803.78632,431.297 C808.60232,431.375 808.27932,439.283 808.35832,442.281"></path><path d="M894.91002,444.8059 C891.68002,452.0529 887.23702,445.8099 888.65902,440.6629 C890.76802,433.0299 894.72702,439.7929 894.91002,444.8059"></path><path d="M815.80552,467.679 C812.27852,467.665 808.74952,467.652 805.22252,467.639 C808.75252,466.974 812.28252,466.715 815.80552,467.679"></path><path d="M885.90712,462.3562 C882.84712,462.3762 879.78812,462.3952 876.73012,462.4152 C879.78412,461.4992 882.84312,461.4792 885.90712,462.3562"></path><path d="M850.99302,465.2117 C848.54402,465.3757 846.09602,465.5397 843.64802,465.7037 C846.09702,465.5397 848.54502,465.3757 850.99302,465.2117"></path><path d="M790.89642,444.8181 C790.87442,443.0601 790.85042,441.3021 790.82942,439.5481 C791.73442,441.2961 791.67142,443.0521 790.89642,444.8181"></path><path d="M810.09072,474.7376 C811.51072,474.7506 812.93072,474.7626 814.33872,474.7756 C812.91472,474.7626 811.50272,474.7506 810.09072,474.7376"></path><path d="M786.24502,473.4803 C787.68302,473.4803 789.12202,473.4793 790.55002,473.4803 C789.10602,473.4803 787.67602,473.4803 786.24502,473.4803"></path><path d="M798.03702,467.8308 C796.03702,467.9948 794.03702,468.1588 792.03802,468.3228 C794.03802,468.1588 796.03702,467.9948 798.03702,467.8308"></path><path d="M825.07702,467.657 C823.10202,467.661 821.12802,467.665 819.15302,467.669 C821.12702,466.837 823.10102,466.813 825.07702,467.657"></path><path d="M808.35832,442.281 C808.30932,440.449 808.26132,438.617 808.21532,436.787 C808.26432,438.62 808.31132,440.451 808.35832,442.281"></path><path d="M780.55362,438.1492 C780.54262,439.9362 780.53162,441.7232 780.51762,443.5032 C780.52862,441.7142 780.54062,439.9322 780.55362,438.1492"></path><path d="M862.21372,464.5467 C860.46772,464.7047 858.72272,464.8617 856.97872,465.0197 C858.72472,464.8617 860.46972,464.7047 862.21372,464.5467"></path><path d="M894.91002,444.8059 C894.85302,443.2449 894.79702,441.6839 894.74102,440.1249 C894.79802,441.6869 894.85302,443.2459 894.91002,444.8059"></path><path d="M820.64052,474.7898 C821.85552,474.7668 823.07052,474.7438 824.27352,474.7228 C823.05452,474.7468 821.84752,474.7688 820.64052,474.7898"></path><path d="M872.48132,441.6302 C872.37432,440.5082 872.26732,439.3852 872.16132,438.2672 C872.26832,439.3912 872.37532,440.5102 872.48132,441.6302"></path><path d="M829.49892,441.6302 C829.42092,440.4782 829.34192,439.3252 829.26392,438.1762 C829.34292,439.3292 829.42092,440.4802 829.49892,441.6302"></path><path d="M202.86312,103.1004 C198.08412,101.8464 197.18812,95.1304 197.95612,91.0054 C198.82712,89.0174 199.69812,87.0304 200.56912,85.0424 C200.22812,84.3074 199.88812,83.5724 199.54812,82.8374 C199.98512,78.7434 198.86812,76.9644 203.57312,78.6224 C212.31312,81.7044 213.71012,102.7844 202.86312,103.1004"></path><path d="M273.60442,90.115 C277.54142,89.805 284.69242,94.39 280.77342,98.826 C278.34542,101.574 270.34442,100.274 267.08042,100.848 C262.75142,101.609 258.23642,102.65 260.57842,96.166 C262.41742,91.074 268.98542,89.982 273.60442,90.115"></path><path d="M269.46182,120.6136 C265.46282,117.4066 267.24782,102.7996 273.33382,105.4276 C279.59482,108.1326 272.79882,118.5056 269.46182,120.6136"></path><path d="M197.95592,91.0052 C197.95592,92.5422 197.95492,94.0802 197.95192,95.6102 C197.11792,94.0702 197.14392,92.5372 197.95592,91.0052"></path><path d="M202.86312,103.1004 C203.67812,103.0774 204.49412,103.0534 205.29912,103.0324 C204.48012,103.0584 203.67212,103.0794 202.86312,103.1004"></path><path d="M696.64542,523.7669 C696.27142,530.4109 689.13642,525.4989 689.64242,521.0539 C690.56142,512.9879 695.12242,520.9589 696.64542,523.7669"></path></g></g></g></svg>