<svg xmlns="http://www.w3.org/2000/svg" viewBox="0 0 1024 768" version="1.1"><g id="react-group-54" stroke="none" stroke-width="1" fill="#FFFFFF00" fill-rule="evenodd"><g id="react-group-55"><rect id="react-rect-56" x="0" y="0" width="1024" height="768"></rect><path d="M259.9834,332.192 C292.8974,340.969 325.4544,351.289 358.0924,361.03 C361.7644,362.126 361.7544,362.31 365.0384,360.332 C373.9704,354.952 383.0724,349.842 392.2794,344.946 C420.0484,330.18 448.5944,318.365 479.1704,310.848 C500.8434,305.52 522.8784,301.295 544.9834,298.192 C542.7354,305.109 538.3734,312.32 532.9834,317.192 C528.8044,320.968 523.1074,323.032 517.9424,325.057 C502.5914,331.078 486.5184,335.289 471.4304,341.982 C456.0414,348.809 446.3194,363.001 443.3974,379.467 C442.8504,382.547 442.8834,383.016 445.4114,384.57 C448.2444,386.313 451.6884,387.333 454.8124,388.397 C479.8954,396.94 506.3454,402.201 532.2824,407.386 C546.0504,410.139 559.8694,412.697 573.7594,414.759 C582.3784,416.039 591.4874,417.756 600.2424,417.245 C637.7614,415.056 659.9994,370.398 670.9834,340.192 C704.8844,358.556 743.7764,370.293 781.7474,375.956 C827.7914,382.823 885.7914,383.2 922.1854,349.271 C939.5194,333.111 950.1634,311.23 957.9834,289.192 C932.4754,287.005 907.0804,283.179 881.7824,279.309 C877.3654,278.633 872.9504,277.945 868.5364,277.245 C866.7614,276.963 864.0334,275.966 862.2174,276.231 C859.4604,276.631 855.9004,279.621 853.4594,280.946 C834.7404,291.105 815.3884,300.421 795.3074,307.57 C784.5474,311.4 773.3754,314.788 761.9664,315.922 C749.7284,317.14 737.1964,314.637 725.3774,311.649 C695.7284,304.153 664.7114,291.47 639.9834,273.192 C633.9684,281.769 623.1104,287.579 612.7564,283.44 C601.4174,278.907 595.1134,267.019 589.0374,257.242 C586.8254,253.682 582.6534,253.657 578.5374,252.607 C567.0404,249.674 555.4024,247.283 543.7074,245.299 C505.3014,238.784 465.8114,236.574 427.0494,241.068 C389.2254,245.454 351.9874,257.655 318.6364,275.994 C304.1284,283.972 290.0024,293.216 277.9474,304.637 C270.3334,311.85 261.4364,321.29 259.9834,332.192" id="react-path-57" fill="#714dd2"></path><path d="M374.2447,84.1244 C386.1157,88.0984 396.8247,93.9374 407.2867,100.7364 C412.3847,104.0494 417.4847,107.9264 423.1187,110.2724 C428.1207,112.3534 433.5807,113.3004 438.7177,115.0104 C461.7327,122.6724 486.7057,124.2134 510.1097,116.8474 C533.9667,109.3384 554.2167,93.2124 578.8887,88.1544 C602.9507,83.2214 627.4207,84.3124 650.5257,93.2454 C661.7487,97.5844 671.2127,104.8754 680.7897,111.9754 C689.9677,118.7794 699.5967,125.4904 706.7007,134.5734 C713.6787,143.4934 717.7067,154.5934 720.7807,165.3874 C722.5537,171.6124 723.3717,178.0404 723.2437,184.5154 C723.1557,189.0454 720.7597,193.4214 722.1687,197.8004 C724.1457,203.9414 727.0237,208.4554 726.2817,215.2924 C725.6827,220.7984 723.1797,225.5434 719.2677,229.4084 C715.2537,233.3734 710.4507,236.0964 705.0997,237.8164 C701.0527,239.1174 699.7737,238.7884 697.4207,235.2604 C690.8357,241.2224 686.1317,248.7564 677.8807,252.6944 C673.7847,254.6504 669.5897,255.5924 665.0767,255.8794 C661.6577,256.0964 658.5217,256.1954 655.6337,258.2744 C652.6027,260.4574 641.5227,270.1944 645.7617,274.0244 C648.2347,276.2584 654.0027,276.7014 657.1477,277.9854 C661.5487,279.7814 665.7807,281.9844 669.7747,284.5634 C684.3847,293.9984 698.9277,299.8844 715.8227,304.1074 C733.3627,308.4914 751.0477,310.8634 769.1437,310.9284 C785.5817,310.9884 802.8037,309.7394 818.0467,303.0844 C825.3637,299.8904 832.4257,295.6544 838.4107,290.3504 C844.3837,285.0584 848.0497,277.6994 854.1867,272.7744 C858.1587,269.5864 854.4847,264.6784 853.2577,260.3024 C850.7617,251.4004 848.8517,241.2664 848.0937,232.0614 C847.3577,223.1194 846.1277,214.2034 844.5387,205.3554 C842.8557,195.9754 839.3477,187.2444 836.8697,178.0834 C835.0427,171.3284 833.2047,163.4004 835.3227,156.5024 C836.3737,153.0804 838.7037,149.4644 842.0157,147.8314 C844.9777,146.3704 846.8037,147.7664 849.4577,147.6094 C857.2447,147.1514 863.2567,150.3264 869.1327,155.5214 C872.3077,158.3284 875.9857,160.7864 879.0097,163.7264 C881.3627,166.0124 881.9197,169.7014 884.4277,171.7284 C888.5447,161.2214 892.8577,147.8644 906.8217,153.8734 C917.8687,158.6284 919.2897,176.4944 924.6487,185.8084 C927.6617,183.3284 927.9997,178.4414 929.1717,174.9844 C930.3847,171.4064 932.4277,167.6274 935.3077,165.0964 C941.5997,159.5684 949.2747,161.7884 953.6057,168.4104 C955.9207,171.9504 954.5427,176.0144 956.8407,179.5104 C959.1207,182.9774 958.4087,187.0284 959.3397,191.0664 C960.5197,196.1844 961.9457,201.2274 962.8967,206.4034 C963.3367,208.7964 963.9757,211.4944 963.8647,213.9504 C963.8177,214.9684 962.9937,216.7194 963.2477,217.7244 C963.5787,219.0394 965.1407,220.2224 965.7127,221.5234 C966.4837,223.2714 966.1977,224.5424 966.2847,226.3454 C966.4437,229.5914 967.3117,232.2544 968.2437,235.4604 C970.5917,243.5354 969.9967,253.7564 966.5197,261.4034 C964.7167,265.3674 963.4527,268.2504 962.9167,272.4924 C962.5707,275.2314 960.5067,277.7264 960.6307,280.6704 C960.8037,284.7674 971.7637,291.0854 963.1117,293.8034 C959.4977,294.9384 958.7237,294.3454 957.7367,298.4734 C956.7567,302.5714 955.6467,306.5584 954.0397,310.4624 C950.6317,318.7474 945.5907,326.1654 940.8347,333.7104 C935.6867,341.8774 930.2817,349.7694 922.6757,355.8594 C915.6217,361.5064 907.5377,366.1004 899.4867,370.1654 C882.5247,378.7294 863.6517,383.5104 844.6077,383.0474 C824.2987,382.5524 803.6997,384.4714 783.5747,381.0224 C762.9687,377.4904 742.8647,371.6444 722.3437,367.7234 C713.1247,365.9614 704.5317,364.0404 696.1447,359.6904 C687.6337,355.2784 679.1437,350.7724 671.3577,345.1464 C665.9937,358.0014 663.1057,371.4014 655.4157,383.2274 C648.7037,393.5484 640.6077,403.2524 630.6987,410.6534 C621.0197,417.8844 608.3727,423.2924 596.1847,423.7574 C592.4657,423.8984 586.7477,422.2664 584.0797,425.0684 C582.7437,426.4704 582.6077,429.2564 582.0777,431.0564 C581.1767,434.1204 579.8697,437.1094 579.1447,440.2224 C578.0447,444.9424 582.4767,445.0154 586.3607,446.9314 C591.5687,449.5014 596.6547,452.3084 601.6897,455.1994 C606.8337,458.1544 611.7387,461.5534 616.8907,464.4624 C621.3147,466.9594 625.8827,468.8864 630.1417,471.7154 C640.2067,478.4034 651.2347,482.8634 662.0427,488.1564 C673.6137,493.8244 684.8667,500.1474 696.2377,506.2014 C718.7597,518.1944 741.3507,530.6404 762.6147,544.7754 C772.5407,551.3734 782.0827,558.2434 792.2617,564.4824 C801.7557,570.3034 812.5937,577.1184 818.6377,586.6684 C823.3507,594.1164 830.1227,597.6444 837.9157,601.7034 C842.5087,604.0954 845.3497,604.5484 849.0797,600.6334 C852.7407,596.7914 856.2787,592.9704 860.1417,589.3044 C875.9787,574.2754 889.5277,557.8244 902.7347,540.5194 C912.5397,527.6714 925.9837,512.2454 943.9917,515.0604 C949.3907,515.9054 952.9757,518.4174 956.9687,521.9524 C959.6777,524.3514 964.5727,525.9204 966.3787,529.0264 C967.4217,530.8204 967.8587,533.1194 968.9087,535.0014 C970.0087,536.9694 971.3747,538.8884 972.1097,541.0404 C973.3517,544.6824 970.6727,550.4684 973.3447,553.4344 C975.3007,555.6064 973.4817,560.7214 972.9477,563.1754 C971.9617,567.7154 971.1237,572.3224 969.5637,576.7064 C968.3347,580.1564 967.1277,584.8854 964.5397,587.5784 C962.2307,589.9814 959.5227,589.7454 960.1257,593.9064 C957.6267,593.0744 955.4787,599.0574 954.7737,600.5664 C952.8797,604.6194 950.8117,607.9504 947.7617,611.3104 C940.0507,619.8034 931.2227,625.5504 921.2217,630.9494 C917.5737,632.9184 910.0087,635.6584 909.1607,640.2104 C908.3477,644.5824 910.8427,648.1324 909.0887,652.8024 C905.4417,662.5174 897.2427,672.7604 890.5507,680.5984 C884.5317,687.6484 878.6937,692.3604 869.0417,690.7044 C860.4907,689.2394 852.0307,684.8754 844.9147,680.0364 C836.3447,674.2074 827.2647,669.8244 818.0087,665.1974 C813.4537,662.9214 808.8957,660.8194 804.9477,657.5484 C801.2787,654.5084 798.0947,651.0844 793.8417,648.8264 C790.8117,647.2174 786.8547,646.0784 785.5917,642.4974 C784.2147,638.5924 786.7297,636.1554 788.8697,633.3564 C790.3067,631.4774 791.1007,631.1864 789.8607,629.6774 C788.8697,628.4734 786.1507,627.4524 784.7847,626.7194 C781.4797,624.9454 778.1767,623.3944 774.6437,625.3434 C770.7027,627.5174 768.0087,632.0124 765.0557,635.2794 C761.5177,639.1914 757.5427,642.7574 753.6627,646.3254 C745.9657,653.4044 737.5317,659.7474 730.0137,666.9924 C728.2937,668.6484 724.9077,672.8484 722.0707,672.0534 C719.9757,671.4674 721.0777,670.2234 719.9977,669.2654 C718.8357,668.2354 717.8487,668.2224 716.3607,667.1074 C712.6597,664.3364 711.5297,659.0214 707.6477,656.1524 C703.6587,653.2034 698.7317,651.0834 694.4117,648.6564 C674.6937,637.5764 655.4857,625.6264 637.4627,611.9304 C628.4257,605.0634 619.8897,597.6114 611.1357,590.3974 C607.0157,587.0024 602.8367,583.2814 598.2547,580.5224 C594.0747,578.0064 589.4307,576.2484 585.1727,573.8344 C576.0507,568.6634 566.2917,564.7054 557.2617,559.3674 C553.0157,556.8574 549.8687,553.4854 545.9197,550.6894 C542.4617,548.2424 539.5827,546.7924 537.0097,543.2284 C535.7867,545.9204 532.4317,542.4084 531.2207,541.5844 C530.2667,540.9334 529.0447,540.4744 528.1607,539.7314 C527.2707,538.9834 526.7327,537.3184 526.0567,536.7984 C524.5607,535.6464 522.8227,535.9094 520.8137,535.1884 C518.1287,534.2254 514.5877,531.6594 512.5237,529.6994 C511.0947,528.3444 513.4257,529.4104 511.0117,527.7484 C509.8887,526.9744 507.9617,526.7664 506.6997,525.9464 C503.7037,524.0024 500.9527,521.5054 498.0917,519.3594 C492.9087,515.4744 486.2057,511.9374 483.2637,505.8794 C467.4607,518.8554 452.1997,532.9384 434.0527,542.6494 C416.5247,552.0294 396.2507,556.2884 377.5357,562.7604 C358.2787,569.4184 338.8297,576.1114 319.2497,581.7554 C309.7307,584.4984 299.9147,586.4684 290.1857,588.3224 C280.2057,590.2244 270.3637,589.6574 260.3497,590.7324 C255.4267,591.2604 250.4977,591.0894 245.5767,591.5664 C241.0447,592.0054 236.6497,593.1564 232.1497,593.7554 C228.1827,594.2834 223.7087,593.8374 219.8937,594.9164 C217.0947,595.7074 213.3977,598.5134 211.3477,594.8624 C209.8457,597.1114 209.3687,596.0494 207.4127,595.9064 C205.3267,595.7524 204.6987,595.8424 202.6567,596.2334 C199.3357,596.8674 195.6707,597.1124 192.8517,594.5034 C191.5617,599.1784 179.0627,594.9274 177.5717,591.8374 C175.8927,596.7864 160.7097,592.5164 160.4897,587.8714 C160.3047,583.9394 162.9157,578.2854 163.9937,574.5914 C165.7527,568.5624 167.9327,562.6654 170.2107,556.8164 C172.6207,550.6314 175.0917,544.4664 177.5707,538.3074 C178.6597,535.6014 179.6887,532.8524 180.9317,530.2124 C181.5417,528.9174 183.1287,526.9854 183.1027,525.4894 C183.0257,521.1194 175.1927,520.8084 171.8807,519.7184 C169.3757,518.8934 166.8327,518.0234 164.4537,516.8804 C162.7267,516.0504 160.6547,514.1444 158.7437,513.8804 C154.3647,513.2744 155.3567,518.2304 154.8807,521.2754 C154.2697,525.1934 152.1107,527.2084 147.9607,527.2374 C143.1127,527.2704 129.2877,518.9334 126.6797,525.2884 C125.4567,528.2654 125.7887,533.9754 125.3407,537.1744 C124.6047,542.4184 124.8967,547.6334 125.6147,552.8624 C126.7937,561.4724 130.6847,572.3634 126.3047,580.6164 C117.5597,597.0994 87.2357,587.1654 77.5567,576.7914 C63.3027,561.5124 63.7187,538.6144 70.5487,520.1154 C73.8697,511.1184 78.6807,501.4774 84.9697,494.1604 C87.7637,490.9094 93.0787,487.7724 94.0007,483.3054 C94.7667,479.6004 91.8867,476.1864 92.4927,472.3894 C93.2127,467.8824 97.0257,465.1494 100.2937,462.4154 C103.6957,459.5704 107.0057,456.4694 110.8827,454.2654 C119.8537,449.1684 130.0277,452.2454 138.9467,455.9884 C148.6997,460.0814 158.0427,465.5704 166.7547,471.5454 C171.0677,474.5024 174.7247,477.1634 179.8387,478.5944 C183.7597,479.6924 187.7207,480.7704 191.6597,481.8004 C195.3767,482.7724 198.5097,483.4954 201.1187,480.2824 C203.9897,476.7464 204.9407,475.3174 209.9097,475.1654 C215.2017,475.0044 220.4977,475.2994 225.7847,475.5014 C226.9017,475.5444 229.4377,475.1964 230.3187,476.1274 C231.1037,476.9564 229.9667,478.6864 230.6977,479.2124 C231.8517,480.0404 238.4077,470.7794 238.9687,478.2764 C239.3267,474.6374 243.1457,476.3994 245.2747,476.8784 C246.0497,477.0524 246.8227,477.2584 247.5897,477.4284 C248.4217,477.1504 249.1137,477.3634 249.6607,478.0654 C250.5357,478.2524 251.1277,477.9184 251.4367,477.0654 C260.6887,476.9314 270.0217,477.5144 279.2967,477.4654 C290.0227,477.4084 300.8097,477.3034 311.4347,475.7504 C315.3707,475.1744 319.3087,474.3804 323.2517,473.8974 C325.0587,473.6774 326.5747,473.8694 328.3377,473.9864 C328.9807,474.1084 329.5637,474.3744 330.0877,474.7864 C330.3567,474.2564 330.7577,473.8554 331.2897,473.5824 C338.0377,471.6064 344.9797,470.2664 351.8367,468.5414 C356.6367,467.333871 360.660728,466.401829 365.439468,466.06125 L366.3447,466.0044 L368.2647,466.5704 C368.5457,465.8854 369.0027,465.3514 369.6357,464.9684 C371.1937,464.3304 372.5167,464.0834 374.1957,463.9124 C380.8787,463.2304 387.4357,463.3004 393.7527,462.3234 C397.0797,461.8084 409.2357,459.9234 411.4777,463.2224 C413.1967,459.2054 425.5747,464.6744 429.1997,462.3014 C423.5747,454.6294 421.1237,446.4204 419.5317,437.1434 C417.7967,427.0374 416.7067,416.4064 419.2727,406.3404 C421.6367,397.0654 426.7877,387.5454 433.8277,381.0204 C440.6357,374.7094 442.2327,367.1604 446.7757,359.3724 C456.2397,343.1444 471.8327,333.2304 489.2037,327.2434 C498.6637,323.9834 508.2807,321.2704 517.8227,318.2744 C525.5727,315.8414 532.0617,312.3594 535.9817,304.9164 C502.9817,304.9164 471.4047,315.1514 441.1887,327.5664 C426.1577,333.7414 411.1937,340.1674 396.3477,346.7764 C388.7907,350.1394 381.3177,353.7364 374.2677,358.0794 L372.319423,359.279716 C370.047169,360.685314 367.789367,362.123511 365.6707,363.7444 C365.1657,364.1314 362.4087,365.7394 362.2467,366.2764 C360.9867,370.4524 367.9277,377.1684 369.7297,380.7504 C372.1827,385.6284 374.5857,391.3324 374.8877,396.8314 C375.2467,403.4084 371.0527,406.6994 364.5897,405.3494 C356.6857,403.6984 350.7017,397.1114 344.4257,392.5314 C343.0257,396.7344 344.8337,401.5694 345.8137,405.6654 C347.1577,411.2834 348.4937,416.9864 349.4497,422.6864 C350.8007,430.7434 349.8407,439.8354 341.8247,444.0574 C321.3977,454.8144 310.9837,426.4324 306.8357,412.2544 C304.0317,414.2764 304.3587,421.6854 303.8427,424.7834 C302.8517,430.7444 301.7147,437.1444 299.0677,442.6184 C297.0397,446.8104 293.5937,451.7054 288.5217,452.1574 C283.0207,452.6474 278.5867,447.9174 276.1227,443.5524 C271.8647,436.0124 270.8607,427.6054 270.5247,419.1534 C270.4497,417.2914 270.9897,400.0504 269.1077,399.5594 C263.5737,409.4744 260.4867,420.4994 253.9857,429.9554 C248.2887,438.2424 239.7157,443.8624 232.0127,434.2814 C220.0837,419.4434 223.9007,398.0004 228.7877,381.3064 C231.6297,371.5984 235.4977,362.3314 240.7127,353.6504 C242.8747,350.0494 245.4917,347.3474 248.1767,344.1734 C250.3907,341.5554 251.2427,340.3264 250.2877,337.3094 C249.7317,335.5504 249.2057,335.4864 249.7017,333.5414 C250.0587,332.1464 251.1287,330.4294 251.7397,329.1334 C253.4877,325.4304 255.3227,321.7764 257.4637,318.2824 C262.040867,310.818767 268.272934,304.610092 274.822122,298.852443 L275.480124,298.275742 L275.448623,298.304794 C275.026653,298.693374 278.090951,296.358852 278.027674,296.353444 L278.011124,296.359742 L278.091649,296.311584 C279.221975,295.572728 279.652223,293.143924 280.938357,295.31166 L281.0317,295.4744 C281.2327,292.2844 283.9187,290.4714 286.2227,288.6844 C287.0807,288.0184 287.9387,287.0934 288.9807,286.6954 C289.7057,286.4184 291.3917,286.6904 291.9167,286.3034 C292.9377,285.5524 293.4367,284.0644 294.4067,283.1794 C295.3787,282.2944 296.7207,281.8804 297.8267,281.2054 C300.5377,279.5504 303.0287,277.5244 305.6737,275.7604 C311.2917,272.0124 317.1577,268.6354 323.1677,265.5584 C335.8117,259.0834 349.2317,253.8734 362.6617,249.2784 C374.4977,245.2284 386.7657,241.4764 398.9227,238.5264 C411.4007,235.4974 424.5147,236.2514 437.2587,235.0064 C463.2327,232.4674 490.6497,232.9794 516.6117,235.5134 C529.3357,236.7554 541.9877,238.6974 554.5367,241.1254 C566.7077,243.4794 579.3667,246.1584 590.1777,252.5224 C592.4817,253.8784 596.6437,258.2274 599.3447,258.0674 C601.6187,257.9334 603.5917,253.7384 604.6597,252.0854 C607.1987,248.1594 610.3897,244.5514 612.5467,240.4144 C615.2017,235.3194 616.5617,229.5924 618.5597,224.2314 C609.2967,225.5084 599.5677,226.3364 590.6767,222.7874 C582.6257,219.5734 577.1997,213.1504 571.1857,207.2194 C564.8507,200.9724 558.0657,196.7394 549.0037,196.1654 C538.7237,195.5134 529.4527,199.2024 519.9967,202.6404 C500.0187,209.9044 480.0447,217.8854 459.4847,223.3644 C449.4367,226.0424 439.1057,228.1564 428.6937,228.6324 C423.3927,228.8734 418.0277,228.6354 412.7847,229.6144 C410.6107,230.0194 409.9587,230.3584 408.2397,229.3984 C408.4727,229.5294 406.0517,225.5034 405.5717,227.0704 C405.1087,228.5804 405.8657,229.7604 404.5427,230.8984 C402.9887,232.2344 399.6167,231.5844 397.8167,231.4304 C395.1207,231.2004 392.9717,230.2854 390.3757,229.6764 C386.3627,228.7354 381.8657,229.3554 377.7767,228.8414 C375.8767,228.6024 374.4977,228.1234 372.7887,227.5974 C370.9977,227.0464 372.1517,227.1164 370.3067,226.8814 C368.6727,226.6734 367.7477,226.8884 365.7697,226.2454 C364.0007,225.6704 362.3657,225.2744 360.5567,224.8524 C358.8997,224.4674 357.5627,223.7744 356.0217,223.3234 C357.958265,223.8904 353.534927,222.137357 353.726811,222.603811 L353.744124,222.633742 L353.728131,222.61765 C353.248398,222.076744 352.6922,220.989466 351.741248,220.820512 L351.5457,220.7994 C354.6737,225.6014 340.9227,220.5274 340.0117,220.2504 C332.4127,217.9384 324.6287,212.6904 316.6877,212.2074 C308.9357,211.7354 301.4167,217.0184 295.1757,220.9364 C287.6387,225.6684 280.1357,230.4394 272.6277,235.2194 C256.0317,245.7844 238.0607,255.2344 219.4357,261.6554 C210.3767,264.7784 201.0937,267.2834 191.9047,269.9884 C187.7617,271.2074 183.2377,271.7084 179.2787,273.4574 C176.6027,274.6394 172.7457,278.1764 170.0417,275.0434 C168.9527,277.7844 163.6647,277.6444 161.4227,277.7294 C161.0777,277.7424 161.6317,278.3994 160.8427,278.3444 C159.6807,278.2624 159.3697,277.1344 158.4547,276.8984 C156.5957,276.4204 156.4027,277.1364 154.5607,277.8474 C152.1677,278.7704 152.6237,277.9714 150.5077,277.7534 C149.2967,277.6284 148.0137,278.2934 146.8007,278.3314 C146.3077,278.3474 145.6607,277.5264 144.9477,277.5384 C144.2617,277.5514 142.6537,278.3704 141.7457,278.5064 C139.4717,278.8484 136.7957,278.6214 134.5027,278.5194 C131.2217,278.3724 98.3597,275.4424 100.7177,268.5724 C96.7637,272.2204 87.5917,266.2574 83.4697,264.3634 C81.9347,263.6584 81.8357,262.9734 80.9707,262.1784 C81.2097,261.2234 80.8007,260.7974 79.7437,260.8994 C79.5177,260.8734 79.2907,260.8484 79.0657,260.8224 C77.2547,259.8994 76.6097,259.9204 75.1677,258.3014 C73.2447,256.1404 69.7047,254.1864 68.7077,251.3704 C68.4407,250.6144 68.7247,249.3094 68.4527,248.7154 C68.1047,247.9534 67.1887,248.0414 66.9767,247.4234 C66.9027,247.2074 67.2567,245.7904 67.2307,245.7674 C65.5677,244.3754 63.2237,245.0354 61.2967,243.3644 C55.9717,238.7434 52.7587,229.4744 51.2267,222.8924 C47.2197,205.6774 45.8517,188.3674 53.6287,172.0844 C57.4087,164.1674 62.0367,156.6374 67.1467,149.5144 C68.5607,147.5444 70.0417,144.9434 71.8457,143.2804 C72.6557,142.5334 73.7157,142.3804 74.1107,141.9334 C76.2187,139.5484 77.3117,136.4814 80.1367,134.1604 C83.2817,131.5754 86.3827,128.9184 89.8567,126.7804 C93.0447,124.8174 97.0147,123.5504 99.9377,121.7144 C100.7397,121.2104 100.4637,120.4154 101.3347,119.8164 C102.2577,119.1814 103.4517,119.1324 104.4977,118.8234 C105.7387,118.4584 107.2777,117.7854 108.5657,117.6744 C110.9707,117.4654 111.7777,118.1544 113.5917,119.8624 C113.5917,113.2894 125.6957,112.3744 130.5917,112.3624 C132.8507,112.3564 144.2027,111.3434 143.9847,114.8034 C146.5707,111.3854 154.4327,113.9284 157.8527,114.9534 C161.9567,116.1824 164.5527,119.1894 167.1857,122.4014 C167.6737,121.3834 168.1627,120.3644 168.6517,119.3464 C169.3987,119.8684 171.9247,120.7364 171.1107,122.1134 C174.0677,119.5044 172.4007,121.6534 174.9337,122.1174 C176.0467,122.3214 177.0057,121.9104 178.1767,121.7714 C178.2737,123.3174 177.6027,123.8184 176.6457,124.8964 C178.9397,124.9394 187.7557,124.0234 181.2307,126.9064 C182.1027,128.4664 186.2407,127.9184 187.6957,128.1284 C188.4667,128.2394 190.3877,128.2794 190.8477,128.8434 C191.1507,129.2144 190.6177,130.2404 190.6857,130.3314 C191.3077,131.1744 190.0157,131.6074 191.2917,131.8514 C191.6057,131.9114 192.5987,130.9144 192.8237,130.9184 C194.4787,130.9444 193.3177,130.6154 195.0727,130.8684 C195.6917,130.9574 196.8797,131.6634 197.6747,131.8264 C209.6607,134.2794 224.3117,125.0514 233.0187,117.9074 C243.4247,109.3714 252.4827,100.2474 264.9927,94.7064 C277.0947,89.3474 290.5767,85.1214 303.4387,82.0564 C327.2237,76.3884 350.8437,76.2894 374.2447,84.1244 Z M677.0127,630.3264 C677.3987,630.5314 677.7827,630.7364 678.1677,630.9404 C678.7157,630.6624 679.2647,630.3854 679.8127,630.1074 C678.2407,629.3614 678.1327,629.0344 677.0127,630.3264 Z M804.7437,596.3284 C801.8607,598.1484 799.3857,602.2574 796.8617,604.7094 C793.3187,608.1514 789.6137,611.4234 785.9157,614.6964 C790.1797,616.1754 796.3647,622.1614 800.9777,619.4494 C803.2627,618.1064 804.7057,614.1564 806.1517,612.0614 C808.3897,608.8174 811.0057,605.7724 813.6357,602.8434 C816.3467,599.8244 807.7657,594.4204 804.7437,596.3284 Z M534.4497,534.1934 C535.5927,534.6724 538.0947,537.4304 536.9337,538.3964 C535.7577,537.0364 534.1787,536.0534 534.4497,534.1934 Z M167.4947,490.5474 C165.4077,492.3504 163.0547,496.1154 161.6017,498.4864 C159.9647,501.1574 159.9067,502.5034 162.4067,504.2854 C167.2377,507.7304 174.2557,508.7414 179.8587,510.3484 C182.8497,511.2064 186.5477,513.3644 189.0887,510.6364 C191.6047,507.9364 191.6107,502.9064 192.7427,499.5584 C193.6597,496.8464 194.6407,494.1574 195.5927,491.4584 C190.3117,491.9894 185.0007,492.0264 179.8087,490.8444 C176.0397,489.9874 170.8277,487.6664 167.4947,490.5474 Z M258.7117,346.1814 C254.4477,351.9724 250.6437,358.1064 247.2897,364.4674 C241.7397,374.9964 237.4257,386.1754 234.6927,397.7654 C232.7557,405.9764 229.9257,417.5204 234.3487,425.3974 C243.9837,442.5574 263.5397,393.0214 266.5247,387.8404 C268.3017,384.7554 271.0597,381.4464 274.1147,385.4124 C276.6207,388.6674 275.8047,393.8844 275.9207,397.7174 C276.2667,409.1094 274.6767,422.7524 279.2317,433.4714 C280.7267,436.9894 284.6867,442.0704 289.1567,440.4724 C293.1637,439.0384 295.1657,432.1374 296.4047,428.5824 C300.3237,417.3354 303.1037,403.5884 303.2307,391.6874 C303.2557,389.2964 301.1107,373.4904 306.6417,376.9874 C310.2597,379.2734 310.1117,390.3704 310.4627,394.0014 C311.8377,408.1874 314.6397,432.2784 332.2407,434.6654 C336.1157,435.1914 340.5017,434.2744 342.7707,430.7904 C345.5907,426.4614 342.7547,420.6404 341.7667,416.0904 C340.0637,408.2464 338.1347,400.1604 337.9647,392.0854 C337.8607,387.1354 338.3477,378.9064 345.3007,380.8164 C353.6797,383.1174 357.2237,394.0784 366.633798,394.4454 C366.6427,392.2394 365.4217,390.4414 364.3867,388.5984 C361.0387,382.6414 354.9407,377.5404 352.8767,370.9504 C352.1997,368.7884 352.9037,365.5374 351.5647,363.7354 C350.2997,362.0344 347.4447,361.5984 345.5357,361.2134 C332.8267,358.6464 320.3327,355.1714 307.6827,352.2124 C294.1597,349.0504 281.6217,345.6324 268.9577,340.0644 C263.2517,337.5554 261.9487,341.7864 258.7117,346.1814 Z M561.9267,435.0334 C563.7927,435.9194 565.6427,436.8424 567.5307,437.6804 C569.1727,438.4114 569.8167,437.8294 570.4707,436.2954 C569.2857,436.0504 562.6157,433.6804 561.9267,435.0334 Z M481.8487,242.8644 C457.6667,243.5734 434.0247,243.8824 410.1907,248.4734 C398.7917,250.6694 387.6177,253.2134 376.4387,256.3314 C371.7167,257.6484 367.5537,259.0214 363.4357,261.6484 C361.9047,262.6244 357.8517,265.6894 357.2297,262.1864 C355.1937,264.1374 351.2237,270.0934 347.9687,266.7844 C347.3977,269.1764 345.6187,269.1024 343.8827,269.9154 C343.2717,270.2014 342.9387,271.1744 342.1527,271.5274 C341.9547,271.6154 341.8887,270.2484 341.6007,270.2254 C340.5637,270.1434 339.7457,272.3274 339.1497,272.8844 C337.7147,274.2194 336.3707,274.8304 334.4687,275.3154 C333.6427,275.5914 332.7957,275.7684 331.9287,275.8464 C330.9077,276.2654 330.2957,275.9644 330.0937,274.9434 C328.6847,274.9664 327.6537,275.4784 326.1777,276.1464 C329.3627,276.8764 324.0047,277.6794 323.2927,277.7604 C323.2047,280.1404 325.2387,278.6324 326.5527,279.1254 C325.9447,282.1124 320.4087,284.3924 318.1307,285.8574 C317.7417,285.0294 317.3527,284.2014 316.9627,283.3744 C316.3327,283.9834 315.8447,284.6844 315.4957,285.4774 C315.2607,286.4374 314.5787,286.7694 313.4507,286.4734 C312.3947,287.3114 312.2367,286.9234 311.5877,288.1034 C310.9167,289.3264 312.9007,291.7064 310.0187,290.6814 C310.0187,294.7434 306.2457,292.2814 306.9067,291.2274 C304.0527,290.9514 302.8347,296.1754 303.1547,298.2134 C301.790236,296.860507 300.952995,297.031633 299.582254,298.088372 L299.461124,298.182742 L299.532936,298.131677 C300.587526,297.418257 299.502929,300.336438 299.597298,300.302437 L299.6097,300.2904 C296.7117,304.1094 296.9847,299.8334 297.8817,297.5804 C295.9177,298.3674 295.5457,300.4974 293.9697,301.6994 C292.5667,302.7694 292.1717,302.2724 290.9647,302.4324 C289.1057,302.6784 289.6667,301.1494 288.8517,303.1974 C288.5067,304.0654 289.0297,305.6204 289.0297,306.5674 C289.8357,305.4654 289.5307,303.7224 290.9867,303.0914 C290.5517,306.2844 284.3417,317.2544 281.7307,310.7894 C279.1907,312.5544 281.9897,314.4884 280.3227,316.8524 C279.0827,315.6564 278.7857,313.7534 278.9247,312.1234 C278.1457,313.1594 278.1707,314.4684 277.5607,315.5164 C276.9247,316.6094 276.2587,316.6974 275.9517,317.8854 C275.4867,319.6894 277.0757,318.8054 276.2367,320.7194 C275.8157,321.6804 273.8437,322.5214 273.0677,323.0624 C270.3497,324.9564 267.6017,327.1504 270.2397,330.2984 C274.3707,335.2254 285.2557,335.7894 291.1017,336.6174 C303.5677,338.3834 315.7167,341.3164 327.9987,344.0334 C335.3947,345.6704 342.6387,347.4924 349.8927,349.6754 C355.1017,351.2414 362.2967,352.2154 365.0457,357.6084 C379.5657,343.7264 398.9277,336.4834 416.8477,328.1574 C436.2577,319.1404 456.3017,310.7674 476.8637,304.7414 C495.0947,299.3974 513.7927,297.3694 532.6267,295.5274 C537.5897,295.0414 545.2427,293.7984 549.6657,296.8474 C552.3967,298.7294 552.5227,301.5794 550.4317,304.0974 C549.2997,305.4614 548.0777,305.1074 547.3857,307.5394 C546.8497,309.4194 547.1437,310.8434 547.6347,312.7044 C546.379528,311.720538 544.130605,312.30654 543.487357,310.57137 L543.424124,310.376742 L543.364847,310.583197 C542.506239,313.970565 548.497206,314.439003 546.660418,318.501298 L546.5407,318.7494 C545.9057,319.9904 545.9037,316.0094 545.3447,315.9804 C543.8247,315.9014 542.5797,319.4514 541.9547,320.4354 C544.7817,320.4354 543.7057,322.4914 542.1887,323.5294 C541.1057,324.2704 539.2797,324.4854 538.0217,325.0974 C535.5127,326.3214 533.3067,328.1154 530.7327,329.2824 C527.9147,330.5614 525.4367,330.6404 522.6377,331.3994 C522.2047,331.5164 520.4857,332.1604 520.3117,332.1754 C520.0747,332.1964 520.0207,332.9224 519.8187,332.9504 C518.0297,333.2034 516.6777,331.5424 514.9457,332.2194 C514.2827,332.4794 514.6267,334.0984 514.0517,334.4654 C513.4167,334.8704 511.6177,334.3534 510.8497,334.3104 C509.0017,334.2044 508.7177,333.9604 507.2517,334.8174 C504.7317,336.2894 503.4487,338.2794 500.0517,338.6404 C497.3957,338.9234 495.6837,338.4214 493.1557,339.4174 C490.5977,340.4244 488.1747,340.6474 485.6817,341.3224 C485.3657,341.4084 485.2817,342.4894 485.0247,342.5644 C484.1997,342.8084 483.2137,342.6224 482.4257,342.8644 C480.6157,343.4214 479.1467,343.9174 477.4657,344.9164 C470.0777,349.3074 461.9487,355.8984 456.1557,362.2264 C453.5107,365.1154 446.1337,372.3924 448.5397,376.5744 C450.0827,379.2574 455.4107,380.5614 458.0677,381.6944 C462.0307,383.3854 466.1287,384.6164 470.1347,386.1824 C475.1157,388.1304 479.6347,391.1564 484.7157,392.8524 C489.6197,394.4894 494.8667,394.8124 499.9327,395.6864 C521.8507,399.4664 543.3237,405.5454 565.2547,409.3154 C577.2817,411.3834 589.5607,413.8514 601.7767,411.9024 C612.5427,410.1844 622.8517,405.4224 631.4507,398.7694 C647.0987,386.6634 658.0027,369.4744 663.4867,350.5654 C664.6187,346.6594 664.8567,336.8884 668.5107,334.4984 C671.5547,332.5084 673.1517,336.8944 675.1267,338.6274 C678.3357,341.4424 683.0387,342.5314 686.8997,344.1374 C696.4577,348.1124 705.1417,352.3084 715.2427,354.9974 C725.4847,357.7224 735.8687,359.8594 746.2227,362.1064 C767.2107,366.6614 787.2447,370.9694 808.8167,371.0394 C830.1637,371.1074 851.5917,371.9104 872.7017,367.9784 C891.1677,364.5394 909.7407,355.1444 923.5447,342.3884 C930.5157,335.9474 935.8917,327.8124 941.3727,320.1234 C944.3137,315.9994 947.0457,311.7244 949.3417,307.2054 C951.0297,303.8844 953.9317,299.0754 954.2287,295.3094 C954.4927,291.9444 952.5257,292.4224 949.1637,292.0784 C943.9927,291.5504 938.7997,291.2154 933.6257,290.6834 C923.1897,289.6134 912.7897,288.2484 902.3587,287.1394 C891.7137,286.0074 881.1387,284.4724 870.7977,281.6524 C867.7057,280.8094 865.4207,279.7464 863.2377,282.7504 C861.8307,284.6844 861.8567,289.0974 858.9197,285.8574 C853.2737,292.9864 845.0177,297.2554 837.3027,301.7294 C828.9557,306.5704 820.8437,311.8974 811.9947,315.8064 C792.9327,324.2304 771.9267,323.5624 751.6957,320.8634 C731.1417,318.1204 710.3117,314.5824 690.9967,306.7604 C682.1367,303.1734 674.5247,297.7154 666.5797,292.5074 C662.8377,290.0544 658.9567,288.0364 654.9837,285.9924 C650.5037,283.6884 647.7667,280.2724 643.7167,277.6094 C640.9857,286.4984 630.4857,289.5544 622.1927,289.9514 C611.8377,290.4474 603.4667,285.5034 597.1867,277.4734 C591.9727,270.8074 590.9597,260.8364 582.8897,257.1874 C573.6827,253.0254 562.8907,251.3714 553.0367,249.4354 C529.8947,244.8904 505.4307,242.1714 481.8487,242.8644 Z M604.6083,311.2054 C607.2113,312.3694 614.7793,321.0744 608.7743,321.2014 C604.9583,321.2824 602.7153,316.4954 598.5003,317.2204 C596.6093,317.5464 593.7833,318.1984 593.3183,319.6574 C592.1603,323.2904 597.5063,325.6304 599.8173,326.6394 C603.3763,328.1934 606.3033,329.7564 608.2463,333.3114 C611.2303,338.7734 612.0133,347.6104 605.0333,350.0534 C599.8443,351.8694 593.3603,350.4604 588.2393,349.0324 C583.9233,347.8284 580.6273,343.3654 582.6143,338.9304 C583.1773,337.6744 584.6843,335.4594 586.4403,336.2894 C587.8353,336.9494 587.1563,338.1994 587.5843,339.3184 C589.2993,343.8024 602.1233,350.1944 605.0763,343.4174 C608.6773,335.1534 594.9863,332.6644 590.8063,329.9014 C585.4043,326.3304 585.2623,320.2214 589.3843,315.5534 C592.9963,311.4624 599.3593,308.8594 604.6083,311.2054 Z M627.2268,339.2113 C627.0108,341.1583 626.7428,343.1763 626.4048,345.1053 C626.1128,346.7823 626.1268,348.5443 624.1998,349.1503 C622.9298,349.5503 621.6908,348.2013 620.4668,349.0973 C619.1108,350.0913 619.7598,342.8623 619.8208,342.4563 C620.2218,339.7603 620.9518,334.2863 623.5448,332.6143 C627.9308,329.7843 627.4878,336.8373 627.2268,339.2113 Z M626.9473,327.9127 C622.2933,330.8597 621.0853,322.5017 622.9373,319.7837 C627.5343,313.0357 634.2853,323.2697 626.9473,327.9127 Z M532.3897,323.8054 C533.7197,324.7934 533.2797,324.2494 533.2797,326.8794 C531.7327,326.9474 531.9677,324.8284 532.3897,323.8054 Z M537.6477,321.5304 C537.1997,322.5744 539.2137,323.8274 539.8627,323.9904 C539.9027,323.6534 538.9197,318.5694 537.6477,321.5304 Z M285.1147,306.2604 C283.877147,308.053926 284.576483,309.153472 286.544375,308.44761 L286.7067,308.3864 L285.1147,306.2604 Z M309.9857,289.0164 L308.8077,289.5144 C308.2517,290.0454 307.6977,290.5754 307.1427,291.1054 C308.7617,290.7904 309.8857,291.0334 309.9857,289.0164 Z M316.5106,286.4962 C315.6996,284.8422 312.9126,288.1232 312.8506,288.8912 C313.5006,288.5062 317.4546,288.4222 316.5106,286.4962 Z M319.1267,280.6514 C318.4497,281.6044 318.5877,282.3684 319.5407,282.9434 C320.3317,281.8864 320.9327,280.7314 321.3417,279.4764 C320.2857,278.7094 319.5027,279.7474 319.1267,280.6514 Z M852.7457,162.5774 C850.7047,163.4934 851.7717,166.6474 851.9707,168.3564 C852.9177,176.4964 854.4237,184.5554 855.3577,192.6934 C856.6687,204.1394 856.8537,215.7234 859.0017,227.0674 C860.9617,237.4124 864.2657,247.4584 866.0107,257.8514 C867.1777,264.8044 864.9497,272.8384 873.2437,274.9474 C880.7017,276.8444 889.2047,276.9474 896.8507,277.7814 C906.7007,278.8554 916.5657,279.3834 926.4587,279.8624 C931.1417,280.0884 935.9687,280.1474 940.6057,280.8574 C943.3377,281.2754 946.7377,283.0864 948.8387,280.5584 C950.8827,278.1004 950.8877,271.8444 951.5257,268.7064 C952.3677,264.5634 953.1237,260.3984 953.5367,256.1874 C954.4707,246.6534 953.0967,237.2124 951.8337,227.7724 C950.4737,217.5964 949.4297,207.3774 948.0227,197.2114 C947.1147,190.6584 947.2187,180.0764 942.7097,174.7874 C938.5977,187.0664 937.4837,200.1034 937.2777,212.9784 C937.2327,215.7424 935.4247,231.6274 930.6167,223.8834 C929.2807,221.7294 929.2587,220.4994 927.1817,218.6784 C925.0407,216.8014 924.2917,215.3004 923.5677,212.4584 C922.2557,207.3104 922.0447,202.7834 919.2077,198.1544 C913.4327,188.7324 911.0917,177.0674 902.4927,169.4614 C902.4067,178.3024 901.1287,187.8644 902.7727,196.5974 C903.8067,202.0854 908.0417,209.9844 904.5497,215.4134 C902.8087,218.1214 901.8017,217.3134 899.7527,215.9534 C898.4397,215.0814 898.6407,214.6754 896.9917,213.8024 C895.4187,212.9704 894.1807,213.0094 892.6917,211.8474 C887.4217,207.7354 887.0057,200.5904 885.2817,194.6744 C881.4797,181.6144 868.3347,173.5484 858.2677,165.4704 C857.1717,164.5914 854.4297,161.8224 852.7457,162.5774 Z M654.0987,189.0364 C646.3807,192.1184 638.4227,193.2924 630.2217,191.5514 C630.2287,193.3534 632.8287,196.2814 630.8207,197.3174 C630.3417,197.5644 627.6087,196.3814 627.0767,196.2434 C624.1187,195.4764 620.1327,194.1574 617.0407,194.7864 C613.7697,195.4524 613.8827,197.5714 616.0207,199.9714 C619.0217,203.3404 626.5547,203.4774 626.6397,209.0674 C626.6757,211.4844 625.1857,214.5124 624.8667,217.0054 C624.3907,220.7334 623.8707,224.4314 622.9947,228.0924 C621.4887,234.3864 619.0517,240.3734 616.1477,246.1464 C613.6457,251.1194 610.6037,256.3014 605.9447,259.5514 C602.9077,261.6694 604.0777,260.7134 604.6737,263.8354 C605.0727,265.9264 605.0057,267.4834 602.3057,266.9674 C601.7887,266.8084 601.2727,266.6504 600.7567,266.4914 C607.0887,276.8674 623.1017,283.4074 634.0647,276.4834 C629.4417,272.7574 635.7157,266.2614 638.3647,263.5094 C642.3317,259.3864 646.4897,254.6424 650.7437,250.8784 C657.2567,245.1164 665.7817,247.9204 673.4877,245.4964 C681.2867,243.0434 686.9607,237.5084 692.0017,231.3224 C696.4927,225.8134 702.4457,219.0714 703.0527,211.6144 C703.1717,210.1544 702.4627,208.4424 702.7207,207.0614 C702.9827,205.6534 703.8357,205.4704 704.2807,204.5484 C705.1917,202.6514 705.4127,200.6984 705.5577,198.5264 C706.0297,191.4384 703.7777,190.3254 697.1207,188.4944 C693.2417,187.4264 689.3097,186.5884 685.4247,185.5454 C681.7157,184.5504 678.4087,182.6354 674.7527,181.5674 C667.0557,179.3184 660.8767,186.3304 654.0987,189.0364 Z M673.9348,233.578 C680.0568,237.292 670.4058,239.67 666.8428,238.028 C662.0308,235.81 670.5158,231.504 673.9348,233.578 Z M685.4651,202.6974 C691.0221,209.3364 697.1991,222.8304 685.0301,225.5614 C681.2741,226.4044 675.4631,227.7664 671.6861,226.7334 C666.2911,225.2564 667.7001,218.2164 673.0811,217.9074 C676.2691,217.7244 683.5851,220.2464 685.4791,216.5434 C686.5071,214.5354 684.1701,211.3444 683.8151,209.3404 C683.3581,206.7614 683.7761,204.7004 685.4651,202.6974 Z M353.744124,222.633742 L353.748514,222.640965 C353.768413,222.668333 353.79937,222.700978 353.84257,222.739392 L353.864124,222.756742 L353.823152,222.718112 L353.744124,222.633742 Z M696.4719,205.070785 C700.3309,205.0618 698.4179,213.2588 696.5029,214.6588 C693.0659,217.1708 691.5989,205.0808 696.4719,205.070785 Z M671.0322,211.2511 C666.5542,211.7941 667.5632,201.0781 671.6432,200.7491 C676.9982,200.3161 676.2092,210.6241 671.0322,211.2511 Z M709.7687,193.4654 C709.2327,194.5574 709.6427,205.1894 710.9257,205.3904 C711.271283,202.793483 711.079929,200.182282 711.044096,197.573741 L711.038124,196.914742 C711.067752,196.955599 711.279785,190.384418 709.7687,193.4654 Z" id="react-path-58" fill="#000000"></path></g></g></svg>