<svg xmlns="http://www.w3.org/2000/svg" viewBox="0 0 1024 768" version="1.1"><g id="react-group-100" stroke="none" stroke-width="1" fill="#FFFFFF00" fill-rule="evenodd"><g id="react-group-101"><rect id="react-rect-103" x="0" y="0" width="1024" height="768"></rect><path d="M530.198793,382.002101 L530.353152,382.020489 C532.58788,382.452865 536.292259,388.846249 537.809379,390.663346 C542.699532,396.523715 547.590616,402.384084 552.481699,408.244453 C554.439064,410.589905 557.262024,413.05277 558.656285,415.767233 C559.729438,417.855496 560.097084,420.734895 560.737439,422.973185 C568.690685,450.775693 576.468951,478.758048 582.26193,507.102889 C583.509133,513.203674 584.692114,519.347324 585.385522,525.540362 C585.727107,528.601471 586.62621,533.099483 585.293378,536.058089 C583.790219,539.392228 578.95405,540.777881 575.811843,541.811296 C569.699617,543.823148 563.29979,545.020568 556.967907,546.095916 C541.711077,548.685512 526.263443,550.189509 510.843732,551.406497 C506.133214,551.778303 501.284014,551.77178 496.603279,552.405435 C494.367621,552.707352 495.03776,552.107244 494.333184,553.608446 C493.352175,555.696709 494.002768,560.054013 493.886424,562.330509 C493.611853,567.685818 493.338213,573.040196 493.063643,578.395506 L493.063643,578.395506 L490.819608,622.215487 C490.061048,637.024357 489.303418,651.833228 488.543928,666.642098 C488.257257,672.252733 487.969656,677.8643 487.682985,683.475867 C487.529412,686.474542 487.986409,690.347287 487.182242,693.250914 C486.573533,695.447271 487.574088,694.799639 484.881432,694.930097 C478.645417,695.231083 472.18416,694.476289 465.946283,694.252647 C458.871664,694.000117 451.796113,693.746655 444.719632,693.494125 C442.698977,693.421441 440.440981,693.994526 439.626576,692.545508 C438.635329,690.781526 439.390166,685.931276 439.32036,683.961357 C439.123972,678.471862 438.927584,672.981435 438.731196,667.49194 C438.192292,652.422153 437.653389,637.352366 437.114486,622.282579 C436.379194,601.730752 435.642972,581.177993 434.907681,560.624302 C427.040063,562.208437 419.171515,563.791641 411.302967,565.374844 C399.676987,567.714706 388.050076,570.054567 376.423165,572.393496 C371.090906,573.466981 364.758093,575.915868 359.251785,575.125664 C353.782706,574.341051 351.521918,572.004917 351.214771,566.813612 C350.885286,561.248638 351.013729,555.639866 351.088189,550.070233 C351.211048,540.95959 351.472588,531.850812 351.816965,522.745761 C367.351159,521.347062 382.886283,519.947432 398.420476,518.547802 C406.692038,517.802326 414.964532,517.057783 423.235163,516.312307 C425.112483,516.143643 429.740165,516.506131 430.577839,515.090659 C431.880886,512.890575 430.43078,505.657599 430.391689,503.169574 L430.391689,503.169574 L430.021251,479.647959 L430.021251,479.647959 L428.663289,393.101982 C432.38256,393.224054 436.101831,393.334943 439.821102,393.43931 C456.002166,393.895914 472.263274,394.557523 488.448991,394.059918 C496.566049,393.811116 504.256825,391.621282 511.919677,389.037277 C515.994495,387.663739 520.027428,386.168129 524.028716,384.595175 C525.288019,384.100366 528.99426,381.757709 530.353152,382.020489 Z M508.414069,462.535865 L500.147594,502.967454 L528.435074,501.092974 L508.414069,462.535865 Z" id="react-path-104" fill="#714dd2"></path><g id="react-group-102" transform="translate(257.000308, 20.000000)" fill="#000000"><path d="M487.688681,114.630073 C487.110744,119.127189 487.522094,124.030003 482.44536,125.215463 C477.747404,126.313455 472.592495,126.005459 467.802404,126.389756 C462.419484,126.82244 457.052386,127.413308 451.680634,127.945556 C444.908244,128.616447 445.874265,126.013834 444.39359,120.229834 C443.040415,114.948305 440.881291,109.677011 439.085123,104.525753 C438.250324,102.131571 437.25359,99.929073 436.115397,97.6726058 C435.084229,95.6301541 435.574685,92.8516753 434.463481,91.1348992 C430.671984,85.2773896 412.179831,101.29505 410.461838,98.1378568 C413.590707,95.7018027 419.0062,92.9763625 419.965707,88.8077139 C421.094594,83.9086212 417.981546,82.4458722 414.069995,84.2370884 C404.444211,88.6467371 393.33589,92.0933162 382.838079,93.7002931 C386.233116,91.4307988 416.940141,73.5437602 406.634977,68.2380382 C404.312057,67.0423432 401.210178,69.2932274 399.115269,70.1446367 C395.790963,71.496656 392.318681,72.4029649 388.848262,73.2888027 C385.191711,74.2220961 381.525853,75.1200305 377.848827,75.9686483 C375.269977,76.5641695 370.672532,78.6792004 368.159758,78.1571888 C365.608827,77.6268027 370.128098,76.0430884 370.86797,75.6699571 C374.094557,74.0443703 377.269028,72.2978181 380.418371,70.528934 C386.006966,67.390351 391.16839,63.7548799 395.4187,58.9023124 C398.625744,55.2407873 403.921181,47.2449842 401.688536,42.1821232 C400.394922,39.2473201 397.559211,36.5349069 395.893335,33.7545672 C393.948262,30.5071154 392.378244,27.0456483 390.689101,23.6623432 C393.516437,24.9054938 396.689977,25.2237255 399.575944,26.3393973 C402.461911,27.4559996 405.39255,28.359517 408.394849,29.1895247 C414.418061,30.8541927 420.42359,31.1500923 426.392824,32.5002506 C433.149393,34.0281347 440.189813,35.7365363 447.054338,36.6195826 C453.031017,37.3872467 458.405561,39.0230691 463.526966,42.2816869 C473.984758,48.9384977 481.239229,58.501266 484.908809,70.3270151 C487.058627,77.2546019 487.581656,84.4827409 487.834795,91.6904089 C488.101893,99.2898181 488.662149,107.064162 487.688681,114.630073 M428.996802,115.189305 C421.693937,120.512706 413.180287,124.67298 405.343225,129.201733 C400.85839,131.792251 396.278627,134.213417 391.704448,136.642027 C388.458317,138.365316 384.514192,141.536467 380.9414,142.420444 C378.680835,142.979675 378.849284,143.022478 377.418864,140.961417 C376.051729,138.993405 374.857696,136.874652 373.578043,134.848019 C371.218827,131.111123 368.837276,127.388185 366.455725,123.665247 C361.116546,115.319575 355.787605,106.975764 350.177605,98.8078181 C344.549922,90.6119571 339.151181,82.2653548 333.699393,73.9531811 C331.165214,70.0888066 328.646857,66.209544 325.958189,62.4512467 C323.904229,59.5815788 318.640433,55.2044977 321.140178,51.8258452 C323.462167,48.6872622 328.752021,46.0799958 331.88089,43.7044243 C335.704028,40.8040498 339.550433,37.9334514 343.363335,35.0181888 C351.560561,28.7512583 359.542806,22.2116907 367.732587,15.9363857 C374.682733,28.1268915 382.859484,39.5553162 391.106966,50.8888297 C383.648681,55.6483471 376.114083,60.1724475 368.254685,64.2471154 C362.450178,67.2563587 353.569849,71.3226521 349.903061,77.0312815 C346.291181,82.6524436 349.838846,89.1380421 356.27713,89.2413278 C360.127258,89.3027409 363.965287,88.2829108 367.740032,87.7004166 C370.464995,87.2798297 375.440287,85.3155402 377.897222,86.700127 C373.481254,89.5176869 357.459995,97.7293664 366.096492,104.92866 C372.269539,110.075266 382.705926,102.565185 389.374083,104.110749 C387.341528,108.011413 385.228937,114.233679 390.870579,116.355224 C395.565744,118.121316 401.710871,114.830131 405.936054,113.084509 C408.989539,111.823679 412.023481,110.520046 415.02578,109.143834 C417.412915,108.048633 420.271893,105.830316 422.822824,105.357621 C425.799065,104.805834 431.859503,113.101258 428.996802,115.189305 M293.23536,402.688347 C297.41401,401.926266 299.559174,400.198324 300.875123,405.27142 C302.054265,409.815992 303.22224,414.193073 304.741072,418.652969 C298.214375,419.216853 292.457331,422.333104 287.697952,426.716698 C284.308499,429.840393 277.567751,437.295575 279.239211,442.525926 C283.298736,455.236583 303.8039,426.722281 306.24036,423.674888 C309.223116,428.034289 310.32036,433.741988 311.802897,438.727617 C312.858262,442.275621 316.774466,449.07759 311.597222,449.940166 C304.329722,451.151679 290.694667,453.857579 291.556455,464.150791 C292.574594,476.300355 308.030014,476.231498 316.700944,476.777702 C321.589685,477.084768 321.612021,481.002181 322.308152,485.385776 C322.619922,487.346343 323.592459,489.995482 321.927514,491.431247 C320.44963,492.705104 315.922915,492.740463 313.999247,493.152675 C308.391109,494.356745 302.786692,495.584077 297.179484,496.787216 C290.813791,498.153193 287.447605,496.240081 281.496984,494.49632 C279.293189,493.850552 277.080087,494.123189 276.918152,491.656428 C276.818572,490.142502 278.300178,487.802289 278.78505,486.305112 C280.705926,480.381536 282.34109,474.283957 282.89297,468.063552 C283.696127,459.025586 282.692879,445.474687 271.564083,443.711386 C266.269576,442.872073 265.251437,442.598505 262.86151,437.629625 C260.276145,432.256907 256.171948,427.280583 257.164028,421.090884 C257.881565,416.605864 256.67078,408.118756 259.533481,404.39861 C260.856875,402.679042 263.436656,401.652698 265.197459,400.390938 C267.441273,398.781169 269.602258,397.05788 271.693444,395.255498 C273.452386,393.740641 275.596619,390.778853 277.591017,389.684583 C280.027477,388.346521 280.10193,389.258413 281.851565,391.34832 C284.434138,394.433864 288.540196,403.545339 293.23536,402.688347 M305.045397,422.767648 C303.597295,425.690355 300.250652,428.40742 298.119448,430.847197 C295.975214,433.30093 293.946382,435.894239 291.554594,438.118139 C288.922696,440.566289 279.574247,446.478698 281.633791,438.520115 C283.236382,432.329486 289.233536,427.315942 294.512222,424.226675 C295.534083,423.627432 307.495817,417.822961 305.045397,422.767648 M315.272386,452.238505 C316.19932,456.382031 316.698152,460.653034 317.489211,464.826336 C317.894977,466.959976 320.138791,472.114027 319.223955,474.165783 C317.674411,477.644 303.726656,473.526529 300.835105,472.329903 C293.952897,469.480706 290.793317,462.166961 297.140397,456.958011 C299.547076,454.984417 314.345452,448.096841 315.272386,452.238505 M324.41609,502.001749 C325.193189,505.957312 327.465853,509.62442 323.708791,512.615054 C320.589229,515.097633 315.478061,516.792077 311.634448,517.676054 C306.394849,518.880123 304.71036,515.94439 301.937003,512.168413 C298.955178,508.107702 295.780707,504.184706 292.487112,500.37244 C302.830433,498.057351 313.172824,495.741332 323.517076,493.426243 C323.510561,496.308007 323.860488,499.177675 324.41609,502.001749 M299.632696,520.359621 C294.238609,520.080471 288.435032,521.704197 282.96463,522.131297 C276.132678,522.664475 269.320269,523.440513 262.482733,523.899251 C264.234229,518.309725 267.38078,513.325027 269.842368,508.045359 C272.3114,502.747081 274.045214,502.173892 279.725944,501.765401 C284.98974,501.386687 288.70213,499.575 292.586692,504.040478 C296.628536,508.684614 300.288809,513.731656 303.978864,518.654942 C302.723408,519.495185 301.223189,520.442436 299.632696,520.359621 M261.075579,521.500417 C259.74474,522.47 255.640543,519.713853 254.257587,519.179745 C251.567057,518.140374 250.970506,517.805393 249.566145,515.181378 C248.360014,512.924911 246.440999,510.360447 246.063152,507.784818 C245.56432,504.390347 247.0664,499.920216 247.613627,496.547146 C249.070105,500.058861 253.85089,500.46642 257.0812,501.04054 C259.524174,501.476015 266.762824,500.782791 268.604594,502.52283 C270.639941,504.445247 266.893116,509.805868 265.916857,511.825058 C264.751674,514.235058 263.312879,519.871108 261.075579,521.500417 M258.467879,524.285409 C256.866218,524.545019 252.256674,526.138038 252.348809,523.21254 C252.452112,519.871108 258.794539,523.475872 258.467879,524.285409 M250.345105,524.110475 C250.052879,526.924312 243.998025,526.690756 243.859357,524.215621 C243.6239,520.033015 250.810433,519.617081 250.345105,524.110475 M243.421948,448.230834 C241.874265,452.639552 232.44578,454.216753 228.824594,455.574355 C225.51797,456.813783 215.639046,462.53637 212.229119,460.46042 C223.771127,452.527892 235.598846,444.754478 245.378189,434.625965 C245.778371,437.128085 245.168791,439.217992 244.43078,441.586119 C243.76536,443.723482 244.107842,446.27771 243.421948,448.230834 M240.551802,464.308046 C238.890579,475.107451 237.260999,486.049224 235.013463,496.740691 C230.730579,495.432405 227.198736,492.779544 222.69901,491.855556 C218.592952,491.012521 214.351017,490.99205 210.211455,491.608042 C201.388827,492.92005 193.523846,497.284104 185.826382,501.536498 C185.11536,494.130633 183.643061,486.204617 183.817094,478.772698 C183.961346,472.598818 194.526163,470.771312 199.318116,468.220807 C202.217112,466.678034 204.838773,464.508104 208.141674,463.970274 C211.540433,463.415695 214.820068,463.432444 218.177879,462.396795 C226.115452,459.947714 233.585835,456.064729 241.362404,453.170868 C241.998043,456.877988 241.114849,460.654895 240.551802,464.308046 M233.134466,510.01337 C232.781747,512.468034 233.226601,516.848837 231.355981,518.720077 C229.594247,520.482447 225.831601,520.540139 223.508681,521.017486 C216.431966,522.473722 209.361765,523.943915 202.295287,525.445745 C199.133846,526.117567 195.971473,526.759614 192.797003,527.359787 C191.282824,527.645451 187.484813,529.097965 186.209813,527.892965 C184.999959,526.748447 185.900835,523.093436 185.965981,521.559969 C186.096273,518.496756 186.269375,515.424239 186.076729,512.360096 C185.708189,506.482115 186.03578,504.231231 191.506181,501.190351 C197.318134,497.958718 203.320871,495.746915 209.862459,494.549359 C216.485944,493.336915 222.795798,494.000363 229.100068,496.542494 C230.854357,497.249675 233.485324,498.121556 234.302441,500.013266 C235.412714,502.587034 233.50859,507.405173 233.134466,510.01337 M225.167112,604.758938 C222.573371,606.385455 216.928937,606.108166 213.948973,606.438494 C209.137477,606.96981 204.295269,606.666467 199.515415,605.923926 C195.917495,605.365625 190.547605,604.592378 187.790068,602.066065 C183.872003,598.477119 188.393134,598.31242 191.391711,598.564586 C200.109174,599.297822 208.936455,598.786046 217.645543,598.156096 C219.3412,598.03327 223.898627,596.544467 225.533791,597.241413 C227.624046,598.131903 226.983754,603.620003 225.167112,604.758938 M220.224393,662.762706 C203.982568,661.184575 194.566181,647.7351 188.676054,633.986003 C185.514612,626.604332 186.654667,618.858834 186.342897,611.052853 C186.286127,609.627324 185.390835,606.088625 186.856619,605.024131 C188.233992,604.022911 193.805835,607.11683 195.312568,607.486239 C203.037952,609.37981 211.581382,609.561258 219.323517,607.721656 C222.677605,606.925146 224.555671,605.443787 225.621273,608.76754 C226.479338,611.444594 225.071254,616.377185 224.917696,619.182648 C224.652459,624.035216 225.412806,663.266108 220.224393,662.762706 M187.7789,662.777594 C187.716546,660.421563 186.528098,636.614671 187.681181,636.543023 C191.10786,643.93493 194.627605,650.547077 200.865798,655.98493 C204.052368,658.764339 207.635397,661.26832 211.62047,662.759915 C213.117897,663.320077 221.601765,663.745316 222.017769,665.602598 C222.744612,668.853772 216.953134,667.541764 215.235141,667.277502 C213.856838,667.064417 212.616273,666.47727 211.264028,666.231617 C208.68797,665.764505 206.253371,666.392594 203.666145,666.444702 C199.73505,666.524725 195.874685,666.112513 191.941729,666.453077 C188.346601,666.762934 187.874758,666.349791 187.7789,662.777594 M190.176273,555.995054 C204.080287,551.500729 215.70047,560.012031 223.0387,571.152 C227.222933,577.504536 228.158244,581.946753 227.426747,589.46893 C227.164302,592.161803 227.648244,593.984656 225.172696,595.081718 C222.722276,596.168544 217.155087,595.362729 214.503645,595.486486 C206.878773,595.842868 199.282751,596.316494 191.657879,595.86427 C186.704922,595.571162 186.005068,594.731849 186.090689,589.923946 C186.193061,584.136224 185.711911,578.374556 185.38432,572.577529 C185.02974,566.305946 182.8762,558.353876 190.176273,555.995054 M185.626291,547.658687 C185.634667,543.406293 185.379667,539.043169 185.63932,534.797289 C185.898043,530.587698 187.689557,530.796131 191.663463,530.077783 C200.269247,528.521984 208.863864,526.781015 217.353317,524.671567 C220.711127,523.837837 224.505415,522.237374 228.003754,522.22427 C231.674265,522.21039 231.479758,524.097447 231.234995,527.347691 C230.690561,534.546984 229.37182,541.6402 228.970707,548.801343 C228.537952,556.530092 228.310871,564.358405 228.345306,572.095529 C228.357404,574.707447 228.992112,576.641961 226.765981,574.197532 C224.536127,571.749382 223.445397,567.847787 221.454722,565.096293 C217.377514,559.462104 211.318006,554.929629 204.593079,553.021169 C200.875105,551.96598 196.964484,551.782671 193.173919,552.546614 C192.023627,552.778308 186.26286,555.527942 185.529503,554.984529 C185.033463,554.61698 185.62536,547.83083 185.626291,547.658687 M236.492276,695.043679 C242.007349,698.992729 248.11432,702.18342 254.296674,704.953525 C257.77547,706.512115 271.54547,709.792135 271.98474,713.300127 C272.219265,715.171366 269.937295,717.268718 268.44266,717.490177 C266.546911,717.771189 263.422696,716.532691 261.491583,716.298204 C254.468846,715.445864 247.460068,715.440281 240.607641,713.485297 C226.926984,709.580911 212.742842,708.481058 198.919795,705.077281 C195.630853,704.267745 192.334466,703.508455 189.028773,702.77522 C185.888736,702.078274 184.481583,702.197378 184.370835,698.841988 C184.126072,691.477065 186.238663,683.931625 186.255415,676.475513 C197.438189,677.752162 208.659119,677.735413 219.872605,678.785949 C224.677587,679.235382 224.565908,680.146343 226.671054,684.344768 C228.857167,688.700447 232.575141,692.239146 236.492276,695.043679 M181.967879,455.76976 C181.826419,453.04339 181.715671,450.309575 181.469046,447.590648 C181.30339,445.764073 179.634722,440.658409 180.575616,439.235671 C181.693335,437.54681 182.81943,438.577807 184.819411,438.530351 C187.455963,438.468007 189.663481,437.408166 191.837495,436.020787 C195.954722,433.394911 199.015652,429.938096 201.687568,425.90344 C204.038408,422.352644 203.600999,417.501938 203.572149,413.250475 C203.497696,402.256594 204.298992,391.53349 203.627988,380.491224 C203.319941,375.419058 207.649357,378.529725 211.145835,379.18666 C216.864722,380.260459 223.080579,379.516988 228.892532,379.530946 C228.676619,380.882965 216.7912,384.239285 214.871254,385.516864 C209.955525,388.785718 207.089101,394.016069 207.537678,399.978725 C208.439484,411.974756 221.65109,413.979988 231.304795,414.003251 C223.295561,421.085301 215.429649,427.837023 209.134685,436.573505 C204.493499,443.01537 196.318609,455.715791 203.906254,462.842505 C197.19901,466.65198 190.551327,470.889486 182.965543,472.722575 C182.625853,467.072567 182.261966,461.422559 181.967879,455.76976 M178.922769,236.791019 C181.653317,238.545015 182.801747,236.065227 184.879904,234.781135 C187.80682,232.971308 188.775634,233.149034 189.146966,229.107864 C189.833791,221.612671 186.680725,214.828382 182.721711,208.694513 C180.922751,205.906729 179.127514,202.586698 176.587751,200.407463 C174.272276,198.420841 171.931674,199.10476 169.78651,197.051142 C168.944265,196.243467 169.124813,195.103602 167.73255,195.136169 C166.815853,195.157571 164.58786,197.997463 163.830306,198.624621 C161.438517,200.604729 158.512532,202.112142 155.378079,200.479112 C150.814138,198.10261 152.279922,189.476857 155.824795,186.682559 C158.554411,184.531239 161.780068,184.863428 164.887532,184.516351 C167.217897,184.256741 167.702769,184.358166 166.744192,181.691347 C166.072258,179.82383 164.523645,178.366664 163.758645,176.540088 C162.288207,173.033027 162.608353,168.770397 161.973645,165.058625 C161.403152,161.733011 160.069521,158.135691 160.117915,154.757969 C160.1812,150.457189 161.586492,149.339656 165.312842,148.133725 C168.92286,146.965946 171.91213,144.391247 174.987021,142.22783 C178.467678,139.778749 182.279649,138.161536 185.856163,135.92554 C188.284247,134.406961 189.851473,131.337235 192.521528,132.771139 C195.694138,134.474888 199.049156,139.407478 201.74713,141.928208 C197.799284,144.43405 196.881656,145.530181 197.42516,150.435787 C197.924922,154.932903 198.840689,158.940575 202.278536,162.073575 C203.599138,163.277644 206.062587,164.241644 207.086309,165.629953 C208.280342,167.247166 207.504174,165.821637 207.353408,167.647281 C207.273371,168.631753 206.494411,169.27566 206.663791,170.413664 C207.421346,175.46815 213.227714,172.484961 215.620433,170.729104 C224.169448,164.45566 208.20682,159.473753 204.415324,157.18844 C201.797386,155.609378 200.502842,150.56978 204.65078,151.908772 C207.410178,152.799262 213.643718,160.349355 214.276565,153.467363 C221.118754,157.441536 225.341145,165.885841 231.078645,171.225061 C235.215415,175.075478 240.773298,179.346482 237.48901,185.496169 C233.304776,193.334718 225.006109,196.892957 217.430561,200.275332 C210.082094,203.555351 211.608371,212.838038 215.535744,218.519683 C217.806546,221.804355 220.781857,223.728633 224.361163,225.324444 C228.017714,226.955614 228.77713,228.871517 229.575634,232.654938 C230.46255,236.851502 229.520725,238.543154 225.88651,240.711224 C222.338846,242.829046 218.629247,244.879872 214.841473,246.537096 C206.650762,250.12139 198.153864,250.347502 189.441984,251.569251 C186.388499,251.997281 183.460652,252.888702 181.794776,249.86178 C179.921364,246.455212 179.783627,240.588397 178.922769,236.791019 M177.60589,220.488625 C175.555652,219.408312 170.606419,222.997258 168.014539,223.154513 C163.82193,223.40854 161.069046,223.312698 157.347349,225.536598 C150.311583,229.740606 144.473572,235.153336 138.83193,241.022942 C132.477404,247.634158 126.159174,254.279803 119.826054,260.910559 C116.955908,263.91422 114.070871,266.902061 111.155123,269.860127 C108.857331,272.191965 106.610725,275.471054 103.766638,277.134791 C103.914612,275.158405 105.126327,273.759861 105.556291,271.927702 C105.806638,270.856695 105.369229,269.947594 105.531163,268.922181 C105.584211,268.589061 106.478572,267.431517 106.614448,267.051872 C106.977404,266.049722 107.421327,265.059668 107.852222,264.019366 C108.254265,263.047922 108.195634,262.041119 108.603262,261.026872 C109.022988,259.980988 110.171419,259.288695 110.56974,258.258629 C111.737714,255.243803 109.80474,253.846189 106.713098,253.916907 C107.922952,247.884463 108.451565,244.933841 114.758627,242.806714 C120.78463,240.774498 126.671036,238.492907 132.206583,235.317104 C137.121382,232.497683 141.221857,228.434181 145.946802,225.291876 C150.176638,222.478038 155.442295,219.530208 155.398554,213.760166 C157.796857,215.386683 160.044393,216.755451 162.78797,215.136378 C165.103444,213.76854 165.410561,212.667756 168.08713,212.410007 C170.272313,212.200644 171.626419,212.144814 173.576145,213.106023 C175.871145,214.235652 176.184776,215.021926 177.5212,211.694451 C179.040032,212.972961 182.879922,218.298224 182.751492,220.40581 C182.681692,221.567077 182.505798,222.090949 181.067003,222.397085 C179.026072,222.830698 179.105178,221.278621 177.60589,220.488625 M168.045251,535.644046 C167.047587,537.172861 162.841948,536.890919 161.217952,536.870447 C156.266857,536.806243 154.535835,532.650621 152.363681,528.635505 C148.938864,522.305301 143.820251,509.155447 149.438627,502.511664 C153.873207,497.268285 162.510634,503.874849 165.5362,507.835065 C168.148554,511.256521 167.372386,516.388239 167.615287,520.493614 C167.820032,523.95415 170.016382,532.626428 168.045251,535.644046 M154.519083,537.936803 C152.539576,539.91598 146.115251,539.497254 143.49266,539.922494 C138.811455,540.679922 134.156309,541.590884 129.614703,542.97361 C126.233627,544.002745 122.891638,546.771919 122.000068,542.058926 C121.25182,538.096849 121.624083,533.343845 121.695744,529.344548 C121.772988,525.02981 122.224357,520.769973 122.599411,516.474776 C122.853481,513.569749 122.217842,508.225876 124.589156,505.996393 C126.632879,504.074907 131.601656,503.889737 134.254959,503.253274 C138.611364,502.20832 143.163207,500.83583 147.691784,501.303872 C145.049649,508.475251 144.82536,515.995567 147.65828,523.141822 C148.46609,525.181482 155.741966,536.714123 154.519083,537.936803 M121.225762,509.367602 C120.122003,520.154911 119.011729,531.010146 120.074539,541.851424 C120.138754,542.498123 120.9112,545.459911 120.575233,545.923301 C120.228098,546.40344 117.478937,546.651884 116.854466,546.798903 C114.375196,547.38698 111.899649,548.010417 109.404557,548.532428 C104.54839,549.547606 103.914612,546.479741 102.961619,541.978903 C100.920689,532.336112 104.877842,521.880992 107.275214,512.619706 C108.443189,508.109563 109.3087,507.590343 113.74328,507.216281 C116.829338,506.956671 121.694813,504.783949 121.225762,509.367602 M102.473025,549.612741 C100.617295,551.300671 98.7624954,543.336505 98.5986997,542.525108 C97.9500319,539.301849 98.3111268,536.032996 98.3204333,532.75949 C98.3362545,527.646382 97.9453786,522.556536 97.9379333,517.467621 C97.93328,514.715197 95.8709443,509.087521 99.1282435,507.631285 C100.084028,507.204185 103.881109,507.381911 104.742897,507.943934 C106.53255,509.112644 105.827112,509.870073 105.296638,511.90322 C104.109119,516.466401 103.082605,521.051915 102.048645,525.653247 C101.034229,530.16432 100.033773,534.505112 100.516784,539.164135 C100.675926,540.705046 103.65589,548.537081 102.473025,549.612741 M161.657222,499.350749 C166.181145,498.075961 166.423116,501.542081 166.415671,504.85932 C165.726054,504.330795 159.297076,500.016058 161.657222,499.350749 M101.144046,255.852351 C100.035634,257.678926 93.0147581,258.177675 91.0082618,258.658745 C87.0613457,259.604135 83.1125684,260.543011 79.1758895,261.527482 C71.8004333,263.371737 64.6064552,265.452339 57.0457983,266.41727 C61.1974589,259.769764 62.4892107,254.029498 61.7167654,245.734073 C60.7423676,235.260343 59.5036632,224.892691 57.0923311,214.64042 C54.7154333,204.530517 51.9634808,194.48854 49.3129698,184.446563 C48.0109808,179.513042 46.6028968,174.673502 44.8709443,169.873042 C43.4824041,166.025417 41.3139735,161.182154 43.6703968,157.237756 C49.6507983,161.60088 54.4474041,166.301776 57.8582618,172.929741 C61.5129516,180.035054 64.7032435,187.329258 68.9442472,194.126575 C70.8837362,197.234451 73.1480246,200.06876 75.2224589,203.077073 C76.45651,204.867359 77.3555246,207.449502 78.9274041,208.959706 C80.7393932,210.699745 82.671437,211.520447 83.7072581,208.583783 C84.8184625,205.432173 81.2735903,199.195949 80.2275319,196.236023 C77.7007983,189.090698 75.1954698,181.960262 73.2466742,174.630698 C71.6701413,168.706193 69.0643019,161.543189 69.986583,155.292077 C70.8995574,149.103308 75.0986815,153.532498 77.2233713,156.40961 C81.6039735,162.341559 84.2265647,169.256119 87.1041559,175.980857 C89.749083,182.15939 92.8342107,188.049467 95.7611268,194.084702 C96.7792654,196.184845 98.1212727,201.609671 100.788536,202.234038 C104.665652,203.143139 104.33713,197.682953 103.966729,195.467428 C101.509795,180.781316 95.095707,166.718641 93.7648676,151.777571 C93.7006523,151.063876 92.773718,145.512502 93.5191742,145.049112 C94.9644844,144.150247 96.9142107,149.781644 97.5377508,151.161579 C100.78109,158.33854 103.039795,165.904451 105.112368,173.486181 C106.875032,179.933629 108.469247,186.430393 110.447824,192.816428 C111.534831,196.327212 112.780981,199.779374 114.009448,203.241772 C115.120652,206.378494 116.248609,211.739115 119.146674,213.80576 C123.258317,216.737772 137.972003,209.766451 139.462915,215.998953 C140.523864,220.429073 126.880433,223.996617 123.974922,225.342123 C120.149922,227.112868 116.397514,229.052034 112.570652,230.824641 C109.673517,232.165494 105.509758,232.71542 103.413919,235.238942 C101.193371,237.912274 100.83786,241.665919 100.771784,244.982227 C100.720598,247.491791 102.459995,253.686142 101.144046,255.852351 M91.845853,304.226355 C91.6513457,305.618386 90.5447946,307.46171 90.0468932,308.786745 C89.0334078,311.486131 88.1716195,314.711251 86.7616742,317.232911 C85.5490282,319.404702 83.7593749,321.34666 82.5876778,323.551019 C81.4764735,325.642787 81.328499,328.054648 80.0302326,330.149208 C78.5449041,332.542459 76.0898311,334.263888 74.6147399,336.642251 C73.8878968,337.815614 73.1368567,339.155536 72.1094114,340.4052 C68.4714735,344.831598 64.8595939,349.007691 61.9336085,353.749529 C61.1853603,354.963834 57.5306705,360.263042 56.0760538,360.549637 C53.0355976,361.147019 56.5748859,356.824837 57.1695757,355.930625 C61.4775866,349.465498 65.3035173,342.658876 69.4616924,336.093254 C73.4895757,329.736065 77.6114552,323.428193 81.4876413,316.975162 C84.649083,311.714104 86.8351961,304.16122 91.973353,300.455031 C91.9928968,301.71493 91.9510173,302.972038 91.845853,304.226355 M232.320141,244.807293 C234.822678,255.094922 237.815671,265.06432 240.636492,275.25983 C243.25443,284.720243 246.737879,294.844104 247.823025,304.596695 C248.897933,314.258096 251.367897,324.033019 254.689411,333.203115 C256.224995,337.446204 257.80432,341.705112 259.471127,345.898884 C260.386893,348.202807 261.410616,350.454621 262.45016,352.704575 C263.257039,354.452988 265.389174,357.283575 265.471072,359.136204 C265.536218,360.619424 266.051802,360.026695 264.587879,361.141436 C263.071838,362.296189 260.445525,361.876532 258.680068,362.080312 C254.075178,362.612559 249.584758,364.345154 245.095269,365.467339 C236.437368,367.630756 226.117313,369.348463 217.24536,367.842911 C213.513426,367.209239 209.63724,366.660243 205.947185,365.834888 C201.40651,364.81878 200.473061,362.940096 199.541473,358.477409 C197.503335,348.721096 195.748116,338.989907 194.065488,329.168459 C192.064576,317.486007 189.898937,305.816583 188.354977,294.061552 C186.795196,282.169737 185.674685,270.265826 183.23078,258.503351 C193.089229,260.1522 202.373463,262.014135 212.260762,259.312888 C221.016382,256.920567 227.337404,252.244795 232.320141,244.807293 M270.911692,372.173467 C273.115488,376.716177 267.803298,380.80015 265.229101,384.298837 C261.834065,388.910405 258.663317,393.728544 254.714539,397.899984 C253.529813,393.160007 252.490269,387.82637 249.329758,383.93315 C245.292568,378.961478 240.580652,380.992764 235.635141,378.641386 C240.821692,376.117864 247.444247,377.080934 252.946291,374.83098 C258.373882,372.611733 263.85359,370.869834 268.903335,367.987139 C269.574338,369.381961 270.236966,370.780505 270.911692,372.173467 M251.676875,478.155776 C248.361875,478.340015 250.57963,471.349154 250.794612,469.611907 C251.38651,464.836571 251.984922,460.062166 252.503298,455.278455 C255.238499,462.490776 257.972769,469.703096 260.706109,476.914486 C257.701017,477.343447 254.71547,477.987355 251.676875,478.155776 M246.284649,512.729505 C246.736948,513.734447 248.845817,517.084254 247.180871,517.702108 C244.8989,518.547934 244.624357,513.000281 246.284649,512.729505 M242.329357,435.032594 C231.769192,443.463872 221.28255,451.916552 209.856875,459.175397 C207.353408,460.765625 204.832258,461.430934 203.172897,458.277463 C201.869046,455.797675 203.246419,453.004308 204.083079,450.576629 C206.216145,444.387861 209.932258,439.007698 214.050415,433.970892 C222.275561,423.912166 232.065141,415.320841 244.556419,411.355042 C246.600141,410.705552 249.755068,408.747776 250.470744,411.451814 C250.892331,413.042042 249.108262,417.013424 248.746236,418.505949 C247.254393,424.669594 247.580123,430.842544 242.329357,435.032594 M272.727404,496.521092 C272.960068,503.680374 253.389284,497.905679 250.950963,496.626239 C253.509338,495.768316 272.62224,493.302486 272.727404,496.521092 M279.994904,496.565756 C281.157295,496.875614 285.617003,497.269216 283.951127,498.793378 C282.460214,500.157494 275.708298,499.610359 273.918645,499.777849 C275.121054,495.827868 276.034028,495.511498 279.994904,496.565756 M276.369065,486.976003 C275.931656,488.569023 275.7539,490.998563 274.326273,492.090042 C272.547787,493.450436 268.76839,492.62415 266.755379,492.635316 C263.336145,492.652996 259.920634,492.82793 256.518152,493.167563 C255.216163,493.296903 249.943061,494.8862 248.72297,493.802166 C247.826747,493.005656 248.160853,489.269691 248.813244,488.430378 C250.15339,486.704297 253.239448,487.301679 255.173353,487.232822 C262.250068,486.979725 269.288627,486.959254 276.369065,486.976003 M271.825598,460.513459 C270.827003,459.029308 270.648317,459.045127 270.222076,456.802617 C269.766984,454.402853 268.608317,452.350166 267.927076,450.031355 C266.428718,444.928482 271.216948,445.381637 274.729247,447.252876 C283.840379,452.107305 281.641236,469.068494 279.388116,477.009397 C276.112203,474.601258 274.90328,473.508849 273.776254,469.623073 C273.348152,468.146366 272.867933,466.695714 272.422149,465.227382 C272.094557,464.146139 272.322568,461.253208 271.825598,460.513459 M272.614795,377.961189 C275.15828,377.654123 277.485853,385.546641 276.75901,387.255042 C275.27182,390.749077 269.588298,393.86998 266.693955,396.100393 C264.766565,397.584544 262.852203,399.287363 260.79266,400.581691 C258.88016,401.782969 257.780123,401.109285 256.001638,401.686197 C253.428371,402.518996 252.804831,405.241644 250.171072,406.412216 C246.465196,408.059204 241.973846,408.519803 238.103244,410.006745 C233.407149,411.810988 229.10286,411.860305 224.178754,411.005173 C217.097386,409.77598 208.796857,406.262405 209.435287,397.658054 C210.560452,382.475984 240.710944,374.696988 248.933298,387.569552 C251.073809,390.920289 251.040306,394.825606 252.429776,398.424787 C253.934649,402.319868 255.393919,400.789193 257.657276,397.920455 C260.618627,394.16681 263.369649,390.212177 266.214667,386.369204 C267.135087,385.126984 270.778609,378.184509 272.614795,377.961189 M87.8412362,525.777934 C87.6969844,528.360077 87.8514735,530.978509 86.9533895,533.442478 C86.048791,535.926919 84.2144662,537.935872 83.1581705,540.350525 C81.0167289,545.244034 81.0325501,551.164818 81.1181705,556.408197 C81.3173311,568.608007 84.2060903,580.457019 85.7342289,592.510741 C80.6481888,592.498644 75.3909078,592.556336 70.461218,591.101961 C66.05828,589.80298 65.3556341,586.585305 64.1104151,582.530177 C60.613937,571.140834 56.8373311,559.800807 55.7084443,547.873633 C55.1714552,542.190127 54.9453056,536.460096 54.6884443,530.75798 C54.4641559,525.755602 55.5874589,523.573575 60.1030063,521.097509 C69.9177143,515.713625 80.0916559,511.231397 89.805853,505.591625 C88.8128421,512.282864 88.219083,519.026212 87.8412362,525.777934 M506.836948,126.059428 C504.447021,125.621162 502.034758,125.346664 499.623426,125.059139 C498.365178,124.908397 494.44432,125.11776 493.502495,124.297988 C492.381984,123.321892 494.322404,115.942081 494.421984,114.358366 C495.028773,104.834679 494.323335,95.0169533 493.449448,85.5295556 C491.869192,68.354351 486.46766,52.442768 474.005233,40.0754668 C467.802404,33.919266 460.828992,29.0350614 452.357222,26.6781 C447.421948,25.3046792 442.335908,24.5723741 437.389466,23.2408259 C433.39974,22.1651656 429.676181,20.9341116 425.531036,20.5079417 C417.26401,19.6574629 409.706145,16.533768 401.63828,14.7267332 C395.70255,13.3970459 386.155871,10.2435749 382.307605,16.9459803 C379.278317,13.3933239 376.231346,10.7255749 372.410999,8.07550541 C368.751656,5.53709614 368.153244,3.00147838 363.67213,5.93255946 C354.965835,11.6281618 346.811419,18.5762197 338.679338,25.0562351 C331.084247,31.1082197 323.73578,37.4458683 315.775871,43.0112004 C307.657751,48.6881927 309.197057,58.3216792 313.014612,66.3081772 C320.197422,81.3404359 331.275963,94.1915981 340.973408,107.077189 C347.047806,115.149293 353.141747,123.231633 359.191948,131.319556 C364.975981,139.050166 369.978262,147.996942 376.736692,154.942208 C380.998171,159.32022 386.084211,153.594841 389.929685,150.949424 C394.703025,147.663822 399.392605,144.256324 404.171528,140.980027 C414.123043,134.155725 424.771619,127.764108 435.277806,121.823783 C436.041875,123.989992 436.805944,126.1562 437.570014,128.322409 C435.262915,128.495482 432.145214,127.979984 430.971656,130.460702 C429.293681,134.004054 433.409977,134.469305 434.131236,136.50059 C434.776181,138.315069 432.133116,143.107154 431.351364,144.742046 C429.593353,148.425903 427.13828,151.601706 424.433791,154.634212 C413.734959,166.634895 400.194831,175.218776 386.457404,183.400679 C371.756747,192.154841 356.000725,197.499644 339.906875,203.141278 C331.722678,206.009085 323.228572,207.341563 314.783791,209.178374 C306.646127,210.948189 298.515908,213.272583 290.200488,213.940683 C273.188079,215.305729 255.135196,216.329281 238.328463,212.660312 C236.488554,212.259266 234.541619,211.389247 232.670068,211.223617 C231.169849,211.090556 230.058645,211.719575 228.642185,211.800529 C225.600798,211.974532 223.857678,209.254675 221.441692,211.781919 C220.232769,213.04554 220.211364,215.168015 218.526875,212.809193 C216.383572,209.808324 221.861419,209.227691 223.891181,208.372559 C230.725926,205.493586 236.219594,199.69842 240.562039,193.83998 C244.901692,187.986193 245.525233,181.73415 242.883098,174.880073 C240.241893,168.028787 234.234503,163.384652 229.724539,157.821181 C227.543079,155.127378 225.535652,152.277251 223.140141,149.762104 C221.861419,148.418459 219.800944,147.132505 219.720908,145.777695 C219.627842,144.203285 220.570598,143.420733 220.006619,141.506691 C219.860506,141.008872 219.235105,140.726 219.102021,140.178864 C218.891692,139.306984 219.217422,138.558861 219.107605,137.709312 C218.854466,135.760841 218.090397,134.537231 217.008973,132.94049 C216.335178,131.942992 215.349612,129.946135 214.422678,129.198942 C212.797751,127.888795 210.581857,128.422903 208.929941,127.095077 C206.315725,124.994934 205.396236,120.569467 203.083554,118.019892 C199.828116,114.431876 199.133846,118.057112 195.684831,116.913525 C192.735579,115.934637 192.770014,111.497073 190.386601,109.996173 C187.029722,107.882073 184.202386,111.771571 181.221492,112.637868 C177.299703,113.777733 178.806437,109.353197 175.31089,108.950289 C172.154101,108.585532 167.781875,114.989247 166.207203,117.263393 C164.603681,115.394015 162.849393,112.208907 159.963426,113.349702 C156.934138,114.548189 156.395287,120.123756 154.181254,122.113169 C153.40974,122.804532 153.572605,123.315378 152.623335,123.63361 C151.39766,124.043961 149.764357,122.264841 148.179448,122.807324 C144.982641,123.901594 145.372587,128.167946 145.366072,130.931536 C141.594119,130.380679 138.963152,130.099668 137.700251,134.165031 C136.464338,138.143857 135.995287,136.388 132.01859,137.680467 C128.59005,138.794278 128.110762,142.050104 127.544922,145.234281 C127.194995,147.21439 127.518864,148.022996 128.0512,149.828169 C128.723134,152.102316 128.723134,152.073471 127.627751,154.244332 C125.718973,158.031475 125.604503,162.203845 125.299247,166.371563 C124.975379,170.819363 124.197349,174.867976 125.461181,179.211559 C126.242933,181.89978 126.302495,185.557583 128.935324,187.063135 C129.979521,187.659586 131.753353,187.33298 132.64213,187.92478 C134.338718,189.054409 133.822203,190.773976 134.952021,192.423756 C135.798919,193.658532 137.164192,193.777637 138.112532,194.778857 C139.1437,195.868475 139.205123,197.196301 139.792368,198.525988 C141.530835,202.463872 143.165999,204.36861 137.499229,204.593791 C134.003681,204.732436 130.274539,205.781112 126.792952,205.459158 C122.684101,205.080444 121.66224,202.783965 120.354667,199.287139 C113.763754,181.665293 110.221674,162.56488 101.541437,145.807471 C99.6354516,142.128266 91.8123494,127.096938 88.5057253,138.048946 C85.7174771,147.286038 89.3758895,158.559069 90.7783895,167.753359 C86.3773129,163.786629 84.7495939,156.642235 81.4076049,151.798973 C78.9395027,148.221193 71.2103968,139.434463 66.6799589,144.469409 C63.1090282,148.438 64.0015282,156.852529 64.6604333,161.597158 C65.7018384,169.102586 68.1001413,176.336308 69.8134808,183.697509 C67.656218,180.876227 66.5924771,177.430579 65.0959808,174.253845 C63.2188457,170.270366 60.8763822,166.489737 58.2072581,162.989189 C55.8750319,159.929698 53.2673311,157.086085 50.4399954,154.477888 C48.27901,152.482892 44.4084078,148.116976 41.3391012,147.880629 C33.4406158,147.274872 35.9245392,161.763718 37.1278786,165.906312 C39.6211085,174.492054 42.3246669,182.840517 44.2604333,191.599332 C48.0444844,208.711262 52.6279698,225.427729 55.4152873,242.757397 C56.0323129,246.60037 56.7759078,249.667305 55.256145,253.360467 C53.9169297,256.614432 52.5274589,260.505791 50.0565647,263.007911 C44.4633165,268.673737 39.8193384,274.723861 35.6388275,281.550953 C31.1605063,288.862837 26.5509625,296.259397 22.8953421,304.021644 C21.2145757,307.592911 19.8399954,311.455424 17.9079516,314.890837 C16.1639005,317.99127 14.0671304,320.441281 12.8274954,323.873903 C6.90386398,340.275861 2.51767785,356.391224 0.509320182,373.759042 C-1.13980391,388.018054 0.396710693,406.985405 17.6129333,410.322185 C25.5216559,411.854722 32.6225684,408.34766 39.7541924,405.452868 C47.1305793,402.459444 52.4641742,397.592919 58.4808713,392.421189 C65.9568384,385.995142 73.7185173,379.96549 81.2735903,373.646451 C88.8323859,367.323691 95.8141742,360.312359 103.332021,353.921671 C110.757733,347.608216 117.475214,340.903019 123.896747,333.571594 C130.267094,326.298791 135.441546,318.241575 141.60901,310.867347 C141.585744,320.415227 140.168353,329.875641 139.770963,339.410494 C139.407076,348.152559 139.3987,356.886251 139.751419,365.623664 C140.104138,374.356424 137.797039,382.668598 137.778426,391.382749 C137.758882,399.882884 137.421984,408.333702 137.235853,416.824532 C137.152094,420.634007 136.405707,424.906872 137.828681,428.581424 C138.891492,431.325475 142.231619,432.183397 145.081291,432.923146 C149.48516,434.065803 162.734922,431.865166 164.7014,436.569783 C165.775379,439.137038 164.693955,443.810949 164.777714,446.64805 C164.917313,451.322892 165.088554,455.996803 165.248627,460.670714 C165.414284,465.498158 165.575287,470.325602 165.751181,475.152115 C165.907532,479.404509 166.734886,484.142625 166.222094,488.353146 C165.783754,491.961633 163.679539,491.489868 160.344995,491.675038 C155.312003,491.953258 150.277149,492.176579 145.241364,492.396177 C137.85474,492.719992 130.146109,492.572042 123.06474,493.443922 C120.09036,493.80961 116.840506,493.654216 113.703262,494.250668 C109.768444,494.998791 106.134229,495.188614 102.143572,495.38681 C98.926291,495.545926 94.7904516,495.31237 92.2627873,497.690733 C91.3861085,498.516088 91.1897399,499.499629 90.5680611,500.418034 C89.4038092,502.138532 90.0515465,501.686308 88.1409078,502.073397 C80.6789005,503.584532 73.5919479,505.290142 66.2946669,507.833204 C62.6418384,509.106131 59.2523859,510.815463 55.5828056,512.013019 C52.3664552,513.062625 50.0091012,514.355092 48.4195392,517.512285 C45.5791742,523.151127 46.298572,531.308837 46.5042472,537.385946 C46.8281158,546.86683 48.9341924,555.892698 51.205926,565.061864 C53.568864,574.60044 55.4218019,584.394903 60.0183165,593.15837 C61.5287727,596.038274 63.1592837,599.711895 66.2444114,601.212795 C70.2276231,603.1501 76.353207,601.975807 80.7003056,601.983251 C83.6179151,601.987903 91.4326413,602.990054 93.6131705,600.543764 C95.7248311,598.174706 93.6001413,591.493702 93.3023311,588.554247 C92.2572034,578.251729 90.3763457,567.854301 90.4014735,557.481996 C92.7811632,560.998363 96.9076961,567.068027 101.037021,561.68042 C102.053298,560.354455 101.656838,559.738463 103.461382,558.969868 C104.459977,558.544629 106.564192,558.284088 107.6512,558.357598 C109.130014,558.457162 109.67724,559.051753 111.035999,558.760505 C112.238408,558.502756 113.590652,557.426166 114.969886,557.098629 C132.063262,553.036058 149.057988,548.657115 166.224886,545.037463 C170.7637,544.079976 170.118754,547.564706 170.418426,551.488633 C170.74974,555.828494 170.117824,560.212088 170.719959,564.503563 C171.243919,568.237668 171.651546,571.876861 170.913536,575.633297 C170.043371,580.063417 170.603627,583.760301 171.470068,588.147617 C174.809265,605.066934 174.212714,623.417363 174.965616,640.613038 C175.357422,649.569119 174.516109,658.713162 175.358353,667.620857 C175.676638,670.985552 177.554703,672.844695 178.315981,675.905115 C179.189868,679.419621 176.806455,683.894405 176.081473,687.299112 C174.624995,694.132718 172.065689,703.914154 176.746893,709.860061 C179.274557,713.072154 182.588627,713.537405 186.330798,714.623301 C190.809119,715.923212 195.223225,717.438069 199.722952,718.669123 C216.163006,723.169031 233.928317,724.049285 250.77786,726.529073 C254.903463,727.13576 258.730324,727.079 262.882915,726.791475 C265.442222,726.613749 271.746492,727.455853 273.874904,725.924247 C275.014959,725.104475 274.437021,724.078131 275.01682,723.07598 C275.839521,721.652312 276.837185,721.07354 278.238754,720.187702 C280.559813,718.721231 283.243827,717.864239 283.635634,714.836386 C284.59328,707.419355 275.324868,703.489845 270.369119,700.283336 C264.035999,696.183544 256.385999,694.60076 249.664795,691.254675 C245.956127,689.408559 242.378681,687.316791 238.80589,685.222231 C237.256346,684.314061 234.115379,683.285857 233.035817,681.855675 C231.933919,680.396648 233.01255,678.314185 233.468572,676.22893 C235.352222,667.613413 234.715652,658.80342 235.69005,650.096714 C236.664448,641.37605 236.399211,632.601417 236.720287,623.836088 C237.051601,614.809289 237.797057,605.804822 238.369411,596.79105 C238.896163,588.465849 239.427568,580.006656 239.515981,571.673081 C239.598809,563.945262 240.652313,556.363532 240.901729,548.585467 C240.986419,545.945633 240.512714,541.15727 242.265141,538.921274 C243.802587,536.959776 248.892349,537.206359 251.266455,536.862073 C257.665652,535.933432 263.755871,535.119243 270.082477,534.559081 C285.136784,533.226602 301.889539,532.245853 316.124868,526.998753 C321.995452,524.835336 329.807386,521.879131 331.755251,515.137644 C333.995342,507.388424 331.071218,497.863807 330.97443,489.940583 C330.871127,481.48139 328.418846,473.227837 326.579868,465.031046 C324.59943,456.207096 323.352349,447.231475 321.212769,438.441023 C319.249083,430.374502 316.064375,423.231038 313.0537,415.573007 C311.831747,412.466992 304.875087,401.764359 307.03328,399.124525 C308.195671,397.702718 312.382696,397.342614 314.081145,396.692193 C317.742349,395.291787 321.410068,393.698768 324.786492,391.703772 C329.293663,389.039745 339.16328,384.632888 339.618371,378.713965 C340.051127,373.056513 334.492313,367.339509 331.666838,362.897293 C327.114065,355.738011 321.371911,349.479455 317.035981,342.178737 C308.272915,327.424698 301.304156,311.264671 294.915196,295.365185 C291.573207,287.046498 290.481546,279.213532 289.931528,270.334683 C299.636419,270.357946 309.514411,271.55178 319.157879,270.195108 C329.652897,268.717471 340.161875,266.230239 350.564758,264.180343 C369.509211,260.446239 387.6989,256.230135 405.248298,247.822119 C421.682769,239.949142 438.35828,231.331764 451.965415,218.834193 C459.001181,212.371857 466.178408,205.785764 472.253736,198.395718 C478.495652,190.804683 483.190817,182.179861 488.006036,173.657393 C493.321017,164.250949 497.551784,154.365297 500.896565,144.075807 C501.56943,142.007301 501.573152,139.37305 502.43401,137.418996 C503.405616,135.212776 505.172933,135.155085 507.018426,133.992888 C509.614028,132.357996 511.342258,126.886644 506.836948,126.059428" id="react-path-105"></path><path d="M280.890137,20.759539 C283.108773,22.6654278 292.670484,29.3789468 295.758968,27.7465404 C299.569644,25.7312587 293.536547,19.6608946 291.912324,18.1642863 C289.845132,16.2602836 282.458516,10.5001805 279.630324,11.0348855 C273.977726,12.1042956 278.893934,19.0441449 280.890137,20.759539" id="react-path-106"></path><path d="M285.612927,89.6620964 C286.866596,87.1950994 290.200745,86.288156 291.742082,83.9008291 C293.597067,81.030849 294.448932,78.5193849 293.765027,75 C289.0176,76.598036 283.616892,81.4347584 280.440495,85.2172403 C277.785611,88.3781092 274.014395,94.9833248 280.94252,95 C280.882203,94.0597063 280.821886,93.1184863 280.760641,92.179119 C282.838336,92.4811246 284.669195,91.5213766 285.612927,89.6620964" id="react-path-107"></path><path d="M262.997547,48.6176995 C266.057945,49.4973829 268.58369,49.3728336 271.710802,49.4416405 C273.980025,49.492157 277.080827,50.7393912 278.919697,49.3336398 C277.287548,48.3886334 279.350051,48.336375 278.946007,47.414885 C278.606798,46.6466862 277.962207,46.8983976 277.438829,46.2765224 C275.570831,44.0607656 273.946198,44.0877658 270.984462,43.6270207 C268.688929,43.2681796 265.313753,42.4407547 263.108424,43.5817301 C260.787521,44.7828027 259.889228,47.7240806 262.997547,48.6176995" id="react-path-108"></path><path d="M306.562527,116.579451 C308.542043,114.919273 310.699641,110.112725 311.099856,107.632989 C311.25638,106.661423 310.556239,105.916953 310.639656,105.201785 C310.799929,103.839212 313.600494,101.204722 310.666837,100.086643 C308.100589,99.1077516 305.688991,106.711787 305.03665,108.371049 C304.367439,110.067855 302.545384,113.373559 303.104935,115.015423 C303.568884,116.37708 305.225979,117.699361 306.562527,116.579451" id="react-path-109"></path><path d="M330.241161,13.6624072 C332.032161,12.0002559 333.16528,10.1152034 332.97991,7.82950517 C332.832705,6.02900141 331.48423,-0.178605195 329.966741,0.0039432118 C324.928132,0.61211764 327.193461,16.4928682 330.241161,13.6624072" id="react-path-110"></path><path d="M223.864343,291.196844 C223.449833,289.678975 221.942272,280.398558 219.336123,281.030848 C217.355892,281.511351 219.412747,289.678044 219.505065,290.752658 C219.698011,293.000594 215.376584,292.927028 213.368658,292.623455 C210.183671,292.14202 210.439394,290.27588 209.96303,287.380754 C209.783933,286.286585 209.094314,281.341871 206.812202,283.15307 C205.270484,284.376678 206.372766,290.474227 206.501089,291.865451 C206.946063,296.683521 207.468586,304.911674 210.333227,309.28742 C211.475207,311.032503 212.502711,311.893871 213.702851,309.656178 C214.916838,307.391481 212.168518,300.488437 211.687539,298.171591 C213.95488,298.393219 220.480871,297.657565 221.846261,300.012589 C223.093484,302.161817 221.098482,308.303133 225.099563,308.801329 C227.473071,309.097453 227.042867,306.347597 226.81484,304.233755 C226.335708,299.798411 225.034017,295.481332 223.864343,291.196844" id="react-path-111"></path><path d="M229.943346,289.050071 C227.315381,290.236947 230.61501,307.544928 234.459608,306.98679 C238.946991,306.334199 232.447412,287.918531 229.943346,289.050071" id="react-path-112"></path><path d="M227.014578,283.318521 C226.690765,287.215569 231.754809,288.668488 231.994527,284.433402 C232.179148,281.165708 227.35579,279.221765 227.014578,283.318521" id="react-path-113"></path><path d="M199.216674,179.995804 C201.52894,188.611862 222.572441,192.276631 219.737566,180.657184 C218.317308,174.838853 212.388131,180.007582 208.247671,179.3308 C205.568826,178.893202 197.588688,173.92017 199.216674,179.995804" id="react-path-114"></path><path d="M193.931737,164.627281 C194.921215,160.016583 184.836263,154.928151 181.176942,156.197481 C175.823475,158.054722 175.846443,169.929584 179.930219,173.086708 C180.467679,173.502412 182.114971,174.493064 182.92162,173.70332 C184.194986,172.454358 182.804022,172.795068 182.506352,171.547957 C182.035041,169.564802 180.492485,167.018734 182.02861,164.762454 C184.93273,160.499873 192.515048,171.233171 193.931737,164.627281" id="react-path-115"></path><path d="M163.180765,187.005421 C159.544464,186.801081 156.563088,192.444745 161.912681,191.971845 C162.937279,191.881352 165.138431,191.623494 165.732929,190.547306 C166.71665,188.763714 164.779422,187.094941 163.180765,187.005421" id="react-path-116"></path><path d="M339.580361,52.4624415 C338.335888,50.662171 335.726713,47.7650168 333.481818,49.5707399 C331.491739,51.1719902 331.838971,55.1242247 332.602523,57.0880736 C334.656306,62.3752891 339.508582,67.0854367 344.999692,64.0392444 C343.092159,60.2178725 342.017266,55.9866461 339.580361,52.4624415" id="react-path-117"></path></g></g></g></svg>