<svg xmlns="http://www.w3.org/2000/svg" viewBox="0 0 1024 768" version="1.1"><g id="react-group-118" stroke="none" stroke-width="1" fill="#FFFFFF00" fill-rule="evenodd"><g id="react-group-119"><rect id="react-rect-121" x="0" y="0" width="1024" height="768"></rect><path d="M281.5303,633.8185 C281.6493,593.1935 282.4303,552.5545 283.8013,511.9525 C284.8193,481.8605 286.1233,451.7465 288.6463,421.7385 C289.6453,409.8505 290.8073,397.9525 292.6363,386.1595 C293.7693,378.8575 294.8103,370.9025 297.8913,364.1035 C298.9003,361.8785 299.8743,360.4315 302.0203,359.2935 C309.9563,355.0815 320.8293,354.4625 329.5783,353.5735 C343.9223,352.1165 358.4413,351.6965 372.8553,351.9935 C372.0103,367.4975 371.1663,383.0015 370.3223,398.5045 C369.6723,410.4455 369.0213,422.3865 368.3713,434.3265 C367.9613,441.8635 366.9713,449.6145 367.1273,457.1635 C367.2543,463.3135 374.4863,469.1985 378.1623,474.0005 C382.6713,460.2075 387.1803,446.4145 391.6903,432.6215 C394.0743,438.7775 396.6223,444.8805 399.3943,450.8705 C401.2233,454.8215 403.0853,458.8885 405.5103,462.5205 C407.7263,465.8385 408.3753,466.3065 412.2263,465.7405 C416.8623,465.0595 420.3823,463.6845 423.1223,467.1305 C425.5513,470.1855 427.8133,473.3015 430.4493,476.2015 C459.5563,508.2145 504.4103,528.0955 545.9713,537.0895 C570.4503,542.3855 595.1443,546.6865 619.6133,552.0875 C656.9733,560.3335 695.3473,568.4645 731.0303,582.5595 C736.6223,584.7685 742.2753,587.1415 747.3773,590.3555 C753.0033,593.8985 757.0213,599.2595 760.9143,604.5675 C770.4263,617.5375 781.5773,638.8105 766.9063,652.3475 C755.6593,662.7255 738.0863,663.7675 723.4753,664.9355 C708.3723,666.1435 693.2163,666.7325 678.0753,667.2245 C636.8353,668.5645 595.5563,668.8545 554.2973,668.893565 C516.6003,668.9225 478.8973,668.7095 441.2073,667.9885 C424.1083,667.6615 407.6313,668.0585 391.0863,663.6705 C357.2243,654.6915 323.4593,645.3435 289.6803,636.0595 C286.9643,635.3135 284.2473,634.5665 281.5303,633.8185" id="react-path-122" fill="#714dd2"></path><g id="react-group-120" transform="translate(135.999936, 31.999524)" fill="#000000"><path d="M489.630964,246.773076 C488.048964,248.417076 490.612964,249.683076 491.766964,250.042076 C491.580964,248.456076 490.815964,247.739076 489.630964,246.773076 L489.630964,246.773076 Z M272.800964,555.823076 C272.190964,554.385076 271.280964,553.202076 269.617964,553.881076 C266.867964,555.002076 272.430964,555.808076 272.800964,555.823076 L272.800964,555.823076 Z M511.890964,324.111076 C513.027964,324.252076 517.676964,323.961076 516.239964,321.431076 C514.573964,318.499076 512.283964,323.203076 511.890964,324.111076 L511.890964,324.111076 Z M428.523964,298.172076 C430.967964,296.077076 433.157964,292.874076 433.183964,289.546076 C430.879964,291.075076 429.648964,295.807076 428.523964,298.172076 L428.523964,298.172076 Z M487.130964,256.108076 C489.166964,256.211076 487.303964,253.345076 487.323964,252.774076 C487.365964,251.549076 488.511964,250.497076 488.325964,249.044076 C488.318964,248.985076 486.266964,244.391076 485.725964,244.099076 C484.202964,243.279076 483.317964,244.782076 481.950964,245.247076 C479.926964,245.936076 478.938964,245.328076 476.765964,245.540076 C474.850964,245.727076 473.237964,246.659076 471.235964,246.658076 C470.760964,246.658076 470.234964,245.650076 469.688964,245.706076 C468.837964,245.793076 468.756964,246.878076 468.154964,246.932076 C466.039964,247.120076 465.916964,246.280076 463.943964,245.491076 C460.664964,244.179076 458.363964,247.231076 458.437964,250.838076 C458.534964,255.616076 463.518964,257.569076 467.337964,258.667076 C472.262964,260.082076 474.998964,260.935076 480.002964,260.044076 C481.449964,259.785076 482.919964,260.246076 484.061964,259.248076 C485.596964,257.906076 484.782964,255.075076 486.534964,253.767076 C486.733964,254.547076 486.931964,255.328076 487.130964,256.108076 L487.130964,256.108076 Z M313.861964,446.209076 C314.270964,449.331076 313.412964,450.939076 316.441964,453.031076 C318.229964,454.267076 320.477964,455.080076 322.371964,456.318076 C325.114964,458.111076 329.225964,459.263076 331.658964,461.325076 C333.203964,462.634076 333.478964,466.340076 335.620964,466.789076 C337.443964,467.170076 339.616964,463.876076 340.241964,462.393076 C340.933964,460.750076 340.471964,459.397076 340.752964,457.756076 C340.941964,456.655076 341.765964,456.426076 341.620964,455.132076 C341.469964,453.775076 340.153964,453.058076 339.581964,451.981076 C339.069964,451.016076 338.914964,449.647076 338.513964,448.885076 C337.566964,447.092076 335.465964,443.283076 333.592964,442.096076 C332.014964,446.238076 330.818964,442.041076 328.630964,440.825076 C327.814964,440.803076 326.997964,440.795076 326.181964,440.804076 C325.758964,440.401076 325.327964,440.006076 324.890964,439.620076 C323.881964,439.526076 322.219964,440.065076 321.309964,440.346076 C320.809964,440.232076 320.302964,440.165076 319.788964,440.146076 C319.106964,440.345076 318.835964,440.725076 318.979964,441.285076 C319.276964,441.149076 317.628964,442.149076 317.471964,442.256076 C314.218964,444.466076 311.234964,445.348076 310.631964,450.049076 C311.708964,448.770076 312.785964,447.489076 313.861964,446.209076 L313.861964,446.209076 Z M339.231964,278.355076 C335.753964,269.341076 336.857964,261.399076 337.193964,251.964076 C337.272964,249.749076 337.744964,244.997076 335.429964,243.527076 C332.540964,241.694076 330.136964,245.840076 328.627964,247.556076 C326.037964,250.501076 322.422964,253.205076 321.095964,257.027076 C319.923964,260.399076 321.132964,264.536076 322.026964,267.877076 C322.990964,271.477076 324.182964,276.317076 327.459964,278.311076 C330.959964,280.440076 335.704964,280.231076 339.231964,278.355076 L339.231964,278.355076 Z M461.835964,470.061076 C461.334964,463.152076 451.725964,465.573076 447.404964,467.703076 C444.173964,469.296076 442.365964,471.725076 440.330964,474.613076 C438.020964,477.892076 437.263964,478.808076 437.447964,482.706076 C437.616964,486.262076 437.418964,489.839076 438.309964,493.377076 C438.761964,495.173076 438.862964,495.490076 440.054964,496.727076 C440.051964,496.724076 442.118964,498.783076 441.543964,498.454076 C444.209964,499.976076 448.185964,500.231076 451.317964,500.467076 C455.794964,500.803076 456.871964,500.864076 458.688964,496.609076 C459.037964,497.350076 459.387964,498.090076 459.735964,498.831076 C459.847964,498.307076 461.091964,492.092076 460.804964,492.153076 C460.302964,492.261076 459.763964,493.707076 459.517964,494.075076 C459.673964,491.212076 461.711964,489.072076 462.698964,486.519076 C463.607964,484.172076 463.980964,481.514076 464.681964,479.086076 C465.359964,476.736076 466.118964,473.467076 465.462964,471.028076 C464.590964,467.789076 464.315964,468.711076 461.835964,470.061076 L461.835964,470.061076 Z M519.849964,317.765076 C521.410964,319.236076 520.019964,321.615076 520.222964,323.437076 C522.344964,322.136076 521.608964,321.439076 522.430964,319.322076 C522.959964,317.959076 524.519964,315.351076 525.881964,317.585076 C526.454964,318.524076 524.560964,319.814076 525.842964,320.366076 C526.596964,320.690076 528.602964,318.166076 528.969964,317.769076 C531.498964,315.031076 533.116964,312.232076 533.325964,308.498076 C533.383964,307.476076 533.368964,304.926076 533.005964,304.339076 C531.954964,302.645076 529.158964,303.647076 529.398964,300.550076 C530.511964,301.104076 531.624964,301.657076 532.737964,302.211076 C533.083964,298.728076 529.324964,296.667076 527.753964,293.903076 C525.963964,290.754076 524.801964,288.463076 521.885964,285.754076 C520.539964,284.503076 518.349964,281.926076 516.601964,281.324076 C515.242964,280.856076 514.691964,281.547076 513.320964,281.560076 C510.454964,281.587076 506.146964,280.812076 510.413964,283.992076 C509.546964,284.399076 508.407964,284.652076 507.668964,285.293076 C507.120964,285.768076 506.915964,287.125076 506.273964,287.450076 C504.887964,288.150076 503.850964,286.784076 502.285964,288.339076 C500.638964,289.978076 502.324964,291.011076 501.957964,291.733076 C500.902964,293.810076 499.450964,292.777076 499.497964,295.943076 C499.574964,301.163076 502.580964,307.342076 504.198964,312.220076 C505.149964,315.087076 506.212964,319.570076 510.223964,318.395076 C510.071964,319.775076 509.722964,321.113076 510.618964,322.344076 C511.455964,321.359076 511.755964,319.197076 512.319964,318.040076 C513.151964,316.336076 514.505964,314.690076 515.461964,313.033076 C515.321964,315.652076 515.037964,316.380076 513.257964,318.363076 C515.599964,318.650076 518.484964,320.527076 519.849964,317.765076 L519.849964,317.765076 Z M348.490964,393.627076 C350.638964,392.000076 347.817964,390.185076 352.055964,391.108076 C353.136964,391.344076 352.050964,392.608076 353.682964,392.654076 C354.298964,392.671076 355.809964,391.155076 356.236964,390.799076 C356.627964,390.473076 358.383964,388.106076 358.665964,387.953076 C358.193964,388.207076 360.797964,387.198076 359.984964,387.853076 C361.535964,386.604076 362.716964,384.550076 363.413964,382.053076 C365.123964,375.932076 364.879964,368.618076 361.334964,363.360076 C359.848964,361.156076 358.662964,358.466076 356.423964,356.987076 C353.386964,354.981076 348.366964,353.788076 344.974964,352.514076 L346.072964,349.843076 C336.760964,354.052076 330.338964,363.877076 329.554964,373.859076 C329.272964,377.450076 328.249964,382.010076 330.436964,385.193076 C332.718964,388.516076 338.473964,392.009076 341.651964,388.318076 C341.168964,390.375076 342.585964,392.835076 344.759964,393.363076 C345.581964,393.563076 346.357964,392.966076 346.721964,393.019076 C347.184964,393.085076 348.161964,393.693076 348.490964,393.627076 L348.490964,393.627076 Z M263.010964,185.217076 C256.753964,184.472076 257.723964,195.774076 258.897964,199.168076 C259.843964,201.906076 263.234964,205.716076 265.028964,208.101076 C267.166964,210.942076 270.018964,213.063076 273.051964,214.876076 C274.091964,215.497076 274.852964,215.696076 275.749964,216.043076 C276.068964,215.726076 276.449964,215.561076 276.894964,215.547076 C277.285964,216.199076 277.839964,216.687076 278.555964,217.010076 C280.830964,217.718076 284.595964,217.610076 286.856964,217.515076 C290.500964,217.361076 294.755964,215.264076 298.380964,214.565076 C300.074964,214.238076 301.017964,214.106076 302.515964,213.226076 C303.270964,212.783076 304.748964,209.368076 304.959964,212.722076 C305.893964,212.147076 305.598964,211.201076 306.281964,210.780076 C306.933964,210.378076 309.018964,209.991076 309.795964,209.106076 C310.879964,207.872076 312.320964,205.057076 313.074964,203.371076 C313.559964,202.289076 314.587964,199.501076 314.506964,198.375076 C314.334964,195.990076 313.565964,196.539076 311.527964,195.551076 C310.165964,194.891076 309.381964,194.338076 308.020964,193.973076 C307.862964,193.931076 307.484964,194.744076 307.217964,194.674076 C306.750964,194.553076 306.562964,194.015076 306.235964,193.910076 C303.749964,193.104076 300.815964,190.715076 297.741964,190.946076 C296.414964,191.046076 295.171964,193.068076 294.489964,192.965076 C293.441964,192.806076 293.964964,190.654076 293.233964,189.874076 C291.368964,187.888076 285.146964,188.209076 282.730964,187.865076 C276.163964,186.929076 269.589964,186.056076 263.010964,185.217076 L263.010964,185.217076 Z M482.189964,357.004076 C482.788964,352.315076 483.526964,347.658076 478.384964,345.350076 C476.454964,344.484076 474.848964,344.797076 472.869964,344.562076 C470.298964,344.256076 470.672964,343.149076 468.764964,345.908076 C467.709964,344.553076 468.410964,344.113076 466.683964,343.952076 C465.970964,343.886076 462.859964,345.910076 462.050964,346.241076 C458.675964,347.622076 454.377964,347.494076 451.831964,350.279076 C449.357964,352.986076 447.356964,355.588076 446.313964,359.281076 C445.787964,361.141076 445.441964,363.068076 444.791964,364.894076 C444.088964,366.869076 442.507964,368.571076 441.966964,370.546076 C439.763964,378.586076 449.128964,385.924076 455.706964,388.057076 C456.553964,387.883076 457.384964,387.938076 458.199964,388.220076 C458.773964,388.599076 459.287964,389.046076 459.743964,389.561076 C461.813964,390.210076 462.305964,389.996076 464.411964,389.046076 C467.883964,387.481076 471.939964,386.948076 474.567964,390.610076 C475.378964,386.348076 478.337964,388.884076 479.760964,386.139076 C480.546964,384.625076 478.829964,380.431076 479.824964,379.340076 C481.513964,377.487076 486.781964,380.782076 486.645964,376.454076 C486.595964,374.877076 484.803964,374.355076 484.182964,373.109076 C483.067964,370.872076 483.686964,368.504076 485.236964,366.538076 C485.381964,366.877076 485.942964,369.106076 486.685964,368.516076 C488.655964,366.949076 485.416964,364.481076 484.709964,363.626076 C483.544964,362.217076 482.484964,361.141076 482.744964,359.174076 C482.905964,357.954076 484.862964,356.685076 484.792964,355.499076 C484.738964,354.596076 482.320964,356.899076 482.189964,357.004076 L482.189964,357.004076 Z M390.690964,407.629076 C390.823964,410.916076 388.723964,411.345076 387.340964,413.606076 C386.964964,414.222076 386.939964,415.697076 386.413964,416.600076 C385.431964,418.293076 384.748964,418.398076 384.433964,420.047076 C384.468964,419.863076 384.959964,421.681076 384.971964,421.888076 C385.106964,424.208076 383.493964,426.063076 383.937964,428.614076 C384.560964,432.203076 387.287964,436.200076 389.210964,439.185076 C393.557964,445.933076 399.634964,451.164076 407.959964,451.641076 C413.519964,451.960076 426.600964,449.737076 427.792964,443.924076 C427.478964,443.250076 427.212964,442.556076 426.995964,441.842076 C426.867964,440.809076 427.250964,440.104076 428.144964,439.727076 C428.830964,439.546076 429.367964,439.165076 429.754964,438.582076 C429.566964,437.991076 429.256964,437.471076 428.826964,437.023076 C428.980964,436.245076 430.291964,436.207076 430.271214,435.705076 C430.231964,434.771076 429.409964,432.430076 429.189964,431.365076 C428.807964,429.525076 428.598964,427.773076 428.263964,425.921076 C427.991964,424.423076 427.072964,423.683076 426.836964,422.309076 C426.674964,421.372076 427.626964,420.522076 427.545964,419.528076 C426.919964,418.967076 426.410964,418.313076 426.020964,417.566076 C425.976964,416.790076 426.167964,416.070076 426.593964,415.407076 C425.659964,408.870076 416.409964,403.379076 409.829964,403.229076 C406.294964,403.148076 400.258964,402.894076 397.079964,404.741076 C394.954964,405.975076 393.529964,410.352076 390.690964,407.629076 L390.690964,407.629076 Z M248.781964,638.044076 C244.134964,635.949076 239.972964,633.717076 234.995964,632.700076 C231.403964,631.965076 228.319964,629.947076 224.709964,629.289076 C216.712964,627.831076 208.075964,626.486076 200.405964,623.682076 C192.181964,620.674076 183.225964,619.597076 174.796964,617.097076 C170.646964,615.866076 167.024964,615.059076 162.732964,614.821076 C158.550964,614.590076 154.251964,612.258076 150.071964,612.652076 C146.577964,612.982076 144.085964,615.666076 141.351964,617.579076 C137.806964,620.060076 133.940964,622.199076 130.130964,624.248076 C126.087964,626.423076 121.583964,627.513076 117.593964,629.634076 C114.280964,631.394076 111.026964,633.112076 107.610964,634.726076 C89.4619644,643.302076 71.9369644,651.313076 55.5699644,663.245076 C60.8479644,664.851076 66.8519644,663.250076 72.0969644,662.684076 C79.5519644,661.878076 86.9799644,661.273076 94.3609644,659.892076 C98.6799644,659.085076 107.109964,656.004076 111.233964,658.372076 C114.857964,660.452076 114.579964,665.792076 115.099964,669.364076 C118.520964,668.044076 121.926964,666.690076 125.377964,665.450076 C128.091964,664.475076 132.495964,661.794076 135.261964,661.700076 C142.966964,661.439076 142.124964,672.252076 141.374964,677.214076 C145.876964,675.685076 150.157964,674.618076 154.521964,672.724076 C158.019964,671.205076 161.882964,670.870076 165.280964,669.059076 C173.723964,664.559076 183.091964,661.739076 192.131964,658.545076 C202.330964,654.940076 212.507964,651.268076 222.619964,647.422076 C226.775964,645.841076 230.874964,643.754076 235.126964,642.472076 C239.704964,641.091076 244.391964,640.053076 248.781964,638.044076 L248.781964,638.044076 Z M349.412964,225.744076 C348.766964,231.826076 349.432964,237.959076 349.618964,244.048076 C349.836964,251.178076 349.845964,258.232076 350.768964,265.320076 C352.434964,278.107076 354.779964,290.897076 359.357964,302.996076 C363.525964,314.016076 370.559964,321.808076 382.471964,324.190076 C393.173964,326.329076 403.603964,322.660076 410.414964,314.109076 C417.479964,305.242076 419.649964,294.043076 423.786964,283.766076 C425.809964,278.741076 427.307964,273.688076 428.994964,268.546076 C430.006964,265.466076 435.022964,256.624076 433.587964,253.460076 C432.186964,250.371076 423.919964,249.315076 421.057964,247.598076 C416.510964,244.869076 412.305964,239.398076 408.835964,235.400076 C406.510964,232.721076 405.152964,230.740076 403.584964,234.990076 C401.699964,240.097076 403.065964,245.997076 401.306964,250.951076 C399.575964,255.822076 395.797964,251.017076 395.409964,247.842076 C394.665964,241.746076 395.560964,234.821076 395.848964,228.694076 C396.385964,217.276076 397.134964,204.070076 407.430964,197.030076 C417.188964,190.358076 427.779964,188.282076 433.197964,176.763076 C435.369964,172.145076 437.922964,167.307076 436.565964,162.140076 C434.997964,156.177076 432.676964,149.941076 430.393964,144.210076 C426.007964,133.204076 419.138964,123.621076 413.133964,113.516076 C412.322964,112.153076 412.152964,110.406076 410.380964,110.021076 C408.376964,109.585076 403.698964,112.994076 401.755964,113.544076 C396.464964,115.040076 391.736964,111.936076 387.068964,115.449076 C383.322964,118.269076 380.146964,122.327076 375.092964,122.622076 C372.916964,122.749076 369.963964,120.806076 368.088964,121.270076 C365.699964,121.861076 365.008964,125.426076 364.087964,127.429076 C361.972964,132.025076 359.612964,137.784076 356.124964,141.541076 C354.940964,142.816076 352.848964,143.210076 351.837964,144.397076 C350.660964,145.776076 351.314964,148.576076 349.628964,148.827076 C348.651964,148.972076 347.871964,147.647076 347.049964,147.331076 C345.652964,146.793076 344.282964,146.690076 342.787964,146.734076 C340.021964,146.815076 337.151964,147.483076 334.720964,148.807076 C329.067964,151.885076 326.978964,156.566076 333.772964,159.381076 C336.495964,160.510076 339.452964,161.350076 342.398964,161.612076 C345.631964,161.899076 348.902964,160.890076 352.099964,161.284076 C358.264964,162.043076 360.160964,167.199076 361.756964,172.497076 C363.950964,179.785076 365.723964,187.164076 368.187964,194.376076 C370.200964,200.268076 373.857964,206.257076 374.913964,212.412076 C375.562964,216.193076 374.712964,215.911076 372.188964,218.249076 C370.265964,220.029076 369.109964,222.366076 367.026964,224.152076 C361.218964,229.131076 356.157964,227.804076 349.412964,225.744076 L349.412964,225.744076 Z M724.288964,579.727076 C724.111964,578.428076 696.582964,580.912076 693.454964,580.590076 C688.110964,580.040076 682.421964,581.503076 676.896964,581.316076 C672.012964,581.150076 664.967964,579.253076 660.935964,581.624076 C659.440964,582.503076 659.403964,583.541076 657.043964,583.093076 C654.850964,582.677076 652.540964,581.127076 650.898964,579.690076 C646.329964,575.692076 643.537964,569.402076 640.549964,564.217076 C634.568964,553.841076 629.446964,543.090076 624.482964,532.178076 C614.257964,509.703076 604.419964,487.100076 594.205964,464.620076 C589.153964,453.501076 584.282964,442.362076 578.833964,431.449076 C576.508964,426.791076 573.955964,421.682076 572.165964,416.803076 C570.214964,411.482076 567.649964,406.487076 565.900964,401.032076 C562.193964,389.479076 557.763964,378.098076 554.925964,366.217076 C554.206964,363.209076 553.939964,360.059076 553.073964,357.094076 C552.149964,353.927076 550.262964,351.219076 549.079964,348.153076 C547.873964,345.029076 547.870964,342.241076 547.270964,339.048076 C546.671964,335.866076 545.209964,332.764076 544.156964,329.716076 C538.735964,332.985076 532.562964,335.960076 527.573964,339.845076 C522.666964,343.668076 515.506964,346.870076 517.560964,353.781076 C519.428964,360.067076 522.736964,365.847076 524.704964,372.125076 C526.912964,379.168076 529.624964,386.053076 531.755964,393.112076 C536.328964,408.267076 540.331964,423.600076 544.426964,438.891076 C546.350964,446.075076 548.754964,453.273076 550.164964,460.580076 C550.898964,464.381076 550.778964,467.780076 552.160964,471.462076 C553.510964,475.061076 554.790964,478.582076 555.899964,482.267076 C557.873964,488.826076 559.757964,495.399076 561.941964,501.890076 C563.123964,505.403076 564.068964,508.955076 564.908964,512.564076 C565.417964,514.745076 567.148964,518.940076 566.661964,521.198076 C565.263964,527.700076 556.663964,521.075076 554.605964,518.421076 C549.830964,512.265076 546.405964,504.734076 542.829964,497.841076 C528.471964,470.163076 521.411964,440.310076 514.008964,410.180076 C512.062964,402.259076 510.183964,394.409076 507.996964,386.570076 C505.704964,378.356076 505.037964,369.768076 502.332964,361.600076 C499.537964,353.161076 496.686964,345.028076 494.633964,336.345076 C493.684964,332.325076 492.680964,328.307076 491.837964,324.264076 C491.387964,322.105076 491.368964,318.134076 488.493964,317.704076 C490.344964,331.252076 491.028964,347.124076 496.427964,359.830076 C501.321964,371.354076 505.211964,387.143076 500.263964,399.378076 C497.884964,405.262076 494.120964,410.287076 491.290964,415.892076 C488.125964,422.159076 486.063964,429.354076 483.942964,436.032076 C479.550964,449.860076 478.254964,464.403076 475.315964,478.548076 C473.774964,485.962076 473.744964,491.033076 475.081964,498.328076 C475.511964,500.677076 474.752964,502.544076 476.730964,504.050076 C478.720964,505.565076 483.322964,505.871076 485.781964,506.740076 C493.246964,509.379076 499.664964,511.315076 507.569964,512.180076 C515.036964,512.998076 522.048964,514.481076 529.160964,516.927076 C541.976964,521.334076 555.303964,524.628076 567.896964,529.046076 C574.784964,531.463076 581.427964,535.769076 588.049964,538.857076 C594.937964,542.070076 602.244964,544.169076 608.737964,548.179076 C615.732964,552.497076 622.649964,557.512076 629.277964,562.353076 C635.417964,566.837076 638.360964,572.411076 640.916964,579.389076 C645.775964,592.655076 658.026964,609.871076 646.710964,623.257076 C650.677964,624.981076 655.217964,625.666076 659.018964,627.509076 C660.330964,628.146076 660.721964,628.767076 662.213964,629.133076 C664.164964,629.612076 666.675964,629.229076 668.673964,629.359076 C671.563964,629.547076 677.653964,631.626076 680.471964,630.786076 C683.105964,630.000076 683.220964,626.179076 685.112964,624.293076 C687.918964,621.497076 690.611964,623.300076 694.044964,622.989076 C699.129964,622.528076 704.195964,621.861076 709.283964,621.417076 C719.549964,620.522076 729.786964,620.311076 740.086964,620.335076 C734.724964,614.384076 715.005964,625.215076 714.521964,614.435076 C713.960964,601.961076 729.185964,605.703076 736.586964,602.105076 C729.859964,602.303076 723.132964,602.368076 716.418964,602.901076 C712.344964,603.225076 704.511964,605.175076 702.207964,600.698076 C699.731964,595.884076 703.715964,590.316076 707.446964,587.802076 C712.609964,584.324076 718.576964,582.106076 724.288964,579.727076 L724.288964,579.727076 Z M163.212964,413.402076 C161.978964,415.862076 163.889964,416.853076 164.755964,418.836076 C165.951964,421.576076 164.770964,421.031076 164.530964,423.609076 C164.369964,425.338076 164.841964,426.154076 164.743964,427.773076 C164.702964,428.462076 163.722964,429.377076 163.607964,430.161076 C163.400964,431.568076 164.161964,432.216076 164.078964,433.238076 C164.037964,433.745076 164.693964,433.835076 164.559964,434.570076 C164.443964,435.211076 162.967964,435.662076 162.880964,436.065076 C162.380964,438.402076 163.781964,437.232076 163.995964,438.340076 C164.353964,440.189076 163.313964,440.506076 162.721964,442.207076 C161.700964,445.140076 162.687964,446.507076 163.318964,449.257076 C163.852964,451.576076 163.059964,451.592076 162.758964,453.807076 C162.575964,455.150076 162.963964,455.314076 162.957964,456.563076 C162.939964,460.877076 161.974964,465.363076 161.934964,469.934076 C161.839964,480.752076 160.923964,491.413076 160.786964,502.205076 C160.651964,512.809076 159.879964,523.545076 159.415964,534.282076 C159.189964,539.517076 158.658964,544.734076 158.429964,549.970076 C158.162964,556.050076 158.757964,562.101076 158.245964,568.157076 C157.780964,573.662076 158.059964,579.185076 157.831964,584.705076 C157.724964,587.324076 156.376964,595.249076 158.096964,597.010076 C160.330964,599.296076 169.382964,596.862076 172.310964,597.023076 C177.814964,597.324076 183.617964,598.432076 189.010964,599.568076 C201.791964,602.260076 214.601964,605.688076 227.387964,608.103076 C238.048964,610.116076 248.050964,615.237076 257.973964,619.571076 C257.064964,610.455076 255.459964,601.562076 255.162964,592.374076 C254.896964,584.116076 255.674964,575.901076 255.491964,567.653076 C255.100964,550.055076 254.103964,532.652076 254.496964,515.057076 C254.897964,497.165076 256.339964,478.896076 258.830964,461.174076 C259.975964,453.031076 260.868964,444.356076 263.781964,436.619076 C265.101964,433.114076 267.250964,430.544076 266.358964,426.688076 C265.391964,422.512076 263.481964,418.146076 262.069964,414.096076 C261.031964,420.692076 257.373964,464.645076 242.345964,451.432076 C236.477964,446.273076 233.760964,435.096076 232.448964,427.772076 C230.676964,417.871076 231.312964,407.465076 231.358964,397.446076 C231.450964,377.033076 233.695964,356.208076 235.754964,335.907076 C236.165964,331.852076 238.213964,328.226076 233.011964,328.420076 C228.134964,328.603076 223.122964,329.758076 218.272964,330.327076 C214.074964,330.819076 209.859964,329.621076 205.859964,330.157076 C204.025964,330.403076 202.403964,331.489076 200.551964,331.764076 C198.214964,332.111076 195.772964,331.603076 193.419964,331.606076 C189.454964,331.611076 184.857964,331.590076 181.566964,334.057076 C178.109964,336.648076 175.145964,340.936076 173.984964,345.082076 C172.824964,349.229076 173.134964,353.896076 172.400964,358.038076 C171.781964,361.529076 171.649964,365.837076 171.070964,369.802076 C168.561964,366.658076 168.722964,371.196076 168.695964,372.537076 C168.664964,374.157076 166.921964,377.435076 167.370964,378.385076 C167.660964,378.998076 169.608964,378.674076 169.773964,379.154076 C170.112964,380.144076 168.939964,380.562076 168.918964,381.302076 C168.835964,384.186076 169.000964,387.167076 168.993964,390.075076 C168.313964,389.555076 167.631964,389.035076 166.950964,388.514076 C166.592964,389.292076 166.479964,390.306076 166.138964,391.093076 C165.984964,391.451076 164.546964,391.352076 164.478964,392.056076 C164.389964,392.975076 166.401964,394.745076 166.789964,395.749076 C167.484964,397.543076 167.927964,396.835076 166.749964,398.769076 C165.393964,400.996076 163.173964,401.120076 163.528964,404.357076 C164.246964,403.807076 164.872964,403.167076 165.408964,402.438076 C165.744964,404.370076 164.904964,406.073076 164.802964,407.997076 C164.735964,409.255076 166.266964,414.276076 165.112964,415.116076 C164.627964,415.470076 163.330964,413.538076 163.212964,413.402076 L163.212964,413.402076 Z M264.606964,254.994076 C264.615964,250.756076 258.428964,244.238076 256.300964,240.691076 C252.906964,235.032076 249.256964,229.909076 244.941964,224.908076 C240.606964,219.884076 235.978964,215.095076 231.774964,209.961076 C230.034964,207.838076 228.743964,205.358076 226.969964,203.279076 C224.752964,200.683076 224.284964,201.481076 221.538964,201.550076 C219.450964,201.603076 218.088964,201.248076 216.158964,201.868076 C215.133964,202.197076 214.469964,202.686076 213.368964,202.989076 C212.679964,203.180076 211.770964,202.511076 210.845964,202.834076 C208.557964,203.631076 207.779964,205.671076 205.018964,205.629076 C204.687964,205.624076 203.627964,204.839076 203.474964,204.883076 C203.287964,204.937076 202.429964,205.592076 202.459964,205.585076 C202.275964,205.627076 202.328964,206.926076 201.838964,207.151076 C201.000964,207.537076 200.406964,206.243076 199.643964,206.327076 C197.715964,206.539076 196.281964,208.529076 194.148964,209.011076 C191.408964,209.630076 189.038964,208.727076 186.421964,210.002076 C184.330964,211.020076 183.273964,213.336076 181.534964,210.942076 C179.959964,214.286076 177.060964,213.273076 174.164964,214.682076 C170.126964,216.647076 165.749964,217.643076 161.449964,219.127076 C152.602964,222.180076 143.693964,225.308076 135.069964,228.983076 C117.180964,236.607076 99.8569644,245.061076 82.3679644,253.257076 C65.2639644,261.273076 49.4439644,271.902076 34.0509644,282.602076 C26.5039644,287.847076 19.0009644,293.357076 13.1139644,300.540076 C11.3299644,302.716076 8.35096444,306.096076 9.55296444,309.158076 C10.8249644,312.396076 16.2009644,314.406076 19.2409644,315.027076 C23.2269644,315.843076 27.6089644,316.116076 31.6669644,316.387076 C36.0479644,316.681076 40.7539644,316.826076 45.0899644,316.767076 C53.6359644,316.649076 62.0179644,315.816076 70.6039644,315.627076 C80.3709644,315.411076 89.9459644,313.351076 99.6929644,313.229076 C110.407964,313.095076 121.000964,311.752076 131.731964,312.171076 C152.415964,312.981076 173.081964,313.578076 193.826964,313.678076 C196.407964,313.690076 198.938964,313.379076 201.473964,313.829076 C203.530964,314.193076 205.016964,314.913076 207.222964,314.755076 C209.277964,314.608076 211.182964,313.709076 213.276964,313.600076 C216.026964,313.457076 218.843964,313.910076 221.607964,313.853076 C230.939964,313.662076 242.007964,312.814076 251.003964,315.765076 C254.576964,316.938076 259.068964,320.353076 256.890964,324.779076 C254.736964,329.155076 249.234964,325.588076 245.828964,327.577076 C242.655964,329.430076 244.415964,334.486076 244.639964,337.509076 C245.062964,343.237076 245.139964,348.935076 244.988964,354.675076 C244.655964,367.351076 243.883964,380.012076 243.735964,392.692076 C243.664964,398.851076 243.752964,405.008076 244.077964,411.159076 C244.364964,416.588076 244.173964,422.497076 246.029964,427.678076 C248.614964,421.209076 248.929964,414.067076 249.954964,407.250076 C251.064964,399.875076 252.149964,392.500076 253.204964,385.116076 C253.831964,380.730076 254.482964,354.388076 263.065964,357.829076 C272.189964,361.486076 269.017964,381.751076 269.431964,389.037076 C269.822964,395.914076 270.525964,402.765076 272.083964,409.484076 C272.808964,412.607076 274.800964,425.869076 278.804964,426.726076 C281.741964,412.847076 284.846964,398.990076 287.005964,384.962076 C287.958964,378.770076 288.799964,372.531076 289.179964,366.275076 C289.377964,363.019076 289.136964,355.192076 293.843964,354.813076 C307.679964,353.698076 298.397964,411.995076 308.736964,419.329076 C312.560964,411.722076 314.055964,403.789076 315.093964,395.356076 C315.565964,391.517076 316.575964,387.195076 315.978964,383.345076 C315.195964,378.308076 314.345964,375.220076 315.397964,370.015076 C316.257964,365.754076 316.876964,361.379076 317.870964,357.155076 C318.587964,354.111076 320.458964,352.625076 321.445964,349.880076 C324.226964,342.151076 324.047964,332.367076 325.156964,324.254076 C326.279964,316.037076 327.463964,307.959076 326.007964,299.670076 C324.566964,291.461076 318.561964,288.851076 311.734964,285.462076 C304.855964,282.048076 298.218964,278.296076 290.664964,276.790076 C282.182964,275.100076 274.398964,273.460076 265.716964,273.011076 C250.394964,272.220076 235.378964,273.138076 220.125964,273.864076 C203.165964,274.672076 186.188964,273.665076 169.237964,273.432076 C160.997964,273.319076 152.602964,273.160076 144.376964,273.294076 C140.254964,273.362076 136.255964,274.077076 132.106964,273.973076 C128.571964,273.885076 121.661964,274.975076 118.567964,273.095076 C116.139964,271.620076 116.142964,268.352076 118.192964,266.551076 C120.223964,264.766076 124.206964,264.672076 126.742964,264.121076 C134.847964,262.362076 142.926964,261.352076 151.089964,259.940076 C155.790964,259.127076 159.734964,258.857076 164.445964,259.086076 C169.020964,259.310076 173.686964,258.002076 178.312964,257.780076 C188.115964,257.312076 197.975964,256.848076 207.783964,256.695076 C226.791964,256.399076 245.580964,254.948076 264.606964,254.994076 L264.606964,254.994076 Z M274.525964,440.919076 C272.996964,441.509076 273.385964,448.814076 273.246964,450.273076 C272.833964,454.642076 272.380964,459.006076 271.991964,463.377076 C271.093964,473.468076 270.417964,483.581076 269.865964,493.696076 C269.314964,503.812076 268.660964,513.960076 268.693964,524.094076 C268.708964,528.408076 268.901964,532.718076 268.814964,537.032076 C268.749964,540.257076 267.330964,546.291076 270.082964,548.582076 C271.928964,550.119076 275.544964,549.427076 277.701964,549.285076 C281.963964,549.006076 286.236964,548.721076 290.509964,548.689076 C295.445964,548.651076 300.347964,549.182076 305.286964,549.053076 C307.181964,549.004076 309.297964,548.688076 311.173964,549.045076 C312.532964,549.306076 314.015964,550.478076 315.290964,550.529076 C316.228964,550.567076 317.441964,549.636076 318.478964,549.453076 C320.092964,549.168076 321.986964,549.498076 323.628964,549.478076 C324.796964,549.464076 327.612964,548.936076 328.686964,549.626076 C329.733964,550.298076 329.330964,551.829076 330.287964,552.168076 C330.651964,552.297076 332.729964,549.829076 333.085964,549.673076 C334.676964,548.979076 336.996964,549.519076 338.673964,549.538076 C343.501964,549.592076 348.332964,549.287076 353.162964,549.333076 C357.870964,549.377076 362.411964,549.925076 366.930964,550.472076 C369.918964,550.834076 373.349964,549.927076 376.521964,549.661076 C381.592964,549.236076 386.685964,549.315076 391.769964,549.417076 C394.321964,549.468076 396.875964,549.508076 399.427964,549.571076 C400.031964,549.586076 401.227964,549.351076 401.810964,549.525076 C404.152964,550.228076 402.666964,550.269076 404.321964,551.338076 C402.150964,549.935076 409.179964,549.021076 409.584964,549.018076 C412.774964,548.994076 415.697964,550.561076 418.352964,550.254076 C421.228964,549.922076 424.164964,548.145076 427.328964,548.696076 C428.807964,548.954076 430.035964,550.608076 431.134964,550.798076 C432.910964,551.105076 433.517964,549.822076 435.146964,549.180076 C438.396964,547.898076 442.167964,549.015076 445.560964,548.793076 C450.323964,548.482076 454.909964,548.471076 459.690964,548.407076 C468.413964,548.292076 477.135964,548.148076 485.859964,548.233076 C493.892964,548.311076 500.346964,551.532076 508.335964,551.357076 C512.525964,551.266076 516.786964,550.900076 520.970964,551.001076 C524.563964,551.086076 526.398964,553.764076 523.682964,556.910076 C521.846964,559.037076 518.474964,559.262076 515.885964,559.651076 C512.042964,560.230076 508.268964,561.062076 504.438964,561.704076 C495.331964,563.230076 485.799964,563.183076 476.587964,563.460076 C439.018964,564.591076 401.441964,567.931076 363.849964,568.284076 C347.343964,568.439076 330.660964,569.829076 314.206964,569.181076 C305.027964,568.819076 296.054964,570.792076 286.804964,569.374076 C282.904964,568.776076 279.070964,568.413076 275.138964,568.132076 C274.626964,568.096076 271.623964,567.515076 271.056964,567.773076 C269.381964,568.536076 270.316964,567.839076 269.613964,569.776076 C268.460964,572.958076 268.941964,578.033076 268.947964,581.421076 C268.959964,586.820076 269.222964,592.230076 269.403964,597.626076 C269.578964,602.796076 269.865964,607.962076 270.173964,613.127076 C270.300964,615.264076 269.459964,623.299076 271.107964,624.892076 C272.382964,626.126076 278.347964,625.542076 279.961964,625.197076 C281.897964,624.783076 282.078964,624.681076 284.174964,624.927076 C285.720964,625.109076 286.270964,625.064076 287.818964,624.897076 C292.251964,624.418076 297.328964,624.333076 301.779964,625.134076 C305.233964,625.755076 308.861964,624.116076 310.183964,627.749076 C312.418964,625.013076 312.367964,626.589076 314.823964,627.139076 C317.353964,627.704076 316.578964,626.070076 318.722964,625.845076 C320.233964,625.687076 321.581964,626.881076 323.215964,626.892076 C325.914964,626.909076 328.342964,626.196076 331.228964,626.556076 C343.970964,628.146076 356.892964,629.575076 369.741964,629.693076 C375.072964,629.743076 380.340964,629.825076 385.642964,629.987076 C388.347964,630.069076 390.905964,630.351076 393.565964,630.670076 C396.072964,630.972076 398.042964,630.369076 400.648964,630.237076 C406.411964,629.943076 412.457964,630.821076 418.221964,631.136076 C420.931964,631.284076 424.325964,630.818076 426.924964,631.174076 C429.536964,631.531076 429.733964,633.515076 431.810964,634.665076 C432.138964,628.228076 445.599964,632.351076 449.103964,632.359076 C450.479964,632.363076 452.160964,631.777076 453.821964,631.883076 C456.570964,632.060076 459.338964,632.105076 462.091964,632.202076 C466.481964,632.356076 470.724964,632.622076 474.894964,632.090076 C480.342964,631.396076 486.259964,632.136076 491.762964,632.102076 C497.754964,632.064076 503.747964,631.983076 509.736964,631.787076 C515.804964,631.588076 521.861964,631.217076 527.928964,631.022076 C533.198964,630.852076 538.789964,631.277076 543.984964,630.891076 C545.331964,630.791076 546.619964,629.804076 547.823964,629.753076 C549.492964,629.682076 551.361964,630.399076 553.287964,630.234076 C559.358964,629.716076 565.015964,629.631076 571.151964,629.652076 C581.677964,629.688076 592.613964,627.744076 602.705964,624.956076 C607.357964,623.671076 612.192964,623.601076 616.811964,622.223076 C622.143964,620.631076 627.026964,617.856076 631.933964,615.288076 C635.776964,613.276076 641.179964,612.340076 639.614964,607.253076 C637.944964,601.822076 635.277964,596.556076 633.289964,591.221076 C631.561964,586.583076 630.459964,582.064076 626.713964,578.575076 C623.011964,575.127076 618.282964,572.812076 614.338964,569.633076 C605.742964,562.705076 596.769964,558.562076 586.590964,554.459076 C576.330964,550.323076 566.970964,544.224076 556.192964,541.474076 C546.184964,538.920076 536.542964,535.496076 526.736964,532.879076 C516.007964,530.016076 504.943964,528.978076 494.122964,526.433076 C483.751964,523.993076 473.569964,520.405076 463.061964,518.547076 C451.692964,516.538076 440.218964,515.504076 428.891964,513.052076 C419.288964,510.974076 410.126964,506.903076 400.473964,505.279076 C397.653964,504.804076 394.604964,504.514076 391.875964,503.628076 C389.323964,502.799076 387.497964,501.121076 384.917964,500.441076 C378.961964,498.872076 373.785964,496.733076 368.146964,494.183076 C365.775964,493.110076 364.461964,491.792076 362.406964,490.462076 C359.955964,488.877076 356.816964,488.314076 354.065964,487.440076 C348.766964,485.757076 343.488964,484.102076 338.734964,481.147076 C333.806964,478.085076 329.279964,474.623076 324.743964,471.045076 C322.822964,469.530076 320.768964,468.009076 318.799964,466.592076 C316.373964,464.847076 313.884964,464.531076 311.165964,463.391076 C299.372964,458.443076 294.208964,446.827076 287.784964,436.720076 C287.181964,444.905076 279.350964,448.703076 274.525964,440.919076 L274.525964,440.919076 Z M442.128964,297.544076 C442.941964,293.878076 444.100964,288.617076 439.531964,288.41191 C439.237964,288.399076 436.210964,289.155076 435.898964,289.356076 C434.341964,290.357076 433.752964,293.696076 433.158964,295.317076 C432.635964,296.747076 432.272964,298.651076 431.110964,299.731076 C429.964964,300.798076 428.767964,300.824076 427.697964,302.102076 C424.442964,305.991076 422.017964,312.671076 420.048964,317.366076 C422.719964,316.720076 420.778964,318.512076 421.914964,319.533076 C423.689964,321.127076 423.136964,320.839076 425.659964,321.086076 C430.055964,321.516076 432.061964,320.345076 435.498964,317.607076 C438.413964,315.285076 439.349964,313.764076 441.027964,310.412076 C443.426964,305.624076 442.256964,302.573076 442.123964,297.541076 C443.326964,298.648076 444.529964,299.755076 445.732964,300.863076 C445.359964,299.412076 444.985964,297.961076 444.612964,296.511076 L442.128964,297.544076 Z M315.676964,8.07007582 C318.012964,0.0740758207 322.376964,-0.516924179 328.243964,5.22807582 C329.173964,3.17307582 330.274964,-0.0179241793 332.979964,5.68434189e-13 C334.896964,0.0130758207 335.235964,1.56307582 336.521964,2.60907582 C338.073964,3.87407582 339.283964,4.31807582 341.253964,4.65507582 C345.552964,5.39007582 349.547964,5.13807582 353.593964,7.06007582 C357.279964,8.81007582 359.032964,11.3660758 361.870964,13.9870758 C364.525964,16.4390758 366.462964,14.8510758 369.493964,16.0920758 C372.863964,17.4720758 374.370964,21.5560758 375.023964,24.8650758 C375.820964,28.9130758 374.990964,30.2030758 377.804964,33.1420758 C380.458964,35.9150758 381.866964,39.4460758 382.186964,43.2560758 C382.487964,46.8590758 381.692964,51.1350758 379.612964,54.1730758 C377.271964,57.5950758 374.845964,56.6490758 377.893964,60.7140758 C379.427964,62.7610758 379.600964,67.1180758 381.445964,68.4300758 C384.673964,70.7230758 388.841964,67.0240758 391.692964,66.0930758 C395.566964,64.8280758 394.702964,66.9440758 396.401964,69.4960758 C398.912964,73.2660758 400.405964,69.3760758 403.830964,70.1290758 C405.089964,70.4060758 405.458964,71.7650758 405.901964,71.9280758 C407.465964,72.5080758 405.804964,72.2930758 407.591964,71.6480758 C408.779964,71.2200758 407.965964,68.9160758 410.358964,70.2310758 C412.021964,71.1460758 410.769964,72.7730758 411.525964,73.9510758 C413.010964,76.2670758 415.215964,74.9170758 416.313964,77.9060758 C417.405964,80.8830758 418.884964,84.8310758 419.491964,88.0860758 C420.231964,92.0400758 418.494964,95.4810758 418.748964,99.2220758 C419.014964,103.129076 422.885964,105.762076 425.293964,108.501076 C437.102964,121.925076 442.102964,139.581076 445.954964,156.647076 C449.535964,172.508076 443.233964,190.464076 430.859964,201.214076 C424.586964,206.664076 416.749964,209.001076 410.725964,214.999076 C408.051964,217.661076 408.086964,218.504076 411.272964,220.686076 C413.882964,222.473076 416.276964,224.750076 419.042964,226.162076 C426.153964,229.792076 433.082964,232.385076 441.022964,233.909076 C445.026964,234.678076 449.195964,234.370076 453.246964,234.226076 C457.463964,234.076076 462.223964,234.674076 466.345964,234.159076 C469.986964,233.704076 472.866964,230.765076 476.678964,231.077076 C478.172964,231.199076 479.088964,231.770076 480.609964,231.635076 C482.606964,231.459076 484.286964,230.402076 486.410964,230.456076 C489.639964,230.538076 492.834964,230.592076 495.956964,230.710076 C499.502964,230.842076 503.670964,229.871076 507.199964,230.484076 C510.548964,231.065076 514.531964,234.077076 517.444964,235.833076 C521.035964,237.998076 525.346964,240.502076 528.561964,243.147076 C531.598964,245.647076 533.740964,249.625076 536.109964,252.729076 C538.614964,256.013076 541.513964,258.947076 544.032964,262.216076 C553.950964,275.085076 564.397964,290.936076 567.498964,307.138076 C568.283964,311.238076 568.240964,315.287076 567.649964,319.405076 C567.120964,323.083076 563.669964,324.481076 563.564964,328.435076 C563.351964,336.437076 567.185964,345.714076 569.411964,353.298076 C571.756964,361.283076 574.693964,369.039076 578.330964,376.548076 C579.738964,379.456076 581.523964,381.860076 582.409964,384.872076 C583.491964,388.551076 585.139964,392.041076 586.344964,395.752076 C596.770964,427.851076 612.932964,457.732076 624.713964,489.344076 C631.044964,506.331076 637.739964,523.172076 644.642964,539.942076 C648.039964,548.198076 651.719964,556.201076 655.412964,564.331076 C655.898964,565.399076 656.243964,567.458076 657.089964,568.193076 C658.518964,569.435076 657.258964,568.728076 659.259964,568.517076 C660.985964,568.335076 662.777964,567.548076 664.519964,567.256076 C668.723964,566.550076 673.029964,566.429076 677.269964,566.011076 C682.141964,565.529076 686.430964,565.278076 691.305964,565.514076 C695.842964,565.734076 700.308964,564.386076 704.824964,564.087076 C714.505964,563.446076 724.052964,563.784076 733.726964,563.965076 C741.264964,564.106076 750.916964,563.210076 757.891964,566.710076 C764.879964,570.216076 762.468964,578.290076 756.542964,581.365076 C749.441964,585.050076 741.083964,585.576076 734.026964,589.331076 C739.322964,590.961076 745.044964,590.541076 750.439964,591.813076 C753.916964,592.633076 759.291964,593.239076 761.912964,595.777076 C764.450964,598.236076 764.193964,602.471076 762.518964,605.355076 C760.432964,608.945076 756.420964,609.565076 752.809964,610.810076 C754.436964,612.966076 756.965964,612.798076 758.429964,615.639076 C760.374964,619.418076 759.158964,623.455076 756.776964,626.722076 C751.607964,633.815076 741.371964,634.414076 733.380964,635.425076 C725.528964,636.419076 717.282964,636.657076 709.377964,636.119076 C704.873964,635.812076 700.429964,635.587076 695.981964,634.953076 C690.864964,634.223076 691.356964,637.808076 689.533964,641.477076 C687.769964,645.029076 685.223964,646.551076 681.283964,646.332076 C677.029964,646.094076 672.312964,645.805076 668.098964,645.092076 C664.063964,644.410076 660.569964,642.327076 656.699964,641.459076 C653.214964,640.676076 650.447964,639.412076 647.136964,637.717076 C643.336964,635.772076 641.315964,632.517076 637.989964,630.282076 C634.575964,627.988076 631.003964,631.592076 627.646964,633.386076 C619.487964,637.745076 610.533964,639.673076 601.609964,641.816076 C592.509964,644.002076 583.647964,646.799076 574.392964,648.312076 C570.085964,649.015076 565.994964,648.921076 561.707964,649.378076 C556.767964,649.905076 552.485964,651.792076 547.440964,651.802076 C529.624964,651.839076 511.693964,655.055076 493.869964,655.650076 C476.224964,656.239076 458.293964,654.779076 440.667964,655.961076 C431.655964,656.566076 422.933964,655.353076 413.971964,655.819076 C404.726964,656.301076 395.154964,655.814076 385.928964,655.108076 C366.782964,653.643076 348.231964,654.024076 329.286964,653.075076 C319.431964,652.581076 309.383964,651.653076 299.652964,650.088076 C290.111964,648.554076 279.314964,650.321076 272.566964,642.021076 C271.824964,645.275076 271.621964,648.649076 269.243964,651.215076 C266.742964,653.913076 262.713964,655.002076 259.365964,656.231076 C250.816964,659.368076 242.174964,662.348076 233.566964,665.325076 C225.407964,668.148076 217.195964,671.205076 208.971964,673.792076 C200.327964,676.511076 192.104964,679.807076 183.606964,682.999076 C175.906964,685.891076 167.928964,688.176076 160.508964,691.663076 C157.447964,693.101076 154.241964,693.220076 151.315964,694.563076 C147.701964,696.221076 144.344964,697.812076 140.472964,699.008076 C137.151964,700.034076 134.113964,700.772076 130.899964,702.106076 C127.717964,703.427076 123.209964,705.721076 119.879964,703.964076 C117.538964,702.730076 116.619964,699.894076 115.899964,697.526076 C114.997964,694.565076 115.766964,689.427076 112.260964,689.560076 C108.796964,689.691076 103.906964,693.025076 100.510964,694.156076 C96.4479644,695.510076 92.2889644,697.774076 88.1039644,698.541076 C83.9139644,699.308076 80.6159644,699.078076 78.4179644,695.182076 C75.9439644,690.798076 76.3559644,686.152076 77.0959644,681.383076 C69.9639644,681.366076 63.3579644,682.036076 56.1639644,682.280076 C52.2009644,682.415076 48.3469644,682.591076 44.3949644,682.154076 C40.8279644,681.761076 35.5249644,682.879076 32.4309644,681.247076 C26.1419644,677.927076 27.0779644,668.537076 30.2499644,663.402076 C32.0119644,660.551076 34.7729644,658.629076 37.5789644,656.899076 C41.0979644,654.731076 43.6779644,652.272076 46.7599644,649.510076 C44.7499644,648.125076 42.1359644,648.798076 40.1649644,647.148076 C38.6339644,645.868076 37.6809644,643.732076 36.9819644,641.910076 C35.6789644,638.513076 37.3579644,630.720076 34.4179644,628.795076 C32.8479644,627.768076 30.0669644,628.203076 28.2729644,627.379076 C25.8219644,626.254076 24.1009644,624.179076 23.0449644,621.710076 C20.6669644,616.144076 22.7049644,610.350076 25.0249644,605.150076 C16.2349644,603.651076 3.34896444,603.055076 0.834964437,592.876076 C0.030964437,589.625076 -0.079035563,585.861076 1.02696444,582.664076 C2.66896444,577.920076 6.49296444,577.664076 10.7329644,576.273076 C28.4599644,570.455076 45.0629644,561.007076 64.1619644,559.606076 C74.3919644,558.856076 84.6959644,558.461076 94.9139644,557.400076 C105.176964,556.334076 115.070964,554.453076 125.401964,555.730076 C129.796964,556.273076 134.884964,555.789076 139.088964,556.584076 C143.153964,557.351076 143.668964,562.146076 140.561964,564.914076 C137.541964,567.603076 133.161964,565.883076 129.565964,566.185076 C124.469964,566.612076 120.176964,569.023076 115.418964,570.541076 C103.743964,574.267076 90.9509644,576.911076 78.7759644,578.249076 C72.2399644,578.967076 66.0669644,579.063076 59.6689644,580.806076 C53.8569644,582.390076 48.1049644,584.189076 42.2729644,585.705076 C48.6449644,587.409076 60.9879644,587.219076 63.1089644,594.982076 C64.1059644,598.635076 62.9999644,603.690076 59.7879644,605.949076 C57.9229644,607.261076 53.8489644,606.662076 52.6749644,608.622076 C57.6919644,609.238076 63.4139644,605.378076 66.1679644,610.898076 C69.3109644,617.197076 66.2359644,622.169076 62.2149644,626.846076 C65.7679644,626.257076 69.4209644,626.928076 73.0089644,626.473076 C75.7779644,626.121076 78.3639644,625.288076 80.9949644,626.155076 C82.3149644,626.590076 82.1409644,627.766076 83.8079644,627.773076 C85.0199644,627.778076 86.8349644,626.460076 87.8869644,625.952076 C91.8849644,624.022076 95.9419644,622.452076 100.073964,620.841076 C105.101964,618.881076 109.879964,617.374076 114.897964,616.144076 C121.826964,614.444076 128.781964,610.081076 135.541964,607.614076 C138.405964,606.569076 142.087964,605.498076 143.510964,602.516076 C144.978964,599.440076 143.853964,594.936076 143.763964,591.683076 C143.508964,582.531076 143.617964,573.366076 143.673964,564.212076 C143.720964,556.513076 143.905964,548.959076 144.590964,541.290076 C145.409964,532.113076 144.676964,522.969076 145.027964,513.778076 C145.350964,505.338076 144.593964,496.918076 144.823964,488.481076 C145.080964,479.082076 145.550964,469.717076 145.647964,460.307076 C145.820964,443.404076 146.389964,426.521076 146.716964,409.622076 C147.052964,392.263076 148.892964,374.897076 152.602964,357.923076 C154.264964,350.320076 156.434964,342.576076 159.327964,335.352076 C160.243964,333.064076 161.203964,332.934076 159.001964,331.626076 C157.695964,330.851076 156.082964,331.717076 154.801964,331.889076 C152.107964,332.249076 149.702964,332.408076 146.960964,332.247076 C131.242964,331.326076 114.968964,332.071076 99.3079644,333.484076 C91.1629644,334.219076 82.9739644,334.919076 74.7959644,335.211076 C66.6399644,335.501076 58.4839644,336.766076 50.3269644,336.168076 C36.6599644,335.167076 21.0719644,336.731076 9.35896444,327.928076 C-3.14003556,318.536076 -1.96303556,301.895076 6.10796444,289.872076 C15.0149644,276.603076 29.8919644,269.043076 42.3149644,259.745076 C54.5199644,250.610076 68.8659644,243.910076 82.1769644,236.553076 C110.671964,220.802076 141.291964,206.223076 171.971964,195.338076 C203.185964,184.265076 234.504964,171.535076 268.500964,173.699076 C285.723964,174.795076 304.992964,175.435076 320.185964,184.586076 C328.301964,189.476076 336.158964,194.574076 343.131964,201.033076 C346.416964,204.076076 349.311964,207.826076 352.809964,210.606076 C356.060964,213.191076 359.249964,211.421076 362.964964,210.471076 C360.332964,201.978076 357.700964,193.484076 355.068964,184.991076 C351.434964,187.811076 346.433964,188.883076 341.707964,187.886076 C335.970964,186.675076 336.435964,184.224076 336.948964,179.315076 C337.188964,177.038076 337.809964,177.427076 335.833964,175.989076 C334.213964,174.809076 331.252964,174.423076 329.387964,173.401076 C324.734964,170.852076 320.701964,167.109076 318.986964,161.970076 C317.281964,156.860076 318.489964,152.120076 319.605964,147.048076 C320.946964,140.949076 317.630964,143.499076 313.838964,140.663076 C312.170964,139.415076 311.572964,138.331076 311.859964,136.270076 C312.093964,134.597076 315.400964,132.188076 315.252964,130.541076 C315.073964,128.556076 313.968964,128.778076 312.398964,127.581076 C310.666964,126.260076 309.419964,124.640076 308.655964,122.561076 C307.037964,118.158076 310.335964,115.438076 311.717964,111.378076 C312.387964,109.410076 313.046964,107.727076 314.362964,106.071076 C316.694964,103.137076 317.599964,103.201076 320.852964,103.227076 C323.591964,103.248076 323.561964,103.024076 325.613964,100.547076 C326.409964,99.5860758 327.203964,98.6310758 327.891964,97.5880758 C329.073964,95.7970758 329.401964,96.0400758 328.137964,94.6410758 C324.285964,90.3770758 322.528964,97.0340758 319.107964,96.6320758 C315.150964,96.1670758 314.440964,89.8920758 311.959964,87.7960758 C310.223964,86.3290758 308.242964,86.8880758 306.344964,85.8970758 C304.022964,84.6860758 303.556964,82.3770758 302.049964,80.4420758 C299.603964,77.3020758 296.052964,76.7480758 294.420964,72.7640758 C293.494964,70.5030758 293.367964,68.1750758 293.179964,65.7780758 C292.910964,62.3650758 292.017964,59.6670758 291.024964,56.4180758 C290.012964,53.1040758 290.261964,50.7090758 291.907964,47.6600758 C293.603964,44.5180758 293.803964,43.4610758 293.376964,39.9170758 C293.051964,37.2190758 292.951964,34.8240758 294.359964,32.4170758 C295.877964,29.8230758 296.193964,28.4690758 296.688964,25.5140758 C297.119964,22.9230758 297.942964,21.0570758 300.447964,19.9820758 C302.154964,19.2490758 304.002964,20.0650758 305.208964,18.3960758 C306.411964,16.7300758 306.090964,14.0610758 307.326964,12.2200758 C309.342964,9.21707582 312.374964,8.74707582 315.676964,8.07007582 L315.676964,8.07007582 Z" id="react-path-123"></path><path d="M415.482464,141.516176 C414.310464,138.763176 410.389464,126.065176 416.838464,125.999992 C421.955464,125.948176 420.338464,136.967176 420.401464,139.672176 C420.518464,144.735176 425.815464,145.454176 427.796464,150.047176 C430.108464,155.402176 428.513464,161.796176 424.910464,166.161176 C422.159464,169.492176 416.865464,173.309176 413.086464,169.231176 C408.884464,164.693176 412.922464,162.146176 415.864464,159.320176 C420.125464,155.225176 411.972464,154.035176 409.855464,150.713176 C406.258464,145.067176 410.207464,142.130176 415.482464,141.516176" id="react-path-124"></path><path d="M397.006864,144.380476 C396.418864,146.994476 396.597864,152.963476 393.757864,154.372476 C388.994864,156.735476 387.894864,145.339476 387.931864,142.823476 C387.971864,140.147476 388.897864,133.824476 392.843864,134.643476 C397.271864,135.562476 394.759864,143.761476 397.006864,144.380476" id="react-path-125"></path><path d="M414.823264,177.480076 C421.865264,177.699076 421.469264,186.097076 414.716264,186.390076 C408.432264,186.663076 408.587264,177.287076 414.823264,177.480076" id="react-path-126"></path><path d="M429.799864,302.654376 C429.141864,305.452376 427.607864,308.090376 425.308864,309.853376 C425.850864,308.747376 428.203864,302.156376 429.799864,302.654376" id="react-path-127"></path></g></g></g></svg>