<svg xmlns="http://www.w3.org/2000/svg" viewBox="0 0 1024 768" version="1.1"><g stroke="none" stroke-width="1" fill="#FFFFFF00" fill-rule="evenodd"><g transform="translate(-60.000000, -38.000000)"><rect x="0" y="0" width="1024" height="768"></rect><path d="M547.233018,217.498908 C562.08909,227.874746 581.986677,221.791798 596.41932,213.98195 C597.285999,220.031515 608.591569,219.457686 612.641178,222.373747 C619.025055,226.971597 626.177411,235.339936 631.185592,241.436417 C642.751526,255.51688 649.899378,275.193979 656.373346,292.065091 C663.041011,309.437852 671.274828,324.340546 688.415618,334 C693.953537,337.120872 699.317034,341.306228 705,344.233116 C711.794694,347.732931 719.667126,349.444376 727.140208,348.883178 C736.044842,348.214613 743.725069,347.935819 752.454025,346.258542 C761.781187,344.465778 771.736287,342.588203 780.976062,342.870606 C787.832918,343.080829 794.754641,341.684151 801.438522,342.00084 C805.542185,342.194823 809.608911,341.847458 813.705367,342.018885 C815.328814,342.086553 816.597301,342.073922 818.271199,342.224597 C822.240626,342.581887 822.30369,342.152417 822.886582,345.669375 C823.57488,349.826928 820.916283,356.577538 820.654117,360.845166 C820.350509,365.804816 821.191062,370.701309 821.009978,375.617652 C820.806371,381.142109 819.214456,380.634144 814.38826,383.16675 C809.707111,385.622666 805.257496,387.989259 800.417786,390.155554 C786.556323,396.360304 771.920074,402.433327 756.629761,404.143085 C738.28535,406.194794 719.17336,404.019477 700.945166,403.230011 C690.787361,402.790617 680.261081,401.048379 670.490669,398.554569 C662.80317,396.592182 650.343529,392.60786 644.338036,387.448813 C651.210208,387.140245 648.800263,381.03835 644.788493,378.340632 C637.478476,373.42429 634.204555,375.784567 635.95413,384.029298 C627.350401,381.211582 619.655694,374.383378 612.330363,368.916665 C602.912207,361.889065 588.935427,351.328267 588.377761,338.684181 C587.748923,324.426878 570.954985,295.649717 572.702758,310.654081 C574.273052,324.139061 580.170435,342.367643 572.702758,355 C572.377528,347.427443 558.880936,334.983165 552.526789,332.850253 C541.227525,329.05811 527.811114,329.644571 516.039771,330.368173 C494.231345,331.707107 472.356252,335.995486 451.432524,341.774376 C430.324109,347.604694 407.729185,355.178154 390.198299,369.019521 C388.038808,370.72567 386.021662,373.553311 383.823431,375.023071 C383.056754,375.535547 380.760324,375.244121 379.668416,375.811635 C376.762067,377.320191 381.171141,377.574625 376.392693,377.928306 C375.358443,378.004094 372.643989,376.895233 371.940376,376.575838 C360.38345,371.329273 361.039316,357.300238 361.728515,346.551773 C363.31052,321.849159 371.289015,296.924592 381.0324,274.377446 C389.749644,254.208622 401.639907,232.588083 418.876194,218.466117 C426.416844,212.289335 433.905242,205.043392 442.590954,200.640428 C445.890101,198.969467 451.823521,196.352951 450.522601,191.355406 C449.134292,186.020421 442.826092,188.61799 438.391794,188.404157 C415.355422,187.295296 396.78308,177.596143 379.342285,162.851627 C361.469052,147.741701 342.68681,142.638218 320.5,136.926996 C314.111619,135.283103 270.185741,124.728093 263.882946,124.78313 C256.908971,124.844482 249.962924,125.071849 242.996156,125.203577 C238.854654,125.282072 234.708647,125.27305 230.562641,125.605076 C227.224755,125.873044 223.547224,127.252579 220.22195,126.895289 C217.104787,126.560556 217.348935,127.485359 215.81648,125.169291 C214.738086,123.539834 215.029082,120.165431 214.717365,118.180488 C214.444388,116.447272 214.171411,114.713154 213.899335,112.979035 C213.038963,107.508713 209.018354,104.711407 213.450851,102.5 C219.961757,99.2510094 233.377374,96.3046488 240.5,95 C247.319018,93.7521927 285.922368,84.5127572 298.827961,82 C305.255982,80.7485838 383.096354,77.8495976 386,77.8297482 C413.965272,77.6375696 473.602896,93.0402844 487,105.351441 C500.397104,117.662598 500.411616,126.591232 506.200889,131.571634 C512.671254,137.136692 521.42994,144.057827 525.981357,151.272192 C529.05888,156.148836 530.239978,169.052769 536.531961,170.951998 C531.961625,185.579223 533.609396,207.982912 547.233018,217.498908 Z" fill="#714dd2"></path><g transform="translate(60.000000, 38.000000)" fill="#000000"><path d="M74.2935193,134.327231 C76.0678234,134.736631 76.926619,134.031452 77.2344891,132.198167 C76.0723245,133.039512 75.1829219,133.683371 74.2935193,134.327231 M97.5224098,568.621052 C95.9488514,568.707621 97.5062061,572.694318 97.7069518,572.678086 C97.6448377,571.326343 97.5836238,569.973697 97.5224098,568.621052 M526.551123,75.4826518 C528.60179,75.8271255 540.14692,78.9841996 536.259835,72.5447063 C534.171359,69.0846396 529.9593,75.4853571 526.551123,75.4826518 M488.404935,153.330093 C482.531998,156.580049 500.651324,168.054088 503.243915,168.772794 C505.776192,169.475267 524.871341,172.006518 525.099993,167.801594 C518.435775,166.327211 511.74185,167.217252 505.210863,165.2478 C497.221543,162.837386 494.136541,158.868725 488.404935,153.330093 M773.990479,330.521215 C774.341559,325.288281 774.553107,320.206844 775.616249,315.055971 C775.836799,313.987381 777.636309,309.056538 777.236618,308.415384 C776.609175,307.409918 771.821885,306.570376 770.83346,306.233116 C770.072787,316.48256 769.20949,326.698639 767.785366,336.885862 C771.129627,335.731605 770.257329,331.131709 773.990479,330.521215 M149.368818,90.4789792 C149.368818,84.8709119 147.874478,76.5259922 146.756423,71.0829476 C145.841815,66.6336464 142.583973,62.3051815 140.721449,57.8297291 C140.140816,60.9101533 138.105453,65.6155554 138.756301,68.7572995 C139.606995,72.8531094 141.546937,72.1803938 141.546937,77.2212519 C141.546937,80.2863461 141.040121,83.7770727 141.598248,86.7916682 C142.693798,92.729781 144.451898,91.780224 149.368818,90.4789792 M580.970318,47.2069548 C574.246686,43.4817697 562.752868,50.5669257 556.725096,53.8249973 C549.569366,57.6935628 542.370426,68.0926998 539.467265,75.645871 C542.311013,75.3302538 544.71546,75.2770498 546.782331,73.7458553 C547.846373,72.957714 548.966228,70.7312598 549.970857,69.6807053 C552.562548,66.9700042 555.827591,64.4459681 558.671339,61.9796448 C565.448982,56.1019502 572.778452,50.9005782 580.970318,47.2069548 M620.71617,141.101278 C626.301042,140.118356 632.738408,137.582597 634.336272,131.292796 C635.881024,125.214008 631.425009,122.270652 625.979669,121.514974 C613.485723,119.778178 605.036399,137.90633 620.71617,141.101278 M577.120141,122.341892 C583.279343,126.642402 590.012877,126.098638 596.111766,121.293141 C600.996279,117.446217 605.763764,110.867852 600.228404,106.165156 C591.335278,98.6092791 578.589275,114.070015 577.120141,122.341892 M842.809353,598.24218 C838.952874,598.478442 832.736058,602.508423 829.353988,604.494107 C825.112222,606.983876 820.647205,609.609811 816.54317,611.906603 C808.027231,616.673325 798.458952,622.023488 789.016701,625.59898 C779.758993,629.103233 770.422066,633.511955 760.968113,637.65646 C756.923492,639.429327 751.263003,641.50158 746.677358,641.020038 C742.480602,640.579076 738.073199,636.264137 734.313042,634.374041 C728.474312,631.438801 724.678148,627.62885 720.012385,622.931564 C717.980622,620.886364 712.806244,612.289852 710.062419,611.967923 C707.718285,611.692885 701.309725,616.821214 699.479609,617.921366 C696.650264,619.624797 692.380592,622.415755 689.69258,624.55564 C687.031574,626.672981 686.88394,625.116537 686.698498,627.898477 C686.571569,629.789475 690.908757,633.500232 692.245561,635.024213 C696.738484,640.144426 701.428553,645.155526 705.671219,650.496671 C709.316149,655.084844 712.707221,660.010276 715.838134,664.965467 C718.873626,669.771866 724.499007,675.333944 725.723286,680.953734 C732.785394,674.039913 739.722374,677.411607 748.599296,675.328533 C752.443171,674.425868 755.857649,672.295001 759.457569,671.032532 C762.458852,669.980174 765.682487,669.6357 768.77109,668.953065 C782.473111,665.927648 795.766438,660.007571 808.581757,654.713317 C811.574939,653.477 814.058605,651.112576 816.950963,649.68328 C820.050369,648.152086 823.43424,647.640786 826.558852,646.23133 C834.596782,642.607142 842.747239,638.796289 850.695149,634.916903 C859.220991,630.755264 868.205937,627.156326 876.571542,622.763836 C881.626193,620.109946 891.431227,615.353143 893.766358,609.734255 C888.182387,610.735212 883.495019,613.916634 878.324241,615.52538 C869.204264,618.362328 869.650766,609.777539 869.650766,603.235245 C866.599071,603.235245 860.471375,607.612405 857.55021,608.970461 C853.777451,610.724391 848.829024,615.361259 844.64037,615.673269 C834.275409,616.444277 839.28415,602.809612 842.809353,598.24218 M476.662661,132.838419 C470.872542,131.090801 469.714879,120.024359 467.26272,115.447909 C463.646596,108.697308 456.716818,103.229915 451.187759,97.9545988 C446.101601,93.1031111 440.657161,88.9982835 434.951661,84.9241159 C429.10753,80.7498526 425.063809,75.2590145 419.689585,70.6564135 C397.243873,51.435324 369.83533,44.9281984 340.868533,43.9236338 C311.768505,42.9145604 282.399316,46.1284456 253.160657,47.9968997 C249.434709,48.2349652 246.10485,48.3395698 242.387904,48.968099 C241.4949,48.6984717 240.602797,48.4288444 239.709794,48.1592171 L237.642023,49.6480287 C236.208896,49.8590413 234.169932,50.0781699 232.850231,50.3342707 C226.03658,51.6553543 219.226529,53.4128914 212.416478,54.9531035 C197.97989,58.2165857 184.02131,61.2167529 169.471297,64.2656154 C166.001906,64.9924368 157.563384,65.4595503 154.842065,67.660755 C152.731084,69.3686951 153.519663,70.0414107 154.012976,73.178646 C154.466679,76.0642893 154.919482,78.9490308 155.374086,81.8346741 C156.255387,87.4364291 155.872799,89.3698101 161.929379,88.7899761 C167.136165,88.2913009 172.211521,87.3678951 177.47682,87.1289277 C185.046644,86.7835523 192.741596,86.3443935 200.313221,86.4940862 C207.813729,86.6428772 216.454797,85.3984435 223.79777,87.3219051 C221.533754,82.5768255 220.20055,68.2036167 226.208519,78.1500683 C229.032462,82.8257122 228.333003,88.5555176 234.403985,90.2246819 C239.354213,91.5854431 244.739239,92.3798967 249.841601,93.6712221 C269.953982,98.7625789 290.917957,102.272243 308.075864,115.528166 C324.892595,128.520775 340.19788,143.477425 361.722683,148.219799 C366.886259,149.357825 373.163388,150.019719 378.599727,150.282133 C381.765748,150.434531 388.059081,148.517381 390.210571,151.376873 C395.434461,158.316846 376.085454,166.482314 372.207371,169.939676 C364.324275,176.968922 355.413146,182.462466 348.586891,190.665808 C341.452766,199.238874 335.32147,208.581144 330.066973,218.358966 C318.245481,240.355684 309.896979,263.680699 305.043974,288.162677 C302.746651,299.753044 300.150459,313.027904 302.21553,324.886996 C303.04912,329.671754 305.72993,334.436672 309.85647,337.163605 C311.197775,338.05094 312.879358,338.665041 314.429512,339.131253 C315.895045,339.611893 317.397487,339.895949 318.937738,339.98342 C319.108777,339.116825 319.437352,338.318764 319.921662,337.588336 C321.012711,337.022028 323.308234,337.313298 324.074308,336.801096 C326.270808,335.332123 328.285467,332.505095 330.444159,330.79986 C334.191712,327.840272 338.239034,325.027672 342.361973,322.637096 C352.759341,316.611513 364.08032,313.067582 375.206854,309.276568 C398.111671,301.473608 422.103935,295.0774 446.424774,292.69494 C459.259897,291.437882 473.684783,290.665071 486.40468,293.046628 C494.607348,294.583233 511.251239,301.788324 511.678836,311.745597 C519.11723,299.159683 514.401056,285.918188 512.804993,272.465679 C511.019886,257.429674 507.957388,243.228702 513.005738,228.389282 C516.43912,218.294941 522.346266,204.976795 532.387152,199.821413 C535.983472,197.975504 543.656819,199.089181 540.994013,205.189612 C540.925597,205.346519 535.917757,208.196993 535.205694,209.026615 C532.76974,211.863564 530.924319,215.571615 529.109506,218.827883 C514.678319,244.724728 527.519744,272.998622 528.46676,300.480767 C528.905159,313.168579 543.005071,323.683142 552.400511,330.697961 C559.702074,336.149121 567.425833,342.990801 576.006587,345.8025 C574.258389,337.561283 577.528834,335.203171 584.833998,340.116881 C588.842611,342.813154 591.250659,348.910878 584.383895,349.219282 C589.797728,353.872381 600.856747,357.477632 607.737914,359.268534 C615.80015,361.366938 624.051429,363.236294 632.449442,364.424818 C649.218461,366.797358 666.29355,366.043484 683.15439,366.216622 C700.514844,366.39427 715.000044,361.759205 730.949876,355.737228 C738.270343,352.972421 745.151511,349.77567 752.115497,346.144268 C754.476735,344.912459 759.833855,343.482262 761.13285,340.785989 C762.806332,337.312396 760.304662,328.303778 760.454096,324.33151 C760.611632,320.102239 763.749746,311.315455 762.791028,307.463122 C761.87552,303.774909 764.198049,306.365675 760.451395,304.521569 C759.438665,304.022894 757.167447,303.764088 755.926965,303.624314 C748.991785,302.842485 740.790918,303.485443 734.051983,304.353841 C726.330024,305.348486 719.175194,304.006662 711.668385,304.893997 C701.247611,306.125806 690.554976,307.971716 680.487983,310.955652 C664.602965,315.664661 649.902617,315.330107 635.707284,306.321489 C629.702917,302.510636 622.630006,298.599688 617.483534,293.38479 C610.566358,286.375382 605.496403,276.395565 601.590414,267.445562 C592.997957,247.756457 586.737031,227.085332 574.973152,208.920207 C569.931103,201.135283 562.919406,194.800394 556.443331,188.17153 C553.379934,185.037 551.619133,183.230768 547.423277,181.88173 C544.038506,180.794203 537.16364,180.461452 536.50199,175.846227 C522.080705,183.652793 502.202378,189.724367 487.355296,179.360399 C473.744196,169.859419 472.099522,147.443381 476.662661,132.838419 M475.914591,320.987771 C457.12101,323.061827 438.922465,324.617369 420.439456,328.896237 C401.792609,333.212077 382.340979,339.793147 364.641147,346.290354 C357.697866,348.838737 348.899262,350.636854 342.61313,354.582971 C337.948268,357.510997 338.530701,357.400982 341.878563,362.795331 C344.120974,366.408698 346.006003,370.452205 348.404149,373.920388 C358.15247,388.018559 371.506111,400.078744 382.710963,412.87026 C395.089682,427.001796 409.594686,440.993559 423.781017,453.376576 C437.426325,465.286166 450.878989,478.04612 465.386693,488.747348 C495.62638,511.05337 526.252255,533.050088 557.680213,553.64817 C575.134288,565.088844 592.170668,576.809065 609.672455,588.330897 C618.771727,594.321312 627.263361,600.93665 636.931563,605.940535 C646.906735,611.104033 659.093711,618.335275 667.305381,625.959686 C673.038787,615.823864 685.160947,609.26173 694.231413,602.704106 C696.042626,601.395647 697.989769,599.626387 699.725365,598.158316 C703.027317,595.365555 703.193855,595.829963 701.429453,592.634113 C699.488611,589.11994 694.196305,586.288403 691.424574,583.380216 C688.889597,580.720013 687.216116,578.02374 684.914291,575.178676 C677.258048,565.711963 667.395401,557.85129 658.825449,549.24035 C650.57417,540.949537 642.904423,532.531574 634.839487,523.703309 C630.845277,519.33156 626.307343,516.185307 622.476971,511.761255 C617.15856,505.616638 611.913965,499.324132 606.662169,493.117294 C597.238823,481.979613 589.32152,470.158395 580.152031,458.963902 C563.467631,438.594868 550.811649,415.566533 536.207623,393.716803 C527.245181,380.308481 516.162757,367.791101 508.015002,353.849837 C503.52748,346.171321 499.204695,338.518956 495.989163,330.12985 C494.157245,325.350503 494.599246,324.977173 490.128828,323.578538 C485.814145,322.229499 480.367905,321.293469 475.914591,320.987771 M242.432014,516.613644 C251.946281,515.694747 261.73331,518.853625 270.965812,519.243187 C279.942657,519.622829 289.125648,520.599439 298.118697,520.008784 C307.988545,519.361318 317.916006,519.380255 327.747145,519.685953 C338.404672,520.0169 348.557184,518.290925 358.829424,516.784979 C369.214189,515.261901 380.524365,510.539365 390.675977,507.518457 C396.681245,505.731162 402.45786,503.412728 408.491035,501.727332 C414.593524,500.022999 419.456432,495.974081 425.016998,492.865702 C428.810462,490.745656 436.854694,488.177433 435.170411,483.816505 C433.67337,479.940725 423.697298,474.122547 420.434055,471.307241 C410.783857,462.981259 401.001329,454.7184 392.061393,445.579026 C373.102175,426.195619 355.033259,406.860908 339.015911,384.984125 C335.210745,395.750279 331.009488,406.674243 322.597072,414.86947 C315.450344,421.832888 307.212568,427.80166 299.577029,434.142861 C284.749752,446.456442 266.910389,455.228798 249.199755,462.321168 C240.436259,465.830832 231.962629,468.082535 223.131618,471.186405 C218.951066,472.65628 214.499552,472.369519 210.580059,473.292023 C204.640507,474.689756 198.436293,477.579908 192.420223,479.277027 C183.940292,481.67121 175.366739,483.350293 166.50062,482.587401 C154.961792,481.59456 145.369207,475.937797 134.861114,471.845594 C135.407538,475.93419 132.267623,490.423726 134.594653,493.48341 C135.884647,495.178725 144.140427,495.875789 146.69791,496.446605 C157.133987,498.77586 168.242517,500.184415 178.668691,501.535256 C189.72591,502.967257 200.154785,508.44006 210.942842,510.98664 C221.124161,513.38984 232.370422,515.628919 242.432014,516.613644 M56.6323969,576.247266 C57.2967482,584.004236 58.266269,595.728965 64.5460993,601.309078 C66.9514471,595.471963 65.6173433,587.581532 66.6813856,581.362069 C67.31513,577.657624 68.1748258,574.009991 69.0696296,570.361456 C69.5782454,568.290105 69.8897163,562.317725 70.9717628,561.114772 C78.7396319,552.47678 80.3131903,578.187861 81.1926906,581.176306 C84.0670453,574.242646 83.1191294,566.546094 85.6721109,559.772948 C88.7256063,551.670603 93.5002938,558.190353 96.1036867,563.278103 C96.8724618,552.090825 92.4767606,540.814272 92.6324961,529.413276 C92.7999342,517.2557 94.866805,509.167783 104.179426,500.980672 C108.63184,497.067018 120.523548,492.27685 122.666036,487.355025 C123.030619,486.519992 122.937898,480.348323 122.700244,479.48804 C121.701017,475.871067 122.073701,476.61412 117.682501,475.56086 C113.835025,474.637454 110.25401,473.393922 106.360623,472.816794 C95.7553074,471.24502 87.5832461,471.023186 78.5946989,477.6268 C69.2469699,484.495533 64.8035579,496.716232 62.30999,507.685284 C57.2157298,530.091402 54.8679951,553.32083 56.6323969,576.247266 M790.845918,328.794338 C806.730936,326.768075 822.456617,320.269967 838.123786,319.189655 C847.543531,318.540385 858.046223,316.382465 867.274225,314.405799 C873.343407,313.105456 886.022795,312.035063 889.410266,306.16368 C885.318834,307.423444 879.920305,310.292856 875.643431,310.404674 C872.499015,310.486735 871.403465,311.080997 870.781424,306.764255 C870.483456,304.699216 871.155909,302.220269 872.408994,300.597094 C874.567686,297.801627 879.191139,296.433652 882.331054,294.655374 C886.562918,292.259389 890.498614,289.693871 894.483822,286.904717 C893.268545,283.88922 876.284377,289.937348 873.624271,290.893217 C870.32682,292.078134 866.983459,293.227883 863.818338,294.74014 C861.741565,295.73208 858.140745,298.935144 855.79481,298.849476 C849.86516,298.634857 850.398981,291.478461 853.272436,287.36642 C857.343163,281.542831 865.457611,277.208054 870.922756,272.680299 C865.079525,272.929186 859.770116,276.344164 854.400393,278.38756 C848.467141,280.646478 842.452872,283.211995 836.646549,285.732424 C822.397204,291.919424 807.217046,296.158614 792.727346,302.127387 C797.083438,309.557918 792.132311,313.214569 785.01709,310.483128 C783.944946,316.750384 783.526351,323.133066 783.526351,329.475169 C785.965906,329.247925 788.406362,329.02068 790.845918,328.794338 M130.492419,75.9100877 C130.571637,74.5376037 131.611374,67.8420095 130.378993,66.6832434 C129.947795,66.2783516 123.018017,67.2540597 122.335661,67.3541554 C117.828335,68.0160499 114.104186,69.7032494 109.883125,71.5013659 C99.5532724,75.9019719 89.1072932,79.8715349 78.7972451,84.3018991 C59.4941487,92.59632 40.3737939,100.299184 22.3534897,111.083374 C35.7449397,109.950759 49.4442598,106.071372 61.6366366,100.418217 C66.7939112,98.0276417 86.1510199,81.9528051 86.7208497,95.9391574 C86.9729071,102.128862 81.6427932,104.330067 77.1426682,107.312199 C71.6325133,110.962538 66.2321833,114.583118 61.1154179,118.76189 C58.3940981,120.985639 36.7000572,135.575271 37.7496963,137.909937 C43.2598512,136.59246 49.1841005,132.432625 54.0371058,129.532554 C59.438336,126.303339 65.1042264,123.432124 70.6809965,120.497785 C73.7227893,118.896253 80.6633701,113.334176 84.0058313,115.766232 C89.7968503,119.980173 81.8597426,127.811087 79.2518486,130.692222 C84.3209031,130.165592 91.11295,122.785559 95.0567483,119.709644 C100.043884,115.819436 105.288479,112.344039 110.350331,108.515151 C115.640836,104.513125 121.180698,100.759985 126.552222,96.8553491 C131.569064,93.2086174 130.756179,93.229358 130.264667,87.2209076 C129.955897,83.447929 130.275469,79.676754 130.492419,75.9100877 M349.890388,333.196747 C356.416874,332.527639 362.266407,328.512086 368.533634,327.254126 C374.70724,326.015103 380.536068,322.576678 386.607951,320.627066 C394.59457,318.061548 402.678411,316.164238 410.92879,314.716907 C417.853167,313.50133 424.535389,310.868181 431.466067,310.062906 C445.766724,308.400956 459.421934,306.481101 473.820714,308.528104 C480.948537,309.540785 487.191459,311.03681 493.564911,314.443673 C500.658526,318.235589 501.357985,318.048022 508.97462,314.695265 C506.593578,308.28553 497.55912,304.030108 491.49714,302.725256 C482.363659,300.75851 472.789079,301.644943 463.48726,301.95515 C447.424002,302.490798 430.745903,305.980622 415.355998,310.306382 C385.850878,318.599901 357.49442,328.257788 330.375743,342.074609 C332.669466,345.226273 335.088317,341.395581 337.746622,339.775112 C341.630107,337.406179 345.928586,335.496244 349.890388,333.196747 M600.895456,93.9670005 C595.748983,92.9498113 590.603412,92.5404106 585.464141,91.3167175 C578.970062,89.7701931 576.125414,92.1228941 570.080537,95.1447037 C572.500288,96.2466587 575.58259,98.1547903 578.156277,98.8202918 C582.687009,99.9925844 581.171063,99.0448309 585.477644,97.3206591 C589.299014,95.7903664 596.492553,95.1744619 600.423748,95.9725226 C610.954347,98.1097022 609.264662,110.540512 608.257332,118.826817 C613.445214,116.305487 614.103264,111.558603 615.947784,106.728758 C617.944439,101.501235 620.093228,96.7543516 621.630778,91.3194228 C615.060182,93.0381841 607.72081,94.0391416 600.895456,93.9670005 M683.554082,290.930189 C702.236036,283.955048 723.218015,285.736031 742.434692,284.110152 C749.830776,283.484328 760.053505,284.60522 767.332563,286.975054 C770.820857,288.110375 774.746651,288.941801 778.054004,290.479307 C779.830109,291.305323 781.265936,293.288301 783.092452,293.900598 C786.668066,295.099042 786.483524,294.395666 790.315697,292.295459 C793.676162,290.453156 797.062734,288.696521 800.51592,287.03908 C821.406978,277.01688 842.48978,268.13 863.988476,259.772456 C869.570648,257.601911 875.121312,256.140153 880.856518,254.247351 C884.478943,253.051612 890.811886,250.614146 894.708873,251.85407 C908.293867,256.17442 888.528966,272.404359 884.074751,276.584033 C889.618214,276.325227 899.797732,273.738969 903.005163,279.904327 C904.335666,282.460826 903.868459,286.199538 902.676588,288.757841 C901.803389,290.630804 899.902156,291.712018 898.941637,293.480376 C897.132225,296.814196 897.828984,295.615752 898.104446,298.954983 C898.86692,308.226014 897.052107,312.330841 889.326547,318.277972 C882.024984,323.899565 872.581834,326.295551 863.87415,328.756464 C848.645382,333.060581 832.667643,334.279765 817.24353,337.994129 C809.990578,339.740845 802.418954,340.871657 795.145297,342.190035 C787.066857,343.654499 777.564293,342.52008 770.726335,347.00455 C757.060323,355.967178 744.529469,367.154456 729.361014,373.637234 C715.973165,379.358924 703.493623,382.1589 689.109247,384.62883 C675.568363,386.954478 661.543168,385.303349 648.468591,385.637001 C633.176808,386.027465 618.994078,384.983223 604.417058,380.575403 C589.594282,376.093638 575.295425,370.358422 562.684453,361.78716 C555.55753,356.943788 548.463914,352.27626 541.760087,346.822394 C533.583525,340.170085 528.016657,332.289573 521.901564,323.742659 C518.388964,327.532771 515.580325,329.636585 510.983878,332.060525 C525.020775,347.482485 536.874675,365.372572 550.196809,381.430275 C555.749273,388.124065 560.354722,395.339977 565.619121,402.174443 C570.829508,408.939473 574.294397,417.309642 580.0152,423.603951 C585.355216,429.478039 588.97224,436.287255 593.500271,442.805202 C599.051836,450.799335 606.520837,457.793413 612.431583,465.573829 C618.531372,473.604033 624.774294,481.525124 631.399803,489.056653 C637.540102,496.034499 644.07379,502.910446 649.817998,510.162428 C661.502659,524.914378 675.346912,538.24605 688.633038,551.569606 C691.357059,554.300146 694.34934,556.946821 696.766391,559.956908 C698.549697,562.176148 700.285292,563.646023 702.432281,565.958144 C704.231791,567.894231 706.429191,571.277647 707.900126,573.618625 C710.495418,577.753211 712.050972,579.567559 715.461849,583.14215 C717.711461,585.49936 722.198083,590.192137 721.235764,593.850592 C720.645229,596.095081 717.92661,596.171731 717.163236,598.047399 C716.737439,599.092543 717.61694,600.424448 717.583632,601.473199 C717.423395,606.622269 719.919664,608.048859 724.024599,611.820935 C728.161941,615.623672 733.505558,618.664419 738.378368,621.501367 C742.053905,623.642153 745.865373,626.549439 749.9352,624.597121 C752.763644,623.239065 755.702814,620.651004 758.677091,619.116202 C766.208206,615.229601 774.342459,611.74158 782.021208,608.609755 C799.184517,601.609365 816.388335,593.989463 832.862987,585.020523 C842.154904,579.96163 852.293013,574.952334 862.525643,572.512162 C867.132893,571.412912 871.9958,568.648105 875.388673,572.752031 C878.75634,576.822591 876.584145,582.373848 874.695515,586.488594 C879.4612,585.801451 885.777939,584.457823 888.862942,589.18126 C890.030508,590.968556 889.272535,595.690189 890.549026,596.729923 C891.111654,597.18892 895.66309,596.188865 896.561495,596.425127 C908.179541,599.483007 904.128619,616.699476 898.285388,623.183156 C884.936247,637.997327 865.020111,645.30071 847.644354,653.834098 C843.097418,656.066864 838.49287,657.9768 833.808203,659.81279 C827.807436,662.165491 822.317986,665.136802 816.226298,667.332596 C806.078287,670.991051 796.270553,676.305143 786.380001,680.344142 C776.281501,684.46971 765.03704,686.528436 754.427223,689.587218 C745.428774,692.18069 726.329124,698.102571 726.133779,683.562536 C717.639445,690.177873 706.777571,668.58244 702.452986,663.482968 C698.552397,658.883974 694.671614,654.211035 690.971771,649.448822 C687.594202,645.102322 684.274246,634.530948 679.848838,631.698509 C677.144622,629.967123 674.15234,633.431698 669.991593,634.257714 C662.770148,635.690616 659.191833,633.658943 653.100145,630.303481 C641.941204,624.15706 631.65096,616.59938 620.210255,610.949832 C608.882975,605.356193 599.217473,597.243928 588.594154,590.445533 C578.414635,583.931193 567.402427,578.501675 557.844951,571.265924 C539.102682,557.074872 517.307818,547.272702 499.722313,531.51168 C490.658148,523.38679 480.022226,516.619957 470.347723,509.086624 C465.939419,505.65361 461.278157,502.7337 456.699714,499.556787 C454.123327,497.76859 451.645063,495.111093 448.823821,493.751234 C446.023283,492.401294 447.445607,491.871959 444.82691,492.890951 C443.33437,493.471687 441.623081,496.179683 440.394301,497.270817 C422.227263,513.41058 401.71159,521.042205 378.783368,528.243689 C373.591886,529.874077 368.761386,531.646042 363.493386,533.024839 C358.467541,534.340512 354.789304,536.605742 349.319658,537.396588 C339.22836,538.856543 329.290996,538.934997 319.128582,538.995415 C309.121903,539.054931 298.828058,539.206428 289.111245,540.072121 C279.111768,540.963965 268.711699,539.249712 258.896764,538.438125 C253.929432,538.027823 248.795563,537.292885 243.818329,536.535404 C238.965324,535.797762 234.866691,536.734694 230.091103,536.212573 C216.666345,534.747207 204.716124,531.704657 191.925111,527.326595 C180.253052,523.331783 168.333437,522.611274 156.522747,519.27565 C150.244718,517.502783 143.133998,516.04373 137.34838,513.075124 C134.061732,511.388827 129.22403,505.32627 127.744093,509.624075 C125.990494,507.362452 124.871539,504.678804 125.063282,501.769715 C120.571259,502.87167 118.299142,508.674518 115.004391,511.713461 C111.351359,515.081548 107.75504,517.291771 105.265073,521.85289 C99.6937043,532.059952 103.313429,546.003921 105.509029,556.709658 C107.810853,567.938417 109.891227,580.642462 108.560724,592.102974 C108.076414,596.279943 106.969161,602.389391 101.828991,602.663527 C96.5978993,602.943073 93.5345016,594.729811 91.6827798,591.12907 C87.6786679,600.673335 82.4250713,604.033306 74.8219397,595.907514 C73.3762104,601.320801 77.2695971,623.193075 66.4095237,620.660923 C58.2680694,618.762711 51.4787231,600.949274 49.0571716,594.25368 C41.0849559,572.216383 42.3389415,546.915604 45.0989701,524.008105 C47.7761799,501.788652 50.2598455,477.343646 68.2684471,461.416699 C76.0597216,454.525422 83.661953,453.394611 93.540803,453.648006 C103.466464,453.903205 117.406138,458.341685 124.020845,465.921008 C125.660118,463.117425 122.371669,460.07758 123.69317,457.173902 C125.457572,453.29722 129.145712,454.920395 132.720426,455.798712 C140.797066,457.780789 148.301175,461.478921 156.617269,462.876654 C160.875239,463.592654 165.260137,463.375329 169.520808,463.808176 C173.270162,464.18872 174.267589,463.223833 177.52183,462.64941 C180.086514,462.196725 183.980801,462.841485 186.402353,462.00014 C187.414183,461.648452 189.104768,459.823283 190.365955,459.205575 C192.423824,458.198305 195.502525,457.739307 197.76114,457.417378 C211.349735,455.482193 224.340593,450.229421 237.49799,445.75487 C253.485631,440.318138 269.012368,435.078892 283.190597,425.418299 C296.169753,416.574704 310.145436,407.853749 320.865077,396.28773 C325.673072,391.100787 328.454706,385.146442 331.058099,378.693422 C333.34642,373.023133 330.391047,372.29541 327.617515,367.030013 C325.18066,362.404868 324.751262,358.043038 320.550906,355.248472 C314.413308,351.166189 307.155855,350.380753 301.126282,345.592389 C293.713093,339.705676 293.967851,330.328238 292.33578,321.362003 C288.99872,303.028249 291.681331,280.897168 296.230967,263.020608 C301.228905,243.384707 308.53947,224.390862 318.384112,206.698262 C327.666126,190.018342 340.216785,177.506373 353.705457,164.404651 C350.313484,162.048343 344.459451,161.696655 340.420231,159.887718 C334.521188,157.246452 329.695188,153.32829 324.554117,149.68787 C314.954331,142.891279 306.25745,135.458042 295.951903,129.730942 C286.380923,124.409635 276.285124,119.90713 266.0804,116.472313 C260.903321,114.729204 254.765723,115.171068 249.344688,113.724639 C245.114625,112.595631 240.30933,111.906684 236.211597,110.398935 C234.097916,109.621615 232.244393,107.913675 230.065897,107.429428 C206.383303,102.166736 180.168433,103.214585 155.576632,103.081124 C150.324836,103.052268 141.939426,101.512958 137.063015,103.798928 C131.974156,106.184995 126.270457,112.065394 121.713619,115.440695 C110.985876,123.386134 99.6540953,130.282821 89.2369228,138.58626 C76.9014133,148.416384 64.3012435,158.159939 51.5147313,167.422854 C47.1280322,170.599766 39.1225089,178.298122 35.544194,170.497867 C32.475395,163.804978 38.6508015,157.088644 40.8986135,151.384088 C34.5764736,155.002865 21.3695656,165.042198 18.0730148,153.430189 C14.8853888,142.202331 24.9955915,131.675144 31.6220007,124.055242 C24.1881076,125.572008 9.86044436,129.774226 3.13681302,124.608925 C-3.75605687,119.312868 2.15738995,107.746849 7.06350734,103.683502 C22.0141124,91.3013876 41.9608554,83.6742717 59.8578315,76.6883097 C78.0194679,69.5986448 96.3116341,64.289963 114.944978,59.3275583 C118.778051,58.3058602 122.074602,55.0649221 126.052608,54.7078238 C130.636452,54.2957179 128.955769,57.2967869 131.135165,52.2036265 C132.083081,49.9879935 131.732901,47.2799977 132.979685,45.1572463 C139.043466,34.8446787 146.826639,50.256719 149.164472,55.6438543 C162.122023,50.3207443 175.332531,47.8066276 188.572747,43.888465 C199.03583,40.7918091 209.79328,37.4101959 220.382392,34.4181445 C226.086091,32.8057913 231.853704,32.0005165 237.621318,30.9364356 C243.130573,29.9201481 249.679564,28.2762332 255.5435,27.7099257 C265.544778,26.7423334 276.149193,25.8044994 286.009139,25.5772549 C334.167407,24.4644788 385.367468,21.397581 424.382354,55.7872347 C424.382354,58.9226665 434.427742,67.4037524 436.906006,69.1315313 C443.812379,73.9487521 449.940075,78.6785018 456.343233,84.3992896 C463.26491,90.5835838 468.80117,95.9310415 472.906105,104.329165 C476.442111,111.565817 477.306308,119.551835 479.192237,127.318724 C484.224383,121.586214 485.774536,126.977858 486.743157,131.695885 C487.784694,136.768304 489.025177,139.816265 492.264114,143.975198 C499.184891,152.866587 508.276961,157.527802 519.398994,158.627954 C521.440659,158.829949 528.197598,159.406176 530.097931,158.624347 C533.545716,157.207676 532.514081,156.36092 533.994018,152.550068 C535.121075,149.646389 536.781953,147.520933 538.252888,144.831874 C540.048797,143.55137 540.727552,141.839822 540.289152,139.699036 C540.337763,138.756693 540.387275,137.81435 540.434985,136.872007 C544.175337,134.675311 548.433307,144.795803 549.80792,146.621874 C553.796729,151.918833 558.098808,152.817892 564.579384,152.817892 C564.156288,149.273961 563.218274,149.073769 566.555334,147.454202 C568.614103,146.455048 571.564075,147.15662 573.51662,147.94927 C579.128498,150.226223 579.007871,151.343508 585.349815,148.743724 C590.039883,146.821164 594.238439,144.321476 598.482906,141.580115 C602.094529,139.247252 602.663458,138.849575 604.049774,134.770898 C605.111116,131.649895 604.940077,127.499979 605.336167,124.262648 C601.053892,126.831772 598.54592,131.789668 593.84685,134.339855 C589.080265,136.927015 583.330655,138.544779 578.141873,136.163221 C567.343014,131.207129 570.386607,117.501225 573.571532,108.805519 C568.634808,107.958763 563.466731,105.02172 560.310612,101.152252 C558.185228,98.5461557 556.647678,95.2980035 554.37556,92.3212821 C549.19218,85.5346098 535.792628,83.909632 533.25315,94.2736001 C531.959555,99.5498185 535.029254,101.433602 539.868756,102.104515 C545.629168,102.902575 547.032588,101.485003 544.93511,108.293318 C542.624284,109.482744 541.90592,111.335868 542.78182,113.851788 C542.638687,114.688625 542.493754,115.525461 542.350622,116.363199 C541.825802,118.471523 540.701446,120.101911 540.087506,122.128174 C538.34561,127.871505 538.044941,129.445083 531.549962,131.195406 C520.156967,134.266812 506.924853,135.869246 495.179878,136.875614 C491.272989,137.210169 487.132045,137.168687 488.42654,131.863613 C489.495084,127.483747 496.76964,126.001248 500.45688,124.649504 C504.731054,123.083141 512.624952,122.353614 516.285185,120.092893 C520.186674,117.683381 519.813089,113.306221 518.938089,108.65222 C517.847941,102.843961 516.737988,98.4253194 516.915329,92.1833123 C517.109773,85.3479448 519.567333,82.8680951 523.63896,77.4566122 C512.904915,80.4360389 500.919586,88.2290792 489.774147,88.2137493 C474.94417,88.1930087 477.692495,72.945991 480.650569,62.9192824 C475.231335,63.8345724 466.82162,66.0970971 464.165115,59.3131301 C461.057607,51.3812182 468.809272,42.2238096 473.565055,36.9358683 C467.331136,36.3289814 461.384381,37.8349265 459.113164,30.3151205 C457.532404,25.0803832 459.473246,18.9014996 463.071365,14.9517754 C472.494712,4.60764598 487.144648,2.53990222 500.055389,1.08084884 C507.194915,0.274672255 514.472172,-0.39714157 521.635104,0.275574018 C528.578385,0.927549045 534.015623,3.85286991 540.352167,6.79081547 C546.976775,9.86312379 551.4778,14.1474023 555.901408,20.0106687 C557.979981,22.7655563 559.712876,25.4365798 560.877741,28.7099814 C561.445771,30.3070046 561.978692,38.202846 563.230877,39.1064131 C565.083499,40.4464337 576.432384,35.7843163 579.66592,35.915072 C583.237934,36.0593541 585.456039,37.1721303 587.56702,40.170494 C588.71028,41.7963737 589.876046,47.804824 592.015833,48.4604061 C593.050169,48.7769251 599.501938,46.1176245 601.017883,45.8858712 C603.222486,45.5486117 605.353271,45.0643647 607.612786,44.8470397 C614.629884,44.170717 621.922445,43.9813467 628.729795,46.134758 C642.314789,50.4298576 650.053852,62.7551615 646.502543,77.2753577 C645.839992,79.9815501 643.98827,81.9573139 643.177185,84.5228312 C642.087037,87.9720766 642.484028,91.581836 641.665741,95.1483107 C639.940948,102.661804 636.739819,107.12373 630.255643,111.029268 C651.104391,127.624422 628.491241,165.33978 606.952035,146.310766 C600.832441,154.891948 587.505806,161.032055 577.509029,163.419925 C564.037461,166.638319 551.528212,164.75183 544.323871,152.323725 C543.506485,154.455494 542.180483,156.752286 541.777191,158.974231 C541.460319,159.800247 541.144347,160.62536 540.828375,161.450474 C539.886761,162.702122 540.339564,163.425336 542.184984,163.618313 C543.444371,167.176672 544.368881,167.538279 542.512659,171.8442 C556.280394,167.076576 570.790799,179.474021 580.296964,188.662992 C586.700123,194.853598 590.105598,203.935259 594.116012,211.684113 C598.820483,220.773889 602.401499,230.272164 606.745888,239.50983 C610.649177,247.812366 613.059026,256.831805 617.321497,264.950382 C621.353515,272.632506 627.8746,278.172941 634.641441,283.095668 C640.917671,287.661296 647.214605,292.225122 655.246234,294.124236 C664.396818,296.287566 674.610545,293.226079 683.554082,290.930189"></path><path d="M70,332.857597 C70.7081102,321.577288 87.7622151,311.308978 95.4937697,304.404051 C105.519926,295.449802 115.585721,286.407829 126.594763,278.499946 C154.166017,258.693159 182.815652,240.857013 213.336463,226.059576 C218.005847,223.795918 252.045588,207.642819 252.983428,216.771612 C253.544691,222.234961 239.687893,224.967992 235.900494,226.602203 C227.594163,230.188967 219.714861,234.696388 211.689611,238.799552 C187.606657,251.112661 165.763348,268.51742 143.468687,284.258122 C130.162341,293.652803 117.716358,304.271107 104.538842,313.798731 C97.5153973,318.876815 91.342406,324.913539 84.5595029,330.178829 C79.7216506,333.933807 72.3225294,341.862491 70,332.857597"></path><path d="M646.003192,406.106981 C649.773489,404.578833 654.117273,419.882788 655.763244,422.613679 C658.90082,427.819271 662.334563,433.199252 666.143451,437.914938 C674.941409,448.808837 683.871295,459.252382 694.247015,468.701731 C704.19105,477.760055 715.421167,486.336562 727.351316,492.683771 C730.786854,494.512155 756.529159,502.702131 746.828341,510.878623 C743.828078,513.40636 734.437787,511.011662 731.219438,510.004882 C725.657779,508.264591 719.497503,505.363806 714.407019,502.548417 C703.727055,496.639877 693.739941,489.101612 685.18161,480.390268 C675.397327,470.430337 667.397225,459.504976 659.524566,448.007907 C652.460532,437.692907 641.647741,418.826568 646.003192,406.106981"></path><path d="M216,278.16557 C214.511636,281.418364 211.944027,280.533864 209.165989,281.56909 C204.84901,283.178338 200.746978,286.122459 196.750612,288.418549 C189.070365,292.83112 181.465077,297.421495 173.9492,302.108442 C159.985853,310.815351 146.495747,320.24069 134.033408,331 C126.179759,323.103582 165.502192,295.285156 170.665407,291.962866 C178.383586,286.996129 186.395283,281.872347 194.676114,277.878559 C201.171451,274.745805 215.7119,266.230236 216,278.16557"></path><path d="M695.419862,428.097136 C700.633865,427.021486 702.132413,435.179769 704.302035,437.729624 C707.748333,441.779657 712.142135,445.243949 716.258596,448.46463 C721.269822,452.384797 725.784563,456.425874 731.048578,460.011972 C735.330535,462.929035 744.761933,467.477038 743.950825,473.88974 C742.097645,488.548496 715.709371,467.454647 711.269194,463.067857 C704.938554,456.816369 686.425844,437.41078 695.419862,428.097136"></path><path d="M755,460.281399 C751.410989,472.795064 727.264418,450.453108 729.099346,441.456651 C730.765316,433.294739 739.490311,441.740559 743.16471,444.840042 C748.232565,449.114037 754.760188,453.340112 755,460.281399"></path><path d="M194.805618,324.188447 C189.162087,322.580043 175.19428,329.66168 183.655469,318.856007 C186.073343,315.769737 188.800638,312.826126 192.173248,314.472758 C195.585106,316.13897 197.322068,321.355792 194.805618,324.188447"></path><path d="M547,170.333979 C545.666399,170.889642 544.332798,171.444337 543,172 C543.477204,170.666021 543.956015,169.333011 544.43563,168 C544.937739,169.341723 545.791725,170.119071 547,170.333979"></path><path d="M265,27.2070786 C261.919562,27.7580786 259.123996,27.8570786 256,27.7600786 C259.048204,27.2280786 261.919562,27.2380786 265,27.2070786"></path><path d="M43.3515,555 C43.4515,557.668761 43.5505,560.336624 43.6485,563 C43.5485,560.328547 43.4505,557.664274 43.3515,555"></path><path d="M647.343972,74 C647.286972,71.6652501 647.230972,69.3305002 647.173972,67 C648.114972,69.321151 647.914972,71.6567508 647.343972,74"></path><path d="M276,26.7670636 C273.666667,26.7780636 271.332402,26.7900636 269,26.8010636 C271.674115,26.0100636 274.079143,25.9980636 276,26.7670636"></path><path d="M291.628,290 C291.542,292.001116 291.456,294.001395 291.372,296 C291.458,293.998884 291.543,291.999442 291.628,290"></path><path d="M337,24.2735 C334.999419,24.4245 332.999709,24.5755 331,24.7265 C333.000581,24.5755 335.000291,24.4245 337,24.2735"></path><path d="M345,24.7155 L339,24.2845 C341.000289,24.4285 342.999711,24.5715 345,24.7155"></path><path d="M89,453.634066 C86.9867626,453.678066 84.9329496,454.374066 83,453.132066 C84.9994245,453.300066 87.0005755,453.467066 89,453.634066"></path><path d="M893,276.167814 C891.059549,277.453814 889,276.449814 887,276.598814 C889,276.454814 891,276.311814 893,276.167814"></path><path d="M495,2.1225169 C493.081334,3.4315169 491.015886,2.6545169 489,2.5905169 C491.000635,2.4345169 493.000318,2.2785169 495,2.1225169"></path><path d="M172,463.768343 C170.332507,463.785343 168.66584,463.802343 167,463.818343 C168.661706,462.894343 170.3292,463.063343 172,463.768343"></path><path d="M468,36.5605 C469.002886,36.5205 470.00656,36.4805 471,36.4395 C469.993965,36.4795 468.997376,36.5195 468,36.5605"></path><path d="M316,24.3215354 C314.665839,24.5095354 313.331678,24.6975354 312,24.8845354 C313.210014,23.4145354 314.670805,24.5455354 316,24.3215354"></path><path d="M698,287.2515 C696.666105,287.4175 695.333052,287.5825 694,287.7485 C695.333895,287.5825 696.666948,287.4175 698,287.2515"></path><path d="M82,600.5955 C83.0027523,600.5315 84.006422,600.4675 85,600.4045 C83.9944954,600.4695 82.9972477,600.5325 82,600.5955"></path><path d="M705,286.437 C703.666111,286.479 702.333056,286.521 701,286.563 C702.334722,286.521 703.666944,286.479 705,286.437"></path><path d="M542.531,114 C542.51,112.99842 542.489,111.996051 542.469,111 C542.489,112.00316 542.51,113.00158 542.531,114"></path><path d="M519.617,115 C519.538,116.334562 519.459,117.669124 519.383,119 C519.463,117.664516 519.54,116.331797 519.617,115"></path><path d="M299,539.574 C300.003955,539.525 301.006085,539.475 302,539.426 C300.99422,539.475 299.997566,539.525 299,539.574"></path><path d="M17,126.511 C18.0037279,126.504 19.0065238,126.496 20,126.489 C18.9934762,126.496 17.9962721,126.504 17,126.511"></path><path d="M756,284.89484 C754.66576,284.89384 753.332427,284.89184 752,284.88984 C753.335146,284.22484 754.668479,283.51784 756,284.89484"></path><path d="M754.292363,460 C754.245363,458.66569 754.198363,457.330403 754.152363,456 C754.989363,457.30989 755.112363,458.639316 754.292363,460"></path><path d="M733,284.2795 C731.666667,284.4265 730.333333,284.5735 729,284.7205 C730.333333,284.5735 731.666667,284.4265 733,284.2795"></path><path d="M216.5505,278 C216.5165,276.665714 216.4835,275.331429 216.4495,274 C216.4845,275.334286 216.5175,276.667619 216.5505,278"></path><path d="M139,103.546 C139.669,103.515 140.339557,103.484 141,103.454 C140.32711,103.484 139.664333,103.515 139,103.546"></path><path d="M359,26.8055 C357.666667,26.6015 356.333333,26.3975 355,26.1945 C356.333333,26.3975 357.666667,26.6015 359,26.8055"></path><path d="M101,453.7605 C99.6666667,453.5875 98.3333333,453.4135 97,453.2395 C98.3333333,453.4135 99.6666667,453.5875 101,453.7605"></path><path d="M212,454.2625 C210.666344,454.4205 209.332688,454.5785 208,454.7375 C209.333656,454.5785 210.666344,454.4205 212,454.2625"></path><path d="M747,284.136106 C745.671886,285.100106 744.336922,285.105106 743,284.159106 C744.333986,284.152106 745.666993,284.144106 747,284.136106"></path><path d="M187,461 C186.498643,462.51426 185.119457,461.862917 184,461.84856 C185,461.565958 186.000905,461.283357 187,461"></path><path d="M472,64.5635 C472.6687,64.5205 473.3374,64.4775 474,64.4365 C473.329013,64.4805 472.664125,64.5215 472,64.5635"></path><path d="M288,25.2515 C286.666341,25.4175 285.331703,25.5835 284,25.7485 C285.333659,25.5825 286.667319,25.4175 288,25.2515"></path><path d="M780,343.462 C780.669249,343.486 781.338497,343.511 782,343.538 C781.328428,343.515 780.663826,343.488 780,343.462"></path><path d="M295.6195,334 C295.5405,335.002003 295.4615,336.004007 295.3805,337 C295.4585,335.995421 295.5385,334.99771 295.6195,334"></path><path d="M491,136.4785 C491.669511,136.4935 492.339798,136.5085 493,136.5215 C492.328161,136.5055 491.663305,136.4925 491,136.4785"></path><path d="M182,524.431 C182.669771,524.477 183.339542,524.524 184,524.569 C183.327901,524.522 182.663562,524.476 182,524.431"></path><path d="M717,285.835236 C715.666667,285.832236 714.332335,285.828236 713,285.824236 C714.337328,284.786236 715.669663,285.116236 717,285.835236"></path><path d="M848,332.5715 C848.668845,332.5235 849.337691,332.4755 850,332.4285 C849.328976,332.4755 848.664488,332.5235 848,332.5715"></path><path d="M868,571.229 C866.666331,571.41 865.332662,571.591 864,571.771 C865.334676,571.59 866.667338,571.41 868,571.229"></path><path d="M610,44.258 C608.666029,44.42 607.333014,44.581 606,44.742 C607.333971,44.581 608.666986,44.42 610,44.258"></path><path d="M464.6335,54 C464.5455,55.0020103 464.4575,56.0031591 464.3665,57 C464.4545,55.9962665 464.5435,54.998564 464.6335,54"></path><path d="M350,333.033349 C345.938927,335.294926 341.553116,337.19036 337.554777,339.500698 C334.730846,341.131941 332.430924,344.964477 330,341.761389 C335.357258,339.14342 344.036625,332.472165 350,333.033349"></path><path d="M92.7606647,535 C91.9406647,532.658758 91.9516647,530.323448 92.8406647,528 C92.8146647,530.336158 92.7866647,532.668079 92.7606647,535"></path><path d="M97.784206,568 C97.852206,569.333613 97.921206,570.667227 97.989206,571.999951 C97.766206,572.015955 96.036206,568.085351 97.784206,568"></path><path d="M130.339,81 C130.446,79.3318497 130.555,77.6636995 130.661,76 C130.554,77.6690404 130.446,79.3345202 130.339,81"></path><path d="M605,93.525 C603.662257,93.507 602.326279,93.49 601,93.475 C602.339506,93.493 603.669312,93.509 605,93.525"></path><path d="M307,519.699 C308.667259,519.566 310.333629,519.433 312,519.301 C310.333629,519.434 308.666371,519.566 307,519.699"></path><path d="M57.2745,579 C57.4245,580.334558 57.5755,581.669116 57.7255,583 C57.5745,581.665442 57.4235,580.332721 57.2745,579"></path><path d="M243,516.735 C244.333607,516.578 245.667214,516.422 247,516.265 C245.666393,516.422 244.332786,516.579 243,516.735"></path><path d="M231,514.366876 C232.31957,514.681876 233.822754,513.249876 235,514.908876 C233.665495,514.726876 232.333626,514.546876 231,514.366876"></path><path d="M56.617,552 C56.539,553.001781 56.46,554.003562 56.383,555 C56.463,553.995548 56.54,552.998219 56.617,552"></path><path d="M85.4465,119 C85.4815,120.001399 85.5165,121.002798 85.5535,122 C85.5195,120.996083 85.4825,119.998041 85.4465,119"></path><path d="M70.2915,564 C70.4305,562.999445 70.5695,561.998058 70.7085,561 C70.5685,562.00222 70.4305,563.00111 70.2915,564"></path><path d="M791,328.7655 C792.333972,328.5885 793.666986,328.4115 795,328.2345 C793.666986,328.4115 792.333972,328.5885 791,328.7655"></path><path d="M56.3565,573 C56.4525,574.001339 56.5475,575.001875 56.6435,576 C56.5475,574.998661 56.4525,573.999732 56.3565,573"></path><path d="M784.188231,324 C785.039231,324.997668 784.993231,325.999709 784.208231,327 C784.202231,325.996211 784.195231,324.998543 784.188231,324"></path><path d="M478,320.593 C477.330406,320.532 476.661544,320.47 476,320.407 C476.671789,320.468 477.335529,320.531 478,320.593"></path><path d="M41,106.7585 L45,106.2415 L41,106.7585 Z"></path><path d="M711.366028,339.921007 C703.962881,340.996775 710.787643,330.753556 712.79434,329.332367 C715.128699,327.680591 717.598828,327.023739 719.860775,325.039402 C721.276416,323.798273 722.880325,320.804314 725.052663,321.010097 C729.844479,321.461166 727.683908,328.331012 726.25469,331.277201 C723.455995,337.044638 717.599733,340.019305 711.366028,339.921007"></path><path d="M471.100782,222 C466.742055,220.4541 444.709894,216.266825 454.468117,207.344536 C460.913744,201.450098 478.824813,216.518914 471.100782,222"></path><path d="M370.016157,291.86828 C369.334205,284.0732 390.481015,275.440038 387.757712,285.681212 C387.125308,288.061916 381.13188,293.937698 379.496818,295.493214 C375.118634,299.659677 370.01886,298.752523 370.016157,291.86828"></path><path d="M172,76.4298601 C173.432996,71.3781517 175.01166,69.0041048 180.017931,67.0525578 C183.218258,65.8033482 188.520254,64.6684513 188.984464,69.8801976 C189.327575,73.7265926 183.900971,77.4678198 181.275421,79.1047782 C176.579794,82.0339277 173.993733,81.8784624 172,76.4298601"></path><path d="M457.984519,262.360088 C458.036458,267.661793 456.181483,273.89478 451.512512,277.079103 C447.857284,279.571382 439.546069,280.743733 442.700454,273.522634 C443.661331,271.323673 446.373304,270.234734 448.031651,268.604991 C450.759392,265.92114 450.984771,263.014551 452.511416,260.502107 C453.032663,259.642322 452.208127,257.611101 453.847925,257.109713 C456.586795,256.272842 458.175581,260.437028 457.984519,262.360088"></path><path d="M557.189459,219 C560.958252,218.993713 564.521407,220.348252 562.328555,224.649792 C560.665933,227.911319 553.447409,230.413115 550.182105,230.870036 C545.990049,231.456732 541.306492,230.160773 543.607235,224.848061 C545.524368,220.423955 553.037056,220.026515 557.189459,219"></path><path d="M588,289.003645 C587.844285,298.723512 570.32722,288.565288 572.13019,281.273179 C574.402055,272.085351 586.596815,284.711986 588,289.003645"></path><path d="M386.993162,117.988987 C386.993162,126.245023 369.591257,115.671584 371.091743,108.449396 C373.093874,98.8222689 387.356943,111.752732 386.993162,117.988987"></path><path d="M369.829693,83 C362.477941,77.1231521 379.334302,62.0029745 384.174838,68.6607447 C388.557474,74.6906969 374.266625,82.6403409 369.829693,83"></path><path d="M374.912106,207 C370.883518,206.638037 366.2396,206.678255 362.69366,204.368458 C360.104998,202.682956 355.612464,196.174026 359.554674,193.364245 C361.981266,191.633954 368.108744,196.559754 370.594999,197.854045 C374.836414,200.061469 377.656603,201.436195 374.912106,207"></path><path d="M545.449175,261.998995 C535.957433,262.123391 532.95615,250.652324 544.392997,252.131745 C547.43309,252.52448 554.927057,253.255749 554.999132,257.260405 C555.08322,261.878154 549.038148,261.406338 545.449175,261.998995"></path><path d="M449,156.317652 C448.316983,160.67436 447.139715,163.877148 443.316099,166.423699 C440.029595,168.611742 433.576046,171.523848 434.021968,164.987906 C434.287332,161.098051 447.244584,146.543687 449,156.317652"></path><path d="M264.194893,64 C267.971682,65.8091241 272.903869,85.0784203 267.839438,86.7724828 C259.788203,89.466697 261.613521,67.4111372 264.194893,64"></path><path d="M428.320194,245 C422.452504,238.341339 437.82813,225.103635 441.529343,231.87669 C444.586443,237.471027 431.886222,242.635242 428.320194,245"></path><path d="M323.01932,68.4702949 C324.054495,58.2667198 335.786477,73.3331658 334.958156,78.2392256 C333.506563,86.8310328 322.477343,73.0400336 323.01932,68.4702949"></path><path d="M332,322.238898 C331.938181,329.04961 318.56769,321.988491 320.126403,314.798244 C321.886469,306.676169 331.90109,318.441791 332,322.238898"></path><path d="M602,327.013282 C605.964008,315.165624 608.280857,323.225108 609.394161,330.701934 C609.750381,333.090465 611.360491,339.698735 607.217899,338.939653 C603.365982,338.23395 602.312523,329.51943 602,327.013282"></path><path d="M650.476387,334 C653.58291,336.127717 659.792467,352.041304 652.814565,349.780715 C647.492835,348.057814 646.389592,337.138427 650.476387,334"></path><path d="M493.731537,269 C494.084803,273.27351 494.663557,274.736458 496.939112,278.255871 C498.892406,281.276693 500.167356,282.686411 497.413577,286 C494.148691,283.50882 490.203581,281.572122 489.229283,277.419267 C488.474836,274.210364 489.483897,269.132189 493.731537,269"></path><path d="M400.778878,225 C398.478611,223.173214 390.460826,213.426465 392.261075,209.89043 C394.483071,205.52355 405.659349,218.287726 400.778878,225"></path><path d="M551.788482,296 C554.272856,298.202209 553.127235,302.856115 553.553002,305.703647 C553.983159,308.589968 556.385891,312.442511 553.864646,315 C547.662489,311.453369 547.873178,301.062082 551.788482,296"></path><path d="M339.000157,258.973362 C338.958672,255.536833 347.142351,249.285197 348.842329,253.30026 C350.301692,256.746827 341.207178,267.067364 339.000157,258.973362"></path></g></g></g></svg>