<svg xmlns="http://www.w3.org/2000/svg" viewBox="0 0 1024 768" version="1.1"><g id="react-group-163" stroke="none" stroke-width="1" fill="#FFFFFF00" fill-rule="evenodd"><g id="react-group-164"><rect id="react-rect-166" x="0" y="0" width="1024" height="768"></rect><path d="M653,632.476744 C617.539481,640.226635 582.077942,647.976527 546.616404,655.727438 C541.624334,656.817952 536.632265,657.908466 531.640196,659 C533.125069,613.242283 534.610961,567.484566 536.095834,521.726849 C536.309999,515.118478 536.525183,508.509087 536.739347,501.900715 C528.522575,509.092598 519.89787,515.987625 512.035998,523.562054 C501.972313,533.257325 492.294123,543.293316 481.935707,552.699891 C464.116213,568.881118 445.396208,584.574724 424.761982,597.069218 C402.341013,610.644024 376.477097,619.377316 350.442869,622.392806 C340.853405,623.503723 332.17057,623.232369 322.670851,622.242848 C314.404107,621.381862 306.138382,620.519856 297.870618,619.658871 C294.541892,619.312028 291.211126,618.965186 287.88138,618.618343 C287.076734,618.534693 284.45883,618.723416 283.817357,618.181729 C282.651691,617.199349 282.043872,612.739361 281.584948,611.321387 C279.671747,605.423023 277.770783,599.521599 275.882057,593.616094 C270.748232,577.565444 265.685794,561.49133 260.797747,545.364171 C256.612364,531.557796 252.210776,517.692254 249.084997,503.597184 C248.718877,501.944581 247.916271,499.781915 248.051908,498.073206 C248.248736,495.577979 247.066752,496.103344 250.356725,496.067639 C258.091118,495.982969 266.269137,497.86204 274.010669,498.411887 C281.982682,498.977036 289.971013,499.313678 297.963423,499.394268 C340.28536,499.824761 388.996534,495.238278 423.282208,467.835674 C434.776715,458.649446 446.324253,448.028922 455.231451,436.217912 C467.791681,419.563348 474.637802,397.387866 476.306244,376.838463 C478.181712,353.746909 474.288,329.931065 468.615704,307.578081 C467.467375,303.054846 467.726412,301.362458 468.712588,296.629077 C469.531511,292.699555 470.349415,288.770033 471.168339,284.84051 C471.395761,283.749996 471.640521,279.165554 472.54205,278.493291 C474.120748,277.318107 481.731741,278.608565 483.580694,278.632028 L506.511578,278.918683 C521.27974,279.103326 536.046882,279.287969 550.815045,279.472611 C558.484169,279.568503 566.146154,280.76715 573.767345,281.559788 C590.105027,283.257276 606.442708,284.955784 622.780389,286.653273 C626.054044,286.993995 629.328719,287.334716 632.603394,287.674418 C630.504584,306.268241 628.406793,324.861043 626.306962,343.453845 C624.742542,357.319387 630.199654,371.065575 633.10719,384.618958 C639.65858,415.152327 646.040678,446.130469 648.469914,477.312637 C650.756373,506.671841 650.731897,536.346264 651.477393,565.774836 C652.04034,588.007445 652.552295,610.241075 653,632.476744" id="react-path-167" fill="#714dd2"></path><g id="react-group-165" transform="translate(140.999812, 25.299510)" fill="#000000"><path d="M284.004989,46.0173496 C284.004989,44.3103626 284.514257,43.1150765 285.471969,41.7004901 C287.685325,43.6228261 291.151232,53.1554792 294.838784,47.0012379 C295.571758,45.7773045 295.605778,41.2184243 298.12119,42.6409135 C299.303639,43.3086931 298.979934,46.526087 298.896431,47.616662 C298.597468,51.4988721 296.834618,56.9151971 291.826476,56.693921 C286.715242,56.4686936 283.866848,50.2640724 284.004989,46.0173496" id="react-path-168"></path><path d="M287.089559,37.489118 C278.5889,39.0568657 281.98125,31.4102686 288.206806,30.7757794 C290.515228,30.5403533 294.495877,30.6638729 293.949228,34.0717447 C293.465052,37.085832 289.335507,37.0742191 287.089559,37.489118" id="react-path-169"></path><path d="M263.538111,62.6882505 C260.861945,62.9420826 256.451778,59.1687709 260.896415,58.7089443 C262.948301,58.4970922 267.257932,62.3338618 263.538111,62.6882505" id="react-path-170"></path><path d="M730.236114,107.400509 C728.187923,108.967968 722.051479,103.92584 720.043927,103.034874 C712.232153,99.5642146 703.250999,97.644979 694.856059,96.1486767 C678.235845,93.1871409 661.201117,91.5194604 644.326911,90.9882882 C634.034144,90.6635716 624.289999,91.0233656 614.110004,92.1207875 C611.575165,92.3933891 594.42868,95.2547038 594.009085,90.5543305 C593.271493,82.3011163 638.629365,82.6929811 642.948243,82.7070121 C662.585881,82.7741603 680.322643,84.9539709 699.397434,89.2324131 C704.557534,90.3899677 736.288233,102.766281 730.236114,107.400509" id="react-path-171"></path><path d="M187.981505,243.764375 C177.65305,246.819747 165.869384,246.402921 156.178789,241.48094 C154.514675,240.635149 150.468477,238.838348 152.612252,236.726904 C154.918281,234.45561 161.376988,238.308211 163.891918,238.801926 C176.098458,241.196649 191.574408,236.450707 200.220496,227.549661 C204.512103,223.133537 206.933738,217.55192 207.955935,211.539313 C208.53802,208.11062 208.837175,204.483631 208.627259,201.007387 C208.406189,197.324754 206.900273,193.365924 207.908273,189.70049 C212.41081,192.370399 212.463543,199.400788 212.783993,203.940342 C213.188613,209.66461 213.15312,215.168325 211.545796,220.745896 C208.236837,232.228831 199.354467,240.400432 187.981505,243.764375" id="react-path-172"></path><path d="M3.44550665,549.63636 C3.77369046,550.513438 4.08250939,551.333404 4.44330775,552.29717 C5.83554094,549.739366 5.83554094,549.739366 3.44550665,549.63636 M16.427113,616.448288 C21.59346,618.834756 27.3489072,612.422907 30.0987206,608.851364 C34.683102,602.897432 36.72253,596.034807 38.5295794,588.865204 C40.5292584,580.933767 42.8387755,573.094117 44.6967851,565.125966 C45.5233599,561.57278 46.3142625,558.009395 47.2427577,554.480686 C48.012257,551.560832 50.8782597,546.358536 49.6715217,543.326497 C47.6320938,538.199671 37.6133146,536.788187 38.2961815,529.912303 C38.9229922,523.593262 49.9477261,530.341663 52.5945999,531.681757 C58.6415396,534.745411 55.497294,530.879129 52.5762542,528.63952 C50.3625423,526.941456 40.0665396,519.591339 45.4560924,515.884154 C48.9540018,513.477289 56.5623626,520.80497 59.4609799,522.155262 C62.5053434,523.572865 63.6142378,523.200617 66.0817316,520.702984 C67.8378208,518.925371 70.4480032,516.676584 71.8045643,514.637888 C75.1567275,509.597749 70.666113,499.719402 69.9761116,493.945985 C69.8222117,492.660964 70.7894367,485.618844 69.8915176,484.7846 C68.7112789,483.689272 63.6580636,484.460285 61.8010732,484.181863 C55.1415917,483.180363 48.5718002,482.425668 41.9021267,481.592444 C37.4961061,481.04172 24.3911761,477.724122 21.7973009,482.293086 C19.738508,485.916642 20.3979333,492.872075 20.3969141,496.746516 C20.3938564,504.901302 20.3683763,512.882712 19.5968386,521.064014 C17.9110746,538.930909 16.6462419,556.787605 15.0216301,574.65552 C14.2327659,583.328394 12.6010197,591.900302 11.7825986,600.572156 C11.2750348,605.947828 10.4729209,613.69773 16.427113,616.448288 M116.743324,484.500059 C121.634486,496.733258 125.680728,509.336665 129.912464,521.805451 C131.869337,527.570709 133.674348,533.392059 135.659758,539.146099 C137.561593,544.658432 140.621245,549.623102 142.1898,555.260878 C145.151608,565.906157 147.643563,576.479027 151.151664,586.943791 C151.65719,588.451141 151.360601,591.787097 152.266674,592.852849 C153.380664,594.162347 158.312594,593.966534 160.059511,594.186824 C167.204134,595.086339 174.42112,595.778822 181.629952,595.477964 C174.884858,586.973367 167.319304,579.166353 159.564177,571.561271 C152.773219,564.902617 143.601398,557.340368 142.495562,547.19278 C141.02485,533.710255 155.092928,536.420018 163.845855,537.236924 C176.055924,538.377126 189.8957,543.326497 202.115961,540.583079 C193.646372,529.129052 180.808474,520.58876 170.176134,511.265217 C166.028991,507.628402 161.666796,503.631578 159.548889,498.400726 C158.470571,495.733797 157.93447,492.658924 158.666258,489.827798 C159.555005,486.390876 161.528184,485.765703 164.389091,484.141069 C147.425453,484.141069 130.269186,483.536293 114.1097,477.710863 C113.467601,480.418587 115.834194,482.226795 116.743324,484.500059 M192.584361,592.553011 C195.547188,596.581451 200.883743,595.484083 205.276514,595.230139 C211.726039,594.856871 218.158238,594.0726 224.489535,592.780439 C230.880966,591.475021 237.292781,589.726984 243.390681,587.38539 C244.67284,586.892798 248.664044,585.767895 249.133898,584.224849 C249.559925,582.827644 247.097527,579.962862 246.561426,578.89609 C244.851201,575.489764 244.003223,569.419568 247.866007,566.989246 C251.055098,564.983185 255.764841,566.993326 258.98247,567.940774 C263.74725,569.345119 269.431353,572.181344 274.269516,570.024344 C280.443856,567.270727 286.558064,563.312658 292.363452,559.84616 C281.876858,550.317625 271.577797,540.601436 260.825191,531.367641 C250.974581,522.907917 239.110022,513.172351 232.954028,501.519452 C230.635338,497.131002 229.13405,490.910888 231.97763,486.339883 C234.52666,482.241073 239.667527,482.097273 244.001184,482.472581 C256.873736,483.588306 269.555696,486.785561 282.21931,489.17101 C286.481623,489.974658 313.907394,496.335513 313.980838,489.415775 C313.996065,487.922703 311.155542,484.522496 310.42885,483.336401 C308.781815,480.644995 307.099109,477.982146 305.318559,475.375388 C301.170397,469.301113 296.661437,463.487922 292.189168,457.652293 C289.932649,454.707963 287.04932,448.572496 282.729932,449.226225 C280.75981,449.524024 278.78663,451.716719 277.19769,452.851821 C274.459088,454.806889 271.619585,456.617137 268.705679,458.298883 C256.923677,465.094198 243.913533,468.544378 230.804526,471.749793 C227.832526,472.475932 213.637047,473.938408 212.242776,476.86948 C211.546659,478.333997 213.149867,481.792336 213.191655,483.376175 C213.253826,485.761624 212.727917,488.236819 211.418239,490.257158 C207.614568,496.119303 199.297861,495.811306 193.173461,495.63793 C185.392855,495.416621 177.426754,495.033154 169.682839,495.982642 C177.387005,503.112471 185.381644,509.916964 193.424186,516.657207 C199.091981,521.406686 205.407991,525.9063 209.861914,531.885729 C213.674758,537.003377 216.512223,545.713985 211.642464,551.228358 C206.430253,557.129258 194.680865,554.515361 188.070305,553.509781 C180.363081,552.336944 172.724145,550.900984 165.084188,549.371197 C162.495409,548.853109 159.822036,548.254452 157.176182,548.115751 C154.011552,547.949514 152.851697,547.770019 155.044006,550.707211 C160.490634,558.002256 168.682999,563.247387 174.418062,570.371096 C177.118954,573.726429 180.268295,576.398458 183.107799,579.61815 C186.646476,583.630272 189.422789,588.254309 192.584361,592.553011 M298.60404,552.684716 C302.327194,556.471449 306.529374,551.087618 309.547238,548.620581 C314.071486,544.920536 318.487699,541.090968 323.079214,537.472512 C331.776086,530.620085 340.828659,524.263309 349.004717,516.767351 C351.582284,514.40434 355.817079,511.758828 356.600847,508.138332 C357.598648,503.520414 355.20046,499.391008 357.651647,494.747594 C362.29718,485.951317 371.903182,493.147436 378.168231,488.084861 C381.385859,485.484222 383.653589,481.710747 386.190389,478.491055 C389.209272,474.659448 393.063903,470.941045 394.801647,466.325167 C396.609715,461.525714 396.84719,459.227974 393.481777,455.169958 C389.855448,450.798846 385.456562,446.806102 382.546733,441.887326 C380.542977,438.498337 378.907154,433.51633 382.056496,430.236466 C384.60043,427.586875 389.005431,428.300775 392.297461,428.503727 C397.09078,428.800506 401.860656,429.248224 406.572438,430.199751 C410.296611,430.951387 417.408619,432.918693 420.982969,430.874897 C429.415866,426.054028 414.255201,413.637255 410.896922,409.953527 C403.39354,401.721232 395.526301,393.832629 387.723272,385.886914 C380.508324,378.539856 373.223051,371.185659 366.44738,363.425558 C361.405376,357.649082 355.496029,349.496336 358.199979,341.34155 C360.392287,334.731849 367.771327,334.522778 373.642963,334.981714 C382.24301,335.655841 390.801269,337.064265 399.362586,338.086163 C405.745863,338.847997 418.028295,341.244663 423.472885,336.171889 C429.100932,330.929818 417.085531,315.354544 413.980016,310.688693 C407.416339,300.828705 399.852824,291.677517 392.018199,282.81291 C388.213509,278.507069 384.335437,274.267519 380.454306,270.030008 C377.085836,266.34934 373.996627,261.712045 370.126708,258.551505 C365.892933,255.095205 359.570808,255.501109 354.383058,254.980981 C348.926238,254.432297 343.123907,253.62457 337.638549,253.643605 C332.643428,253.661285 333.878704,258.471956 333.667729,262.642156 C333.616769,263.641617 332.271419,272.503164 333.786976,272.642885 C333.953106,270.669459 334.118217,268.696034 334.284348,266.722608 C338.549718,268.473705 341.715367,272.24208 345.022685,275.304714 C348.322869,278.36021 352.80431,281.471797 354.197563,285.965292 C358.127615,298.650288 342.442059,294.150673 335.86921,292.862593 C337.348076,307.271149 341.0325,321.275841 343.063774,335.58649 C343.91481,341.583256 343.56828,347.010941 342.903759,352.974052 C342.525634,356.373239 342.570479,359.804042 342.155663,363.20119 C341.827479,365.895655 340.572839,368.976646 341.074287,371.68539 C341.990552,376.64292 348.249486,381.847256 351.029876,386.041933 C354.720415,391.607299 357.976773,397.63772 359.682921,404.134217 C362.766014,415.861566 357.514054,424.292733 345.245891,425.421716 C339.711611,425.930625 333.588231,425.075984 328.105931,424.293753 C323.394149,423.621666 317.375747,420.127632 313.077762,423.288173 C311.317596,424.581353 310.105762,426.872974 308.562686,428.453754 C306.324514,430.745375 303.810136,432.790191 301.339585,434.821749 C299.009684,436.737042 292.639656,440.141329 293.267486,443.07648 C293.740397,445.289573 297.57974,448.450113 298.881264,450.088005 C300.587412,452.234807 302.28031,454.391807 303.927345,456.585522 C308.10914,462.157007 312.096268,467.910027 315.704252,473.870078 C320.069504,481.082514 326.198999,493.968422 318.814863,501.442963 C314.538282,505.771241 307.436465,505.008387 301.982703,504.155785 C294.548626,502.994167 287.163471,501.500075 279.861891,499.699005 C272.551138,497.896916 265.180252,496.640451 257.782866,495.267722 C251.463799,494.096924 244.115335,491.858336 237.798306,494.175454 C256.255079,515.663865 278.810072,532.549656 298.60404,552.684716 M406.277888,453.2924 C408.650596,450.517366 411.081398,447.435354 413.181979,444.435951 C415.116428,441.672136 414.958452,440.467683 411.696998,439.606923 C409.665723,439.071497 407.411243,439.594685 405.34022,439.352978 C403.183583,439.101073 401.032043,438.40757 398.920252,437.931296 C396.548563,437.39791 393.88742,436.585083 391.439291,436.591202 C388.681324,436.598341 388.409197,436.347456 389.795315,438.828771 C391.696131,442.227958 395.376478,445.199825 397.997872,448.032991 C399.646944,449.815703 403.594323,456.431523 406.277888,453.2924 M403.22639,492.2571 C404.475935,495.003578 413.472452,492.990378 414.919722,491.100581 C418.083332,486.968116 409.988811,477.347794 407.861732,473.867018 C404.651238,475.995462 403.540305,478.808231 403.348695,482.521534 C403.216198,485.093617 402.162341,489.918566 403.22639,492.2571 M399.839574,628.730439 C405.214858,629.261785 412.25756,626.161417 417.181337,624.458254 C423.999814,622.101361 431.090419,620.419615 438.124968,618.849034 C452.255217,615.695632 466.860416,615.256073 481.030415,612.230154 C472.025744,600.513004 461.137583,590.417428 451.986147,578.8247 C448.667618,574.621865 443.788686,568.596543 445.328704,562.831285 C446.838146,557.178211 452.677168,558.427537 457.012863,559.730916 C462.829463,561.478953 468.449356,563.912334 474.135497,566.0316 C476.824158,567.0331 488.834463,572.801418 491.055309,569.061598 C492.55354,566.536429 484.027895,557.133337 482.785485,555.507683 C478.14097,549.435448 473.101005,543.681408 468.022309,537.972242 C458.545747,527.319824 447.790083,516.4206 440.459965,504.129269 C434.966453,494.914851 433.126789,480.371673 447.962328,480.952993 C454.087747,481.193679 460.329354,483.092655 466.30495,484.341981 C471.82598,485.495441 479.98573,488.046106 485.618873,486.621364 C491.551662,485.121153 484.729107,476.266744 482.861925,473.345871 C478.916585,467.172669 474.283282,461.405371 469.937394,455.510591 C465.261284,449.169113 460.275337,442.964296 455.903969,436.410688 C453.183712,432.332275 448.772596,425.217744 451.244166,420.061341 C454.080612,414.144124 463.823187,417.802356 468.593064,418.699831 C477.62933,420.400954 486.49335,423.23208 495.775245,423.23208 C495.682497,418.573368 490.908544,414.477618 488.162807,411.172258 C484.040125,406.209628 479.796158,401.404056 475.288217,396.786139 C472.118492,393.53789 468.652177,388.247886 464.943293,385.744134 C461.148795,383.18531 458.906545,391.277885 457.41443,394.286466 C446.541557,416.227695 434.656615,437.738543 419.99536,457.420785 C417.043744,461.382934 412.711106,464.582229 415.187773,469.641746 C417.764321,474.903194 421.16133,479.507854 422.151996,485.446488 C422.883785,489.831878 422.499545,495.92961 419.122921,499.262506 C415.850256,502.491377 411.042669,501.759119 407.000504,503.021703 C402.707615,504.363836 403.91843,508.169947 403.880719,511.979117 C403.814471,518.642871 403.732935,525.302544 403.773703,531.966297 C403.809375,537.888614 403.890911,543.80991 403.962256,549.731207 C404.035638,555.993136 405.561387,560.431558 407.270593,566.328378 C408.160359,569.398151 408.46612,572.57297 407.482588,575.659061 C406.636648,578.310692 405.247472,578.818581 403.616745,580.69512 C400.441924,584.347232 401.457051,591.288387 401.067715,595.931801 C400.788453,599.259598 396.138843,628.36533 399.839574,628.730439 M413.066808,699.930817 C414.418273,701.62888 419.269686,701.086316 421.163368,701.210739 C424.759121,701.446326 428.36099,701.447346 431.957762,701.642139 C439.631352,702.058241 447.206079,703.126032 454.90311,703.261673 C461.229312,703.372838 467.783815,703.679815 473.863369,704.112235 C476.85983,704.325385 480.226262,703.027106 483.140168,703.635961 C486.012286,704.236658 487.10895,705.074981 490.218542,704.826136 C497.963476,704.206062 505.886771,704.986254 513.644955,705.176967 C520.822193,705.353402 528.060582,704.809818 535.249031,704.714971 C543.336417,704.607886 551.441131,704.903645 559.527498,704.986254 C568.179524,705.074981 577.01195,704.560973 585.554921,706.204984 C584.764018,702.57021 584.818036,698.286805 581.881708,695.568883 C578.874036,692.784671 573.888088,692.151339 570.01715,691.697502 C564.381969,691.035614 558.792652,690.884675 553.168682,690.645008 C549.655485,690.496109 546.273765,689.304914 542.780951,688.90717 C537.771562,688.336049 532.37997,688.666483 527.331851,688.584895 C525.600223,688.557358 524.449541,687.916888 522.861621,687.674161 C520.996476,687.389621 519.174139,687.866914 517.140826,687.370244 C512.925397,686.341207 508.625374,685.263217 504.534287,683.888448 C502.037236,683.049105 502.140176,682.337244 500.092594,684.285173 C498.810435,685.505943 498.02259,687.816941 496.940195,689.252902 C495.152511,691.624072 491.952209,694.461317 489.195261,691.606734 C486.273202,688.581835 489.404198,685.188767 488.754965,682.049644 C488.253516,679.625441 483.648751,677.496997 481.349426,678.41181 C478.16645,679.676434 477.223686,686.250439 473.816486,686.994936 C469.530732,687.930146 470.687529,681.444868 471.269494,679.030863 C472.788109,672.711822 472.244873,672.505811 467.199811,668.298896 C463.353334,665.091442 462.279092,663.839056 457.507177,666.236743 C452.698571,668.651767 447.446611,669.702221 442.086615,670.279461 C435.756337,670.962766 429.850047,670.248865 423.655323,668.982201 C420.739379,668.386604 415.057315,666.149035 413.152422,669.210649 C411.004958,672.661849 413.213574,681.113414 413.292053,685.107178 C413.351166,688.083124 413.531566,691.145758 413.248227,694.115585 C413.101461,695.649452 411.975241,698.558088 413.066808,699.930817 M490.726106,609.790654 C495.176972,609.404127 499.537128,608.224151 503.974744,607.686686 C505.592221,607.491893 509.064651,607.550025 510.401847,606.405744 C512.03767,605.005479 511.271228,605.14316 510.937948,603.107523 C509.350028,593.429069 508.743601,584.056573 508.978018,574.221061 C509.153321,566.860744 510.58938,555.409777 506.203744,549.008127 C501.036378,541.465256 493.182389,535.883573 487.940621,528.316225 C485.105194,524.223534 481.149662,513.236602 490.124776,513.531341 C493.696068,513.647605 497.51095,515.91169 500.977264,516.750014 C505.883714,517.937129 506.18336,516.745934 505.749179,512.298333 C504.730994,501.861105 505.033697,491.379002 503.968629,480.937695 C502.874003,470.203688 501.69988,459.462541 500.49518,448.738733 C499.908118,443.528278 499.641087,438.010845 498.630036,432.877899 C497.646504,427.887733 492.801206,430.573019 488.561316,430.370068 C477.33376,429.831583 466.42012,422.94652 455.136508,424.02451 C464.543765,441.676215 480.587061,455.08429 489.714036,472.969543 C492.868474,479.149883 495.804802,488.819158 488.027253,492.946524 C479.3579,497.546085 466.126589,491.717595 457.207531,490.236761 C454.085708,489.719693 441.687087,486.095117 441.111236,490.924146 C440.800379,493.524784 445.847479,499.605178 447.109254,501.483757 C449.983411,505.766141 453.293786,509.738489 456.403379,513.847497 C462.614411,522.054296 470.002623,529.196363 476.443995,537.229785 C482.06185,544.236211 488.955748,551.101896 493.484073,558.874235 C497.734155,566.16928 498.552577,579.315252 486.602405,577.878272 C474.368895,576.407636 463.728401,566.862784 451.258435,566.582323 C457.63152,574.982895 464.905582,582.630811 471.97988,590.430686 C475.384022,594.183764 478.724974,597.987835 481.951776,601.895932 C484.017703,604.396624 486.854149,610.127207 490.726106,609.790654 M507.421693,533.657222 C507.151604,530.163188 507.997544,528.21118 504.82578,526.296906 C502.781256,525.063897 497.952265,523.146564 495.712054,523.995086 C496.557994,524.978229 506.241455,536.556679 507.275947,535.623509 C507.533806,534.994256 507.582728,534.338488 507.421693,533.657222 M490.540611,372.971431 C489.958645,366.251585 488.606161,359.60721 488.314669,352.862888 C488.117962,348.303102 488.768214,342.235966 485.680025,338.432914 C481.943622,345.425062 479.431283,352.98833 475.697937,359.984557 C474.099825,362.977841 472.319275,365.869139 470.666125,368.830807 C469.537866,370.855225 466.22749,375.20288 466.488407,377.616885 C466.93176,381.738132 475.124125,387.64515 477.777114,390.587441 C483.429622,396.858549 488.963902,403.239801 494.738714,409.400764 C493.959022,397.191022 491.595487,385.153636 490.540611,372.971431 M490.701645,263.785417 C489.141243,261.593741 478.260217,262.629917 475.910951,262.420846 C468.519681,261.767117 460.48835,261.184778 453.334555,259.199114 C464.691549,273.25378 474.897862,288.469044 481.570593,305.343617 C484.102297,298.449375 485.768696,291.271614 487.315848,284.102011 C488.101655,280.454998 488.777387,276.793707 489.36343,273.10896 C489.628423,271.442512 491.711677,265.205059 490.701645,263.785417 M456.020158,366.636072 C459.062483,368.154641 468.288321,345.4424 468.697022,342.92539 C464.321578,343.924851 446.903375,344.740737 445.880094,350.261229 C445.402087,352.840451 448.379183,355.953058 449.680707,357.818378 C451.273723,360.101841 453.503743,365.381646 456.020158,366.636072 M428.378316,343.517927 C421.935925,351.591124 409.912371,349.959351 400.918911,348.812011 C394.828146,348.033859 388.794456,346.987485 382.722036,346.092049 C376.730134,345.207832 369.462187,343.573 363.649664,346.041056 C373.074247,359.291054 385.205837,370.24739 396.660675,381.67388 C402.532312,387.532966 408.205203,393.585824 413.850577,399.662139 C419.387914,405.62321 423.804127,413.125286 429.677802,418.648838 C434.66273,409.541505 439.380627,400.29751 444.187195,391.09635 C446.20522,387.231088 448.803172,383.751332 450.875214,379.930943 C453.158232,375.721988 453.508839,373.785278 450.595952,369.971008 C446.260257,364.292438 440.165415,356.601688 441.036834,348.975188 C442.054,340.070807 452.632323,339.092763 459.557817,337.17237 C463.0384,336.207584 467.033681,335.475326 470.215637,333.71811 C474.257802,331.483601 474.440239,327.795794 475.777435,323.793871 C477.395932,318.949544 478.879893,315.803282 477.171707,310.708071 C475.748898,306.46852 473.620799,302.259566 471.654754,298.253563 C467.520861,289.831574 462.353494,282.077593 456.873232,274.484749 C453.271364,269.494583 449.02332,259.537707 442.580929,258.204753 C438.009797,257.259344 432.24212,257.64791 427.55276,257.388866 C422.086767,257.086988 416.61364,256.916672 411.144589,256.680065 C399.810017,256.189513 387.672312,255.117642 376.392777,256.612754 C389.676068,270.976436 403.103066,284.981129 414.918703,300.624733 C422.529102,310.699912 438.76299,330.501478 428.378316,343.517927 M479.213173,234.8551 C473.054121,223.429629 467.333327,212.131641 458.992158,202.154368 C451.77823,193.525349 445.234937,184.522041 437.747862,176.095973 C422.041922,158.417751 401.657834,145.353368 382.653749,131.617919 C378.354745,128.509391 372.85308,126.815407 368.135183,124.104624 C362.29718,120.75133 356.042323,117.952839 349.724275,115.634702 C338.263321,111.430846 325.103354,109.285065 312.897363,110.138686 C299.408193,111.081035 289.231437,115.847852 280.856634,126.370749 C272.645924,136.684574 271.373957,148.070271 271.15177,161.033688 C271.046792,167.193631 270.970352,173.389269 271.030485,179.550232 C271.089599,185.647964 271.88152,189.502008 275.614866,194.199475 C278.688786,198.064737 285.164811,200.016746 289.583062,201.803537 C295.59433,204.233859 301.220338,206.943622 306.828,210.213288 C309.253707,211.627831 315.015269,216.95149 318.007653,216.386489 C322.416732,215.553265 323.497088,207.726873 323.935346,204.254256 C325.577284,191.262283 325.401981,177.976591 324.605983,164.921387 C324.19932,158.236217 321.089728,148.191634 322.851932,141.426914 C323.582701,138.616185 325.253177,137.619784 327.316047,140.101099 C329.867116,143.170872 330.494946,150.37515 331.153352,154.077235 C333.476118,167.116122 333.322219,180.224358 333.39764,193.409085 C333.428216,198.648096 336.352313,201.364998 338.269437,206.032889 C340.720623,212.001099 342.727437,218.229373 343.935194,224.570851 C344.637426,228.251519 345.132759,232.001537 345.07976,235.756655 C345.051223,237.818808 344.035076,241.098672 344.826998,243.057819 C346.363958,246.858831 355.905749,244.733446 359.104013,244.662056 C373.360644,244.34488 387.576507,243.585086 401.854541,243.401512 C430.761216,243.030283 459.872751,247.324906 488.181153,252.778088 C485.248902,246.776222 482.383918,240.737642 479.213173,234.8551 M466.790091,173.857384 C469.054763,174.227593 476.663124,178.387594 477.977898,175.750241 C479.100042,173.496354 473.547416,165.424177 472.717784,163.274316 C470.791487,158.28211 470.324692,152.708585 469.190317,147.49711 C468.475855,144.213167 468.407568,137.72279 466.631095,134.796817 C464.645685,131.525112 460.016459,133.168103 456.729524,133.26601 C451.12492,133.433266 445.464258,133.430207 439.855577,133.410829 C434.152109,133.390432 428.451699,133.241533 422.747212,133.258871 C416.917363,133.276208 411.157839,132.308363 405.371815,132.308363 C406.021048,134.404171 408.734171,135.427089 410.43828,136.413292 C413.062732,137.9339 415.272367,139.740069 417.57373,141.724713 C422.965321,146.372207 428.341625,150.08755 432.862815,155.632519 C436.948806,160.645122 442.655331,166.005496 447.726892,170.035975 C450.443072,172.192975 452.300062,172.0196 455.591073,171.991044 C459.527241,171.957388 462.94871,173.229151 466.790091,173.857384 M480.756249,162.688917 C482.171924,167.028414 482.305439,168.303236 486.897974,167.995239 C492.801206,167.597495 498.718707,167.227286 504.632131,166.798946 C518.12232,165.822941 531.623721,163.806682 545.115948,163.126436 C556.618689,162.546137 569.039733,161.15709 580.47011,162.355424 C585.805645,162.914306 591.491786,161.838356 596.9323,162.051506 C603.500053,162.30953 610.129977,162.281994 616.414391,164.304373 C621.651064,165.991218 626.026508,166.902971 629.768007,171.265924 C633.539064,175.659473 636.112555,181.197303 638.618778,186.366964 C643.478345,196.39013 647.282016,209.47695 655.830083,217.067754 C657.988758,218.985088 661.676239,222.240475 664.817427,221.879445 C669.985813,221.284868 668.40095,214.43856 667.946385,210.965943 C666.416559,199.263071 661.823005,189.149137 658.394401,177.972512 C657.370101,174.631456 655.339845,165.806624 660.646843,164.576675 C664.466821,163.691438 670.466877,172.095069 672.661224,174.352015 C677.494291,179.322804 682.224419,184.145713 687.627221,188.521924 C692.08726,192.134262 696.57074,196.125987 702.734888,195.350895 C699.78531,187.392941 696.529972,179.687913 691.697924,172.66619 C687.549762,166.638828 680.559039,161.214202 677.967202,154.281207 C676.014407,149.060553 677.742977,141.937863 683.815397,146.531305 C689.08876,150.51997 693.653777,155.399991 699.044349,159.317266 C706.118647,164.456332 714.147939,168.716279 722.533952,171.257766 C725.308227,172.098129 730.230984,173.726842 732.890088,171.720781 C736.855813,168.729537 732.81059,162.488005 730.584648,159.738468 C709.707265,133.953394 674.989087,124.70634 643.310176,122.76249 C635.052582,122.255621 626.464766,123.069468 618.174557,123.186751 C610.308338,123.295876 603.007777,124.259642 595.234305,125.410042 C579.097242,127.79753 562.925526,129.73934 546.857769,132.124788 C542.556726,132.763219 537.45357,134.027844 533.170873,133.861607 C531.40663,133.793276 530.490365,133.320062 528.731219,133.791236 C527.229931,134.19408 526.149574,134.998749 524.47604,135.269011 C514.954633,136.804917 505.264038,137.403574 495.616249,137.526977 C490.974792,137.585109 486.287471,137.497401 481.680667,136.889566 C478.968564,136.531595 476.191232,135.403632 475.426829,138.626384 C474.849959,141.056706 476.773198,145.660346 477.433642,148.00092 C478.783069,152.785075 479.245788,158.054682 480.756249,162.688917 M308.153985,79.3389698 C309.776559,79.4001613 312.450951,79.6439074 312.97788,77.6154095 C313.971604,73.794001 308.86539,76.1264166 307.918549,73.7205712 C306.864692,71.0424237 310.460445,70.3489202 312.046327,69.9165003 C315.279243,69.0333031 314.447572,69.2219769 314.535224,65.8646039 C314.61676,62.7672946 315.6166,59.946367 316.873279,57.1407372 C318.619176,53.2428393 318.708866,53.4396719 314.792064,52.9919542 C308.201888,52.2392989 306.763791,46.4169287 304.325854,41.0902095 C302.821508,37.8032067 301.155109,34.5967726 300.219479,31.085401 C299.649744,28.9549173 299.729242,25.5689883 297.648027,24.3686152 C294.837061,22.7470407 288.29173,24.4236875 285.329922,24.8132734 C280.380666,25.4639429 275.175589,26.2023202 270.441385,27.8636691 C266.381893,29.2884109 264.83678,32.5927514 261.176817,33.17815 C258.811243,33.5554975 244.572958,32.6631216 246.443198,37.0270946 C247.608149,39.7460365 253.105737,38.1927925 255.131915,38.1112039 C257.719675,38.0081982 260.874113,37.6226918 263.43945,38.1285414 C266.002749,38.6354109 266.243282,39.5950975 267.24414,42.1478024 C264.841876,42.028479 255.855551,40.6853258 253.892563,42.45274 C252.150743,44.020262 253.436979,45.738723 255.188991,46.3149429 C258.607402,47.4398464 263.227456,45.25735 266.815055,46.1956195 C269.368162,46.8636265 269.190821,46.9543939 270.24264,49.5193372 C270.790972,50.8573911 271.415744,52.2260407 271.648123,53.6650606 C272.966973,61.7933301 265.514551,55.4834677 262.416169,53.683418 C256.748374,50.3902961 250.60359,51.0052705 251.704331,58.9173301 C252.068187,61.535306 253.478766,63.8259074 255.290911,65.7136648 C257.845038,68.3744748 258.506501,68.876245 258.637979,72.8965258 C258.75111,76.3558847 258.38012,80.05695 259.604184,83.378628 C260.953611,87.0368592 263.828786,90.1545656 266.074094,93.2773712 C268.770909,97.0284095 271.56149,100.733554 274.1625,104.551903 C275.283625,106.196934 276.883776,110.337558 279.04347,110.886242 C281.076782,111.401271 284.229182,108.137724 285.912907,107.203534 C289.994821,104.939449 294.478301,103.465754 298.674365,101.439296 C295.15811,98.3124109 292.028134,94.7653443 288.585261,91.6241812 C285.895581,89.1714223 284.504367,88.7043273 285.391075,84.5626833 C287.380562,75.2717755 301.354873,79.0840053 308.153985,79.3389698 M255.287854,274.577556 C244.176487,285.340119 227.654165,292.068123 212.623958,294.776866 C196.879289,297.614112 178.924984,299.716039 163.586977,294.229202 C147.860653,288.602645 133.155572,280.51313 119.841706,270.44713 C118.204863,269.209022 99.8663187,251.299293 98.3894916,252.711797 C103.837139,260.871682 109.553856,268.829635 115.328669,276.758012 C118.166134,280.652851 127.976995,294.058886 122.335699,298.908312 C118.599295,302.120865 112.243537,296.945085 109.175732,294.869673 C101.790577,289.873388 93.5635588,287.183002 84.5874257,287.183002 C88.7345684,294.798283 95.0393667,301.541585 98.4119141,309.585207 C100.004931,313.386218 99.1936438,313.110856 95.5938139,312.07774 C91.0889305,310.78558 85.9796589,309.290468 81.2790883,309.078337 C79.0928949,308.979411 74.6542597,309.941137 74.2842885,312.79674 C73.9306246,315.52894 79.7288784,320.682283 81.347375,322.638371 C87.2781253,329.812054 93.3230265,336.618587 100.655183,342.402202 C114.730396,353.503358 131.438213,360.660723 148.443638,365.977244 C165.816996,371.407988 184.384862,373.043841 202.145518,368.672729 C210.945328,366.50655 219.017427,363.568339 226.898935,359.182949 C230.467169,357.198305 234.21988,356.29879 237.651541,353.965354 C241.216718,351.542171 244.829797,349.124088 248.469376,346.817168 C255.963586,342.066669 260.60912,337.287614 265.838658,330.148607 C267.942295,327.277706 270.828682,325.149262 272.833457,322.322215 C275.042073,319.207568 277.31388,316.03479 279.373692,312.756966 C288.870638,297.639608 298.175974,281.389188 303.712293,264.346339 C306.567084,255.559241 308.505611,246.520238 310.900741,237.604638 C311.725278,234.536905 314.766583,228.636005 314.131619,225.520339 C313.519077,222.514817 308.764489,221.295066 306.410127,220.020244 C299.536612,216.300821 292.640675,212.99852 285.93431,209.04351 C276.669743,203.57809 278.310662,214.784292 277.71035,221.254272 C275.926743,240.489817 269.464987,260.845166 255.287854,274.577556 M333.651422,281.930733 C335.606256,283.60636 340.552455,284.646615 343.052563,283.881722 C340.588127,280.208193 336.788533,277.798268 333.592308,274.842719 C333.24374,276.874276 331.698626,280.257146 333.651422,281.930733 M321.721634,412.625556 C326.221422,412.95395 330.916896,414.305262 335.377954,414.340957 C339.356928,414.372573 344.391797,414.696888 348.258659,413.842246 C358.925652,411.483314 352.618815,401.829337 348.906873,395.528654 C346.853176,392.044818 344.257262,388.927112 342.116933,385.503448 C341.600197,384.678383 340.166176,381.309791 339.02059,381.196587 C337.335845,381.02933 336.811974,383.793146 335.999669,385.484071 C333.802264,390.064254 331.77099,394.796395 329.276996,399.225639 C326.768734,403.67936 323.265729,407.675164 321.721634,412.625556 M206.328332,480.409408 C205.405952,475.285641 190.418552,480.489977 187.027659,481.100872 C186.055338,481.276288 174.313084,482.707149 174.419081,483.728027 C178.305308,484.015627 207.474937,486.786581 206.328332,480.409408 M2.52312668,594.801798 C0.226859188,595.801259 0.308395539,588.492956 0.202398282,587.523071 C-0.0116346394,585.569022 -0.280704598,582.051532 0.712000477,580.33511 C1.44073162,579.076605 1.65476454,579.716056 2.04613902,579.384602 C5.25153683,576.665661 1.38059856,575.503022 0.660021053,573.335824 C0.437834496,572.669856 0.417450409,570.834112 0.748691835,570.278289 C1.69451351,568.684251 1.95746824,569.876465 3.08165068,569.208458 C3.83586193,568.76074 5.36568772,569.866266 4.92335301,567.82553 C4.55847784,566.140724 3.2702035,567.174861 2.62504712,566.647594 C0.171822151,564.642553 0.421527226,562.011319 0.814940121,558.806924 C1.18796893,555.762648 1.54774808,552.505221 2.44362874,549.623102 C2.90328991,548.144307 3.53010061,548.811295 3.4801596,547.064278 C3.45366029,546.152524 2.06856152,545.25199 2.02269732,544.105669 C1.96766029,542.680927 3.28854917,540.394405 3.36295109,538.892154 C3.46079472,536.920768 3.47914039,535.207407 3.25899225,533.343106 C3.12445727,532.200865 2.82175356,531.785783 2.75856289,530.395716 C2.70046824,529.086218 2.98686467,527.552351 3.01438319,526.187781 C3.09184273,522.31334 3.60857935,518.419522 4.28940788,514.714377 C4.68893601,514.133058 5.00285096,513.508905 5.23421035,512.839878 C5.07521447,512.145354 4.80920212,511.494685 4.43719252,510.886849 C4.33425288,509.115356 4.36788662,507.385676 4.38928991,505.588686 C4.42903889,502.25579 3.79305535,499.09219 3.59838731,495.806207 C3.54131186,494.830202 3.15707181,493.202509 3.83484273,492.300954 C4.35157935,491.61357 6.15862874,491.782866 6.35737359,491.121998 C6.92812805,489.230161 5.21892229,490.359144 4.84895109,489.401497 C4.55236262,488.633544 4.70320487,487.622865 4.65428306,486.850832 C4.51669046,484.762163 7.52232421,470.571856 10.1253722,472.41678 C9.08782215,471.681462 11.1231733,466.795322 11.7836178,465.968217 C14.2378619,462.893344 15.7034778,466.37616 17.693984,468.538259 C20.4794696,471.565198 22.9041569,469.618289 26.5223324,468.934984 C31.0017357,468.090541 35.9244929,468.38834 40.4650485,468.486246 C45.1197549,468.587212 49.8407097,468.849316 54.4770704,469.259299 C59.4691335,469.700897 64.3042392,471.209268 69.3462433,471.133798 C76.8190499,471.021614 84.3897001,471.19601 91.8563914,470.928807 C93.3505451,470.874754 96.9666822,471.030793 97.5934929,469.130797 C97.8289291,468.416896 96.4805217,466.917705 96.2777001,466.130374 C95.8863256,464.618944 95.8588071,462.6343 96.5253667,461.154486 C98.5382954,456.689547 102.727225,460.33452 105.677822,461.957114 C110.123592,464.400695 114.731415,466.481205 119.641941,467.802941 C139.226973,473.071529 162.332337,472.77781 182.331165,470.290375 C202.638813,467.764187 222.715101,461.649117 242.515184,456.640594 C260.593832,452.06755 277.280246,441.9271 291.156714,429.519506 C305.303271,416.872245 316.466616,399.330685 323.454282,381.720794 C331.238965,362.102802 325.576265,342.35121 325.37752,322.2855 C325.279677,312.278652 323.053734,302.51249 322.44425,292.537258 C321.853112,282.862883 322.680706,273.784106 325.58238,264.314723 C326.322323,261.902758 327.361911,259.479575 327.90107,257.011519 C328.400481,254.726017 327.51683,252.892312 327.810361,250.737351 C328.44023,246.123513 333.539309,246.591628 335.769328,243.161845 C337.788372,240.056377 335.708176,235.223269 334.992695,231.893432 C333.750284,226.110836 332.205171,220.398611 330.78338,214.658849 C329.314707,218.076394 327.943877,221.48578 327.057169,225.107296 C326.828867,226.035367 326.808483,227.673259 326.173519,228.497305 C325.714877,229.093922 324.556042,229.016412 324.193205,229.566116 C322.96914,231.420218 323.109791,233.279419 322.897796,235.663848 C322.485018,240.288905 321.736922,244.862968 320.976596,249.439072 C318.42145,264.814454 316.47477,279.967506 310.434965,294.481107 C299.303214,321.227907 284.266892,346.115506 262.03091,365.087927 C251.954036,373.685332 239.13856,379.031428 226.941741,383.561638 C212.393618,388.964846 198.554861,391.892859 182.936572,390.490554 C168.197858,389.167798 153.467297,384.590675 139.965896,378.65612 C126.668337,372.810293 114.183083,367.665109 102.829146,358.246719 C90.6965368,348.182758 78.580235,336.035228 70.2349895,322.566981 C67.1916452,317.654324 61.7735547,307.521014 63.101578,301.369229 C64.8046685,293.480627 76.9219895,298.682923 81.2984532,300.316736 C77.6160677,294.289374 67.759342,283.556387 72.6596767,276.039012 C79.8134724,265.068398 98.536257,276.178733 106.202712,280.244907 C102.252276,272.207405 96.2134902,265.454924 91.9328318,257.612215 C89.8128866,253.726556 83.9514422,237.924873 92.5627001,237.069212 C95.1698249,236.810168 97.937984,239.787134 99.7796863,241.279187 C103.355055,244.177624 106.901887,247.108696 110.447699,250.042828 C118.197729,256.455696 126.377863,261.909897 135.304055,266.553312 C153.166631,275.846259 170.446223,280.781353 190.734505,278.804868 C208.021231,277.122102 227.083411,271.867793 240.525697,260.470878 C248.597796,253.627629 255.015726,246.057222 259.16185,236.22273 C263.741135,225.362261 266.660136,213.43298 269.863496,202.102356 C264.897932,200.823454 261.418368,201.56489 262.37642,195.657872 C263.525064,188.576997 263.272301,181.412493 263.314088,174.225553 C263.40174,159.327465 263.676925,144.26518 268.336728,129.968808 C269.16636,127.424262 269.897129,124.802207 271.326054,122.511605 C273.088258,119.686598 274.724081,119.266417 272.455332,116.186445 C268.089061,110.25699 263.552582,105.188295 260.313551,98.3746223 C258.628806,94.8306152 257.065346,91.359018 254.989227,88.0465187 C251.584065,82.6147542 247.13218,78.6291485 242.762851,73.923523 C237.747346,68.5233741 233.818313,63.4291826 231.239726,56.4921074 C230.035027,53.2540578 228.393088,50.0323258 227.770354,46.6117216 C227.028374,42.5333088 227.798892,38.3610691 228.150518,34.2806166 C229.315468,20.7440393 233.86112,9.82033861 247.169891,4.53135421 C257.984669,0.232652082 270.417943,-1.61839047 281.756592,1.70532726 C295.475083,5.72764783 301.976588,17.7650336 308.509688,29.4138535 C310.353428,32.6988166 311.486784,36.1744932 313.158279,39.5084095 C314.870542,42.9259542 316.648035,42.9310535 319.803492,44.3180606 C326.05733,47.0655585 325.527343,54.9908762 322.812183,60.2003117 C319.362176,66.8202109 320.060331,74.4895443 317.087312,81.4001031 C314.041929,88.4768989 309.315878,90.4482847 302.109084,92.0341641 C304.856859,94.2166606 307.362064,97.0702237 310.86405,98.0033939 C315.115151,99.1354365 320.265191,98.0554067 324.666116,98.117618 C333.802264,98.2461202 343.041352,99.484228 351.722935,102.405102 C360.248579,105.272943 367.890574,109.862305 375.816926,113.969273 C379.440198,115.846832 382.818861,118.52498 386.958869,119.069584 C390.975553,119.59889 395.021795,118.608608 399.061921,119.127716 C407.919826,120.266897 417.630806,118.830937 426.665033,118.634105 C436.394359,118.421974 446.158337,118.557615 455.868297,117.845754 C460.063342,117.538777 464.206408,117.097178 468.414703,117.463307 C472.239777,117.794761 474.520756,116.894227 477.828075,119.512202 C480.026498,121.25208 481.778511,125.511008 484.369328,126.091307 C487.131372,126.710361 492.571885,124.978642 495.299276,124.567639 C504.469058,123.184712 513.711203,121.356106 522.82391,119.67028 C527.094376,118.87989 531.119214,117.439851 535.426372,116.696374 C539.871123,115.928421 544.487099,115.678556 548.877832,114.690313 C555.983725,113.091175 563.657315,112.495578 571.065911,111.47368 C579.742398,110.277387 588.665533,107.754258 597.411326,107.435042 C634.01809,106.099028 675.04922,103.92571 707.507822,124.222927 C715.128413,128.988724 722.95998,135.074218 728.830597,141.89197 C734.224227,148.154919 740.847017,156.440246 742.222943,164.785746 C743.452103,172.23479 742.555203,185.284895 732.594519,185.375662 C722.881501,185.46439 712.901452,179.665476 704.543976,175.370854 C708.11323,183.928483 718.961641,202.258394 709.545212,210.568198 C699.827098,219.144185 681.934965,200.535854 675.517035,194.561524 C676.784925,203.705573 685.841575,236.935611 668.703653,237.450639 C651.976471,237.95241 642.271607,217.332917 636.312319,205.09156 C633.167054,198.628719 630.818807,191.035875 625.711574,185.776466 C620.575803,180.488502 613.455641,180.663917 606.504667,179.987751 C589.609316,178.34476 572.805693,178.259092 555.812498,177.852168 C534.304228,177.33816 513.181217,180.882167 491.645428,178.880185 C491.916537,183.033048 490.339828,190.591217 486.132552,192.181175 C479.933751,194.52481 472.331505,191.156218 465.985939,191.156218 C466.411966,193.695665 470.027084,196.370753 471.549776,198.287066 C474.279205,201.722968 476.628471,205.407716 478.823837,209.201588 C483.113669,216.611878 487.676647,224.034405 490.722029,232.066808 C492.253893,236.107486 493.562552,240.274627 494.66635,244.451966 C495.300295,246.853732 495.289084,250.443632 496.57532,252.566977 C498.172413,255.20637 500.625638,253.682702 502.649778,255.751994 C505.566741,258.737119 502.522378,260.3077 501.603055,262.938934 C500.606273,265.785358 501.857856,270.607248 501.477693,273.736173 C500.908977,278.434659 500.305608,283.165781 499.525917,287.833672 C498.101069,296.365805 495.07709,304.257468 493.053969,312.586649 C491.133788,320.48749 496.330711,328.842168 498.045013,336.484985 C500.036538,345.356732 501.192316,354.331483 503.23684,363.185892 C505.395515,372.533912 506.397393,382.161373 507.88645,391.630756 C509.339836,400.882909 511.433282,410.021858 512.854053,419.28013 C515.561059,436.923676 517.281476,454.890517 519.414671,472.605454 C520.533758,481.891262 521.393966,491.298434 521.476522,500.656652 C521.553981,509.419273 522.790276,517.976903 522.970675,526.723207 C523.162286,535.993717 523.271341,545.271367 523.671888,554.534739 C524.067339,563.697144 522.930926,572.820795 522.515091,581.969943 C522.317365,586.330856 522.1706,590.698909 522.235829,595.063902 C522.288828,598.748649 523.299878,603.06061 522.385652,606.666828 C520.580641,613.795636 510.547593,618.078021 504.249929,620.152412 C496.550859,622.6888 488.423723,624.440916 480.541197,626.314395 C476.701854,627.227168 472.81257,628.0043 468.907998,628.577461 C467.390402,628.80081 465.630236,628.710042 464.212523,629.355612 C462.07729,630.327537 462.498221,629.838005 462.38509,632.267307 C462.201633,636.192741 463.351295,640.491444 463.949568,644.338349 C464.499939,647.880316 463.798726,653.704726 465.167518,656.879544 C466.725881,660.490862 477.704751,663.448451 480.391374,660.998751 C482.286075,659.271112 482.828291,656.005526 485.060349,654.551208 C488.27492,652.45438 489.751747,655.391571 489.736459,658.545993 C489.724228,660.923282 487.926352,663.791123 490.088084,665.527941 C491.961382,667.033252 495.911818,666.244902 497.721925,665.005774 C500.737751,662.939541 506.995666,650.15358 508.526511,661.029347 C508.887309,663.591231 507.782492,666.575336 509.954416,668.520205 C511.989767,670.342692 516.898256,670.261103 519.465631,670.586438 C523.563852,671.105546 527.151452,671.278922 531.288402,671.190194 C535.906417,671.091268 540.268612,672.175377 544.808149,672.379349 C551.882446,672.696524 558.980186,673.654171 566.213479,673.793892 C573.597615,673.937692 581.645253,675.866244 587.32426,680.876807 C593.845129,686.628807 592.502837,693.740278 591.259408,701.445306 C590.437929,706.540517 596.938415,712.044692 590.376777,716.500452 C587.745191,718.287244 583.372804,717.910916 580.346786,717.937432 C575.175343,717.985366 570.059957,717.382629 564.882398,717.671249 C527.16674,719.771137 489.306354,718.205655 451.59885,716.961428 C442.789866,716.671788 433.640468,717.075652 424.905887,716.01092 C421.014564,715.536686 417.152799,714.8595 413.253323,714.442378 C409.917467,714.086448 405.934416,714.673886 402.748383,713.589777 C394.858722,710.90653 403.300792,702.742566 403.929641,698.079774 C405.151667,689.028533 404.633911,679.437787 404.693025,670.317195 C404.755197,660.621404 404.693025,650.924593 404.693025,641.228801 C400.49798,641.52048 388.726169,644.627988 385.437197,641.026869 C382.718979,638.049903 387.345147,631.833868 387.57243,628.259265 C388.496848,613.689571 388.184972,599.10458 389.283674,584.521628 C390.418048,569.4828 390.278417,554.577573 390.750309,539.536705 C391.253796,523.469859 392.394286,507.461146 392.394286,491.370844 C380.657128,503.796795 369.446899,517.442497 356.395987,528.519177 C350.805651,533.263557 344.716924,537.368486 338.878921,541.792631 C332.300976,546.776678 326.176577,552.321646 319.637361,557.352607 C307.471118,566.713885 293.003512,572.186444 280.150326,580.508486 C267.157508,588.922316 253.293271,595.851232 238.335427,600.015313 C221.984331,604.56796 204.644607,606.081429 187.724795,605.208431 C179.606832,604.790289 171.529637,603.746974 163.534998,602.288577 C160.202199,601.679722 156.903035,600.886272 153.569217,600.289655 C148.853359,599.444193 146.555053,600.233563 142.139859,601.097383 C136.338548,602.232485 134.894335,593.757463 133.173918,589.68415 C130.002154,582.168815 128.629286,573.957937 125.822397,566.272286 C120.913909,552.831575 116.390679,539.542824 112.04785,525.874685 C111.062279,522.773296 110.405911,517.394564 106.708238,516.958065 C104.212206,516.663326 99.9132021,519.447539 97.4660924,520.216512 C93.2109141,521.552526 89.1779223,522.153222 84.7464216,522.263367 C81.0110375,522.355154 80.564626,523.755419 78.2296287,526.41317 C76.0892995,528.849611 72.2244765,530.246817 72.9511692,533.784705 C73.3812735,535.879493 75.6061966,537.496988 76.022032,539.863059 C77.5141473,548.356438 68.9885025,541.013459 65.9920416,539.158337 C64.1768386,543.16128 77.8902337,547.606842 72.8930746,553.275214 C70.4459648,556.050248 65.3438276,551.834154 62.9089484,550.756164 C57.2299415,548.242214 56.3666754,555.079343 54.8541761,559.509607 C52.0788825,567.642975 50.2208729,576.178168 48.0937933,584.500211 C46.0451925,592.519356 44.3787933,600.713916 41.145877,608.368971 C38.2645862,615.191822 33.247043,619.645543 29.6635204,625.807526 C27.9002968,628.838544 25.9525972,631.02308 22.1407728,631.16688 C19.5621857,631.264787 14.7923091,630.250028 12.3564106,629.266885 C10.0560663,628.337794 7.56207318,625.509727 5.95376865,623.735174 C3.72069184,621.271197 4.16200734,618.888808 2.35393875,615.873088 C2.43241749,617.387577 2.76977414,618.796001 2.85131049,620.275815 C-0.448873322,617.677217 2.84111845,613.591665 2.24182627,610.297523 C2.05327345,609.254208 0.978012823,608.38019 0.91686056,607.285882 C0.890361245,606.837144 1.84841337,605.806068 1.91262325,605.180895 C1.98906358,604.441497 2.04919664,602.291636 1.83924053,601.742953 C1.68737908,601.348268 0.417450409,599.339147 0.444968927,599.703236 C0.425604044,599.437054 -0.0228458877,599.017892 0.217686348,598.139794 C0.581542315,596.813978 2.6912954,596.578391 2.52312668,594.801798" id="react-path-173"></path></g></g></g></svg>