<svg xmlns="http://www.w3.org/2000/svg" viewBox="0 0 1024 768" version="1.1"><g id="react-group-221" stroke="none" stroke-width="1" fill="#FFFFFF00" fill-rule="evenodd"><g id="react-group-222"><rect id="react-rect-224" x="0" y="0" width="1024" height="768"></rect><path d="M525.318,94.7584 C522.223,102.9494 519.13,111.1414 516.035,119.3324 C514.051,124.5814 512.069,129.8294 510.086,135.0784 C509.382,136.9394 508.991,138.8484 507.631,140.1404 C504.425,143.1824 498.671,145.1184 494.818,147.2584 C492.237,148.6924 489.655,150.1264 487.074,151.5604 C485.743,152.3004 482.792,153.2294 481.859,154.4574 C480.833,155.8104 481.318,158.2954 481.318,160.1664 L481.318,176.3204 L481.318,206.7584 C494.651,205.0914 507.985,203.4254 521.318,201.7584 C503.554,222.2554 485.791,242.7514 468.027,263.2484 C463.649,268.2994 458.334,273.1614 455.072,279.0384 C448.13,291.5484 441.344,304.1484 434.482,316.7024 C428.094,328.3874 421.706,340.0734 415.318,351.7584 L472.787,349.3124 C487.666,348.6794 502.951,349.6314 517.287,345.4144 C529.105,341.9384 540.922,338.4634 552.74,334.9874 C554.312,334.5244 559.208,334.0014 560.322,332.7364 C561.365,331.5514 561.343,327.0744 561.638,325.5584 C567.216,296.8884 574.317,265.2944 590.597,240.6154 C602.269,222.9244 618.019,207.4354 632.443,192.0084 C638.073,185.9874 643.801,180.0384 649.231,173.8344 C650.622,172.2454 652.631,170.4424 653.551,168.5124 C654.145,167.2654 654.975,164.8894 654.606,163.7824 C654.446,163.3024 650.735,161.5804 650.203,161.2384 C646.442,158.8214 642.714,156.3534 638.978,153.8974 C628.48,146.9954 617.992,140.0764 607.434,133.2664 C599.203,127.9564 590.995,122.3264 582.313,117.7634 C573.314,113.0334 563.403,109.7044 553.968,105.9674 C544.434,102.1904 534.882,98.4564 525.318,94.7584" id="react-path-225" fill="#714dd2"></path><g id="react-group-223" transform="translate(160.999594, 54.000301)" fill="#000000"><path d="M687.910206,478.342099 C683.332206,482.656099 674.995206,488.446099 668.405206,485.813099 C665.095206,484.491099 662.268206,481.588099 659.253206,479.716099 C655.711206,477.516099 652.381206,475.315099 649.378206,472.383099 C643.387206,466.531099 638.851206,457.982099 631.775206,453.401099 C629.397206,451.861099 624.755206,451.531099 623.105206,449.072099 C622.366206,447.969099 622.297206,446.296099 622.433206,445.021099 C622.729206,442.275099 624.212206,442.437099 621.734206,440.421099 L625.583206,440.421099 C625.657206,438.934099 624.173206,438.811099 623.067206,439.003099 C623.581206,436.646099 624.105206,427.423099 619.809206,431.603099 C616.085206,435.226099 617.948206,441.237099 615.311206,445.161099 C613.292206,448.166099 607.934206,445.733099 607.211206,442.427099 C606.886206,440.942099 608.522206,438.623099 608.717206,437.167099 C609.145206,433.938099 607.703206,431.146099 605.609206,428.701099 C601.015206,431.762099 603.619206,438.097099 601.001206,442.119099 C598.632206,445.758099 593.356206,444.060099 589.749206,443.420099 C585.425206,442.652099 580.536206,443.429099 576.399206,442.408099 C570.152206,440.866099 572.485206,433.532099 571.867206,428.798099 C571.204206,423.727099 566.079206,416.689099 567.619206,411.573099 C569.273206,406.080099 578.942206,404.893099 583.564206,403.560099 C594.127206,400.513099 609.194206,399.927099 617.047206,391.397099 C623.293206,398.363099 628.317206,406.339099 634.868206,413.045099 C641.944206,420.288099 649.502206,426.975099 656.295206,434.510099 C663.365206,442.352099 670.663206,450.043099 677.476206,458.112099 C680.449206,461.632099 683.059206,465.425099 686.134206,468.861099 C688.868206,471.915099 691.750206,474.725099 687.910206,478.342099 M373.947206,342.869099 C377.193206,341.143099 377.606206,342.225099 377.605208,345.780099 C376.671206,344.073099 375.744206,343.616099 373.947206,342.869099 M346.427206,411.975099 L346.427206,405.709099 C349.556206,405.627099 347.632206,410.987099 346.427206,411.975099 M345.662206,421.307099 C345.662206,418.532099 345.587206,415.890099 346.387206,413.191099 C346.807206,416.132099 347.609206,418.678099 345.662206,421.307099 M359.116206,611.929099 C361.990206,612.198099 366.419206,610.218099 368.836206,612.473099 C371.319206,614.790099 371.120206,621.534099 371.708206,624.664099 C372.680206,629.837099 373.541206,635.027099 374.360206,640.225099 C374.897206,643.633099 375.561206,647.094099 371.708206,648.398099 C366.014206,650.324099 357.878206,647.575099 351.943206,647.325099 C340.219206,646.832099 328.500206,646.146099 316.766206,645.908099 C305.393206,645.678099 293.994206,645.860099 282.673206,647.043099 C277.559206,647.577099 272.558206,648.521099 267.496206,649.375099 C264.828206,649.826099 257.679206,651.711099 255.269206,649.462099 C250.735206,645.228099 258.273206,635.343099 261.515206,632.551099 C267.532206,627.370099 276.089206,623.634099 283.634206,621.384099 C287.666206,620.181099 294.388206,616.804099 297.564206,620.581099 C300.001206,623.478099 299.904206,627.345099 303.396206,629.540099 C311.487206,634.626099 306.753206,620.037099 301.697206,618.241099 C305.092206,610.295099 311.563206,621.514099 314.247206,624.209099 C315.202206,625.168099 318.308206,628.330099 319.657206,626.740099 C320.667206,625.550099 318.650206,621.286099 318.276206,620.126099 C317.708206,618.364099 316.271206,615.684099 316.684206,613.773099 C317.432206,610.315099 322.282206,609.373099 325.187206,609.085099 C329.692206,608.639099 334.111206,610.067099 338.565206,610.544099 C345.395206,611.276099 352.278206,611.287099 359.116206,611.929099 M313.884206,286.218099 C304.991206,286.926099 296.042206,285.566099 287.170206,286.679099 C278.776206,287.733099 270.866206,290.815099 262.953206,293.646099 C274.717206,266.055099 289.937206,240.938099 308.488206,217.409099 C317.726206,205.690099 327.662206,194.052099 337.644206,182.961099 C342.289206,177.801099 347.093206,172.812099 351.889206,167.797099 C356.167206,163.323099 359.232206,155.725099 364.366206,152.384099 C368.748206,149.532099 376.406206,151.566099 381.262206,151.743099 C386.751206,151.943099 393.431206,152.442099 398.784206,150.615099 C402.663206,149.291099 403.730206,145.758099 398.874206,145.641099 C393.147206,145.502099 387.514206,146.099099 381.712206,145.562099 C366.679206,144.173099 352.188206,141.890099 337.033206,143.185099 C333.561206,143.481099 328.991206,144.960099 325.584206,144.516099 C323.134206,144.195099 324.745206,145.427099 323.042206,143.461099 C322.390206,142.709099 321.604206,140.941099 321.411206,139.942099 C320.326206,134.331099 323.407206,126.313099 324.144206,120.664099 C324.826206,115.436099 324.222206,109.690099 325.498206,104.599099 C326.660206,99.9660992 330.202206,99.3480992 334.564206,98.8530992 C346.497206,97.4980992 358.675206,96.7770992 370.662206,95.7560992 C398.018206,93.4260992 426.243206,89.9110992 453.413206,95.6690992 C463.224206,97.7480992 475.187206,100.963099 483.951206,106.111099 C486.692206,107.720099 489.457206,109.615099 488.460206,112.949099 C487.426206,116.410099 482.356206,120.066099 479.845206,122.346099 C461.286206,139.194099 443.361206,156.379099 430.324206,177.997099 C413.698206,205.564099 404.157206,235.337099 398.559206,266.926099 C397.355206,273.722099 396.237206,277.279099 389.245206,279.235099 C381.739206,281.336099 374.494206,282.701099 366.711206,283.340099 C349.117206,284.785099 331.469206,284.815099 313.884206,286.218099 M319.843206,103.658099 C318.495206,113.693099 316.670206,123.706099 316.490206,133.820099 C316.422206,137.640099 316.060206,139.554099 311.998206,140.406099 C307.209206,141.410099 302.340206,142.158099 297.529206,143.200099 C274.310206,148.232099 251.530206,154.412099 228.814206,161.368099 C206.737206,168.130099 185.023206,175.737099 162.450206,180.746099 C152.740206,182.901099 141.378206,184.353099 132.534206,189.124099 C123.020206,194.258099 124.272206,202.675099 123.418206,211.920099 C122.277206,224.272099 118.614206,236.232099 117.326206,248.579099 C116.710206,254.479099 116.149206,260.414099 116.242206,266.351099 C116.321206,271.412099 117.046206,277.008099 113.644206,281.267099 C106.819206,272.143099 103.584206,260.667099 102.239206,249.484099 C101.585206,244.048099 101.844206,238.568099 101.657206,233.107099 C101.506206,228.710099 101.604206,221.716099 98.7402062,218.044099 C92.5142062,210.064099 84.4172062,242.044099 83.6472062,245.459099 C82.3522062,251.207099 81.2842062,257.003099 79.9942062,262.752099 C79.4222062,265.300099 78.6882062,274.563099 75.2742062,275.486099 C68.1992062,277.400099 69.7522062,257.519099 69.6402062,254.492099 C69.4162062,248.382099 69.2642062,242.265099 69.4072062,236.150099 C69.5112062,231.736099 70.3652062,226.946099 69.8582062,222.530099 C68.6132062,211.687099 62.5162062,223.111099 60.8022062,227.147099 C56.4712062,237.336099 54.5122062,248.242099 50.6282062,258.594099 C49.9822062,260.316099 48.4642062,266.113099 46.0592062,266.221099 C43.3832062,266.340099 43.4042062,260.353099 43.2512062,258.604099 C42.3632062,248.465099 39.3642062,238.397099 40.2692062,228.153099 C41.1832062,217.809099 44.8092062,207.175099 49.9402062,198.178099 C60.7882062,179.156099 80.3782062,168.234099 99.1422062,158.285099 C120.616206,146.901099 143.287206,137.907099 166.442206,130.580099 C194.290206,121.768099 222.884206,114.638099 251.650206,109.564099 C266.285206,106.983099 281.146206,105.137099 295.931206,103.657099 C301.127206,103.137099 306.325206,102.833099 311.454206,101.844099 C313.390206,101.470099 320.375206,99.6930992 319.843206,103.658099 M334.802206,71.1830992 C327.465206,71.2410992 319.970206,67.6840992 312.822206,66.2140992 C304.312206,64.4620992 296.001206,61.9270992 287.506206,60.0980992 C270.871206,56.5170992 254.227206,53.0250992 237.607206,49.3650992 C230.392206,47.7760992 223.142206,46.3930992 215.955206,44.6860992 C208.266206,42.8600992 199.959206,40.8240992 192.089206,42.7910992 C180.160206,45.7730992 175.121206,58.8240992 170.741206,69.0090992 C167.647206,76.2030992 165.223206,84.2220992 160.398206,90.4820992 C158.680206,92.7140992 156.238206,95.3760992 153.123206,94.6530992 C147.336206,93.3110992 148.255206,85.6530992 148.992206,81.4200992 C150.060206,75.2770992 151.573206,69.2060992 152.784206,63.0910992 C153.272206,60.6230992 157.054206,44.4700992 150.302206,46.9710992 C145.293206,48.8260992 142.643206,61.0440992 140.747206,65.4080992 C139.338206,68.6510992 137.845206,71.8730992 136.264206,75.0360992 C134.154206,79.2550992 128.134206,93.3520992 121.469206,91.5340992 C111.931206,88.9320992 121.080206,63.8570992 122.705206,58.5720992 C123.597206,55.6710992 133.292206,33.6700992 125.109206,35.4680992 C121.624206,36.2350992 118.229206,42.7080992 116.452206,45.3910992 C113.301206,50.1500992 110.160206,54.9430992 107.194206,59.8190992 C104.143206,64.8340992 102.585206,70.5420992 99.5592062,75.4840992 C97.9672062,78.0850992 94.7182062,81.5510992 91.5462062,79.1430992 C86.6012062,75.3920992 89.5322062,62.3440992 90.3982062,57.4100992 C92.0092062,48.2370992 96.0112062,38.8330992 101.502206,31.3340992 C109.753206,20.0660992 125.322206,16.4250992 138.414206,14.2360992 C155.313206,11.4100992 172.447206,12.1830992 189.417206,13.8550992 C208.502206,15.7360992 227.296206,17.7500992 246.108206,21.5960992 C265.067206,25.4720992 284.036206,29.3170992 302.703206,34.4430992 C311.497206,36.8580992 320.417206,38.9990992 329.086206,41.8340992 C338.302206,44.8470992 347.296206,48.5970992 356.769206,50.7680992 C353.437206,59.0830992 350.104206,67.3980992 346.772206,75.7140992 C343.583206,72.5590992 339.230206,71.1470992 334.802206,71.1830992 M498.125206,94.0960992 C501.047206,92.4980992 504.275206,91.7440992 505.341206,88.2120992 C506.284206,85.0910992 504.673206,81.5550992 503.903206,78.5590992 C501.749206,70.1710992 501.182206,61.4820992 503.088206,52.9950992 C504.910206,55.7760992 511.730206,66.4730992 515.878206,59.9970992 C518.380206,56.0910992 511.676206,50.4720992 509.719206,47.7260992 C514.013206,45.0760992 520.146206,37.9640992 525.094206,42.2530992 C528.292206,45.0260992 529.646206,47.6960992 533.955206,49.0440992 C539.186206,50.6810992 544.111206,50.3060992 549.453206,49.8540992 C553.193206,49.5380992 554.094206,49.0390992 555.555206,51.9190992 C556.702206,54.1830992 557.295206,56.9850992 557.965206,59.4160992 C559.285206,64.2090992 562.342206,73.6530992 558.722206,78.1430992 C555.551206,82.0760992 543.245206,78.7040992 541.536206,83.7810992 C540.604206,86.5500992 545.052206,86.6490992 546.752206,88.0190992 C548.857206,89.7150992 550.598206,92.4140992 551.742206,94.8250992 C552.589206,96.6080992 553.877206,99.5540992 552.435206,101.377099 C550.443206,103.899099 546.751206,101.986099 545.145206,100.153099 C543.013206,97.7180992 542.321206,94.3890992 540.542206,91.7370992 C537.277206,86.8710992 537.082206,90.7420992 536.193206,94.2360992 C535.270206,97.8660992 533.086206,97.6160992 529.741206,98.0820992 C523.872206,98.9010992 517.941206,100.056099 512.228206,101.629099 C509.300206,102.435099 506.462206,103.462099 503.673206,104.662099 C501.876206,105.434099 498.761206,107.773099 496.811206,107.795307 C493.198206,107.836099 490.693206,101.793099 488.828206,99.2720992 C491.925206,97.5430992 495.013206,95.7980992 498.125206,94.0960992 M692.154206,464.119099 C683.130206,453.287099 675.315206,441.519099 666.412206,430.592099 C657.631206,419.815099 647.472206,410.392099 637.617206,400.631099 C632.966206,396.024099 628.510206,390.970099 623.376206,386.888099 C619.546206,383.842099 616.599206,383.795099 611.992206,385.144099 C598.902206,388.978099 585.573206,393.593099 573.185206,399.314099 C561.650206,404.642099 551.143206,411.483099 538.633206,414.454099 C525.864206,417.487099 512.587206,418.461099 499.500206,417.709099 C486.076206,416.938099 473.415206,414.145099 460.649206,410.040099 C448.559206,406.152099 435.953206,402.757099 425.613206,395.051099 C414.773206,386.973099 406.398206,375.354099 398.638206,364.426099 C394.709206,358.894099 390.809206,353.084099 388.162206,346.814099 C385.865206,341.373099 384.364206,334.951099 380.242206,330.516099 C379.231206,331.949099 377.973206,333.178099 377.459206,334.861099 C377.225206,335.626099 378.603206,335.602099 378.462206,336.210099 C378.195206,337.355099 376.671206,338.523099 375.785206,339.146099 C372.602206,341.386099 372.583206,339.603099 373.418206,343.792099 C373.904206,346.234099 372.984206,351.743099 369.002206,349.943099 C370.468206,351.698099 368.139206,353.913099 367.378206,355.359099 C366.855206,354.758099 366.204206,354.549099 365.426206,354.730099 C366.882206,357.630099 366.022206,357.707099 364.611206,360.010099 C364.353206,360.431099 363.440206,362.634099 363.571206,362.448099 C362.129206,364.502099 360.463206,365.019099 359.622206,367.577099 C358.931206,369.678099 359.108206,371.988099 358.338206,374.086099 C357.407206,372.799099 356.476206,371.512099 355.545206,370.226099 C355.735206,371.238099 356.115206,372.736099 356.557206,373.654099 C356.835206,374.228099 358.027206,375.568099 358.011206,375.881099 C357.946206,377.051099 356.486206,376.770099 356.070206,377.779099 C355.289206,379.672099 356.418206,379.951099 355.992206,381.798099 C355.504206,383.918099 354.194206,383.070099 353.571206,384.877099 C353.453206,385.220099 354.373206,386.570099 354.227206,387.310099 C354.022206,388.356099 353.074206,388.941099 352.739206,389.871099 C351.887206,392.237099 352.197206,393.969099 351.014206,396.238099 C350.556206,397.118099 349.889206,397.704099 349.566206,398.704099 C349.283206,399.584099 349.892206,401.457099 349.346206,402.245099 C346.708206,406.044099 347.079206,399.500099 347.279206,397.877099 C348.958206,384.250099 354.345206,370.186099 359.275206,357.449099 C361.725206,351.121099 364.110206,344.595099 367.181206,338.534099 C368.417206,336.093099 369.844206,333.574099 371.887206,331.707099 C374.471206,329.345099 378.137206,328.400099 380.477206,325.762099 C380.108206,326.178099 383.014206,323.428099 382.549206,324.332099 C382.965206,323.524099 382.239206,322.430099 382.497206,321.648099 C382.818206,320.677099 383.425206,320.473099 384.101206,319.623099 C385.316206,318.097099 386.759206,317.337099 384.851206,315.393099 C387.683206,314.767099 389.037206,313.848099 389.603206,310.815099 C390.016206,308.596099 389.182206,308.741099 390.638206,307.262099 C392.099206,305.776099 392.839206,306.936099 393.760206,304.363099 C394.861206,301.284099 395.592206,297.097099 396.252206,293.875099 C396.828206,291.062099 395.430206,286.925099 397.801206,284.939099 C400.804206,282.424099 403.491206,283.489099 402.953206,278.431099 C402.428206,273.500099 403.960206,270.513099 405.500206,265.847099 C408.573206,256.532099 409.761206,246.697099 412.455206,237.271099 C418.206206,217.155099 428.365206,199.018099 439.289206,181.311099 C449.383206,164.949099 463.495206,151.009099 477.122206,137.584099 C480.853206,133.907099 484.543206,130.177099 487.893206,126.146099 C490.779206,122.675099 492.097206,117.949099 494.871206,114.654099 C496.556206,112.653099 499.693206,111.797099 502.046206,110.736099 C505.970206,108.966099 510.646206,106.657099 515.075206,107.015099 C513.315206,112.948099 512.741206,119.881099 517.935206,124.330099 C524.236206,129.727099 529.947206,124.120099 535.723206,121.043099 C546.251206,115.434099 561.308206,120.583099 570.488206,112.176099 C572.675206,110.174099 573.285206,106.975099 575.557206,105.105099 C577.225206,103.734099 579.598206,103.386099 581.476206,102.364099 C587.181206,99.2590992 589.950206,93.5750992 587.729206,87.2960992 C585.699206,81.5560992 582.544206,79.5650992 589.566206,76.6560992 C595.266206,74.2960992 597.433206,70.7400992 594.853206,64.4090992 C592.393206,58.3730992 587.887206,57.6780992 583.623206,53.7280992 C579.493206,49.9020992 584.237206,45.4490992 587.331206,42.5770992 C591.321206,38.8720992 592.084206,35.5330992 587.458206,31.6800992 C582.614206,27.6460992 575.699206,27.7870992 570.052206,29.7820992 C563.666206,32.0370992 559.459206,35.7860992 556.757206,41.8610992 C554.005206,48.0460992 547.184206,46.3200992 541.660206,44.5960992 C536.377206,42.9480992 535.002206,39.3920992 531.533206,35.5630992 C527.675206,31.3040992 519.812206,34.9460992 515.262206,36.8920992 C504.054206,41.6820992 492.916206,49.2420992 492.471206,62.6330992 C492.206206,70.6180992 495.583206,77.4050992 497.339206,84.9000992 C498.945206,91.7540992 487.934206,91.2140992 486.027206,97.8440992 C465.686206,87.0760992 443.033206,83.7810992 420.295206,83.0480992 C396.128206,82.2680992 371.613206,81.6430992 347.652206,85.4550992 C353.214206,75.7650992 356.151206,65.1390992 360.990206,55.1840992 C362.383206,52.3180992 362.983206,52.5630992 366.057206,53.4290992 C371.962206,55.0920992 377.823206,56.9530992 383.716206,58.6660992 C405.244206,64.9240992 426.349206,72.4640992 447.165206,80.7220992 C449.188206,81.5250992 453.705206,83.7540992 455.478206,81.3300992 C457.524206,78.5350992 452.791206,75.0890992 450.875206,73.6830992 C442.493206,67.5340992 432.106206,63.8020992 422.719206,59.4880992 C402.196206,50.0590992 379.470206,45.5830992 358.056206,38.5800992 C311.827206,23.4590992 264.001206,11.9750992 215.959206,4.39009922 C204.235206,2.53909922 192.386206,2.26809922 180.611206,0.894099217 C170.181206,-0.322900783 159.732206,-0.294900783 149.303206,0.962099217 C130.041206,3.28509922 107.710206,8.29709922 96.8312062,25.9290992 C87.0102062,41.8490992 80.4542062,59.7480992 82.9602062,78.6320992 C83.7132062,84.3040992 86.1152062,91.0210992 93.1142062,89.5590992 C97.9692062,88.5450992 100.547206,84.4200992 102.801206,80.3940992 C106.207206,74.3120992 109.571206,68.2300992 113.262206,62.3110992 C114.631206,71.1860992 109.656206,79.9130992 110.438206,88.9540992 C110.970206,95.0890992 114.360206,104.782099 122.325206,103.045099 C133.242206,100.665099 137.735206,83.6100992 142.984206,75.4280992 C143.250206,81.7300992 141.041206,87.9410992 141.717206,94.2570992 C142.384206,100.496099 147.259206,106.386099 154.106206,105.531099 C160.564206,104.725099 164.761206,97.8060992 167.504206,92.5970992 C171.321206,85.3480992 174.063206,77.5760992 177.791206,70.2790992 C181.285206,63.4390992 185.424206,55.2960992 193.766206,54.0110992 C201.211206,52.8630992 209.743206,55.5200992 217.097206,56.6160992 C237.496206,59.6560992 257.484206,64.8320992 277.660206,69.0140992 C299.293206,73.4970992 321.437206,76.2200992 342.403206,83.4540992 C335.031206,93.4880992 315.739206,91.3200992 304.757206,92.3970992 C288.161206,94.0250992 271.352206,95.2500992 254.850206,97.6520992 C238.552206,100.024099 222.595206,104.235099 206.424206,107.292099 C190.338206,110.333099 174.280206,113.379099 158.715206,118.565099 C129.816206,128.194099 100.435206,140.380099 74.9732062,157.181099 C63.1262062,164.999099 52.6022062,173.934099 45.2842062,186.274099 C37.9192062,198.691099 34.3802062,212.732099 33.0302062,227.015099 C32.1902062,235.909099 33.6172062,243.606099 35.3402062,252.262099 C36.5882062,258.529099 36.9922062,269.022099 42.0172062,273.611099 C51.6082062,282.370099 59.5712062,246.842099 61.3422062,242.551099 C62.6172062,249.583099 60.5322062,289.199099 75.9212062,285.977099 C82.7892062,284.540099 84.3472062,275.113099 85.4862062,269.435099 C87.5642062,259.084099 89.4252062,248.525099 92.9792062,238.556099 C95.2602062,251.988099 96.2112062,265.982099 101.125206,278.811099 C104.389206,287.331099 113.702206,302.449099 120.195206,287.863099 C125.065206,276.924099 123.394206,264.369099 123.978206,252.755099 C124.625206,239.885099 128.320206,227.471099 129.628206,214.727099 C130.135206,209.790099 129.676206,204.226099 134.637206,201.532099 C138.896206,199.220099 145.124206,198.467099 149.774206,197.176099 C163.547206,193.352099 177.410206,189.837099 191.118206,185.780099 C204.832206,181.720099 218.356206,176.977099 231.887206,172.348099 C244.828206,167.921099 258.041206,165.404099 271.139206,161.613099 C278.586206,159.457099 285.943206,157.202099 293.494206,155.402099 C297.008206,154.565099 300.565206,153.913099 304.071206,153.046099 C306.670206,152.404099 310.094206,149.981099 312.766206,150.024099 C315.516206,150.069099 316.550206,152.397099 319.703206,152.580099 C323.098206,152.776099 326.550206,152.027099 329.926206,151.768099 C338.151206,151.137099 346.894206,150.117099 355.100206,151.257099 C350.168206,157.107099 343.507206,161.151099 337.669206,165.997099 C330.936206,171.586099 324.420206,177.621099 318.669206,184.221099 C307.097206,197.501099 296.160206,211.538099 285.999206,225.925099 C275.976206,240.118099 267.906206,255.649099 260.890206,271.517099 C257.394206,279.424099 254.000206,287.504099 251.585206,295.815099 C250.593206,299.229099 249.783206,302.656099 247.992206,305.761099 C246.349206,308.609099 244.034206,311.064099 245.976206,314.503099 C247.313206,313.666099 248.514206,312.626099 249.723206,311.621099 C248.326206,321.462099 245.311206,330.982099 243.761206,340.793099 C242.233206,350.459099 242.295206,360.400099 242.394206,370.162099 C242.602206,390.606099 244.122206,410.587099 248.269206,430.640099 C252.463206,450.917099 257.851206,471.040099 264.645206,490.601099 C271.185206,509.435099 277.748206,529.186099 286.877206,546.937099 C296.627206,565.897099 308.226206,585.831099 322.339206,601.880099 C313.120206,605.656099 301.388206,604.950099 291.626206,606.471099 C281.422206,608.061099 272.595206,611.062099 263.899206,616.708099 C255.101206,622.422099 250.325206,629.778099 249.109206,640.196099 C248.245206,647.611099 245.678206,657.877099 255.406206,659.825099 C262.403206,661.226099 270.225206,658.925099 277.236206,658.356099 C289.500206,657.362099 301.782206,656.741099 314.073206,656.205099 C326.332206,655.670099 338.594206,655.199099 350.857206,654.819099 C356.625206,654.640099 362.396206,654.550099 368.162206,654.343099 C370.746206,654.251099 372.313206,654.211099 374.630206,654.958099 C376.462206,655.549099 376.328206,656.776099 378.368206,655.259099 C381.658206,652.812099 380.981206,645.097099 380.889206,641.705099 C380.749206,636.470099 380.253206,631.175099 379.232206,626.039099 C378.626206,622.987099 371.270206,603.314099 376.990206,602.486099 C370.345206,595.184099 367.691206,584.757099 364.706206,575.605099 C360.966206,564.139099 357.683206,552.705099 355.106206,540.912099 C349.601206,515.721099 347.168206,490.255099 347.168206,464.480099 C372.686206,480.209099 399.685206,488.729099 429.741206,489.679099 C459.623206,490.624099 492.452206,488.170099 520.827206,478.229099 C533.967206,473.625099 545.737206,467.579099 557.003206,459.434099 C561.041206,456.515099 565.367206,449.903099 570.667206,450.016099 C576.992206,450.152099 584.075206,452.546099 590.356206,453.570099 C602.368206,455.528099 618.046206,456.633099 628.216206,464.063099 C633.740206,468.099099 637.699206,473.748099 642.629206,478.398099 C646.379206,481.936099 651.338206,483.857099 655.060206,487.395099 C659.076206,491.212099 657.481206,496.199099 664.140206,496.508099 C669.832206,496.771099 676.073206,494.481099 680.982206,491.793099 C690.776206,486.430099 701.206206,474.983099 692.154206,464.119099" id="react-path-226"></path><path d="M598.017606,209.031099 C612.350606,219.212099 628.790606,226.167099 643.768606,235.336099 C647.517606,237.631099 659.197606,242.396099 659.084606,246.653099 C659.018606,249.142099 655.508606,252.263099 653.971606,253.988099 C651.338606,256.943099 648.861606,259.929099 646.431606,263.055099 C635.309606,277.370099 624.835606,291.820099 612.781606,305.416099 C610.966606,307.461099 605.499606,317.226099 603.734606,312.376099 C602.934606,310.177099 603.593606,307.706099 601.508606,305.656099 C600.435606,304.600099 596.288606,304.018099 597.496606,301.753099 C598.301606,302.115099 599.107606,302.478099 599.913606,302.839099 C599.287606,301.029099 599.333606,299.046099 598.395606,297.335099 C597.812606,296.272099 596.673606,295.769099 596.278606,294.572099 C595.732606,292.918099 596.658606,290.996099 596.503606,289.291099 C596.350606,287.591099 595.469606,285.984099 594.943606,284.380099 C591.824606,274.872099 590.705606,265.287099 589.108606,255.477099 C587.528606,245.770099 585.067606,236.367099 584.101606,226.552099 C583.080606,216.185099 581.829606,205.839099 580.160606,195.555099 C583.139606,195.973099 585.429606,199.210099 587.536606,201.040099 C590.848606,203.916099 594.444606,206.493099 598.017606,209.031099 M586.781606,309.398099 C586.097606,308.861099 585.562606,308.201099 585.176606,307.419099 C592.201606,303.939099 587.962606,309.876099 586.781606,309.398099 M582.509606,301.976099 C579.447606,302.820099 577.247606,302.991099 574.886606,301.731099 C574.662606,301.612099 574.920606,300.691099 574.516606,300.502099 C574.163606,300.338099 573.624606,300.541099 573.322606,300.387099 C572.294606,299.864099 570.494606,301.010099 570.319606,299.008099 C574.227606,297.812099 578.070606,295.605099 582.196606,295.233099 C587.930606,294.717099 587.665606,300.554099 582.509606,301.976099 M569.093606,290.436099 C564.915606,291.413099 561.473606,293.695099 557.034606,293.099099 C552.867606,292.541099 549.246606,290.380099 545.959606,287.890099 C554.182606,285.562099 562.805606,285.142099 571.021606,282.890099 C573.696606,282.157099 577.211606,280.224099 580.094606,281.003099 C583.297606,281.869099 583.499606,284.869099 584.459606,287.599099 C579.333606,288.521099 574.168606,289.250099 569.093606,290.436099 M542.962606,278.852099 C538.948606,279.811099 534.845606,281.908099 531.489606,278.289099 C530.947606,277.705099 530.473606,278.288099 530.537606,276.489099 C530.604606,274.592099 532.326606,273.370099 533.807606,272.702099 C537.289606,271.132099 542.170606,272.147099 545.868606,271.916099 C551.767606,271.549099 557.771606,270.323099 563.606606,269.379099 C567.646606,268.726099 571.819606,267.276099 575.948606,267.562099 C579.136606,267.783099 582.982606,270.500099 578.336606,272.482099 C574.105606,274.288099 567.761606,274.011099 563.177606,274.793099 C556.401606,275.949099 549.649606,277.254099 542.962606,278.852099 M539.041606,259.968099 C539.301606,260.233099 539.561606,260.498099 539.821606,260.763099 C539.778606,260.753099 541.360606,259.472099 541.779606,259.435099 C543.814606,259.258099 545.861606,259.398099 547.899606,259.283099 C552.595606,259.018099 557.328606,258.200099 561.940606,257.299099 C565.697606,256.565099 569.524606,255.300099 573.391606,255.617099 C576.739606,255.891099 577.091606,256.577099 577.310606,259.808099 C568.764606,259.808099 559.961606,259.628099 551.562606,261.437099 C546.094606,262.614099 540.068606,266.120099 537.329606,259.800099 C537.900606,259.856099 538.470606,259.912099 539.041606,259.968099 M544.384606,246.289099 C546.503606,247.903099 552.280606,245.219099 554.820606,244.951099 C557.578606,244.659099 560.173606,244.356099 562.846606,243.669099 C565.216606,243.059099 573.057606,240.013099 574.875606,242.926099 C577.662606,247.389099 566.377606,248.208099 564.588606,248.429099 C557.085606,249.356099 549.300606,250.178099 541.999606,252.146099 C542.794606,250.194099 543.589606,248.242099 544.384606,246.289099 M554.676606,231.130099 C555.224606,233.193099 572.192606,225.591099 572.501606,231.116099 C572.739606,235.355099 555.713606,237.467099 552.652606,237.095099 C553.369606,235.143099 555.276606,233.395099 554.676606,231.130099 M560.373606,218.163099 C560.734606,214.002099 561.292606,214.026099 564.629606,213.634099 C567.174606,213.335099 570.672606,211.843099 570.010606,216.379099 C569.443606,220.263099 560.010606,222.362099 560.373606,218.163099 M566.438606,203.846099 C567.241606,201.612099 569.048606,204.619099 569.086606,205.755099 C569.187606,208.778099 566.895606,208.124099 564.689606,208.124099 C565.303606,206.712099 565.887606,205.284099 566.438606,203.846099 M594.365606,187.077099 C593.915606,186.535099 591.389606,186.328099 590.670606,186.065099 C588.902606,185.417099 589.153606,184.036099 586.891606,185.398099 C586.778606,185.284099 586.993606,184.260099 586.870606,184.213099 C586.808606,184.189099 585.223606,183.591099 584.708606,183.261099 C583.465606,182.465099 582.345606,181.686099 581.203606,180.687099 C579.989606,179.626099 578.773606,178.086099 577.386606,177.241099 C576.801606,176.885099 576.323606,176.380099 575.618606,176.271099 C573.789606,175.989099 574.313606,177.263099 572.714606,177.516099 C571.729606,177.672099 571.012606,176.522099 569.724606,177.018099 C568.611606,177.446099 567.965606,179.007099 567.469606,179.936099 C565.666606,183.317099 564.275606,186.956099 562.510606,190.373099 C553.484606,207.846099 543.225606,224.656099 534.482606,242.292099 C530.271606,250.788099 525.877606,259.343099 522.913606,268.372099 C520.776606,274.884099 515.950606,284.397099 520.102606,290.904099 C523.121606,295.635099 529.166606,297.678099 533.989606,299.964099 C541.246606,303.404099 547.936606,307.900099 555.273606,311.235099 C564.022606,315.212099 572.518606,319.372099 581.046606,323.813099 C584.683606,325.707099 587.965606,328.435099 591.590606,330.229099 C593.807606,331.326099 597.231606,329.454099 597.953606,331.969099 C600.732606,328.603099 605.230606,330.847099 608.445606,328.477099 C610.336606,327.083099 611.718606,324.337099 613.295606,322.620099 C615.661606,320.046099 618.229606,317.658099 620.643606,315.129099 C630.224606,305.084099 639.071606,294.622099 647.788606,283.833099 C656.114606,273.530099 665.841606,263.796099 672.874606,252.518099 C675.667606,248.041099 676.173606,243.346099 674.330606,238.400099 C672.984606,234.792099 669.742606,229.344099 665.111606,231.733099 C666.867606,228.817099 660.093606,225.703099 658.038606,225.133099 C658.007606,225.125099 657.602606,227.365099 657.029606,227.309099 C657.233606,227.329099 655.307606,222.346099 654.461606,221.707099 C651.949606,219.806099 648.893606,217.588099 646.152606,216.023099 C643.638606,214.588099 640.985606,213.877099 638.550606,212.271099 C635.598606,210.325099 632.888606,208.017099 629.925606,206.084099 C627.064606,204.218099 623.875606,202.012099 620.713606,200.729099 C617.971606,199.616099 615.509606,199.398099 613.042606,197.574099 C609.990606,195.317099 607.328606,193.786099 603.808606,192.231099 C600.763606,190.886099 596.543606,189.711099 594.365606,187.077099" id="react-path-227"></path><path d="M178.709006,457.319699 C179.269006,456.004699 179.827006,454.689699 180.387006,453.375699 C181.079006,455.667699 181.273006,456.807699 178.709006,457.319699 M179.454006,463.393699 C178.241006,463.610699 178.719006,459.805699 178.719006,459.142699 C180.814006,460.328699 179.079006,461.750699 179.454006,463.393699 M177.563006,452.416699 C178.597006,451.805699 179.631006,451.195699 180.665006,450.584699 C179.225006,453.252699 179.790006,451.585699 180.384006,453.367699 C179.298006,453.679699 178.242006,453.315699 177.563006,452.416699 M171.435006,473.268699 C167.559006,487.331699 155.248006,498.422699 142.245006,504.167699 C134.773006,507.467699 127.427006,508.293699 119.358006,507.925699 C116.246006,507.783699 112.584006,506.772699 109.589006,506.960699 C107.283006,507.105699 107.387006,507.205699 105.477006,509.157699 C104.632006,507.601699 105.244006,506.509699 103.549006,505.603699 C101.434006,504.473699 100.556006,505.789699 99.5070062,507.354699 C98.1340062,505.931699 97.5720062,505.188699 95.7930062,504.343699 C95.8490062,504.370699 94.0900062,504.303699 94.1620062,504.325699 C93.8440062,504.227699 91.9310062,502.997699 91.3320062,502.773699 C88.8740062,501.851699 86.0320062,501.472699 83.7640062,500.149699 C81.7800062,498.994699 80.1460062,495.751699 77.8760062,498.243699 C77.8740062,494.079699 72.2650062,492.352699 69.6360062,490.171699 C65.5280062,486.763699 62.2620062,481.717699 60.2140062,476.836699 C58.0300062,471.631699 57.3010062,466.641699 56.2790062,461.277699 C55.5650062,457.529699 50.8890062,452.111699 53.6970062,448.329699 C54.3660062,449.915699 54.0520062,451.539699 55.1630062,452.977699 C56.1630062,451.050699 56.7130062,448.894699 57.1650062,446.785699 C57.3870062,445.752699 58.6730062,442.720699 58.5270062,441.820699 C58.2300062,439.978699 55.9500062,439.878699 57.2140062,437.620699 C59.8360062,440.473699 61.9520062,435.463699 59.9710062,433.466699 C58.9930062,434.569699 58.6340062,435.822699 58.1830062,437.188699 C55.6050062,431.984699 62.7400062,433.660699 61.1790062,428.962699 C63.7830062,428.461699 65.2800062,427.805699 66.2700062,425.232699 C67.3710062,422.369699 66.5610062,421.745699 69.0610062,419.853699 C69.9210062,419.203699 72.3530062,418.268699 72.7980062,417.198699 C73.6590062,415.131699 71.4680062,414.518699 73.3870062,412.581699 C74.0350062,413.718699 76.5610062,415.969699 77.9440062,413.827699 C78.2210062,413.400699 77.0580062,413.097699 77.9040062,412.113699 C79.1570062,410.657699 80.5590062,409.229699 82.6780062,409.535699 C81.0000062,405.340699 91.7220062,405.008699 94.4680062,404.018699 C97.2200062,403.027699 99.5550062,402.376699 102.473006,402.146699 C105.388006,401.916699 105.533006,401.062699 108.001006,399.307699 C108.210006,401.818699 108.814006,401.266699 110.599006,401.709699 C111.028006,400.973699 111.468006,400.890699 111.918006,401.461699 C112.366006,401.887699 112.914006,402.087699 113.560006,402.063699 C114.540006,402.114699 115.652006,401.986699 116.679006,402.007699 C119.090006,402.054699 121.577006,401.853699 123.942006,401.904699 C124.552006,401.802699 125.122006,401.590699 125.656006,401.267699 C125.879006,401.687699 126.103006,402.108699 126.325006,402.529699 C127.578006,402.686699 127.675006,404.256699 129.216006,402.539699 C129.672006,404.722699 130.982006,403.586699 132.366006,404.178699 C133.628006,404.719699 133.829006,405.583699 134.994006,406.186699 C135.760006,406.807699 136.581006,406.889699 137.459006,406.434699 C138.294006,407.053699 139.142006,407.654699 140.002006,408.237699 C141.587006,409.132699 143.455006,409.680699 145.125006,410.387699 C146.236006,410.845699 147.340006,411.322699 148.435006,411.816699 C148.468006,413.138699 149.061006,413.605699 150.213006,413.216699 C151.254006,414.087699 151.547006,414.053699 152.557006,415.536699 C154.845006,418.897699 156.875006,421.508699 159.765006,424.512699 C172.326006,437.572699 176.185006,456.036699 171.435006,473.268699 M175.290006,417.734699 C169.619006,410.140699 161.592006,401.444699 154.379006,396.648699 C150.723006,394.216699 145.591006,389.851699 141.120006,388.565699 C140.060006,388.260699 138.963006,388.240699 137.921006,387.920699 C137.116006,387.673699 136.678006,386.847699 135.760006,386.698699 C135.118006,386.594699 135.047006,388.031699 134.365006,387.899699 C132.939006,387.621699 132.035006,386.206699 131.028006,385.321699 C128.865006,389.048699 127.691006,382.780699 124.515006,386.994699 C120.735006,381.067699 111.855006,382.363699 105.819006,382.662699 C104.029006,382.750699 103.188006,383.387699 101.601006,383.859699 C100.124006,384.298699 99.9780062,384.185699 98.3650062,384.173699 C94.3480062,384.142699 90.7820062,384.647699 87.0690062,386.411699 C80.8310062,389.374699 75.1050062,393.991699 69.1800062,397.562699 C62.5580062,401.553699 56.5890062,406.633699 51.5230062,412.470699 C33.2090062,433.576699 28.3120062,464.383699 42.9150062,488.851699 C66.1100062,527.712699 125.941006,531.865699 159.844006,505.497699 C186.037006,485.124699 196.005006,445.468699 175.290006,417.734699" id="react-path-228"></path><path d="M462.378906,308.377499 C461.727906,309.930499 455.648906,309.407499 455.515906,307.576499 C455.317906,304.840499 463.509906,305.678499 462.378906,308.377499 M468.835906,307.361499 C472.280906,307.641499 477.940906,309.981499 481.260906,308.567499 C486.327906,306.409499 481.006906,303.097499 478.288906,302.107499 C475.522906,301.100499 471.402906,301.635499 469.980906,298.743499 C468.910906,296.568499 471.554906,290.496499 468.274906,291.472499 C464.832906,292.496499 465.833906,301.194499 460.432906,298.262499 C457.856906,296.863499 458.907906,288.341499 454.592906,292.695499 C453.411906,293.886499 453.308906,296.073499 451.744906,296.961499 C450.148906,297.868499 448.146906,296.923499 446.461906,297.002499 C442.000906,297.211499 440.579906,301.384499 445.099906,303.039499 C446.772906,303.652499 453.078906,304.400499 449.258906,307.134499 C446.851906,308.856499 441.504906,305.242499 439.437906,308.240499 C436.596906,312.358499 444.206906,312.451499 446.250906,313.683499 C449.714906,315.769499 446.853906,320.642499 447.129906,324.112499 C447.552906,329.414499 450.632906,328.306499 451.751906,323.819499 C452.700906,320.012499 451.524906,314.532499 457.263906,316.045499 C466.609906,318.509499 452.066906,330.374499 458.912906,333.410499 C463.277906,335.346499 463.895906,324.881499 464.234906,323.079499 C465.489906,316.428499 469.225906,317.980499 474.885906,318.184499 C481.497906,318.422499 483.093906,313.531499 476.091906,312.130499 C473.857906,311.683499 470.784906,312.248499 468.844906,310.825499 C467.696906,309.984499 466.118906,307.141499 468.835906,307.361499" id="react-path-229"></path><path d="M224.711006,524.655599 C219.360006,522.739599 210.408006,523.153599 209.084006,530.064599 C208.530006,532.957599 209.609006,536.017599 211.607006,538.119599 C213.924006,540.556599 217.614006,540.782599 217.417006,536.538599 C217.280006,533.601599 214.485006,531.050599 219.399006,530.458599 C222.457006,530.090599 226.980006,532.377599 227.132006,535.755599 C227.476006,543.369599 214.296006,543.966599 209.439006,542.649599 C199.799006,540.037599 202.418006,529.940599 209.038006,525.332599 C210.748006,524.141599 215.655006,522.307599 215.879006,519.834599 C216.177006,516.554599 212.121006,517.224599 210.133006,517.656599 C195.520006,520.837599 192.335006,545.317599 207.604006,549.932599 C214.538006,552.027599 224.303006,549.864599 228.482006,543.584599 C232.400006,537.696599 232.453006,527.427599 224.711006,524.655599" id="react-path-230"></path><path d="M30.9571062,351.359699 C26.3891062,353.558699 21.8211062,355.757699 17.2541062,357.956699 C15.7441062,354.725699 13.1931062,345.898699 9.36310617,344.771699 C3.16310617,342.946699 7.11110617,352.568699 8.18110617,354.768699 C9.06010617,356.575699 11.0991062,359.375699 10.6041062,361.529699 C9.94010617,364.431699 5.84610617,365.459699 3.70310617,366.956699 C-1.59989383,370.662699 -1.55789383,378.445699 6.12210617,375.147699 C10.4681062,373.280699 15.8491062,368.103699 19.1801062,373.981699 C20.7181062,376.693699 24.3621062,391.845699 28.1681062,381.936699 C30.5231062,375.801699 19.1881062,369.427699 24.7761062,364.237699 C26.5751062,362.567699 28.6811062,362.426699 30.4781062,361.466699 C34.8181062,359.147699 32.3711062,354.862699 30.9571062,351.359699" id="react-path-231"></path><path d="M700.643606,131.820099 C697.920606,130.824099 694.551606,128.879099 691.524606,129.542099 C688.307606,130.246099 687.012606,133.468099 684.673606,135.405099 C678.314606,140.672099 674.610606,132.822099 671.116606,128.520099 C667.816606,124.458099 663.790606,123.472099 659.134606,125.968099 C657.279606,126.963099 649.464606,131.522099 650.827606,134.443099 C651.807606,136.545099 655.668606,134.658099 656.985606,134.199099 C659.844606,133.204099 662.499606,132.333099 665.423606,133.784099 C670.908606,136.504099 672.331606,143.963099 678.967606,145.126099 C685.829606,146.329099 686.054606,139.799099 690.951606,137.341099 C694.234606,135.694099 696.521606,138.610099 699.688606,138.029099 C702.706606,137.476099 704.102606,133.084099 700.643606,131.820099" id="react-path-232"></path><path d="M645.244206,158.137099 C647.671206,158.664099 649.255206,153.957099 650.774206,152.763099 C653.294206,150.784099 657.663206,150.385099 660.229206,152.377099 C665.240206,156.265099 663.513206,164.659099 670.648206,166.847099 C677.025206,168.803099 680.029206,160.404099 685.397206,158.313099 C688.518206,157.097099 691.944206,156.301099 690.726206,151.938099 C689.885206,148.921099 687.407206,148.146099 684.713206,149.305099 C680.083206,151.295099 678.511206,159.402099 673.022206,159.547099 C667.343206,159.697099 666.727206,151.510099 664.289206,147.944099 C660.572206,142.509099 652.931206,141.196099 648.589206,146.393099 C647.278206,147.961099 640.622206,157.136099 645.244206,158.137099" id="react-path-233"></path><path d="M532.987306,65.3264992 C536.363306,67.6364992 543.091306,67.5564992 546.201306,64.6914992 C549.366306,61.7764992 545.141306,61.3284992 542.563306,61.4174992 C540.580306,61.4864992 536.868306,62.4694992 537.998306,59.0444992 C539.001306,56.0054992 544.514306,57.5524992 544.974306,54.2164992 C540.825306,53.4724992 536.255306,53.7404992 533.186306,57.0014992 C530.967306,59.3584992 529.827306,63.1634992 532.987306,65.3264992" id="react-path-234"></path></g></g></g></svg>